<svg xmlns:rdf="http://www.w3.org/1999/02/22-rdf-syntax-ns#" xmlns="http://www.w3.org/2000/svg" height="2500" width="2500" version="1.1" xmlns:cc="http://creativecommons.org/ns#" xmlns:dc="http://purl.org/dc/elements/1.1/" viewBox="-4.00959 -4.00959 557.76449 557.46804">
<g transform="translate(0 236.91)">
<path d="m348.9 55.487c-0.0308-1.235 1.5687-1.7792 3.5739-1.7792 3.9872 0 6.2569 1.1374 8.7986 2.8139 0.26445 0.17972 0.58795 0.2362 0.90118 0.16164 0.31066-0.0746 0.5751-0.27471 0.73172-0.552l3.3788-5.8846c0.31066-0.54173 0.12591-1.2298-0.40822-1.5482-2.7806-1.6611-6.85-3.8024-13.916-3.8024-10.195 0-15.651 4.8011-14.74 11.697 1.6021 12.121 20.452 7.9668 20.16 12.106-0.0668 0.95509-1.7356 1.6688-4.6214 1.6688-3.7305 0-7.9719-1.8665-10.645-3.5251-0.26444-0.16432-0.59051-0.21567-0.88833-0.13351-0.30553 0.077-0.5597 0.27215-0.71632 0.5443l-3.9051 6.511c-0.29525 0.52889-0.14644 1.1913 0.35688 1.5276 3.751 2.5315 9.8051 4.2337 15.063 4.2337 10.206 0 16.09-4.3826 16.09-11.587 0.002-13.292-19.133-9.1683-19.215-12.452m-8.8831-20.517v-0.004c-0.002-0.002-0.002-0.004-0.002-0.008 0-0.0284 0-0.0592-0.0256-0.0873l-0.002 0.002c-0.77024-3.4404-4.5136-5.9257-8.203-5.1631-3.7254 0.77024-6.1696 4.2389-5.4456 7.728 0.59565 2.8807 3.158 4.8833 6.1311 5.0681-0.19 1.1759-1.2298 2.2311-2.1002 2.7164-0.57767 0.32863-0.23106 0.95252-0.23106 0.95252l0.76767 1.1348c0.2208 0.38255 0.55713 0.57768 0.95508 0.41336 7.6407-3.1297 8.945-9.6485 8.1491-12.752m-27.068 9.7637c-9.6305 0-17.443 7.8102-17.443 17.446 0 9.6382 7.8127 17.454 17.443 17.454 9.6382 0 17.456-7.8153 17.456-17.454 0-9.6356-7.8179-17.446-17.456-17.446m0 23.156c-3.2863 0-5.9488-2.6727-5.9488-5.9642 0-3.2812 2.6624-5.9436 5.9488-5.9436 3.294 0 5.9565 2.6624 5.9565 5.9436 0 3.2915-2.6624 5.9642-5.9565 5.9642m-154.03-23.209c-9.6356 0-17.448 7.8127-17.448 17.438 0 9.6459 7.8127 17.456 17.448 17.456 9.6382 0 17.448-7.8102 17.448-17.456 0-9.6254-7.8102-17.438-17.448-17.438m0 23.153c-3.2889 0-5.9513-2.6624-5.9513-5.9616 0-3.2863 2.6624-5.9436 5.9513-5.9436s5.9539 2.6573 5.9539 5.9436c0 3.2992-2.665 5.9616-5.9539 5.9616m121.91-23c-6.3827 0-9.8564 2.8678-11.356 4.5829v-2.6111c0-0.6393-0.51606-1.1528-1.1528-1.1528h-10.016c-0.63415 0-1.1476 0.51349-1.1476 1.1528v30.753c0 0.63159 0.51349 1.1476 1.1476 1.1476h10.016c0.63673 0 1.1528-0.51606 1.1528-1.1476v-19.248c0.79847-0.90374 2.2902-2.5982 5.2658-2.5982 3.1862 0 4.796 1.5918 4.796 4.7164v17.13c0 0.63159 0.51349 1.1476 1.1528 1.1476h10.013c0.63672 0 1.1502-0.51606 1.1502-1.1476v-22.321c0-6.5162-4.1182-10.403-11.022-10.403m-34.752-15.399c-3.8101 0-6.9167 3.1015-6.9167 6.909 0 3.8152 3.1066 6.9141 6.9167 6.9141 3.8075 0 6.9116-3.0989 6.9116-6.9141 0-3.8075-3.104-6.909-6.9116-6.909m4.7054 16.22h-10.016c-0.63929 0-1.1528 0.51349-1.1528 1.1502v30.755c0 0.62902 0.51349 1.1451 1.1528 1.1451h10.016c0.63674 0 1.1554-0.51606 1.1554-1.1451v-30.755c0-0.63673-0.51861-1.1502-1.1554-1.1502m-26.38-0.82131c-5.3146 0-9.6356 2.9192-11.564 5.8153-1.4121-3.8589-4.6188-5.8153-9.5124-5.8153-5.4173 0-9.5201 2.7395-10.953 4.5829v-2.6111c0-0.6393-0.51349-1.1528-1.1502-1.1528h-10.016c-0.63415 0-1.1476 0.51349-1.1476 1.1528v30.753c0 0.63159 0.51349 1.1476 1.1476 1.1476h10.016c0.63672 0 1.1502-0.51606 1.1502-1.1476v-19.248-0.004c0.72402-0.83699 2.2286-2.5931 4.9937-2.5931 2.4262 0 3.7639 1.3171 3.7639 3.6971v18.149c0 0.63159 0.51862 1.1476 1.1502 1.1476h10.016c0.63672 0 1.1554-0.51606 1.1554-1.1476v-19.248c0.72144-0.84212 2.2285-2.5982 5.0579-2.5982 2.3954 0 3.769 1.3479 3.769 3.6971v18.149c0 0.63159 0.51091 1.1476 1.1502 1.1476h10.013c0.63416 0 1.1476-0.51606 1.1476-1.1476v-22.801c0-6.4006-3.615-9.9232-10.193-9.9232m-110.39-11.774h-19.253c-0.6393 0-1.1528 0.51349-1.1528 1.1554v43.344c0 0.62903 0.51349 1.1451 1.1528 1.1451h19.315c15.174 0 24.984-8.9681 24.984-22.858 0-13.844-9.8333-22.786-25.045-22.786m0 33.608h-6.5752v-21.567h6.6368c6.8551 0 10.95 4.018 10.95 10.745 0 5.3762-3.7818 10.822-11.012 10.822" fill="#006491"/>
<g transform="matrix(.83833 0 0 .83822 -19.267 -4.0318)">
<path d="m116.23 28.886-27.115-27.111c-1.144-1.1438-2.665-1.775-4.284-1.775-1.617 0-3.139 0.63125-4.284 1.775l-22.734 22.736-37.842 37.842c-2.3625 2.3625-2.3625 6.2062 0 8.5675l27.11 27.116c1.145 1.1438 2.6662 1.775 4.285 1.775s3.14-0.63125 4.2838-1.775l33.918-33.925 26.659-26.659c2.3625-2.3612 2.3625-6.205 0.001-8.5675" fill="#fff"/>
<path d="m114.31 30.814-27.112-27.11c-1.3075-1.3075-3.4262-1.3075-4.7338 0l-29.31 29.311 31.841 31.845 29.314-29.314c1.3075-1.3062 1.3075-3.425 0-4.7325m-23.842 7.8375c-1.535 1.5338-3.5512 2.2988-5.5538 2.2988-2.0062-0.001-4.0188-0.765-5.5538-2.2988-1.5312-1.5312-2.3025-3.545-2.3025-5.5512 0-2.01 0.77125-4.025 2.3025-5.5538 1.535-1.5312 3.545-2.3038 5.5538-2.3038 2.0025 0 4.0188 0.76625 5.5538 2.305 1.5288 1.5275 2.3025 3.5425 2.3012 5.5525 0.001 2.0038-0.7725 4.0188-2.3012 5.5512" fill="#e31837"/>
<path d="m21.889 64.271c-1.3075 1.3075-1.3075 3.4262 0 4.7338l27.111 27.116c0.6525 0.6525 1.5088 0.97875 2.3662 0.97875 0.85625 0 1.7138-0.32625 2.3662-0.97875l29.297-29.304-31.842-31.845-29.298 29.299zm23.478 7.8088c-1.5362 1.525-3.5488 2.2912-5.555 2.2912-2.0112 0-4.0212-0.765-5.555-2.2912-1.535-1.53-2.2962-3.5438-2.2962-5.55 0-2.01 0.765-4.0212 2.2975-5.56 1.5325-1.53 3.5425-2.295 5.5538-2.2962 2.0062 0.001 4.0225 0.76625 5.555 2.2975 1.5325 1.5375 2.2962 3.5488 2.2938 5.555 0 2.0088-0.76125 4.025-2.2938 5.5538m11.94-10.789c1.5325-1.5362 3.545-2.3025 5.5525-2.3025 2.0088 0 4.02 0.76625 5.55 2.3025 1.5388 1.5312 2.3062 3.5388 2.3062 5.5538 0 2.005-0.7675 4.0188-2.3062 5.5462-1.53 1.5275-3.5412 2.2975-5.55 2.3-2.0088 0-4.02-0.77125-5.5525-2.3-1.5338-1.5325-2.3012-3.545-2.3012-5.5462 0-2.0088 0.7675-4.0212 2.3012-5.5538" fill="#006491"/>
</g>
<path d="m402.82 55.178h-2.5234v-10.405h2.6032c5.1576 0 6.6304 2.5337 6.6304 4.8615 0 2.8608-1.2797 5.5438-6.7103 5.5438m12.926-18.689c-4.228-2.9277-8.5771-3.6178-15.408-3.6178l-12.823 0.049c-0.59996 0-1.0892 0.48409-1.0892 1.0892v43.568c0 0.60253 0.48923 1.0918 1.0918 1.0918h10.434 1.2514c0.59996 0 1.0944-0.48666 1.0944-1.0944v-1.3261-9.6251c5.9893 0 12.064-0.0593 16.565-3.9577 3.1414-2.7114 5.4923-7.0914 5.4923-13.003 0-4.586-2.3406-10.222-6.6073-13.173m16.298-7.0552c-3.8058 0-6.9111 3.0951-6.9111 6.9034 0 3.8135 3.1054 6.9086 6.9111 6.9086 3.8058 0 6.906-3.0951 6.906-6.9086 0-3.8083-3.1002-6.9034-6.906-6.9034m5.0072 16.204h-10.014c-0.63344 0-1.151 0.51757-1.151 1.1484v30.74c0 0.63086 0.51756 1.1433 1.151 1.1433h10.014c0.636 0 1.1484-0.51241 1.1484-1.1433v-30.74c0-0.63085-0.51242-1.1484-1.1484-1.1484m87.945 22.814c-3.6487 0-6.5996-2.9612-6.5996-6.615 0-3.6384 2.9509-6.5892 6.5996-6.5892s6.6021 2.9509 6.6021 6.5892c0 3.6538-2.9534 6.615-6.6021 6.615m17.795-22.899h-10.04c-0.63085 0-1.1536 0.51499-1.1536 1.1536v1.9492c-2.6985-2.4874-6.1592-3.9834-9.9289-3.9834-8.6234 0-15.612 7.8252-15.612 17.479 0 9.6637 6.9884 17.481 15.612 17.481 3.7697 0 7.2304-1.4909 9.9289-3.9757v1.8617c0 0.636 0.52272 1.151 1.1536 1.151h10.04c0.63344 0 1.1536-0.51499 1.1536-1.151v-30.812c0-0.63858-0.52013-1.1536-1.1536-1.1536m-67.479 31.963c0 0.63859 0.51241 1.151 1.1561 1.151h26.414c0.67464 0 1.151-0.51241 1.151-1.151v-8.3634c0-0.62828-0.51241-1.1484-1.1562-1.1484h-11.057s9.4809-10.961 11.206-12.939c0.47121-0.54331 1.0763-1.1046 1.0763-2.5389 0-0.29097 0.002-5.737 0.002-5.737 0-0.63343-0.51241-1.151-1.1536-1.151h-26.483c-0.64374 0-1.1562 0.51242-1.1562 1.151v7.0476 1.3184c0 0.63344 0.51241 1.1484 1.1562 1.1484h1.4008 9.9418s-11.6 13.269-11.803 13.506c-0.46863 0.54074-0.69523 1.3003-0.69523 2.1114v5.5953zm-32.932 0c0 0.63859 0.51499 1.151 1.151 1.151h26.424c0.67721 0 1.1587-0.51241 1.1587-1.151v-8.3634c0-0.62828-0.51756-1.1484-1.1587-1.1484h-11.178s9.6096-10.954 11.319-12.939c0.47121-0.54588 1.0866-1.1046 1.0866-2.5389v-5.737c0-0.63343-0.51756-1.151-1.1587-1.151h-26.493c-0.63344 0-1.151 0.51242-1.151 1.151v7.0476 1.3184c0 0.63344 0.51499 1.1484 1.151 1.1484h1.4111 9.9444s-11.608 13.269-11.809 13.506c-0.47122 0.54074-0.69781 1.3003-0.69781 2.1114v5.5953z" fill="#006491"/>
<path d="m107.07 61.483c-0.6725 0-1.2162-0.545-1.2162-1.2162 0-0.67751 0.54375-1.2162 1.2162-1.2162 0.6775 0 1.2162 0.53875 1.2162 1.2162 0 0.67125-0.53875 1.2162-1.2162 1.2162m0-2.2488c-0.57375 0-1.0338 0.4525-1.0338 1.0325 0 0.56749 0.46 1.0325 1.0338 1.0325 0.57375 0 1.0325-0.465 1.0325-1.0325 0-0.58001-0.45875-1.0325-1.0325-1.0325m0.3325 1.7325-0.36125-0.55125h-0.24125v0.55125h-0.195v-1.395h0.56875c0.235 0 0.4525 0.16626 0.4525 0.42376 0 0.31125-0.275 0.415-0.355 0.415l0.3725 0.55625h-0.24125zm-0.22875-1.2225h-0.37375v0.4925h0.37375c0.12 0 0.2525-0.0962 0.2525-0.24125 0-0.15376-0.1325-0.25125-0.2525-0.25125" fill="#006491"/>
<text style="word-spacing:0px;letter-spacing:0px" line-height="125%" font-size="9.9044px" y="78.640579" x="34.264984" font-family="sans-serif" xml:space="preserve" fill="#0073ab"><tspan y="78.640579" x="34.264984">®</tspan></text>
<text style="word-spacing:0px;letter-spacing:0px" line-height="125%" font-size="9.9044px" y="52.146759" x="544.61951" font-family="sans-serif" xml:space="preserve" fill="#0073ab"><tspan y="52.146759" x="544.61951">®</tspan></text>
</g>
</svg>
