<svg xmlns:rdf="http://www.w3.org/1999/02/22-rdf-syntax-ns#" xmlns="http://www.w3.org/2000/svg" xml:space="preserve" height="800" width="800" version="1.1" xmlns:cc="http://creativecommons.org/ns#" xmlns:dc="http://purl.org/dc/elements/1.1/" viewBox="0 0 799.99999 800"><defs><clipPath id="e" clipPathUnits="userSpaceOnUse"><path d="m0 64.834h435.16v-64.834h-435.16v64.834z"/></clipPath><clipPath id="d" clipPathUnits="userSpaceOnUse"><path d="m289.38 32.423c0-13.948 10.24-25.471 23.605-27.546v14.296c-4.164 1.7-7.102 5.78-7.102 10.561 0 6.297 5.108 11.403 11.407 11.403s11.404-5.106 11.404-11.403c0-4.779-2.935-8.861-7.099-10.561v-14.294c13.365 2.075 23.603 13.599 23.603 27.544 0 15.415-12.496 27.909-27.91 27.909-15.412 0-27.908-12.494-27.908-27.909"/></clipPath><radialGradient id="b" gradientUnits="userSpaceOnUse" cy="0" cx="0" gradientTransform="matrix(56.818,0,0,-56.818,317.52,3.7754)" r="1"><stop stop-color="#afe3f7" offset="0"/><stop stop-color="#afe3f7" offset=".018121"/><stop stop-color="#258dd5" offset=".56508"/><stop stop-color="#2271c0" offset=".86915"/><stop stop-color="#2271c0" offset="1"/></radialGradient><clipPath id="c" clipPathUnits="userSpaceOnUse"><path d="m295.25 39.033c0-7.936 5.844-14.701 14.074-17.414-2.105 2.068-3.432 4.926-3.432 8.115 0 6.297 5.108 11.403 11.407 11.403s11.404-5.106 11.404-11.403c0-3.187-1.324-6.044-3.429-8.113 8.228 2.713 14.07 9.478 14.07 17.412 0 10.322-9.872 18.691-22.047 18.691-12.176 0-22.047-8.369-22.047-18.691m9.734 10.321c0 1.734 1.405 3.138 3.137 3.138s3.134-1.404 3.134-3.138c0-1.731-1.402-3.135-3.134-3.135s-3.137 1.404-3.137 3.135"/></clipPath><radialGradient id="a" gradientUnits="userSpaceOnUse" cy="0" cx="0" gradientTransform="matrix(45.282,0,0,-45.282,318.71,12.182)" r="1"><stop stop-color="#afe3f7" offset="0"/><stop stop-color="#afe3f7" offset=".12064"/><stop stop-color="#afe3f7" offset=".12543"/><stop stop-color="#10a9ea" offset=".57777"/><stop stop-color="#10a9ea" offset=".78273"/><stop stop-color="#7bd4f6" offset="1"/></radialGradient><clipPath id="f" clipPathUnits="userSpaceOnUse"><path d="m0 64.834h435.16v-64.834h-435.16v64.834z"/></clipPath></defs><g transform="matrix(1.0666 0 0 -1.0666 86.638 458.83)"><g fill="#100f0d" transform="scale(.1)"><path d="m141.9 2242.2h-141.9v-1616.8h1051.4v132.61h-909.45v1484.3"/><path d="m4166.8 1160.8h-301.7l-284.69 603.49 150.82 319.72 0.06 0.13 0.06-0.13zm-3007.7-867.72 252.7 364.27c146.52-119.4 335.76-188.06 558.59-188.06 651.47 0 834.81 469.91 834.81 679.09h-118.52-141.93-122.19c0-57.87-94.96-323.13-452.17-323.13-143.14 0-261.11 48.57-349.02 134.29l673.94 971.72c82.82-72.81 101.27-159.16 101.27-172.91h382.54c0 115.41-70.72 329.86-272.91 476.99l492.01 709.4 423.38-897.57-711.52-1519.5h393.24l173.28 369.69h687.36l410.98-871.25zm177.42 1136.6c0 394.51 270.9 725.84 628.13 725.84 158.45 0 288.4-43.94 382.09-109.85l-813.1-1172.4c-115.86 114.37-197.09 292.81-197.09 556.44zm2106.9-176.3 175.37 375.64 177.23-375.64zm205.37 988.8-146.58-312.27-491.76 1042.5-8.44 17.95-575.49-829.75c-93.84 64.18-241.48 128.73-456.15 128.73-434.98 0-775.72-364.1-775.72-859.7 0-324.07 108.92-537.85 259.49-671.07l-325.1-468.75-11.3-16.31 3275.1-271.91 19.8-1.63-484.98 1028.2h301.7l189.96-402.8h153.32l-758.89 1616.9h-164.92"/><path d="m5722.2 2242.2-623.71-1451.8-0.06-0.129-0.06 0.129-623.69 1451.8h-153.32l694.63-1616.9h164.9l694.63 1616.9h-153.32"/></g></g><g transform="matrix(1.625 0 0 -1.625 45.751 929.2)"><g transform="translate(32.707,193.71)"><path fill="#5a5758" d="m0 0-27.305 47.236h12.558l19.126-34.143 18.234 34.143h10.949l-25.965-47.236h-7.597z"/></g><path fill="#5a5758" d="m76.805 240.94h10.994v-47.236h-10.994v47.236z"/><g transform="translate(.77245 185.4)"><g clip-path="url(#e)"><g transform="translate(119.87,17.201)"><path fill="#5a5758" d="m0 0h14.211c7.566 0 12.93 1.178 16.088 3.531 3.156 2.356 4.736 6.242 4.736 11.664 0 4.828-1.31 8.484-3.931 10.972-2.624 2.487-6.497 3.73-11.62 3.73h-19.484v-29.897zm-10.994-8.892v47.236h30.389c8.669 0 15.335-2.026 19.998-6.077 4.662-4.052 6.994-9.802 6.994-17.25 0-4.411-0.908-8.38-2.727-11.912-1.818-3.529-4.379-6.306-7.687-8.332-2.055-1.281-4.61-2.212-7.664-2.794-3.053-0.581-6.963-0.871-11.731-0.871h-27.572z"/></g><path fill="#5a5758" d="m184.12 55.545h10.994v-47.236h-10.994v47.236z"/><g transform="translate(226.75,41.604)"><path fill="#5a5758" d="m0 0 0.002-33.294h-9.875v47.235h7.508l38.164-32.62v32.62h9.877v-47.235h-7.51l-38.166 33.294z"/></g><g transform="translate(385.91,47.099)"><path fill="#5a5758" d="m0 0v-38.789h-10.994v38.789h-21.674v8.447h54.432v-8.447h-21.764z"/></g><path fill="#5a5758" d="m418.83 55.545h10.994v-47.236h-10.994v47.236z"/></g></g><g transform="translate(.77245 185.4)"><g clip-path="url(#d)"><path fill="url(#b)" d="m289.38 32.423c0-13.948 10.24-25.471 23.605-27.546v14.296c-4.164 1.7-7.102 5.78-7.102 10.561 0 6.297 5.108 11.403 11.407 11.403s11.404-5.106 11.404-11.403c0-4.779-2.935-8.861-7.099-10.561v-14.294c13.365 2.075 23.603 13.599 23.603 27.544 0 15.415-12.496 27.909-27.91 27.909-15.412 0-27.908-12.494-27.908-27.909"/></g></g><g transform="translate(.77245 185.4)"><g clip-path="url(#c)"><path fill="url(#a)" d="m295.25 39.033c0-7.936 5.844-14.701 14.074-17.414-2.105 2.068-3.432 4.926-3.432 8.115 0 6.297 5.108 11.403 11.407 11.403s11.404-5.106 11.404-11.403c0-3.187-1.324-6.044-3.429-8.113 8.228 2.713 14.07 9.478 14.07 17.412 0 10.322-9.872 18.691-22.047 18.691-12.176 0-22.047-8.369-22.047-18.691m9.734 10.321c0 1.734 1.405 3.138 3.137 3.138s3.134-1.404 3.134-3.138c0-1.731-1.402-3.135-3.134-3.135s-3.137 1.404-3.137 3.135"/></g></g><g transform="translate(.77245 185.4)"><g clip-path="url(#f)"><g transform="translate(308.12,52.491)"><path fill="#fff" d="m0 0c-1.732 0-3.137-1.403-3.137-3.137 0-1.731 1.405-3.134 3.137-3.134s3.135 1.403 3.135 3.134c0 1.734-1.403 3.137-3.135 3.137"/></g></g></g></g></svg>
