<svg xmlns:rdf="http://www.w3.org/1999/02/22-rdf-syntax-ns#" xmlns="http://www.w3.org/2000/svg" enable-background="new 0 0 98.018 145.197" xml:space="preserve" height="250" viewBox="0 0 250 249.99999" width="250" version="1.1" y="0px" x="0px" xmlns:cc="http://creativecommons.org/ns#" xmlns:dc="http://purl.org/dc/elements/1.1/"><g transform="translate(75.992 52.402)"><linearGradient id="g" y2="4382.2" gradientUnits="userSpaceOnUse" x2="5355.4" gradientTransform="matrix(.2504 0 0 .2504 -1254 -954.09)" y1="3870.3" x1="4941.4"><stop stop-color="#FFA300" offset="0"/><stop stop-color="#FF5000" offset="1"/></linearGradient><path fill="url(#g)" d="m49.01 145.2c-18.765 0-36.123-10.938-44.228-27.868l20.405-9.768c4.365 9.123 13.713 15.019 23.821 15.019 14.551 0 26.389-11.838 26.389-26.395 0-14.549-11.838-26.39-26.389-26.39v-22.616c27.02 0 49.008 21.983 49.008 49.006 0.003 27.027-21.984 49.012-49.006 49.012z"/><linearGradient id="f" y2="4323.3" gradientUnits="userSpaceOnUse" x2="5428" gradientTransform="matrix(.2504 0 0 .2504 -1254 -954.09)" y1="3811.5" x1="5014.1"><stop stop-color="#FFA300" offset="0"/><stop stop-color="#FF5000" offset="1"/></linearGradient><path fill="url(#f)" d="m48.213 69.809-0.667-22.611c0.487-0.014 0.972-0.02 1.461-0.02v22.617c-0.263 0-0.531 0.005-0.794 0.014z"/><linearGradient id="e" y2="4420.5" gradientUnits="userSpaceOnUse" x2="5331.7" gradientTransform="matrix(.2504 0 0 .2504 -1254 -954.09)" y1="3891.2" x1="4903.6"><stop stop-color="#FFA300" offset="0"/><stop stop-color="#FF5000" offset="1"/></linearGradient><path fill="url(#e)" d="m2.633 112.06c-0.285-0.95-1.106-3.66-1.333-4.63l22.018-5.179c0.122 0.522 0.679 2.413 0.836 2.924l-21.521 6.89zm-2.345-10.53c-0.106-0.99-0.185-1.996-0.231-2.987l22.592-1.071c0.024 0.534 0.068 1.077 0.124 1.611l-22.485 2.447zm22.404-7.308-22.56-1.648c0.069-0.988 0.175-1.991 0.307-2.977l22.418 3.022c-0.067 0.529-0.127 1.071-0.165 1.603zm0.595-4.012-21.914-5.479c0.253-0.962 0.767-2.94 1.076-3.89l21.484 7.078c-0.163 0.507-0.511 1.774-0.646 2.291zm1.843-5.278-20.452-9.66c0.425-0.896 1.168-2.336 1.646-3.208l19.675 11.134c-0.255 0.469-0.642 1.256-0.869 1.734zm2.454-4.159-18.353-13.224c0.583-0.804 1.196-1.604 1.825-2.374l17.509 14.321c-0.338 0.419-0.667 0.849-0.981 1.277zm3.177-3.65-15.645-16.331c0.715-0.688 1.465-1.361 2.223-2.006l14.622 17.257c-0.408 0.344-0.81 0.71-1.2 1.08zm3.789-3.02-12.421-18.898c0.829-0.549 1.687-1.076 2.552-1.57l11.243 19.628c-0.464 0.267-0.926 0.547-1.374 0.84zm4.259-2.265-8.751-20.856c0.918-0.386 1.863-0.746 2.802-1.078l7.453 21.356c-0.509 0.178-1.01 0.372-1.504 0.578zm4.595-1.449-4.762-22.109c0.976-0.211 1.967-0.396 2.943-0.543l3.4 22.359c-0.524 0.083-1.053 0.182-1.581 0.293z"/><linearGradient id="d" y2="4474" gradientUnits="userSpaceOnUse" x2="5241.9" gradientTransform="matrix(.2504 0 0 .2504 -1254 -954.09)" y1="3962.1" x1="4827.8"><stop stop-color="#FFA300" offset="0"/><stop stop-color="#FF5000" offset="1"/></linearGradient><path fill="url(#d)" d="m4.788 117.33c-0.216-0.445-0.422-0.888-0.621-1.352l20.692-9.132c0.104 0.233 0.212 0.473 0.325 0.704l-20.396 9.78z"/><linearGradient id="c" y2="4414" gradientUnits="userSpaceOnUse" x2="5316.1" gradientTransform="matrix(.2504 0 0 .2504 -1254 -954.09)" y1="3902.1" x1="4902"><stop stop-color="#FFA300" offset="0"/><stop stop-color="#FF5000" offset="1"/></linearGradient><path fill="url(#c)" d="m25.9 83.425-19.783-10.961c0.945-1.708 2.005-3.377 3.146-4.958l18.333 13.248c-0.612 0.856-1.184 1.755-1.696 2.671z"/><linearGradient id="b" y2="4452.4" gradientUnits="userSpaceOnUse" x2="5268.7" gradientTransform="matrix(.2504 0 0 .2504 -1254 -954.09)" y1="3940.4" x1="4854.6"><stop stop-color="#FFA300" offset="0"/><stop stop-color="#FF5000" offset="1"/></linearGradient><path fill="url(#b)" d="m0.104 99.405c-0.068-1.063-0.104-2.149-0.104-3.221 0-4.021 0.494-8.028 1.46-11.9l21.949 5.478c-0.524 2.088-0.787 4.249-0.787 6.423 0 0.585 0.018 1.171 0.058 1.752l-22.576 1.468z"/><linearGradient id="a" y2="4473.2" gradientUnits="userSpaceOnUse" x2="5243.1" gradientTransform="matrix(.2504 0 0 .2504 -1254 -954.09)" y1="3961.1" x1="4828.8"><stop stop-color="#FFA300" offset="0"/><stop stop-color="#FF5000" offset="1"/></linearGradient><path fill="url(#a)" d="m4.782 117.33c-0.844-1.77-1.588-3.6-2.214-5.45l21.431-7.239c0.336 0.994 0.734 1.979 1.19 2.925l-20.407 9.766z"/><path fill="#8ce077" d="m44.357 42.565c-7.584-12.021-8.614-27.532-1.814-40.745 0.954-1.857 3.417-2.404 5.069-1.119 7.469 5.801 12.452 13.784 14.622 22.454l-17.877 19.41z"/><path fill="#6fcf59" d="m92.605 15.889c-20.135-5.176-41.154 5.58-48.618 25.173-0.285 0.756 0.139 1.622 0.91 1.855 20.077 6.055 41.428-4.02 49.624-23.126 0.683-1.601-0.225-3.464-1.916-3.902z"/></g></svg>
