<?xml version="1.0" encoding="UTF-8" standalone="no"?>
<svg xmlns:rdf="http://www.w3.org/1999/02/22-rdf-syntax-ns#" xmlns="http://www.w3.org/2000/svg" height="708.66" width="708.66" version="1.0" xmlns:cc="http://creativecommons.org/ns#" xmlns:dc="http://purl.org/dc/elements/1.1/">
 <defs>
  <clipPath id="a">
   <path d="m22.677 17.008h107.71v11.34h-107.71v-11.34z"/>
  </clipPath>
  <clipPath id="b">
   <path d="m22.677 0h549.92v45.355h-549.92v-45.355z"/>
  </clipPath>
 </defs>
 <g transform="translate(-252.68 186.47)">
  <g fill="#fff" transform="matrix(6.5792 0 0 -6.5792 103.49 317.06)">
   <clipPath>
    <path d="m22.677 0h549.92v45.355h-549.92v-45.355z"/>
   </clipPath>
   <g clip-path="url(#b)">
    <g fill="none">
     <clipPath>
      <path d="m22.677 17.008h107.71v11.34h-107.71v-11.34z"/>
     </clipPath>
     <g clip-path="url(#a)">
      <path fill="#ec1b24" d="m22.677 17.008h34.02v11.34h-34.02v-11.34z"/>
      <path fill="#fff" d="m42.703 23.546h3.678v2.912h1.732v-2.912h3.678l-2.96 2.912h2.196l3.78-3.78-3.78-3.78h-2.196l2.96 2.912h-3.678v-2.912h-1.732v2.912h-3.678l2.959-2.912h-2.195l-3.78 3.78 3.78 3.78h2.195"/>
      <g fill="#231f20">
       <path d="m60.208 21.156c-0.022-1.957 1.623-2.824 3.379-2.824 2.157 0 3.302 1.089 3.302 2.546 0 1.8-1.779 2.167-2.357 2.311-1.99 0.512-2.367 0.59-2.367 1.201 0 0.667 0.644 0.9 1.2 0.9 0.834 0 1.512-0.244 1.567-1.2h1.69c0 1.834-1.523 2.556-3.179 2.556-1.434 0-2.968-0.778-2.968-2.401 0-1.489 1.189-1.945 2.368-2.256 1.167-0.311 2.356-0.456 2.356-1.311 0-0.812-0.934-0.99-1.545-0.99-0.934 0-1.756 0.412-1.756 1.468"/>
       <path fill-rule="evenodd" d="m69.711 25.101h1.634c0.622 0 1.2-0.155 1.2-0.911 0-0.667-0.456-0.945-1.067-0.945h-1.767v1.856zm-1.745-6.58h3.845c1.434 0 2.802 0.689 2.802 2.301 0 0.989-0.49 1.734-1.457 2.012 0.69 0.333 1.079 0.878 1.079 1.656 0 1.478-1.023 1.967-2.535 1.967h-3.734v-7.936zm1.745 3.535h1.9c0.745 0 1.256-0.323 1.256-1.134 0-0.822-0.6-1.045-1.289-1.045h-1.867"/>
       <path fill-rule="evenodd" d="m77.522 25.101h1.634c0.622 0 1.2-0.155 1.2-0.911 0-0.667-0.456-0.945-1.067-0.945h-1.767v1.856zm-1.746-6.58h3.846c1.434 0 2.801 0.689 2.801 2.301 0 0.989-0.489 1.734-1.456 2.012 0.689 0.333 1.078 0.878 1.078 1.656 0 1.478-1.022 1.967-2.534 1.967h-3.735v-7.936zm1.746 3.535h1.9c0.745 0 1.256-0.323 1.256-1.134 0-0.822-0.6-1.045-1.289-1.045h-1.867"/>
       <g>
        <path d="m93.509 23.79c-0.211 1.834-1.678 2.856-3.423 2.856-2.457 0-3.901-1.834-3.901-4.19 0-2.29 1.444-4.124 3.901-4.124 1.945 0 3.312 1.267 3.49 3.246h-1.69c-0.133-1.045-0.733-1.779-1.8-1.779-1.567 0-2.157 1.334-2.157 2.657 0 1.389 0.59 2.723 2.157 2.723 0.867 0 1.623-0.6 1.734-1.389"/>
        <path d="m94.65 18.521h1.745v3.279h3.324v1.356h-3.324v1.834h3.835v1.467h-5.58"/>
        <path d="m101.29 18.521h1.74v3.279h3.32v1.356h-3.32v1.834h3.83v1.467h-5.57"/>
        <path d="m110.64 18.521h1.75v3.279h3.32v1.356h-3.32v1.834h3.83v1.467h-5.58"/>
        <path d="m117.49 18.521h1.74v3.279h3.32v1.356h-3.32v1.834h3.84v1.467h-5.58"/>
        <path d="m123.71 21.156c-0.02-1.957 1.62-2.824 3.38-2.824 2.16 0 3.3 1.089 3.3 2.546 0 1.8-1.78 2.167-2.35 2.311-1.99 0.512-2.37 0.59-2.37 1.201 0 0.667 0.64 0.9 1.2 0.9 0.83 0 1.51-0.244 1.57-1.2h1.68c0 1.834-1.52 2.556-3.17 2.556-1.44 0-2.97-0.778-2.97-2.401 0-1.489 1.19-1.945 2.37-2.256 1.16-0.311 2.35-0.456 2.35-1.311 0-0.812-0.93-0.99-1.54-0.99-0.94 0-1.76 0.412-1.76 1.468"/>
       </g>
      </g>
     </g>
    </g>
   </g>
  </g>
 </g>
</svg>
