<svg width="160" height="160" version="1.1" xmlns="http://www.w3.org/2000/svg"><g transform="translate(.98888 -67.817)"><path d="m85.573 151c0-3.843 3.119-7.052 6.984-7.052s6.984 3.209 6.984 7.052c0 3.865-3.074 7.052-6.984 7.052s-6.984-3.187-6.984-7.052m15.356-0.024c0-4.627-3.796-8.295-8.38-8.295s-8.38 3.668-8.38 8.295c0 4.605 3.796 8.337 8.38 8.337s8.38-3.732 8.38-8.337"/><path d="m111.33 156.26 4.909-13.301h1.583l-6.525 17.037-6.329-17.037h1.55z"/><path d="m124.19 152.54c0 1.194 0.03 2.559 0.777 3.582 0.704 0.981 1.84 1.751 3.535 1.756 1.85 6e-3 2.779-0.753 3.524-1.649 0.854-1.024 0.864-2.431 0.864-3.689v-9.574h1.348v10.064c0 1.749-0.127 3.135-1.407 4.456-1.108 1.195-2.708 1.835-4.329 1.835-1.514 0-3.069-0.576-4.157-1.642-1.408-1.344-1.578-2.815-1.578-4.649v-10.064h1.423v9.574"/><path d="m142.6 142.48 6.361 14.134 0.131 0.292 6.335-14.43 0.516 2e-3 2.075 16.823h-1.542l-1.407-12.574-0.279 0.61-5.582 12.417h-0.315l-5.857-13.027-0.107 0.781-1.45 11.8-1.482 6e-3 2.19-16.838z"/><path d="m57.607 140.82s-0.027 7.014 0 10.662c0.054 7.174 3.404 7.069 5.228 7.069v0.758h-11.841v-0.758c3.222 0.041 5.627-1.91 5.648-6.651 0.03-6.578 0-11.782 0-11.782s-2.056-1.885-2.712-2.273c-0.659-0.388-1.465-0.819-2.811-0.819v-0.796h13.366l13.636 12.68v-5.263c0-6.459-3.568-6.717-5.382-6.717v-0.7h11.722v0.744c-1.824 0-5.443 0.393-5.443 7.091v15.73h-0.897l-20.514-18.975"/><path d="m79.425 136.89h-3.4543c0.66494 0.30836 2.3755 2.0641 2.4026 2.9742 0.03014-0.78146 0.12857-2.4026 1.0517-2.9742" fill="#00a983"/><path d="m54.034 136.91h6.7804l17.485 16.257v5.7961s-21.567-19.959-22.086-20.385c-0.5182-0.42741-1.9361-1.6678-2.1799-1.6678" fill="#00a983"/><path d="m16.924 152.05c-1.896-3.371-4.382-7.834-4.382-7.834s-4.1 7.502-4.276 7.832zm-8.951 0.868c-0.885 2.757 0.316 5.656 4.049 5.656l0.7 0.015v0.729h-12.721l-1e-3 -0.654c2.961 0 4.587-2.441 6.629-5.746l9.681-17.284h0.957s9.749 17.583 10.586 19.079c0.837 1.494 1.74 3.951 5.748 3.951v0.654h-18.187v-0.729l1.215-0.015c3.265 0.027 3.071-1.468 2.373-2.875-0.201-0.404-0.849-1.388-1.633-2.782l-9.396 1e-3"/><path d="m2.7758 158.61h3.9638c-0.19011-0.2218-0.9949-1.2473-0.82169-2.9689-0.47316 0.74249-2.4788 2.7471-3.1421 2.9689" fill="#00a983"/><path d="m19.035 153.94-5.98-10.667 2.5544-4.6888 11.167 20.004h-7.2421c0.99181-0.54063 1.2521-1.8842-0.49942-4.6486" fill="#00a983"/><path d="m39.095 144.53c2.079 0 3.82 0.294 5.38 1.763 1.401 1.311 2.124 3.096 2.124 4.995 0 1.944-0.746 3.82-2.215 5.108-1.559 1.379-3.277 1.65-5.289 1.65h-1.378v-13.516zm-2.895 14.785h2.954c2.41 0 4.371-0.32 6.269-1.941 1.834-1.577 2.666-3.731 2.666-6.119 0-2.346-0.853-4.414-2.623-5.992-1.919-1.706-3.839-2.026-6.355-2.09h-2.911v16.142"/><path d="m57.434 158.58h-3.3187c0.91075-0.42327 2.4406-1.8552 2.4722-2.9281 0.03372 0.84547 0.13057 2.5048 0.84655 2.9281" fill="#00a983"/></g></svg>
