<?xml version="1.0" encoding="UTF-8" standalone="no"?>
<svg
   version="1.1"
   id="svg2"
   xml:space="preserve"
   width="380"
   height="380"
   viewBox="0 0 380 380"
   sodipodi:docname="adnovum_logo_pos_hor_rgb.svg"
   inkscape:version="1.2.1 (9c6d41e410, 2022-07-14)"
   xmlns:inkscape="http://www.inkscape.org/namespaces/inkscape"
   xmlns:sodipodi="http://sodipodi.sourceforge.net/DTD/sodipodi-0.dtd"
   xmlns="http://www.w3.org/2000/svg"
   xmlns:svg="http://www.w3.org/2000/svg"
   xmlns:rdf="http://www.w3.org/1999/02/22-rdf-syntax-ns#"
   xmlns:cc="http://creativecommons.org/ns#"
   xmlns:dc="http://purl.org/dc/elements/1.1/"><metadata
     id="metadata8"><rdf:RDF><cc:Work
         rdf:about=""><dc:format>image/svg+xml</dc:format><dc:type
           rdf:resource="http://purl.org/dc/dcmitype/StillImage" /></cc:Work></rdf:RDF></metadata><defs
     id="defs6"><clipPath
       clipPathUnits="userSpaceOnUse"
       id="clipPath18"><path
         d="M 0,57.255 H 283.465 V 0 H 0 Z"
         id="path16" /></clipPath></defs><sodipodi:namedview
     pagecolor="#ffffff"
     bordercolor="#666666"
     borderopacity="1"
     objecttolerance="10"
     gridtolerance="10"
     guidetolerance="10"
     inkscape:pageopacity="0"
     inkscape:pageshadow="2"
     inkscape:window-width="1920"
     inkscape:window-height="1010"
     id="namedview4"
     inkscape:showpageshadow="2"
     inkscape:pagecheckerboard="true"
     inkscape:deskcolor="#d1d1d1"
     showgrid="false"
     showborder="false"
     inkscape:zoom="1.6007267"
     inkscape:cx="150.24426"
     inkscape:cy="242.07755"
     inkscape:window-x="-6"
     inkscape:window-y="-6"
     inkscape:window-maximized="1"
     inkscape:current-layer="g10" /><g
     id="g10"
     inkscape:groupmode="layer"
     inkscape:label="ADN_Logo_pos_hor_RGB"
     transform="matrix(1.3333333,0,0,-1.3333333,0,76.339333)"><g
       id="g12"
       transform="translate(0.76765356,-113.873)"><g
         id="g14"
         clip-path="url(#clipPath18)"><g
           id="g20"
           transform="translate(100.2355,23.0732)"><path
             d="m 0,0 c -0.032,-1.637 -0.541,-2.942 -1.529,-3.915 -0.988,-0.974 -2.332,-1.46 -4.031,-1.46 -1.082,0 -1.94,0.247 -2.572,0.742 -0.634,0.494 -0.951,1.159 -0.951,1.993 0,0.987 0.378,1.752 1.136,2.293 0.756,0.54 1.814,0.811 3.174,0.811 H 0 Z m 6.812,-3.985 c -0.248,0.216 -0.37,0.618 -0.37,1.205 v 8.388 c 0,2.811 -0.92,4.958 -2.758,6.441 -1.838,1.483 -4.441,2.223 -7.808,2.223 -3.214,0 -5.793,-0.67 -7.74,-2.014 -1.524,-1.053 -2.51,-2.447 -2.973,-4.173 l 5.766,-1.57 C -8.398,7.921 -7.492,9.5 -4.448,9.5 -3.09,9.5 -2.008,9.184 -1.205,8.551 -0.402,7.917 0,7.06 0,5.979 V 4.82 h -4.727 c -3.552,0 -6.264,-0.689 -8.133,-2.062 -1.869,-1.376 -2.804,-3.33 -2.804,-5.862 0,-2.225 0.812,-3.946 2.434,-5.168 1.623,-1.22 3.761,-1.83 6.418,-1.83 1.791,0 3.321,0.355 4.588,1.066 1.266,0.71 2.332,1.745 3.198,3.105 -0.063,-2.596 1.404,-3.892 4.401,-3.892 H 8.712 V -4.31 H 7.97 c -0.525,0 -0.911,0.109 -1.158,0.325"
             style="fill:#003246;fill-opacity:1;fill-rule:nonzero;stroke:none"
             id="path22" /></g><g
           id="g24"
           transform="translate(127.2984,20.1775)"><path
             d="m 0,0 c -1.052,-1.251 -2.457,-1.877 -4.217,-1.877 -1.761,0 -3.174,0.633 -4.24,1.9 -1.067,1.267 -1.6,2.919 -1.6,4.958 0,2.04 0.533,3.692 1.6,4.959 1.066,1.267 2.479,1.9 4.24,1.9 1.76,0 3.165,-0.633 4.217,-1.9 C 1.05,8.673 1.575,7.005 1.575,4.936 1.575,2.896 1.05,1.251 0,0 m 1.483,13.925 c -1.7,2.162 -4.094,3.244 -7.183,3.244 -2.102,0 -3.994,-0.503 -5.678,-1.506 -1.684,-1.004 -2.996,-2.426 -3.938,-4.263 -0.943,-1.838 -1.413,-3.962 -1.413,-6.373 0,-2.44 0.47,-4.587 1.413,-6.44 0.942,-1.855 2.247,-3.284 3.916,-4.287 1.669,-1.004 3.553,-1.506 5.653,-1.506 3.12,0 5.591,1.19 7.415,3.568 l 1.449,-3.29 H 8.016 V 25.51 H 1.483 Z"
             style="fill:#003246;fill-opacity:1;fill-rule:nonzero;stroke:none"
             id="path26" /></g><g
           id="g28"
           transform="translate(183.1617,20.2001)"><path
             d="m 0,0 c -1.066,-1.266 -2.512,-1.9 -4.333,-1.9 -1.793,0 -3.222,0.634 -4.287,1.9 -1.065,1.267 -1.598,2.92 -1.598,4.959 0,2.039 0.533,3.691 1.598,4.958 1.065,1.267 2.494,1.9 4.287,1.9 1.821,0 3.267,-0.633 4.333,-1.9 C 1.065,8.65 1.598,6.998 1.598,4.959 1.598,2.92 1.065,1.267 0,0 m 2.27,15.64 c -1.9,1.003 -4.101,1.506 -6.603,1.506 -2.502,0 -4.703,-0.503 -6.604,-1.506 -1.9,-1.004 -3.368,-2.432 -4.402,-4.287 -1.035,-1.853 -1.553,-3.985 -1.553,-6.394 0,-2.41 0.518,-4.541 1.553,-6.395 1.034,-1.854 2.502,-3.283 4.402,-4.287 1.901,-1.004 4.102,-1.506 6.604,-1.506 2.502,0 4.703,0.502 6.603,1.506 1.9,1.004 3.367,2.424 4.402,4.264 1.035,1.837 1.553,3.977 1.553,6.418 0,2.409 -0.518,4.541 -1.553,6.394 C 5.637,13.208 4.17,14.636 2.27,15.64"
             style="fill:#003246;fill-opacity:1;fill-rule:nonzero;stroke:none"
             id="path30" /></g><g
           id="g32"
           transform="translate(235.0851,25.3447)"><path
             d="m 0,0 c 0,-2.195 -0.448,-3.901 -1.344,-5.121 -0.897,-1.221 -2.162,-1.83 -3.8,-1.83 -1.575,0 -2.742,0.548 -3.498,1.645 -0.758,1.096 -1.136,2.725 -1.136,4.889 v 12.14 h -6.534 V -1.205 c 0,-4.016 0.881,-6.882 2.641,-8.597 1.762,-1.714 4.033,-2.571 6.812,-2.571 1.607,0 2.966,0.278 4.079,0.833 1.112,0.557 2.085,1.329 2.919,2.317 l 1.404,-2.872 H 6.534 V 11.723 H 0 Z"
             style="fill:#003246;fill-opacity:1;fill-rule:nonzero;stroke:none"
             id="path34" /></g><g
           id="g36"
           transform="translate(281.0547,34.7974)"><path
             d="m 0,0 c -1.606,1.699 -3.693,2.549 -6.255,2.549 -1.793,0 -3.391,-0.347 -4.798,-1.042 -1.405,-0.696 -2.541,-1.692 -3.405,-2.99 -1.328,2.688 -3.692,4.032 -7.091,4.032 -1.667,-0.031 -3.057,-0.324 -4.169,-0.881 -1.113,-0.555 -2.07,-1.344 -2.875,-2.362 l -1.402,2.965 h -4.9 v -23.819 h 6.534 v 12.976 c 0,1.76 0.425,3.158 1.275,4.194 0.849,1.034 1.985,1.551 3.406,1.551 2.78,0 4.17,-1.807 4.17,-5.422 v -13.299 h 6.534 v 13.021 c 0,1.792 0.432,3.19 1.298,4.194 0.864,1.005 2.008,1.506 3.429,1.506 2.749,0 4.125,-1.807 4.125,-5.422 V -21.548 H 2.41 V -8.48 C 2.41,-4.525 1.605,-1.699 0,0"
             style="fill:#003246;fill-opacity:1;fill-rule:nonzero;stroke:none"
             id="path38" /></g><g
           id="g40"
           transform="translate(204.6229,19.9216)"><path
             d="m 0,0 h -0.238 l -5.629,17.147 h -6.999 l 8.573,-23.819 h 8.11 l 8.574,23.819 H 5.532 Z"
             style="fill:#003246;fill-opacity:1;fill-rule:nonzero;stroke:none"
             id="path42" /></g><g
           id="g44"
           transform="translate(153.5266,37.346)"><path
             d="m 0,0 c -1.731,0 -3.182,-0.285 -4.357,-0.857 -1.174,-0.572 -2.177,-1.366 -3.011,-2.386 l -1.404,2.965 h -4.899 v -23.819 h 6.535 v 12.187 c 0,2.07 0.463,3.677 1.389,4.821 0.927,1.142 2.239,1.715 3.939,1.715 3.213,0 4.821,-2.056 4.821,-6.164 v -12.559 h 6.533 v 12.929 c 0,3.986 -0.897,6.843 -2.687,8.573 C 5.066,-0.865 2.781,0 0,0"
             style="fill:#003246;fill-opacity:1;fill-rule:nonzero;stroke:none"
             id="path46" /></g><g
           id="g48"
           transform="translate(64.1307)"><path
             d="m 0,0 h -15.338 l -16.433,46.66 h -0.575 L -46.954,4.869 C -47.923,1.965 -50.435,0 -53.241,0 h -10.89 l 21.471,57.255 h 21.19 z"
             style="fill:#003246;fill-opacity:1;fill-rule:nonzero;stroke:none"
             id="path50" /></g><g
           id="g52"
           transform="translate(27.8555,22.9018)"><path
             d="m 0,0 6.006,-18.608 c 0.912,-2.848 3.284,-4.294 6.006,-4.294 h 8.925 L 12.872,0 Z"
             style="fill:#00e6a0;fill-opacity:1;fill-rule:nonzero;stroke:none"
             id="path54" /></g></g></g></g></svg>
