<?xml version="1.0" encoding="UTF-8" standalone="no"?>
<svg
   width="2160"
   height="900"
   version="1.0"
   id="svg3"
   xmlns="http://www.w3.org/2000/svg"
   xmlns:svg="http://www.w3.org/2000/svg">
  <defs
     id="defs3" />
  <g
     transform="matrix(1.0206,0,0,1.0189,269.10778,376.79)"
     id="g3">
    <path
       d="m 353.61,-369.81 v 883.33 h 881.83 v -883.33 z"
       fill="#213683"
       id="path1" />
    <path
       d="m 900.32,66.349 335.12,-436.16 h -49.518 l -336.62,436.16 h 51.019"
       fill="#da2825"
       fill-rule="evenodd"
       id="path2" />
    <path
       d="m 1027.4,257.42 c 10.804,30.094 19.649,61.589 30.011,92.034 6.7275,18.732 17.256,56.913 29.511,72.027 h -83.031 c 0.075,-23.742 -9.2868,-45.558 -15.506,-68.025 -5.3937,-15.639 -9.3118,-31.653 -15.006,-47.518 l -1.5005,-6.0022 -1.5006,-5.0018 -1.5005,-4.0015 -1.0004,-4.0015 -1.0004,-2.5009 -0.5001,-1.5006 v -0.50019 h -132.05 l -21.008,29.511 0.5002,0.50018 0.5002,2.5009 1.5005,4.0015 1.5006,5.0018 2.0007,6.0022 c 3.9681,11.929 7.5194,24.251 11.504,36.013 8.6531,27.677 8.7615,29.202 23.509,55.52 h -79.529 c -1.7006,-16.781 -5.0769,-26.977 -10.004,-43.016 -13.188,14.13 -22.6,25.201 -30.511,43.016 h -62.023 c -3.2595,-18.34 -4.7017,-26.927 -11.504,-45.017 -13.73,18.757 -19.19,22.825 -29.511,45.017 h -61.523 c 27.243,-24.884 49.443,-56.804 72.027,-86.032 l -15.506,-53.02 h -131.05 v 0.50019 l -3.0011,3.0011 -2.0007,3.0011 -2.5009,3.5013 -3.0011,4.0015 -3.5013,5.0018 -4.0015,4.5017 c -11.254,15.822 -23.792,30.695 -35.013,46.517 -16.848,22.041 -36.714,44.508 -49.518,69.025 h -39.014 v -25.009 l 1.5006,-1.5006 h 0.50018 v -0.50019 l 2.0007,-2.0007 1.0004,-1.5006 c 3.493,-3.6013 5.8855,-8.053 9.5035,-11.504 9.3618,-11.513 18.44,-23.25 27.51,-35.013 25.843,-32.67 51.069,-65.683 76.028,-99.037 34.579,-48.451 82.572,-98.42 106.04,-152.56 h 67.525 c 1.4255,35.813 11.804,54.253 21.008,88.032 5.7855,18.315 11.212,36.739 17.006,55.02 l 2.0007,6.0022 3.0011,11.004 1.5006,4.0015 1.0004,4.0015 1.0004,3.0011 1.0004,2.5009 0.50018,1.5006 v 0.50019 l 23.008,-29.011 c -13.08,-32.937 -27.769,-103.52 -51.019,-146.55 h 79.029 c -0.8253,17.673 6.0773,30.336 10.004,47.017 4.6767,15.256 8.1697,30.911 13.005,46.017 10.129,-13.48 21.283,-26.927 31.512,-40.515 11.588,-16.498 30.386,-31.045 32.012,-52.519 h 66.024 c -38.623,35.997 -75.67,91.959 -110.04,133.55 3.8264,11.888 6.7859,24.142 10.504,36.013 21.166,-27.293 42.332,-54.737 63.023,-82.53 19.424,-26.927 45.967,-56.571 59.022,-87.032 h 64.524 v 3.0011 l 0.5002,7.5028 1.5005,8.003 1.0004,6.0022 z M 929.364,155.88 c -16.823,30.136 -43.574,60.472 -65.024,88.032 h 88.032 c -4.2766,-13.988 -9.045,-28.46 -13.505,-42.516 l -2.0007,-7.0026 -2.0008,-6.0022 -1.5005,-5.0018 -1.0004,-4.0015 -1.5005,-10.004 v -13.005 l -0.5002,-1.0004 v -0.50019 z m -338.12,0 c -9.1284,16.364 -22.25,33.946 -34.013,48.518 -6.3273,8.7282 -13.488,16.915 -20.007,25.509 l -3.0011,4.0015 -2.5009,3.5013 -2.5009,2.5009 -1.5006,2.0007 -1.5006,1.5006 v 0.50019 h 88.032 c -4.6934,-13.588 -9.1534,-28.702 -13.505,-42.516 l -2.0007,-7.0026 -2.0007,-6.0022 -1.5006,-5.0018 -1.0004,-4.0015 -1.5006,-10.004 -0.50018,-8.5031 v -5.502 l -0.50019,-0.50019 z m 132.55,205.58 24.009,-33.512 c -5.8855,-14.414 -10.787,-29.186 -15.506,-44.016 l -23.509,30.511 15.006,47.017"
       fill="#ffffff"
       fill-rule="evenodd"
       id="path3" />
  </g>
</svg>
