<?xml version="1.0" encoding="UTF-8" standalone="no"?>
<!-- Created with Inkscape (http://www.inkscape.org/) -->

<svg
   xmlns:dc="http://purl.org/dc/elements/1.1/"
   xmlns:cc="http://creativecommons.org/ns#"
   xmlns:rdf="http://www.w3.org/1999/02/22-rdf-syntax-ns#"
   xmlns:svg="http://www.w3.org/2000/svg"
   xmlns="http://www.w3.org/2000/svg"
   xmlns:sodipodi="http://sodipodi.sourceforge.net/DTD/sodipodi-0.dtd"
   xmlns:inkscape="http://www.inkscape.org/namespaces/inkscape"
   width="190.93127"
   height="25.962099"
   viewBox="0 0 50.517234 6.8691384"
   version="1.1"
   id="svg24381"
   inkscape:version="0.92.4 (5da689c313, 2019-01-14)"
   sodipodi:docname="bobst.svg">
  <defs
     id="defs24375" />
  <sodipodi:namedview
     id="base"
     pagecolor="#ffffff"
     bordercolor="#666666"
     borderopacity="1.0"
     inkscape:pageopacity="0.0"
     inkscape:pageshadow="2"
     inkscape:zoom="9.2665104"
     inkscape:cx="94.96563"
     inkscape:cy="12.481049"
     inkscape:document-units="mm"
     inkscape:current-layer="layer1"
     showgrid="false"
     fit-margin-top="0"
     fit-margin-left="0"
     fit-margin-right="0"
     fit-margin-bottom="0"
     units="px"
     inkscape:window-width="1920"
     inkscape:window-height="1001"
     inkscape:window-x="-9"
     inkscape:window-y="-9"
     inkscape:window-maximized="1" />
  <metadata
     id="metadata24378">
    <rdf:RDF>
      <cc:Work
         rdf:about="">
        <dc:format>image/svg+xml</dc:format>
        <dc:type
           rdf:resource="http://purl.org/dc/dcmitype/StillImage" />
        <dc:title></dc:title>
      </cc:Work>
    </rdf:RDF>
  </metadata>
  <g
     inkscape:label="Layer 1"
     inkscape:groupmode="layer"
     id="layer1"
     transform="translate(-80.70701,-145.26648)">
    <g
       transform="translate(-16.27872,-82.322557)"
       id="g24428">
      <path
         mask="none"
         style="fill:#db0720;fill-rule:evenodd;stroke:none;stroke-width:0.26458332"
         inkscape:connector-curvature="0"
         d="m 97.118024,234.25481 h 5.944506 c 0.2859,0 0.51761,-0.23171 0.51761,-0.51761 v -5.9445 h -5.944502 c -0.285734,0 -0.517614,0.23188 -0.517614,0.51761 z"
         id="Fill-1" />
      <path
         transform="matrix(0.26458333,0,0,0.26458333,116.32703,227.63698)"
         mask="none"
         id="Fill-3"
         d="m 7.2715723,14.250731 c 0,3.542539 0.6585946,4.893436 3.8109037,4.893436 h 7.852574 c 3.151661,0 3.810256,-1.350897 3.810256,-4.893436 v -2.902095 c 0,-3.0356285 -0.658595,-4.8914912 -4.170668,-4.8914912 H 11.44224 c -3.5120731,0 -4.1706677,1.8558627 -4.1706677,4.8914912 z M 0.61107992,9.1576422 c 0,-7.1524937 3.56976458,-8.83852197 9.56971808,-8.83852197 h 9.655283 c 6.000601,0 9.569717,1.68602827 9.569717,8.83852197 v 7.2847308 c 0,7.153142 -3.569116,8.838522 -9.569717,8.838522 h -9.655283 c -5.9999535,0 -9.56971808,-1.68538 -9.56971808,-8.838522 z"
         inkscape:connector-curvature="0"
         style="fill:#000000;fill-rule:evenodd;stroke:none;stroke-width:1" />
      <path
         transform="matrix(0.26458333,0,0,0.26458333,132.96341,227.63698)"
         mask="none"
         id="Fill-6"
         d="m 27.111996,7.5380568 c 0,-4.2841065 -0.719528,-7.21926068 -8.402268,-7.21926068 H 9.4109678 c -8.3996749,0 -8.75943876,3.40576418 -8.75943876,7.82664568 0,6.0038422 1.13892796,7.3534432 11.15980896,7.3534432 8.580529,0 9.36099,0.135478 9.36099,2.260354 0,1.887625 -1.441649,2.058108 -2.852182,2.058108 h -8.159184 c -1.7839101,0 -2.713462,-0.178261 -2.8580157,-2.287579 H 0.62106255 V 18.7037 c 0,5.295982 2.43083665,6.576871 8.49107435,6.576871 h 8.0703771 c 8.848246,0 10.829864,-1.07994 10.829864,-7.655515 0,-7.119434 -2.399722,-7.8272935 -12.751197,-7.7929377 -7.1401772,0.033059 -7.9511043,-0.034356 -7.9511043,-2.1598793 0,-1.3152447 1.0209514,-1.8876257 2.5215879,-1.8876257 h 7.3813164 c 2.710221,0 3.160736,0.5821043 3.228151,1.958282 h 6.670864 z"
         inkscape:connector-curvature="0"
         style="fill:#000000;fill-rule:evenodd;stroke:none;stroke-width:1" />
      <path
         mask="none"
         style="fill:#000000;fill-rule:evenodd;stroke:none;stroke-width:0.26458332"
         inkscape:connector-curvature="0"
         d="m 147.37067,227.79273 v 1.55267 h -2.47625 v 4.90945 h -1.76226 v -4.90945 h -2.47693 v -1.03506 c 0,-0.28573 0.23154,-0.51761 0.51744,-0.51761 z"
         id="Fill-9" />
      <path
         mask="none"
         style="fill:#000000;fill-rule:evenodd;stroke:none;stroke-width:0.26458332"
         inkscape:connector-curvature="0"
         d="m 129.95646,232.70202 h -3.15919 v -1.00899 h 3.15919 c 0.38092,0 0.6351,0.0981 0.6351,0.53528 0,0.37492 -0.25418,0.47371 -0.6351,0.47371 z m -3.15919,-3.35677 h 3.1194 c 0.32536,0 0.5159,0.13429 0.5159,0.50904 0,0.36582 -0.19054,0.49994 -0.5159,0.49994 h -3.1194 z m 4.54824,1.65146 v -0.0269 c 0.49258,-0.16002 0.84932,-0.37475 0.84932,-1.48149 0,-1.26729 -0.68244,-1.69571 -2.08778,-1.69571 h -4.55425 c -0.28574,0 -0.51745,0.23188 -0.51745,0.51761 v 5.9445 h 5.61178 c 1.00779,0 1.75436,-0.29482 1.75436,-1.71372 0,-0.97314 -0.28573,-1.43741 -1.05598,-1.54426 z"
         id="Fill-11" />
      <path
         mask="none"
         style="fill:#000000;fill-rule:evenodd;stroke:none;stroke-width:0.26458332"
         inkscape:connector-curvature="0"
         d="m 113.34789,232.70202 h -3.1592 v -1.00899 h 3.1592 c 0.38092,0 0.6351,0.0981 0.6351,0.53528 0,0.37492 -0.25418,0.47371 -0.6351,0.47371 z m -3.1592,-3.35677 h 3.11941 c 0.32535,0 0.5159,0.13429 0.5159,0.50904 0,0.36582 -0.19055,0.49994 -0.5159,0.49994 h -3.11941 z m 4.54825,1.65146 v -0.0269 c 0.49257,-0.16002 0.84931,-0.37475 0.84931,-1.48149 0,-1.26729 -0.68243,-1.69571 -2.08778,-1.69571 h -4.55425 c -0.28573,0 -0.51744,0.23188 -0.51744,0.51761 v 5.9445 h 5.61178 c 1.00778,0 1.75436,-0.29482 1.75436,-1.71372 0,-0.97314 -0.28573,-1.43741 -1.05598,-1.54426 z"
         id="Fill-13" />
    </g>
  </g>
</svg>
