<?xml version="1.0" encoding="UTF-8"?>
<!-- Created with Inkscape (http://www.inkscape.org/) -->
<svg width="200" height="100" version="1.1" viewBox="0 0 52.917 26.458" xmlns="http://www.w3.org/2000/svg" xmlns:cc="http://creativecommons.org/ns#" xmlns:dc="http://purl.org/dc/elements/1.1/" xmlns:rdf="http://www.w3.org/1999/02/22-rdf-syntax-ns#">
 <metadata>
  <rdf:RDF>
   <cc:Work rdf:about="">
    <dc:format>image/svg+xml</dc:format>
    <dc:type rdf:resource="http://purl.org/dc/dcmitype/StillImage"/>
   </cc:Work>
  </rdf:RDF>
 </metadata>
 <g transform="translate(-80.707 -145.27)">
  <g transform="translate(-15.079 -72.528)" fill-rule="evenodd">
   <path d="m97.118 234.25h5.9445c0.2859 0 0.51761-0.23171 0.51761-0.51761v-5.9445h-5.9445c-0.28573 0-0.51761 0.23188-0.51761 0.51761z" fill="#db0720"/>
   <g>
    <path transform="matrix(.26458 0 0 .26458 116.33 227.64)" d="m7.2716 14.251c0 3.5425 0.65859 4.8934 3.8109 4.8934h7.8526c3.1517 0 3.8103-1.3509 3.8103-4.8934v-2.9021c0-3.0356-0.6586-4.8915-4.1707-4.8915h-7.1324c-3.5121 0-4.1707 1.8559-4.1707 4.8915zm-6.6605-5.0931c0-7.1525 3.5698-8.8385 9.5697-8.8385h9.6553c6.0006 0 9.5697 1.686 9.5697 8.8385v7.2847c0 7.1531-3.5691 8.8385-9.5697 8.8385h-9.6553c-6 0-9.5697-1.6854-9.5697-8.8385z"/>
    <path transform="matrix(.26458 0 0 .26458 132.96 227.64)" d="m27.112 7.5381c0-4.2841-0.71953-7.2193-8.4023-7.2193h-9.2988c-8.3997 0-8.7594 3.4058-8.7594 7.8266 0 6.0038 1.1389 7.3534 11.16 7.3534 8.5805 0 9.361 0.13548 9.361 2.2604 0 1.8876-1.4416 2.0581-2.8522 2.0581h-8.1592c-1.7839 0-2.7135-0.17826-2.858-2.2876h-6.6819v1.1739c0 5.296 2.4308 6.5769 8.4911 6.5769h8.0704c8.8482 0 10.83-1.0799 10.83-7.6555 0-7.1194-2.3997-7.8273-12.751-7.7929-7.1402 0.033059-7.9511-0.034356-7.9511-2.1599 0-1.3152 1.021-1.8876 2.5216-1.8876h7.3813c2.7102 0 3.1607 0.5821 3.2282 1.9583h6.6709z"/>
    <path d="m147.37 227.79v1.5527h-2.4762v4.9094h-1.7623v-4.9094h-2.4769v-1.0351c0-0.28573 0.23154-0.51761 0.51744-0.51761z"/>
    <path d="m129.96 232.7h-3.1592v-1.009h3.1592c0.38092 0 0.6351 0.0981 0.6351 0.53528 0 0.37492-0.25418 0.47371-0.6351 0.47371zm-3.1592-3.3568h3.1194c0.32536 0 0.5159 0.13429 0.5159 0.50904 0 0.36582-0.19054 0.49994-0.5159 0.49994h-3.1194zm4.5482 1.6515v-0.0269c0.49258-0.16002 0.84932-0.37475 0.84932-1.4815 0-1.2673-0.68244-1.6957-2.0878-1.6957h-4.5542c-0.28574 0-0.51745 0.23188-0.51745 0.51761v5.9445h5.6118c1.0078 0 1.7544-0.29482 1.7544-1.7137 0-0.97314-0.28573-1.4374-1.056-1.5443z"/>
    <path d="m113.35 232.7h-3.1592v-1.009h3.1592c0.38092 0 0.6351 0.0981 0.6351 0.53528 0 0.37492-0.25418 0.47371-0.6351 0.47371zm-3.1592-3.3568h3.1194c0.32535 0 0.5159 0.13429 0.5159 0.50904 0 0.36582-0.19055 0.49994-0.5159 0.49994h-3.1194zm4.5482 1.6515v-0.0269c0.49257-0.16002 0.84931-0.37475 0.84931-1.4815 0-1.2673-0.68243-1.6957-2.0878-1.6957h-4.5542c-0.28573 0-0.51744 0.23188-0.51744 0.51761v5.9445h5.6118c1.0078 0 1.7544-0.29482 1.7544-1.7137 0-0.97314-0.28573-1.4374-1.056-1.5443z"/>
   </g>
  </g>
 </g>
</svg>
