<?xml version="1.0" encoding="UTF-8"?>
<svg width="120" height="120" version="1.1" viewBox="0 0 120 120" xmlns="http://www.w3.org/2000/svg">
 <g id="Dieci_Logo" transform="translate(-128.27 472.08)">
  <path transform="translate(-48.749 -247.57)" d="m218.34-150.88h-1.753v5.176l-0.04 0.174a3.512 3.512 0 0 0-3.107-1.8c-2.748 0-4.342 2.268-4.342 5.234 0 2.5 1.036 5.816 4.581 5.816a3.191 3.191 0 0 0 2.987-1.745h0.04v1.454h1.633zm-7.408 9.073c0-1.338 0.119-3.955 2.827-3.955 2.549 0 2.828 2.733 2.828 4.478 0 2.733-1.752 3.489-2.868 3.489-1.911 0-2.788-1.745-2.788-4.013"/>
  <path transform="translate(-142.01 -247.57)" d="m319.88-148.91h-1.752v-1.977h1.752zm0 12.329h-1.752v-10.41h1.752"/>
  <path transform="translate(-188.64 -268.54)" d="m380.25-118.87a2.68 2.68 0 0 1-2.708 2.035c-1.992 0-3.027-1.28-3.027-3.431h7.647c0-3.664-1.513-6.107-4.5-6.107-3.465 0-5.018 2.618-5.018 5.816 0 3.024 1.752 5.234 4.66 5.234a4.709 4.709 0 0 0 2.828-0.7 4.368 4.368 0 0 0 1.872-2.85zm-5.735-2.792a3.081 3.081 0 0 1 2.907-3.14c2.111 0 2.789 1.512 2.908 3.14"/>
  <path transform="translate(-276.95 -268.54)" d="m483.1-122.53a2.36 2.36 0 0 0-2.47-2.268c-2.19 0-2.868 2.093-2.868 3.955 0 1.8 0.438 4.013 2.828 4.013 1.195 0 2.191-0.873 2.509-2.5h1.673a4.1 4.1 0 0 1-4.222 4.013c-2.947 0-4.66-2.21-4.66-5.234 0-3.2 1.553-5.816 4.979-5.816a3.765 3.765 0 0 1 3.9 3.838"/>
  <path transform="translate(-364.08 -247.57)" d="m579.52-148.91h-1.753v-1.977h1.753zm0 12.329h-1.753v-10.41h1.753"/>
  <path transform="translate(0,-10.661)" d="m152.1-427.86v6.164h8.923v32.684h6.333v-38.848"/>
  <path transform="translate(-390.93 -10.656)" d="m609.15-416.93h6.214v-10.933h-6.214z"/>
  <path transform="translate(-128.58)" d="m323.62-404.09a15.026 15.026 0 0 1-14.977-15 14.976 14.976 0 0 1 14.977-14.946 14.951 14.951 0 0 1 14.978 14.937 15 15 0 0 1-14.978 15.009zm0-36.232a21.226 21.226 0 0 0-21.19 21.227 21.189 21.189 0 0 0 21.19 21.227 21.2 21.2 0 0 0 21.23-21.227 21.235 21.235 0 0 0-21.23-21.227"/>
 </g>
</svg>
