<?xml version="1.0" encoding="UTF-8" standalone="no"?>
<svg
   width="112.95"
   height="56.475109"
   version="1.1"
   id="svg8"
   xmlns="http://www.w3.org/2000/svg"
   xmlns:svg="http://www.w3.org/2000/svg">
  <defs
     id="defs8" />
  <g
     id="Dieci_Logo"
     transform="translate(-131.792,440.322)">
    <path
       transform="translate(-48.749,-247.57)"
       d="m 218.34,-150.88 h -1.753 v 5.176 l -0.04,0.174 a 3.512,3.512 0 0 0 -3.107,-1.8 c -2.748,0 -4.342,2.268 -4.342,5.234 0,2.5 1.036,5.816 4.581,5.816 a 3.191,3.191 0 0 0 2.987,-1.745 h 0.04 v 1.454 h 1.633 z m -7.408,9.073 c 0,-1.338 0.119,-3.955 2.827,-3.955 2.549,0 2.828,2.733 2.828,4.478 0,2.733 -1.752,3.489 -2.868,3.489 -1.911,0 -2.788,-1.745 -2.788,-4.013"
       id="path1" />
    <path
       transform="translate(-142.01,-247.57)"
       d="m 319.88,-148.91 h -1.752 v -1.977 h 1.752 z m 0,12.329 h -1.752 v -10.41 h 1.752"
       id="path2" />
    <path
       transform="translate(-188.64,-268.54)"
       d="m 380.25,-118.87 a 2.68,2.68 0 0 1 -2.708,2.035 c -1.992,0 -3.027,-1.28 -3.027,-3.431 h 7.647 c 0,-3.664 -1.513,-6.107 -4.5,-6.107 -3.465,0 -5.018,2.618 -5.018,5.816 0,3.024 1.752,5.234 4.66,5.234 a 4.709,4.709 0 0 0 2.828,-0.7 4.368,4.368 0 0 0 1.872,-2.85 z m -5.735,-2.792 a 3.081,3.081 0 0 1 2.907,-3.14 c 2.111,0 2.789,1.512 2.908,3.14"
       id="path3" />
    <path
       transform="translate(-276.95,-268.54)"
       d="m 483.1,-122.53 a 2.36,2.36 0 0 0 -2.47,-2.268 c -2.19,0 -2.868,2.093 -2.868,3.955 0,1.8 0.438,4.013 2.828,4.013 1.195,0 2.191,-0.873 2.509,-2.5 h 1.673 a 4.1,4.1 0 0 1 -4.222,4.013 c -2.947,0 -4.66,-2.21 -4.66,-5.234 0,-3.2 1.553,-5.816 4.979,-5.816 a 3.765,3.765 0 0 1 3.9,3.838"
       id="path4" />
    <path
       transform="translate(-364.08,-247.57)"
       d="m 579.52,-148.91 h -1.753 v -1.977 h 1.753 z m 0,12.329 h -1.753 v -10.41 h 1.753"
       id="path5" />
    <path
       transform="translate(0,-10.661)"
       d="m 152.1,-427.86 v 6.164 h 8.923 v 32.684 h 6.333 v -38.848"
       id="path6" />
    <path
       transform="translate(-390.93,-10.656)"
       d="m 609.15,-416.93 h 6.214 v -10.933 h -6.214 z"
       id="path7" />
    <path
       transform="translate(-128.58)"
       d="m 323.62,-404.09 a 15.026,15.026 0 0 1 -14.977,-15 14.976,14.976 0 0 1 14.977,-14.946 14.951,14.951 0 0 1 14.978,14.937 15,15 0 0 1 -14.978,15.009 z m 0,-36.232 a 21.226,21.226 0 0 0 -21.19,21.227 21.189,21.189 0 0 0 21.19,21.227 21.2,21.2 0 0 0 21.23,-21.227 21.235,21.235 0 0 0 -21.23,-21.227"
       id="path8" />
  </g>
</svg>
