<?xml version="1.0" encoding="UTF-8" standalone="no"?>
<svg
   xmlns:dc="http://purl.org/dc/elements/1.1/"
   xmlns:cc="http://creativecommons.org/ns#"
   xmlns:rdf="http://www.w3.org/1999/02/22-rdf-syntax-ns#"
   xmlns:svg="http://www.w3.org/2000/svg"
   xmlns="http://www.w3.org/2000/svg"
   xmlns:sodipodi="http://sodipodi.sourceforge.net/DTD/sodipodi-0.dtd"
   xmlns:inkscape="http://www.inkscape.org/namespaces/inkscape"
   preserveAspectRatio="xMinYMin meet"
   viewBox="-19837.638 0 0 99.188188"
   id="svg2"
   version="1.1"
   inkscape:version="0.91 r13725"
   width="150"
   height="150"
   sodipodi:docname="dominos_pizza.svg">
  <metadata
     id="metadata27">
    <rdf:RDF>
      <cc:Work
         rdf:about="">
        <dc:format>image/svg+xml</dc:format>
        <dc:type
           rdf:resource="http://purl.org/dc/dcmitype/StillImage" />
        <dc:title></dc:title>
      </cc:Work>
    </rdf:RDF>
  </metadata>
  <defs
     id="defs25" />
  <sodipodi:namedview
     pagecolor="#ffffff"
     bordercolor="#666666"
     borderopacity="1"
     objecttolerance="10"
     gridtolerance="10"
     guidetolerance="10"
     inkscape:pageopacity="0"
     inkscape:pageshadow="2"
     inkscape:window-width="1920"
     inkscape:window-height="1017"
     id="namedview23"
     showgrid="false"
     fit-margin-top="0"
     fit-margin-left="0"
     fit-margin-right="0"
     fit-margin-bottom="0"
     inkscape:zoom="2.61"
     inkscape:cx="49.721373"
     inkscape:cy="49.466815"
     inkscape:window-x="-8"
     inkscape:window-y="-8"
     inkscape:window-maximized="1"
     inkscape:current-layer="logo" />
  <desc
     id="desc4">
A representation of the Domino's Pizza trademark logo.
This representation is dedicated to the public domain by the author:
http://creativecommons.org/licenses/publicdomain
</desc>
  <g
     id="logo"
     transform="matrix(0.50911688,-0.50911688,0.50911688,0.50911688,-1.1903153,100.53319)">
    <rect
       x="49.901917"
       y="-3.3966817e-006"
       width="100"
       height="48.5"
       rx="4"
       style="fill:#de2939"
       id="rect7" />
    <circle
       cx="65.401917"
       cy="15.499995"
       r="8"
       style="fill:#ffffff"
       id="circle9" />
    <circle
       cx="82.901917"
       cy="33.249996"
       r="8"
       style="fill:#ffffff"
       id="circle11" />
    <circle
       cx="125.90192"
       cy="24.249996"
       r="8"
       style="fill:#ffffff"
       id="circle13" />
    <rect
       x="99.901917"
       y="-3.3966817e-006"
       width="3"
       height="48.5"
       style="fill:#ffffff;stroke:none"
       id="rect15" />
    <rect
       x="49.901917"
       y="50.999996"
       width="100"
       height="48.5"
       rx="4"
       style="fill:#007bad"
       id="rect17" />
    <path
       style="fill:#ffffff;fill-rule:evenodd;stroke:none"
       d="m 54.901918,72.999996 0,-17.5 6,0 c 7.5,1 7.5,16 0,17.5 z m 4.5,-13.5 0,9 c 3.5,-0.5 3.5,-8.5 0,-9 m 13.75,0.75 c 7,0 7,12.75 0,12.75 -7,0 -7,-12.75 0,-12.75 z m 0,3.25 c 1.75,0 1.75,6.25 0,6.25 -1.75,0 -1.75,-6.25 0,-6.25 z m 6.75,-2.5 4.5,0 0,1.5 a 3.5,3.5 0 0 1 6,0 3.5,3.5 0 0 1 6,0 l 0,10.5 -4.25,0 0,-7.5 a 1,1.5 0 0 0 -1.75,0 l 0,7.5 -4.5,0 0,-7.5 a 1,1.5 0 0 0 -1.75,0 l 0,7.5 -4.25,0 z m 18.5,0 4.500002,0 0,12 -4.500002,0 z m 2.250002,-7 a 2.6,2.6 0 1 0 0.01,0 m 4.24,7 4.25,0 0,2 a 3.15,3.15 0 0 1 6,1 l 0,9 -4.25,0 0,-7.5 a 1,1.5 0 0 0 -1.75,0 l 0,7.5 -4.25,0 z m 17.25,-0.75 c 7,0 7,12.75 0,12.75 -7,0 -7,-12.75 0,-12.75 z m 0,3.25 c 1.75,0 1.75,6.25 0,6.25 -1.75,0 -1.75,-6.25 0,-6.25 z m 8.25,-8 4.5,0 -3,7.75 -3.25,0 z m 10,8.5 c -4.5,-2 -4,1 -1,1.5 3.5,1.5 3.5,7.5 -2,7.5 q -2.5,-0.25 -4.25,-1.5 l 1.5,-2.5 c 4.25,2 4.25,-1 0.25,-2 -4,-2 -1,-10 7,-6 z m -80.500002,31 -5,0 0,-18 5,0 a 6,6 0 0 1 0,12 z m 0,-14.5 a 2.6125,2.375 0 0 1 0,4.75 z m 7.75,2 4.5,0 0,12.5 -4.5,0 z m 2.25,-6.3 a 2.6,2.6 0 1 0 0.01,0 m 3.99,6.3 9.5,0 -4,8.75 3.75,0 0,3.75 -9.75,0 4,-9 -3.5,0 z m 11.25,0 9.5,0 -4,8.75 3.75,0 0,3.75 -10,0 4.25,-9 -3.75,0 z m 17.000002,10.5 a 4,6.3 0 1 1 0,-9 l 0,-1.5 4.75,0 0,12.5 -4.75,0 z m 0,-3 a 1,2.5 0 1 1 0,-3 z"
       id="path19"
       inkscape:connector-curvature="0" />
  </g>
</svg>
