<svg xmlns:rdf="http://www.w3.org/1999/02/22-rdf-syntax-ns#" xmlns="http://www.w3.org/2000/svg" height="5e3" viewBox="1 2 100 133.33333" width="5e3" version="1.1" preserveAspectRatio="xMinYMin meet" xmlns:cc="http://creativecommons.org/ns#" xmlns:dc="http://purl.org/dc/elements/1.1/">
<desc>A representation of the Domino&apos;s Pizza trademark logo.
This representation is dedicated to the public domain by the author:
http://creativecommons.org/licenses/publicdomain</desc>
<g transform="matrix(.50912 -.50912 .50912 .50912 -8.5237 94.2)">
<rect rx="4" height="48.5" width="100" y="-.0000033967" x="49.902" fill="#de2939"/>
<g fill="#fff">
<circle cy="15.5" cx="65.402" r="8"/>
<circle cy="33.25" cx="82.902" r="8"/>
<circle cy="24.25" cx="125.9" r="8"/>
<rect height="48.5" width="3" y="-.0000033967" x="99.902"/>
</g>
<rect rx="4" height="48.5" width="100" y="51" x="49.902" fill="#007bad"/>
<path fill-rule="evenodd" fill="#fff" d="m54.902 73v-17.5h6c7.5 1 7.5 16 0 17.5zm4.5-13.5v9c3.5-0.5 3.5-8.5 0-9m13.75 0.75c7 0 7 12.75 0 12.75s-7-12.75 0-12.75zm0 3.25c1.75 0 1.75 6.25 0 6.25s-1.75-6.25 0-6.25zm6.75-2.5h4.5v1.5a3.5 3.5 0 0 1 6 0 3.5 3.5 0 0 1 6 0v10.5h-4.25v-7.5a1 1.5 0 0 0 -1.75 0v7.5h-4.5v-7.5a1 1.5 0 0 0 -1.75 0v7.5h-4.25zm18.5 0h4.5v12h-4.5zm2.25-7a2.6 2.6 0 1 0 0.01 0m4.24 7h4.25v2a3.15 3.15 0 0 1 6 1v9h-4.25v-7.5a1 1.5 0 0 0 -1.75 0v7.5h-4.25zm17.25-0.75c7 0 7 12.75 0 12.75s-7-12.75 0-12.75zm0 3.25c1.75 0 1.75 6.25 0 6.25s-1.75-6.25 0-6.25zm8.25-8h4.5l-3 7.75h-3.25zm10 8.5c-4.5-2-4 1-1 1.5 3.5 1.5 3.5 7.5-2 7.5q-2.5-0.25-4.25-1.5l1.5-2.5c4.25 2 4.25-1 0.25-2-4-2-1-10 7-6zm-80.5 31h-5v-18h5a6 6 0 0 1 0 12zm0-14.5a2.6125 2.375 0 0 1 0 4.75zm7.75 2h4.5v12.5h-4.5zm2.25-6.3a2.6 2.6 0 1 0 0.01 0m3.99 6.3h9.5l-4 8.75h3.75v3.75h-9.75l4-9h-3.5zm11.25 0h9.5l-4 8.75h3.75v3.75h-10l4.25-9h-3.75zm17 10.5a4 6.3 0 1 1 0 -9v-1.5h4.75v12.5h-4.75zm0-3a1 2.5 0 1 1 0 -3z"/>
</g>
</svg>
