<?xml version="1.0" encoding="UTF-8"?>
<svg width="500" height="500" version="1.1" viewBox="0 0 500 500" xmlns="http://www.w3.org/2000/svg">
 <defs>
  <style>.cls-1{fill:#008fc6;}.cls-2{fill:#e30613;}.cls-3{fill:#245da9;}.cls-4{fill:#1d1d1b;}</style>
 </defs>
 <g transform="translate(67 131.22)">
  <path class="cls-1" d="m69.7 186.83h-60.82v-167.47h112.03v27.95h-77.53v39.91h62.97v27.03h-62.97v44.86h43.96l-17.65 27.72z"/>
  <polygon class="cls-2" points="209.58 150.58 186.47 186.82 209.58 186.82"/>
  <path class="cls-2" d="m271.32 54.11c1.06-1.5 2.4-2.87 4.01-4.11 4.68-3.57 11.23-5.35 19.67-5.35s15.53 2.13 20.36 6.38c4.83 4.26 7.25 10.22 7.25 17.89h34.51c0-10.05-2.59-19.02-7.76-26.92-5.18-7.9-12.45-14.01-21.8-18.35-9.36-4.33-20.47-6.61-32.43-6.61l-23.8 37.06z"/>
  <path class="cls-2" d="m245.9 93.73c4.52 4.56 9.42 8.08 16.05 11.66 6.98 3.76 16.45 7.58 28.41 11.44 11.96 3.88 20.24 7.56 24.85 11.04 4.6 3.5 6.9 8.5 6.9 15.01 0 5.98-2.3 10.64-6.9 13.97-4.6 3.34-11 5.01-19.21 5.01-21.99 0-33.01-9.17-33.11-27.49v-10.58h-36.27l-17.04 26.78 21.21 0.02c1.38 4.29 3.26 8.33 5.8 12.08 5.56 8.21 13.63 14.66 24.22 19.39 10.58 4.71 22.31 7.07 35.2 7.07 18.56 0 33.32-4.12 44.28-12.36 10.97-8.24 16.45-19.62 16.45-34.11 0-13.04-4.49-23.93-13.46-32.67s-23.27-16.07-42.9-21.97c-10.66-3.22-18.73-6.67-24.22-10.35-5.48-3.68-8.22-8.24-8.22-13.69 0-3.27 1.12-6.1 2.59-8.65l-24.7 38.32 0.08 0.08z"/>
  <path class="cls-3" d="m87.34 159.11h33.8v27.72h-51.44l17.65-27.72z"/>
  <path class="cls-3" d="m295.12 17.06c-11.89 0-22.6 1.99-32.15 5.98-9.54 3.99-16.87 9.53-21.96 16.62-5.11 7.09-7.65 15.16-7.65 24.21 0 11.51 4.16 21.47 12.48 29.86l49.29-76.68z"/>
  <polygon class="cls-3" points="174.32 68.47 176.5 64.68 176.5 123.8 176.5 186.82 186.52 186.82 226.65 123.8 209.75 123.8 209.75 19.36 176.16 19.36 105.75 129.66 105.75 150.6 176.5 150.6 176.5 123.63 139.47 123.8"/>
 </g>
 <g transform="translate(69.1 131.22)">
  <path class="cls-4" d="m21.08 207.41h-7.21l-1.06 6.08h8.39l-0.33 1.85h-10.6l2.98-17.16h10.48l-0.33 1.85h-8.26l-0.95 5.53h7.21z"/>
  <path class="cls-4" d="m33.12 202.57-0.31 1.62c1.15-1.26 2.45-1.87 3.91-1.84 1.2 0.03 2.09 0.45 2.66 1.25s0.79 1.93 0.64 3.38l-1.39 8.35h-2.13l1.4-8.38c0.05-0.38 0.05-0.74 0.01-1.07-0.13-1.1-0.78-1.66-1.94-1.68-1.28-0.02-2.4 0.66-3.37 2.05l-1.58 9.09h-2.13l2.22-12.75h2.02z"/>
  <path class="cls-4" d="m53.08 199.5-0.54 3.09h2.32l-0.29 1.68h-2.31l-1.33 7.93c-0.02 0.21-0.03 0.39-0.01 0.57 0.05 0.61 0.39 0.92 1 0.92 0.26 0 0.6-0.04 1.04-0.12l-0.17 1.78c-0.51 0.14-1.03 0.21-1.56 0.21-0.85-0.02-1.48-0.33-1.91-0.94s-0.59-1.43-0.49-2.46l1.3-7.89h-2.25l0.29-1.68h2.25l0.54-3.09z"/>
  <path class="cls-4" d="m66.26 215.57c-1.59-0.03-2.83-0.62-3.72-1.76-0.9-1.14-1.27-2.6-1.13-4.37l0.06-0.51c0.13-1.26 0.51-2.42 1.13-3.46s1.37-1.83 2.26-2.36 1.85-0.78 2.88-0.76c1.31 0.03 2.34 0.47 3.09 1.31s1.15 1.98 1.23 3.42c0.02 0.51 0 1.02-0.05 1.53l-0.13 0.98h-8.33c-0.14 1.15 0.05 2.14 0.57 2.95s1.3 1.23 2.34 1.26c1.26 0.03 2.42-0.53 3.49-1.7l1.23 1.04c-0.53 0.77-1.22 1.37-2.07 1.81-0.84 0.44-1.79 0.65-2.82 0.63zm1.35-11.44c-0.88-0.02-1.65 0.28-2.3 0.9-0.66 0.62-1.18 1.54-1.56 2.77h6.2l0.05-0.18c0.13-0.99-0.03-1.81-0.48-2.47s-1.08-1-1.9-1.02z"/>
  <path class="cls-4" d="m86.71 204.53-1-0.11c-1.37 0-2.44 0.62-3.23 1.85l-1.57 9.06h-2.13l2.22-12.75h2.06l-0.32 1.47c0.9-1.19 1.97-1.76 3.19-1.73 0.26 0 0.6 0.06 1.01 0.18l-0.24 2.03z"/>
  <path class="cls-4" d="m103.89 209.02c-0.16 1.3-0.51 2.46-1.05 3.5s-1.21 1.81-2.02 2.33c-0.8 0.51-1.69 0.76-2.66 0.74-1.48-0.03-2.61-0.53-3.39-1.5l-1.14 6.15h-2.13l3.06-17.65h1.93l-0.24 1.41c1.05-1.13 2.31-1.68 3.78-1.65 1.23 0.03 2.18 0.48 2.86 1.36 0.68 0.87 1.04 2.07 1.08 3.61 0 0.5-0.01 0.99-0.06 1.46l-0.04 0.25zm-2.1-0.24 0.06-0.99c0-1.15-0.22-2.02-0.65-2.63s-1.07-0.93-1.89-0.96c-1.23-0.03-2.3 0.55-3.19 1.75l-1.07 6.11c0.48 1.13 1.34 1.71 2.58 1.74 1.06 0.02 1.96-0.39 2.7-1.24s1.23-2.11 1.47-3.78z"/>
  <path class="cls-4" d="m119.06 204.53-1-0.11c-1.37 0-2.44 0.62-3.23 1.85l-1.57 9.06h-2.13l2.22-12.75h2.06l-0.32 1.47c0.9-1.19 1.97-1.76 3.19-1.73 0.26 0 0.6 0.06 1.01 0.18l-0.24 2.03z"/>
  <path class="cls-4" d="m127 215.34h-2.12l2.22-12.75h2.12zm1.76-17.4c0.36-0.02 0.66 0.09 0.9 0.32s0.36 0.54 0.36 0.91-0.13 0.67-0.36 0.91-0.53 0.36-0.9 0.38-0.67-0.09-0.91-0.32-0.35-0.53-0.34-0.9c0-0.37 0.13-0.68 0.35-0.92 0.23-0.24 0.53-0.37 0.9-0.39z"/>
  <path class="cls-4" d="m143.91 211.88c0.12-0.88-0.37-1.5-1.45-1.86l-2.21-0.65c-1.87-0.64-2.77-1.71-2.71-3.21 0.06-1.12 0.57-2.04 1.54-2.76s2.11-1.07 3.42-1.05c1.29 0.02 2.33 0.39 3.14 1.13 0.81 0.73 1.19 1.69 1.16 2.87h-2.12c0.02-0.65-0.18-1.17-0.6-1.57s-0.97-0.61-1.66-0.62c-0.74-0.02-1.38 0.17-1.91 0.54-0.49 0.35-0.78 0.82-0.86 1.39-0.1 0.74 0.35 1.28 1.35 1.61l1.07 0.29c1.46 0.38 2.5 0.87 3.11 1.47 0.61 0.61 0.9 1.36 0.85 2.25-0.05 0.79-0.31 1.48-0.78 2.07s-1.1 1.04-1.89 1.35-1.62 0.45-2.51 0.43c-1.35-0.02-2.47-0.41-3.35-1.18s-1.3-1.77-1.27-2.99h2.13c0 0.73 0.23 1.3 0.68 1.73 0.46 0.43 1.08 0.65 1.87 0.65 0.78 0.02 1.45-0.15 2.02-0.49s0.89-0.81 0.97-1.41z"/>
  <path class="cls-4" d="m159.24 215.57c-1.59-0.03-2.83-0.62-3.72-1.76-0.9-1.14-1.27-2.6-1.13-4.37l0.06-0.51c0.13-1.26 0.51-2.42 1.13-3.46s1.37-1.83 2.26-2.36 1.85-0.78 2.88-0.76c1.31 0.03 2.34 0.47 3.09 1.31s1.15 1.98 1.23 3.42c0.02 0.51 0 1.02-0.05 1.53l-0.13 0.98h-8.33c-0.14 1.15 0.05 2.14 0.57 2.95s1.3 1.23 2.34 1.26c1.26 0.03 2.42-0.53 3.49-1.7l1.23 1.04c-0.53 0.77-1.22 1.37-2.07 1.81-0.84 0.44-1.79 0.65-2.82 0.63zm1.35-11.44c-0.88-0.02-1.65 0.28-2.3 0.9-0.66 0.62-1.18 1.54-1.56 2.77h6.2l0.05-0.18c0.13-0.99-0.03-1.81-0.48-2.47s-1.08-1-1.9-1.02z"/>
  <path class="cls-4" d="m184.24 215.34 1.93-11.06h-1.97l0.29-1.68h1.96l0.21-1.51c0.2-1.28 0.7-2.28 1.48-3 0.82-0.75 1.88-1.12 3.16-1.11 0.4 0 0.91 0.07 1.52 0.2l-0.26 1.79c-0.38-0.08-0.76-0.12-1.14-0.14-0.74 0-1.34 0.23-1.8 0.69s-0.74 1.07-0.85 1.83l-0.19 1.26h2.64l-0.29 1.68h-2.64l-1.92 11.06h-2.13z"/>
  <path class="cls-4" d="m204.06 202.35c1.07 0.02 1.98 0.31 2.75 0.87 0.76 0.57 1.33 1.35 1.69 2.34 0.37 0.99 0.49 2.08 0.37 3.26l-0.02 0.26c-0.15 1.24-0.52 2.36-1.11 3.36s-1.35 1.78-2.29 2.34-1.96 0.82-3.08 0.79c-1.06-0.02-1.97-0.31-2.74-0.87-0.77-0.57-1.33-1.33-1.68-2.31-0.35-0.97-0.48-2.05-0.38-3.22 0.12-1.32 0.48-2.5 1.07-3.56 0.6-1.05 1.36-1.87 2.3-2.45s1.97-0.85 3.1-0.82zm-4.34 6.83c-0.06 0.49-0.06 1.01 0 1.54 0.08 0.93 0.36 1.67 0.83 2.22s1.11 0.84 1.9 0.86c0.71 0.02 1.36-0.15 1.96-0.52s1.1-0.94 1.51-1.69 0.67-1.59 0.79-2.51c0.06-0.72 0.07-1.33 0.04-1.83-0.09-0.95-0.38-1.7-0.86-2.25s-1.12-0.84-1.91-0.87c-1.1-0.02-2.03 0.41-2.8 1.3s-1.25 2.05-1.43 3.49l-0.02 0.27z"/>
  <path class="cls-4" d="m223.9 204.53-1-0.11c-1.37 0-2.44 0.62-3.23 1.85l-1.57 9.06h-2.13l2.22-12.75h2.06l-0.32 1.47c0.9-1.19 1.97-1.76 3.19-1.73 0.26 0 0.6 0.06 1.01 0.18l-0.24 2.03z"/>
  <path class="cls-4" d="m250.95 210.92c0.17-1.26-0.48-2.18-1.96-2.76l-2.04-0.74-0.68-0.29c-2.29-1.04-3.37-2.51-3.22-4.41 0.08-0.95 0.4-1.79 0.98-2.52s1.33-1.29 2.28-1.69 1.95-0.58 3.02-0.56c1.04 0.02 1.96 0.25 2.77 0.69s1.43 1.05 1.86 1.84c0.42 0.79 0.61 1.68 0.57 2.67h-2.23c0.08-1.07-0.16-1.89-0.71-2.47s-1.34-0.88-2.36-0.89c-1.08-0.02-1.98 0.24-2.7 0.76s-1.14 1.23-1.25 2.12c-0.16 1.17 0.56 2.06 2.16 2.67l1.76 0.62 0.88 0.38c2.22 1.02 3.24 2.54 3.08 4.55-0.09 0.97-0.41 1.8-0.98 2.5s-1.33 1.25-2.3 1.63-2.01 0.57-3.13 0.54c-1.08 0-2.06-0.24-2.95-0.69s-1.57-1.07-2.03-1.86-0.67-1.68-0.61-2.67h2.22c-0.07 1.03 0.21 1.84 0.83 2.45 0.62 0.6 1.51 0.91 2.65 0.92 1.14 0.02 2.08-0.23 2.82-0.74s1.17-1.2 1.28-2.06z"/>
  <path class="cls-4" d="m267.6 202.35c1.07 0.02 1.98 0.31 2.75 0.87 0.76 0.57 1.33 1.35 1.69 2.34 0.37 0.99 0.49 2.08 0.37 3.26l-0.02 0.26c-0.15 1.24-0.52 2.36-1.11 3.36s-1.35 1.78-2.29 2.34-1.96 0.82-3.08 0.79c-1.06-0.02-1.97-0.31-2.74-0.87-0.77-0.57-1.33-1.33-1.68-2.31-0.35-0.97-0.48-2.05-0.38-3.22 0.12-1.32 0.48-2.5 1.07-3.56 0.6-1.05 1.36-1.87 2.3-2.45s1.97-0.85 3.1-0.82zm-4.34 6.83c-0.06 0.49-0.06 1.01 0 1.54 0.08 0.93 0.36 1.67 0.83 2.22s1.11 0.84 1.9 0.86c0.71 0.02 1.36-0.15 1.96-0.52s1.1-0.94 1.51-1.69 0.67-1.59 0.79-2.51c0.06-0.72 0.07-1.33 0.04-1.83-0.09-0.95-0.38-1.7-0.86-2.25s-1.12-0.84-1.91-0.87c-1.1-0.02-2.03 0.41-2.8 1.3s-1.25 2.05-1.43 3.49l-0.02 0.27z"/>
  <path class="cls-4" d="m284.89 213.8c0.76 0.02 1.45-0.21 2.06-0.67s1.01-1.06 1.2-1.81h2.02c-0.12 0.79-0.44 1.52-0.96 2.18s-1.18 1.17-1.97 1.54-1.61 0.54-2.44 0.52c-1.06-0.02-1.96-0.29-2.69-0.83s-1.27-1.29-1.62-2.25-0.46-2.04-0.35-3.25l0.06-0.59c0.15-1.23 0.51-2.32 1.07-3.29 0.57-0.97 1.3-1.72 2.22-2.26 0.91-0.54 1.92-0.79 3.02-0.76 1.34 0.03 2.4 0.48 3.21 1.34s1.2 1.96 1.2 3.29h-1.99c-0.02-0.84-0.25-1.52-0.7-2.03s-1.05-0.79-1.81-0.82c-1.11-0.02-2.03 0.39-2.76 1.24s-1.19 2.04-1.37 3.56l-0.04 0.31c-0.05 0.5-0.06 1.02-0.02 1.56 0.06 0.92 0.31 1.65 0.78 2.18s1.1 0.81 1.91 0.84z"/>
  <path class="cls-4" d="m299.72 215.34h-2.12l2.22-12.75h2.12zm1.76-17.4c0.36-0.02 0.66 0.09 0.9 0.32s0.36 0.54 0.36 0.91-0.13 0.67-0.36 0.91-0.53 0.36-0.9 0.38-0.67-0.09-0.91-0.32-0.35-0.53-0.34-0.9c0-0.37 0.13-0.68 0.35-0.92 0.23-0.24 0.53-0.37 0.9-0.39z"/>
  <path class="cls-4" d="m314.25 215.57c-1.59-0.03-2.83-0.62-3.72-1.76-0.9-1.14-1.27-2.6-1.13-4.37l0.06-0.51c0.13-1.26 0.51-2.42 1.13-3.46s1.37-1.83 2.26-2.36 1.85-0.78 2.88-0.76c1.31 0.03 2.34 0.47 3.09 1.31s1.16 1.98 1.23 3.42c0.02 0.51 0 1.02-0.05 1.53l-0.13 0.98h-8.33c-0.14 1.15 0.05 2.14 0.57 2.95s1.3 1.23 2.34 1.26c1.26 0.03 2.42-0.53 3.49-1.7l1.23 1.04c-0.53 0.77-1.22 1.37-2.07 1.81-0.84 0.44-1.79 0.65-2.82 0.63zm1.35-11.44c-0.88-0.02-1.65 0.28-2.3 0.9-0.66 0.62-1.18 1.54-1.56 2.77h6.2l0.05-0.18c0.13-0.99-0.03-1.81-0.48-2.47-0.44-0.66-1.08-1-1.9-1.02z"/>
  <path class="cls-4" d="m332.4 199.5-0.54 3.09h2.32l-0.29 1.68h-2.31l-1.33 7.93c-0.02 0.21-0.03 0.39-0.01 0.57 0.06 0.61 0.39 0.92 1 0.92 0.26 0 0.6-0.04 1.04-0.12l-0.17 1.78c-0.51 0.14-1.03 0.21-1.56 0.21-0.85-0.02-1.48-0.33-1.91-0.94-0.42-0.61-0.59-1.43-0.5-2.46l1.3-7.89h-2.25l0.29-1.68h2.25l0.54-3.09h2.12z"/>
  <path class="cls-4" d="m344.63 212.12 4.54-9.53h2.36l-7.56 14.87c-1.05 2.07-2.4 3.09-4.05 3.06-0.29 0-0.72-0.08-1.28-0.21l0.19-1.77 0.55 0.06c0.68 0.03 1.26-0.12 1.75-0.45s0.92-0.87 1.3-1.62l0.77-1.46-2.2-12.48h2.23l1.43 9.53z"/>
 </g>
</svg>
