<?xml version="1.0" encoding="UTF-8" standalone="no"?>
<!-- Generator: Adobe Illustrator 25.3.1, SVG Export Plug-In . SVG Version: 6.00 Build 0)  -->

<svg
   version="1.1"
   id="Calque_1"
   x="0px"
   y="0px"
   viewBox="0 0 589.99998 590.00001"
   xml:space="preserve"
   sodipodi:docname="EPFL Rocket Team.svg"
   width="590"
   height="590"
   inkscape:version="1.2.1 (9c6d41e410, 2022-07-14)"
   xmlns:inkscape="http://www.inkscape.org/namespaces/inkscape"
   xmlns:sodipodi="http://sodipodi.sourceforge.net/DTD/sodipodi-0.dtd"
   xmlns="http://www.w3.org/2000/svg"
   xmlns:svg="http://www.w3.org/2000/svg"><defs
   id="defs98" /><sodipodi:namedview
   id="namedview96"
   pagecolor="#ffffff"
   bordercolor="#000000"
   borderopacity="0.25"
   inkscape:showpageshadow="2"
   inkscape:pageopacity="0.0"
   inkscape:pagecheckerboard="true"
   inkscape:deskcolor="#d1d1d1"
   showgrid="false"
   inkscape:zoom="1.3925752"
   inkscape:cx="463.52973"
   inkscape:cy="240.92056"
   inkscape:window-width="1920"
   inkscape:window-height="1010"
   inkscape:window-x="-6"
   inkscape:window-y="-6"
   inkscape:window-maximized="1"
   inkscape:current-layer="Calque_1" />
<style
   type="text/css"
   id="style51">
	.st0{fill:#E20E18;}
	.st1{fill:#010202;}
	.st2{fill:#E30B17;}
</style>




















<g
   id="g348"
   transform="translate(-126.1375,-2.5)"><polygon
     points="350.6,449.6 368.9,449.6 368.9,506.4 350.6,519.2 "
     id="polygon53" /><polygon
     points="455.3,449.6 437,449.6 437,506.4 455.3,519.2 "
     id="polygon55" /><path
     class="st0"
     d="m 421,168 c -9.3,0 -16.8,7.5 -16.8,16.8 0,9.3 7.5,16.8 16.8,16.8 9.3,0 16.8,-7.5 16.8,-16.8 0,-9.3 -7.5,-16.8 -16.8,-16.8 z m 9.9,20.1 h -6.6 v 6.6 h -6.6 v -6.6 h -6.5 v -6.6 h 6.5 v -6.6 h 6.6 v 6.6 h 6.6 z"
     id="path57" /><polygon
     points="402.9,520.6 393.9,506.5 393.9,449.7 412,449.7 411.9,506.5 "
     id="polygon59" /><polygon
     class="st1"
     points="369,226.6 369,258.8 454.2,258.8 454.2,275.5 368.7,275.5 368.7,299.9 350.7,311.4 350.6,306.6 350.6,226.6 "
     id="polygon61" /><path
     d="m 410.4,415.4 v -15.3 h -43.5 v -28.9 c 0,0 2,-15.2 17.4,-14.8 15.4,0.4 16.6,14.7 16.6,14.7 v 22.7 l 53.3,-34 v -19.4 l -38.9,24.7 c 0,0 -8.2,-24.3 -31.5,-24.7 -23.3,-0.4 -32.9,19.3 -33.9,28.6 -1,9.3 -0.5,46.4 -0.5,46.4 h 9.1 34.6 z"
     id="path63" /><path
     class="st2"
     d="m 429,81.7 -8,-8.6 -8,8.6 c -30.6,32.8 -48.3,73.8 -62.4,119.9 h 25.1 c 12,-39.2 20.8,-62.5 45.4,-91.4 24.6,28.9 33.4,52.3 45.4,91.4 h 25.1 C 477.4,155.4 459.7,114.5 429,81.7 Z"
     id="path65" /><path
     class="st2"
     d="m 469.7,506.1 h 1.9 v 13.6 h 8.3 V 507 h 1.9 v 12.7 h 9 V 506 h 1.9 v 15.9 h -22.9 v -15.8 z"
     id="path67" /><path
     class="st2"
     d="m 469.7,492.8 c 0,-1 0.1,-2 0.4,-2.8 0.3,-0.8 0.7,-1.5 1.3,-2.1 0.6,-0.6 1.3,-1.1 2.1,-1.4 0.8,-0.3 1.7,-0.5 2.8,-0.5 1,0 1.9,0.2 2.8,0.5 0.9,0.3 1.5,0.8 2.1,1.4 0.6,0.6 1,1.3 1.3,2.1 0.3,0.8 0.4,1.8 0.4,2.8 v 8 h 9.8 v 2.2 h -22.9 v -10.2 z m 11.2,0.4 c 0,-1.5 -0.4,-2.7 -1.2,-3.7 -0.8,-0.9 -1.9,-1.4 -3.5,-1.4 -1.6,0 -2.8,0.5 -3.5,1.4 -0.8,0.9 -1.2,2.2 -1.2,3.7 v 7.5 h 9.3 v -7.5 z"
     id="path69" /><path
     class="st2"
     d="m 469.7,468.2 h 1.9 v 12.3 h 8.3 v -11 h 1.9 v 11 h 10.9 v 2.2 h -22.9 v -14.5 z"
     id="path71" /><path
     class="st2"
     d="m 469.7,463.4 h 21 v -12.8 h 1.9 v 15 h -22.9 z"
     id="path73" /><path
     d="m 469.7,429 c 0,-0.9 0.1,-1.8 0.4,-2.7 0.2,-0.8 0.6,-1.6 1.1,-2.2 0.5,-0.6 1.1,-1.1 1.9,-1.5 0.8,-0.4 1.6,-0.6 2.7,-0.6 1.5,0 2.7,0.4 3.8,1.1 1.1,0.7 1.7,1.9 2,3.3 h 0.1 c 0.1,-0.7 0.3,-1.4 0.6,-1.9 0.3,-0.5 0.7,-0.9 1.1,-1.2 0.4,-0.3 1,-0.5 1.6,-0.7 0.6,-0.1 1.2,-0.2 1.9,-0.3 0.4,0 0.9,0 1.4,-0.1 0.6,0 1.1,-0.1 1.7,-0.1 0.6,-0.1 1.1,-0.2 1.6,-0.3 0.5,-0.1 0.9,-0.3 1.2,-0.6 v 2.4 c -0.2,0.1 -0.5,0.2 -0.8,0.3 -0.3,0.1 -0.6,0.1 -1,0.2 -0.3,0 -0.7,0.1 -1,0.1 -0.3,0 -0.6,0 -0.8,0.1 -0.8,0 -1.6,0.1 -2.4,0.2 -0.8,0.1 -1.5,0.3 -2.1,0.6 -0.6,0.3 -1.1,0.8 -1.5,1.3 -0.4,0.6 -0.6,1.4 -0.5,2.4 v 8.3 h 10.2 v 2.2 H 470 V 429 Z m 10.8,0.1 c 0,-0.7 -0.1,-1.3 -0.3,-1.9 -0.2,-0.6 -0.5,-1.1 -0.9,-1.6 -0.4,-0.5 -0.8,-0.8 -1.4,-1.1 -0.5,-0.3 -1.2,-0.4 -1.9,-0.4 -1.4,0 -2.5,0.4 -3.3,1.2 -0.8,0.8 -1.2,2.1 -1.2,3.7 v 8.1 h 9 z"
     id="path75" /><path
     d="m 476.6,418.6 c -1.4,-0.4 -2.7,-1.1 -3.8,-2 -1.1,-0.9 -2,-2 -2.6,-3.4 -0.7,-1.4 -1,-2.9 -1,-4.7 0,-1.8 0.3,-3.4 1,-4.7 0.7,-1.3 1.5,-2.5 2.6,-3.4 1.1,-0.9 2.4,-1.6 3.8,-2 1.4,-0.4 2.9,-0.7 4.5,-0.7 1.6,0 3.1,0.2 4.5,0.7 1.4,0.4 2.7,1.1 3.8,2 1.1,0.9 2,2 2.6,3.4 0.7,1.3 1,2.9 1,4.7 0,1.8 -0.3,3.4 -1,4.7 -0.7,1.4 -1.5,2.5 -2.6,3.4 -1.1,0.9 -2.3,1.6 -3.8,2 -1.4,0.4 -2.9,0.7 -4.5,0.7 -1.6,0 -3.1,-0.2 -4.5,-0.7 z m 8.2,-2 c 1.2,-0.3 2.3,-0.8 3.2,-1.5 1,-0.7 1.7,-1.6 2.3,-2.7 0.6,-1.1 0.9,-2.4 0.9,-3.9 0,-1.5 -0.3,-2.8 -0.9,-3.9 -0.6,-1.1 -1.3,-2 -2.3,-2.7 -0.9,-0.7 -2,-1.2 -3.2,-1.5 -1.2,-0.3 -2.4,-0.5 -3.7,-0.5 -1.3,0 -2.5,0.2 -3.7,0.5 -1.2,0.3 -2.3,0.8 -3.2,1.5 -0.9,0.7 -1.7,1.6 -2.3,2.7 -0.6,1.1 -0.9,2.4 -0.9,3.9 0,1.5 0.3,2.8 0.9,3.9 0.6,1.1 1.3,2 2.3,2.7 0.9,0.7 2,1.2 3.2,1.5 1.2,0.3 2.4,0.5 3.7,0.5 1.3,0 2.5,-0.1 3.7,-0.5 z"
     id="path77" /><path
     d="m 474.3,378.6 c -0.7,0.4 -1.3,1 -1.7,1.6 -0.5,0.6 -0.8,1.3 -1.1,2.1 -0.2,0.8 -0.4,1.6 -0.4,2.4 0,1.5 0.3,2.8 0.9,3.9 0.6,1.1 1.3,2 2.3,2.7 1,0.7 2,1.2 3.2,1.5 1.2,0.3 2.4,0.5 3.7,0.5 1.2,0 2.5,-0.2 3.7,-0.5 1.2,-0.3 2.3,-0.8 3.2,-1.5 1,-0.7 1.7,-1.6 2.3,-2.7 0.6,-1.1 0.9,-2.4 0.9,-3.9 0,-1.1 -0.2,-2 -0.6,-2.9 -0.4,-0.9 -0.9,-1.6 -1.6,-2.2 -0.7,-0.6 -1.4,-1.1 -2.3,-1.5 -0.9,-0.4 -1.8,-0.6 -2.9,-0.7 v -2.2 c 1.4,0.2 2.7,0.5 3.8,1 1.1,0.5 2.1,1.2 2.9,2 0.8,0.8 1.4,1.8 1.8,2.9 0.4,1.1 0.6,2.3 0.6,3.7 0,1.8 -0.3,3.4 -1,4.7 -0.7,1.4 -1.5,2.5 -2.6,3.4 -1.1,0.9 -2.3,1.6 -3.8,2 -1.4,0.4 -2.9,0.7 -4.5,0.7 -1.6,0 -3.1,-0.2 -4.5,-0.7 -1.4,-0.4 -2.7,-1.1 -3.8,-2 -1.1,-0.9 -2,-2 -2.6,-3.4 -0.7,-1.4 -1,-2.9 -1,-4.7 0,-1.1 0.2,-2.1 0.5,-3.2 0.3,-1 0.8,-2 1.4,-2.8 0.6,-0.8 1.4,-1.5 2.3,-2.1 0.9,-0.6 2,-0.9 3.2,-1.1 v 2.2 c -0.9,0.1 -1.6,0.4 -2.3,0.8 z"
     id="path79" /><path
     d="M 469.7,369.7 H 482 l -12.3,-13.3 v -2.9 l 9.4,10.2 13.4,-10.7 v 2.8 l -11.9,9.5 4.1,4.4 h 7.8 v 2.2 h -22.9 v -2.2 z"
     id="path81" /><path
     d="m 469.7,335.3 h 1.9 v 13.6 h 8.3 v -12.7 h 1.9 v 12.7 h 9 v -13.8 h 1.9 V 351 h -22.9 v -15.7 z"
     id="path83" /><path
     d="m 469.7,316.4 h 1.9 v 8 h 21 v 2.2 h -21 v 7.9 h -1.9 z"
     id="path85" /><path
     d="m 469.7,289.7 h 1.9 v 8 h 21 v 2.2 h -21 v 7.9 h -1.9 z"
     id="path87" /><path
     d="m 469.7,271.8 h 1.9 v 13.6 h 8.3 v -12.7 h 1.9 v 12.7 h 9 v -13.8 h 1.9 v 15.9 h -22.9 v -15.7 z"
     id="path89" /><path
     d="m 469.7,259.5 22.9,-9 v 2.3 l -7.1,2.8 V 266 l 7.1,2.8 v 2.3 l -22.9,-9.2 z m 13.9,-3.1 -11.7,4.4 11.7,4.6 z"
     id="path91" /><path
     d="m 469.7,245.3 20,-7.6 -20,-7.9 v -3.2 h 22.9 v 2.2 h -19.8 v 0.1 l 19.8,7.8 v 2 l -19.8,7.5 v 0.1 h 19.8 v 2.2 h -22.9 z"
     id="path93" /></g>
</svg>
