<?xml version="1.0" encoding="utf-8"?>
<!-- Generator: Adobe Illustrator 25.3.1, SVG Export Plug-In . SVG Version: 6.00 Build 0)  -->
<svg version="1.1" id="Calque_1" xmlns="http://www.w3.org/2000/svg" xmlns:xlink="http://www.w3.org/1999/xlink" x="0px" y="0px"
	 viewBox="0 0 841.9 595.3" style="enable-background:new 0 0 841.9 595.3;" xml:space="preserve">
<style type="text/css">
	.st0{fill:#E20E18;}
	.st1{fill:#010202;}
	.st2{fill:#E30B17;}
</style>
<polygon points="350.6,519.2 350.6,449.6 368.9,449.6 368.9,506.4 "/>
<polygon points="455.3,519.2 455.3,449.6 437,449.6 437,506.4 "/>
<path class="st0" d="M421,168c-9.3,0-16.8,7.5-16.8,16.8c0,9.3,7.5,16.8,16.8,16.8c9.3,0,16.8-7.5,16.8-16.8
	C437.8,175.5,430.3,168,421,168z M430.9,188.1h-6.6v6.6h-6.6v-6.6h-6.5v-6.6h6.5v-6.6h6.6v6.6h6.6V188.1z"/>
<polygon points="393.9,506.5 393.9,449.7 412,449.7 411.9,506.5 402.9,520.6 "/>
<polygon class="st1" points="350.6,306.6 350.6,226.6 369,226.6 369,258.8 454.2,258.8 454.2,275.5 368.7,275.5 368.7,299.9 
	350.7,311.4 "/>
<path d="M410.4,415.4v-15.3h-43.5v-28.9c0,0,2-15.2,17.4-14.8c15.4,0.4,16.6,14.7,16.6,14.7v22.7l53.3-34v-19.4l-38.9,24.7
	c0,0-8.2-24.3-31.5-24.7c-23.3-0.4-32.9,19.3-33.9,28.6c-1,9.3-0.5,46.4-0.5,46.4h9.1h34.6H410.4z"/>
<path class="st2" d="M429,81.7l-8-8.6l-8,8.6c-30.6,32.8-48.3,73.8-62.4,119.9l25.1,0c12-39.2,20.8-62.5,45.4-91.4
	c24.6,28.9,33.4,52.3,45.4,91.4l25.1,0C477.4,155.4,459.7,114.5,429,81.7z"/>
<path class="st2" d="M469.7,506.1h1.9v13.6h8.3V507h1.9v12.7h9V506h1.9v15.9h-22.9V506.1z"/>
<path class="st2" d="M469.7,492.8c0-1,0.1-2,0.4-2.8c0.3-0.8,0.7-1.5,1.3-2.1c0.6-0.6,1.3-1.1,2.1-1.4c0.8-0.3,1.7-0.5,2.8-0.5
	c1,0,1.9,0.2,2.8,0.5s1.5,0.8,2.1,1.4c0.6,0.6,1,1.3,1.3,2.1c0.3,0.8,0.4,1.8,0.4,2.8v8h9.8v2.2h-22.9V492.8z M480.9,493.2
	c0-1.5-0.4-2.7-1.2-3.7c-0.8-0.9-1.9-1.4-3.5-1.4c-1.6,0-2.8,0.5-3.5,1.4c-0.8,0.9-1.2,2.2-1.2,3.7v7.5h9.3V493.2z"/>
<path class="st2" d="M469.7,468.2h1.9v12.3h8.3v-11h1.9v11h10.9v2.2h-22.9V468.2z"/>
<path class="st2" d="M469.7,463.4h21v-12.8h1.9v15h-22.9V463.4z"/>
<path d="M469.7,429c0-0.9,0.1-1.8,0.4-2.7c0.2-0.8,0.6-1.6,1.1-2.2c0.5-0.6,1.1-1.1,1.9-1.5c0.8-0.4,1.6-0.6,2.7-0.6
	c1.5,0,2.7,0.4,3.8,1.1s1.7,1.9,2,3.3h0.1c0.1-0.7,0.3-1.4,0.6-1.9c0.3-0.5,0.7-0.9,1.1-1.2c0.4-0.3,1-0.5,1.6-0.7
	c0.6-0.1,1.2-0.2,1.9-0.3c0.4,0,0.9,0,1.4-0.1c0.6,0,1.1-0.1,1.7-0.1c0.6-0.1,1.1-0.2,1.6-0.3c0.5-0.1,0.9-0.3,1.2-0.6v2.4
	c-0.2,0.1-0.5,0.2-0.8,0.3c-0.3,0.1-0.6,0.1-1,0.2c-0.3,0-0.7,0.1-1,0.1c-0.3,0-0.6,0-0.8,0.1c-0.8,0-1.6,0.1-2.4,0.2
	c-0.8,0.1-1.5,0.3-2.1,0.6c-0.6,0.3-1.1,0.8-1.5,1.3c-0.4,0.6-0.6,1.4-0.5,2.4v8.3h10.2v2.2h-22.9V429z M480.5,429.1
	c0-0.7-0.1-1.3-0.3-1.9c-0.2-0.6-0.5-1.1-0.9-1.6s-0.8-0.8-1.4-1.1c-0.5-0.3-1.2-0.4-1.9-0.4c-1.4,0-2.5,0.4-3.3,1.2
	c-0.8,0.8-1.2,2.1-1.2,3.7v8.1h9V429.1z"/>
<path d="M476.6,418.6c-1.4-0.4-2.7-1.1-3.8-2c-1.1-0.9-2-2-2.6-3.4c-0.7-1.4-1-2.9-1-4.7s0.3-3.4,1-4.7c0.7-1.3,1.5-2.5,2.6-3.4
	c1.1-0.9,2.4-1.6,3.8-2c1.4-0.4,2.9-0.7,4.5-0.7c1.6,0,3.1,0.2,4.5,0.7c1.4,0.4,2.7,1.1,3.8,2c1.1,0.9,2,2,2.6,3.4
	c0.7,1.3,1,2.9,1,4.7s-0.3,3.4-1,4.7c-0.7,1.4-1.5,2.5-2.6,3.4c-1.1,0.9-2.3,1.6-3.8,2c-1.4,0.4-2.9,0.7-4.5,0.7
	C479.5,419.3,478,419.1,476.6,418.6z M484.8,416.6c1.2-0.3,2.3-0.8,3.2-1.5c1-0.7,1.7-1.6,2.3-2.7c0.6-1.1,0.9-2.4,0.9-3.9
	c0-1.5-0.3-2.8-0.9-3.9c-0.6-1.1-1.3-2-2.3-2.7c-0.9-0.7-2-1.2-3.2-1.5c-1.2-0.3-2.4-0.5-3.7-0.5c-1.3,0-2.5,0.2-3.7,0.5
	c-1.2,0.3-2.3,0.8-3.2,1.5c-0.9,0.7-1.7,1.6-2.3,2.7c-0.6,1.1-0.9,2.4-0.9,3.9c0,1.5,0.3,2.8,0.9,3.9c0.6,1.1,1.3,2,2.3,2.7
	c0.9,0.7,2,1.2,3.2,1.5c1.2,0.3,2.4,0.5,3.7,0.5C482.4,417.1,483.6,417,484.8,416.6z"/>
<path d="M474.3,378.6c-0.7,0.4-1.3,1-1.7,1.6c-0.5,0.6-0.8,1.3-1.1,2.1c-0.2,0.8-0.4,1.6-0.4,2.4c0,1.5,0.3,2.8,0.9,3.9
	c0.6,1.1,1.3,2,2.3,2.7s2,1.2,3.2,1.5c1.2,0.3,2.4,0.5,3.7,0.5c1.2,0,2.5-0.2,3.7-0.5c1.2-0.3,2.3-0.8,3.2-1.5
	c1-0.7,1.7-1.6,2.3-2.7c0.6-1.1,0.9-2.4,0.9-3.9c0-1.1-0.2-2-0.6-2.9c-0.4-0.9-0.9-1.6-1.6-2.2c-0.7-0.6-1.4-1.1-2.3-1.5
	c-0.9-0.4-1.8-0.6-2.9-0.7v-2.2c1.4,0.2,2.7,0.5,3.8,1c1.1,0.5,2.1,1.2,2.9,2c0.8,0.8,1.4,1.8,1.8,2.9c0.4,1.1,0.6,2.3,0.6,3.7
	c0,1.8-0.3,3.4-1,4.7c-0.7,1.4-1.5,2.5-2.6,3.4c-1.1,0.9-2.3,1.6-3.8,2c-1.4,0.4-2.9,0.7-4.5,0.7c-1.6,0-3.1-0.2-4.5-0.7
	c-1.4-0.4-2.7-1.1-3.8-2c-1.1-0.9-2-2-2.6-3.4c-0.7-1.4-1-2.9-1-4.7c0-1.1,0.2-2.1,0.5-3.2c0.3-1,0.8-2,1.4-2.8
	c0.6-0.8,1.4-1.5,2.3-2.1c0.9-0.6,2-0.9,3.2-1.1v2.2C475.7,377.9,475,378.2,474.3,378.6z"/>
<path d="M469.7,369.7H482l-12.3-13.3v-2.9l9.4,10.2l13.4-10.7v2.8l-11.9,9.5l4.1,4.4h7.8v2.2h-22.9V369.7z"/>
<path d="M469.7,335.3h1.9v13.6h8.3v-12.7h1.9v12.7h9v-13.8h1.9v15.9h-22.9V335.3z"/>
<path d="M469.7,316.4h1.9v8h21v2.2h-21v7.9h-1.9V316.4z"/>
<path d="M469.7,289.7h1.9v8h21v2.2h-21v7.9h-1.9V289.7z"/>
<path d="M469.7,271.8h1.9v13.6h8.3v-12.7h1.9v12.7h9v-13.8h1.9v15.9h-22.9V271.8z"/>
<path d="M469.7,259.5l22.9-9v2.3l-7.1,2.8V266l7.1,2.8v2.3l-22.9-9.2V259.5z M483.6,256.4l-11.7,4.4l11.7,4.6V256.4z"/>
<path d="M469.7,245.3l20-7.6l-20-7.9v-3.2h22.9v2.2h-19.8v0.1l19.8,7.8v2l-19.8,7.5v0.1h19.8v2.2h-22.9V245.3z"/>
</svg>
