<?xml version="1.0" encoding="UTF-8"?>
<svg xmlns="http://www.w3.org/2000/svg" width="130" height="40" viewBox="0 0 130 40" fill="none">
  <g clip-path="url(#clip0_608_447)">
    <path d="M0.00537109 4.28546H2.27309V1.94433H7.61206V0H0.00537109V4.28546Z" fill="#FF0000"></path>
    <path d="M0.00537109 10.5147H7.61206V8.57038H2.27309V6.22925H0.00537109V10.5147Z" fill="#FF0000"></path>
    <path d="M7.1556 4.28589H2.27295V6.23022H7.1556V4.28589Z" fill="#FF0000"></path>
    <path d="M17.0701 0.966551C16.7475 0.656891 16.3636 0.418306 15.9431 0.266196C15.4019 0.0756753 14.8304 -0.014421 14.2567 0.000339138H9.55859V10.5156H11.8263V6.23013H14.2567C14.8277 6.24392 15.3964 6.15384 15.9352 5.96427C16.3585 5.81315 16.7452 5.57452 17.0701 5.26391C17.3523 4.98454 17.5685 4.64561 17.703 4.27191C17.9675 3.5262 17.9675 2.7122 17.703 1.96649C17.5691 1.59022 17.3528 1.24859 17.0701 0.966551ZM15.4828 3.71639C15.3665 3.87196 15.2121 3.99495 15.0345 4.07351C14.8278 4.16183 14.6092 4.21868 14.3857 4.24215C14.1315 4.27212 13.8758 4.2867 13.6199 4.2858H11.8263V1.94467H13.6218C13.8778 1.94377 14.1335 1.95834 14.3877 1.98832C14.6114 2.01142 14.8303 2.06897 15.0364 2.15894C15.2137 2.23637 15.3676 2.3588 15.4828 2.51408C15.6018 2.68919 15.6616 2.89776 15.6535 3.10928C15.6641 3.32482 15.6042 3.53797 15.4828 3.71639Z" fill="#FF0000"></path>
    <path d="M30.8507 8.57092V0H28.583V10.5152H36.1897V8.57092H30.8507Z" fill="#FF0000"></path>
    <path d="M19.3335 4.28546H21.6012V1.94433H26.9402V0H19.3335V4.28546Z" fill="#FF0000"></path>
    <path d="M21.6012 6.22925H19.3335V10.5147H21.6012V6.22925Z" fill="#FF0000"></path>
    <path d="M26.4837 4.28589H21.6011V6.23022H26.4837V4.28589Z" fill="#FF0000"></path>
  </g>
  <path d="M0 16.8247H7.60869V14.8804L0 14.8804V16.8247Z" fill="#FF0000"></path>
  <path d="M9.55859 39.6222L17.3427 18.7183H21.2059L29.0476 39.6222H25.0402L23.3969 34.9801H14.921L13.3065 39.6222H9.55859ZM19.1301 22.9568L15.9877 31.9238H22.3014L19.1301 22.9568Z" fill="#101828"></path>
  <path d="M33.9424 18.7183V39.6222H30.281V18.7183H33.9424Z" fill="#101828"></path>
  <path d="M57.4072 32.6735H60.9244C60.0307 37.3732 56.7441 39.997 51.9007 39.997C45.7887 39.997 42.2427 35.6721 42.2427 29.0982C42.2427 22.5243 45.9905 18.3435 52.0737 18.3435C56.7153 18.3435 60.0307 20.9673 60.8668 25.6671H57.3495C56.6864 22.8126 54.6972 21.3421 51.9583 21.3421C48.6429 21.3421 46.0194 24.0524 46.0194 29.0982C46.0194 34.1728 48.5852 36.9984 51.9295 36.9984C54.7837 36.9984 56.7441 35.5568 57.4072 32.6735Z" fill="#101828"></path>
  <path d="M77.393 32.8465H65.8323C66.0629 35.7298 68.081 37.1426 70.0414 37.1426C71.8577 37.1426 73.2415 36.4506 73.847 34.9801H77.2201C76.5281 37.4597 74.1641 39.997 70.1856 39.997C65.198 39.997 62.3438 36.2199 62.3438 31.7508C62.3438 27.0799 65.544 23.7641 69.9549 23.7641C74.7119 23.7641 77.7102 27.6565 77.393 32.8465ZM69.9549 26.4456C68.3405 26.4456 66.1494 27.4259 65.8323 30.338H73.9046C73.8181 27.916 71.973 26.4456 69.9549 26.4456Z" fill="#101828"></path>
  <path d="M82.7838 24.1101V26.2726C83.6775 24.6579 85.292 23.7641 87.483 23.7641C91.2309 23.7641 92.7589 26.1861 92.7589 29.8767V39.6222H89.3282V30.7128C89.3282 28.608 89.0399 26.5609 86.3875 26.5609C83.7352 26.5609 82.7838 28.5792 82.7838 31.376V39.6222H79.353V24.1101H82.7838Z" fill="#101828"></path>
  <path d="M95.9552 24.1101V20.0158H99.386V24.1101H102.5V26.5897H99.386V35.0378C99.386 36.6236 99.7607 36.9984 101.231 36.9984H102.471V39.6222H99.9337C96.6183 39.6222 95.9552 38.7284 95.9552 35.5568V26.5897H93.6488V24.1101H95.9552Z" fill="#101828"></path>
  <path d="M118.409 32.8465H106.848C107.079 35.7298 109.097 37.1426 111.058 37.1426C112.874 37.1426 114.258 36.4506 114.863 34.9801H118.236C117.544 37.4597 115.18 39.997 111.202 39.997C106.214 39.997 103.36 36.2199 103.36 31.7508C103.36 27.0799 106.56 23.7641 110.971 23.7641C115.728 23.7641 118.726 27.6565 118.409 32.8465ZM110.971 26.4456C109.357 26.4456 107.166 27.4259 106.848 30.338H114.921C114.834 27.916 112.989 26.4456 110.971 26.4456Z" fill="#101828"></path>
  <path d="M128.845 24.1389V27.5989C128.269 27.5412 127.721 27.5124 127.202 27.5124C125.04 27.5124 123.8 28.3774 123.8 31.4913V39.6222H120.369V24.1101H123.742V26.8781C124.578 25.1481 126.077 24.1101 127.951 24.0813C128.211 24.0813 128.586 24.1101 128.845 24.1389Z" fill="#101828"></path>
  <defs>
    <clipPath id="clip0_608_447">
      <rect width="36.1883" height="10.5152" fill="white" transform="translate(0.00537109)"></rect>
    </clipPath>
  </defs>
</svg>
