<?xml version="1.0" encoding="UTF-8"?>
<svg width="500" height="250" data-name="Calque 1" version="1.1" viewBox="0 0 500 250" xmlns="http://www.w3.org/2000/svg" xmlns:cc="http://creativecommons.org/ns#" xmlns:dc="http://purl.org/dc/elements/1.1/" xmlns:rdf="http://www.w3.org/1999/02/22-rdf-syntax-ns#">
 <defs>
  <style>.cls-1{fill:red;}</style>
 </defs>
 <title>Plan de travail 1</title>
 <g transform="translate(0,-125)" fill="#f00">
  <polygon class="cls-1" transform="translate(-55.09,118)" points="61.23 118.9 91.8 118.9 91.8 87.34 163.76 87.34 163.76 61.13 61.23 61.13"/>
  <polygon class="cls-1" transform="translate(-55.09,118)" points="61.23 202.87 163.76 202.87 163.76 176.66 91.8 176.66 91.8 145.1 61.23 145.1"/>
  <rect class="cls-1" x="36.71" y="236.9" width="65.81" height="26.2"/>
  <path class="cls-1" d="m236.01 192.15a42.7 42.7 0 0 0-15.19-9.44q-9.33-3.57-22.63-3.57h-63.28v141.73h30.57v-57.77h32.75q13.29 0 22.63-3.58a42.56 42.56 0 0 0 15.19-9.44 35.71 35.71 0 0 0 8.53-13.47 46.39 46.39 0 0 0 0-31.08 35.85 35.85 0 0 0-8.57-13.38zm-21.24 37.08a15 15 0 0 1-6.06 4.77 29.74 29.74 0 0 1-8.73 2.29 88.21 88.21 0 0 1-10.33 0.59h-24.21v-31.54h24.21a88.21 88.21 0 0 1 10.33 0.59 30.05 30.05 0 0 1 8.73 2.29 15.12 15.12 0 0 1 6.06 4.78 13.37 13.37 0 0 1 2.28 8.11 13.35 13.35 0 0 1-2.28 8.12z"/>
  <polygon class="cls-1" transform="translate(-55.09,118)" points="476.99 176.66 476.99 61.13 446.43 61.13 446.43 202.87 548.95 202.87 548.95 176.66"/>
  <polygon class="cls-1" transform="translate(-55.09,118)" points="321.76 118.9 352.33 118.9 352.33 87.34 424.29 87.34 424.29 61.13 321.76 61.13"/>
  <rect class="cls-1" x="266.67" y="263.1" width="30.57" height="57.76"/>
  <rect class="cls-1" x="297.24" y="236.9" width="65.81" height="26.2"/>
 </g>
 <metadata>
  <rdf:RDF>
   <cc:Work rdf:about="">
    <dc:title>Plan de travail 1</dc:title>
   </cc:Work>
  </rdf:RDF>
 </metadata>
</svg>
