<svg width="367" height="367" version="1.1" viewBox="0 0 367 367" xmlns="http://www.w3.org/2000/svg"><g transform="matrix(1.3333 0 0 -1.3333 .1815 220.68)"><g transform="scale(.1)" fill="#e91d3d"><path d="m292.58 444.95c29.86 0 54.067 24.203 54.067 54.067 0 29.855-24.207 54.062-54.067 54.062h-233.52c-32.621 0-59.062-26.441-59.062-59.062v-402.28c0-32.617 26.441-59.062 59.062-59.062s59.062 26.445 59.062 59.062v154.81h137.11c27.082 0 49.039 21.953 49.039 49.035s-21.957 49.035-49.039 49.035h-137.11v100.34h174.45"/><path d="m1857.5 553.08h-321.94c-29.86 0-54.07-24.207-54.07-54.062 0-29.864 24.21-54.067 54.07-54.067h101.91v-353.22c0-32.617 26.44-59.059 59.06-59.059 32.61 0 59.06 26.441 59.06 59.059v353.22h101.91c29.86 0 54.06 24.203 54.06 54.067 0 29.855-24.2 54.062-54.06 54.062"/><path d="m905.62 557.67c-32.617 0-59.058-26.441-59.058-59.059v-406.87c0-32.621 26.441-59.062 59.058-59.062s59.063 26.441 59.063 59.062v406.87c0 32.618-26.446 59.059-59.063 59.059"/><path d="m2027.2 557.67c-32.61 0-59.06-26.441-59.06-59.059v-406.87c0-32.621 26.45-59.062 59.06-59.062 32.62 0 59.06 26.441 59.06 59.062v406.87c0 32.618-26.44 59.059-59.06 59.059"/><path d="m484.95 228.42 60.961 148.2 60.965-148.2zm296.94-110-178.85 400.32h-0.098c-10.074 21.414-31.781 36.274-57.011 36.274-25.235 0-46.938-14.86-57.012-36.274h-0.133l-178.85-400.32c-13.137-29.992 0.527-64.957 30.519-78.09 29.996-13.137 64.957 0.5274 78.094 30.52l23.906 55.664h206.92l23.906-55.664c13.133-29.992 48.098-43.656 78.09-30.52 29.992 13.133 43.66 48.098 30.524 78.09"/><path d="m2711.3 38.477c-11.17-11.172-26.03-17.328-41.83-17.328-15.81 0-30.66 6.1563-42.18 17.668l-37.79 36.09-69.59 66.477-0.5 0.484c-5.7 5.809-9.97 12.617-12.83 19.992-2.62 6.746-4.08 13.961-4.08 21.418 0 15.805 6.15 30.661 17.33 41.836 11.17 11.172 26.03 17.328 41.83 17.328 4.37 0 8.66-0.519 12.84-1.445 10.92-2.422 21.01-7.898 29.34-16.223l64.83-61.918 42.63-40.714c11.17-11.172 17.33-26.028 17.33-41.832 0-15.801-6.16-30.656-17.33-41.832zm-277.03 104.81c-82.46 0-149.32 66.363-149.32 148.23 0 81.867 66.86 148.23 149.32 148.23 82.47 0 149.32-66.363 149.32-148.23 0-10.368-1.09-20.477-3.13-30.243-6.18 1.485-12.48 2.317-18.8 2.317-20.55 0-41.11-7.84-56.79-23.524-23.52-23.519-29.4-58.003-17.64-87.007-16.48-6.219-34.28-9.774-52.96-9.774zm291.98-6.187-47.65 45.515c15.06 33.25 23.51 70.086 23.51 108.9 0 146.84-119.92 265.89-267.84 265.89s-267.84-119.04-267.84-265.89c0-146.84 119.92-265.89 267.84-265.89 50.08 0 96.93 13.68 137.02 37.43l41.39-39.535c15.68-15.684 36.23-23.523 56.79-23.523 20.55 0 41.1 7.8398 56.78 23.523 31.37 31.363 31.37 82.211 0 113.57"/><path d="m2695.8 106.67c14.56-14.559 14.56-38.164 0-52.727-14.56-14.559-38.17-14.559-52.73 0-14.56 14.562-14.56 38.168 0 52.727 14.56 14.558 38.17 14.558 52.73 0"/><path d="m1265.9 285.79h-69.46v154.4h69.46c42.64 0 77.2-34.562 77.2-77.199s-34.56-77.199-77.2-77.199zm177.42-153.99c-3.36 3.363-7.1 6.078-10.99 8.453l-92.69 71.293c68.17 21.152 117.68 84.715 117.68 159.84 0 0.589-0.08 1.156-0.09 1.746 0.01 0.48 0.09 0.949 0.09 1.433 0 86.571-52.54 177.16-216.88 177.16h-103.07v-0.024c-31.71 0-57.5-25.004-58.92-56.363h-0.14v-404.97c0-32.621 26.44-59.062 59.06-59.062s59.06 26.441 59.06 59.062v93.805l164.06-135.21c22.87-22.871 59.96-22.871 82.83 0 22.87 22.875 22.87 59.961 0 82.836"/></g></g></svg>
