<?xml version="1.0" encoding="UTF-8" standalone="no"?>
<svg
   width="298"
   height="149"
   fill="none"
   viewBox="0 0 298 149"
   version="1.1"
   id="svg6"
   xmlns="http://www.w3.org/2000/svg"
   xmlns:svg="http://www.w3.org/2000/svg">
  <defs
     id="defs3">
    <linearGradient
       id="a"
       x1="0.85000098"
       x2="62.619999"
       y1="62.720001"
       y2="1.8099999"
       gradientUnits="userSpaceOnUse">
      <stop
         stop-color="#FF9419"
         id="stop1" />
      <stop
         offset=".43"
         stop-color="#FF021D"
         id="stop2" />
      <stop
         offset=".99"
         stop-color="#E600FF"
         id="stop3" />
    </linearGradient>
  </defs>
  <g
     id="g6"
     transform="translate(0,42.5)">
    <path
       fill="#000000"
       d="m 86.4844,40.5858 c 0,0.8464 -0.1792,1.5933 -0.5377,2.2505 -0.3585,0.6573 -0.8564,1.1651 -1.5137,1.5236 -0.6572,0.3585 -1.3941,0.5378 -2.2406,0.5378 H 78 v 6.1044 h 5.0787 c 1.912,0 3.6248,-0.4282 5.1484,-1.2846 1.5236,-0.8564 2.7186,-2.0415 3.585,-3.5452 0.8663,-1.5037 1.3045,-3.1966 1.3045,-5.0886 V 21.0178 H 86.4844 Z M 104.34,38.7634 h 13.891 V 33.1569 H 104.34 v -6.3633 h 15.355 V 21.0178 H 97.8766 V 50.9921 H 120.123 V 45.2164 H 104.34 Z m 17.865,-11.8005 h 8.882 v 24.0193 h 6.633 V 26.9629 h 8.842 v -5.9451 h -24.367 v 5.9551 z m 47.022,9.0022 c -0.517,-0.2788 -1.085,-0.4879 -1.673,-0.6472 0.449,-0.1295 0.877,-0.2888 1.275,-0.488 1.096,-0.5676 1.962,-1.3643 2.579,-2.39 0.618,-1.0257 0.936,-2.2007 0.936,-3.5351 0,-1.5237 -0.418,-2.8879 -1.244,-4.0929 -0.827,-1.195 -1.992,-2.131 -3.486,-2.8082 -1.494,-0.6672 -3.206,-1.0058 -5.118,-1.0058 h -13.315 v 29.9743 h 13.574 c 2.011,0 3.804,-0.3485 5.387,-1.0556 1.573,-0.707 2.798,-1.6829 3.675,-2.9476 0.866,-1.2547 1.304,-2.6887 1.304,-4.302 0,-1.4837 -0.338,-2.8082 -1.026,-3.9833 -0.687,-1.175 -1.633,-2.0812 -2.858,-2.7285 z m -13.603,-9.9184 h 5.886 c 0.816,0 1.533,0.1494 2.161,0.4382 0.627,0.2888 1.115,0.707 1.464,1.2547 0.348,0.5378 0.527,1.1751 0.527,1.9021 0,0.7269 -0.179,1.414 -0.527,1.9817 -0.349,0.5676 -0.837,0.9958 -1.464,1.3045 -0.628,0.3087 -1.345,0.4581 -2.161,0.4581 h -5.886 v -7.3492 z m 10.138,18.134 c -0.378,0.5676 -0.916,1.0058 -1.603,1.3145 -0.697,0.3087 -1.484,0.4581 -2.39,0.4581 h -6.145 v -7.6878 h 6.145 c 0.886,0 1.673,0.1693 2.37,0.4979 0.687,0.3286 1.235,0.7867 1.613,1.3842 0.378,0.5975 0.578,1.2747 0.578,2.0414 0,0.7668 -0.19,1.4241 -0.568,1.9917 z m 29.596,-5.3077 c 1.663,-0.7967 2.947,-1.922 3.864,-3.3659 0.916,-1.444 1.374,-3.117 1.374,-5.0289 0,-1.912 -0.448,-3.5253 -1.344,-4.9592 -0.897,-1.434 -2.171,-2.5394 -3.814,-3.3261 -1.644,-0.7867 -3.546,-1.1751 -5.717,-1.1751 h -13.124 v 29.9743 h 6.642 V 40.0779 h 4.322 l 6.084,10.9142 h 7.578 l -6.851,-11.7208 c 0.339,-0.1195 0.677,-0.249 0.996,-0.3983 z m -2.151,-6.1244 c -0.369,0.6274 -0.896,1.1154 -1.583,1.444 -0.688,0.3386 -1.494,0.5079 -2.42,0.5079 h -5.975 v -8.2953 h 5.975 c 0.926,0 1.732,0.1693 2.42,0.4979 0.687,0.3287 1.214,0.8166 1.583,1.434 0.368,0.6174 0.558,1.3544 0.558,2.1908 0,0.8365 -0.19,1.5734 -0.558,2.2008 z m 20.594,-11.7308 -10.706,29.9743 h 6.742 l 2.121,-6.6122 h 11.114 l 2.27,6.6122 h 6.612 L 220.99,21.0178 Z m -0.339,18.3431 3.445,-10.5756 0.409,-1.922 0.408,1.922 3.685,10.5756 z m 20.693,11.6312 h 6.851 V 21.0178 h -6.851 z m 31.02,-9.6993 -12.896,-20.275 h -6.463 v 29.9743 h 6.055 V 30.7172 l 12.826,20.2749 h 6.533 V 21.0178 h -6.055 z m 31.528,-3.3559 c -0.647,-1.2448 -1.564,-2.2904 -2.729,-3.1369 -1.165,-0.8464 -2.509,-1.4041 -4.023,-1.6929 l -5.098,-1.0456 c -0.797,-0.1892 -1.434,-0.5178 -1.902,-0.9958 -0.469,-0.478 -0.708,-1.0755 -0.708,-1.7825 0,-0.6473 0.17,-1.205 0.518,-1.683 0.339,-0.478 0.827,-0.8464 1.444,-1.1153 0.618,-0.2689 1.335,-0.3983 2.151,-0.3983 0.817,0 1.554,0.1394 2.181,0.4182 0.627,0.2788 1.115,0.6672 1.464,1.1751 0.349,0.5079 0.528,1.0755 0.528,1.7228 h 6.642 c -0.04,-1.7427 -0.528,-3.2863 -1.444,-4.6207 -0.916,-1.3443 -2.201,-2.3899 -3.834,-3.1468 -1.633,-0.7568 -3.505,-1.1352 -5.597,-1.1352 -2.091,0 -3.943,0.3884 -5.566,1.1751 -1.623,0.7867 -2.898,1.8721 -3.804,3.2663 -0.906,1.3941 -1.364,2.9775 -1.364,4.76 0,1.444 0.288,2.7485 0.876,3.9036 0.587,1.1652 1.414,2.1311 2.479,2.8979 1.076,0.7668 2.311,1.3045 3.725,1.6033 l 5.397,1.1153 c 0.886,0.2091 1.584,0.5975 2.101,1.1551 0.518,0.5577 0.767,1.2448 0.767,2.0813 0,0.6672 -0.189,1.2747 -0.567,1.8025 -0.379,0.5277 -0.907,0.936 -1.584,1.2248 -0.677,0.2888 -1.474,0.4282 -2.39,0.4282 -0.916,0 -1.782,-0.1593 -2.529,-0.478 -0.747,-0.3186 -1.325,-0.7767 -1.733,-1.3742 -0.418,-0.5875 -0.617,-1.2747 -0.617,-2.0414 h -6.642 c 0.029,1.8721 0.527,3.5152 1.513,4.9492 0.976,1.424 2.32,2.5394 4.033,3.336 1.713,0.7967 3.675,1.195 5.886,1.195 2.21,0 4.202,-0.4083 5.915,-1.2249 1.723,-0.8165 3.057,-1.9418 4.023,-3.3758 0.966,-1.434 1.444,-3.0572 1.444,-4.8696 0,-1.4838 -0.329,-2.848 -0.976,-4.1028 z"
       id="path3" />
    <path
       fill="url(#a)"
       d="M 20.34,3.66 3.66,20.34 C 1.32,22.68 0,25.86 0,29.18 V 59 c 0,2.76 2.24,5 5,5 h 29.82 c 3.32,0 6.49,-1.32 8.84,-3.66 L 60.34,43.66 C 62.68,41.32 64,38.14 64,34.82 V 5 C 64,2.24 61.76,0 59,0 H 29.18 c -3.32,0 -6.49,1.32 -8.84,3.66 z"
       id="path4"
       style="fill:url(#a)" />
    <path
       fill="#000000"
       d="M 48,16 H 8 v 40 h 40 z"
       id="path5" />
    <path
       fill="#ffffff"
       d="M 30,47 H 13 v 4 h 17 z"
       id="path6" />
  </g>
</svg>
