<svg width="525" height="525" version="1.1" viewBox="0 0 525 525" xmlns="http://www.w3.org/2000/svg"><g transform="matrix(1.3333 0 0 -1.3333 .36988 319.25)"><g transform="scale(.1)"><g fill="#233266"><path d="m625.73 571.17c0 11.34 6.297 17.641 17.645 17.641h18.059c11.765 0 17.644-6.301 17.644-17.641v-141.99h26.465l44.531 63.851c5.039 8.403 11.34 11.766 20.996 11.766h20.168c14.285 0 18.907-9.664 10.926-21.008l-53.348-74.769v-0.84l63.008-96.617c7.137-12.176 2.52-21.004-11.769-21.004h-22.676c-9.668 0-15.965 3.777-20.586 12.183l-49.988 81.492h-27.727v-76.031c0-11.769-5.879-17.644-17.644-17.644h-18.059c-11.348 0-17.645 5.875-17.645 17.644v262.96"/><path d="m835.31 487.15c0 11.34 5.879 17.645 17.226 17.645h16.379c11.348 0 17.227-6.305 17.227-17.645v-13.019c0-4.625-0.84-9.664-0.84-9.664h0.84c9.238 18.058 32.761 45.367 76.035 45.367 47.464 0 74.764-24.785 74.764-81.496v-120.14c0-11.769-5.88-17.644-17.64-17.644h-18.06c-11.342 0-17.65 5.875-17.65 17.644v109.22c0 26.043-6.719 43.691-33.602 43.691-37.804 0-61.75-31.507-61.75-70.156v-82.75c0-11.769-5.879-17.644-17.226-17.644h-18.477c-11.347 0-17.226 5.875-17.226 17.644v178.95"/><path d="m1184.8 330.88c34.87 0 63.85 26.887 63.85 66.793 0 39.488-28.98 66.793-63.85 66.793-34.86 0-63.43-27.305-63.43-66.793 0-39.906 28.57-66.793 63.43-66.793zm0 178.95c65.11 0 118.04-46.629 118.04-112.16 0-65.953-52.93-112.16-118.04-112.16s-117.62 46.203-117.62 112.16c0 65.531 52.51 112.16 117.62 112.16"/><path d="m1308.2 485.05c-3.36 11.762 2.52 19.746 14.71 19.746h20.16c10.5 0 16.8-5.039 18.9-15.543l34.45-125.19c2.52-11.336 4.2-22.679 4.2-22.679h0.84s1.68 11.343 4.62 22.679l36.12 125.19c2.1 10.082 8.83 15.121 19.33 15.121h15.97c10.49 0 16.79-5.039 19.31-15.121l35.72-125.19c3.36-11.336 4.62-22.679 4.62-22.679h0.83s1.68 11.343 4.62 22.679l34.03 125.19c2.52 10.504 8.83 15.543 19.32 15.543h19.33c12.6 0 18.06-7.984 14.7-19.746l-55.03-179.78c-2.94-10.09-9.66-14.707-19.74-14.707h-28.15c-10.5 0-17.22 5.039-19.74 15.125l-32.34 107.11c-3.37 11.344-5.05 23.105-5.05 23.105h-0.84s-2.1-11.761-5.46-23.105l-32.34-107.11c-2.52-10.086-8.82-15.125-19.33-15.125h-28.98c-10.08 0-16.38 4.617-19.33 14.707l-55.45 179.78"/><path d="m1656.8 571.17c0 11.34 5.88 17.641 17.23 17.641h18.48c11.34 0 17.22-6.301 17.22-17.641v-209.62c0-21 8.82-24.785 16.81-25.625 7.56-0.84 13.02-5.457 13.02-15.121v-14.278c0-10.925-5.04-18.066-17.65-18.066-28.56 0-65.11 7.559-65.11 68.891v213.82"/><path d="m1908 422.04c-0.83 29.82-18.9 47.465-43.26 47.465-27.31 0-46.63-18.903-51.67-47.465zm-42 87.793c60.91 0 94.93-43.27 94.93-102.08 0-9.242-7.97-18.067-18.48-18.067h-130.64c3.36-38.644 31.93-58.808 64.27-58.808 19.75 0 36.12 7.562 46.21 13.863 10.5 5.039 18.06 3.777 23.53-5.879l5.04-8.402c5.04-9.664 3.36-18.063-5.89-23.524-13.86-8.816-39.06-21.421-72.67-21.421-70.99 0-115.1 51.242-115.1 112.16 0 65.953 44.53 112.16 108.8 112.16"/><path d="m2089.8 330.46c27.74 0 53.78 20.16 53.78 67.633 0 33.179-17.22 65.949-53.35 65.949-28.99 0-53.77-23.945-53.77-66.371 0-40.746 21.84-67.211 53.34-67.211zm-10.08 179.37c47.06 0 62.6-30.664 62.6-30.664h0.84s-0.84 5.457-0.84 12.18v79.816c0 11.34 5.88 17.641 17.22 17.641h18.49c11.34 0 17.22-6.301 17.22-17.641v-262.96c0-11.769-5.88-17.644-17.22-17.644h-15.55c-11.34 0-17.22 5.457-17.22 15.964v8.399c0 4.199 0.84 7.558 0.84 7.558h-0.84s-18.06-36.96-67.22-36.96c-57.97 0-95.35 45.785-95.35 112.16 0 68.051 40.32 112.16 97.03 112.16"/><path d="m2383 402.3c0 49.148-24.37 62.172-52.09 62.172-33.18 0-51.24-23.528-51.24-58.809 0-38.648 19.32-65.953 53.77-65.953 25.19 0 49.56 14.703 49.56 62.59zm-105.02-146.61c10.09-3.777 23.53-7.976 43.27-7.976 32.77 0 60.49 13.855 60.49 52.09v15.957c0 5.039 0.84 10.922 0.84 10.922h-0.84c-11.76-20.161-30.24-31.926-58.81-31.926-62.59 0-97.03 49.566-97.03 108.8 0 58.394 32.76 106.28 96.61 106.28 49.99 0 63.43-32.766 63.43-32.766h0.85s-0.42 2.102-0.42 5.457v7.985c0 7.98 5.88 14.285 17.22 14.285h14.28c11.34 0 17.22-6.305 17.22-17.645v-183.57c0-73.52-57.97-101.24-110.9-101.24-23.94 0-47.89 5.039-62.59 11.34-10.92 4.625-13.86 11.765-9.24 22.683l3.36 9.668c4.62 10.496 10.92 13.438 22.26 9.656"/><path d="m2615.3 422.04c-0.84 29.82-18.91 47.465-43.27 47.465-27.31 0-46.63-18.903-51.67-47.465zm-42.01 87.793c60.91 0 94.93-43.27 94.93-102.08 0-9.242-7.97-18.067-18.48-18.067h-130.64c3.36-38.644 31.93-58.808 64.27-58.808 19.75 0 36.12 7.562 46.21 13.863 10.5 5.039 18.06 3.777 23.53-5.879l5.04-8.402c5.04-9.664 3.36-18.063-5.89-23.524-13.86-8.816-39.06-21.421-72.67-21.421-70.99 0-115.1 51.242-115.1 112.16 0 65.953 44.53 112.16 108.8 112.16"/><path d="m2924.4 422.04c-0.84 29.82-18.91 47.465-43.27 47.465-27.31 0-46.63-18.903-51.67-47.465zm-42.01 87.793c60.91 0 94.94-43.27 94.94-102.08 0-9.242-7.98-18.067-18.49-18.067h-130.63c3.35-38.644 31.92-58.808 64.26-58.808 19.75 0 36.13 7.562 46.21 13.863 10.5 5.039 18.06 3.777 23.53-5.879l5.04-8.402c5.04-9.664 3.36-18.063-5.89-23.524-13.86-8.816-39.06-21.421-72.67-21.421-70.99 0-115.1 51.242-115.1 112.16 0 65.953 44.53 112.16 108.8 112.16"/><path d="m3053.7 398.93-55.45 84.855c-7.99 11.762-2.94 21.008 11.34 21.008h21.43c9.65 0 15.95-4.199 20.58-12.606l26.89-45.785c2.94-5.465 6.72-13.441 6.72-13.441h0.84s4.2 7.976 6.71 13.441l26.89 45.785c4.62 8.407 10.93 12.606 20.59 12.606h21.42c14.28 0 19.32-9.246 11.34-21.008l-55.03-84.855 57.13-87.371c7.57-11.758 2.52-21.004-11.76-21.004h-20.17c-9.65 0-15.96 3.777-20.58 12.183l-30.67 49.988c-2.51 4.618-5.87 11.336-5.87 11.336h-0.84s-2.94-6.718-5.88-11.336l-30.25-49.988c-5.05-8.406-11.34-12.183-20.58-12.183h-20.59c-14.29 0-19.32 9.246-11.34 21.004l57.13 87.371"/><path d="m3304.9 330.46c29.41 0 53.77 23.945 53.77 66.371 0 40.746-21.84 67.211-52.93 67.211-27.72 0-54.19-20.164-54.19-67.629 0-33.191 18.49-65.953 53.35-65.953zm-105.02 156.69c0 11.34 6.3 17.645 17.65 17.645h13.44c11.35 0 17.23-6.305 17.23-14.703v-9.664c0-4.621-0.42-8.399-0.42-8.399h0.84s18.89 37.805 68.88 37.805c57.98 0 95.36-45.789 95.36-112.16 0-68.051-42.01-112.16-98.3-112.16-44.52 0-61.75 32.761-61.75 32.761h-0.84s1.26-7.558 1.26-18.476v-75.617c0-11.766-5.87-17.645-17.64-17.645h-18.06c-11.35 0-17.65 5.879-17.65 17.645v262.96"/><path d="m3578.3 422.04c-0.84 29.82-18.9 47.465-43.26 47.465-27.31 0-46.63-18.903-51.67-47.465zm-42 87.793c60.91 0 94.93-43.27 94.93-102.08 0-9.242-7.98-18.067-18.48-18.067h-130.64c3.36-38.644 31.92-58.808 64.27-58.808 19.74 0 36.12 7.562 46.21 13.863 10.5 5.039 18.06 3.777 23.52-5.879l5.04-8.402c5.04-9.664 3.36-18.063-5.88-23.524-13.86-8.816-39.07-21.421-72.67-21.421-71 0-115.1 51.242-115.1 112.16 0 65.953 44.52 112.16 108.8 112.16"/><path d="m3655.2 487.15c0 11.34 5.88 17.645 17.22 17.645h16.38c11.35 0 17.65-6.305 17.65-17.645v-20.164c0-7.98-1.26-14.703-1.26-14.703h0.84c8.4 25.625 31.92 54.192 62.17 54.192 11.76 0 15.96-5.879 15.96-17.645v-16.383c0-11.34-6.72-17.644-18.06-17.644-39.07 0-57.97-38.649-57.97-77.715v-68.887c0-11.769-5.88-17.644-17.23-17.644h-18.48c-11.34 0-17.22 5.875-17.22 17.644v178.95"/><path d="m3826.5 459.43h-11.34c-11.34 0-17.23 5.879-17.23 17.64v7.141c0 11.34 5.89 17.644 17.65 17.644h12.18v43.688c0 11.344 6.3 17.641 17.64 17.641h16.81c11.34 0 17.64-6.297 17.64-17.641v-43.688h31.09c11.34 0 17.64-6.304 17.64-17.644v-7.141c0-11.761-6.3-17.64-17.22-17.64h-31.51v-83.18c0-31.926 19.74-38.223 34.45-39.906 13.02-1.262 17.64-5.461 17.64-17.223v-13.019c0-12.606-7.14-17.645-21.84-17.645-38.23 0-83.6 20.586-83.6 78.555v92.418"/><path d="m61.922 458.91-57.027 15.278c-6.6992-32.793-6.5117-66.684 0.51953-99.422l64.992 17.418c-6.504 21.703-9.3165 44.265-8.4844 66.726"/><path d="m79.34 368.13-67.246-18.016c10.176-30.953 26.719-60.269 49.75-85.828l51.258 51.262c-14.208 16.07-25.454 33.828-33.762 52.582"/><path d="m121.82 596.31c14.891 14.882 31.497 26.988 49.176 36.343l-5.89 21.993c-31.25-10.368-60.809-27.266-86.504-50.762l26.527-26.528c5.133 6.563 10.652 12.915 16.691 18.954"/><path d="m90.418 555.94-29.742 29.746c-22.977-25.887-39.402-55.524-49.332-86.789l53.176-14.247c4.0703 24.821 12.676 49.04 25.898 71.29"/><path d="m288.64 655.2 1.797 6.703c-33.204 6.879-67.555 6.696-100.7-0.515l4.868-18.16c30.14 11.328 62.398 15.332 94.039 11.972"/><path d="m371.55 274.8c-22.25-13.223-46.477-21.828-71.293-25.899l14.246-53.176c31.266 9.934 60.902 26.36 86.789 49.336l-29.742 29.739"/><path d="m411.92 306.21c-6.043-6.035-12.395-11.563-18.957-16.699l26.527-26.524c23.496 25.703 40.399 55.25 50.762 86.504l-21.992 5.895c-9.352-17.684-21.457-34.293-36.34-49.176"/><path d="m207.79 254.8-17.41-64.992c32.734-7.032 66.625-7.215 99.414-0.52l-15.277 57.024c-22.457-0.832-45.024 1.984-66.727 8.488"/><path d="m458.84 378.99 18.152-4.863c7.219 33.145 7.399 67.496 0.524 100.7l-6.703-1.797c3.351-31.64-0.653-63.89-11.973-94.035"/><path d="m131.16 297.49-51.262-51.258c25.567-23.039 54.879-39.582 85.829-49.746l18.019 67.246c-18.754 8.301-36.512 19.551-52.586 33.758"/></g><g fill="#789bd7"><path d="m407.34 429.27 43.406-11.632c5.106 24.961 4.957 50.761-0.394 75.683l-49.473-13.258c4.953-16.519 7.09-33.699 6.461-50.793"/><path d="m394.07 498.37 51.192 13.719c-7.746 23.559-20.34 45.875-37.871 65.332l-39.02-39.02c10.816-12.23 19.375-25.753 25.699-40.031"/><path d="m361.74 324.68c-11.332-11.332-23.972-20.551-37.429-27.672l4.484-16.739c23.793 7.891 46.285 20.762 65.848 38.645l-20.196 20.191c-3.902-5-8.109-9.832-12.707-14.425"/><path d="m385.64 355.41 22.64-22.64c17.492 19.703 29.996 42.265 37.555 66.062l-40.477 10.848c-3.101-18.899-9.648-37.332-19.718-54.27"/><path d="m234.75 279.85-1.367-5.106c25.277-5.234 51.426-5.09 76.656 0.399l-3.703 13.82c-22.949-8.621-47.5-11.668-71.586-9.113"/><path d="m171.64 569.41c16.937 10.063 35.375 16.61 54.265 19.711l-10.844 40.477c-23.8-7.559-46.359-20.059-66.058-37.551l22.637-22.637"/><path d="m140.91 545.5c4.602 4.598 9.434 8.805 14.43 12.711l-20.196 20.191c-17.886-19.562-30.746-42.058-38.636-65.847l16.738-4.489c7.117 13.461 16.336 26.106 27.664 37.434"/><path d="m296.3 584.64 13.258 49.48c-24.918 5.352-50.719 5.492-75.68 0.395l11.637-43.414c17.093 0.636 34.265-1.504 50.785-6.461"/><path d="m105.2 490.1-13.824 3.707c-5.4883-25.231-5.6289-51.375-0.3945-76.653l5.1054 1.367c-2.5585 24.09 0.4883 48.633 9.1132 71.579"/><path d="m354.62 552.14 39.023 39.023c-19.457 17.527-41.769 30.121-65.332 37.863l-13.714-51.191c14.277-6.32 27.793-14.879 40.023-25.695"/></g></g></g></svg>
