<svg xmlns:rdf="http://www.w3.org/1999/02/22-rdf-syntax-ns#" xmlns="http://www.w3.org/2000/svg" xml:space="preserve" height="800" width="800" version="1.1" xmlns:cc="http://creativecommons.org/ns#" xmlns:dc="http://purl.org/dc/elements/1.1/" viewBox="0 0 799.99999 800"><g transform="matrix(1.3333 0 0 -1.3333 8.2993 599.36)"><g fill="#100f0d" transform="scale(.1)"><path d="m141.9 2242.2h-141.9v-1616.8h1051.4v132.61h-909.45v1484.3"/><path d="m4166.8 1160.8h-301.7l-284.69 603.49 150.82 319.72 0.06 0.13 0.06-0.13zm-3007.7-867.72 252.7 364.27c146.52-119.4 335.76-188.06 558.59-188.06 651.47 0 834.81 469.91 834.81 679.09h-118.52-141.93-122.19c0-57.87-94.96-323.13-452.17-323.13-143.14 0-261.11 48.57-349.02 134.29l673.94 971.72c82.82-72.81 101.27-159.16 101.27-172.91h382.54c0 115.41-70.72 329.86-272.91 476.99l492.01 709.4 423.38-897.57-711.52-1519.5h393.24l173.28 369.69h687.36l410.98-871.25zm177.42 1136.6c0 394.51 270.9 725.84 628.13 725.84 158.45 0 288.4-43.94 382.09-109.85l-813.1-1172.4c-115.86 114.37-197.09 292.81-197.09 556.44zm2106.9-176.3 175.37 375.64 177.23-375.64zm205.37 988.8-146.58-312.27-491.76 1042.5-8.44 17.95-575.49-829.75c-93.84 64.18-241.48 128.73-456.15 128.73-434.98 0-775.72-364.1-775.72-859.7 0-324.07 108.92-537.85 259.49-671.07l-325.1-468.75-11.3-16.31 3275.1-271.91 19.8-1.63-484.98 1028.2h301.7l189.96-402.8h153.32l-758.89 1616.9h-164.92"/><path d="m5722.2 2242.2-623.71-1451.8-0.06-0.129-0.06 0.129-623.69 1451.8h-153.32l694.63-1616.9h164.9l694.63 1616.9h-153.32"/></g></g></svg>
