<?xml version="1.0" encoding="UTF-8" standalone="no"?>
<!-- Created with Inkscape (http://www.inkscape.org/) -->

<svg
   version="1.1"
   id="svg1"
   width="1122.52"
   height="391.04532"
   viewBox="0 0 1122.52 391.04532"
   xmlns="http://www.w3.org/2000/svg"
   xmlns:svg="http://www.w3.org/2000/svg">
  <defs
     id="defs1">
    <clipPath
       clipPathUnits="userSpaceOnUse"
       id="clipPath2">
      <path
         d="M 0,293.284 H 841.89 V 0 H 0 Z"
         transform="translate(-397.17221,-249.82651)"
         id="path2" />
    </clipPath>
    <clipPath
       clipPathUnits="userSpaceOnUse"
       id="clipPath4">
      <path
         d="M 0,293.284 H 841.89 V 0 H 0 Z"
         transform="translate(-397.17221,-249.82651)"
         id="path4" />
    </clipPath>
    <clipPath
       clipPathUnits="userSpaceOnUse"
       id="clipPath6">
      <path
         d="M 0,293.284 H 841.89 V 0 H 0 Z"
         transform="translate(-400.01111,-205.4027)"
         id="path6" />
    </clipPath>
    <clipPath
       clipPathUnits="userSpaceOnUse"
       id="clipPath8">
      <path
         d="M 0,293.284 H 841.89 V 0 H 0 Z"
         transform="translate(-400.01111,-205.4027)"
         id="path8" />
    </clipPath>
    <clipPath
       clipPathUnits="userSpaceOnUse"
       id="clipPath10">
      <path
         d="M 0,293.284 H 841.89 V 0 H 0 Z"
         transform="translate(-426.36751,-194.81341)"
         id="path10" />
    </clipPath>
    <clipPath
       clipPathUnits="userSpaceOnUse"
       id="clipPath12">
      <path
         d="M 0,293.284 H 841.89 V 0 H 0 Z"
         transform="translate(-426.36751,-194.81341)"
         id="path12" />
    </clipPath>
    <clipPath
       clipPathUnits="userSpaceOnUse"
       id="clipPath14">
      <path
         d="M 0,293.284 H 841.89 V 0 H 0 Z"
         transform="translate(-474.72101,-205.9193)"
         id="path14" />
    </clipPath>
    <clipPath
       clipPathUnits="userSpaceOnUse"
       id="clipPath16">
      <path
         d="M 0,293.284 H 841.89 V 0 H 0 Z"
         transform="translate(-474.72101,-205.9193)"
         id="path16" />
    </clipPath>
    <clipPath
       clipPathUnits="userSpaceOnUse"
       id="clipPath18">
      <path
         d="M 0,293.284 H 841.89 V 0 H 0 Z"
         transform="translate(-523.86941,-228.00231)"
         id="path18" />
    </clipPath>
    <clipPath
       clipPathUnits="userSpaceOnUse"
       id="clipPath20">
      <path
         d="M 0,293.284 H 841.89 V 0 H 0 Z"
         transform="translate(-523.86941,-228.00231)"
         id="path20" />
    </clipPath>
    <clipPath
       clipPathUnits="userSpaceOnUse"
       id="clipPath22">
      <path
         d="M 0,293.284 H 841.89 V 0 H 0 Z"
         transform="translate(-578.66051,-190.87441)"
         id="path22" />
    </clipPath>
    <clipPath
       clipPathUnits="userSpaceOnUse"
       id="clipPath24">
      <path
         d="M 0,293.284 H 841.89 V 0 H 0 Z"
         transform="translate(-578.66051,-190.87441)"
         id="path24" />
    </clipPath>
    <clipPath
       clipPathUnits="userSpaceOnUse"
       id="clipPath26">
      <path
         d="M 0,293.284 H 841.89 V 0 H 0 Z"
         transform="translate(-634.83722,-205.4027)"
         id="path26" />
    </clipPath>
    <clipPath
       clipPathUnits="userSpaceOnUse"
       id="clipPath28">
      <path
         d="M 0,293.284 H 841.89 V 0 H 0 Z"
         transform="translate(-634.83722,-205.4027)"
         id="path28" />
    </clipPath>
    <clipPath
       clipPathUnits="userSpaceOnUse"
       id="clipPath30">
      <path
         d="M 0,293.284 H 841.89 V 0 H 0 Z"
         transform="translate(-662.70932,-190.55161)"
         id="path30" />
    </clipPath>
    <clipPath
       clipPathUnits="userSpaceOnUse"
       id="clipPath32">
      <path
         d="M 0,293.284 H 841.89 V 0 H 0 Z"
         transform="translate(-662.70932,-190.55161)"
         id="path32" />
    </clipPath>
    <clipPath
       clipPathUnits="userSpaceOnUse"
       id="clipPath34">
      <path
         d="M 0,293.284 H 841.89 V 0 H 0 Z"
         transform="translate(-706.97492,-217.60631)"
         id="path34" />
    </clipPath>
    <clipPath
       clipPathUnits="userSpaceOnUse"
       id="clipPath36">
      <path
         d="M 0,293.284 H 841.89 V 0 H 0 Z"
         transform="translate(-706.97492,-217.60631)"
         id="path36" />
    </clipPath>
    <clipPath
       clipPathUnits="userSpaceOnUse"
       id="clipPath38">
      <path
         d="M 0,293.284 H 841.89 V 0 H 0 Z"
         transform="translate(-725.11362,-194.81341)"
         id="path38" />
    </clipPath>
    <clipPath
       clipPathUnits="userSpaceOnUse"
       id="clipPath40">
      <path
         d="M 0,293.284 H 841.89 V 0 H 0 Z"
         transform="translate(-725.11362,-194.81341)"
         id="path40" />
    </clipPath>
    <clipPath
       clipPathUnits="userSpaceOnUse"
       id="clipPath42">
      <path
         d="M 0,293.284 H 841.89 V 0 H 0 Z"
         transform="translate(-783.65072,-206.11321)"
         id="path42" />
    </clipPath>
    <clipPath
       clipPathUnits="userSpaceOnUse"
       id="clipPath44">
      <path
         d="M 0,293.284 H 841.89 V 0 H 0 Z"
         id="path44" />
    </clipPath>
    <clipPath
       clipPathUnits="userSpaceOnUse"
       id="clipPath46">
      <path
         d="M 0,293.284 H 841.89 V 0 H 0 Z"
         transform="translate(-170.557,-71.684404)"
         id="path46" />
    </clipPath>
    <clipPath
       clipPathUnits="userSpaceOnUse"
       id="clipPath48">
      <path
         d="M 0,293.284 H 841.89 V 0 H 0 Z"
         transform="translate(-170.557,-230.86361)"
         id="path48" />
    </clipPath>
    <clipPath
       clipPathUnits="userSpaceOnUse"
       id="clipPath50">
      <path
         d="M 0,293.284 H 841.89 V 0 H 0 Z"
         transform="translate(-80.910505,-203.94031)"
         id="path50" />
    </clipPath>
    <clipPath
       clipPathUnits="userSpaceOnUse"
       id="clipPath52">
      <path
         d="M 0,293.284 H 841.89 V 0 H 0 Z"
         transform="translate(-170.557,-230.86361)"
         id="path52" />
    </clipPath>
    <clipPath
       clipPathUnits="userSpaceOnUse"
       id="clipPath54">
      <path
         d="M 0,293.284 H 841.89 V 0 H 0 Z"
         transform="translate(-373.15371,-75.250902)"
         id="path54" />
    </clipPath>
    <clipPath
       clipPathUnits="userSpaceOnUse"
       id="clipPath56">
      <path
         d="M 0,293.284 H 841.89 V 0 H 0 Z"
         transform="translate(-452.14971,-116.9452)"
         id="path56" />
    </clipPath>
    <clipPath
       clipPathUnits="userSpaceOnUse"
       id="clipPath58">
      <path
         d="M 0,293.284 H 841.89 V 0 H 0 Z"
         transform="translate(-492.10581,-98.444202)"
         id="path58" />
    </clipPath>
    <clipPath
       clipPathUnits="userSpaceOnUse"
       id="clipPath60">
      <path
         d="M 0,293.284 H 841.89 V 0 H 0 Z"
         transform="translate(-544.05691,-97.382705)"
         id="path60" />
    </clipPath>
    <clipPath
       clipPathUnits="userSpaceOnUse"
       id="clipPath62">
      <path
         d="M 0,293.284 H 841.89 V 0 H 0 Z"
         transform="translate(-611.63212,-90.6542)"
         id="path62" />
    </clipPath>
    <clipPath
       clipPathUnits="userSpaceOnUse"
       id="clipPath64">
      <path
         d="M 0,293.284 H 841.89 V 0 H 0 Z"
         transform="translate(-687.59312,-83.748905)"
         id="path64" />
    </clipPath>
    <clipPath
       clipPathUnits="userSpaceOnUse"
       id="clipPath66">
      <path
         d="M 0,293.284 H 841.89 V 0 H 0 Z"
         transform="translate(-734.58622,-85.476402)"
         id="path66" />
    </clipPath>
    <clipPath
       clipPathUnits="userSpaceOnUse"
       id="clipPath68">
      <path
         d="M 0,293.284 H 841.89 V 0 H 0 Z"
         transform="translate(-781.00322,-72.064302)"
         id="path68" />
    </clipPath>
  </defs>
  <g
     id="layer-MC0">
    <path
       id="path1"
       d="m 0,0 c -0.517,0.129 -1.162,-0.71 -1.421,-0.968 -1.421,-1.356 -3.357,-4.133 -5.747,-8.33 -2.195,-3.874 -4.584,-8.975 -7.103,-15.045 2.907,1.937 7.168,5.36 8.976,7.684 2.776,3.552 4.649,7.232 5.682,11.041 0.323,1.163 0.516,2.196 0.581,3.164 C 1.098,-0.064 0.517,-0.064 0,0 m -60.05,-75.546 c 1.356,0 3.164,0.452 5.295,1.485 4.196,2.066 8.781,5.875 13.56,11.364 -3.423,0.84 -5.876,1.162 -7.426,1.356 -5.617,0.646 -9.943,-1.485 -12.204,-4.908 -1.098,-1.678 -1.808,-3.228 -2.131,-4.519 -0.839,-2.97 0.065,-4.778 2.906,-4.778 m 22.6,17.434 c 5.294,7.038 10.265,15.561 14.592,25.182 -1.227,-0.388 -1.937,-0.582 -3.163,-0.904 -2.39,-0.517 -3.359,1.872 -1.615,3.874 0.451,0.452 1.033,0.839 1.679,0.968 l 1.679,0.388 c 1.549,0.387 2.324,0.581 3.745,1.098 0.387,1.097 0.645,1.743 0.903,2.259 5.554,13.947 10.461,23.116 15.174,27.507 1.55,1.356 3.294,2.647 5.489,2.454 C 1.614,4.649 2.195,4.456 2.647,4.132 4.972,2.647 5.036,-1.356 3.874,-5.747 0.839,-16.917 -7.942,-25.763 -16.659,-30.218 c -4.907,-11.494 -10.267,-21.179 -16.207,-29.25 7.49,-2.389 10.654,-3.875 19.306,-7.426 4.972,-2.066 8.653,-3.551 10.977,-4.391 3.551,-1.356 6.393,-2.195 8.652,-2.583 2.196,-0.451 3.617,-0.645 4.262,-0.645 0.71,0 3.745,1.162 3.099,-1.162 -0.258,-1.033 -0.904,-1.356 -1.485,-1.937 -1.292,-1.163 -2.97,-1.615 -4.649,-1.615 -2.776,0 -5.359,0.775 -7.813,1.485 -6.134,1.873 -8.459,3.035 -16.078,6.135 -8.717,3.615 -12.268,5.23 -19.887,7.554 -3.487,-4.068 -7.877,-8.459 -12.268,-11.622 -2.906,-2.131 -7.168,-4.456 -11.235,-4.456 -5.553,0 -7.878,3.939 -6.393,9.363 0.517,2.001 1.485,4.068 2.841,6.199 3.293,5.101 9.621,8.135 16.466,8.135 4.003,0 6.586,-0.839 9.621,-1.678"
       style="fill:#231f20;fill-opacity:1;fill-rule:nonzero;stroke:none"
       transform="matrix(1.3333333,0,0,-1.3333333,529.56293,57.943333)"
       clip-path="url(#clipPath2)" />
    <path
       id="path3"
       d="m 0,0 c -0.517,0.129 -1.162,-0.71 -1.421,-0.968 -1.421,-1.356 -3.357,-4.133 -5.747,-8.33 -2.195,-3.874 -4.584,-8.975 -7.103,-15.045 2.907,1.937 7.168,5.36 8.976,7.684 2.776,3.552 4.649,7.232 5.682,11.041 0.323,1.163 0.516,2.196 0.581,3.164 C 1.098,-0.064 0.517,-0.064 0,0 Z m -60.05,-75.546 c 1.356,0 3.164,0.452 5.295,1.485 4.196,2.066 8.781,5.875 13.56,11.364 -3.423,0.84 -5.876,1.162 -7.426,1.356 -5.617,0.646 -9.943,-1.485 -12.204,-4.908 -1.098,-1.678 -1.808,-3.228 -2.131,-4.519 -0.839,-2.97 0.065,-4.778 2.906,-4.778 z m 22.6,17.434 c 5.294,7.038 10.265,15.561 14.592,25.182 -1.227,-0.388 -1.937,-0.582 -3.163,-0.904 -2.39,-0.517 -3.359,1.872 -1.615,3.874 0.451,0.452 1.033,0.839 1.679,0.968 l 1.679,0.388 c 1.549,0.387 2.324,0.581 3.745,1.098 0.387,1.097 0.645,1.743 0.903,2.259 5.554,13.947 10.461,23.116 15.174,27.507 1.55,1.356 3.294,2.647 5.489,2.454 C 1.614,4.649 2.195,4.456 2.647,4.132 4.972,2.647 5.036,-1.356 3.874,-5.747 0.839,-16.917 -7.942,-25.763 -16.659,-30.218 c -4.907,-11.494 -10.267,-21.179 -16.207,-29.25 7.49,-2.389 10.654,-3.875 19.306,-7.426 4.972,-2.066 8.653,-3.551 10.977,-4.391 3.551,-1.356 6.393,-2.195 8.652,-2.583 2.196,-0.451 3.617,-0.645 4.262,-0.645 0.71,0 3.745,1.162 3.099,-1.162 -0.258,-1.033 -0.904,-1.356 -1.485,-1.937 -1.292,-1.163 -2.97,-1.615 -4.649,-1.615 -2.776,0 -5.359,0.775 -7.813,1.485 -6.134,1.873 -8.459,3.035 -16.078,6.135 -8.717,3.615 -12.268,5.23 -19.887,7.554 -3.487,-4.068 -7.877,-8.459 -12.268,-11.622 -2.906,-2.131 -7.168,-4.456 -11.235,-4.456 -5.553,0 -7.878,3.939 -6.393,9.363 0.517,2.001 1.485,4.068 2.841,6.199 3.293,5.101 9.621,8.135 16.466,8.135 4.003,0 6.586,-0.839 9.621,-1.678 z"
       style="fill:none;stroke:#231f20;stroke-width:0.5;stroke-linecap:butt;stroke-linejoin:miter;stroke-miterlimit:10;stroke-dasharray:none;stroke-opacity:1"
       transform="matrix(1.3333333,0,0,-1.3333333,529.56293,57.943333)"
       clip-path="url(#clipPath4)" />
    <path
       id="path5"
       d="m 0,0 c -2.324,0 -5.553,-1.227 -7.49,-2.454 3.616,0.129 7.942,0.84 10.073,2.067 C 2.131,-0.194 1.291,-0.064 0.258,0 Z M 0.193,4.262 C 0.646,4.262 1.227,4.197 1.55,4.132 4.262,4.068 7.103,2.841 6.393,0.129 6.134,-0.775 5.488,-1.679 4.714,-2.454 1.808,-5.424 -1.679,-5.94 -6.974,-5.94 c -1.033,0 -2.454,0.064 -3.874,0.064 -0.129,-0.193 -0.258,-0.517 -0.323,-0.839 -0.322,-1.162 -0.064,-2.066 0.84,-2.971 1.291,-1.226 3.745,-1.937 7.684,-1.937 h 0.323 c 12.267,0 22.212,4.585 29.055,11.881 0.324,0.388 1.938,2.131 3.1,0.969 1.098,-1.227 -0.71,-2.841 -1.162,-3.293 -3.552,-4.003 -7.555,-6.78 -12.462,-9.298 -5.424,-2.777 -12.526,-4.455 -19.952,-4.455 h -0.323 c -4.713,0 -8.265,0.903 -10.46,2.97 -1.679,1.679 -2.325,3.68 -1.679,6.069 1.614,5.941 10.331,11.042 16.4,11.042"
       style="fill:#231f20;fill-opacity:1;fill-rule:nonzero;stroke:none"
       transform="matrix(1.3333333,0,0,-1.3333333,533.34813,117.17507)"
       clip-path="url(#clipPath6)" />
    <path
       id="path7"
       d="m 0,0 c -2.324,0 -5.553,-1.227 -7.49,-2.454 3.616,0.129 7.942,0.84 10.073,2.067 C 2.131,-0.194 1.291,-0.064 0.258,0 Z M 0.193,4.262 C 0.646,4.262 1.227,4.197 1.55,4.132 4.262,4.068 7.103,2.841 6.393,0.129 6.134,-0.775 5.488,-1.679 4.714,-2.454 1.808,-5.424 -1.679,-5.94 -6.974,-5.94 c -1.033,0 -2.454,0.064 -3.874,0.064 -0.129,-0.193 -0.258,-0.517 -0.323,-0.839 -0.322,-1.162 -0.064,-2.066 0.84,-2.971 1.291,-1.226 3.745,-1.937 7.684,-1.937 h 0.323 c 12.267,0 22.212,4.585 29.055,11.881 0.324,0.388 1.938,2.131 3.1,0.969 1.098,-1.227 -0.71,-2.841 -1.162,-3.293 -3.552,-4.003 -7.555,-6.78 -12.462,-9.298 -5.424,-2.777 -12.526,-4.455 -19.952,-4.455 h -0.323 c -4.713,0 -8.265,0.903 -10.46,2.97 -1.679,1.679 -2.325,3.68 -1.679,6.069 1.614,5.941 10.331,11.042 16.4,11.042 z"
       style="fill:none;stroke:#231f20;stroke-width:0.5;stroke-linecap:butt;stroke-linejoin:miter;stroke-miterlimit:10;stroke-dasharray:none;stroke-opacity:1"
       transform="matrix(1.3333333,0,0,-1.3333333,533.34813,117.17507)"
       clip-path="url(#clipPath8)" />
    <path
       id="path9"
       d="m 0,0 c 1.162,0 2.453,0.258 3.874,0.839 3.035,1.227 7.49,4.262 9.04,7.813 l 0.451,1.356 c 0.452,0.323 0.776,0.711 1.098,0.969 C 13.882,11.17 13.107,11.3 12.139,11.3 7.941,11.3 3.164,8.975 0.581,6.393 -1.356,4.713 -2.39,3.229 -2.776,1.937 -3.229,0.194 -1.743,0 0,0 m -10.073,-30.283 c 0.71,0 2.002,0.452 3.874,1.679 1.292,0.904 2.712,2.26 4.068,4.067 4.068,5.295 6.522,9.75 9.298,16.337 -4.262,-2.325 -8.523,-5.489 -12.01,-8.911 -2.195,-2.195 -5.036,-5.488 -5.94,-8.91 -0.323,-1.292 -0.646,-4.262 0.71,-4.262 m 2.324,32.284 c 0.969,3.617 3.616,6.716 7.49,9.299 3.874,2.518 7.878,3.809 11.946,3.809 h 0.194 c 2.647,-0.064 4.843,-0.775 6.65,-2.066 0.775,-0.517 0.194,-2.066 -0.71,-2.518 0.258,-0.323 0.387,-0.775 0.258,-1.356 -0.71,-2.583 -1.872,-6.134 -3.357,-10.267 6.65,2.26 12.719,3.552 18.079,7.555 1.55,1.227 3.164,2.647 4.714,4.391 0.129,0.129 2.066,2.453 3.164,0.903 C 41.518,10.589 40.098,9.169 39.581,8.588 36.546,5.101 32.995,2.325 28.927,0.452 24.02,-1.808 18.531,-3.293 13.301,-5.295 9.943,-13.882 7.038,-19.371 2.131,-26.151 c -2.777,-3.745 -7.749,-7.942 -12.527,-7.942 -2.001,0 -3.358,0.904 -3.939,2.648 -0.452,1.743 -0.452,3.551 0.13,5.552 1.484,5.489 6.327,10.525 10.201,13.689 C 0,-8.975 4.52,-5.811 8.975,-3.681 9.686,-1.55 10.202,0 10.653,1.292 6.198,-2.195 1.937,-4.068 -2.066,-4.068 c -4.133,0 -6.715,2.131 -5.683,6.069"
       style="fill:#231f20;fill-opacity:1;fill-rule:nonzero;stroke:none"
       transform="matrix(1.3333333,0,0,-1.3333333,568.49,131.29413)"
       clip-path="url(#clipPath10)" />
    <path
       id="path11"
       d="m 0,0 c 1.162,0 2.453,0.258 3.874,0.839 3.035,1.227 7.49,4.262 9.04,7.813 l 0.451,1.356 c 0.452,0.323 0.776,0.711 1.098,0.969 C 13.882,11.17 13.107,11.3 12.139,11.3 7.941,11.3 3.164,8.975 0.581,6.393 -1.356,4.713 -2.39,3.229 -2.776,1.937 -3.229,0.194 -1.743,0 0,0 Z m -10.073,-30.283 c 0.71,0 2.002,0.452 3.874,1.679 1.292,0.904 2.712,2.26 4.068,4.067 4.068,5.295 6.522,9.75 9.298,16.337 -4.262,-2.325 -8.523,-5.489 -12.01,-8.911 -2.195,-2.195 -5.036,-5.488 -5.94,-8.91 -0.323,-1.292 -0.646,-4.262 0.71,-4.262 z m 2.324,32.284 c 0.969,3.617 3.616,6.716 7.49,9.299 3.874,2.518 7.878,3.809 11.946,3.809 h 0.194 c 2.647,-0.064 4.843,-0.775 6.65,-2.066 0.775,-0.517 0.194,-2.066 -0.71,-2.518 0.258,-0.323 0.387,-0.775 0.258,-1.356 -0.71,-2.583 -1.872,-6.134 -3.357,-10.267 6.65,2.26 12.719,3.552 18.079,7.555 1.55,1.227 3.164,2.647 4.714,4.391 0.129,0.129 2.066,2.453 3.164,0.903 C 41.518,10.589 40.098,9.169 39.581,8.588 36.546,5.101 32.995,2.325 28.927,0.452 24.02,-1.808 18.531,-3.293 13.301,-5.295 9.943,-13.882 7.038,-19.371 2.131,-26.151 c -2.777,-3.745 -7.749,-7.942 -12.527,-7.942 -2.001,0 -3.358,0.904 -3.939,2.648 -0.452,1.743 -0.452,3.551 0.13,5.552 1.484,5.489 6.327,10.525 10.201,13.689 C 0,-8.975 4.52,-5.811 8.975,-3.681 9.686,-1.55 10.202,0 10.653,1.292 6.198,-2.195 1.937,-4.068 -2.066,-4.068 c -4.133,0 -6.715,2.131 -5.683,6.069 z"
       style="fill:none;stroke:#231f20;stroke-width:0.5;stroke-linecap:butt;stroke-linejoin:miter;stroke-miterlimit:10;stroke-dasharray:none;stroke-opacity:1"
       transform="matrix(1.3333333,0,0,-1.3333333,568.49,131.29413)"
       clip-path="url(#clipPath12)" />
    <path
       id="path13"
       d="m 0,0 c -2.647,0 -5.359,-0.969 -8.136,-2.906 -2.776,-2.001 -4.326,-4.132 -4.907,-6.392 -0.194,-0.516 -0.259,-1.098 -0.259,-1.614 0,-1.033 0.388,-1.356 1.357,-1.356 2.776,0 8.781,3.68 10.589,5.036 1.356,1.163 2.906,2.841 3.293,4.391 0.258,0.84 0.904,1.485 1.549,1.872 C 2.389,-0.517 1.614,0 0,0 m -18.273,-8.911 c 0.904,3.229 3.099,6.199 6.457,8.782 C -8.395,2.454 -4.714,3.81 -0.969,3.81 1.55,3.81 4.197,3.164 6.198,1.679 6.263,1.614 7.49,0.71 6.263,-0.581 6.974,-1.098 6.974,-1.937 6.779,-2.583 6.715,-2.97 6.328,-3.874 6.198,-4.326 5.359,-7.49 6.845,-9.75 8.717,-11.042 c 1.162,-0.839 2.518,-1.226 4.067,-1.291 h 0.388 c 3.874,0 6.909,1.614 9.492,3.422 2.001,1.421 4.455,3.616 6.198,5.36 0.905,0.968 1.938,2.001 3.035,3.293 0.582,0.581 1.486,1.485 2.518,1.227 1.809,-0.452 0.517,-2.261 -0.517,-3.358 -3.55,-4.068 -5.746,-6.328 -9.75,-9.362 -3.486,-2.648 -7.683,-4.52 -12.655,-4.52 h -0.129 c -5.359,0.128 -9.233,3.292 -10.266,7.102 -2.26,-2.001 -4.714,-3.487 -7.748,-5.036 -2.648,-1.356 -5.038,-2.131 -7.168,-2.131 -3.745,0 -5.553,3.229 -4.455,7.425"
       style="fill:#231f20;fill-opacity:1;fill-rule:nonzero;stroke:none"
       transform="matrix(1.3333333,0,0,-1.3333333,632.96133,116.48627)"
       clip-path="url(#clipPath14)" />
    <path
       id="path15"
       d="m 0,0 c -2.647,0 -5.359,-0.969 -8.136,-2.906 -2.776,-2.001 -4.326,-4.132 -4.907,-6.392 -0.194,-0.516 -0.259,-1.098 -0.259,-1.614 0,-1.033 0.388,-1.356 1.357,-1.356 2.776,0 8.781,3.68 10.589,5.036 1.356,1.163 2.906,2.841 3.293,4.391 0.258,0.84 0.904,1.485 1.549,1.872 C 2.389,-0.517 1.614,0 0,0 Z m -18.273,-8.911 c 0.904,3.229 3.099,6.199 6.457,8.782 C -8.395,2.454 -4.714,3.81 -0.969,3.81 1.55,3.81 4.197,3.164 6.198,1.679 6.263,1.614 7.49,0.71 6.263,-0.581 6.974,-1.098 6.974,-1.937 6.779,-2.583 6.715,-2.97 6.328,-3.874 6.198,-4.326 5.359,-7.49 6.845,-9.75 8.717,-11.042 c 1.162,-0.839 2.518,-1.226 4.067,-1.291 h 0.388 c 3.874,0 6.909,1.614 9.492,3.422 2.001,1.421 4.455,3.616 6.198,5.36 0.905,0.968 1.938,2.001 3.035,3.293 0.582,0.581 1.486,1.485 2.518,1.227 1.809,-0.452 0.517,-2.261 -0.517,-3.358 -3.55,-4.068 -5.746,-6.328 -9.75,-9.362 -3.486,-2.648 -7.683,-4.52 -12.655,-4.52 h -0.129 c -5.359,0.128 -9.233,3.292 -10.266,7.102 -2.26,-2.001 -4.714,-3.487 -7.748,-5.036 -2.648,-1.356 -5.038,-2.131 -7.168,-2.131 -3.745,0 -5.553,3.229 -4.455,7.425 z"
       style="fill:none;stroke:#231f20;stroke-width:0.5;stroke-linecap:butt;stroke-linejoin:miter;stroke-miterlimit:10;stroke-dasharray:none;stroke-opacity:1"
       transform="matrix(1.3333333,0,0,-1.3333333,632.96133,116.48627)"
       clip-path="url(#clipPath16)" />
    <path
       id="path17"
       d="m 0,0 c -3.293,-3.81 -6.716,-9.427 -9.428,-15.045 4.133,4.907 7.619,9.427 11.429,15.109 C 3.1,1.743 3.681,2.97 3.874,3.616 V 3.68 C 2.583,2.776 1.485,1.743 0,0 M 7.36,3.68 C 7.038,2.389 6.198,0.839 4.907,-0.969 2.453,-4.778 -0.581,-9.104 -3.1,-12.139 c -2.002,-2.389 -7.296,-8.782 -9.491,-11.429 l -0.194,-1.033 c -0.322,-2.131 -0.193,-1.679 -0.452,-3.745 -0.323,-3.035 -0.194,-5.747 0.711,-7.878 1.097,-2.389 2.647,-3.422 4.584,-3.422 3.035,0 6.328,2.066 8.652,3.745 5.166,3.745 10.009,8.911 14.141,13.947 0.839,1.098 2.066,1.033 2.776,0.646 l 0.13,-0.258 c 0.451,-0.84 -0.259,-1.873 -0.647,-2.39 -4.713,-5.682 -9.362,-10.331 -13.881,-13.882 -4.585,-3.551 -8.782,-5.488 -12.527,-5.488 -3.228,0 -5.747,1.549 -7.49,4.39 -1.485,2.454 -1.743,7.167 -1.292,11.106 0.194,1.937 0.517,3.874 1.033,5.683 l 0.065,0.258 c 2.195,8.071 8.394,18.402 12.978,23.761 1.55,1.808 2.971,3.229 4.456,4.391 1.42,1.033 2.905,1.614 4.261,1.614 2.196,0 3.294,-1.872 2.647,-4.197"
       style="fill:#231f20;fill-opacity:1;fill-rule:nonzero;stroke:none"
       transform="matrix(1.3333333,0,0,-1.3333333,698.49253,87.042267)"
       clip-path="url(#clipPath18)" />
    <path
       id="path19"
       d="m 0,0 c -3.293,-3.81 -6.716,-9.427 -9.428,-15.045 4.133,4.907 7.619,9.427 11.429,15.109 C 3.1,1.743 3.681,2.97 3.874,3.616 V 3.68 C 2.583,2.776 1.485,1.743 0,0 Z M 7.36,3.68 C 7.038,2.389 6.198,0.839 4.907,-0.969 2.453,-4.778 -0.581,-9.104 -3.1,-12.139 c -2.002,-2.389 -7.296,-8.782 -9.491,-11.429 l -0.194,-1.033 c -0.322,-2.131 -0.193,-1.679 -0.452,-3.745 -0.323,-3.035 -0.194,-5.747 0.711,-7.878 1.097,-2.389 2.647,-3.422 4.584,-3.422 3.035,0 6.328,2.066 8.652,3.745 5.166,3.745 10.009,8.911 14.141,13.947 0.839,1.098 2.066,1.033 2.776,0.646 l 0.13,-0.258 c 0.451,-0.84 -0.259,-1.873 -0.647,-2.39 -4.713,-5.682 -9.362,-10.331 -13.881,-13.882 -4.585,-3.551 -8.782,-5.488 -12.527,-5.488 -3.228,0 -5.747,1.549 -7.49,4.39 -1.485,2.454 -1.743,7.167 -1.292,11.106 0.194,1.937 0.517,3.874 1.033,5.683 l 0.065,0.258 c 2.195,8.071 8.394,18.402 12.978,23.761 1.55,1.808 2.971,3.229 4.456,4.391 1.42,1.033 2.905,1.614 4.261,1.614 2.196,0 3.294,-1.872 2.647,-4.197 z"
       style="fill:none;stroke:#231f20;stroke-width:0.5;stroke-linecap:butt;stroke-linejoin:miter;stroke-miterlimit:10;stroke-dasharray:none;stroke-opacity:1"
       transform="matrix(1.3333333,0,0,-1.3333333,698.49253,87.042267)"
       clip-path="url(#clipPath20)" />
    <path
       id="path21"
       d="m 0,0 c -1.614,-4.778 -3.358,-9.492 -5.23,-14.205 3.099,0.904 6.198,2.001 9.168,3.164 15.497,6.392 27.184,18.596 35.062,37.127 1.355,3.035 2.324,5.876 3.034,8.459 3.164,11.687 -0.193,18.402 -7.296,22.212 -4.068,2.195 -8.071,2.97 -14.335,2.97 -4.455,0 -9.298,-0.452 -14.334,-1.356 C 8.006,53.787 8.651,47.265 8.07,38.807 7.812,35.126 7.296,30.864 6.521,26.474 c 4.261,9.233 9.168,19.371 14.528,30.218 0.581,1.356 2.066,2.325 3.487,2.002 1.162,-0.194 1.937,-1.485 1.098,-3.035 C 14.334,32.737 5.746,14.076 0,0.129 Z M 47.006,34.48 C 44.875,26.603 41.001,18.79 37.127,12.785 32.284,5.295 27.184,-0.193 20.727,-5.294 12.913,-11.493 4.713,-15.69 -5.359,-18.531 c -4.714,-1.292 -9.234,-2.067 -13.883,-2.454 -1.679,-0.194 -3.164,-0.258 -4.455,-0.258 -0.581,0 -1.55,0.064 -1.55,0.064 -0.323,0 -1.743,0.259 -1.421,1.486 0.517,1.937 2.776,1.937 3.681,2.066 h 0.258 c 4.197,0.452 8.587,1.162 12.591,2.13 -0.194,0.453 -0.194,0.905 -0.129,1.421 1.033,2.647 2.777,7.361 5.359,14.528 2.454,6.78 4.391,12.914 5.94,18.532 C 3.034,26.667 4.261,32.866 4.52,38.807 4.777,45.199 4.777,51.72 2.001,55.853 1.872,55.982 1.42,56.111 0.71,56.176 L 0.646,55.982 h -1.228 c -0.258,-0.065 -0.387,-0.065 -0.517,-0.065 -1.548,0 -1.291,1.227 -1.355,1.55 -0.129,0.452 -0.646,1.679 0.645,2.712 0.324,0.259 0.71,0.387 0.969,0.581 2.389,0.581 4.843,1.162 7.619,1.679 5.295,0.904 10.267,1.356 14.851,1.356 h 0.13 c 20.274,0 30.541,-9.427 25.246,-29.315"
       style="fill:#231f20;fill-opacity:1;fill-rule:nonzero;stroke:none"
       transform="matrix(1.3333333,0,0,-1.3333333,771.54733,136.54613)"
       clip-path="url(#clipPath22)" />
    <path
       id="path23"
       d="m 0,0 c -1.614,-4.778 -3.358,-9.492 -5.23,-14.205 3.099,0.904 6.198,2.001 9.168,3.164 15.497,6.392 27.184,18.596 35.062,37.127 1.355,3.035 2.324,5.876 3.034,8.459 3.164,11.687 -0.193,18.402 -7.296,22.212 -4.068,2.195 -8.071,2.97 -14.335,2.97 -4.455,0 -9.298,-0.452 -14.334,-1.356 C 8.006,53.787 8.651,47.265 8.07,38.807 7.812,35.126 7.296,30.864 6.521,26.474 c 4.261,9.233 9.168,19.371 14.528,30.218 0.581,1.356 2.066,2.325 3.487,2.002 1.162,-0.194 1.937,-1.485 1.098,-3.035 C 14.334,32.737 5.746,14.076 0,0.129 Z M 47.006,34.48 C 44.875,26.603 41.001,18.79 37.127,12.785 32.284,5.295 27.184,-0.193 20.727,-5.294 12.913,-11.493 4.713,-15.69 -5.359,-18.531 c -4.714,-1.292 -9.234,-2.067 -13.883,-2.454 -1.679,-0.194 -3.164,-0.258 -4.455,-0.258 -0.581,0 -1.55,0.064 -1.55,0.064 -0.323,0 -1.743,0.259 -1.421,1.486 0.517,1.937 2.776,1.937 3.681,2.066 h 0.258 c 4.197,0.452 8.587,1.162 12.591,2.13 -0.194,0.453 -0.194,0.905 -0.129,1.421 1.033,2.647 2.777,7.361 5.359,14.528 2.454,6.78 4.391,12.914 5.94,18.532 C 3.034,26.667 4.261,32.866 4.52,38.807 4.777,45.199 4.777,51.72 2.001,55.853 1.872,55.982 1.42,56.111 0.71,56.176 L 0.646,55.982 h -1.228 c -0.258,-0.065 -0.387,-0.065 -0.517,-0.065 -1.548,0 -1.291,1.227 -1.355,1.55 -0.129,0.452 -0.646,1.679 0.645,2.712 0.324,0.259 0.71,0.387 0.969,0.581 2.389,0.581 4.843,1.162 7.619,1.679 5.295,0.904 10.267,1.356 14.851,1.356 h 0.13 c 20.274,0 30.541,-9.427 25.246,-29.315 z"
       style="fill:none;stroke:#231f20;stroke-width:0.5;stroke-linecap:butt;stroke-linejoin:miter;stroke-miterlimit:10;stroke-dasharray:none;stroke-opacity:1"
       transform="matrix(1.3333333,0,0,-1.3333333,771.54733,136.54613)"
       clip-path="url(#clipPath24)" />
    <path
       id="path25"
       d="m 0,0 c -2.324,0 -5.553,-1.227 -7.49,-2.454 3.616,0.129 7.942,0.84 10.073,2.067 C 2.131,-0.194 1.292,-0.064 0.259,0 Z M 0.194,4.262 C 0.646,4.262 1.228,4.197 1.55,4.132 4.262,4.068 7.103,2.841 6.393,0.129 6.135,-0.775 5.488,-1.679 4.714,-2.454 1.809,-5.424 -1.679,-5.94 -6.974,-5.94 c -1.033,0 -2.453,0.064 -3.874,0.064 -0.129,-0.193 -0.257,-0.517 -0.322,-0.839 -0.323,-1.162 -0.064,-2.066 0.839,-2.971 1.292,-1.226 3.745,-1.937 7.684,-1.937 h 0.323 c 12.268,0 22.212,4.585 29.056,11.881 0.323,0.388 1.937,2.131 3.099,0.969 1.098,-1.227 -0.71,-2.841 -1.162,-3.293 -3.551,-4.003 -7.555,-6.78 -12.462,-9.298 -5.424,-2.777 -12.526,-4.455 -19.952,-4.455 h -0.322 c -4.714,0 -8.266,0.903 -10.461,2.97 -1.679,1.679 -2.325,3.68 -1.679,6.069 1.614,5.941 10.331,11.042 16.401,11.042"
       style="fill:#231f20;fill-opacity:1;fill-rule:nonzero;stroke:none"
       transform="matrix(1.3333333,0,0,-1.3333333,846.4496,117.17507)"
       clip-path="url(#clipPath26)" />
    <path
       id="path27"
       d="m 0,0 c -2.324,0 -5.553,-1.227 -7.49,-2.454 3.616,0.129 7.942,0.84 10.073,2.067 C 2.131,-0.194 1.292,-0.064 0.259,0 Z M 0.194,4.262 C 0.646,4.262 1.228,4.197 1.55,4.132 4.262,4.068 7.103,2.841 6.393,0.129 6.135,-0.775 5.488,-1.679 4.714,-2.454 1.809,-5.424 -1.679,-5.94 -6.974,-5.94 c -1.033,0 -2.453,0.064 -3.874,0.064 -0.129,-0.193 -0.257,-0.517 -0.322,-0.839 -0.323,-1.162 -0.064,-2.066 0.839,-2.971 1.292,-1.226 3.745,-1.937 7.684,-1.937 h 0.323 c 12.268,0 22.212,4.585 29.056,11.881 0.323,0.388 1.937,2.131 3.099,0.969 1.098,-1.227 -0.71,-2.841 -1.162,-3.293 -3.551,-4.003 -7.555,-6.78 -12.462,-9.298 -5.424,-2.777 -12.526,-4.455 -19.952,-4.455 h -0.322 c -4.714,0 -8.266,0.903 -10.461,2.97 -1.679,1.679 -2.325,3.68 -1.679,6.069 1.614,5.941 10.331,11.042 16.401,11.042 z"
       style="fill:none;stroke:#231f20;stroke-width:0.5;stroke-linecap:butt;stroke-linejoin:miter;stroke-miterlimit:10;stroke-dasharray:none;stroke-opacity:1"
       transform="matrix(1.3333333,0,0,-1.3333333,846.4496,117.17507)"
       clip-path="url(#clipPath28)" />
    <path
       id="path29"
       d="M 0,0 C 3.1,0 6.135,2.647 6.909,4.456 5.037,4.584 4.004,4.649 3.487,4.649 H 3.423 C 2.971,4.584 2.777,4.584 2.454,4.584 -0.064,4.52 -2.001,4.52 -2.582,3.293 -3.486,1.292 -1.42,0 0,0 M 1.937,8.846 H 3.81 c 0.323,0 0.839,0 1.485,-0.064 -2.26,1.872 -6.005,3.422 -6.328,6.78 -0.065,0.581 0,1.226 0.13,1.807 0.645,2.325 2.969,4.52 5.294,4.52 1.485,0 2.066,-1.226 1.485,-2.97 -0.258,-0.711 -0.969,-1.292 -1.42,-1.614 -0.065,0 -0.065,-0.065 -0.13,-0.194 -0.258,-1.098 1.098,-2.066 1.679,-2.518 0.452,-0.387 2.002,-1.55 2.454,-1.873 1.808,-1.356 2.905,-2.453 3.552,-3.616 0.129,-0.193 0.193,-0.516 0.258,-0.71 1.549,-0.064 2.711,-0.064 3.809,-0.064 8.071,0 11.688,2.195 16.272,6.779 0.581,0.517 1.291,1.292 2.324,1.292 0.775,0 1.292,-0.775 1.097,-1.485 -0.193,-0.84 -0.774,-1.421 -1.419,-2.131 C 28.733,6.909 22.6,4.197 13.173,4.197 H 11.945 C 9.944,0.129 5.037,-3.616 -0.968,-3.616 c -3.616,0 -6.587,2.454 -5.037,6.78 1.228,3.616 4.585,5.359 7.942,5.682"
       style="fill:#231f20;fill-opacity:1;fill-rule:nonzero;stroke:none"
       transform="matrix(1.3333333,0,0,-1.3333333,883.6124,136.97653)"
       clip-path="url(#clipPath30)" />
    <path
       id="path31"
       d="M 0,0 C 3.1,0 6.135,2.647 6.909,4.456 5.037,4.584 4.004,4.649 3.487,4.649 H 3.423 C 2.971,4.584 2.777,4.584 2.454,4.584 -0.064,4.52 -2.001,4.52 -2.582,3.293 -3.486,1.292 -1.42,0 0,0 Z M 1.937,8.846 H 3.81 c 0.323,0 0.839,0 1.485,-0.064 -2.26,1.872 -6.005,3.422 -6.328,6.78 -0.065,0.581 0,1.226 0.13,1.807 0.645,2.325 2.969,4.52 5.294,4.52 1.485,0 2.066,-1.226 1.485,-2.97 -0.258,-0.711 -0.969,-1.292 -1.42,-1.614 -0.065,0 -0.065,-0.065 -0.13,-0.194 -0.258,-1.098 1.098,-2.066 1.679,-2.518 0.452,-0.387 2.002,-1.55 2.454,-1.873 1.808,-1.356 2.905,-2.453 3.552,-3.616 0.129,-0.193 0.193,-0.516 0.258,-0.71 1.549,-0.064 2.711,-0.064 3.809,-0.064 8.071,0 11.688,2.195 16.272,6.779 0.581,0.517 1.291,1.292 2.324,1.292 0.775,0 1.292,-0.775 1.097,-1.485 -0.193,-0.84 -0.774,-1.421 -1.419,-2.131 C 28.733,6.909 22.6,4.197 13.173,4.197 H 11.945 C 9.944,0.129 5.037,-3.616 -0.968,-3.616 c -3.616,0 -6.587,2.454 -5.037,6.78 1.228,3.616 4.585,5.359 7.942,5.682 z"
       style="fill:none;stroke:#231f20;stroke-width:0.5;stroke-linecap:butt;stroke-linejoin:miter;stroke-miterlimit:10;stroke-dasharray:none;stroke-opacity:1"
       transform="matrix(1.3333333,0,0,-1.3333333,883.6124,136.97653)"
       clip-path="url(#clipPath32)" />
    <path
       id="path33"
       d="m 0,0 c 0.517,-0.71 0.064,-1.937 -0.646,-2.518 l -2.389,-2.325 c -2.324,-2.324 -6.069,0 -3.552,2.389 0.84,0.775 1.68,1.55 2.454,2.325 0.84,0.71 1.614,0.904 2.324,0.904 C -1.098,0.775 -0.388,0.581 0,0 m -14.916,-18.273 c 0.452,1.679 1.227,3.487 2.324,5.294 1.163,2.39 2.067,5.295 5.102,5.295 h 0.129 0.064 c 0.776,-0.064 1.421,-0.387 1.679,-1.162 0.194,-0.516 -0.065,-1.356 -0.194,-1.55 -2.388,-3.551 -3.551,-5.811 -4.068,-7.877 -1.098,-4.003 0.776,-5.359 4.778,-5.489 h 0.453 c 3.228,0 7.038,1.033 11.493,3.229 4.326,2.195 8.394,5.295 11.945,9.169 0.711,0.646 1.679,0.775 2.195,0.581 1.809,-0.517 0,-2.712 -0.257,-2.97 -4.003,-4.391 -8.653,-8.007 -13.56,-10.46 -4.907,-2.454 -9.492,-3.745 -13.624,-3.745 -6.264,0 -10.138,3.486 -8.459,9.685"
       style="fill:#231f20;fill-opacity:1;fill-rule:nonzero;stroke:none"
       transform="matrix(1.3333333,0,0,-1.3333333,942.6332,100.9036)"
       clip-path="url(#clipPath34)" />
    <path
       id="path35"
       d="m 0,0 c 0.517,-0.71 0.064,-1.937 -0.646,-2.518 l -2.389,-2.325 c -2.324,-2.324 -6.069,0 -3.552,2.389 0.84,0.775 1.68,1.55 2.454,2.325 0.84,0.71 1.614,0.904 2.324,0.904 C -1.098,0.775 -0.388,0.581 0,0 Z m -14.916,-18.273 c 0.452,1.679 1.227,3.487 2.324,5.294 1.163,2.39 2.067,5.295 5.102,5.295 h 0.129 0.064 c 0.776,-0.064 1.421,-0.387 1.679,-1.162 0.194,-0.516 -0.065,-1.356 -0.194,-1.55 -2.388,-3.551 -3.551,-5.811 -4.068,-7.877 -1.098,-4.003 0.776,-5.359 4.778,-5.489 h 0.453 c 3.228,0 7.038,1.033 11.493,3.229 4.326,2.195 8.394,5.295 11.945,9.169 0.711,0.646 1.679,0.775 2.195,0.581 1.809,-0.517 0,-2.712 -0.257,-2.97 -4.003,-4.391 -8.653,-8.007 -13.56,-10.46 -4.907,-2.454 -9.492,-3.745 -13.624,-3.745 -6.264,0 -10.138,3.486 -8.459,9.685 z"
       style="fill:none;stroke:#231f20;stroke-width:0.5;stroke-linecap:butt;stroke-linejoin:miter;stroke-miterlimit:10;stroke-dasharray:none;stroke-opacity:1"
       transform="matrix(1.3333333,0,0,-1.3333333,942.6332,100.9036)"
       clip-path="url(#clipPath36)" />
    <path
       id="path37"
       d="m 0,0 c 1.162,0 2.454,0.258 3.874,0.839 3.035,1.227 7.49,4.262 9.04,7.813 l 0.452,1.356 c 0.452,0.323 0.775,0.711 1.098,0.969 C 13.883,11.17 13.107,11.3 12.139,11.3 7.942,11.3 3.164,8.975 0.581,6.393 -1.355,4.713 -2.389,3.229 -2.776,1.937 -3.229,0.194 -1.743,0 0,0 m -10.073,-30.283 c 0.711,0 2.002,0.452 3.875,1.679 1.291,0.904 2.712,2.26 4.067,4.067 4.068,5.295 6.522,9.75 9.298,16.337 -4.262,-2.325 -8.522,-5.489 -12.01,-8.911 -2.195,-2.195 -5.036,-5.488 -5.94,-8.91 -0.322,-1.292 -0.646,-4.262 0.71,-4.262 m 2.325,32.284 c 0.969,3.617 3.615,6.716 7.49,9.299 3.874,2.518 7.877,3.809 11.946,3.809 h 0.193 c 2.647,-0.064 4.843,-0.775 6.65,-2.066 0.776,-0.517 0.195,-2.066 -0.71,-2.518 0.258,-0.323 0.388,-0.775 0.258,-1.356 -0.71,-2.583 -1.872,-6.134 -3.357,-10.267 6.651,2.26 12.72,3.552 18.08,7.555 1.549,1.227 3.163,2.647 4.713,4.391 0.13,0.129 2.066,2.453 3.164,0.903 C 41.519,10.589 40.098,9.169 39.581,8.588 36.547,5.101 32.995,2.325 28.927,0.452 24.02,-1.808 18.531,-3.293 13.302,-5.295 9.943,-13.882 7.038,-19.371 2.131,-26.151 c -2.777,-3.745 -7.748,-7.942 -12.527,-7.942 -2.001,0 -3.357,0.904 -3.938,2.648 -0.452,1.743 -0.452,3.551 0.129,5.552 1.485,5.489 6.328,10.525 10.202,13.689 4.003,3.229 8.523,6.393 12.979,8.523 0.71,2.131 1.226,3.681 1.678,4.973 -4.455,-3.487 -8.717,-5.36 -12.72,-5.36 -4.132,0 -6.715,2.131 -5.682,6.069"
       style="fill:#231f20;fill-opacity:1;fill-rule:nonzero;stroke:none"
       transform="matrix(1.3333333,0,0,-1.3333333,966.81813,131.29413)"
       clip-path="url(#clipPath38)" />
    <path
       id="path39"
       d="m 0,0 c 1.162,0 2.454,0.258 3.874,0.839 3.035,1.227 7.49,4.262 9.04,7.813 l 0.452,1.356 c 0.452,0.323 0.775,0.711 1.098,0.969 C 13.883,11.17 13.107,11.3 12.139,11.3 7.942,11.3 3.164,8.975 0.581,6.393 -1.355,4.713 -2.389,3.229 -2.776,1.937 -3.229,0.194 -1.743,0 0,0 Z m -10.073,-30.283 c 0.711,0 2.002,0.452 3.875,1.679 1.291,0.904 2.712,2.26 4.067,4.067 4.068,5.295 6.522,9.75 9.298,16.337 -4.262,-2.325 -8.522,-5.489 -12.01,-8.911 -2.195,-2.195 -5.036,-5.488 -5.94,-8.91 -0.322,-1.292 -0.646,-4.262 0.71,-4.262 z m 2.325,32.284 c 0.969,3.617 3.615,6.716 7.49,9.299 3.874,2.518 7.877,3.809 11.946,3.809 h 0.193 c 2.647,-0.064 4.843,-0.775 6.65,-2.066 0.776,-0.517 0.195,-2.066 -0.71,-2.518 0.258,-0.323 0.388,-0.775 0.258,-1.356 -0.71,-2.583 -1.872,-6.134 -3.357,-10.267 6.651,2.26 12.72,3.552 18.08,7.555 1.549,1.227 3.163,2.647 4.713,4.391 0.13,0.129 2.066,2.453 3.164,0.903 C 41.519,10.589 40.098,9.169 39.581,8.588 36.547,5.101 32.995,2.325 28.927,0.452 24.02,-1.808 18.531,-3.293 13.302,-5.295 9.943,-13.882 7.038,-19.371 2.131,-26.151 c -2.777,-3.745 -7.748,-7.942 -12.527,-7.942 -2.001,0 -3.357,0.904 -3.938,2.648 -0.452,1.743 -0.452,3.551 0.129,5.552 1.485,5.489 6.328,10.525 10.202,13.689 4.003,3.229 8.523,6.393 12.979,8.523 0.71,2.131 1.226,3.681 1.678,4.973 -4.455,-3.487 -8.717,-5.36 -12.72,-5.36 -4.132,0 -6.715,2.131 -5.682,6.069 z"
       style="fill:none;stroke:#231f20;stroke-width:0.5;stroke-linecap:butt;stroke-linejoin:miter;stroke-miterlimit:10;stroke-dasharray:none;stroke-opacity:1"
       transform="matrix(1.3333333,0,0,-1.3333333,966.81813,131.29413)"
       clip-path="url(#clipPath40)" />
    <path
       id="path41"
       d="m 0,0 c 0.258,-0.904 0.258,-2.647 0.258,-5.618 -0.065,-2.905 -0.129,-6.457 3.487,-6.457 3.229,0 6.586,1.033 10.137,3.1 3.552,2.066 6.909,5.036 10.202,8.975 0.645,0.839 1.937,1.162 2.647,0.646 1.291,-0.904 -0.257,-2.519 -0.516,-2.777 -3.616,-4.39 -7.555,-7.813 -11.752,-10.266 -4.196,-2.454 -8.523,-3.681 -12.849,-3.681 h -0.13 c -4.841,0 -6.456,5.359 -6.327,9.557 0,2.582 -0.064,4.326 -0.194,4.907 -0.258,0.968 -0.517,1.356 -1.743,1.356 -1.291,0 -3.164,-0.646 -5.617,-2.067 -1.357,-0.839 -3.229,-2.453 -5.489,-4.778 -0.904,-0.968 -1.873,-2.324 -2.842,-4.132 -1.032,-1.873 -1.743,-3.422 -2.195,-4.649 -0.258,-0.711 -0.516,-1.485 -0.774,-2.196 -1.227,-1.678 -3.422,-2.066 -4.52,-0.968 -0.387,0.387 -0.452,1.227 -0.259,1.614 3.1,7.49 5.812,13.495 8.395,18.725 0.451,0.904 1.484,1.227 2.001,1.227 1.162,0 1.809,-0.71 2.195,-1.356 0.195,-0.452 0.323,-0.969 0.13,-1.614 -0.064,-0.258 -0.194,-0.517 -0.323,-0.775 0.969,0.775 1.679,1.356 2.647,2.002 2.97,1.872 5.812,2.905 8.524,2.905 C -1.937,3.68 -0.452,2.131 0,0"
       style="fill:#231f20;fill-opacity:1;fill-rule:nonzero;stroke:#231f20;stroke-width:0.5;stroke-linecap:butt;stroke-linejoin:miter;stroke-miterlimit:10;stroke-dasharray:none;stroke-opacity:1"
       transform="matrix(1.3333333,0,0,-1.3333333,1044.8676,116.22773)"
       clip-path="url(#clipPath42)" />
    <path
       id="path43"
       d="M 825.159,150.034 H 328.114 V 36.372 h 497.045 z"
       style="fill:#231f20;fill-opacity:1;fill-rule:nonzero;stroke:none"
       transform="matrix(1.3333333,0,0,-1.3333333,0,391.04533)"
       clip-path="url(#clipPath44)" />
    <path
       id="path45"
       d="m 0,0 h -60.762 l 85.067,79.187 -85.067,79.992 H 0 L 85.065,79.187 Z M 30.339,187.748 H -151.905 L -36.458,79.187 -151.905,-28.282 H 30.339 L 145.786,79.187 Z"
       style="fill:#3178ba;fill-opacity:1;fill-rule:nonzero;stroke:none"
       transform="matrix(1.3333333,0,0,-1.3333333,227.40933,295.46613)"
       clip-path="url(#clipPath46)" />
    <path
       id="path47"
       d="m 0,0 h -60.762 l 85.067,-79.993 -85.067,-79.186 H 0 l 85.065,79.186 z"
       style="fill:#ffffff;fill-opacity:1;fill-rule:nonzero;stroke:none"
       transform="matrix(1.3333333,0,0,-1.3333333,227.40933,83.2272)"
       clip-path="url(#clipPath48)" />
    <path
       id="path49"
       d="m 0,0 31.193,27.679 82.722,-82.413 -87.317,-76.7 -29.552,29.146 56.133,49.308 z"
       style="fill:#3a81cb;fill-opacity:1;fill-rule:nonzero;stroke:none"
       transform="matrix(1.3333333,0,0,-1.3333333,107.88067,119.12493)"
       clip-path="url(#clipPath50)" />
    <path
       id="path51"
       d="m 0,0 h -60.762 l -85.066,-79.993 85.066,-79.186 H 0 l -85.066,79.186 z"
       style="fill:#f68815;fill-opacity:1;fill-rule:nonzero;stroke:none"
       transform="matrix(1.3333333,0,0,-1.3333333,227.40933,83.2272)"
       clip-path="url(#clipPath52)" />
    <path
       id="path53"
       d="m 0,0 -9.96,13.412 c -1.741,-1.211 -3.039,-2.523 -3.894,-3.939 -0.857,-1.417 -1.284,-2.981 -1.284,-4.692 0,-2.302 0.758,-4.249 2.279,-5.843 1.52,-1.593 3.356,-2.39 5.511,-2.39 1.298,0 2.544,0.28 3.74,0.841 1.195,0.56 2.397,1.43 3.608,2.611 m 3.806,-5.178 c -2.007,-1.742 -4.08,-3.04 -6.219,-3.895 -2.141,-0.856 -4.375,-1.283 -6.705,-1.283 -3.985,0 -7.282,1.349 -9.894,4.049 -2.61,2.701 -3.916,6.101 -3.916,10.203 0,2.832 0.708,5.415 2.124,7.746 1.417,2.33 3.733,4.706 6.95,7.125 -1.476,2.095 -2.539,3.962 -3.187,5.599 -0.65,1.638 -0.975,3.209 -0.975,4.714 0,3.128 1.143,5.769 3.431,7.923 2.286,2.153 5.097,3.231 8.433,3.231 1.12,0 2.293,-0.192 3.518,-0.575 1.224,-0.384 2.706,-1.033 4.447,-1.948 0.148,0.029 0.295,0.052 0.443,0.066 0.147,0.016 0.369,0.023 0.665,0.023 0.943,0 1.674,-0.23 2.19,-0.687 0.516,-0.458 0.775,-1.098 0.775,-1.925 0,-1.034 -0.369,-1.977 -1.107,-2.833 -0.738,-0.855 -1.505,-1.283 -2.3,-1.283 -0.533,0 -1.706,0.546 -3.52,1.637 -1.814,1.092 -3.401,1.639 -4.758,1.639 -1.476,0 -2.701,-0.458 -3.674,-1.372 -0.973,-0.915 -1.461,-2.051 -1.461,-3.409 0,-0.945 0.25,-1.963 0.753,-3.053 0.501,-1.093 1.578,-2.745 3.231,-4.958 L 3.982,6.507 c 0.56,1.388 1.136,3.201 1.727,5.444 0.825,3.334 2.006,5.002 3.54,5.002 h 2.745 c 0.649,0 1.218,-0.325 1.704,-0.974 0.487,-0.649 0.73,-1.447 0.73,-2.39 0,-1.122 -0.193,-1.903 -0.575,-2.346 C 13.47,10.801 12.731,10.461 11.64,10.226 11.286,8.749 10.828,7.244 10.269,5.71 9.707,4.176 9.043,2.596 8.275,0.975 l 2.702,-3.807 h 1.105 c 0.561,0 1.019,-0.267 1.373,-0.797 0.355,-0.531 0.53,-1.255 0.53,-2.169 0,-1.092 -0.206,-1.955 -0.62,-2.59 -0.413,-0.633 -0.958,-0.951 -1.636,-0.951 H 8.011 c -0.708,0 -1.535,0.664 -2.479,1.991 -0.148,0.207 -0.265,0.355 -0.354,0.444 z"
       style="fill:#ffffff;fill-opacity:1;fill-rule:nonzero;stroke:none"
       transform="matrix(1.3333333,0,0,-1.3333333,497.53827,290.7108)"
       clip-path="url(#clipPath54)" />
    <path
       id="path55"
       d="M 0,0 C 0.591,1.062 1.195,1.815 1.815,2.258 2.436,2.7 3.216,2.922 4.161,2.922 5.606,2.922 6.632,2.538 7.237,1.771 7.842,1.003 8.145,-0.31 8.145,-2.168 l 0.088,-11.509 c 0,-2.036 -0.332,-3.407 -0.996,-4.116 -0.664,-0.708 -1.866,-1.061 -3.607,-1.061 -1.239,0 -2.192,0.295 -2.855,0.887 -0.665,0.592 -1.232,1.688 -1.705,3.287 -0.766,2.815 -1.991,4.835 -3.674,6.065 -1.68,1.228 -4.012,1.844 -6.992,1.844 -4.545,0 -8.026,-1.537 -10.446,-4.609 -2.419,-3.073 -3.629,-7.519 -3.629,-13.339 0,-5.792 1.225,-10.237 3.674,-13.341 2.448,-3.101 5.944,-4.652 10.49,-4.652 3.099,0 6.513,1.032 10.246,3.099 3.733,2.064 6.086,3.097 7.06,3.097 1.151,0 2.117,-0.486 2.899,-1.46 0.781,-0.973 1.173,-2.184 1.173,-3.629 0,-2.597 -2.288,-5.046 -6.86,-7.347 -4.574,-2.303 -9.724,-3.453 -15.448,-3.453 -7.732,0 -13.987,2.552 -18.767,7.657 -4.78,5.104 -7.17,11.773 -7.17,20.007 0,7.937 2.419,14.532 7.259,19.784 4.839,5.252 10.976,7.879 18.413,7.879 2.094,0 4.16,-0.236 6.195,-0.708 C -4.47,1.741 -2.301,1.003 0,0"
       style="fill:#ffffff;fill-opacity:1;fill-rule:nonzero;stroke:none"
       transform="matrix(1.3333333,0,0,-1.3333333,602.86627,235.1184)"
       clip-path="url(#clipPath56)" />
    <path
       id="path57"
       d="m 0,0 c -3.452,0 -6.293,-1.129 -8.521,-3.386 -2.228,-2.257 -3.341,-5.142 -3.341,-8.653 0,-3.541 1.113,-6.47 3.341,-8.786 2.228,-2.317 5.069,-3.474 8.521,-3.474 3.453,0 6.3,1.157 8.543,3.474 2.242,2.316 3.363,5.245 3.363,8.786 0,3.511 -1.113,6.396 -3.341,8.653 C 6.337,-1.129 3.482,0 0,0 m 0,9.34 c 7.17,0 12.983,-2.008 17.438,-6.02 4.457,-4.013 6.685,-9.163 6.685,-15.447 0,-6.315 -2.228,-11.479 -6.685,-15.492 -4.455,-4.013 -10.268,-6.02 -17.438,-6.02 -7.141,0 -12.939,2.007 -17.395,6.02 -4.456,4.013 -6.683,9.177 -6.683,15.492 0,6.284 2.235,11.434 6.706,15.447 4.47,4.012 10.261,6.02 17.372,6.02"
       style="fill:#ffffff;fill-opacity:1;fill-rule:nonzero;stroke:none"
       transform="matrix(1.3333333,0,0,-1.3333333,656.14107,259.7864)"
       clip-path="url(#clipPath58)" />
    <path
       id="path59"
       d="m 0,0 c -2.893,0 -5.289,-1.085 -7.192,-3.254 -1.904,-2.169 -2.856,-4.921 -2.856,-8.255 0,-3.423 0.944,-6.219 2.833,-8.387 1.888,-2.168 4.294,-3.253 7.215,-3.253 2.921,0 5.333,1.091 7.237,3.275 1.904,2.184 2.855,4.972 2.855,8.365 0,3.305 -0.959,6.049 -2.877,8.234 C 5.297,-1.093 2.892,0 0,0 m 20.758,-21.777 h 0.753 c 1.593,0 2.788,-0.406 3.586,-1.217 0.796,-0.812 1.195,-1.999 1.195,-3.564 0,-1.741 -0.421,-2.995 -1.263,-3.761 -0.841,-0.769 -2.263,-1.152 -4.271,-1.152 h -6.771 c -0.857,0 -1.512,0.17 -1.97,0.509 -0.457,0.339 -0.686,0.804 -0.686,1.395 v 3.098 c -1.446,-1.977 -3.306,-3.489 -5.577,-4.537 -2.273,-1.047 -4.825,-1.571 -7.657,-1.571 -5.784,0 -10.623,1.97 -14.518,5.909 -3.895,3.939 -5.843,8.859 -5.843,14.762 0,6.136 1.97,11.226 5.91,15.269 3.938,4.042 8.947,6.064 15.026,6.064 2.096,0 4.139,-0.347 6.13,-1.04 C 6.795,7.693 8.615,6.712 10.269,5.443 V 16.642 H 4.382 c -2.036,0 -3.482,0.39 -4.337,1.172 -0.857,0.783 -1.284,2.029 -1.284,3.741 0,1.741 0.427,2.994 1.284,3.762 0.855,0.767 2.301,1.151 4.337,1.151 h 13.765 c 1.002,0 1.689,-0.206 2.058,-0.62 0.369,-0.413 0.553,-1.181 0.553,-2.301 z"
       style="fill:#ffffff;fill-opacity:1;fill-rule:nonzero;stroke:none"
       transform="matrix(1.3333333,0,0,-1.3333333,725.4092,261.20173)"
       clip-path="url(#clipPath60)" />
    <path
       id="path61"
       d="m 0,0 c -0.503,2.745 -1.793,4.869 -3.873,6.374 -2.081,1.505 -4.788,2.258 -8.121,2.258 -3.218,0 -5.807,-0.717 -7.77,-2.148 C -21.726,5.053 -23.09,2.893 -23.857,0 Z m -23.857,-6.905 c 0.767,-3.275 2.25,-5.725 4.448,-7.348 2.198,-1.623 5.127,-2.434 8.786,-2.434 3.658,0 7.273,0.893 10.844,2.678 3.57,1.784 5.724,2.679 6.462,2.679 1.091,0 1.985,-0.407 2.678,-1.218 0.693,-0.812 1.04,-1.852 1.04,-3.121 0,-2.773 -2.05,-5.164 -6.152,-7.17 -4.102,-2.006 -9.178,-3.01 -15.226,-3.01 -7.141,0 -12.947,2.007 -17.418,6.02 -4.469,4.013 -6.705,9.177 -6.705,15.492 0,6.284 2.236,11.434 6.705,15.447 4.471,4.012 10.277,6.02 17.418,6.02 6.373,0 11.655,-1.882 15.846,-5.644 4.19,-3.762 6.285,-8.373 6.285,-13.832 0,-1.741 -0.421,-2.936 -1.262,-3.585 C 9.051,-6.58 7.317,-6.905 4.691,-6.905 Z"
       style="fill:#ffffff;fill-opacity:1;fill-rule:nonzero;stroke:none"
       transform="matrix(1.3333333,0,0,-1.3333333,815.50947,270.17307)"
       clip-path="url(#clipPath62)" />
    <path
       id="path63"
       d="m 0,0 c 0,2.214 0.221,3.646 0.663,4.294 0.442,0.649 1.283,0.975 2.524,0.975 1.062,0 1.858,-0.275 2.39,-0.82 C 6.107,3.903 6.373,3.054 6.373,1.903 V 0 -14.561 c 0,-1.033 -0.281,-1.837 -0.841,-2.413 -0.56,-0.575 -1.343,-0.863 -2.345,-0.863 h -39.261 -2.08 c -1.062,0 -1.86,0.266 -2.39,0.797 -0.532,0.531 -0.797,1.327 -0.797,2.39 0,1.18 0.317,1.985 0.952,2.413 0.633,0.426 2.072,0.64 4.315,0.64 h 5.532 v 39.881 h -5.532 c -2.184,0 -3.607,0.228 -4.272,0.686 -0.663,0.457 -0.995,1.29 -0.995,2.501 0,1.092 0.273,1.895 0.82,2.413 0.544,0.514 1.393,0.773 2.543,0.773 h 1.904 19.962 2.081 c 1.062,0 1.873,-0.265 2.433,-0.796 0.561,-0.532 0.842,-1.328 0.842,-2.39 0,-1.211 -0.332,-2.044 -0.996,-2.501 -0.664,-0.458 -2.118,-0.686 -4.36,-0.686 h -7.436 V -11.597 H 0 Z"
       style="fill:#ffffff;fill-opacity:1;fill-rule:nonzero;stroke:none"
       transform="matrix(1.3333333,0,0,-1.3333333,916.7908,279.38013)"
       clip-path="url(#clipPath64)" />
    <path
       id="path65"
       d="m 0,0 c -1.623,0.53 -3.195,0.921 -4.714,1.173 -1.52,0.25 -3.033,0.376 -4.537,0.376 -4.544,0 -8.13,-0.769 -10.756,-2.302 -2.626,-1.535 -3.939,-3.601 -3.939,-6.197 0,-2.006 0.819,-3.658 2.457,-4.957 1.637,-1.298 3.724,-1.947 6.262,-1.947 3.748,0 7.222,0.98 10.423,2.943 C -1.601,-8.948 0,-6.905 0,-4.781 Z m 0.354,-13.942 c -2.42,-2.186 -5.053,-3.852 -7.901,-5.002 -2.849,-1.151 -5.775,-1.727 -8.786,-1.727 -4.396,0 -7.945,1.225 -10.646,3.674 -2.699,2.449 -4.049,5.636 -4.049,9.56 0,4.662 1.793,8.278 5.378,10.844 3.586,2.568 8.624,3.851 15.115,3.851 1.712,0 3.437,-0.111 5.179,-0.332 C -3.615,6.705 -1.83,6.357 0,5.887 v 0.308 c 0,3.394 -0.812,5.902 -2.436,7.526 -1.623,1.622 -4.144,2.434 -7.567,2.434 -2.302,0 -4.869,-0.62 -7.702,-1.859 -2.832,-1.239 -4.707,-1.859 -5.621,-1.859 -0.857,0 -1.565,0.347 -2.125,1.041 -0.561,0.692 -0.841,1.585 -0.841,2.677 0,1.741 1.631,3.216 4.891,4.425 3.26,1.21 7.428,1.816 12.504,1.816 5.193,0 9.118,-1.321 11.773,-3.961 C 5.532,15.793 6.86,11.89 6.86,6.728 v -20.052 h 2.168 c 2.096,0 3.497,-0.221 4.206,-0.663 0.708,-0.443 1.062,-1.24 1.062,-2.391 0,-1.062 -0.296,-1.858 -0.886,-2.39 -0.59,-0.531 -1.475,-0.796 -2.655,-0.796 H 3.807 c -0.828,0 -1.506,0.25 -2.036,0.752 -0.533,0.501 -0.886,1.224 -1.063,2.169 z"
       style="fill:#ffffff;fill-opacity:1;fill-rule:nonzero;stroke:none"
       transform="matrix(1.3333333,0,0,-1.3333333,979.44827,277.0768)"
       clip-path="url(#clipPath66)" />
    <path
       id="path67"
       d="m 0,0 c 4.16,0 7.538,1.312 10.136,3.939 2.595,2.626 3.894,6.035 3.894,10.224 0,4.102 -1.321,7.482 -3.961,10.137 C 7.428,26.955 4.071,28.283 0,28.283 c -4.102,0 -7.458,-1.321 -10.07,-3.962 -2.612,-2.64 -3.917,-6.027 -3.917,-10.158 0,-4.13 1.305,-7.523 3.917,-10.18 C -7.458,1.328 -4.102,0 0,0 m -13.81,28.372 c 1.653,2.065 3.717,3.644 6.197,4.735 2.478,1.092 5.282,1.638 8.409,1.638 5.932,0 10.873,-1.999 14.828,-5.997 3.953,-3.999 5.931,-8.948 5.931,-14.85 0,-5.813 -2.029,-10.741 -6.086,-14.783 -4.058,-4.044 -9.007,-6.064 -14.849,-6.064 -3.099,0 -5.799,0.547 -8.1,1.637 -2.302,1.092 -4.191,2.745 -5.666,4.958 v -3.542 c 0,-0.795 -0.141,-1.371 -0.42,-1.725 -0.282,-0.354 -0.747,-0.531 -1.395,-0.531 h -8.1 c -1.15,0 -2.007,0.265 -2.567,0.797 -0.56,0.531 -0.841,1.327 -0.841,2.389 0,1.181 0.339,1.986 1.018,2.413 0.679,0.427 2.02,0.641 4.028,0.641 h 0.929 v 45.325 h -0.841 c -2.006,0 -3.379,0.235 -4.116,0.708 -0.737,0.472 -1.106,1.298 -1.106,2.479 0,1.062 0.293,1.858 0.885,2.39 0.59,0.531 1.461,0.796 2.611,0.796 h 6.728 c 0.886,0 1.527,-0.148 1.926,-0.442 0.397,-0.296 0.597,-0.753 0.597,-1.372 z"
       style="fill:#ffffff;fill-opacity:1;fill-rule:nonzero;stroke:none"
       transform="matrix(1.3333333,0,0,-1.3333333,1041.3376,294.9596)"
       clip-path="url(#clipPath68)" />
  </g>
</svg>
