<svg width="500" height="500" version="1.1" viewBox="0 0 500 500" xmlns="http://www.w3.org/2000/svg"><g transform="matrix(1.3333 0 0 -1.3333 61.024 364.59)"><g transform="scale(.1)"><path d="m1089.9 1365.2c3.12-1.11 6.23-2.22 9.21-3.45 46.12-18.85 59.43-46.29 70.32-96.98 2.05-9.49 5.18-19.09 9.35-28.63-3.13 1.08-6.18 2.05-9.19 3.01-9.73 3.08-18.93 6-29.53 12.39-34.4 20.76-53.72 46.3-60.78 80.35-1.7 8.24-2.34 19.36-2.96 30.12-0.17 2.94-0.36 5.87-0.54 8.72 4.65-2.15 9.43-3.85 14.12-5.53zm-21.97-35.66c7.66-36.93 29.29-65.68 66.15-87.92 11.77-7.11 22.06-10.37 32-13.53 7.36-2.33 14.33-4.53 22.07-8.24 0.79-0.38 1.65-0.56 2.5-0.56 1.55 0 3.08 0.62 4.21 1.8 1.72 1.81 2.08 4.55 0.88 6.76-7.14 13.11-12.17 26.35-14.98 39.35-11.52 53.59-26.63 84.59-77.27 105.29-3.15 1.28-6.4 2.45-9.69 3.62-7.24 2.59-14.73 5.26-20.89 9.4-1.14 1-2.66 1.62-4.27 1.43-3.19-0.25-5.58-3.03-5.33-6.22v-0.05c0.01-0.08 0.02-0.15 0.03-0.21 0.63-5.8 1.01-12.4 1.4-19.12 0.64-11.18 1.31-22.73 3.19-31.8zm-8.9-258.59c3.94-11.07 11.24-20.52 18.93-29.25 5.88-6.67 11.9-13.26 18.13-19.62 2.57-2.64 5.19-5.23 7.85-7.77 1.55-1.49 3.85-3.43 6.16-2.91 2.38 0.54 3.28 3.4 3.75 5.8 2.39 12.07 4.98 24.1 6.55 36.31 2.75 21.34 2.6 43.32-3.3 64.02-5.9 20.69-17.89 40.06-35.53 52.38-2.31 1.62-7 4.45-9.92 2.57-2.65-1.72-2.89-7.58-3.33-10.4-2.35-15.31-7.28-30.09-10.33-45.27s-4.15-31.27 1.04-45.86zm-637.42 111.7c49.489-4.24 96.329-19.48 139.24-45.29 1.324-0.8 2.722-1.2 4.109-1.2 1.235 0 2.445 0.31 3.574 0.93 2.621 1.46 4.36 4.36 4.407 7.39 0.058 2.81-1.36 5.29-3.875 6.8-44.887 27.03-94.364 43.01-147.04 47.53-2.734 0.19-5.191-0.83-6.66-2.91-1.648-2.37-1.863-5.72-0.554-8.54 1.281-2.73 3.761-4.44 6.8-4.71zm556.28-501.11c13.172 2.07 22.463 14.332 20.515 27.07-1.648 10.75-11.203 17.723-22.043 16.07-11.824-1.797-21.64-15.43-19.722-27.398 1.773-11.102 10.363-17.453 21.25-15.742zm251.08 751.05c0.55-3.84 3.36-6.28 7.02-6.28 0.41 0 0.83 0.03 1.25 0.09 4.39 0.63 8.46 4.53 7.68 9.94-7.82 54.63-23.89 107.79-47.79 158.02-1.21 2.55-3.4 4.13-5.99 4.33-2.79 0.24-5.96-1.29-7.75-3.89-1.73-2.52-1.96-5.57-0.62-8.36 22.94-48.26 38.49-100.03 46.2-153.85zm-685.66-183.6c44.847-16.25 85.863-40.12 121.92-70.93 1.633-1.4 3.477-2 5.282-2 2.562 0 5.031 1.24 6.66 3.12 2.875 3.38 2.551 7.73-0.789 10.58-37.957 32.45-81.16 57.58-128.41 74.73-4.172 1.49-8.078-0.38-9.586-4.56-1.442-3.96 8e-3 -9.14 4.922-10.94zm574.55-40.72c-0.43 4.22-0.85 8.52-1.51 12.95 7.85-3.25 15.45-5.32 23.35-7.48 6.23-1.7 12.67-3.46 19.5-5.9 30.63-10.89 49.01-22.67 58.36-53.64 1.64-5.44 3.03-11.82 4.52-18.57 1.86-8.54 3.89-17.8 6.76-26.47-9.21 3.58-18.73 6.43-28.02 9.22-19.27 5.78-37.47 11.23-52.59 22.35-16.04 11.79-22.13 27.39-26.32 42.49-2.41 8.64-3.2 16.61-4.05 25.05zm23.5-76.87c16.74-12.31 36.77-18.31 56.13-24.12 13.47-4.04 27.41-8.21 39.64-14.45 0.84-0.42 1.73-0.63 2.63-0.63 1.52 0 3.03 0.6 4.14 1.74 1.77 1.81 2.16 4.56 0.97 6.79-5.58 10.43-8.58 24.13-11.47 37.38-1.54 6.97-2.98 13.56-4.75 19.45-10.71 35.5-32.15 49.32-65.57 61.21-7.24 2.57-13.89 4.39-20.32 6.14-10.74 2.94-20.87 5.71-31.46 11.57-1.83 1.03-4.09 1.03-5.9-0.1-2.17-1.33-3.21-3.92-2.59-6.38 2.01-7.77 2.74-15.11 3.52-22.88 0.86-8.56 1.74-17.4 4.41-27.01 4.53-16.29 11.7-34.8 30.62-48.71zm103.21 87.5-1.72-2.42c-4.18-5.86-8.19-11.5-11.75-17.74-12.93 17.56-21.63 33.67-23.68 44.04-7.8 39.42 3.49 63.06 16.55 90.44 6.71 14.05 13.61 28.51 18.28 45.93 10.03-12.02 20.27-25.98 24.96-39.06 17.99-50.14 6.49-80.16-22.64-121.19zm-2.91 177.95c-0.41 0.19-0.85 0.35-1.33 0.44h-0.01-0.01v0.01h-0.02c-0.16 0.03-0.29 0.06-0.44 0.08h-0.01-0.01-0.02c-2.92 0.41-5.74-1.65-6.34-4.62-0.03-0.19-0.06-0.35-0.07-0.53-4.14-21.05-12.14-37.8-19.89-54.02-13.37-28.02-26-54.48-17.47-97.67 3.86-19.47 23.29-45.8 31.48-56.22 1.1-1.4 2.79-2.2 4.55-2.2 0.24 0 0.48 0 0.71 0.03 2.01 0.25 3.75 1.53 4.59 3.38 3.95 8.83 9.04 15.97 14.92 24.24l1.73 2.41c30.75 43.33 43.7 77.17 24.1 131.83-6.5 18.09-21.14 36.15-34.6 51.43-0.51 0.6-1.16 1.07-1.86 1.41zm-675.54-1016.9c-7.554-14.879-19.683-24.629-35.129-31.219-5.742-1.722-11.468-4.421-18.242-4.109-6.473 0.309-11.902 1.469-14.676 7.887-2.215 5.14 0.43 11.172 6.039 16.25 8.329 7.543 18.52 11.301 28.973 14.172 9.371 2.57 19.121 3.668 28.867 3.839 6.356 0.122 7-1.242 4.168-6.82zm186.78 82c-2.343 0.762-3.066-1.879-4.25-3.398-1.742-2.274-3.535-4.512-5.5-6.563-14.773-15.48-34.21-21.937-54.105-26.687-25.492-6.102-51.715-6.34-77.75-7.864-3.629-0.199-4.941 1.512-4.629 4.723 0.359 3.731 1.156 7.418 1.543 11.149 4.133 39.949 1.102 79.871-0.301 119.81-0.89 25.363-2.433 50.75 0.918 76.043 2.297 17.309 6.617 33.82 18.848 47.258 15.098 16.59 41.656 19.012 56.676 4.383 12.793-12.473 17.769-28.403 17.281-45.934-0.371-13.277-4.063-25.348-15.957-33.34-7.887-5.308-19.223-4.25-23.84 2.992-4.426 6.95-7.148 14.59-7.457 23.098-0.344 9.371 1.156 18.383 4.527 28.953-2.289-1.48-3.136-1.801-3.664-2.41-2.461-2.82-5.144-5.512-7.183-8.633-13.813-21.058-17.59-43.25-6.36-66.668 5.711-11.89 18.629-21.148 33.825-19.949 20.089 1.578 33.867 12.52 42.695 29.52 15.582 30 14.277 60.507-2.067 89.57-14.273 25.379-40.617 35.668-68.699 27.848-32.14-8.938-52.687-30.45-65.062-60.528-10.047-24.422-13.512-50.179-15.391-76.32-2.004-27.883-0.586-55.68 0.813-83.481 1.093-21.621 2.839-43.21 4.289-64.808 0.289-4.332-1.602-6.422-6.067-6.883-23.894-2.469-46.336-9.867-67.59-20.859-10.535-5.442-19.527-12.828-26.222-22.871-9.598-14.387-5.223-35.188 9.398-44.34 15.012-9.399 31.102-8.09 46.832-3.61 29.934 8.539 51.852 27.2 64.844 55.653 2.617 5.726 6.012 6.34 11.52 5.578 27.71-3.852 55.332-9.621 83.542-4.11 29.883 5.821 52.067 21.348 63.778 50.122 3.558 8.738 4.172 18.039 3.211 27.386-0.199 1.934-0.489 4.524-2.446 5.172zm652.18 767.26c6.92-4.56 14.78-9.71 21.94-15.24 0.86-0.66 1.9-1 2.95-1 0.54 0 1.08 0.09 1.61 0.27 1.55 0.55 2.71 1.85 3.09 3.44 3.13 13.16 6.98 39.13-2.37 65.32-9.04 25.31-25.5 37.45-34.37 43.98-12.52 9.23-26.61 15.11-41.9 17.51-1.29 0.21-2.62-0.14-3.67-0.93-1.03-0.79-1.72-1.98-1.87-3.28-3.86-32.85 0.64-59.07 12.99-75.82 6.98-9.48 19.03-19.41 41.6-34.25zm-43.82-72.01c4.07-9.97 9.73-19.21 16.34-27.7 7.25-9.3 15.59-17.72 24.34-25.62 5.26-4.74 10.74-9.24 16.22-13.72 4.51-3.69 8.99-7.42 13.46-11.16 0.98-0.82 2-1.66 3.24-2 1.71-0.46 3.67 0.2 4.74 1.62 1.36 1.8 1.15 4.19 1.23 6.31 0.09 2.48 0.3 4.97 0.45 7.44 0.34 5.46 0.75 10.9 1.25 16.35 1.42 15.9 1.69 31.58-3.73 46.82-4.21 11.8-11.04 22.4-19.51 31.6-10.93 11.86-24.02 21.6-37.31 30.62-5.65 3.85-11.27 7.83-17.09 11.41-1.79 1.17-3.27 2.21-5.49 1.38-1.58-0.6-2.73-1.98-3.04-3.64-2.27-12.48-3.42-25.19-2.48-37.87 0.82-10.92 3.24-21.69 7.38-31.84zm146.29 288.34c1.45 0 2.92 0.35 4.22 1.06 2.54 1.38 4.05 3.89 4.12 6.89 1.44 56.41 5.92 113.26 13.3 168.96 0.55 4.24-2.01 7.59-6.25 8.15-4.36 0.65-9.41-2.07-10.13-7.51-7.39-55.91-11.87-112.93-13.33-169.47-0.08-2.92 1.23-5.42 3.56-6.85 1.35-0.82 2.92-1.23 4.51-1.23zm-60.09 96.82h0.22c3.99 0.1 7.95 2.91 7.83 8.06v0.01c-1.37 53.2-5.06 107.3-10.97 160.77-0.33 3.13-2.19 5.64-5.06 6.9-2.9 1.29-6.25 0.99-8.59-0.7-2.04-1.51-3.04-3.96-2.73-6.72 5.89-53.34 9.56-107.29 10.92-160.38 0.15-5.2 4.37-7.94 8.38-7.94zm-5.88-224.67c-0.04-9.27 4.58-23.89 13.02-41.16 0.68-1.41 2.02-2.4 3.56-2.65 0.26-0.04 0.52-0.06 0.77-0.06 1.29 0 2.54 0.51 3.46 1.45 3.87 3.95 8.08 7.42 12.57 11.13l1.86 1.55c32.28 26.74 48.44 49.7 41.45 94.39-1.56 9.99-6.34 21.77-15.02 37.06-0.86 1.51-2.66 2.59-4.23 2.44-1.76-0.01-3.37-0.98-4.2-2.51-6.65-12.19-14.77-21.88-22.73-31.37-15.63-18.64-30.37-36.24-30.51-70.27zm2.32 81.61c1.39-4.74 1.77-14.24 8.95-11.83 5 1.66 10.62 14.14 12.8 18.23 15.16 28.38 15.72 61.63 3.07 91-3.2 7.46-7.23 16.69-12.91 22.72-9.46 10.05-19.04-7.06-25.44-14.59-8.19-9.63-17.39-20.91-20.47-33.47-2.76-11.21 2.48-19.16 9.59-27.65 11.03-13.2 19.55-27.83 24.41-44.41zm-1148.3-453.35c66.925 2.653 132.31-9.367 194.48-35.566 1.062-0.445 2.113-0.668 3.117-0.668 1.445 0 2.805 0.453 3.985 1.348 2.261 1.718 3.468 4.855 3.082 8.007-0.407 3.176-2.309 5.707-5.235 6.942-63.594 26.781-130.69 38.969-199.62 36.359-5.344-0.223-8.058-4.687-7.902-8.801 0.16-3.945 3.105-7.539 8.094-7.621zm1065.7 511.13c-4.88-10.21-8.04-20.95-9.39-31.93-2.95-23.88 1.09-44.63 11.37-58.42 6.24-8.39 12.89-11.85 19.93-15.51 7.43-3.87 15.86-8.26 26.39-20.03 2.9-3.23 5.64-6.68 8.17-10.26 0.92-1.29 2.4-2.03 3.94-2.03 0.31 0 0.61 0.03 0.92 0.08 1.86 0.36 3.34 1.77 3.78 3.61 4.46 18.51 7.69 46.78-2.24 76.37-2.85 8.54-10.46 31.23-31.19 47.33-7.76 6.03-16.49 10.52-25.95 13.33-2.28 0.68-4.71-0.4-5.73-2.54zm10.9 30.34c1.26-0.61 2.64-0.91 4-0.91 1.68 0 3.34 0.47 4.69 1.39 2.17 1.47 3.29 3.94 3.08 6.77-4.06 55.14-12.84 110.25-26.09 163.78-0.7 2.85-2.62 4.9-5.26 5.66-2.96 0.86-6.25 0-8.47-2.14-2.09-2.02-2.86-4.83-2.13-7.75 13.02-52.59 21.62-106.39 25.55-159.91 0.21-3.06 1.91-5.57 4.63-6.89zm-55.96-230.36c5.86-10.33 10.74-20.86 12.59-32.43 6.72-41.58-1.18-78.04-26.44-121.9-2.73-4.73-5.67-9.48-8.64-14.28-4.89-7.89-9.88-15.96-14.14-24.29-1.34 3.38-2.73 6.82-4.12 10.28-11.61 28.75-23.62 58.46-17.15 85.47 6.35 26.4 19.57 43.47 33.57 61.55 8.45 10.91 17.12 22.11 24.33 35.6zm-69.16-94.46c-7.33-30.6 5.95-63.48 17.66-92.5 3.2-7.92 6.33-15.65 8.92-23.06 0.81-2.3 2.96-3.85 5.4-3.88h0.07c2.41 0 4.57 1.49 5.43 3.74 4.54 12.02 11.91 23.93 19.04 35.46 3.03 4.89 6.04 9.76 8.82 14.59 26.34 45.74 34.94 85.68 27.86 129.53-2.75 17.06-10.8 31.39-19.54 45.76-0.93 1.59-2.6 2.66-4.5 2.82-2.55 0.28-4.8-1.18-5.8-3.44-7.36-16.82-17.7-30.15-27.69-43.05-14.14-18.25-28.76-37.14-35.67-65.97zm-393.09-61.79c11.27-3.88 21.914-7.54 32.223-13.3 20.609-11.49 33.422-24.21 39.183-38.88 7.797-19.85 7.371-39.79 6.918-60.883-0.125-5.977-0.258-12.066-0.191-18.219-6.172 4.739-13.035 9.117-19.75 13.407-6.07 3.867-11.797 7.527-16.445 11.113-25.524 19.652-35.063 41.242-42.207 69.702-1.391 5.56-2.485 10.84-3.543 15.97-1.719 8.32-3.387 16.35-6.102 24.56 3.336-1.21 6.652-2.35 9.914-3.47zm-14.926-23.39c1.086-5.28 2.215-10.71 3.645-16.43 7.734-30.82 18.172-54.28 46.289-75.942 5.047-3.883 10.988-7.676 17.266-11.684 10.226-6.523 20.796-13.277 27.925-20.758 1.098-1.148 2.598-1.757 4.114-1.757 0.773 0 1.562 0.16 2.296 0.484 2.196 0.965 3.543 3.211 3.368 5.605-0.739 10.188-0.52 20.547-0.309 30.555 0.465 21.297 0.938 43.317-7.691 65.297-6.762 17.21-21.231 31.8-44.235 44.64-11.183 6.24-22.804 10.24-34.047 14.11-7.066 2.43-14.375 4.95-21.386 7.97-0.239 0.11-0.477 0.19-0.727 0.27-2.535 0.74-5.324-0.32-6.625-2.67-0.976-1.77-0.879-3.9 0.07-5.6 5.352-11.41 7.633-22.43 10.047-34.09zm-4.675 160.27c-19.965 40.1-47.29 75.33-81.211 104.74-4.161 3.57-9.321 2.13-12.075-1.05-2.957-3.43-2.664-7.87 0.707-10.8 32.711-28.36 59.036-62.29 78.254-100.88 1.489-3 4.067-4.27 6.629-4.27 1.285 0 2.567 0.32 3.707 0.89 3.754 1.87 6.422 6.49 3.989 11.37zm27.195-260.77c41.273-13.414 65.418-42.012 76.914-59.57-16.086-0.539-32.371-1.336-48.535-2.395-17.223-1.129-28.942-2.203-37.629-2.988-12.906-1.16-18.758-1.719-26.031-0.938-26.7 2.813-52.957 21.477-78.129 55.489 18.363 9.531 62.211 27.046 113.41 10.402zm-36.473-77.18c2.758-0.289 5.324-0.429 8-0.429 5.453 0 11.367 0.546 20.254 1.351 8.613 0.789 20.254 1.848 37.336 2.965 19.293 1.254 38.762 2.152 57.844 2.66 1.988 0.047 3.801 1.141 4.785 2.863 0.98 1.727 0.992 3.844 0.031 5.571-9.082 16.281-35.859 55.972-88.269 72.988-61.825 20.102-113.72-5.945-128.14-14.418-1.371-0.805-2.34-2.145-2.684-3.695-0.332-1.555 0-3.18 0.918-4.477 28.258-40.07 58.52-62.062 89.926-65.379zm-21.894 114.6c-21.68-2.67-35.848-6.64-47.239-9.83-9.324-2.61-16.687-4.673-24.683-4.962-23.11-0.903-47.676 13.352-73.449 42.202 22.5 9.69 68.062 23.53 118.32 6.24 19.371-6.66 37.57-17.45 53.266-31.5-8.758-0.36-17.524-1.08-26.211-2.15zm-157.11 34.53c-1.566-0.77-2.703-2.22-3.066-3.94-0.359-1.7 0.082-3.49 1.211-4.82 29.086-34.49 57.707-51.949 85.109-51.949 0.785 0 1.567 0.016 2.344 0.047 9.348 0.328 17.293 2.559 27.332 5.375 11.02 3.086 24.742 6.927 45.57 9.487 12.649 1.56 25.489 2.35 38.18 2.35 0.121 0 0.309 0.03 0.332 0 2.266 0 4.316 1.35 5.211 3.43 0.898 2.09 0.473 4.5-1.09 6.15-18.91 19.95-42.207 35.07-67.379 43.73-60.019 20.62-113.52-0.03-133.75-9.86zm146.63 83.05c21.781-23.35 27.063-50.86 28.117-67-8.582 5.88-17.492 11.52-26.605 16.87-10.16 5.97-17.93 9.99-21.246 11.71l-1.125 0.58c-17.508 9.19-37.371 33.14-59.102 71.29 17.254-0.03 52.563-4.1 79.961-33.45zm-26.133-47.89 1.18-0.61c3.234-1.68 10.816-5.6 20.719-11.42 12.094-7.08 23.816-14.73 34.847-22.73 0.977-0.7 2.149-1.06 3.325-1.06 0.84 0 1.679 0.18 2.468 0.56 1.883 0.91 3.11 2.77 3.204 4.86 0.515 11.75-0.204 52.7-31.317 86.03-37.543 40.23-88.402 37.57-98.25 36.64-1.894-0.19-3.574-1.31-4.473-3.01-0.894-1.68-0.878-3.7 0.04-5.38 24.929-45.42 47.261-72.87 68.257-83.88zm83.5 327.64c39.989-30.31 74.942-66.6 103.9-107.87 1.621-2.31 4.074-3.6 6.805-3.6 0.261 0 0.515 0.02 0.781 0.03 3.129 0.27 5.961 2.18 7.207 4.83 1.101 2.36 0.801 5.04-0.82 7.36-30.27 43.13-66.973 81.19-109.1 113.11-2.231 1.69-4.75 2.08-7.109 1.1-2.641-1.11-4.594-3.86-4.993-7.01-0.394-3.14 0.821-6.04 3.332-7.95zm62.828-183.9c7.415-2 14.356-5.16 21.161-8.68 5.843-3.01 13.672-10.6 19.797-12.14 13.859-3.48 5.453 23.14 3.386 30.33-3.988 13.89-12.035 25.71-21.742 36.26-18.684 20.32-43.652 31.8-70.187 38.07-10.067 2.42-6.582-29.51-6.125-34.6 1.199-13.44 5.089-27.21 15.316-36.65 10.242-9.45 25.504-9.11 38.394-12.59zm55.536-178.28c14.359-3.57 29.3-3.74 44.009-3.29 3.41 0.11 6.83 0.24 10.24 0.39 3.95 0.16 7.91 0.34 11.86 0.47 5.41 0.16 12.03-1.12 17.16 0.77 8.15 2.98-2.15 17.63-4.38 21.85-3 5.66-6.42 11.1-10.35 16.16-8.29 10.68-18.93 19.56-31.62 24.49-15.333 5.94-32.818 5.84-59.15 5.76-6.34-0.02-12.68-0.22-19.015-0.57-4.27-0.24-13.86 1.06-15.743-4.04-1.199-3.25 1.965-7.58 3.368-10.37 9.355-18.58 22.777-37.25 41.644-47.03 3.805-1.97 7.816-3.56 11.977-4.59zm-45.223 155.21c-13.785 5.76-28.766 8.16-43.645 8.36-7.457 0.1-14.898-0.38-22.304-1.2-3.809-0.42-11.469 0.05-12.871-4.63-0.516-1.73 0.054-3.59 0.875-5.19 10.586-20.61 25.414-38.79 45.359-50.99 27.352-16.72 60.422-20.29 91.77-16.97 0.468 0.05 0.937 0.09 1.406 0.15 3.887 0.44 13.972 0.63 11.992 7.01-1.25 4.02-6.016 6.38-8.832 9.16-3.984 3.92-7.781 8.03-11.422 12.27-19 22.08-34.644 34.65-52.328 42.03zm222.15 268.66c13.98-10.49 49.91-42.08 51.31-90.73 0.56-19.3-4.44-35.86-10.22-48.36-5.76 12.79-13.14 24.42-22.04 34.72-8.28 9.56-15.41 15.12-21.14 19.61-5.72 4.45-9.85 7.67-12.88 12.99-8.6 15.14-3.57 39.27 14.97 71.77zm-25.04-77.5c4.16-7.31 9.57-11.53 15.82-16.4 5.61-4.39 11.98-9.35 19.5-18.06 10.63-12.29 18.92-26.7 24.65-42.84 0.75-2.11 2.66-3.61 4.89-3.82 0.19-0.02 0.38-0.03 0.57-0.03 2.03 0 3.93 1.07 4.98 2.83 8.45 14.21 18.34 37.09 17.52 65.44-1.8 62.89-55.43 99.63-61.55 103.61-1.32 0.86-2.91 1.14-4.46 0.79-1.54-0.36-2.86-1.32-3.67-2.67-23.75-39.64-29.7-68.71-18.25-88.85zm-392.74 17.55c45.285-18.16 83.676-47.15 114.08-86.14 1.516-1.95 3.555-2.95 5.656-2.95 1.559 0 3.16 0.55 4.606 1.68 3.496 2.72 5.101 8.11 1.742 12.43-31.649 40.59-72.43 71.09-121.21 90.65-3.996 1.6-7.969-0.08-9.598-4.13-1.636-4.09-0.312-9.52 4.723-11.54zm329.72 10c1.19-4 4.53-5.78 7.79-5.78 0.86 0 1.72 0.12 2.54 0.37 3.84 1.13 6.95 4.89 5.47 9.86-14.7 49.61-32.21 99.11-52 147.11-1.21 2.91-3.71 4.83-6.86 5.25-3.12 0.43-6.3-0.77-8.05-3.04-1.54-2-1.81-4.54-0.74-7.13 19.74-47.86 37.19-97.19 51.85-146.64zm-491.68-557.72c0.672 0 1.328 0.137 1.953 0.411 10.336 4.558 21.242 7.699 32.387 9.328 10.957 1.621 22.082 1.734 33.105 0.426 1.926-0.321 3.77 0.687 4.743 2.347 0.972 1.66 0.871 3.738-0.262 5.289-10.672 14.629-20.875 24.196-31.184 29.231-29.359 14.324-57.211 16.136-90.3 5.859-1.317-0.406-2.399-1.359-2.965-2.625-0.578-1.254-0.578-2.687-0.02-3.953 5.508-12.395 25.633-44.875 52.281-46.305 0.09-8e-3 0.18-8e-3 0.262-8e-3zm555.51 648.31c0.94-2.88 3.13-4.88 6-5.5 0.62-0.13 1.24-0.2 1.86-0.2 2.45 0 4.87 1.01 6.47 2.79 1.81 2 2.34 4.72 1.45 7.47-16.94 52.33-39.65 102.96-67.52 150.51-1.49 2.52-3.94 3.97-6.74 3.97h-0.06c-3.07-0.01-6.03-1.75-7.54-4.41-1.39-2.45-1.33-5.3 0.17-7.86 27.27-46.52 49.45-95.9 65.91-146.77zm-471.02-615.89c7.524-10.734 11.297-16.129 19.481-22.398 3.594-2.746 13.488-9.586 27.851-13.871 8.415-2.5 17.293-3.781 26.153-3.781 4.179 0 8.351 0.285 12.472 0.851 1.297 0.18 2.469 0.875 3.243 1.938 0.777 1.054 1.082 2.371 0.867 3.668-1.961 11.355-10.957 49.89-44.504 69.226-19.996 11.524-43.68 13.063-52.93 13.184-6.5 0.14-13.004-0.36-19.402-1.348-1.707-0.262-3.149-1.418-3.774-3.035-0.621-1.617-0.328-3.434 0.758-4.777 7.809-9.637 15.106-19.161 22.313-29.122 2.937-4.058 5.359-7.527 7.472-10.535zm79.09 189.81c-11.996 0.61-24.051 0.63-36.015 0.05-11.805-0.57-19.563-1.52-25.789-2.29-4.661-0.57-8.344-1.02-12.012-1.08h-0.813c-20.039 0-41.531 11.89-63.972 35.39 16.324 7.78 59.039 23.73 100.61 2.31 18.004-9.28 30.133-22.62 37.992-34.38zm-150.65 38.59c-1.485-0.86-2.5-2.33-2.778-4.02-0.269-1.7 0.239-3.41 1.375-4.69 26.497-29.57 52.536-44.55 77.415-44.55 0.332 0 0.671 0 0.996 0.01 4.277 0.07 8.222 0.54 13.211 1.15 6.05 0.75 13.574 1.68 24.968 2.22 15.121 0.74 30.399 0.48 45.469-0.76 1.902-0.18 4.066 0.81 5.211 2.55 1.145 1.75 1.238 3.98 0.238 5.8-7.965 14.75-22.8 35.06-48.258 48.17-55.167 28.44-111.6-2.3-117.85-5.88zm-45.43-279.31c-11.894 3.516-23.824 7.278-35.808 11.055-49.754 15.656-101.19 31.848-153.76 31.988h-0.028c-5.234 0-7.98-4.101-8-8.164-7e-3 -4.086 2.735-8.238 8.008-8.258 50.582-0.125 100.6-15.937 148.96-31.218 12.117-3.84 24.18-7.657 36.176-11.204 0.82-0.242 1.641-0.363 2.434-0.363 1.921 0 3.722 0.707 5.14 2.055 2.207 2.078 3.16 5.379 2.442 8.398-0.668 2.781-2.707 4.871-5.563 5.711zm-111.88 135.65c0.051-4.028 2.977-8.118 8.039-7.977 53.176 0.82 104.73-10.016 152.59-32.113 1.184-0.547 2.41-0.821 3.621-0.821 1.684 0 3.336 0.528 4.809 1.555 2.586 1.824 4.082 4.875 3.82 7.77-0.234 2.558-1.832 4.707-4.375 5.879-50.824 23.48-104.67 34.941-160.53 34.152-5.266-0.09-8.039-4.406-7.969-8.445zm25.879 120.56c54.633-3.23 105.83-19.98 152.15-49.76 1.414-0.91 2.851-1.31 4.199-1.31 2.683 0 5.074 1.56 6.461 3.73 2.195 3.41 2.133 8.59-2.321 11.45-48.414 31.12-102.32 48.64-160.21 52.07-2.906 0.16-5.253-1.01-6.703-3.19-1.617-2.45-1.769-5.82-0.382-8.57 1.324-2.64 3.804-4.24 6.804-4.42zm532.7 136.22-0.015-5.6c-0.086-25.02 1.676-50.51 14.055-72.87 4.027-7.29 9.067-14.01 14.857-19.98 6.04-6.23 12.94-11.47 20.23-16.11 2.71-1.73 5.49-3.36 8.47-4.55 1.3-0.52 2.72-0.96 4.08-0.62 1.41 0.34 2.52 1.47 3.18 2.76 0.98 1.9 1.24 4.19 1.7 6.26 0.52 2.34 1.06 4.68 1.58 7.02 1.05 4.68 2.1 9.37 3.05 14.07 0.3 1.45 0.59 2.91 0.87 4.37 0.33 1.74 0.64 3.48 0.93 5.22 2.39 14.68 3.27 29.66 0.17 44.29-2.95 13.88-8.61 27.18-16.62 38.89-11.34 16.59-26.51 28.09-44.091 37.33-2.52 1.33-4.961 3.05-7.723 3.78-1.691 0.44-3.652 0.25-4.937-0.93-1.547-1.43-1.7-3.83-1.379-5.9 1.906-12.32 1.656-24.98 1.593-37.43zm1332.5-163.82c1.56 0 3.12 0.53 4.53 1.59 39.96 29.7 83.05 55.76 128.08 77.44 4 1.93 5.44 6.11 3.49 10.17-1.87 3.87-6.66 6.49-11.44 4.19-45.27-21.8-88.62-48.01-128.87-77.93-2.51-1.86-3.75-4.73-3.38-7.85 0.36-3.15 2.3-5.92 4.95-7.06 0.86-0.37 1.74-0.55 2.64-0.55zm-26.25-241.89c11.04-6.387 31.18-18.047 58.24-18.047 1.16 0 2.33 0.031 3.51 0.07 33.34 1.239 56.96 19.786 68.07 30.711 0.96 0.957 1.48 2.278 1.43 3.633-0.05 1.359-0.67 2.637-1.71 3.508-13.76 11.586-29.41 20.148-46.55 25.449-17.47 5.422-36.36 7.168-54.55 5.121-0.03-0.011-0.06-0.011-0.09-0.019-7.3-0.973-14.6-2.36-21.69-4.121-12.7-3.161-25.19-7.606-37.11-13.204-1.39-0.652-2.39-1.945-2.68-3.453-0.3-1.519 0.15-3.086 1.21-4.207 9.39-10.07 20.14-18.625 31.92-25.441zm197.36 106.87c-0.96-2.781-0.25-6.121 1.81-8.5 1.61-1.851 3.8-2.844 6.18-2.844 0.57 0 1.14 0.051 1.72 0.172 46.88 9.063 94.5 9.758 141.56 2.004 5.24-0.781 9.26 3.078 9.97 7.395 0.7 4.332-1.8 7.847-6.11 8.554-49.85 8.207-100.11 7.508-149.42-2.047-2.76-0.535-4.85-2.265-5.71-4.734zm-22.8-9.582c0.97 2.414-0.14 5.164-2.52 6.227-12.79 5.683-58.05 22.605-103.15 1.461-14.56-6.829-27.43-16.758-38.26-29.524-1.23-1.449-1.5-3.484-0.68-5.207 0.83-1.723 2.84-2.723 4.49-2.742 12.78 0.351 25.57-0.887 38-3.695 12.52-2.825 24.63-7.219 36.02-13.043 0.67-0.352 1.44-0.532 2.2-0.532 0.13 0 0.29 8e-3 0.43 0.02 10.27 0.934 25.56 4.453 40.13 15.934 13.03 10.257 19.88 22.578 23.34 31.101zm-230.51 207.35c14.75 4.79 30.3 7.22 44.02 9.37 7.12 1.11 13.58 2.12 19.1 3.35-1.03-14.07-7.27-28-17.69-39.11-13.11-13.96-31.57-22.27-52.07-23.42l-8.88-0.57c-12.38-0.75-22.8-1.4-33.2-4.55 4.94 21.15 17.65 44.84 48.72 54.93zm-59.69-68.76c1-0.74 2.21-1.11 3.42-1.11 0.85 0 1.71 0.18 2.5 0.56 11.92 5.71 23.26 6.41 38.95 7.36l8.93 0.58c23.39 1.29 44.61 10.9 59.76 27.05 14.37 15.32 21.99 35.33 20.89 54.93-0.1 1.81-1.03 3.47-2.54 4.48-1.5 1.02-3.38 1.27-5.11 0.69-5.79-1.97-14.63-3.36-24.89-4.96-14.13-2.22-30.16-4.72-45.81-9.8-32.59-10.58-53.34-36.98-58.43-74.32-0.28-2.11 0.61-4.21 2.33-5.46zm203.18-84.957c0.59-4.02 3.91-7.773 8.62-7.773 0.43 0 0.87 0.039 1.34 0.101 52.28 7.551 105.94 10.68 159.61 9.356 2.33 0.078 4.51 0.816 6 2.437 1.28 1.422 2.01 3.34 2.07 5.406 0.11 4.051-2.65 8.45-7.95 8.58-53.97 1.37-109.02-1.95-163.52-9.826-4.24-0.617-6.78-4.019-6.17-8.281zm14.68-420.83c15.06-2.672 15.06-2.672 22.45 10.449 0.22 0.379 0.5 0.731 0.73 1.11 2.59 4.281 1.34 6.41-3.58 7.121-7.02 1.019-14 2.468-21 3.629-4.35 0.73-7.19 1.402-3.23 6.718 6.32 8.5 11.85 17.582 17.78 26.364 2.32 3.418 2.18 5.648-2.4 6.437-9.63 1.66-19.25 3.371-28.86 5.09-2.77 0.5-4.37-0.277-5.64-3.078-4.56-10.09-9.68-19.922-14.11-30.051-1.58-3.621-3.41-4.578-7.07-3.828-6.74 1.387-13.55 2.418-20.31 3.648-2.31 0.418-4.33 0.649-5.52-2.101-1.84-4.258-3.87-8.449-5.86-12.641-1.7-3.566-0.48-5.34 3.3-5.937 5.48-0.879 10.95-1.86 16.38-2.981 1.98-0.41 4.95-0.539 2.84-4.101-8.61-14.539-16.76-29.387-26.89-42.918-15.44-20.641-33.76-38.563-53.71-54.77-10.82-8.781-22.13-17.062-35.98-20.621-6.2-1.602-12.67-2.34-17.19 3.41-4.31 5.469-3 11.551-0.6 17.621 8.2 20.699 21.03 38.828 31.96 58 13.56 23.778 27.75 47.199 41.71 70.739 1.9 3.21 1.2 4.859-2.5 5.48-8.32 1.41-16.64 2.82-24.91 4.441-2.84 0.559-4.63-0.16-6.03-2.66-3.05-5.39-6.21-10.722-9.38-16.051-16.08-27.171-32.28-54.269-48.23-81.531-7.71-13.168-14.8-26.777-28.02-35.558-11.94-7.942-24.51-13.442-39.31-9.231-6.79 1.942-10.81 7.289-10.55 14.238 0.18 4.692 0.96 9.391 3.08 13.582 14.18 28.032 31.29 54.399 46.97 81.59 7.95 13.782 16.21 27.36 24.25 41.09 2 3.43 2.26 6.16-2.96 6.93-7.9 1.148-15.76 2.691-23.62 4.109-2.82 0.512-4.86 0.25-6.62-2.73-8.78-14.809-17.96-29.391-26.8-44.168-11.58-19.321-23.19-38.629-34.37-58.18-8.57-14.992-17.3-30.07-18.8-47.84-0.79-9.429 0.18-18.711 6.62-26.32 11.56-13.66 26.85-15.27 43.03-12.199 15.05 2.847 27.01 11.769 38.28 21.578 1.95 1.699 7.61 6.719 7.08 3.719-0.35-2.028-1.31-7.918-1.39-11.821-0.25-11.058 5.01-20.789 14.66-26.148 2.38-1.32 11.54-6.141 30.4-2.68 22.7 4.16 39.54 16.602 49.81 24.168 3.17 2.344 16.13 12.121 16.13 12.121-0.92-1.859-2.08-4.437-3.15-7.629-0.46-1.371-2.52-7.699-2.91-13.691-0.12-1.82-0.77-14.77 6.79-24.117 7.74-9.551 20.14-10.512 28.76-11.172 4.73-0.371 40.68-2.629 56.57 22.281 7.78 12.219 9.15 28.449 4.61 30.938-6.02 3.312-19.77-19.118-42.95-21.289-8.43-0.79-11.44 1.73-12.6 3.082-2.34 2.707-2.85 6.988-1.27 12.527 3.62 12.672 10.85 23.75 17.16 35.101 14.51 26.122 29.78 51.79 44.66 77.692 2.43 4.238 4.99 6.156 10.53 5.219 3.95-0.692 7.84-1.493 11.78-2.18zm-178.06 629.03c1.86 0 3.77 0.66 5.47 2.23v0.01c38.41 35.72 83.95 60.15 135.33 72.61 2.82 0.68 4.89 2.58 5.66 5.2 0.85 2.91 0.02 6.23-2.13 8.48-1.99 2.1-4.83 2.89-7.75 2.19-53.92-13.08-101.89-38.9-142.58-76.75-3.76-3.49-3.01-8.25-0.32-11.14 1.59-1.7 3.9-2.83 6.32-2.83zm106.21-8.25c1.41-2.17 3.8-3.72 6.51-3.72 1.37 0 2.83 0.41 4.28 1.34h-0.01c43.71 28.4 92.11 46.93 143.89 55.09 4.28 0.68 6.8 4.16 6.12 8.46-0.69 4.35-4.57 8.32-9.96 7.48-53.3-8.4-103.27-27.57-148.53-56.97-4.52-2.94-4.56-8.21-2.3-11.68zm-452.3-90.24c-11.7-17.42 14.98-13.01 25.16-12.39 32.07 1.96 65.36 0.71 85.26 29.79 2.82 4.12 24.06 42.03 12.01 41-34.97-2.97-73.64 6.6-100.13-22.87-9.29-10.34-14.6-24.06-22.3-35.53zm580.47-239.63c-2.79-0.558-4.87-2.304-5.71-4.789-0.95-2.801-0.22-6.129 1.85-8.504 1.98-2.265 4.84-3.23 7.87-2.617 64.49 12.824 126.45 12.148 189.38-2.109 0.68-0.145 1.33-0.227 1.97-0.227 4.22 0 7.2 3.215 7.99 6.723 0.86 3.816-0.86 8.277-5.81 9.402-65.51 14.805-130.13 15.52-197.54 2.121zm-248.92 21.16c0.86-1.316 2.31-2.148 3.89-2.207 2.53-0.082 5.02-0.132 7.47-0.132 31.08 0 55.75 7.273 73.41 21.656 3.42 2.804 6.21 5.539 11.77 10.969 4.79 4.683 11.65 11.406 22.77 21.925 11.39 10.801 20.86 19.5 27.06 25.172 1.27 1.164 1.83 2.914 1.46 4.606-0.37 1.679-1.61 3.035-3.25 3.562-17.04 5.426-60.22 15.555-93.17-7.551-20.88-14.629-35.54-41.257-41.8-52.617l-0.04-0.07c-3.71-6.735-7.07-13.75-9.98-20.86-0.59-1.464-0.45-3.125 0.41-4.453zm-259.83 289.48c32.48-2.74 64.44 10.05 85.2 35.33 3.4 4.13 32.47 49.77 16.96 49.77-26 0-55.61-3.73-77.13-19.49-12.62-9.25-22.57-23.09-31.01-36.05-2.76-4.23-14.57-19.2-11.76-24.65 2.38-4.61 13.49-4.55 17.74-4.91zm192.39-163.55c-1.82 0.57-3.67 1.15-5.55 1.72 6.82 3.85 13.05 8.21 18.64 13.04 31.87 27.58 47.84 41.45 92.08 28.02 6.33-1.92 12.79-3.89 19.43-5.04-1.37-1.72-2.69-3.4-3.96-5.02-5.52-6.99-10.28-13.04-15.15-18.09-22.9-23.731-55.7-24.664-79.23-21.262-9.66 1.399-17.72 3.942-26.26 6.632zm113.83 6.58c5.28 5.47 10.2 11.74 15.91 18.98 3.24 4.11 6.73 8.53 10.65 13.29 1.43 1.73 1.72 4.14 0.76 6.17-0.96 2.02-3 3.31-5.23 3.31h-0.04c-9.22 0.29-17.87 2.66-27.97 5.73-49.72 15.08-69.54-2.09-102.41-30.54-8.35-7.23-18.37-13.3-29.81-18.06-2.34-0.97-3.78-3.37-3.54-5.89 0.24-2.534 2.1-4.608 4.59-5.128 7-1.468 13.21-3.429 19.78-5.496 8.6-2.715 17.48-5.519 28.08-7.047 7.1-1.023 13.99-1.539 20.66-1.539 28.09 0 51.98 9.032 68.57 26.22zm-717.99 301.44s-18.41-17.61-30.46-28.56c-1.86-1.7-4.08-3.48-6.5-5.43-11.97-9.66-30.04-24.24-38.04-52.93-9.28-33.28-4.72-60.9-0.56-71.98 0.59-1.56 1.95-2.72 3.6-3.05 0.31-0.05 0.61-0.08 0.92-0.08 1.34 0 2.63 0.55 3.55 1.55 6 6.5 14.31 13.09 23.11 20.05 17.29 13.7 36.9 29.23 44.96 49.42 14.54 36.47 9.57 73.17 7.7 86.99l-0.16 1.17c-0.24 1.8-1.48 3.31-3.19 3.91-1.71 0.62-3.61 0.2-4.93-1.06zm426.02-344.56 0.4 8.098c2.39 46.22 20.84 82.46 54.82 107.71 10.48 7.77 21.81 13.72 33.79 17.74-1.26-8.25-1.23-17.75-1.21-28.22 0.05-22.19 0.12-49.8-12.66-77.27-11.27-24.23-38.79-40.015-63.06-53.957-4.97-2.847-9.8-5.621-14.27-8.343 0.9 8.91 1.53 20.746 2.19 34.242zm-11.58 0.558c-0.76-15.554-1.9-39.054-3.99-45.097-0.84-2.41-0.01-5.078 2.05-6.59 1.02-0.742 2.22-1.113 3.42-1.113 1.22 0 2.43 0.383 3.47 1.144 6.44 4.797 15.2 9.828 24.47 15.156 24.5 14.051 54.98 31.547 67.81 59.118 13.86 29.812 13.79 58.842 13.74 82.172-0.03 14.07-0.06 26.21 3.05 34.52 0.74 2.01 0.32 4.27-1.11 5.87-1.42 1.62-3.62 2.31-5.71 1.79-16.97-4.17-32.88-11.72-47.3-22.42-36.91-27.41-56.93-66.58-59.51-116.41zm673.69-929.4-462.65 163.52h240.57l99.94 301.38 296.09-105.8-240.58-112.22zm-1171 302.48c-409.41 1.48-748.59-59.071-988.22-118.62-51.816 161.38-103.64 322.76-155.45 484.13 260.46 74.348 648.27 157.14 1125.2 160.31 487 3.234 858.96-64.711 1123-137.6-57.25-166.81-114.51-333.62-171.76-500.42-231.09 55.777-550.19 110.84-932.7 112.21zm-1218.8-309.96 66.621 246.89-240.58 112.21 296.09 105.81 27.375-82.551 0.016-0.039 72.547-218.8h240.58zm622.37 849.52c11.531 0.664 23.547 2.078 35.265 3.465 16.153 1.906 32.856 3.906 47.254 3.691 35.743-0.476 56.36-8.933 75.351-25.863-41.233-4.351-82.362-9.379-123.4-14.926-1.438 0.965-2.84 1.778-4.301 2.821-12.711 9.035-22.539 20.441-30.172 30.812zm194.24 83.871c6.12-2.656 12.46-4.652 18.88-6.34-0.03-0.082-0.11-0.136-0.14-0.222-3.67-12.844-11.74-49.606 0.4-90.488-5.37-0.5-10.72-1.09-16.08-1.602 0.81 1.07 1.28 2.383 1.17 3.789-0.45 6.188-0.22 13.246 0 20.074 0.12 3.594 0.24 7.121 0.24 10.438 0.11 26.621-2.59 48.246-8.94 66.617 1.51-0.734 2.93-1.602 4.47-2.266zm27.57-18.05c35.46-28.762 54.6-53.356 57.52-73.473-18.15-1.391-36.29-2.867-54.41-4.488-10.11 32.07-6.62 61.742-3.11 77.961zm112.43 22.171c5.5-2.011 11.29-3.605 16.67-5.093 3.52-0.973 6.87-1.891 9.81-2.852 45.27-14.766 74.45-33.961 91.84-60.394 3.9-5.942 6.76-11.661 9.16-17.325-26.47-0.894-52.92-2.007-79.35-3.39-26.75 22.949-38.32 52.683-48.13 89.054zm-40.64 133.1c4.86-1.71 9.63-2.84 14.56-4 3.95-0.93 8.06-1.9 12.5-3.26 32.78-10.06 61.41-20.85 79.75-51.29 6.83-11.36 10.07-24.59 13.5-38.58 1.18-4.814 2.38-9.666 3.73-14.517 0.81-2.915 2.04-7.36 3.47-11.965-5.99 2.488-12.12 4.738-17.81 6.843l-1.48 0.547c-61.8 22.762-97.99 48.552-108.22 116.22zm234.87-160.18c5.07 7.039 10.66 13.649 16.07 20.047 8.39 9.922 17.01 20.117 23.82 32.082 18.39-34.914 20.5-69.531 6.79-108.27-23.44-0.168-46.86-0.516-70.27-1.067 2.13 19.668 9.92 38.254 23.59 57.211zm122.37 47.766c3.43-4.848 7.35-9.516 11.01-13.859 2.37-2.825 4.64-5.516 6.54-8.008 23.2-30.352 36.26-57.207 40.33-82.988-22.62 0.449-45.35 0.734-68.16 0.871-10.03 35.316-2.68 67.289 10.28 103.98zm44.66 128.3c3.02-4.3 6.3-8.05 9.69-11.93 2.69-3.09 5.5-6.29 8.34-10 21.05-27.53 38.24-53.22 35.44-89.02-1.05-13.347-6.15-26.12-11.55-39.648-1.86-4.648-3.73-9.336-5.47-14.117-1.05-2.895-2.66-7.316-4.19-11.984-3.56 5.711-7.4 11.328-10.94 16.543l-0.65 0.961c-37.46 55.025-52.06 97.505-20.67 159.2zm53.53-232.73 0.8 5.125c8.58 52.688 18.55 73.02 64.14 97.579 11.4 6.148 24.74 11.707 38.86 17.587 13.11 5.46 26.57 11.06 38.87 17.36 0-0.03 0-0.06-0.01-0.1-1.29-14.17-2.4-26.422-8.6-41.222-22.76-54.293-58.33-74.922-116.01-93.989-2.64-0.875-6.3-2.195-10.36-3.84-2.62 0.079-5.26 0.11-7.88 0.18 0.06 0.441 0.14 0.875 0.19 1.32zm94.16 152.5c-4.79-2.38-9.78-4.64-14.82-6.92-8.47-3.85-17.12-7.78-25.25-12.41 0.65 4 1.28 8.08 1.89 12.21 4.75 31.19 9.65 63.44 29.05 82.33 19 18.48 39.18 25.02 60.55 31.95 13.06 4.23 26.47 8.6 39.82 15.84-0.22-12.56-1.35-24.68-5.82-35.86-15.54-39.07-41.09-65.12-85.42-87.14zm119.16-105.63c-2.32-14.707-1.38-30.316-0.42-46.644 0.25-4.121 0.46-8.313 0.66-12.496-19.25 1.433-38.54 2.793-57.93 3.988 12.68 24.512 32.47 43.852 57.69 55.152zm22.02-22.121c-0.55-12.273 0.43-25.195 2.13-38.898-3.38 0.273-6.73 0.594-10.12 0.859-0.78 7.68-1.37 14.871-1.61 21.117 3.42 5.504 6.6 11.176 9.6 16.922zm53.28 80.914c12.54 11.352 25.15 18.993 34.12 23.633-1.99-15.183-2.2-30.972-2.39-46.336-0.16-11.281-0.31-22.945-1.17-34.234-2.79-36.918-8.69-52.473-24.61-67.746-15.05 1.406-30.22 2.617-45.36 3.875-6.22 47.773-3.24 82.219 39.41 120.81zm68.9-106.49c27.26 16.566 58.72 10.258 88.64 0.984 3.63-1.117 7.14-2.371 10.56-3.597 5.01-1.801 9.86-3.539 14.67-4.735-8.93-11.812-18.13-20.695-27.8-27.48-36.92 4.773-74.19 9.023-111.73 12.859 8.38 8.868 16.51 16.391 25.66 21.969zm-919.42 6.031c-0.09-2.644-0.18-5.332-0.22-8.004-2.02 1.625-3.99 3.188-5.76 4.567l-2.65 2.09c-4.58 3.644-9.41 7-14.2 10.316-9.757 6.766-18.98 13.168-25.16 21.512-18.847 25.441-18.601 51.121-18.339 80.867 0.039 3.542 0.226 6.972 0.41 10.332 0.262 4.79 0.519 9.66 0.324 14.7 49.835-29.106 66.085-61.262 65.835-126.27-0.02-3.211-0.13-6.621-0.24-10.11zm301.14 52.934c-2.67-3.691-6.82-9.77-10.7-16.906-0.77 1.531-1.55 3.058-2.36 4.605l-2.32 4.516c-23.66 47.234-27.45 69.321-5.14 115.44 5.59 11.55 13.07 23.75 20.98 36.66 7.34 11.95 14.87 24.23 21.06 36.39 7.2-12.11 13.41-22.59 17.02-38.06 13.23-56.74-3.34-93.908-38.54-142.65zm1501.5-543.07-341.02 121.86 75.56 220.14-18.92 5.222c-75.84 20.938-153.63 39.407-233.07 55.618-0.2 1.582-1.1 2.996-2.53 3.711-10.27 5.117-20.77 10.625-31.19 16.355-15.69 8.633-25.79 14.816-33.16 19.336-9.72 5.949-15.06 9.23-22.46 11.555-22.4 7.07-49.62 0.175-80.88-20.207-4.42 0.695-8.89 1.347-13.33 2.031 21.27 11.808 35.05 27.129 47.05 45.855 2.35 3.672 3.97 7.235 5.54 10.688 0.8 1.789 1.61 3.578 2.54 5.406l0.74 1.473c3.94 7.828 7.67 15.215 12.96 22.265 0.99 1.321 0.77 3.028-0.55 4.336-1.32 1.305-3.48 1.961-5.52 1.66-47.16-6.957-79.14-24.632-106.92-59.105-4.11-5.105-7.36-10.898-10.51-16.504-1.14-2.043-2.26-4.031-3.39-5.937l-0.88-1.504c-7.04 0.976-14.1 1.925-21.17 2.863 9.2 8.035 18.05 18.012 26.66 30.598 1.19 1.734 1.35 3.972 0.41 5.847-0.93 1.879-2.81 3.114-4.9 3.215-6.38 0.313-13.58 2.899-21.21 5.621-3.57 1.285-7.26 2.61-11.04 3.774-30.95 9.586-66.83 16.828-98.08-2.157-12.5-7.609-22.89-18.003-34.07-30.41-2.83 0.278-5.63 0.582-8.45 0.856 12.77 15.023 19.1 33.301 21.76 68.332 0.88 11.652 1.02 23.496 1.18 34.957 0.25 19.465 0.5 37.844 3.98 55.264 0.43 2.1-0.34 4.26-2 5.63-0.75 0.61-1.65 0.95-2.57 1.13 16.14 17.72 24.66 35.32 20.48 40.7-2.66 3.42-9.02 0.11-38.12-6.03-43.34-9.16-43.48-4.84-58.39-11.46-20.81-9.23-33.52-23.39-47.64-39.13-12.59-14.034-18.91-21.053-17.14-25.651 4.23-11.016 42.37-12.621 79.9 0.816-10-10.488-17.42-20.828-22.8-31.257-3.86-0.422-7.78-0.692-11.92-0.895-3.21-0.18-6.27-0.344-9.02-0.625-42.79-4.434-72.77-16.738-94.36-38.746-10.91-11.098-17.17-22.012-24.17-34.195-0.74-1.293-1.61-2.637-2.37-3.938-5.39 0.274-10.75 0.598-16.16 0.859 0.02 0.043 0.04 0.086 0.05 0.129 2.99 10.328 3.8 19.055 3.8 29.407 11.98 8.609 22.41 18.757 31.51 31.293 5.29 3.812 10.39 7.921 15.07 12.394 7.35 7.016 26.88 25.656 35.39 55.099 4.55 15.74 4.09 27.68 3.31 47.49-0.44 11.54-1.74 23.07-3.79 34.42 4.03 6.18 7.56 12.79 10.81 19.67-2.33-28.66 6.57-52.26 14.46-67.01 0.64-1.21 1.78-2.09 3.11-2.41 0.2-0.05 0.4-0.09 0.6-0.11 1.14-0.13 2.31 0.16 3.27 0.81 6.3 4.33 12.3 9.18 17.79 14.43 7.35 7.01 26.88 25.66 35.39 55.1 4.55 15.74 4.09 27.68 3.31 47.48-0.62 15.92-2.79 31.82-6.44 47.24-0.36 1.5-1.41 2.74-2.83 3.34-1.4 0.61-3.04 0.49-4.35-0.3-7.4-4.44-37.06-23.85-53.53-58.54 0.45 6.75 0.5 13.57 0.43 20.48 0.01 1.82-0.85 3.56-2.37 4.67-1.95 1.43-4.58 1.5-6.6 0.18-14.98-9.79-30.06-14.69-46.02-19.86-21.68-7.04-44.11-14.32-65.04-34.68-22.2-21.6-27.64-57.34-32.43-88.89-1.31-8.62-2.59-17.04-4.15-24.87-0.47-2.34 0.54-4.74 2.56-6.02 0.95-0.617 2.04-0.902 3.11-0.902 1.21 0 2.42 0.375 3.44 1.117 10.08 7.435 22.58 13.105 34.65 18.575 5.15 2.35 10.27 4.67 15.17 7.11 1.97 0.98 3.72 2.03 5.64 3.03-1.22-4.18-2.17-8.54-2.92-13.06-0.89-0.37-1.79-0.75-2.68-1.12-14.39-5.99-28-11.65-39.9-18.07-52.2-28.118-61.81-55.129-70.09-105.92l-0.82-5.292c-0.14-0.938-0.31-1.836-0.46-2.762-5.54 0.144-11.09 0.254-16.64 0.375-3.71 26.051-15.8 52.801-37.11 82.328 0.98 6.934 1.61 13.773 1.96 20.414 5.94-11.414 13.07-23 21.27-35.051l0.66-0.965c5.88-8.625 12.54-18.406 17.16-27.519 0.99-1.961 3-3.168 5.16-3.168 0.27 0 0.54 0.019 0.8 0.058 2.45 0.336 4.42 2.2 4.89 4.629 1.31 6.762 5.54 18.411 7.58 24.016 1.7 4.668 3.53 9.242 5.34 13.777 5.49 13.731 11.16 27.934 12.35 43.045 3.1 39.83-16.1 68.58-37.79 96.96-3 3.93-5.97 7.32-8.83 10.59-5.28 6.03-9.82 11.24-13.47 18.58-0.1 0.19-0.2 0.38-0.32 0.56-0.22 0.35-0.46 0.66-0.74 0.95-0.92 0.94-2.16 1.57-3.52 1.72-2.4 0.21-4.55-0.9-5.68-2.92-1.79-3.18-3.33-6.26-4.91-9.35 0.59 7.67 0.65 15.39 0 23.06-1.13 13.45-4.98 22.97-9.46 34.07-0.59 1.47-1.85 2.51-3.32 2.74-1.45 0.25-2.91-0.37-3.83-1.61-6.24-8.49-13.62-16.92-20.75-25.09-7.86-8.98-15.27-17.46-21.21-25.88-24.06-34.21-23.56-53.96-9.84-96.02 0.45-1.33 0.9-2.65 1.34-3.98 0.65-1.94 1.06-4.58 2.65-5.97 0.86-0.75 2.04-1.15 3.16-0.99 1.05 0.16 1.98 0.75 2.71 1.5 2.71 2.76 5.08 5.83 7.67 8.7 2.35 2.64 4.96 5.04 7.44 7.54 4.6 4.64 9.09 9.4 13.35 14.35 4.72 5.48 9.12 11.27 13.06 17.33-1.24-8.25-1.69-16.29-1.3-24.17-4.98-6.89-10.46-13-15.82-18.95-4.41-4.89-9.43-10.43-14.12-16.5 0 0-11.63-14.776-20.26-36.44-9.73-24.418-15.57-65.375-11.96-91.012-5.78-0.012-11.59-0.028-17.4-0.059 4.88 14.938 7.69 29.453 8.11 43.625 9.75 63.699 0 96.816-13.3 115.38-3.45 4.81-18.2 24.08-40.89 55.89-11.35 15.91-20.53 29.12-26.65 38-0.62 1.46-1.86 2.66-3.48 3.2l-0.06 0.02c-1.32 0.43-2.69 0.39-3.91-0.1h-0.02c-0.35-0.14-0.69-0.31-1-0.5h-0.01c0-0.01-0.01-0.01-0.01-0.01l-0.01-0.01h-0.01c-0.78-0.51-1.45-1.21-1.92-2.07-0.09-0.17-0.18-0.34-0.25-0.51-6.52-14.67-15.97-30.08-25.11-44.98-8.08-13.16-15.7-25.59-21.54-37.67-25.57-52.86-17.62-80.105 5.21-125.68l2.4-4.68c2.63-5.066 5.12-9.859 6.77-15.203 0.73-2.347 2.86-3.98 5.32-4.074h0.22c2.36 0 4.51 1.442 5.38 3.66 4.3 10.883 11.27 21.258 15.05 26.473 12.17 16.859 22.18 32.434 29.71 47.894 2.58-4.804 5.32-8.886 8.12-12.25 0.32-0.378 0.82-0.964 1.28-1.503-0.37-0.434-0.72-0.864-1.09-1.297-5.55-6.571-11.29-13.352-16.62-20.754-15.39-21.356-23.99-42.231-26.06-64.36-6.29-0.168-12.57-0.406-18.85-0.601-2.95 7.504-6.63 15.23-11.93 23.293-18.9 28.75-50.01 49.422-97.92 65.047-1.24 0.41-2.6 0.812-3.97 1.211 0.82 5.781 1.35 11.449 1.49 17.027 10.98-5.512 22.98-10.512 35.98-15.305l1.48-0.547c9.58-3.523 20.42-7.531 29.26-12.156 0.85-0.445 1.77-0.648 2.69-0.648 1.45 0 2.89 0.535 3.99 1.582 1.79 1.707 2.31 4.367 1.28 6.613-2.87 6.281-6.26 18.492-7.7 23.707-1.32 4.738-2.49 9.486-3.63 14.176-3.49 14.22-7.11 28.93-14.85 41.79-20.42 33.91-52.46 46.03-86.27 56.39-4.69 1.44-9.04 2.48-13.24 3.47-7.71 1.82-14.38 3.4-21.55 7.22-0.72 0.38-1.47 0.59-2.23 0.66-1.23 0.15-2.58-0.21-3.7-0.95-1.81-1.19-2.79-3.3-2.56-5.45 2.06-19.11 5.98-35.31 11.57-49.36-0.56-3.77-1.1-7.54-1.7-11.43-0.42-2.61-0.89-5.34-1.37-8.13-1.52-8.78-3.08-17.87-3.22-25.48-0.81-41.515 14.67-60.816 47.53-86.035 0.32-0.246 0.77-0.57 1.22-0.898 0.71-1.789 1.46-3.535 2.21-5.289-18.04 8.773-39.54 13.902-65.07 15.441-2.27 0.149-5.56 0.125-9.14 0.078-3.33-0.07-10.03-0.07-14.05 0.211-0.46 0.051-0.87-0.164-1.32-0.262-5.38 4.973-11.31 10.071-17.7 15.274 3.88-0.61 7.78-1.121 11.68-1.531 7.23-0.754 14.84-1.032 22.23-1.563 0.33-0.019 0.66-0.047 0.98-0.07 5.01-0.375 15.98-3.711 19.53 1.566 1.55 2.301 0.5 4.504-0.87 6.504-6.04 8.832-12.06 17.684-18.13 26.496-5.48 7.953-11.21 16.078-19.08 21.868-26.26 19.3-59.28 20.57-90.44 15.93-2.523-0.38-5.339-0.57-8.14-0.88-8.742 6.56-18.789 12.79-30.262 18.92-0.062 0.03-0.137 0.07-0.203 0.1-1.207 0.59-2.633 0.76-4 0.37-2.695-0.75-4.414-3.37-4.113-6.11 0.031-0.21 0.07-0.43 0.113-0.64 1.668-7.72 1.266-15.23 0.84-23.19-0.195-3.52-0.387-7.11-0.414-10.84-0.289-30.454-0.543-59.223 20.551-87.731 7.3-9.848 17.73-17.078 27.818-24.07 4.58-3.18 9.22-6.395 13.61-9.879l2.71-2.145c4.45-3.492 11.18-8.765 14.5-12.347 0.14-0.145 0.33-0.2 0.47-0.328-5.47-0.536-10.94-1.075-16.4-1.629-23.931 23.964-47.779 35.164-90.048 35.73-15.192 0.199-32.231-1.812-48.739-3.758-14.898-1.769-30.308-3.586-44.148-3.769-0.887 0.082-1.809-0.051-2.668-0.403-2.508-1.035-3.937-3.711-3.41-6.363 0.195-0.961 0.629-1.832 1.23-2.539 7.27-10.703 18.477-25.402 33.442-37.465-7.188-0.996-14.375-1.992-21.551-3.027-16.605 32.316-36.926 52.59-66.93 66.644-8.746 4.098-17.675 4.813-26.312 5.504l-5.227 0.45c-1.84 0.109-3.5-0.661-4.492-2.137-0.977-1.492-1.062-3.399-0.215-4.973 4.094-7.582 6.653-15.082 9.348-23.023 0.914-2.703 1.851-5.457 2.867-8.282 1.094-3.027 2.086-5.949 3.047-8.796 4.379-12.946 8.289-24.371 17.902-36.098-31.113-5.039-62.133-10.5-93.093-16.231 15.203 7.196 25.925 15.821 30.589 19.969 1.274 1.145 1.856 2.871 1.52 4.551-0.344 1.68-1.547 3.059-3.16 3.613-7.989 2.746-16.168 5.274-24.305 7.492-28.957 7.879-43.477 11.825-61.934 9.774-21.3-2.402-37.773-11.445-43.191-14.414-6.23-3.418-12.238-7.402-17.852-11.844-1.179-0.937-1.847-2.363-1.828-3.859 0.028-1.504 0.746-2.91 1.953-3.797 16.958-12.598 36.59-20.363 56.805-22.492 1.067-0.106 2.07-0.078 3.125-0.164-110.49-22.043-219.97-48.411-328.13-79.289l-18.336-5.223 65.922-205.3-1.34-0.492-338.41-120.92 267.23-124.65-71.73-265.81 596.22 210.72-20.082 56.582c215.64 35.449 434.75 53.418 654.62 53.418 4.85 0 9.7-8e-3 14.58-0.02 207.56-0.758 414.55-17.57 618.47-49.949l-15.18-52.969 595.03-210.31-71.74 265.82zm-803.66 547.85c3.91 3.887 7.66 7.633 11.63 11.028 23.76 20.277 46.91 18.383 74.35 9.281 4.93-1.641 9.59-3.418 14.15-5.16 8.04-3.067 15.76-6.016 24.28-8.043-3.07-3.164-5.96-6.387-8.8-9.547-4.76-5.313-9.27-10.324-14.37-14.871-12.36-11.035-25.87-16.809-42.51-18.176-19.21-1.547-40.76 5.262-59.77 11.289-6.99 2.207-13.5 4.274-19.41 5.754 8.1 6.129 14.55 12.555 20.45 18.445zm-36.08-27.781c7.1 0.223 18.98-3.492 31.53-7.473 17.13-5.421 38.03-12.043 57.68-12.043 2.21 0 4.38 0.086 6.54 0.262 19.03 1.559 35.15 8.453 49.29 21.078 5.57 4.973 10.51 10.465 15.27 15.774 5.33 5.922 10.35 11.523 16.27 16.551 1.76 1.492 2.46 3.886 1.79 6.093-0.67 2.215-2.58 3.809-4.87 4.075-12.08 1.406-22.32 5.308-33.15 9.437-4.73 1.801-9.54 3.645-14.63 5.332-25.66 8.527-55.92 13.828-85.53-11.469-4.26-3.625-8.16-7.504-12.28-11.625-8.65-8.625-17.61-17.535-30.99-25.168-2.32-1.316-3.43-4.05-2.7-6.621 0.72-2.562 3.21-4.14 5.78-4.203zm-273.07-277.73c-1.27-5.891-3.45-14.54-6.4-24.93-5.74-20.192-13.52-37.602-22.34-59.34-6.05-14.922-15.73-26.711-30.13-33.25-14.42-6.559-24.77 0.27-26.46 16.68-1.89 18.422 3 35.269 9.01 52.121 6.8 19.097 16.4 36.32 29.38 51.258 7.8 8.972 16.99 15.921 28.91 17.453 6.02 0.769 10.89-0.582 14.05-3.742 2.44-2.45 5.55-9.09 3.98-16.25zm70.46 122.98c-5.26-0.02-10.36 0.234-15.84 0.293-4.67 0.051-6.91-1.844-8.35-5.969-8.94-25.738-17.87-51.488-26.81-77.238-1.9-5.43-3.83-10.86-5.76-16.27-0.72-2.031-1.34-4.308-3.5-4.39-0.9-0.039-1.94 2.718-2.54 4.129-5.84 13.582-17.31 17.371-30.99 16.703-25.67-1.274-43.52-17.5-58.73-37.84-10.36-13.863-17.68-29.672-25.07-45.402-7.79-16.622-19.08-30.309-31.3-43.231-11.87-12.539-24.75-23.559-40.69-29.777-8.9-3.481-16.47-0.16-17.16 8.437-0.36 4.563 0.88 9.571 2.46 13.949 6.97 19.411 15.89 37.922 23.45 57.051 6.12 15.461 12.72 30.832 13.99 48 0.56 7.582-0.99 13.75-3.93 18.571-8.39 13.73-27.71 12.808-30.99 12.671-13.35-0.55-24.08-8.562-28.01-11.832 0 0-0.57-0.5-1.36-1.168-1.13-0.929-6.18-5.14-6.8-4.57-0.25 0.25 0.36 1.25 1.56 3.16 1.74 2.797 3.26 5.739 5.04 8.508 0.16 0.25 0.57 0.883 0.35 1.352-0.19 0.371-0.7 0.48-0.92 0.519-3.54 0.66-19.49 0.641-25.2 1-1.02 0.07-2.98 0.25-4.81-0.871-1.59-0.969-2.64-2.68-3.44-5.008-2.16-6.25-4.31-12.511-6.6-18.722-5.95-16.008-11.01-32.489-18.42-47.797-10.07-20.782-23.35-39.282-38.25-56.391-8.51-9.781-17.35-19.351-29.71-23.711-10.16-3.59-18.11 3.418-16.07 14.621 1.42 7.758 3.28 15.547 5.95 22.899 13.47 37.07 27.24 74.019 40.98 110.97 1.37 3.68 0.42 5.032-3.1 5.051-6.26 0.051-12.59-0.301-18.78 0.461-6 0.731-8.28-2.48-10.06-7.68-3.26-9.589-6.81-19.07-10.29-28.57-9.17-25.019-18.5-49.969-27.49-75.051-4.03-11.269-9.04-21.781-17.54-29.91-9.3-8.898-19.59-15.398-32.83-13.199-5.68 0.961-9.01 4.828-10.11 10.602-0.99 5.187-0.59 10.488 0.97 15.507 6.97 22.352 15.57 44.051 23.64 65.961 6.98 18.989 13.99 37.969 20.95 56.969 1.41 3.84 1.15 6.43-3.75 6.352-7.04-0.11-14.09 0.16-21.14 0.281-2.3 0.039-3.94-0.473-4.94-3.25-3.71-10.313-7.8-20.442-11.63-30.703-9.1-24.34-18.27-48.668-27.17-73.098-5.52-15.191-11.08-30.492-10.23-47.211 1.29-25.558 18.19-35.762 39.4-32.012 16.01 2.832 26.18 14.532 37.57 25.942 2.32 2.32 4.68 4.879 7.23 7.191 1.92 1.739 0.61-2.801 0.61-6.859-0.03-18.434 12.06-29.871 29.32-28.172 9.27 0.922 17.74 4.551 25.75 9.578 12.14 7.641 22.28 17.883 32.46 28.781 0.37-2.129 0.51-3.5-0.05-4.961-3.26-8.457-6.43-16.968-9.69-25.429-2.08-5.438-1.48-6.508 4.08-6.641 6.66-0.148 13.32-0.098 19.97-0.379 3.19-0.129 4.72 0.981 5.92 4.391 5.71 16.172 11.78 32.191 17.73 48.262 9.25 24.976 18.46 49.957 27.74 74.91 5.32 14.258 12.42 27.09 26.03 34.039 6.74 3.437 14.03 5.277 20.54-0.172 6.06-5.078 6.18-12.578 5.12-20.07-0.23-1.649-0.76-3.239-1.17-4.848-3.95-15.57-10.9-29.859-16.93-44.531-7.3-17.739-15.4-35.129-20.17-53.93-7.26-28.641 9.15-44.461 32.91-41.488 8.58 1.078 16.67 4.34 24.31 8.707 21.97 12.551 42.52 36.402 45.93 40.32 1.28 1.473 5.84 6.75 7.4 5.859 1.13-0.648-0.11-4.109-0.67-8.847 0 0-0.7-6.031 1.12-15.86 0.71-3.902 4.19-22.73 18.74-29.8 12.72-6.161 26.74 0.187 29.22 1.281 12.03 5.348 21.4 14.379 29.41 25.18 1.28 1.726 3.24 4.257 4.36 3.847 1.15-0.41 1.17-3.371 1.34-5.429 1.15-13 5.61-23.739 19.61-27.7 2.39-0.672 10.91-2.949 25.83 2.551 7.22 2.649 23.65 8.699 35.99 26.277 13.59 19.372 15.94 43.793 12.46 45.364-4.26 1.937-14.08-31.961-40.72-39.84-2.28-0.684-14.11-4.203-18.97 1.687-5 6.071-0.52 17.391-0.19 18.172 20.19 56.75 40.4 113.5 60.6 170.25 7.98 21.305 13.73 37.133 15.53 42.297 0.4 1.156 1.25 3.684 0.14 5.344-0.76 1.125-2.31 1.594-4.84 1.582zm-114.63 441.14c13.38 38.34 35.31 53.16 60.69 70.33 13.06 8.83 26.48 17.9 39.49 30.74 2.61-15.63 4.4-33.06 1.78-46.92-9.97-52.9-35.35-73.17-81.72-94.04l-2.77-1.23c-6.66-2.98-13.05-5.84-19.34-9.46-2.3 21.98-1.64 40.49 1.87 50.58zm-12.26-61.2c0.27-2.01 1.57-3.73 3.44-4.55 0.74-0.32 1.52-0.47 2.3-0.47 1.19 0 2.35 0.36 3.36 1.07 7.95 5.66 16.02 9.27 25.37 13.45l2.78 1.25c48.93 21.99 77.49 44.84 88.36 102.44 3.61 19.12 0.09 42.32-3.83 62.48-0.27 1.38-1.04 2.61-2.14 3.47v0.01s-0.01 0-0.01 0.01c-0.01 0-0.01 0.01-0.02 0.01l-0.01 0.01c-0.01 0 0 0.01-0.02 0.01v0.01h-0.01-0.01s-0.02 0.02-0.03 0.02c-2.57 1.92-6.18 1.38-8.1-1.16-0.01-0.01-0.02-0.02-0.02-0.03-14.36-16.23-29.91-26.73-44.95-36.91-25.96-17.55-50.49-34.13-65.13-76.11-6.59-18.86-3.13-51.75-1.33-65.01zm21.77 240.98c12.2 37.81 34.9 45.26 65.44 49.53 4.27-18.03 10.44-61.15-14.45-100.77-8.53-13.57-20.02-25.52-33.56-35 0.53 14.61-0.64 29.21-3.49 43.55-2.93 14.73-7.62 29.08-13.94 42.69zm7.74-102.14c0.95-0.62 2.04-0.92 3.13-0.92 1.01 0 2.01 0.25 2.9 0.77 19.32 11.14 35.58 26.67 47.03 44.88 30.08 47.86 18.74 100.07 14.54 114.93-0.77 2.75-3.29 4.6-6.31 4.17-28.94-3.68-64.95-8.27-80.79-60.43-0.42-1.39-0.3-2.88 0.32-4.19 6.42-13.36 11.12-27.49 14.01-42.03 3.38-17 4.24-34.41 2.54-51.75-0.21-2.16 0.8-4.26 2.63-5.43zm-39.62 153.88c0.76-0.21 1.54-0.31 2.32-0.31 3.28 0 6.53 1.82 7.62 5.9 14.09 52.67 29.86 105.7 46.88 157.57 0.9 2.73 0.39 5.45-1.41 7.46-1.98 2.22-5.23 3.24-8.31 2.62-2.89-0.62-5.1-2.61-6.05-5.5-17.05-52-32.84-105.09-46.94-157.83-1.37-5.1 1.93-8.85 5.89-9.91zm-90.64-242.64c2.34 8.91 5.78 16.32 9.42 24.14 1.84 3.94 3.69 7.94 5.41 12.16 5.51-7.62 11.44-14.01 17.61-20.67 4.77-5.16 9.72-10.49 14.67-16.65 22.3-27.67 32.91-48.84 25.17-81.4-1.35-5.71-3.41-12.06-5.59-18.79-2.77-8.52-5.78-17.79-7.69-27.01-6.58 8.69-13.87 16.91-20.99 24.96-14.53 16.41-28.26 31.91-36.24 50.59-8.45 19.8-5.85 37.01-1.77 52.67zm29.33-110.95c10.16-11.47 20.66-23.32 28.57-36 1.07-1.72 2.96-2.72 4.91-2.72 0.51 0 1.01 0.06 1.51 0.19 2.46 0.67 4.21 2.87 4.29 5.42 0.37 12.37 4.81 26.05 9.1 39.28 2.26 6.96 4.4 13.53 5.85 19.68 8.78 37.02-3.39 61.53-27.4 91.35-5.22 6.47-10.3 11.95-15.23 17.27-8.24 8.89-16.04 17.3-22.64 28.7-1.02 1.81-2.49 2.97-5.1 2.94-2.58-0.02-4.83-1.73-5.52-4.21-2.24-7.9-5.41-14.7-8.76-21.91-3.7-7.96-7.52-16.18-10.13-26.13-4.37-16.79-7.51-37.07 2.34-60.13 8.71-20.41 23.72-37.35 38.21-53.73zm562.75 81.23c-2.4-8.74-2.79-18.89-3.21-30.1-1.12-29.46-2.38-62.84-39.7-90.66-11.99-8.92-26.78-16.15-44.08-21.57 1 7.28 1.06 14.62 1 22.08-0.42 52.43 13.63 81.92 50.14 105.21 10.73 6.85 22.76 11.89 35.85 15.04zm-97.58-120.35c0.08-9.95-0.05-19.63-2.55-28.63-0.57-2 0-4.15 1.45-5.62 1.22-1.23 2.9-1.84 4.6-1.7 0.34 0.03 0.68 0.09 1.01 0.17 22.67 5.97 41.87 14.76 57.08 26.07 41.77 31.13 43.27 70.66 44.36 99.53 0.56 14.56 1.04 27.14 6.08 35.28 1.19 1.93 1.15 4.37-0.1 6.26-1.26 1.89-3.53 2.82-5.73 2.52-18.76-2.99-35.82-9.31-50.7-18.81-39.88-25.43-55.96-58.76-55.5-115.07zm-448.43 310.13c3.12 8.22 8.8 18.28 14.3 28.01 1.55 2.75 3.08 5.48 4.57 8.15 3-4.91 6.41-9.5 9.75-13.99 2.17-2.91 4.32-5.8 6.3-8.71 30.57-44.96 26.95-77.11 8.08-128.04-3.56-9.59-6.17-19.94-7.83-30.89-2.31 3.05-4.61 5.93-6.88 8.77-6.95 8.72-13.51 16.94-19.39 29.1-18.99 39.34-21.82 73.54-8.9 107.6zm19.24-143.92c5.01-6.29 10.19-12.79 15.04-20.81 1.05-1.77 2.96-2.81 4.96-2.81 0.45 0 0.92 0.05 1.37 0.16 2.46 0.6 4.25 2.73 4.41 5.25 1.02 15.82 4 30.46 8.85 43.52 19.85 53.57 23.85 89.72-9.36 138.59-2.08 3.05-4.32 6.07-6.59 9.11-5.02 6.74-10.21 13.71-13.4 21.2-0.42 1.52-1.45 2.86-2.99 3.62-2.86 1.44-6.33 0.26-7.77-2.6l-0.03-0.04c0-0.01 0-0.02-0.01-0.03-2.68-5.43-6.06-11.42-9.51-17.53-5.7-10.1-11.61-20.56-15.03-29.59-13.95-36.74-10.91-74.93 9.29-116.76 6.43-13.33 13.72-22.46 20.77-31.28zm-518.05-699.87c-6.58-6.57-14.04-11.328-23.58-12.398-11.12-1.25-19.01 4.031-21.55 14.949-3.91 16.851 1.34 32.039 9.43 46.308 5.69 10.043 13.16 18.852 24.26 23.633 0.6 0.258 3.15 1.399 3.15 2.918 0.01 1.672-3 2.93-3.6 3.18-7.44 3.109-17.45-1.27-19.91-2.41-2.91-1.367-4.9-2.719-6.06-1.879-1 0.711-0.35 4.39 0.03 6.129 2.97 13.562 4.06 27.679 10.01 40.359 7.21 15.352 18.98 24.594 36.88 24.391 9.86-0.11 16.23-5.539 20.45-13.469 2.99-5.602 5.42-11.699 5.91-18.301 1.99-23.719-1.48-46.73-9.55-69.07-5.91-16.34-13.34-31.84-25.87-44.34zm-301.63 57.91c5.559 15.93 11.875 31.422 23.457 44.172 4.254 4.688 9.098 8.488 15.082 10.391 11.063 3.527 18.195-1.043 20.106-12.481 2.523-15.109-6.989-33.011-21.547-40.883-5.922-3.199-12.036-5.628-18.813-6.179-5.035-0.481-10.035-1.571-15.16-0.09-2.898 0.84-4.25 1.859-3.125 5.07zm377.51-29.82s-22.15-24.57-39.5-27.391c-0.92-0.148-3.66-0.597-3.95 0.121-0.23 0.61 1.34 1.731 1.84 2.11 1.38 1.031 4.29 4.75 10.09 12.191 4.91 6.301 19.83 30.551 24.93 63.531 2.44 15.778 3.68 26.688 1.77 41.618-2.81 21.972-11.22 43.613-36.92 50.992-15.56 4.48-29.29-0.141-42.41-9.09-11.61-7.922-17.07-16.199-15.82-10.891 0.6 2.571 12.88 64.106 18.27 88.008 1.12 4.953 2.28 9.895 3.46 14.836 1 4.207-0.05 6.563-4.93 5.789-7.02-1.109-14.06-2.058-21.06-3.238-3.44-0.578-5.84-2.024-6.69-6.164-5.17-25.262-10.7-50.461-16.03-75.699-5.06-23.93-10.54-47.793-14.89-71.852-4.89-26.98-14.58-52.93-28.35-76.648-8.24-14.204-17.23-27.813-28.942-39.442-4.727-4.691-10.027-8.711-16.828-9.93-0.836-0.152-6.285-0.441-9.934 1.93-7.769 5.078-5.582 21.481-1.508 44.578 7.657 43.473 13.344 64.653 16.036 77.071 2.609 12.043 5.722 23.98 8.765 35.921 2.121 8.34 1.59 9.098-6.629 7.879-7.019-1.039-14.031-2.14-21.047-3.179-2.871-0.418-4.406-1.5-5.152-4.84-4.371-19.578-7.422-39.461-13.023-58.762-12.489-43.027-34.176-80.207-69.571-108.52-8.004-6.399-17.168-10.969-26.968-13.879-15.746-4.66-30.926 3.492-36.223 19.672-6.75 20.609-5.664 40.367-3.555 51.918 0.793 4.378 1.703 7.941 2.364 10.32 8.144-1.399 23.125-2.891 40.23 2.379 19.5 6 48.395 22.82 52.152 49.64 0.539 3.879 2.344 21.442-8.746 32.84-3.691 3.789-8.593 6.762-14.898 8.492-7.387 2.039-15.258 2.457-22.934 0.528-23.629-5.949-41.422-20.09-55.226-39.688-28.582-40.59-30.926-83.922-31.016-89.019-0.375-22.332-0.715-42.602 13.883-58.871 16.43-18.289 43.941-24.871 61.703-18.582 29.395 10.421 50.5 30.89 69.156 54.652 2.731 3.469 5.16 7.18 7.836 10.687 1.164 1.524 2.586 3.782 4.59 2.954 1.969-0.801 0.5-3.09 0.402-4.782-0.695-11.808 0.391-23.101 6.508-33.84 6.953-12.21 24.938-15.089 35.746-11.55 19.649 6.461 33.121 20.539 45.529 36.05 2.49 3.098 4.82 6.34 7.22 9.532 0.89 1.187 1.54 3.117 3.49 1.957 1.31-0.778 0.87-2.36 0.58-3.668-2.06-9.25-6.66-32.09-6.44-34.281 12.46 1.089 24.85 2.652 37 5.789-1.07 18.742-0.47 24.011 0.57 24.16 0.28 0.031 0.76-0.328 1.73-1.047 1.59-1.192 2.55-2.363 2.61-2.422 1.09-1.309 17.45-13.559 42.16-15.789 8.31-0.75 41.93-3.801 69.46 20.66 24.43 21.707 30.55 53.07 28.28 54.32-0.73 0.399-2.21-2.339-9.17-10.062zm875.58 42.269c-7.07 0.68-14.12 1.563-21.19 2.262-2.79 0.27-4.8-0.41-6.44-3.34-6.37-11.371-12.75-22.742-19.86-33.64-9.67-14.828-20.57-28.649-34.49-39.95-22.28-18.101-51.08-18.55-69.85 0.399-14.98 15.109-18.62 34.891-18.24 55.242 0.54 28.578 8.47 55.379 20.64 81.207 14.1 29.902 32.6 56.274 59.04 76.383 20.6 15.66 43.53 24.773 70.03 19.519 15.99-3.171 27.28-12.382 31.73-28.55 3.77-13.731 1.02-26.828-5.14-39.328-4.37-8.864-10.29-16.454-18.55-22.114-4.35-2.988-9.21-4.418-14.28-5.047-11.03-1.382-19.42 6.989-19.29 19.34 0.13 13.59 6.6 24.528 14.97 34.649 1.08 1.308 3.76 2.64 1.94 4.898-1.3 1.621-3.4 0.621-4.95-0.058-25.94-11.532-43.59-36.442-40.35-64.719 1.44-12.539 8.17-21.821 19.89-26.84 20.85-8.922 39.57-3.531 56.45 9.801 18.13 14.297 28.61 33.5 33.21 55.937 7.76 37.832-10.48 69.211-48.73 77.356-35.56 7.578-68.03-1.242-98.01-20.567-25.64-16.547-45.97-38.527-62.91-63.707-16.7-24.832-29.29-51.672-36.02-80.812-6.48-27.949-8.31-56.129 2.58-83.75 11.24-28.481 36.75-46.719 65.75-46.43 19.2 0.191 36.23 6.93 51.84 17.883 11.44 8.019 20.35 17.84 30.8 26.808-0.58-0.921-0.81-1.402-1.32-2.371-12.07-23.211-26.12-45.07-44.41-63.937-17.35-17.91-37.76-26.723-63.02-20.391-7.79 1.957-14.9 5.598-22.16 8.891-1.49 0.68-3.19 2.308-4.84 0.68-1.55-1.532-0.25-3.411 0.27-4.961 1.49-4.403 3.3-8.68 4.9-13.051 10.03-27.43 31.07-37.219 58.62-27.828 18.47 6.297 32.7 18.066 45.13 32.558 16.4 19.129 27.61 41.461 39.47 63.43 17.42 32.32 31.77 66.18 49.67 98.238 1.75 3.153 1.48 5.492-2.88 5.91zm-41.18 783.21c2.49 0 4.99 1.04 6.8 3.44 29.62 39.43 64.01 75.86 102.2 108.28 2.16 1.82 3.12 4.34 2.66 6.91-0.52 2.9-2.79 5.44-5.75 6.49-2.89 1.06-5.88 0.48-8.24-1.53-38.58-32.77-73.84-70.25-104.74-111.4-2.59-3.47-1.99-7.71 1.48-10.31 1.58-1.19 3.57-1.88 5.59-1.88zm-72.78-53.8c-18.89-31.01-13.01-62.56-10.74-71.49 0.45-1.76 1.84-3.12 3.59-3.52 0.36-0.09 0.74-0.12 1.09-0.12 1.4 0 2.76 0.61 3.69 1.71 6.67 7.91 14.55 14.54 23.44 19.7 11.54 6.73 24.78 10.84 38.31 11.92 1.9 0.15 3.54 1.4 4.18 3.2 3.96 11.27 6.37 22.99 7.16 34.84 0.95 14.54-0.52 29.03-4.38 43.11-0.67 2.46-3.05 4.01-5.66 3.45-9.29-1.95-41.17-10.77-60.68-42.8zm94.55-28.54c-2.23-4.91 0.54-9.71 4.51-11.51 1.14-0.52 2.28-0.77 3.38-0.77 2.76 0 5.21 1.58 6.52 4.43 19.82 43.51 48.35 81.19 84.79 111.99 2.16 1.82 3.14 4.34 2.67 6.89-0.52 2.89-2.77 5.44-5.74 6.51-2.85 1.06-5.87 0.48-8.24-1.52-37.79-31.94-67.37-70.98-87.89-116.02zm-134.96 49.12c1.15-0.53 2.31-0.78 3.42-0.78 2.75 0 5.21 1.57 6.53 4.42h-0.01c21.68 47.01 51.61 88.94 88.99 124.64 3.74 3.58 2.9 8.37 0.13 11.26-2.8 2.95-7.82 4.07-11.67 0.43-38.69-36.96-69.59-80.18-91.84-128.47-2.25-4.88 0.5-9.68 4.45-11.5zm-109.72 39.25c0.79-0.23 1.62-0.35 2.45-0.35 3.26 0 6.6 1.79 7.76 5.81 13.63 47.4 32.19 93.54 55.14 137.13 2.5 4.76-0.03 9.37-3.69 11.29-3.44 1.81-8.21 1.31-10.6-3.19-23.64-44.93-42.7-92.3-56.67-140.81-1.44-5.01 1.74-8.77 5.61-9.88zm-39.68 102.24c0.91-0.3 1.87-0.46 2.85-0.46 3.24 0 6.55 1.74 7.84 5.67 17.54 53.23 41.68 104.28 71.75 151.74 1.55 2.46 1.73 5.24 0.46 7.65-1.4 2.67-4.3 4.47-7.41 4.6-2.65 0.24-5.52-1.27-7.13-3.82-30.65-48.35-55.35-100.7-73.43-155.58-1.58-4.82 1.35-8.58 5.07-9.8zm111.59-285.65s0.67-2.17 0.71-2.3c1.47-4.79 2.77-9.57 4-14.42 0.26-1.02 0.53-2.07 1.17-2.9 0.88-1.14 2.38-1.72 3.82-1.62 3.56 0.25 7.29 4.19 9.97 6.28 3.33 2.59 6.57 5.28 9.66 8.14 4.57 4.2 9.13 8.82 12.21 14.27 15.91 28.15 13.19 49.75 10.29 72.63-1.47 11.56-2.97 23.5-2.2 36.86 0.11 1.81-0.8 3.51-2.35 4.44-1.56 0.92-3.48 0.9-5.02-0.05-13.76-8.53-22.9-15.99-28.77-23.5-26.27-33.57-25.01-60.27-13.49-97.83" fill="#4c2829"/><path d="m657.77 1041.7c25.773-28.85 50.339-43.105 73.449-42.202 7.996 0.289 15.359 2.352 24.683 4.962 11.391 3.19 25.559 7.16 47.239 9.83 8.687 1.07 17.453 1.79 26.211 2.15-15.696 14.05-33.895 24.84-53.266 31.5-50.254 17.29-95.816 3.45-118.32-6.24zm195.88 22c7.144-28.46 16.683-50.05 42.207-69.702 4.648-3.586 10.375-7.246 16.445-11.113 6.715-4.29 13.578-8.668 19.75-13.407-0.067 6.153 0.066 12.242 0.191 18.219 0.453 21.093 0.879 41.033-6.918 60.883-5.761 14.67-18.574 27.39-39.183 38.88-10.309 5.76-20.953 9.42-32.223 13.3-3.262 1.12-6.578 2.26-9.914 3.47 2.715-8.21 4.383-16.24 6.102-24.56 1.058-5.13 2.152-10.41 3.543-15.97zm155.5-166.67c4.79-3.316 9.62-6.672 14.2-10.316l2.65-2.09c1.77-1.379 3.74-2.942 5.76-4.567 0.04 2.672 0.13 5.36 0.22 8.004 0.11 3.489 0.22 6.899 0.24 10.11 0.25 65.008-16 97.164-65.835 126.27 0.195-5.04-0.062-9.91-0.324-14.7-0.184-3.36-0.371-6.79-0.41-10.332-0.262-29.746-0.508-55.426 18.339-80.867 6.18-8.344 15.403-14.746 25.16-21.512zm115.03-26.074c-2.92 20.117-22.06 44.711-57.52 73.473-3.51-16.219-7-45.891 3.11-77.961 18.12 1.621 36.26 3.097 54.41 4.488zm-44.89 460.9c7.06-34.05 26.38-59.59 60.78-80.35 10.6-6.39 19.8-9.31 29.53-12.39 3.01-0.96 6.06-1.93 9.19-3.01-4.17 9.54-7.3 19.14-9.35 28.63-10.89 50.69-24.2 78.13-70.32 96.98-2.98 1.23-6.09 2.34-9.21 3.45-4.69 1.68-9.47 3.38-14.12 5.53 0.18-2.85 0.37-5.78 0.54-8.72 0.62-10.76 1.26-21.88 2.96-30.12zm-307.48-237.83 1.125-0.58c3.316-1.72 11.086-5.74 21.246-11.71 9.113-5.35 18.023-10.99 26.605-16.87-1.054 16.14-6.336 43.65-28.117 67-27.398 29.35-62.707 33.42-79.961 33.45 21.731-38.15 41.594-62.1 59.102-71.29zm108.3-211.96c-11.718-1.387-23.734-2.801-35.265-3.465 7.633-10.371 17.461-21.777 30.172-30.812 1.461-1.043 2.863-1.856 4.301-2.821 41.035 5.547 82.164 10.575 123.4 14.926-18.991 16.93-39.608 25.387-75.351 25.863-14.398 0.215-31.101-1.785-47.254-3.691zm-18.597 94.797c-51.199 16.644-95.047-0.871-113.41-10.402 25.172-34.012 51.429-52.676 78.129-55.489 7.273-0.781 13.125-0.222 26.031 0.938 8.687 0.785 20.406 1.859 37.629 2.988 16.164 1.059 32.449 1.856 48.535 2.395-11.496 17.558-35.641 46.156-76.914 59.57zm-516.9-482.87-296.09-105.81 240.58-112.21-66.621-246.89 462.65 163.52h-240.58zm2021.3 66.91c-14.88-25.902-30.15-51.57-44.66-77.692-6.31-11.351-13.54-22.429-17.16-35.101-1.58-5.539-1.07-9.82 1.27-12.527 1.16-1.352 4.17-3.872 12.6-3.082 23.18 2.171 36.93 24.601 42.95 21.289 4.54-2.489 3.17-18.719-4.61-30.938-15.89-24.91-51.84-22.652-56.57-22.281-8.62 0.66-21.02 1.621-28.76 11.172-7.56 9.347-6.91 22.297-6.79 24.117 0.39 5.992 2.45 12.32 2.91 13.691 1.07 3.192 2.23 5.77 3.15 7.629 0 0-12.96-9.777-16.13-12.121-10.27-7.566-27.11-20.008-49.81-24.168-18.86-3.461-28.02 1.36-30.4 2.68-9.65 5.359-14.91 15.09-14.66 26.148 0.08 3.903 1.04 9.793 1.39 11.821 0.53 3-5.13-2.02-7.08-3.719-11.27-9.809-23.23-18.731-38.28-21.578-16.18-3.071-31.47-1.461-43.03 12.199-6.44 7.609-7.41 16.891-6.62 26.32 1.5 17.77 10.23 32.848 18.8 47.84 11.18 19.551 22.79 38.859 34.37 58.18 8.84 14.777 18.02 29.359 26.8 44.168 1.76 2.98 3.8 3.242 6.62 2.73 7.86-1.418 15.72-2.961 23.62-4.109 5.22-0.77 4.96-3.5 2.96-6.93-8.04-13.73-16.3-27.308-24.25-41.09-15.68-27.191-32.79-53.558-46.97-81.59-2.12-4.191-2.9-8.89-3.08-13.582-0.26-6.949 3.76-12.296 10.55-14.238 14.8-4.211 27.37 1.289 39.31 9.231 13.22 8.781 20.31 22.39 28.02 35.558 15.95 27.262 32.15 54.36 48.23 81.531 3.17 5.329 6.33 10.661 9.38 16.051 1.4 2.5 3.19 3.219 6.03 2.66 8.27-1.621 16.59-3.031 24.91-4.441 3.7-0.621 4.4-2.27 2.5-5.48-13.96-23.54-28.15-46.961-41.71-70.739-10.93-19.172-23.76-37.301-31.96-58-2.4-6.07-3.71-12.152 0.6-17.621 4.52-5.75 10.99-5.012 17.19-3.41 13.85 3.559 25.16 11.84 35.98 20.621 19.95 16.207 38.27 34.129 53.71 54.77 10.13 13.531 18.28 28.379 26.89 42.918 2.11 3.562-0.86 3.691-2.84 4.101-5.43 1.121-10.9 2.102-16.38 2.981-3.78 0.597-5 2.371-3.3 5.937 1.99 4.192 4.02 8.383 5.86 12.641 1.19 2.75 3.21 2.519 5.52 2.101 6.76-1.23 13.57-2.261 20.31-3.648 3.66-0.75 5.49 0.207 7.07 3.828 4.43 10.129 9.55 19.961 14.11 30.051 1.27 2.801 2.87 3.578 5.64 3.078 9.61-1.719 19.23-3.43 28.86-5.09 4.58-0.789 4.72-3.019 2.4-6.437-5.93-8.782-11.46-17.864-17.78-26.364-3.96-5.316-1.12-5.988 3.23-6.718 7-1.161 13.98-2.61 21-3.629 4.92-0.711 6.17-2.84 3.58-7.121-0.23-0.379-0.51-0.731-0.73-1.11-7.39-13.121-7.39-13.121-22.45-10.449-3.94 0.687-7.83 1.488-11.78 2.18-5.54 0.937-8.1-0.981-10.53-5.219zm-388.82-148.6c-12.43-14.492-26.66-26.261-45.13-32.558-27.55-9.391-48.59 0.398-58.62 27.828-1.6 4.371-3.41 8.648-4.9 13.051-0.52 1.55-1.82 3.429-0.27 4.961 1.65 1.628 3.35 0 4.84-0.68 7.26-3.293 14.37-6.934 22.16-8.891 25.26-6.332 45.67 2.481 63.02 20.391 18.29 18.867 32.34 40.726 44.41 63.937 0.51 0.969 0.74 1.45 1.32 2.371-10.45-8.968-19.36-18.789-30.8-26.808-15.61-10.953-32.64-17.692-51.84-17.883-29-0.289-54.51 17.949-65.75 46.43-10.89 27.621-9.06 55.801-2.58 83.75 6.73 29.14 19.32 55.98 36.02 80.812 16.94 25.18 37.27 47.16 62.91 63.707 29.98 19.325 62.45 28.145 98.01 20.567 38.25-8.145 56.49-39.524 48.73-77.356-4.6-22.437-15.08-41.64-33.21-55.937-16.88-13.332-35.6-18.723-56.45-9.801-11.72 5.019-18.45 14.301-19.89 26.84-3.24 28.277 14.41 53.187 40.35 64.719 1.55 0.679 3.65 1.679 4.95 0.058 1.82-2.258-0.86-3.59-1.94-4.898-8.37-10.121-14.84-21.059-14.97-34.649-0.13-12.351 8.26-20.722 19.29-19.34 5.07 0.629 9.93 2.059 14.28 5.047 8.26 5.66 14.18 13.25 18.55 22.114 6.16 12.5 8.91 25.597 5.14 39.328-4.45 16.168-15.74 25.379-31.73 28.55-26.5 5.254-49.43-3.859-70.03-19.519-26.44-20.109-44.94-46.481-59.04-76.383-12.17-25.828-20.1-52.629-20.64-81.207-0.38-20.351 3.26-40.133 18.24-55.242 18.77-18.949 47.57-18.5 69.85-0.399 13.92 11.301 24.82 25.122 34.49 39.95 7.11 10.898 13.49 22.269 19.86 33.64 1.64 2.93 3.65 3.61 6.44 3.34 7.07-0.699 14.12-1.582 21.19-2.262 4.36-0.418 4.63-2.757 2.88-5.91-17.9-32.058-32.25-65.918-49.67-98.238-11.86-21.969-23.07-44.301-39.47-63.43zm-180.12 344.01c-1.8-5.164-7.55-20.992-15.53-42.297-20.2-56.75-40.41-113.5-60.6-170.25-0.33-0.781-4.81-12.101 0.19-18.172 4.86-5.89 16.69-2.371 18.97-1.687 26.64 7.879 36.46 41.777 40.72 39.84 3.48-1.571 1.13-25.992-12.46-45.364-12.34-17.578-28.77-23.628-35.99-26.277-14.92-5.5-23.44-3.223-25.83-2.551-14 3.961-18.46 14.7-19.61 27.7-0.17 2.058-0.19 5.019-1.34 5.429-1.12 0.41-3.08-2.121-4.36-3.847-8.01-10.801-17.38-19.832-29.41-25.18-2.48-1.094-16.5-7.442-29.22-1.281-14.55 7.07-18.03 25.898-18.74 29.8-1.82 9.829-1.12 15.86-1.12 15.86 0.56 4.738 1.8 8.199 0.67 8.847-1.56 0.891-6.12-4.386-7.4-5.859-3.41-3.918-23.96-27.769-45.93-40.32-7.64-4.367-15.73-7.629-24.31-8.707-23.76-2.973-40.17 12.847-32.91 41.488 4.77 18.801 12.87 36.191 20.17 53.93 6.03 14.672 12.98 28.961 16.93 44.531 0.41 1.609 0.94 3.199 1.17 4.848 1.06 7.492 0.94 14.992-5.12 20.07-6.51 5.449-13.8 3.609-20.54 0.172-13.61-6.949-20.71-19.781-26.03-34.039-9.28-24.953-18.49-49.934-27.74-74.91-5.95-16.071-12.02-32.09-17.73-48.262-1.2-3.41-2.73-4.52-5.92-4.391-6.65 0.281-13.31 0.231-19.97 0.379-5.56 0.133-6.16 1.203-4.08 6.641 3.26 8.461 6.43 16.972 9.69 25.429 0.56 1.461 0.42 2.832 0.05 4.961-10.18-10.898-20.32-21.14-32.46-28.781-8.01-5.027-16.48-8.656-25.75-9.578-17.26-1.699-29.35 9.738-29.32 28.172 0 4.058 1.31 8.598-0.61 6.859-2.55-2.312-4.91-4.871-7.23-7.191-11.39-11.41-21.56-23.11-37.57-25.942-21.21-3.75-38.11 6.454-39.4 32.012-0.85 16.719 4.71 32.02 10.23 47.211 8.9 24.43 18.07 48.758 27.17 73.098 3.83 10.261 7.92 20.39 11.63 30.703 1 2.777 2.64 3.289 4.94 3.25 7.05-0.121 14.1-0.391 21.14-0.281 4.9 0.078 5.16-2.512 3.75-6.352-6.96-19-13.97-37.98-20.95-56.969-8.07-21.91-16.67-43.609-23.64-65.961-1.56-5.019-1.96-10.32-0.97-15.507 1.1-5.774 4.43-9.641 10.11-10.602 13.24-2.199 23.53 4.301 32.83 13.199 8.5 8.129 13.51 18.641 17.54 29.91 8.99 25.082 18.32 50.032 27.49 75.051 3.48 9.5 7.03 18.981 10.29 28.57 1.78 5.2 4.06 8.411 10.06 7.68 6.19-0.762 12.52-0.41 18.78-0.461 3.52-0.019 4.47-1.371 3.1-5.051-13.74-36.949-27.51-73.898-40.98-110.97-2.67-7.352-4.53-15.141-5.95-22.899-2.04-11.203 5.91-18.211 16.07-14.621 12.36 4.36 21.2 13.93 29.71 23.711 14.9 17.109 28.18 35.609 38.25 56.391 7.41 15.308 12.47 31.789 18.42 47.797 2.29 6.211 4.44 12.472 6.6 18.722 0.8 2.328 1.85 4.039 3.44 5.008 1.83 1.121 3.79 0.941 4.81 0.871 5.71-0.359 21.66-0.34 25.2-1 0.22-0.039 0.73-0.148 0.92-0.519 0.22-0.469-0.19-1.102-0.35-1.352-1.78-2.769-3.3-5.711-5.04-8.508-1.2-1.91-1.81-2.91-1.56-3.16 0.62-0.57 5.67 3.641 6.8 4.57 0.79 0.668 1.36 1.168 1.36 1.168 3.93 3.27 14.66 11.282 28.01 11.832 3.28 0.137 22.6 1.059 30.99-12.671 2.94-4.821 4.49-10.989 3.93-18.571-1.27-17.168-7.87-32.539-13.99-48-7.56-19.129-16.48-37.64-23.45-57.051-1.58-4.378-2.82-9.386-2.46-13.949 0.69-8.597 8.26-11.918 17.16-8.437 15.94 6.218 28.82 17.238 40.69 29.777 12.22 12.922 23.51 26.609 31.3 43.231 7.39 15.73 14.71 31.539 25.07 45.402 15.21 20.34 33.06 36.566 58.73 37.84 13.68 0.668 25.15-3.121 30.99-16.703 0.6-1.411 1.64-4.168 2.54-4.129 2.16 0.082 2.78 2.359 3.5 4.39 1.93 5.41 3.86 10.84 5.76 16.27 8.94 25.75 17.87 51.5 26.81 77.238 1.44 4.125 3.68 6.02 8.35 5.969 5.48-0.059 10.58-0.313 15.84-0.293 2.53 0.012 4.08-0.457 4.84-1.582 1.11-1.66 0.26-4.188-0.14-5.344zm-628.31-262.96c-27.53-24.461-61.15-21.41-69.46-20.66-24.71 2.23-41.07 14.48-42.16 15.789-0.06 0.059-1.02 1.23-2.61 2.422-0.97 0.719-1.45 1.078-1.73 1.047-1.04-0.149-1.64-5.418-0.57-24.16-12.15-3.137-24.54-4.7-37-5.789-0.22 2.191 4.38 25.031 6.44 34.281 0.29 1.308 0.73 2.89-0.58 3.668-1.95 1.16-2.6-0.77-3.49-1.957-2.4-3.192-4.73-6.434-7.22-9.532-12.408-15.511-25.88-29.589-45.529-36.05-10.808-3.539-28.793-0.66-35.746 11.55-6.117 10.739-7.203 22.032-6.508 33.84 0.098 1.692 1.567 3.981-0.402 4.782-2.004 0.828-3.426-1.43-4.59-2.954-2.676-3.507-5.105-7.218-7.836-10.687-18.656-23.762-39.761-44.231-69.156-54.652-17.762-6.289-45.273 0.293-61.703 18.582-14.598 16.269-14.258 36.539-13.883 58.871 0.09 5.097 2.434 48.429 31.016 89.019 13.804 19.598 31.597 33.739 55.226 39.688 7.676 1.929 15.547 1.511 22.934-0.528 6.305-1.73 11.207-4.703 14.898-8.492 11.09-11.398 9.285-28.961 8.746-32.84-3.757-26.82-32.652-43.64-52.152-49.64-17.105-5.27-32.086-3.778-40.23-2.379-0.661-2.379-1.571-5.942-2.364-10.32-2.109-11.551-3.195-31.309 3.555-51.918 5.297-16.18 20.477-24.332 36.223-19.672 9.8 2.91 18.964 7.48 26.968 13.879 35.395 28.312 57.082 65.492 69.571 108.52 5.601 19.301 8.652 39.184 13.023 58.762 0.746 3.34 2.281 4.422 5.152 4.84 7.016 1.039 14.028 2.14 21.047 3.179 8.219 1.219 8.75 0.461 6.629-7.879-3.043-11.941-6.156-23.878-8.765-35.921-2.692-12.418-8.379-33.598-16.036-77.071-4.074-23.097-6.261-39.5 1.508-44.578 3.649-2.371 9.098-2.082 9.934-1.93 6.801 1.219 12.101 5.239 16.828 9.93 11.712 11.629 20.702 25.238 28.942 39.442 13.77 23.718 23.46 49.668 28.35 76.648 4.35 24.059 9.83 47.922 14.89 71.852 5.33 25.238 10.86 50.437 16.03 75.699 0.85 4.14 3.25 5.586 6.69 6.164 7 1.18 14.04 2.129 21.06 3.238 4.88 0.774 5.93-1.582 4.93-5.789-1.18-4.941-2.34-9.883-3.46-14.836-5.39-23.902-17.67-85.437-18.27-88.008-1.25-5.308 4.21 2.969 15.82 10.891 13.12 8.949 26.85 13.57 42.41 9.09 25.7-7.379 34.11-29.02 36.92-50.992 1.91-14.93 0.67-25.84-1.77-41.618-5.1-32.98-20.02-57.23-24.93-63.531-5.8-7.441-8.71-11.16-10.09-12.191-0.5-0.379-2.07-1.5-1.84-2.11 0.29-0.718 3.03-0.269 3.95-0.121 17.35 2.821 39.5 27.391 39.5 27.391 6.96 7.723 8.44 10.461 9.17 10.062 2.27-1.25-3.85-32.613-28.28-54.32zm-416.56-64.019c-11.711-28.774-33.895-44.301-63.778-50.122-28.21-5.511-55.832 0.258-83.542 4.11-5.508 0.762-8.903 0.148-11.52-5.578-12.992-28.453-34.91-47.114-64.844-55.653-15.73-4.48-31.82-5.789-46.832 3.61-14.621 9.152-18.996 29.953-9.398 44.34 6.695 10.043 15.687 17.429 26.222 22.871 21.254 10.992 43.696 18.39 67.59 20.859 4.465 0.461 6.356 2.551 6.067 6.883-1.45 21.598-3.196 43.187-4.289 64.808-1.399 27.801-2.817 55.598-0.813 83.481 1.879 26.141 5.344 51.898 15.391 76.32 12.375 30.078 32.922 51.59 65.062 60.528 28.082 7.82 54.426-2.469 68.699-27.848 16.344-29.063 17.649-59.57 2.067-89.57-8.828-17-22.606-27.942-42.695-29.52-15.196-1.199-28.114 8.059-33.825 19.949-11.23 23.418-7.453 45.61 6.36 66.668 2.039 3.121 4.722 5.813 7.183 8.633 0.528 0.609 1.375 0.93 3.664 2.41-3.371-10.57-4.871-19.582-4.527-28.953 0.309-8.508 3.031-16.148 7.457-23.098 4.617-7.242 15.953-8.3 23.84-2.992 11.894 7.992 15.586 20.063 15.957 33.34 0.488 17.531-4.488 33.461-17.281 45.934-15.02 14.629-41.578 12.207-56.676-4.383-12.231-13.438-16.551-29.949-18.848-47.258-3.351-25.293-1.808-50.68-0.918-76.043 1.403-39.937 4.434-79.859 0.301-119.81-0.387-3.731-1.184-7.418-1.543-11.149-0.312-3.211 1-4.922 4.629-4.723 26.035 1.524 52.258 1.762 77.75 7.864 19.895 4.75 39.332 11.207 54.105 26.687 1.965 2.051 3.758 4.289 5.5 6.563 1.184 1.519 1.907 4.16 4.25 3.398 1.957-0.648 2.247-3.238 2.446-5.172 0.961-9.347 0.347-18.648-3.211-27.386zm224.23 295.31c10.84 1.653 20.395-5.32 22.043-16.07 1.948-12.738-7.343-25-20.515-27.07-10.887-1.711-19.477 4.64-21.25 15.742-1.918 11.968 7.898 25.601 19.722 27.398zm1569.3 2.617c-264.01 72.891-635.97 140.84-1123 137.6-476.9-3.164-864.71-85.961-1125.2-160.31 51.816-161.37 103.64-322.75 155.45-484.13 239.64 59.547 578.81 120.1 988.22 118.62 382.51-1.368 701.61-56.43 932.7-112.21 57.25 166.81 114.51 333.62 171.76 500.42zm240.45-331.6-296.09 105.8-99.94-301.38h-240.57l462.65-163.52-66.63 246.88zm-2130.8 688.88c3.668 0.06 7.351 0.51 12.012 1.08 6.226 0.77 13.984 1.72 25.789 2.29 11.964 0.58 24.019 0.56 36.015-0.05-7.859 11.76-19.988 25.1-37.992 34.38-41.57 21.42-84.285 5.47-100.61-2.31 22.441-23.5 43.933-35.39 63.972-35.39zm1048.5-424.3c-11.92-1.532-21.11-8.481-28.91-17.453-12.98-14.938-22.58-32.161-29.38-51.258-6.01-16.852-10.9-33.699-9.01-52.121 1.69-16.41 12.04-23.239 26.46-16.68 14.4 6.539 24.08 18.328 30.13 33.25 8.82 21.738 16.6 39.148 22.34 59.34 2.95 10.39 5.13 19.039 6.4 24.93 1.57 7.16-1.54 13.8-3.98 16.25-3.16 3.16-8.03 4.511-14.05 3.742zm-560.58 728.3c5.73-4.49 12.86-10.05 21.14-19.61 8.9-10.3 16.28-21.93 22.04-34.72 5.78 12.5 10.78 29.06 10.22 48.36-1.4 48.65-37.33 80.24-51.31 90.73-18.54-32.5-23.57-56.63-14.97-71.77 3.03-5.32 7.16-8.54 12.88-12.99zm-329.81-826.18c5.125-1.481 10.125-0.391 15.16 0.09 6.777 0.551 12.891 2.98 18.813 6.179 14.558 7.872 24.07 25.774 21.547 40.883-1.911 11.438-9.043 16.008-20.106 12.481-5.984-1.903-10.828-5.703-15.082-10.391-11.582-12.75-17.898-28.242-23.457-44.172-1.125-3.211 0.227-4.23 3.125-5.07zm-251.47-175.65c-9.746-0.171-19.496-1.269-28.867-3.839-10.453-2.871-20.644-6.629-28.973-14.172-5.609-5.078-8.254-11.11-6.039-16.25 2.774-6.418 8.203-7.578 14.676-7.887 6.774-0.312 12.5 2.387 18.242 4.109 15.446 6.59 27.575 16.34 35.129 31.219 2.832 5.578 2.188 6.942-4.168 6.82zm585.39 236.22c-0.49 6.602-2.92 12.699-5.91 18.301-4.22 7.93-10.59 13.359-20.45 13.469-17.9 0.203-29.67-9.039-36.88-24.391-5.95-12.68-7.04-26.797-10.01-40.359-0.38-1.739-1.03-5.418-0.03-6.129 1.16-0.84 3.15 0.512 6.06 1.879 2.46 1.14 12.47 5.519 19.91 2.41 0.6-0.25 3.61-1.508 3.6-3.18 0-1.519-2.55-2.66-3.15-2.918-11.1-4.781-18.57-13.59-24.26-23.633-8.09-14.269-13.34-29.457-9.43-46.308 2.54-10.918 10.43-16.199 21.55-14.949 9.54 1.07 17 5.828 23.58 12.398 12.53 12.5 19.96 28 25.87 44.34 8.07 22.34 11.54 45.351 9.55 69.07zm626.11 499.55c4.47 11.18 5.6 23.3 5.82 35.86-13.35-7.24-26.76-11.61-39.82-15.84-21.37-6.93-41.55-13.47-60.55-31.95-19.4-18.89-24.3-51.14-29.05-82.33-0.61-4.13-1.24-8.21-1.89-12.21 8.13 4.63 16.78 8.56 25.25 12.41 5.04 2.28 10.03 4.54 14.82 6.92 44.33 22.02 69.88 48.07 85.42 87.14zm114.99-258.66c15.92 15.273 21.82 30.828 24.61 67.746 0.86 11.289 1.01 22.953 1.17 34.234 0.19 15.364 0.4 31.153 2.39 46.336-8.97-4.64-21.58-12.281-34.12-23.633-42.65-38.589-45.63-73.035-39.41-120.81 15.14-1.258 30.31-2.469 45.36-3.875zm176.82 10.847c-4.81 1.196-9.66 2.934-14.67 4.735-3.42 1.226-6.93 2.48-10.56 3.597-29.92 9.274-61.38 15.582-88.64-0.984-9.15-5.578-17.28-13.101-25.66-21.969 37.54-3.836 74.81-8.086 111.73-12.859 9.67 6.785 18.87 15.668 27.8 27.48zm-470.59 13.293-0.8-5.125c-0.05-0.445-0.13-0.879-0.19-1.32 2.62-0.07 5.26-0.101 7.88-0.18 4.06 1.645 7.72 2.965 10.36 3.84 57.68 19.067 93.25 39.696 116.01 93.989 6.2 14.8 7.31 27.052 8.6 41.222 0.01 0.04 0.01 0.07 0.01 0.1-12.3-6.3-25.76-11.9-38.87-17.36-14.12-5.88-27.46-11.439-38.86-17.587-45.59-24.559-55.56-44.891-64.14-97.579zm154.83-13.402c19.39-1.195 38.68-2.555 57.93-3.988-0.2 4.183-0.41 8.375-0.66 12.496-0.96 16.328-1.9 31.937 0.42 46.644-25.22-11.3-45.01-30.64-57.69-55.152zm404.03 258.87c0.42 11.21 0.81 21.36 3.21 30.1-13.09-3.15-25.12-8.19-35.85-15.04-36.51-23.29-50.56-52.78-50.14-105.21 0.06-7.46 0-14.8-1-22.08 17.3 5.42 32.09 12.65 44.08 21.57 37.32 27.82 38.58 61.2 39.7 90.66zm-12.23-116.73c-5.59-4.83-11.82-9.19-18.64-13.04 1.88-0.57 3.73-1.15 5.55-1.72 8.54-2.69 16.6-5.233 26.26-6.632 23.53-3.402 56.33-2.469 79.23 21.262 4.87 5.05 9.63 11.1 15.15 18.09 1.27 1.62 2.59 3.3 3.96 5.02-6.64 1.15-13.1 3.12-19.43 5.04-44.24 13.43-60.21-0.44-92.08-28.02zm82.14 71.98c20.5 1.15 38.96 9.46 52.07 23.42 10.42 11.11 16.66 25.04 17.69 39.11-5.52-1.23-11.98-2.24-19.1-3.35-13.72-2.15-29.27-4.58-44.02-9.37-31.07-10.09-43.78-33.78-48.72-54.93 10.4 3.15 20.82 3.8 33.2 4.55zm-1083.7 125.02c-7.9 2.16-15.5 4.23-23.35 7.48 0.66-4.43 1.08-8.73 1.51-12.95 0.85-8.44 1.64-16.41 4.05-25.05 4.19-15.1 10.28-30.7 26.32-42.49 15.12-11.12 33.32-16.57 52.59-22.35 9.29-2.79 18.81-5.64 28.02-9.22-2.87 8.67-4.9 17.93-6.76 26.47-1.49 6.75-2.88 13.13-4.52 18.57-9.35 30.97-27.73 42.75-58.36 53.64-6.83 2.44-13.27 4.2-19.5 5.9zm885.51-220.24c12.78 27.47 12.71 55.08 12.66 77.27-0.02 10.47-0.05 19.97 1.21 28.22-11.98-4.02-23.31-9.97-33.79-17.74-33.98-25.25-52.43-61.49-54.82-107.71l-0.4-8.098c-0.66-13.496-1.29-25.332-2.19-34.242 4.47 2.722 9.3 5.496 14.27 8.343 24.27 13.942 51.79 29.727 63.06 53.957zm-320.6 304.45c13.54 9.48 25.03 21.43 33.56 35 24.89 39.62 18.72 82.74 14.45 100.77-30.54-4.27-53.24-11.72-65.44-49.53 6.32-13.61 11.01-27.96 13.94-42.69 2.85-14.34 4.02-28.94 3.49-43.55zm305.93-370.6c5.91-1.48 12.42-3.547 19.41-5.754 19.01-6.027 40.56-12.836 59.77-11.289 16.64 1.367 30.15 7.141 42.51 18.176 5.1 4.547 9.61 9.558 14.37 14.871 2.84 3.16 5.73 6.383 8.8 9.547-8.52 2.027-16.24 4.976-24.28 8.043-4.56 1.742-9.22 3.519-14.15 5.16-27.44 9.102-50.59 10.996-74.35-9.281-3.97-3.395-7.72-7.141-11.63-11.028-5.9-5.89-12.35-12.316-20.45-18.445zm-692.81 5.887 2.32-4.516c0.81-1.547 1.59-3.074 2.36-4.605 3.88 7.136 8.03 13.215 10.7 16.906 35.2 48.738 51.77 85.906 38.54 142.65-3.61 15.47-9.82 25.95-17.02 38.06-6.19-12.16-13.72-24.44-21.06-36.39-7.91-12.91-15.39-25.11-20.98-36.66-22.31-46.12-18.52-68.207 5.14-115.44zm-69.59 49.722c5.69-2.105 11.82-4.355 17.81-6.843-1.43 4.605-2.66 9.05-3.47 11.965-1.35 4.851-2.55 9.703-3.73 14.517-3.43 13.99-6.67 27.22-13.5 38.58-18.34 30.44-46.97 41.23-79.75 51.29-4.44 1.36-8.55 2.33-12.5 3.26-4.93 1.16-9.7 2.29-14.56 4 10.23-67.67 46.42-93.46 108.22-116.22zm447 180.33 2.77 1.23c46.37 20.87 71.75 41.14 81.72 94.04 2.62 13.86 0.83 31.29-1.78 46.92-13.01-12.84-26.43-21.91-39.49-30.74-25.38-17.17-47.31-31.99-60.69-70.33-3.51-10.09-4.17-28.6-1.87-50.58 6.29 3.62 12.68 6.48 19.34 9.46zm-464.04 35.45c3.56 6.24 7.57 11.88 11.75 17.74l1.72 2.42c29.13 41.03 40.63 71.05 22.64 121.19-4.69 13.08-14.93 27.04-24.96 39.06-4.67-17.42-11.57-31.88-18.28-45.93-13.06-27.38-24.35-51.02-16.55-90.44 2.05-10.37 10.75-26.48 23.68-44.04zm44.31-124.32c1.39-3.46 2.78-6.9 4.12-10.28 4.26 8.33 9.25 16.4 14.14 24.29 2.97 4.8 5.91 9.55 8.64 14.28 25.26 43.86 33.16 80.32 26.44 121.9-1.85 11.57-6.73 22.1-12.59 32.43-7.21-13.49-15.88-24.69-24.33-35.6-14-18.08-27.22-35.15-33.57-61.55-6.47-27.01 5.54-56.72 17.15-85.47zm-48.2-196.84c26.43 1.383 52.88 2.496 79.35 3.39-2.4 5.664-5.26 11.383-9.16 17.325-17.39 26.433-46.57 45.628-91.84 60.394-2.94 0.961-6.29 1.879-9.81 2.852-5.38 1.488-11.17 3.082-16.67 5.093 9.81-36.371 21.38-66.105 48.13-89.054zm411.81 339.08c2.27-2.84 4.57-5.72 6.88-8.77 1.66 10.95 4.27 21.3 7.83 30.89 18.87 50.93 22.49 83.08-8.08 128.04-1.98 2.91-4.13 5.8-6.3 8.71-3.34 4.49-6.75 9.08-9.75 13.99-1.49-2.67-3.02-5.4-4.57-8.15-5.5-9.73-11.18-19.79-14.3-28.01-12.92-34.06-10.09-68.26 8.9-107.6 5.88-12.16 12.44-20.38 19.39-29.1zm-36.35-126.62c7.12-8.05 14.41-16.27 20.99-24.96 1.91 9.22 4.92 18.49 7.69 27.01 2.18 6.73 4.24 13.08 5.59 18.79 7.74 32.56-2.87 53.73-25.17 81.4-4.95 6.16-9.9 11.49-14.67 16.65-6.17 6.66-12.1 13.05-17.61 20.67-1.72-4.22-3.57-8.22-5.41-12.16-3.64-7.82-7.08-15.23-9.42-24.14-4.08-15.66-6.68-32.87 1.77-52.67 7.98-18.68 21.71-34.18 36.24-50.59zm-252.95-207.69c23.41 0.551 46.83 0.899 70.27 1.067 13.71 38.742 11.6 73.359-6.79 108.27-6.81-11.965-15.43-22.16-23.82-32.082-5.41-6.398-11-13.008-16.07-20.047-13.67-18.957-21.46-37.543-23.59-57.211zm211.94 73.118c3.54-5.215 7.38-10.832 10.94-16.543 1.53 4.668 3.14 9.089 4.19 11.984 1.74 4.781 3.61 9.469 5.47 14.117 5.4 13.528 10.5 26.301 11.55 39.648 2.8 35.8-14.39 61.49-35.44 89.02-2.84 3.71-5.65 6.91-8.34 10-3.39 3.88-6.67 7.63-9.69 11.93-31.39-61.69-16.79-104.17 20.67-159.2zm-8.1-72.996c-4.07 25.781-17.13 52.636-40.33 82.988-1.9 2.492-4.17 5.183-6.54 8.008-3.66 4.343-7.58 9.011-11.01 13.859-12.96-36.695-20.31-68.668-10.28-103.98 22.81-0.137 45.54-0.422 68.16-0.871" fill="#f5c72e"/></g></g></svg>
