<?xml version="1.0" encoding="UTF-8" standalone="no"?>
<!-- Created with Inkscape (http://www.inkscape.org/) -->

<svg
   width="400"
   height="200"
   version="1.0"
   id="svg6"
   xmlns="http://www.w3.org/2000/svg"
   xmlns:svg="http://www.w3.org/2000/svg">
  <defs
     id="defs6" />
  <g
     id="g7"
     transform="translate(-0.0038955,-100.00312)">
    <g
       transform="matrix(1.25,0,0,-1.25,387.52,187.29)"
       id="g1">
      <path
         d="m 0,0 c -0.367,-0.089 -0.747,-0.224 -0.935,-0.578 0.253,-0.229 0.392,-0.545 0.357,-0.882 -0.051,-0.503 -0.418,-0.866 -0.606,-1.307 -1.614,-3.904 -1.52,-7.684 0.487,-11.398 0.254,-0.145 0.489,-0.38 0.56,-0.669 0.658,-0.425 1.149,-1.287 0.579,-2.007 -0.089,0.356 -0.297,0.672 -0.531,0.943 -0.907,-0.748 -0.828,-0.709 -1.937,-0.394 -0.2,0.056 -0.381,-0.187 -0.489,-0.319 -1.412,-1.834 -3.694,-7.275 -2.894,-9.583 0.17,-0.502 0.439,-0.723 0.439,-1.326 0.407,-0.597 0.419,-1.641 -0.158,-2.142 -0.066,0.44 -0.133,0.892 -0.369,1.275 -1.799,-1 -1.715,0.556 -2.308,1.069 -1.829,0.23 -3.961,-0.298 -5.408,-1.447 -1.09,-0.867 -1.446,-1.623 -2.074,-2.191 -0.332,-0.302 -0.713,0.348 -0.944,0.516 -0.757,0.569 -3.514,1.815 -4.388,1.293 -0.426,-0.879 2.002,-2.402 2.423,-2.952 0.222,-0.285 -0.268,-0.686 -0.444,-0.881 -0.339,-0.372 -1.01,-0.761 -1.465,-0.987 0.182,-1.169 1.169,-1.849 1.511,-2.874 -0.211,-0.662 -0.873,-1.012 -1.363,-1.449 0.109,-0.826 0.682,-1.476 1.245,-2.052 0.083,-0.565 -0.502,-0.922 -0.548,-1.279 -0.06,-0.467 1.034,-1.475 1.358,-1.776 0.031,-0.203 -0.084,-0.622 0.031,-0.777 0.557,-0.752 1.948,-0.306 2.35,-1.159 0.905,-0.256 1.991,-0.242 2.735,0.394 -0.493,0.317 -1.026,0.582 -1.36,1.085 -0.944,0.349 -1.562,0.845 -1.948,1.779 -0.253,0.601 -0.768,0.853 -0.873,1.58 -0.082,0.558 0.002,0.978 0.04,1.522 0.054,0.663 -0.448,1.315 -0.102,1.978 0.24,0.451 0.773,0.693 1.007,1.096 0.182,0.323 0.083,0.721 0.367,1.032 0.459,0.498 1.277,0.314 1.733,0.776 0.289,0.297 0.533,0.687 1.017,0.611 0.628,-0.102 1.315,-0.703 1.979,-0.32 0.345,0.195 0.626,0.499 1.051,0.243 0.621,-0.374 0.696,-1.263 1.418,-1.553 0.551,-0.22 1.428,0.303 1.582,-0.561 0.125,-0.702 -0.27,-2.02 0.595,-2.389 0.305,-0.132 0.81,-0.022 0.871,-0.501 0.08,-0.671 -0.71,-1.923 -0.487,-2.51 0.164,-0.444 0.909,-0.797 0.63,-1.357 -0.309,-0.631 -0.915,-0.976 -1.136,-1.746 1.382,-1.001 2.62,-1.719 2.706,-3.653 0.171,0.075 0.457,0.855 1.315,0.763 0.316,-0.033 1.218,-0.616 1.121,-0.974 -0.042,-0.168 -0.215,-0.08 -0.323,-0.079 -1.128,0.022 -1.908,-4.825 -6.535,-3.756 -0.147,0.036 -0.323,0.101 -0.382,0.258 0.585,0.471 1.638,0.878 1.491,1.798 -0.079,0.517 -0.719,0.817 -0.563,1.395 0.213,0.757 1.542,0.638 1.66,-0.452 0.591,1.139 -0.722,1.795 -1.601,2.054 -1.07,-0.4 -1.235,-1.827 -1.294,-1.904 -0.547,-0.665 -1.597,-0.929 -2.354,-1.232 -0.422,-0.169 -0.215,-0.738 -0.651,-0.88 -0.952,-0.318 -2.828,-0.315 -3.751,-0.337 -0.179,-0.174 -0.271,-0.424 -0.488,-0.561 -1.205,-0.02 -2.832,0.671 -3.918,1.122 -0.269,-0.115 -0.45,-0.366 -0.683,-0.546 -0.802,0.042 -2.592,1.531 -3.234,2.069 -0.243,-0.003 -0.585,-0.299 -0.812,-0.152 -0.47,0.302 -1.587,2.333 -1.909,2.906 -0.226,-0.004 -0.44,-0.116 -0.664,-0.061 -0.317,0.494 -0.483,2.288 -0.561,2.768 -0.081,0.514 -0.495,0.485 -0.932,0.563 -0.899,4.807 -2.017,5.598 -2.452,-0.091 l -0.3,-0.016 c -1.403,1.177 -1.616,-0.311 -1.918,-1.488 -0.262,-0.245 -0.442,0.223 -0.664,0.317 -0.838,0.366 -0.863,-0.984 -0.918,-1.46 -1.001,0.039 -2.207,-2.966 -1.244,-3.501 0.328,-0.176 0.76,-0.245 1.023,-0.513 0.552,-0.032 1.586,-0.112 1.524,-0.913 -0.015,-0.158 -0.015,-0.354 -0.15,-0.458 -1.133,1.623 -1.354,-1.135 -3.145,-0.546 -1.911,0.624 0.207,2.933 -2.869,1.293 -0.107,-1.17 -1.463,-2.344 -2.334,-1.126 -0.568,-0.128 -0.618,-0.596 -0.58,-1.08 -0.933,0.794 -0.371,1.31 0.121,2.01 0.215,0.303 0.233,0.597 0.559,0.863 -0.931,0.872 -3.464,-1.745 -3.253,1.705 -0.343,0.214 -0.867,0.322 -1.208,0.046 0.306,1.035 1.205,1.174 2.022,0.621 0.345,0 0.685,-0.089 1.021,-0.135 -0.444,0.684 -0.65,2.003 0.415,2.252 0.2,0.417 -0.259,0.877 -0.61,1.019 -0.009,0.408 1.064,0.08 1.289,-0.199 0.478,-0.597 0.781,-3.634 2.807,-2.432 0.508,0.3 1.252,2.344 1.267,2.954 0.053,2.992 -0.864,6.881 0.476,9.578 0.174,0.339 -1.836,0.878 -2.008,1.242 -0.388,0.837 -1.67,-0.459 -2.034,-0.732 l -0.178,0.065 c -0.269,0.579 -0.23,1.222 -0.455,1.768 -0.201,0.5 -2.304,0.527 -2.783,0.428 -0.008,1.002 1.378,1.924 -1.507,1.83 -0.196,0.691 -1.168,2.207 -2.064,1.708 -0.779,-2.289 1.589,-2.759 0.107,-3.762 0.015,1.967 -1.371,0.034 -2.428,1.498 -1.058,1.47 0.98,1.701 0.338,3.129 -0.225,0.115 -0.479,0.203 -0.735,0.187 -1.247,-0.884 -2.866,-0.52 -2.627,1.247 -0.329,0.353 -0.634,0.029 -0.958,0.089 -0.479,0.092 0.413,1.242 1.6,0.813 0.304,0.11 0.633,0.076 0.938,-0.02 -0.027,0.297 -0.202,1.043 -0.427,1.255 -1.11,1.074 -1.026,2.353 0.671,2.702 0.322,0.481 0.005,0.868 -0.366,1.165 0.28,0.156 0.675,0.036 0.917,-0.136 0.588,-0.419 0.384,-1.095 0.38,-1.673 0,-0.239 0.288,-0.907 0.403,-1.138 0.223,0.966 1.205,2.233 2.122,1.039 0.533,0.052 0.56,0.46 0.56,0.898 0.12,0.041 0.185,-0.054 0.239,-0.135 0.462,-0.715 0.262,-1.56 -0.498,-1.97 -0.021,-0.373 -0.212,-0.717 -0.365,-1.048 0.242,-0.483 0.09,-1.157 0.71,-1.36 0.637,-0.208 2.626,-0.924 3.184,-0.933 l 0.277,0.015 c 0.511,0.082 1.077,0.321 1.596,0.441 1.281,0.301 2.596,0.491 3.906,0.594 l 1.654,0.132 c 0.104,0.256 -0.083,0.264 0.01,0.525 -0.206,0.108 -0.957,0.306 -0.975,0.454 -0.183,1.414 0.747,3.004 0.737,3.253 -0.003,0.165 -0.263,0.161 -0.234,0.334 0.208,1.285 2.696,2.179 3.296,2.829 0.102,0.118 -0.116,0.292 0.045,0.444 0.489,0.461 3.554,0.995 3.724,1.141 0.121,0.102 0.078,0.333 0.117,0.471 0.908,0.652 2.792,0.118 3.519,1.401 0.824,1.454 -2.045,1.894 -3.256,1.532 -0.348,-0.102 -0.803,-0.433 -1.18,-0.348 -0.958,0.223 -3.713,1.112 -4.195,-0.396 -0.133,-0.405 0.335,-0.61 0.248,-0.988 l -0.219,-0.214 c -1.203,-0.143 -2.907,1.379 -4.167,-0.273 -0.465,0.438 -0.961,0.951 -1.643,0.955 -2.064,0.027 -6.526,-1.042 -8.055,0.368 -0.107,0.099 -0.275,0.379 -0.251,0.531 0.117,0.742 2.937,0.057 3.057,0.518 0.028,0.097 -0.115,0.217 -0.187,0.245 -1.728,0.589 -4.763,1.776 -6.463,1.932 -0.765,0.066 -1.545,0.007 -2.247,-0.32 0.007,0.64 1.834,2.46 -0.839,3.209 0.321,0.33 0.813,0.244 1.225,0.183 3.689,-0.549 7.104,-4.663 10.864,-4.441 0.57,0.031 3.826,0.712 3.883,1.014 0.021,0.105 -0.105,0.155 -0.179,0.175 -0.648,0.167 -2.238,-0.263 -2.625,-0.14 -0.449,0.144 -0.844,0.41 -1.283,0.56 -0.493,0.168 -0.919,-0.766 -1.259,-0.135 -0.515,0.944 -1.221,1.104 -2.029,0.278 l -0.216,0.041 c -0.249,0.388 -0.046,0.978 -0.577,1.172 -0.752,0.275 -1.228,-0.723 -1.522,-0.075 0.302,1.033 -0.937,1.462 -0.504,2.689 0.776,2.203 3.201,0.125 3.665,0.077 0.94,-0.088 1.882,-0.15 2.821,-0.226 1.797,2.075 2.164,0.809 3.595,1.055 1.768,0.305 2.406,0.217 4.095,-0.692 0.974,-0.526 1.562,-1.145 2.745,-0.667 0.417,0.165 0.872,0.588 1.335,0.35 0.228,-0.123 0.361,-0.422 0.663,-0.276 0.616,0.303 1.045,0.909 1.626,1.232 0.777,0.441 0.837,-1.109 1.345,-1.261 0.714,-0.211 1.489,1.314 1.859,1.671 0.672,0.65 1.571,-1.583 1.969,-1.914 0.751,-0.117 1,1.024 1.431,1.124 0.874,0.211 1.313,-2.202 1.541,-2.692 0.356,-0.782 1.058,0.558 1.548,0.213 0.808,-0.561 0.169,-2.779 0.224,-3.556 0.042,-0.582 0.977,-0.197 1.093,-0.795 0.123,-0.648 -0.905,-1.96 -1.182,-2.417 -0.231,-0.374 0.46,-0.742 0.607,-0.96 0.206,-0.311 -0.214,-0.709 -0.418,-0.912 -0.43,-0.431 -0.998,-0.721 -1.447,-1.126 -0.466,-0.421 0.316,-0.773 0.118,-1.063 -0.228,-0.344 -3.994,-2.69 -2.247,-3.468 1.197,0.246 4.131,2.138 4.85,3.105 0.313,0.417 1.727,6.813 1.963,7.756 -0.566,0.731 -0.953,3.638 0.448,3.665 -0.139,-0.302 -0.383,-0.666 -0.211,-1.006 0.511,0.368 0.992,0.267 1.405,-0.167 3.626,4.018 7.529,6.006 12.608,7.593 0.239,0.651 0.379,0.968 1.107,1.112 C -1.545,0.254 -0.569,0.568 0,0 m -1.581,-1.363 -0.311,0.104 c -0.397,-0.089 -0.544,-0.563 -0.667,-0.894 -5.499,-1.678 -9.268,-3.879 -13.05,-8.261 -1.18,2.173 -1.908,0.254 -0.667,-0.974 -0.361,-1.476 -1.648,-8.512 -2.364,-9.188 -1.339,-1.27 -3.212,-1.89 -4.537,-3.089 l 0.047,-0.226 c 0.21,-0.029 0.47,0.075 0.662,0.15 1.28,0.492 3.372,1.679 4.405,2.573 1.186,1.021 1.932,6.416 2.161,7.483 0.182,0.88 0.386,1.966 0.956,2.676 3.11,3.869 7.32,6.845 12.152,8.094 0.541,0.141 1.653,0.863 1.213,1.552 m -1.362,-3.786 -0.208,0.182 c -0.247,-0.058 -0.389,-0.378 -0.471,-0.595 -0.807,-2.099 -0.276,-4.33 -0.324,-6.481 -0.007,-0.3 -0.2,-0.682 -0.52,-0.346 -0.355,0.37 -0.64,1.879 -0.722,2.417 -0.08,0.523 -0.116,3.715 -0.193,3.819 -1.139,0.057 -0.584,-4.875 -0.637,-5.554 l -0.219,-0.154 c -0.876,0.074 -1.138,3.836 -1.122,4.536 l -0.226,0.166 c -1.006,-0.145 0.296,-4.816 -0.694,-3.969 -0.528,0.456 -0.859,2.161 -1.02,2.843 -0.74,-0.211 0.27,-2.696 -0.622,-2.615 -0.204,0.021 -0.346,0.261 -0.425,0.425 -0.165,0.337 -0.173,0.75 -0.414,1.051 l -0.223,-0.077 c -0.052,-0.323 -0.097,-0.653 -0.161,-0.974 -0.094,-0.44 -0.977,0.115 -0.903,-0.548 0.033,-0.294 2.72,-0.819 3.18,-0.957 2.315,-0.701 4.463,-1.784 6.474,-3.117 0.317,-0.215 0.703,-0.764 1.121,-0.671 1.162,0.265 -0.273,1.236 -0.414,1.519 -1.471,2.946 -1.891,5.862 -1.257,9.1 m -47.276,-2.155 0.221,-0.016 c 0.136,0.238 0.301,0.499 0.576,0.59 0.165,0.057 0.371,0.057 0.518,-0.044 0.238,-0.161 -0.078,-0.576 0.207,-0.682 0.221,-0.09 0.894,0.168 1.273,-0.018 0.639,-0.312 0.557,-0.524 1.375,-0.457 0.377,0.031 0.585,-0.158 0.78,-0.439 0.311,-0.452 0.693,-0.044 1.064,-0.065 0.303,-0.013 1.214,-0.535 1.554,-0.682 1.3,-0.561 3.675,-0.55 4.256,-0.852 0.158,-0.08 0.201,-0.203 0.164,-0.38 -0.09,-0.407 -0.691,-0.734 -1.05,-0.867 -0.772,-0.281 -1.719,-0.366 -2.527,-0.503 -2.21,-0.368 -4.027,-1.533 -6.358,-1.581 -0.314,-0.006 -0.662,0.048 -0.913,-0.182 0.756,-0.548 7.485,0.605 7.903,1.139 0.808,1.017 1.536,-0.233 2.247,-0.227 0.797,0.004 -0.17,0.783 0.163,1.127 0.58,0.594 1.564,-0.113 2.202,0.409 l -0.014,0.321 c -1.45,0.861 -0.828,0.762 0.089,1.489 0.688,0.547 0.672,1.782 -0.03,1.399 -0.537,-1.308 -3.481,1.244 -4.318,1.446 -1.693,0.411 -2.586,-0.901 -3.248,-0.99 -0.42,-0.053 -2.888,0.31 -3.33,0.459 -0.629,0.216 -1.452,1.037 -2.168,0.912 -0.512,-0.09 -1.159,-0.86 -0.636,-1.306 m 17.661,-0.387 c 0.97,-0.649 1.724,-1.494 2,-2.434 0.118,-0.392 -0.024,-0.815 0.163,-1.199 l 0.314,0.087 c 1.207,1.454 -0.039,3.475 -2.477,3.546 m 3.178,0.186 c 1.987,-1.794 0.767,-2.548 0.506,-4.005 1.943,-0.366 2.686,3.694 -0.506,4.005 m 3.064,-0.534 c 0.696,-1.358 0.614,-2.712 -0.497,-3.902 -0.121,-0.131 -0.688,-0.545 -0.571,-0.707 0.575,-0.799 2.6,1.329 2.741,2.028 0.233,1.098 -0.447,2.072 -1.673,2.581 m -7.647,-0.378 -0.25,-0.031 c -0.135,-0.57 1.571,-2.759 1.981,-2.204 0.417,0.563 -1.262,2.033 -1.731,2.235 m 10.652,-0.887 c -0.027,-0.583 0.01,-1.171 -0.088,-1.748 -1.013,-6.326 -12.425,-5.275 -13.507,-10.968 0.213,0.111 0.403,0.216 0.646,0.183 -0.112,-1.462 -1.052,-2.159 -0.308,-3.836 0.3,0.643 0.547,1.33 1.124,1.782 l 0.224,-0.064 c -0.099,-0.627 -0.81,-3.155 -0.27,-3.557 0.306,0.457 0.588,1.327 1.214,1.431 l 0.147,-0.258 -0.442,-1.996 c -0.246,-1.075 -0.155,-2.196 -0.371,-3.252 -0.21,-1.032 -0.711,-2.135 -1.004,-3.165 -0.642,-2.259 -1.034,-4.521 -1.225,-6.861 -0.081,-0.941 -0.025,-1.982 -0.162,-2.904 -0.053,-0.319 -1.38,-3.208 -1.601,-3.425 -0.95,-0.928 -2.658,-0.522 -3.78,-0.275 l -0.015,-0.24 c 0.455,-0.11 0.948,-0.206 1.386,-0.369 0.489,-0.174 -0.14,-0.399 0.033,-0.758 0.471,0.212 2.259,1.236 2.793,0.944 0.323,-0.182 0.407,-0.645 0.884,-0.488 0.067,0.634 -0.337,1.245 -0.134,1.87 0.146,0.44 1.128,2.087 1.144,2.312 0.049,0.984 0.065,1.953 0.142,2.939 0.019,0.192 0.115,0.867 0.253,0.987 0.227,0.198 0.302,-0.308 0.575,-0.226 l 0.163,0.259 c 0.008,0.718 -0.242,2.478 0.21,3.04 0.043,0.055 0.231,0.116 0.295,0.077 0.537,-0.318 0.664,-1.512 0.959,-1.492 0.101,0.008 0.183,0.274 0.193,0.349 0.166,1.062 -0.303,2.207 -0.059,3.273 0.066,0.298 0.284,0.752 0.637,0.789 0.336,0.038 0.356,-0.427 0.679,-0.381 0.293,0.58 -0.447,4.582 0.698,5.082 l 0.19,-0.182 c 0.091,-0.669 0.1,-2.561 0.696,-2.92 0.138,0.445 0.521,2.202 1.12,2.192 l 0.119,-0.23 c -0.101,-0.669 -0.452,-4.124 0.149,-4.366 0.174,0.728 0.361,1.498 0.649,2.191 0.677,1.636 2.104,2.985 3.584,3.912 0.315,0.2 0.819,0.382 1.088,0.605 0.063,0.055 0.121,0.147 0.175,0.212 -1.25,1.114 -3.962,-0.973 -5.067,-1.001 0.284,1.19 2.738,2.412 3.782,2.919 l 0.015,0.198 c -1.63,0.526 -3.724,-0.509 -5.101,-1.278 -0.072,-0.039 -0.23,-0.049 -0.278,0.033 -0.509,0.781 3.876,2.753 4.047,3.194 -1.867,0.186 -3.207,-0.413 -4.864,-1.127 -0.143,-0.064 -0.262,0.027 -0.292,0.183 1.103,1.209 2.557,2.011 4.063,2.614 -0.953,0.453 -3.831,-0.358 -4.714,-0.926 h -0.237 l -0.044,0.197 c 1.217,1.441 2.978,2.016 4.639,2.767 -1.355,-0.042 -2.726,-0.145 -4.033,-0.548 -0.341,-0.103 -0.666,-0.265 -1.019,-0.332 l -0.121,0.197 c 1.933,1.762 3.926,1.51 5.899,2.647 -1.84,-0.096 -3.686,-0.212 -5.513,-0.471 1.031,1.377 10.667,2.521 10.478,4.715 -1.634,-1.461 -5.329,-2.158 -7.479,-2.372 0,0 8.137,2.532 7.467,6.204 -0.112,0.626 -0.376,1.265 -0.831,1.719 m -10.633,-1.364 c -0.269,0.379 -1.774,1.289 -1.644,0.303 0.128,-0.993 2.237,-1.159 1.644,-0.303 m 21.408,-2.561 c -0.437,0.659 -0.997,-0.962 -1.035,-1.246 -0.065,-0.557 2.576,-4.394 3.031,-5.141 1.361,-2.239 2.799,-4.339 3.533,-6.877 0.105,-0.36 0.069,-1.306 0.607,-1.306 0.213,0 0.437,0.134 0.516,0.332 0.188,0.476 -0.222,0.74 -0.395,1.095 -0.279,0.548 -0.145,2.452 -0.075,3.103 0.254,2.424 1.451,4.434 2.615,6.513 0.045,0.087 0.156,0.321 0.029,0.394 -0.117,0.07 -0.455,-0.225 -0.531,-0.303 -1.58,-1.601 -2.171,-4.394 -3.078,-5.494 -0.329,-0.005 -0.409,0.299 -0.381,0.578 0.196,2.14 1.546,3.863 2.409,5.72 0.055,0.127 -0.1,0.282 -0.196,0.32 -1.126,-0.78 -2.372,-3.47 -3.03,-4.717 -0.121,-0.231 -0.274,-0.36 -0.514,-0.181 -0.45,1.196 1.87,4.45 1.981,5.752 -1.028,-0.463 -2.663,-4.207 -3.003,-4.202 l -0.163,0.275 c 0.124,1.599 1.366,3.219 1.392,4.398 -0.983,-0.225 -1.825,-3.629 -2.435,-2.661 -0.206,1.083 0.499,1.907 0.767,2.889 0.028,0.112 0.054,0.3 -0.06,0.38 -0.445,0.322 -1.715,-2.925 -2.146,-1.537 -0.119,0.385 0.187,1.409 0.162,1.916 m -1.536,-5.687 c -0.29,-0.026 -0.395,-0.293 -0.473,-0.536 -0.44,-1.368 0.195,-7.926 -0.43,-8.21 -0.647,-0.297 -0.884,2.533 -0.946,2.949 -0.16,1.135 -0.156,2.288 -0.308,3.424 l -0.221,-0.138 c -0.681,-1.411 -0.028,-5.793 -0.208,-6.052 -0.29,-0.409 -3.475,0.435 -4.7,-0.26 l 0.029,-0.246 c 0.365,-0.098 0.753,0 1.122,0 1.452,0 2.476,-0.32 3.784,-0.904 0.126,-0.057 0.777,-0.375 0.841,-0.387 0.066,-0.011 0.148,0 0.207,0 2.722,2.378 3.589,2.521 7.081,3.073 0.027,0.398 -0.235,1.142 -0.619,1.32 -0.389,0.185 -0.755,-1.432 -1.11,-0.422 -0.066,0.182 -0.129,1.712 -0.193,2.112 l -0.252,0.016 c -0.19,-0.52 -0.272,-2.475 -0.472,-2.647 l -0.275,0.076 c -0.539,1.012 -0.521,4.255 -0.652,5.567 l -0.228,0.153 c -0.786,-0.443 -0.172,-4.82 -0.47,-5.705 -0.043,-0.14 -0.177,-0.218 -0.322,-0.182 -0.981,0.246 -1.178,5.992 -1.185,6.999 m -3.704,-7.423 c -0.434,0.987 -0.112,2.248 -0.519,3.086 -0.093,0.189 -0.389,0.035 -0.477,-0.06 -0.589,-0.629 -0.603,-3.535 0.996,-3.026 m -2.698,0.062 0.296,0.263 c -0.041,0.472 0.058,1.174 -0.087,1.611 -0.357,1.053 -1.748,-1.594 -0.209,-1.874 m -29.755,3.097 c 0.844,-0.391 0.998,1.19 0.697,1.223 -0.715,0.069 -0.974,-0.841 -0.697,-1.223 m 12.293,-3.185 c -1.579,0.037 -3.145,-0.13 -4.706,-0.431 -0.588,-0.115 -1.981,-0.616 -2.479,-0.521 -1.066,0.207 -2.977,0.831 -3.98,1.282 -0.816,0.36 -1.53,1.142 -2.359,1.549 0.03,-0.317 0.225,-0.581 0.405,-0.815 -0.039,-0.243 -0.275,-0.322 -0.262,-0.612 0.501,0.042 1.429,0.281 1.483,-0.587 0.017,-0.242 -0.359,-0.437 -0.233,-0.662 1.958,0.631 3.495,-0.48 5.373,-1.195 0,-0.248 -0.351,-0.502 -0.477,-0.712 0.079,-0.149 0.264,-0.149 0.404,-0.119 1.385,0.304 2.642,2.126 4.242,1.613 l 0.128,-0.231 c -0.187,-0.502 -0.723,-0.747 -0.858,-1.278 l 0.184,-0.087 c 0.667,0.15 1.718,0.968 2.182,0.997 1.225,0.091 0.933,-2.448 1.821,-2.121 -0.132,0.719 -0.166,1.648 -0.356,2.344 -0.148,0.094 -0.313,0.009 -0.461,0.087 -0.103,0.491 -0.031,1.001 -0.051,1.499 m -14.43,3.385 c -0.044,0.343 0.207,1.312 0.004,1.356 -0.895,0.206 -1.144,-2.041 -0.004,-1.356 m 0.149,-3.45 c 0.079,0.359 -1.313,1.196 -1.412,0.241 -0.048,-0.479 1.211,-1.167 1.412,-0.241 m 30.809,-7.34 c -0.887,0.464 -2.2,-0.239 -2.97,-0.664 -2.491,-1.39 -3.433,-3.964 -3.102,-6.7 0.035,-0.252 0.064,-0.496 0.263,-0.679 l 0.245,0.089 c 1.257,4.305 2.357,5.083 5.564,7.954 m -28.871,4.843 -0.296,0.084 c -0.658,-0.32 0.099,-1.991 0.813,-1.403 -0.162,0.441 -0.411,0.862 -0.517,1.319 m 37.493,-5.774 c 0.605,-0.48 1.255,-0.97 1.613,-1.673 0.138,-0.276 0.178,-0.586 0.486,-0.732 0.298,1.889 -1.635,2.88 -2.099,2.405 m 2.763,-0.429 c 0.396,-1.076 0.821,-2.02 0.885,-3.192 0.842,0.469 0.053,3.326 -0.885,3.192 m -10.499,-1.83 c -4.342,0.501 -5.991,-4.977 -5.147,-7.872 l 0.341,-0.107 c 0.134,0.549 0.175,1.116 0.283,1.664 0.538,2.644 2.336,4.559 4.523,6.315 m 8.005,-0.171 c -0.385,2.267 -2.777,1.455 -2.664,0.705 1.358,0.332 1.526,0.099 2.664,-0.705 m 4.994,0.145 c -0.109,0.002 -0.296,-0.04 -0.357,-0.153 -0.303,-0.577 -0.301,-1.738 -0.532,-2.444 -0.117,-0.376 -0.322,-0.724 -0.395,-1.115 l 0.192,-0.06 c 1.217,0.765 1.036,2.577 1.092,3.772 m -3.078,-5.401 c 2.053,2.766 -0.484,5.771 -2.169,4.484 -1.973,-1.505 0.643,-3.963 2.169,-4.484 m -3.246,4.877 c -1.072,0.966 -3.103,-0.647 -2.363,-1.993 0.932,1.118 0.845,1.381 2.363,1.993 m -0.669,-1.752 c -0.859,0.212 -1.525,-1.919 -0.193,-2.924 0.169,0.936 -0.47,1.138 0.193,2.924 m 8.1,-0.357 c -0.097,0.303 -0.347,-0.087 -0.414,-0.179 -0.747,-1.027 -1.312,-2.177 -2.319,-2.999 -0.037,-0.027 -0.211,-0.146 -0.121,-0.212 0.121,-0.083 0.311,-0.149 0.446,-0.214 1.176,0.38 2.201,2.458 2.408,3.604 m -6.208,-4.025 c -0.728,0.803 -0.869,1.303 -1.137,2.312 -0.325,1.227 -0.972,-2.893 1.137,-2.312 m -7.727,3.162 c -0.241,0.163 -0.641,0.021 -0.902,-0.049 -2.23,-0.614 -3.613,-3.937 -1.827,-5.858 -0.123,2.489 0.989,3.91 2.729,5.907 m 14.321,-1.915 c -0.344,-0.058 -1.85,-0.915 -2.07,-1.157 0.245,-0.108 0.474,-0.292 0.753,-0.306 0.551,0.355 0.913,0.96 1.317,1.463 m -5.808,-0.456 -0.209,0.029 c -0.067,-1.017 1.028,-2.178 2.069,-1.813 l -0.089,0.231 c -0.731,0.307 -1.319,0.916 -1.771,1.553 m -8.147,-5.703 c -0.578,1.093 -0.624,2.263 -0.276,3.387 0.09,0.278 1.116,1.817 0.322,1.732 -2.779,-0.3 -2.176,-5.251 -0.046,-5.119 m 10.172,4.77 c 0.044,-1.338 3.56,-2.128 4.463,-3.41 0.696,-0.984 -0.054,-1.845 0,-2.815 0.404,0.245 0.779,0.547 1.062,0.931 h -0.295 c -0.147,0.118 -0.004,0.38 0.032,0.531 0.194,0.903 -0.148,1.715 -0.858,2.299 -1.168,0.95 -2.759,1.25 -3.918,2.235 -0.154,0.129 -0.249,0.319 -0.486,0.229 m -2.206,-1.722 c 0.283,-0.769 2.435,-1.748 2.853,-0.958 -0.39,0.322 -1.747,0.657 -2.32,0.897 -0.141,0.061 -0.415,0.243 -0.533,0.061 m -30.255,-1.776 c 0.108,0.296 -0.181,0.646 -0.3,0.915 -0.741,1.662 -1.04,-1.316 0.3,-0.915 m 31.879,-1.091 c -1.968,0.75 -1.927,1.659 -2.736,2.189 -0.136,0.088 -0.269,0.089 -0.38,-0.039 -0.752,-0.851 2.264,-3.389 3.116,-2.15 m -6.467,-1.358 0.181,0.215 c -0.885,1.328 -0.994,2.577 -1.391,4.036 -0.046,0.171 -0.17,0.398 -0.387,0.393 -1.242,-0.022 -0.251,-4.966 1.597,-4.644 m 1.16,3.776 -0.285,-0.351 c -0.17,-1.685 1.548,-3.695 3.059,-2.904 -0.996,0.734 -1.864,1.69 -2.427,2.885 -0.076,0.161 -0.156,0.372 -0.347,0.37 m -27.794,-2.884 c -0.28,0.099 -1.009,0.377 -1.302,0.363 l -0.085,-0.323 c 0.178,-0.552 1.057,-0.775 1.425,-0.337 z m 6.171,-1.429 c -0.28,-0.902 1.439,-1.488 1.439,-0.659 -0.163,0.166 -1.292,0.798 -1.439,0.659 m -3.283,-0.459 c 0.085,0.702 -1.226,-0.212 -1.256,-0.243 -0.412,-0.431 1.108,-0.888 1.256,0.243 m 17.962,19.986 c -0.888,0.463 -2.199,-0.239 -2.966,-0.669 -2.49,-1.389 -3.434,-3.962 -3.103,-6.699 0.03,-0.249 0.065,-0.498 0.26,-0.676 l 0.248,0.088 c 1.251,4.305 2.358,5.081 5.561,7.956"
         fill="#a19562"
         id="path1" />
    </g>
    <g
       transform="matrix(1.25,0,0,-1.25,363.67,179.72)"
       id="g2">
      <path
         d="M 0,0 C 1.342,0.447 2.455,1.462 2.863,2.89 3.036,3.315 3.003,3.9 3.434,4.164 4.423,4.646 5.746,4.576 6.716,4.092 6.941,3.974 7.237,3.825 7.326,3.551 7.581,2.906 7.435,2.087 7.482,1.386 c 1.545,1.17 2.729,3.027 2.94,5.134 0.757,-0.277 1.323,-0.921 1.706,-1.654 0.228,-0.541 0.383,-1.155 0.47,-1.771 1.335,-0.306 2.545,-1.303 2.726,-2.751 0.046,-0.307 0.06,-0.72 -0.044,-1.01 -0.125,-0.087 -0.165,0.133 -0.251,0.178 -0.327,0.26 -0.799,0.421 -1.278,0.333 C 12.398,-0.708 11.345,-1.707 10.082,-2.41 9.502,-2.731 8.943,-3.021 8.306,-3.197 7.237,-3.435 5.961,-3.225 5.22,-2.468 L 5.095,-2.261 C 4.084,-3.197 2.962,-3.797 1.726,-4.308 1.064,-4.498 0.406,-4.695 -0.306,-4.761 l 0.025,-0.494 c -3.49,-0.008 -3.663,-3.972 -3.663,-3.972 h -2.652 v -0.814 h -4.752 v 0.814 h -2.593 c 0,0 -0.069,3.964 -3.664,3.972 l 0.024,0.482 c -0.763,0.053 -1.465,0.263 -2.168,0.465 -1.236,0.511 -2.359,1.111 -3.366,2.047 l -0.126,-0.207 c -0.739,-0.757 -2.02,-0.967 -3.087,-0.729 -0.636,0.176 -1.196,0.466 -1.775,0.787 -1.266,0.703 -2.317,1.702 -3.67,2.255 -0.481,0.088 -0.95,-0.073 -1.273,-0.333 -0.091,-0.045 -0.131,-0.265 -0.262,-0.178 -0.098,0.29 -0.084,0.703 -0.04,1.01 0.184,1.448 1.391,2.445 2.729,2.751 0.088,0.616 0.242,1.23 0.47,1.771 0.382,0.733 0.95,1.377 1.703,1.654 0.215,-2.107 1.394,-3.964 2.946,-5.134 0.04,0.701 -0.105,1.52 0.153,2.165 0.086,0.274 0.384,0.423 0.61,0.541 0.966,0.484 2.291,0.554 3.286,0.072 0.428,-0.264 0.396,-0.849 0.57,-1.274 0.418,-1.48 1.597,-2.513 3.005,-2.933 -0.11,0.836 -0.215,1.385 -0.215,1.385 0,0 3.664,-0.478 5.736,0.414 0,0 0.508,-3.541 3.42,-3.539 C -6,-1.78 -5.533,1.756 -5.533,1.756 -3.456,0.864 0.202,1.342 0.202,1.342 0.202,1.342 0.107,0.814 0,0 m -29.598,2.717 c 0,-0.264 0.073,-0.559 0.073,-0.808 -0.14,-0.015 -0.297,0.075 -0.455,0.058 -0.794,0.03 -1.578,-0.247 -2.005,-0.938 0.103,0 0.257,0.06 0.385,0.06 0.568,-0.085 1.008,-0.453 1.48,-0.745 1.12,-0.832 2.169,-1.799 3.466,-2.329 0.101,0.163 0.212,0.324 0.199,0.514 -0.74,0.946 -1.906,1.508 -2.557,2.56 -0.07,0.119 -0.043,0.279 0.012,0.395 0.413,0.206 2.873,-2.244 3.096,-1.755 0.103,0.103 0.174,0.276 0.191,0.437 -1.493,1.085 -2.776,2.52 -3.369,4.335 -0.369,-0.483 -0.502,-1.159 -0.516,-1.784 m 18.267,-11.032 c 0,0 0.078,1.194 -0.298,4.729 0,0 -1.123,-0.429 -1.913,-0.119 0.466,0.381 1.325,1.374 1.351,2.33 0,0 -1.029,-0.669 -2.305,-0.239 1.187,0.699 1.117,2.161 1.117,2.161 -1.639,-0.333 -2.805,-0.237 -2.805,-0.237 0,0 0.382,-2.163 0.395,-4.641 3.031,-1.197 2.871,-3.984 2.871,-3.984 z m -6.398,7.01 c -1.8,0.481 -3.299,1.549 -4.16,3.38 -0.166,0.335 -0.341,0.757 -0.426,1.109 -0.142,0.131 -0.242,0.208 -0.456,0.189 -0.538,-0.189 0.106,-1.351 0.323,-2.033 0.179,-0.541 0.987,-1.378 0.76,-1.606 -0.556,-0.132 -0.753,0.293 -1.011,0.57 -0.569,0.821 -0.938,1.683 -1.252,2.665 -0.114,0.174 -0.442,0.267 -0.483,-0.19 0.089,-0.792 0.359,-1.55 0.682,-2.252 1.176,-2.405 3.567,-3.925 6.202,-4.186 l -0.041,0.591 c -1.128,0.23 -2.212,0.656 -3.107,1.34 -0.245,0.173 -0.526,0.422 -0.411,0.776 0.03,0.115 0.203,0.071 0.271,0.043 1.454,-0.818 2.484,-1.259 3.206,-1.288 z M 11.2,4.501 C 10.598,2.686 9.323,1.251 7.831,0.166 7.845,0.005 7.916,-0.168 8.019,-0.271 8.246,-0.76 10.703,1.69 11.114,1.484 11.174,1.368 11.2,1.208 11.128,1.089 10.476,0.037 9.313,-0.525 8.569,-1.471 c -0.015,-0.19 0.103,-0.351 0.199,-0.514 1.295,0.53 2.346,1.497 3.469,2.329 0.469,0.292 0.908,0.66 1.476,0.745 0.128,0 0.284,-0.06 0.385,-0.06 -0.425,0.691 -1.209,0.968 -2.004,0.938 -0.155,0.017 -0.31,-0.073 -0.453,-0.058 0,0.249 0.071,0.544 0.071,0.808 C 11.697,3.342 11.567,4.018 11.2,4.501 M -4.967,-8.315 c 0,0 -0.155,2.787 2.874,3.984 0.01,2.478 0.391,4.641 0.391,4.641 0,0 -1.167,-0.096 -2.8,0.237 0,0 -0.073,-1.462 1.114,-2.161 -1.276,-0.43 -2.305,0.239 -2.305,0.239 0.031,-0.956 0.887,-1.949 1.35,-2.33 -0.787,-0.31 -1.913,0.119 -1.913,0.119 -0.373,-3.535 -0.297,-4.729 -0.297,-4.729 z m 4.713,6.118 c 0.723,0.029 1.755,0.47 3.203,1.288 0.072,0.028 0.246,0.072 0.274,-0.043 C 3.338,-1.306 3.058,-1.555 2.807,-1.728 1.916,-2.412 0.83,-2.838 -0.295,-3.068 l -0.036,-0.591 c 2.632,0.261 5.023,1.781 6.198,4.186 0.326,0.702 0.596,1.46 0.685,2.252 C 6.511,3.236 6.18,3.143 6.064,2.969 5.749,1.987 5.381,1.125 4.817,0.304 4.559,0.027 4.357,-0.398 3.807,-0.266 3.576,-0.038 4.381,0.799 4.564,1.34 4.785,2.022 5.421,3.184 4.884,3.373 4.672,3.392 4.574,3.315 4.433,3.184 4.347,2.832 4.168,2.41 4.005,2.075 3.148,0.244 1.639,-0.824 -0.156,-1.305 Z m -8.705,-3.666 c 0.76,0 1.377,0.755 1.377,1.686 0,0.932 -0.617,1.685 -1.377,1.685 -0.765,0 -1.381,-0.753 -1.381,-1.685 0,-0.931 0.616,-1.686 1.381,-1.686"
         fill="#a19562"
         id="path2" />
    </g>
    <g
       transform="matrix(1.25,0,0,-1.25,340.04,197.99)"
       id="g3">
      <path
         d="m 0,0 0.501,-0.046 0.074,-0.258 c -0.682,-0.905 -4.306,-0.55 -5.071,0.166 -0.276,0.262 -0.416,0.649 -0.78,0.808 L -5.309,0.974 C -3.248,2.196 -1.719,1.234 0,0 m -3.607,-0.09 0.236,0.936 -1.252,-0.161 z m 2.774,-0.071 -1.057,0.694 -0.196,-0.945 1.253,0.251"
         fill="#a19562"
         id="path3" />
    </g>
    <g
       transform="matrix(1.25,0,0,-1.25,352.42,181.19)"
       id="g4">
      <path
         d="m 0,0 c -0.829,0.004 -2.682,1.008 -2.687,3.01 v 0.799 c -1.054,0.571 -1.991,1.479 -2.273,2.766 -0.316,1.29 0.069,2.738 0.811,3.702 -0.071,0.237 -0.029,0.44 0.069,0.643 0.182,0.295 0.556,0.499 0.925,0.441 0.353,-0.102 0.552,0.263 0.852,0.38 0.138,0.059 0.256,0.161 0.298,0.324 -1.025,0.656 -2.506,1.267 -2.947,2.512 0.399,-0.062 0.882,0.024 1.293,-0.078 -0.04,0.149 -0.143,0.193 -0.268,0.223 -0.397,0.131 -0.838,0.234 -1.165,0.526 -0.474,0.41 -0.881,1.039 -1.012,1.669 0.199,-0.045 0.397,-0.161 0.614,-0.249 0.37,-0.147 0.808,-0.119 1.206,-0.19 -0.85,0.483 -1.889,0.688 -2.243,1.653 -0.116,0.324 -0.242,0.672 -0.242,1.039 0.483,-0.307 1.106,-0.232 1.607,-0.438 l 0.352,-0.178 c -0.256,0.457 -0.453,1.098 -0.921,1.333 -0.33,-0.059 -0.63,-0.222 -0.983,-0.176 -0.71,0.03 -1.321,0.6 -1.537,1.259 -0.337,1.184 0.188,2.387 1.04,3.119 0.668,0.541 1.564,0.802 2.515,0.717 0.529,-0.089 1.176,-0.348 1.176,-0.348 0,0 0.781,2.963 3.583,2.968 3.091,-0.005 3.589,-2.968 3.589,-2.968 0,0 0.648,0.259 1.175,0.348 C 5.778,24.891 6.678,24.63 7.341,24.089 8.197,23.357 8.722,22.154 8.382,20.97 8.168,20.311 7.557,19.741 6.845,19.711 6.49,19.665 6.191,19.828 5.866,19.887 5.394,19.652 5.196,19.011 4.942,18.554 l 0.356,0.178 c 0.495,0.206 1.12,0.131 1.605,0.438 0,-0.367 -0.128,-0.715 -0.245,-1.039 -0.352,-0.965 -1.393,-1.17 -2.243,-1.653 0.4,0.071 0.842,0.043 1.21,0.19 0.211,0.088 0.412,0.204 0.608,0.249 C 6.107,16.287 5.692,15.658 5.222,15.248 4.9,14.956 4.455,14.853 4.06,14.722 3.929,14.692 3.834,14.648 3.79,14.499 4.205,14.601 4.684,14.515 5.083,14.577 4.646,13.332 3.171,12.721 2.143,12.065 2.184,11.902 2.301,11.8 2.44,11.741 2.739,11.624 2.942,11.259 3.299,11.361 3.664,11.419 4.038,11.215 4.221,10.92 4.319,10.717 4.361,10.514 4.29,10.277 5.028,9.313 5.41,7.865 5.1,6.575 4.819,5.288 3.881,4.38 2.829,3.809 V 3.01 C 2.819,1.048 1.081,0 0,0 M -2.947,10.118 C -3.09,10.072 -3.072,9.908 -3.055,9.779 -2.957,9.486 -2.616,9.486 -2.376,9.342 -2.817,8.739 -3.1,8.036 -3.188,7.261 c -0.053,-1.01 0.045,-2.136 0.971,-2.607 0.151,-0.043 0.266,-0.173 0.424,-0.143 -0.526,1.388 -0.34,3.118 0.169,4.477 0.015,0.248 0.259,0.074 0.382,0.074 C -0.967,8.988 -0.64,9.016 -0.39,8.931 -0.457,8.548 -0.541,8.182 -0.6,7.802 -0.725,6.603 -0.655,5.288 -0.43,4.143 -0.144,4.07 0.181,4.056 0.481,4.102 0.838,5.65 0.808,7.346 0.54,8.946 0.907,9.003 1.291,9.046 1.662,9.077 1.845,8.8 1.93,8.461 2.046,8.138 2.4,7.024 2.231,5.635 1.873,4.584 L 2.156,4.611 C 2.739,4.82 3.027,5.388 3.212,5.929 3.576,7.171 3.253,8.564 2.414,9.342 2.631,9.486 2.98,9.544 3.051,9.868 2.98,10.014 2.829,10.145 2.642,10.1 1.248,9.503 -0.613,9.428 -2.077,9.882 c -0.299,0.057 -0.528,0.276 -0.87,0.236 m 2.543,16.103 c -0.822,-0.169 -1.477,-0.666 -1.798,-1.408 -0.343,-0.725 -0.143,-1.706 0.475,-2.309 0.027,0.209 0.078,0.347 0.244,0.414 0.213,0.097 0.405,-0.013 0.587,-0.139 0.128,-0.1 0.193,-0.288 0.206,-0.466 0.114,-1.276 -0.265,-2.653 -0.317,-3.923 -0.019,-0.9 0.018,-2.436 0.077,-3.298 0.084,-0.673 0.132,-1.358 0.344,-1.936 0.061,-0.12 0.135,-0.236 0.296,-0.224 0.108,0.007 0.11,0.13 0.146,0.201 -0.298,1.248 -0.286,3.238 -0.246,4.442 0.081,1.503 0.414,2.914 0.487,4.382 -0.013,0.59 0,1.185 -0.336,1.659 -0.176,0.165 -0.409,0.301 -0.664,0.293 -0.24,-0.014 -0.437,-0.126 -0.741,-0.395 -0.056,0.091 -0.064,0.215 -0.099,0.323 -0.011,0.575 0.207,1.158 0.734,1.406 0.449,0.28 1.147,0.287 1.628,0.074 0.747,-0.319 1.061,-1.06 1.06,-1.97 C 1.605,22.048 1.069,21.256 0.856,20.014 0.43,18.174 0.36,15.042 0.65,13.104 c 0.047,-0.08 0.11,-0.199 0.221,-0.15 0.138,0.026 0.128,0.16 0.173,0.262 -0.016,0.852 0.069,2.507 0.123,3.338 0.165,1.281 0.14,2.464 0.469,3.704 0.271,1.175 1.028,2.351 0.885,3.621 -0.087,0.544 -0.249,0.991 -0.565,1.425 -0.56,0.634 -1.408,1.043 -2.36,0.917 M 3.038,21.56 C 2.521,20.627 2.48,19.499 2.43,18.391 2.45,16.791 2.407,15.183 1.956,13.69 c 0.998,0.477 0.873,1.814 1.065,2.802 0.141,1.623 0.03,3.457 0.878,4.877 0.361,0.615 1.026,1.003 1.791,0.886 0.552,-0.046 0.937,-0.489 1.118,-0.979 0,-0.115 0.035,-0.249 0.074,-0.367 0.302,0.194 0.447,0.612 0.359,1.011 C 7.038,22.631 6.357,23.095 5.596,23.152 4.441,23.225 3.495,22.539 3.038,21.56 m -8.394,1.592 c -0.764,-0.057 -1.445,-0.521 -1.651,-1.232 -0.084,-0.399 0.058,-0.817 0.364,-1.011 0.036,0.118 0.076,0.252 0.074,0.367 0.18,0.49 0.561,0.933 1.115,0.979 0.768,0.117 1.434,-0.271 1.795,-0.886 0.844,-1.42 0.736,-3.254 0.877,-4.877 0.189,-0.988 0.068,-2.325 1.062,-2.802 -0.447,1.493 -0.488,3.101 -0.471,4.701 -0.051,1.108 -0.093,2.236 -0.605,3.169 -0.459,0.979 -1.409,1.665 -2.56,1.592 M -1.58,3.402 V 1.717 L -0.841,1.062 V 3.154 L -1.58,3.402"
         fill="#a19562"
         id="path4" />
    </g>
    <g
       transform="matrix(1.25,0,0,-1.25,139.1,192.49)"
       id="g5">
      <path
         d="M 0,0 C 2.981,2.781 6.818,3.517 8.564,1.64 10.315,-0.238 9.315,-4.011 6.331,-6.793 3.349,-9.576 -0.486,-10.308 -2.236,-8.436 -3.985,-6.557 -2.982,-2.786 0,0"
         fill="#a19562"
         id="path5" />
    </g>
    <g
       transform="matrix(1.25,0,0,-1.25,236.71,212.8)"
       id="g6">
      <path
         d="m 0,0 c -1.398,1.65 -3.882,0.108 -5.501,-0.577 -6.612,-3.987 -12.612,-9.413 -18.074,-15.524 -2.877,-3.379 -5.908,-6.661 -7.312,-10.721 -0.109,-0.651 0.307,-1.489 0.775,-1.809 1.727,-0.508 3.156,0.417 4.664,0.957 8.771,4.202 16.751,12.83 22.861,20.772 C -1.327,-4.782 1.207,-2.09 0,0 m -152.92,-26.652 c -4.674,1.798 -9.382,3.487 -14.52,4.203 -3.414,0.325 -7.333,0.541 -9.885,-1.832 -0.521,-0.559 -0.549,-1.042 -0.318,-1.554 1.078,-2.122 3.516,-2.15 5.53,-2.614 6.54,-0.828 13.155,0.179 19.193,1.797 m 85.106,67.55 -0.615,0.722 c -2.658,1.545 -5.639,-0.145 -7.979,-1.369 -12.325,-7.292 -24.557,-24.243 -32.285,-35.747 1.941,0.327 9.488,2.819 14.631,6.063 9.095,5.066 20.746,16.173 25.633,25.698 0.538,1.4 1.402,3.054 0.615,4.633 m -36.421,-61.456 c -9.021,-7.189 -19.472,-11.358 -31.476,-10.099 -4.025,0.647 -7.976,1.511 -11.858,2.589 -8.23,-2.336 -17.864,-3.919 -26.814,-1.978 -2.228,0.646 -5.174,1.796 -5.677,4.458 -0.179,2.405 1.938,4.381 3.88,5.353 10.423,5.067 23.363,1.081 33.497,-2.049 4.028,2.95 7.511,6.9 10.605,10.711 l 6.563,8.156 c 1.043,1.509 3.427,4.635 3.427,4.635 -10.673,0.539 -22.328,1.766 -28.797,11.038 -3.125,5.032 -2.765,12.113 0.325,17.074 6.503,9.525 17.251,12.362 28.107,13.009 6.757,0.181 13.046,-1.148 18.902,-3.27 0,0 -0.141,-1.078 -0.248,-1.616 -8.522,2.154 -18.871,2.8 -27.352,-0.074 -7.046,-2.048 -15.314,-8.374 -16.104,-16.316 -0.753,-5.283 1.942,-10.207 6.578,-13.01 5.788,-3.561 12.759,-4.315 19.946,-4.528 8.987,11.823 21.969,27.492 34.332,35.506 4.996,2.948 10.136,5.928 16.354,5.679 1.51,-0.073 3.378,-0.718 4.419,-2.373 2.015,-2.984 0.29,-6.718 -1.147,-9.414 -6.365,-11.068 -19.489,-21.995 -30.164,-26.958 -4.384,-1.869 -8.948,-3.269 -13.622,-4.384 -5.284,-8.086 -9.241,-13.701 -16.955,-19.408 -3.352,-2.48 -7.009,-4.457 -10.856,-5.898 7.188,-3.05 17.505,-3.085 24.549,0.398 5.785,2.731 11.319,7.078 15.634,12.509 l 10.91,13.802 h 11.301 l -23.398,-29.759 c -0.405,-0.535 -0.51,-1.026 -0.295,-1.459 0.855,-1.634 3.808,0 3.808,0 0,0 3.135,1.2 14.565,11.487 3.633,3.271 6.866,6.503 9.922,10.276 l 7.682,9.635 h 10.648 c -2.552,-3.308 -4.854,-6.436 -7.119,-9.598 5.462,4.455 10.891,8.914 17.614,10.245 2.553,0.358 4.992,-0.432 6.432,-2.591 1.868,-2.982 0.683,-6.904 -1.077,-9.558 l -2.263,-2.839 -13.264,-15.421 c -0.396,-0.483 -0.353,-0.942 0.038,-1.274 0.973,-0.669 2.335,0.451 3.341,0.77 4.959,2.373 9.011,5.449 13.255,9.475 1.184,1.329 2.304,3.501 3.421,4.867 6.792,8.553 15.993,14.449 26.129,16.425 2.805,0.398 6.25,0.826 8.336,-1.366 C 2.413,1.545 2.556,0.573 2.518,-0.432 L 4.136,1.435 17.256,18.187 29.89,34.523 H 40.672 L 9.348,-6.076 -6.608,-26.669 c -0.179,-0.358 -0.335,-0.81 -0.157,-1.166 0.424,-0.916 2.132,-0.415 3.033,-0.233 6.681,2.048 12.433,6.897 17.215,12.614 l 17.033,21.673 -6.667,0.004 2.394,2.868 h 6.578 c 0,0 19.388,25.104 19.747,25.465 H 63.347 L 43.922,9.236 59.9,9.266 57.341,6.262 41.623,6.254 15.963,-26.562 c -0.369,-0.502 -0.401,-0.993 -0.281,-1.316 0.332,-0.666 0.703,-0.868 1.579,-0.845 3.476,0.053 6.396,2.378 9.485,4.822 3.418,2.681 9.006,8.148 9.006,8.148 l 1.724,-1.794 c -5.605,-5.036 -11.088,-11.039 -17.019,-12.988 -1.761,-0.683 -5.491,-1.514 -8.299,0.131 -2.771,1.622 -3.14,4.535 -1.154,8.478 l -0.218,-0.034 c -5.968,-4.602 -11.753,-10.21 -19.91,-8.879 -1.583,0.29 -3.056,1.619 -3.739,3.092 -0.684,1.619 -0.757,3.702 -0.253,5.392 -1.544,-1.043 -3.089,-2.482 -4.671,-3.561 -4.565,-3.199 -10.266,-7.19 -16.12,-4.603 -2.408,1.258 -3.254,4.249 -3.18,6.869 0.071,0.647 0.145,1.366 0.25,1.942 -4.382,-3.595 -8.786,-6.559 -13.783,-8.642 -2.093,-0.771 -7.27,-1.877 -9.849,0.744 -1.273,1.552 -1.549,2.884 -1.008,5.326 0.718,3.02 7.246,9.797 7.246,9.797 l 12.688,14.303 c 0,0 0.562,0.637 0.024,1.386 -0.644,0.898 -1.973,0.142 -2.793,-0.166 -6.036,-2.514 -12.869,-8.087 -20.753,-15.97 -4.743,-4.385 -13.392,-15.231 -13.392,-15.231 l -10.755,-0.008 8.17,10.399 c -0.254,0.323 -0.647,-0.141 -0.647,-0.141 0,0 -8.232,-8.188 -13.727,-10.416 l -0.099,-0.038 c -2.092,-0.771 -7.281,-1.874 -9.859,0.745 -1.275,1.552 -1.55,2.881 -1.011,5.326 0.596,2.43 2.15,3.736 2.15,3.736"
         fill="#a19562"
         id="path6" />
    </g>
  </g>
</svg>
