<?xml version="1.0" encoding="UTF-8" standalone="no"?>
<svg
   width="1000"
   height="500"
   viewBox="0 0 1000 499.99999"
   version="1.1"
   id="svg19"
   xmlns="http://www.w3.org/2000/svg"
   xmlns:svg="http://www.w3.org/2000/svg">
  <defs
     id="defs7">
    <clipPath
       id="clip1">
      <path
         d="M 0,141 H 190 V 331 H 0 Z m 0,0"
         id="path1" />
    </clipPath>
    <clipPath
       id="clip2">
      <path
         d="m 38.3125,141.50781 h 113.20703 c 20.84375,0 37.73828,16.89844 37.73828,37.73828 v 113.20703 c 0,20.83985 -16.89453,37.73438 -37.73828,37.73438 H 38.3125 c -20.839844,0 -37.734375,-16.89453 -37.734375,-37.73438 V 179.24609 c 0,-20.83984 16.894531,-37.73828 37.734375,-37.73828 z m 0,0"
         id="path2" />
    </clipPath>
    <clipPath
       id="clip3">
      <path
         d="M 41,166 H 153 V 306 H 41 Z m 0,0"
         id="path3" />
    </clipPath>
    <clipPath
       id="clip4">
      <path
         d="m 38.3125,141.50781 h 113.20703 c 20.84375,0 37.73828,16.89844 37.73828,37.73828 v 113.20703 c 0,20.83985 -16.89453,37.73438 -37.73828,37.73438 H 38.3125 c -20.839844,0 -37.734375,-16.89453 -37.734375,-37.73438 V 179.24609 c 0,-20.83984 16.894531,-37.73828 37.734375,-37.73828 z m 0,0"
         id="path4" />
    </clipPath>
    <linearGradient
       id="linear0"
       gradientUnits="userSpaceOnUse"
       x1="10.5682"
       y1="7.70574"
       x2="35.930599"
       y2="28.9436"
       gradientTransform="matrix(4.716981,0,0,4.716981,0.57783,141.50943)">
      <stop
         offset="0.0619804"
         style="stop-color:rgb(96.470588%,86.274511%,85.09804%);stop-opacity:1;"
         id="stop4" />
      <stop
         offset="0.325677"
         style="stop-color:rgb(100%,64.705884%,91.764706%);stop-opacity:1;"
         id="stop5" />
      <stop
         offset="0.589257"
         style="stop-color:rgb(27.058825%,87.450981%,97.254902%);stop-opacity:1;"
         id="stop6" />
      <stop
         offset="1"
         style="stop-color:rgb(73.725492%,55.29412%,92.156863%);stop-opacity:1;"
         id="stop7" />
    </linearGradient>
  </defs>
  <g
     id="surface1"
     transform="translate(0,14.152345)">
    <g
       clip-path="url(#clip1)"
       clip-rule="nonzero"
       id="g8">
      <g
         clip-path="url(#clip2)"
         clip-rule="nonzero"
         id="g7">
        <path
           style="fill:#000000;fill-opacity:1;fill-rule:nonzero;stroke:none"
           d="m 0.578125,149.05469 c 0,-4.16797 3.378906,-7.54688 7.546875,-7.54688 h 173.58594 c 4.16797,0 7.54687,3.37891 7.54687,7.54688 v 173.58593 c 0,4.16797 -3.3789,7.54688 -7.54687,7.54688 H 8.125 c -4.167969,0 -7.546875,-3.37891 -7.546875,-7.54688 z m 0,0"
           id="path7" />
      </g>
    </g>
    <g
       clip-path="url(#clip3)"
       clip-rule="nonzero"
       id="g10">
      <g
         clip-path="url(#clip4)"
         clip-rule="nonzero"
         id="g9">
        <path
           style="fill:url(#linear0);fill-rule:nonzero;stroke:none"
           d="m 119.13281,265.61328 c -12.14453,5.36719 -25.304685,3.16797 -30.363279,1.39844 0,1.21094 -0.05469,4.97265 -0.277343,10.33984 -0.21875,5.36328 -1.929688,8.75781 -2.757813,9.78125 0.08984,3.35156 0.164063,10.67578 -0.277344,13.13672 -0.441406,2.45703 -2.023437,4.5625 -2.761719,5.30859 h -7.453124 c 0.664062,-3.35546 3.222656,-5.49609 4.417968,-6.14843 0.660156,-6.92969 -0.644531,-12.94922 -1.378906,-15.09375 -0.738281,2.60937 -2.542969,8.66406 -3.867188,12.01953 -1.324218,3.35156 -3.3125,6.42578 -4.140624,7.54687 h -5.519532 c -0.277344,-3.35547 1.5625,-4.47265 2.761719,-4.47265 0.550781,-1.02344 1.875,-4.25 2.757813,-8.94532 0.882812,-4.6914 -0.367188,-13.50781 -1.101563,-17.32421 v -12.01954 c -8.835937,-4.75 -12.148437,-9.5 -14.355469,-14.8125 -1.765625,-4.24609 -1.289062,-10.71093 -0.828125,-13.41406 -0.550781,-1.02344 -2.160156,-3.6289 -2.761719,-7.26562 -0.828124,-5.03125 -0.367187,-8.66407 0,-10.6211 -0.550781,-0.55859 -1.65625,-3.41015 -1.65625,-10.33984 0,-6.92969 2.027344,-10.52734 3.039063,-11.46094 v -3.07422 c -3.867187,-0.27734 -7.730469,-1.95312 -9.9375,-4.1914 -2.210937,-2.23438 -0.554687,-5.58985 0.828125,-6.70703 1.378906,-1.11719 2.757812,-0.27735 4.691406,-0.83594 1.933594,-0.5625 3.589844,-1.1211 4.417969,-2.79688 0.660156,-1.33984 -0.644531,-6.89453 -1.382813,-9.5 3.3125,0.44532 5.429688,3.35157 6.074219,4.75 v -4.75 c 4.140625,1.95313 11.59375,6.70703 14.078125,17.04688 1.988282,8.27344 3.402344,25.61719 3.863282,33.25781 10.582031,0.0937 24.015624,-1.51953 36.160152,1.11719 11.04297,2.39453 16.01172,7.26562 21.8086,7.26562 5.79687,0 9.10937,-3.35156 13.25,-0.55859 4.14062,2.79687 6.34765,10.62109 5.79687,16.48828 -0.4414,4.69531 -4.05078,6.24219 -5.79687,6.42969 -2.20703,7.3789 0,14.4375 1.3789,17.04687 v 10.6211 c 0.64453,0.92968 1.9336,3.80078 1.9336,7.82422 0,4.02343 -1.28907,6.70703 -1.9336,7.54687 1.10547,6.26172 -0.46093,12.66797 -1.3789,15.08984 h -7.45313 c 0.88281,-2.23437 2.39063,-2.79296 3.03516,-2.79296 1.32422,-6.92969 0.37109,-13.32032 -0.27344,-15.65235 -4.19922,-2.45703 -6.90234,-6.80078 -7.73047,-8.66406 0.0937,1.58594 -0.16406,5.98047 -1.93359,10.90234 -1.76563,4.91797 -4.41406,7.82422 -5.51953,8.66407 v 5.86718 h -7.45313 c 0,-3.57812 2.02344,-4.28515 3.03516,-4.1914 1.28906,-2.32813 4.41797,-5.8711 4.41797,-12.85547 0,-5.89453 -4.14063,-8.66406 -7.17578,-13.97656 -1.44532,-2.51954 -0.73828,-5.67969 -0.27735,-6.98438 z m 0,0"
           id="path8" />
      </g>
    </g>
    <path
       style="fill:#000000;fill-opacity:1;fill-rule:nonzero;stroke:none"
       d="m 320.04687,281.42969 v -92.75 h 19.5 v 92.75 z m 0,0"
       id="path10" />
    <path
       style="fill:#000000;fill-opacity:1;fill-rule:evenodd;stroke:none"
       d="m 799.84766,282.42969 c -6.33594,0 -12.04297,-1.41797 -17.125,-4.25 -5.08204,-2.91797 -9.125,-6.95703 -12.125,-12.125 -2.91797,-5.16797 -4.375,-11.25 -4.375,-18.25 0,-7.08203 1.45703,-13.20703 4.375,-18.375 3,-5.16797 7.04296,-9.16797 12.125,-12 5.08203,-2.83203 10.78906,-4.25 17.125,-4.25 5.66406,0 10.625,1.25 14.875,3.75 1.95312,1.14843 3.69921,2.5664 5.24609,4.26172 v -32.51172 h 19.5 v 92.75 h -18.62109 v -7.76563 c -1.67969,2.02735 -3.63672,3.69922 -5.875,5.01563 -4.16797,2.5 -9.21094,3.75 -15.125,3.75 z m 3.375,-16 c 3.16796,0 6.03906,-0.75 8.625,-2.25 2.58203,-1.5 4.62109,-3.625 6.12109,-6.375 1.58594,-2.83203 2.37891,-6.16797 2.37891,-10 0,-3.91797 -0.79297,-7.25 -2.37891,-10 -1.5,-2.75 -3.53906,-4.875 -6.12109,-6.375 -2.58594,-1.5 -5.45704,-2.25 -8.625,-2.25 -3.25,0 -6.16797,0.75 -8.75,2.25 -2.58204,1.5 -4.66797,3.625 -6.25,6.375 -1.5,2.75 -2.25,6.08203 -2.25,10 0,3.83203 0.75,7.16797 2.25,10 1.58203,2.75 3.66796,4.875 6.25,6.375 2.58203,1.5 5.5,2.25 8.75,2.25 z m 0,0"
       id="path11" />
    <path
       style="fill:#000000;fill-opacity:1;fill-rule:evenodd;stroke:none"
       d="m 870.64453,277.92969 c 5.83594,3 12.58594,4.5 20.25,4.5 6.08594,0 11.45703,-0.91797 16.125,-2.75 4.66797,-1.91797 8.53906,-4.625 11.625,-8.125 l -10.375,-11.25 c -2.25,2.16406 -4.75,3.78906 -7.5,4.875 -2.66797,1.08203 -5.78906,1.625 -9.375,1.625 -4,0 -7.5,-0.71094 -10.5,-2.125 -2.91406,-1.5 -5.20703,-3.625 -6.875,-6.375 -0.86328,-1.54297 -1.48828,-3.21094 -1.87891,-5 h 50.87891 l 0.0391,-0.3711 c 0.0703,-0.72265 0.14063,-1.47265 0.21094,-2.2539 0.082,-1 0.125,-1.875 0.125,-2.625 0,-7.25 -1.54297,-13.46094 -4.625,-18.625 -3.08203,-5.25 -7.28906,-9.25 -12.625,-12 -5.25,-2.83594 -11.16406,-4.25 -17.75,-4.25 -6.83594,0 -12.95703,1.5 -18.375,4.5 -5.41797,2.91406 -9.71094,7 -12.875,12.25 -3.08594,5.16406 -4.625,11.125 -4.625,17.875 0,6.66406 1.58203,12.625 4.75,17.875 3.16797,5.16406 7.625,9.25 13.375,12.25 z m 1.26953,-36 c 0.32422,-2.08594 0.94141,-3.96094 1.85547,-5.625 1.41797,-2.66797 3.375,-4.71094 5.875,-6.125 2.58594,-1.5 5.54297,-2.25 8.875,-2.25 3.33203,0 6.25,0.75 8.75,2.25 2.5,1.41406 4.46094,3.41406 5.875,6 0.9375,1.71484 1.57031,3.6289 1.88672,5.75 z m 0,0"
       id="path12" />
    <path
       style="fill:#000000;fill-opacity:1;fill-rule:nonzero;stroke:none"
       d="m 951.91797,247.50781 -25.875,33.92188 h 21.25 l 15.28125,-20.59766 14.71875,20.59766 h 22.1289 l -26.01562,-34.36328 25.01562,-32.88672 h -20.75 l -14.60937,19.64062 -14.26953,-19.64062 h -21.8711 z m 0,0"
       id="path13" />
    <path
       style="fill:#000000;fill-opacity:1;fill-rule:nonzero;stroke:none"
       d="m 739.17969,216.42969 c -4.16407,-2.16797 -8.91407,-3.25 -14.25,-3.25 -5.75,0 -10.8711,1.20703 -15.3711,3.625 -2.65234,1.42578 -4.9414,3.21484 -6.8789,5.36328 v -7.98828 h -18.6211 v 67.25 h 19.5 v -33.25 c 0,-4.16797 0.66407,-7.58594 2,-10.25 1.41407,-2.66797 3.33203,-4.625 5.75,-5.875 2.5,-1.33594 5.29297,-2 8.3711,-2 4.33593,0 7.67187,1.28906 10,3.875 2.42187,2.58203 3.6289,6.58203 3.6289,12 v 35.5 h 19.5 v -38.5 c 0,-6.83594 -1.20703,-12.41797 -3.6289,-16.75 -2.41407,-4.41797 -5.75,-7.66797 -10,-9.75 z m 0,0"
       id="path14" />
    <path
       style="fill:#000000;fill-opacity:1;fill-rule:nonzero;stroke:none"
       d="m 644.41797,281.42969 v -87.5 h 20.25 v 87.5 z m 0,0"
       id="path15" />
    <path
       style="fill:#000000;fill-opacity:1;fill-rule:evenodd;stroke:none"
       d="m 607.14453,273.07422 v 8.35547 h 18.25 v -38.375 c 0,-10.25 -2.83594,-17.79297 -8.5,-22.625 -5.66406,-4.83594 -13.625,-7.25 -23.875,-7.25 -5.33203,0 -10.58203,0.70703 -15.75,2.125 -5.16797,1.41406 -9.58203,3.41406 -13.25,6 l 7,13.625 c 2.41797,-1.91797 5.33203,-3.41797 8.75,-4.5 3.5,-1.16797 7.03906,-1.75 10.625,-1.75 5.25,0 9.125,1.16406 11.625,3.5 2.58203,2.33203 3.875,5.58203 3.875,9.75 h -15.5 c -6.83594,0 -12.375,0.875 -16.625,2.625 -4.25,1.66406 -7.375,4 -9.375,7 -1.91406,3 -2.875,6.5 -2.875,10.5 0,3.83203 1,7.28906 3,10.375 2,3.08203 4.875,5.53906 8.625,7.375 3.75,1.75 8.25,2.625 13.5,2.625 5.91406,0 10.75,-1.125 14.5,-3.375 2.53125,-1.51953 4.53125,-3.51172 6,-5.98047 z m -1.25,-19.76953 h -13.375 c -4.58203,0 -7.75,0.75 -9.5,2.25 -1.66797,1.5 -2.5,3.375 -2.5,5.625 0,2.5 0.96094,4.5 2.875,6 2,1.41406 4.70703,2.125 8.125,2.125 3.25,0 6.16797,-0.75 8.75,-2.25 2.58203,-1.58594 4.46094,-3.875 5.625,-6.875 z m 0,0"
       id="path16" />
    <path
       style="fill:#000000;fill-opacity:1;fill-rule:nonzero;stroke:none"
       d="m 520.91797,213.17969 c 5.32812,0 10.03906,1.08203 14.12109,3.25 4.16797,2.08203 7.41797,5.33203 9.75,9.75 2.41797,4.33203 3.62891,9.91406 3.62891,16.75 v 38.5 h -19.5 v -35.5 c 0,-5.41797 -1.12891,-9.41797 -3.37891,-12 -2.25,-2.58594 -5.41406,-3.875 -9.5,-3.875 -2.83203,0 -5.37109,0.66406 -7.62109,2 -2.25,1.25 -4,3.16406 -5.25,5.75 -1.25,2.58203 -1.87891,5.875 -1.87891,9.875 v 33.75 h -19.5 v -35.5 c 0,-5.41797 -1.12109,-9.41797 -3.37109,-12 -2.17188,-2.58594 -5.29297,-3.875 -9.375,-3.875 -2.83594,0 -5.375,0.66406 -7.625,2 -2.25,1.25 -4,3.16406 -5.25,5.75 -1.25,2.58203 -1.875,5.875 -1.875,9.875 v 33.75 h -19.5 v -67.25 h 18.625 v 7.75781 c 1.80859,-2.08203 3.93359,-3.79297 6.375,-5.13281 4.33203,-2.41797 9.25,-3.625 14.74609,-3.625 6.16797,0 11.54297,1.58203 16.12891,4.75 2.4375,1.60937 4.4414,3.67578 6.01953,6.19922 1.9375,-2.46094 4.30469,-4.57032 7.10156,-6.32422 5,-3.08594 10.70703,-4.625 17.12891,-4.625 z m 0,0"
       id="path17" />
    <path
       style="fill:#000000;fill-opacity:1;fill-rule:evenodd;stroke:none"
       d="m 398.89453,273.07031 v 8.35938 h 18.25 v -38.375 c 0,-10.25 -2.83203,-17.79297 -8.5,-22.625 -5.66797,-4.83594 -13.625,-7.25 -23.875,-7.25 -5.33203,0 -10.58203,0.70703 -15.75,2.125 -5.16797,1.41406 -9.58203,3.41406 -13.25,6 l 7,13.625 c 2.41797,-1.91797 5.33203,-3.41797 8.75,-4.5 3.5,-1.16797 7.04297,-1.75 10.625,-1.75 5.25,0 9.125,1.16406 11.625,3.5 2.58203,2.33203 3.875,5.58203 3.875,9.75 h -15.5 c -6.83203,0 -12.375,0.875 -16.625,2.625 -4.25,1.66406 -7.375,4 -9.375,7 -1.91797,3 -2.875,6.5 -2.875,10.5 0,3.83203 1,7.28906 3,10.375 2,3.08203 4.875,5.53906 8.625,7.375 3.75,1.75 8.25,2.625 13.5,2.625 5.91797,0 10.75,-1.125 14.5,-3.375 2.53125,-1.51953 4.53125,-3.51563 6,-5.98438 z m -1.25,-19.76562 h -13.375 c -4.58203,0 -7.75,0.75 -9.5,2.25 -1.66797,1.5 -2.5,3.375 -2.5,5.625 0,2.5 0.95703,4.5 2.875,6 2,1.41406 4.70703,2.125 8.125,2.125 3.25,0 6.16797,-0.75 8.75,-2.25 2.58203,-1.58594 4.45703,-3.875 5.625,-6.875 z m 0,0"
       id="path18" />
    <path
       style="fill:#000000;fill-opacity:1;fill-rule:nonzero;stroke:none"
       d="m 245.85937,193.92969 v 87.5 h 64.125 v -16.5 h -43.875 v -71 z m 0,0"
       id="path19" />
  </g>
</svg>
