<?xml version="1.0" encoding="UTF-8"?>
<svg xmlns="http://www.w3.org/2000/svg" xmlns:xlink="http://www.w3.org/1999/xlink" width="1000" height="471.698113" viewBox="0 0 1000 471.698113" version="1.1">
<defs>
<clipPath id="clip1">
  <path d="M 0 141 L 190 141 L 190 331 L 0 331 Z M 0 141 "/>
</clipPath>
<clipPath id="clip2">
  <path d="M 38.3125 141.507812 L 151.519531 141.507812 C 172.363281 141.507812 189.257812 158.40625 189.257812 179.246094 L 189.257812 292.453125 C 189.257812 313.292969 172.363281 330.1875 151.519531 330.1875 L 38.3125 330.1875 C 17.472656 330.1875 0.578125 313.292969 0.578125 292.453125 L 0.578125 179.246094 C 0.578125 158.40625 17.472656 141.507812 38.3125 141.507812 Z M 38.3125 141.507812 "/>
</clipPath>
<clipPath id="clip3">
  <path d="M 41 166 L 153 166 L 153 306 L 41 306 Z M 41 166 "/>
</clipPath>
<clipPath id="clip4">
  <path d="M 38.3125 141.507812 L 151.519531 141.507812 C 172.363281 141.507812 189.257812 158.40625 189.257812 179.246094 L 189.257812 292.453125 C 189.257812 313.292969 172.363281 330.1875 151.519531 330.1875 L 38.3125 330.1875 C 17.472656 330.1875 0.578125 313.292969 0.578125 292.453125 L 0.578125 179.246094 C 0.578125 158.40625 17.472656 141.507812 38.3125 141.507812 Z M 38.3125 141.507812 "/>
</clipPath>
<linearGradient id="linear0" gradientUnits="userSpaceOnUse" x1="10.5682" y1="7.70574" x2="35.930599" y2="28.9436" gradientTransform="matrix(4.716981,0,0,4.716981,0.57783,141.509434)">
<stop offset="0.0619804" style="stop-color:rgb(96.470588%,86.274511%,85.09804%);stop-opacity:1;"/>
<stop offset="0.325677" style="stop-color:rgb(100%,64.705884%,91.764706%);stop-opacity:1;"/>
<stop offset="0.589257" style="stop-color:rgb(27.058825%,87.450981%,97.254902%);stop-opacity:1;"/>
<stop offset="1" style="stop-color:rgb(73.725492%,55.29412%,92.156863%);stop-opacity:1;"/>
</linearGradient>
</defs>
<g id="surface1">
<g clip-path="url(#clip1)" clip-rule="nonzero">
<g clip-path="url(#clip2)" clip-rule="nonzero">
<path style=" stroke:none;fill-rule:nonzero;fill:rgb(0%,0%,0%);fill-opacity:1;" d="M 0.578125 149.054688 C 0.578125 144.886719 3.957031 141.507812 8.125 141.507812 L 181.710938 141.507812 C 185.878906 141.507812 189.257812 144.886719 189.257812 149.054688 L 189.257812 322.640625 C 189.257812 326.808594 185.878906 330.1875 181.710938 330.1875 L 8.125 330.1875 C 3.957031 330.1875 0.578125 326.808594 0.578125 322.640625 Z M 0.578125 149.054688 "/>
</g>
</g>
<g clip-path="url(#clip3)" clip-rule="nonzero">
<g clip-path="url(#clip4)" clip-rule="nonzero">
<path style=" stroke:none;fill-rule:nonzero;fill:url(#linear0);" d="M 119.132812 265.613281 C 106.988281 270.980469 93.828125 268.78125 88.769531 267.011719 C 88.769531 268.222656 88.714844 271.984375 88.492188 277.351562 C 88.273438 282.714844 86.5625 286.109375 85.734375 287.132812 C 85.824219 290.484375 85.898438 297.808594 85.457031 300.269531 C 85.015625 302.726562 83.433594 304.832031 82.695312 305.578125 L 75.242188 305.578125 C 75.90625 302.222656 78.464844 300.082031 79.660156 299.429688 C 80.320312 292.5 79.015625 286.480469 78.28125 284.335938 C 77.542969 286.945312 75.738281 293 74.414062 296.355469 C 73.089844 299.707031 71.101562 302.78125 70.273438 303.902344 L 64.753906 303.902344 C 64.476562 300.546875 66.316406 299.429688 67.515625 299.429688 C 68.066406 298.40625 69.390625 295.179688 70.273438 290.484375 C 71.15625 285.792969 69.90625 276.976562 69.171875 273.160156 L 69.171875 261.140625 C 60.335938 256.390625 57.023438 251.640625 54.816406 246.328125 C 53.050781 242.082031 53.527344 235.617188 53.988281 232.914062 C 53.4375 231.890625 51.828125 229.285156 51.226562 225.648438 C 50.398438 220.617188 50.859375 216.984375 51.226562 215.027344 C 50.675781 214.46875 49.570312 211.617188 49.570312 204.6875 C 49.570312 197.757812 51.597656 194.160156 52.609375 193.226562 L 52.609375 190.152344 C 48.742188 189.875 44.878906 188.199219 42.671875 185.960938 C 40.460938 183.726562 42.117188 180.371094 43.5 179.253906 C 44.878906 178.136719 46.257812 178.976562 48.191406 178.417969 C 50.125 177.855469 51.78125 177.296875 52.609375 175.621094 C 53.269531 174.28125 51.964844 168.726562 51.226562 166.121094 C 54.539062 166.566406 56.65625 169.472656 57.300781 170.871094 L 57.300781 166.121094 C 61.441406 168.074219 68.894531 172.828125 71.378906 183.167969 C 73.367188 191.441406 74.78125 208.785156 75.242188 216.425781 C 85.824219 216.519531 99.257812 214.90625 111.402344 217.542969 C 122.445312 219.9375 127.414062 224.808594 133.210938 224.808594 C 139.007812 224.808594 142.320312 221.457031 146.460938 224.25 C 150.601562 227.046875 152.808594 234.871094 152.257812 240.738281 C 151.816406 245.433594 148.207031 246.980469 146.460938 247.167969 C 144.253906 254.546875 146.460938 261.605469 147.839844 264.214844 L 147.839844 274.835938 C 148.484375 275.765625 149.773438 278.636719 149.773438 282.660156 C 149.773438 286.683594 148.484375 289.367188 147.839844 290.207031 C 148.945312 296.46875 147.378906 302.875 146.460938 305.296875 L 139.007812 305.296875 C 139.890625 303.0625 141.398438 302.503906 142.042969 302.503906 C 143.367188 295.574219 142.414062 289.183594 141.769531 286.851562 C 137.570312 284.394531 134.867188 280.050781 134.039062 278.1875 C 134.132812 279.773438 133.875 284.167969 132.105469 289.089844 C 130.339844 294.007812 127.691406 296.914062 126.585938 297.753906 L 126.585938 303.621094 L 119.132812 303.621094 C 119.132812 300.042969 121.15625 299.335938 122.167969 299.429688 C 123.457031 297.101562 126.585938 293.558594 126.585938 286.574219 C 126.585938 280.679688 122.445312 277.910156 119.410156 272.597656 C 117.964844 270.078125 118.671875 266.917969 119.132812 265.613281 Z M 119.132812 265.613281 "/>
</g>
</g>
<path style=" stroke:none;fill-rule:nonzero;fill:rgb(0%,0%,0%);fill-opacity:1;" d="M 320.046875 281.429688 L 320.046875 188.679688 L 339.546875 188.679688 L 339.546875 281.429688 Z M 320.046875 281.429688 "/>
<path style=" stroke:none;fill-rule:evenodd;fill:rgb(0%,0%,0%);fill-opacity:1;" d="M 799.847656 282.429688 C 793.511719 282.429688 787.804688 281.011719 782.722656 278.179688 C 777.640625 275.261719 773.597656 271.222656 770.597656 266.054688 C 767.679688 260.886719 766.222656 254.804688 766.222656 247.804688 C 766.222656 240.722656 767.679688 234.597656 770.597656 229.429688 C 773.597656 224.261719 777.640625 220.261719 782.722656 217.429688 C 787.804688 214.597656 793.511719 213.179688 799.847656 213.179688 C 805.511719 213.179688 810.472656 214.429688 814.722656 216.929688 C 816.675781 218.078125 818.421875 219.496094 819.96875 221.191406 L 819.96875 188.679688 L 839.46875 188.679688 L 839.46875 281.429688 L 820.847656 281.429688 L 820.847656 273.664062 C 819.167969 275.691406 817.210938 277.363281 814.972656 278.679688 C 810.804688 281.179688 805.761719 282.429688 799.847656 282.429688 Z M 803.222656 266.429688 C 806.390625 266.429688 809.261719 265.679688 811.847656 264.179688 C 814.429688 262.679688 816.46875 260.554688 817.96875 257.804688 C 819.554688 254.972656 820.347656 251.636719 820.347656 247.804688 C 820.347656 243.886719 819.554688 240.554688 817.96875 237.804688 C 816.46875 235.054688 814.429688 232.929688 811.847656 231.429688 C 809.261719 229.929688 806.390625 229.179688 803.222656 229.179688 C 799.972656 229.179688 797.054688 229.929688 794.472656 231.429688 C 791.890625 232.929688 789.804688 235.054688 788.222656 237.804688 C 786.722656 240.554688 785.972656 243.886719 785.972656 247.804688 C 785.972656 251.636719 786.722656 254.972656 788.222656 257.804688 C 789.804688 260.554688 791.890625 262.679688 794.472656 264.179688 C 797.054688 265.679688 799.972656 266.429688 803.222656 266.429688 Z M 803.222656 266.429688 "/>
<path style=" stroke:none;fill-rule:evenodd;fill:rgb(0%,0%,0%);fill-opacity:1;" d="M 870.644531 277.929688 C 876.480469 280.929688 883.230469 282.429688 890.894531 282.429688 C 896.980469 282.429688 902.351562 281.511719 907.019531 279.679688 C 911.6875 277.761719 915.558594 275.054688 918.644531 271.554688 L 908.269531 260.304688 C 906.019531 262.46875 903.519531 264.09375 900.769531 265.179688 C 898.101562 266.261719 894.980469 266.804688 891.394531 266.804688 C 887.394531 266.804688 883.894531 266.09375 880.894531 264.679688 C 877.980469 263.179688 875.6875 261.054688 874.019531 258.304688 C 873.15625 256.761719 872.53125 255.09375 872.140625 253.304688 L 923.019531 253.304688 L 923.058594 252.933594 C 923.128906 252.210938 923.199219 251.460938 923.269531 250.679688 C 923.351562 249.679688 923.394531 248.804688 923.394531 248.054688 C 923.394531 240.804688 921.851562 234.59375 918.769531 229.429688 C 915.6875 224.179688 911.480469 220.179688 906.144531 217.429688 C 900.894531 214.59375 894.980469 213.179688 888.394531 213.179688 C 881.558594 213.179688 875.4375 214.679688 870.019531 217.679688 C 864.601562 220.59375 860.308594 224.679688 857.144531 229.929688 C 854.058594 235.09375 852.519531 241.054688 852.519531 247.804688 C 852.519531 254.46875 854.101562 260.429688 857.269531 265.679688 C 860.4375 270.84375 864.894531 274.929688 870.644531 277.929688 Z M 871.914062 241.929688 C 872.238281 239.84375 872.855469 237.96875 873.769531 236.304688 C 875.1875 233.636719 877.144531 231.59375 879.644531 230.179688 C 882.230469 228.679688 885.1875 227.929688 888.519531 227.929688 C 891.851562 227.929688 894.769531 228.679688 897.269531 230.179688 C 899.769531 231.59375 901.730469 233.59375 903.144531 236.179688 C 904.082031 237.894531 904.714844 239.808594 905.03125 241.929688 Z M 871.914062 241.929688 "/>
<path style=" stroke:none;fill-rule:nonzero;fill:rgb(0%,0%,0%);fill-opacity:1;" d="M 951.917969 247.507812 L 926.042969 281.429688 L 947.292969 281.429688 L 962.574219 260.832031 L 977.292969 281.429688 L 999.421875 281.429688 L 973.40625 247.066406 L 998.421875 214.179688 L 977.671875 214.179688 L 963.0625 233.820312 L 948.792969 214.179688 L 926.921875 214.179688 Z M 951.917969 247.507812 "/>
<path style=" stroke:none;fill-rule:nonzero;fill:rgb(0%,0%,0%);fill-opacity:1;" d="M 739.179688 216.429688 C 735.015625 214.261719 730.265625 213.179688 724.929688 213.179688 C 719.179688 213.179688 714.058594 214.386719 709.558594 216.804688 C 706.90625 218.230469 704.617188 220.019531 702.679688 222.167969 L 702.679688 214.179688 L 684.058594 214.179688 L 684.058594 281.429688 L 703.558594 281.429688 L 703.558594 248.179688 C 703.558594 244.011719 704.222656 240.59375 705.558594 237.929688 C 706.972656 235.261719 708.890625 233.304688 711.308594 232.054688 C 713.808594 230.71875 716.601562 230.054688 719.679688 230.054688 C 724.015625 230.054688 727.351562 231.34375 729.679688 233.929688 C 732.101562 236.511719 733.308594 240.511719 733.308594 245.929688 L 733.308594 281.429688 L 752.808594 281.429688 L 752.808594 242.929688 C 752.808594 236.09375 751.601562 230.511719 749.179688 226.179688 C 746.765625 221.761719 743.429688 218.511719 739.179688 216.429688 Z M 739.179688 216.429688 "/>
<path style=" stroke:none;fill-rule:nonzero;fill:rgb(0%,0%,0%);fill-opacity:1;" d="M 644.417969 281.429688 L 644.417969 193.929688 L 664.667969 193.929688 L 664.667969 281.429688 Z M 644.417969 281.429688 "/>
<path style=" stroke:none;fill-rule:evenodd;fill:rgb(0%,0%,0%);fill-opacity:1;" d="M 607.144531 273.074219 L 607.144531 281.429688 L 625.394531 281.429688 L 625.394531 243.054688 C 625.394531 232.804688 622.558594 225.261719 616.894531 220.429688 C 611.230469 215.59375 603.269531 213.179688 593.019531 213.179688 C 587.6875 213.179688 582.4375 213.886719 577.269531 215.304688 C 572.101562 216.71875 567.6875 218.71875 564.019531 221.304688 L 571.019531 234.929688 C 573.4375 233.011719 576.351562 231.511719 579.769531 230.429688 C 583.269531 229.261719 586.808594 228.679688 590.394531 228.679688 C 595.644531 228.679688 599.519531 229.84375 602.019531 232.179688 C 604.601562 234.511719 605.894531 237.761719 605.894531 241.929688 L 590.394531 241.929688 C 583.558594 241.929688 578.019531 242.804688 573.769531 244.554688 C 569.519531 246.21875 566.394531 248.554688 564.394531 251.554688 C 562.480469 254.554688 561.519531 258.054688 561.519531 262.054688 C 561.519531 265.886719 562.519531 269.34375 564.519531 272.429688 C 566.519531 275.511719 569.394531 277.96875 573.144531 279.804688 C 576.894531 281.554688 581.394531 282.429688 586.644531 282.429688 C 592.558594 282.429688 597.394531 281.304688 601.144531 279.054688 C 603.675781 277.535156 605.675781 275.542969 607.144531 273.074219 Z M 605.894531 253.304688 L 592.519531 253.304688 C 587.9375 253.304688 584.769531 254.054688 583.019531 255.554688 C 581.351562 257.054688 580.519531 258.929688 580.519531 261.179688 C 580.519531 263.679688 581.480469 265.679688 583.394531 267.179688 C 585.394531 268.59375 588.101562 269.304688 591.519531 269.304688 C 594.769531 269.304688 597.6875 268.554688 600.269531 267.054688 C 602.851562 265.46875 604.730469 263.179688 605.894531 260.179688 Z M 605.894531 253.304688 "/>
<path style=" stroke:none;fill-rule:nonzero;fill:rgb(0%,0%,0%);fill-opacity:1;" d="M 520.917969 213.179688 C 526.246094 213.179688 530.957031 214.261719 535.039062 216.429688 C 539.207031 218.511719 542.457031 221.761719 544.789062 226.179688 C 547.207031 230.511719 548.417969 236.09375 548.417969 242.929688 L 548.417969 281.429688 L 528.917969 281.429688 L 528.917969 245.929688 C 528.917969 240.511719 527.789062 236.511719 525.539062 233.929688 C 523.289062 231.34375 520.125 230.054688 516.039062 230.054688 C 513.207031 230.054688 510.667969 230.71875 508.417969 232.054688 C 506.167969 233.304688 504.417969 235.21875 503.167969 237.804688 C 501.917969 240.386719 501.289062 243.679688 501.289062 247.679688 L 501.289062 281.429688 L 481.789062 281.429688 L 481.789062 245.929688 C 481.789062 240.511719 480.667969 236.511719 478.417969 233.929688 C 476.246094 231.34375 473.125 230.054688 469.042969 230.054688 C 466.207031 230.054688 463.667969 230.71875 461.417969 232.054688 C 459.167969 233.304688 457.417969 235.21875 456.167969 237.804688 C 454.917969 240.386719 454.292969 243.679688 454.292969 247.679688 L 454.292969 281.429688 L 434.792969 281.429688 L 434.792969 214.179688 L 453.417969 214.179688 L 453.417969 221.9375 C 455.226562 219.855469 457.351562 218.144531 459.792969 216.804688 C 464.125 214.386719 469.042969 213.179688 474.539062 213.179688 C 480.707031 213.179688 486.082031 214.761719 490.667969 217.929688 C 493.105469 219.539062 495.109375 221.605469 496.6875 224.128906 C 498.625 221.667969 500.992188 219.558594 503.789062 217.804688 C 508.789062 214.71875 514.496094 213.179688 520.917969 213.179688 Z M 520.917969 213.179688 "/>
<path style=" stroke:none;fill-rule:evenodd;fill:rgb(0%,0%,0%);fill-opacity:1;" d="M 398.894531 273.070312 L 398.894531 281.429688 L 417.144531 281.429688 L 417.144531 243.054688 C 417.144531 232.804688 414.3125 225.261719 408.644531 220.429688 C 402.976562 215.59375 395.019531 213.179688 384.769531 213.179688 C 379.4375 213.179688 374.1875 213.886719 369.019531 215.304688 C 363.851562 216.71875 359.4375 218.71875 355.769531 221.304688 L 362.769531 234.929688 C 365.1875 233.011719 368.101562 231.511719 371.519531 230.429688 C 375.019531 229.261719 378.5625 228.679688 382.144531 228.679688 C 387.394531 228.679688 391.269531 229.84375 393.769531 232.179688 C 396.351562 234.511719 397.644531 237.761719 397.644531 241.929688 L 382.144531 241.929688 C 375.3125 241.929688 369.769531 242.804688 365.519531 244.554688 C 361.269531 246.21875 358.144531 248.554688 356.144531 251.554688 C 354.226562 254.554688 353.269531 258.054688 353.269531 262.054688 C 353.269531 265.886719 354.269531 269.34375 356.269531 272.429688 C 358.269531 275.511719 361.144531 277.96875 364.894531 279.804688 C 368.644531 281.554688 373.144531 282.429688 378.394531 282.429688 C 384.3125 282.429688 389.144531 281.304688 392.894531 279.054688 C 395.425781 277.535156 397.425781 275.539062 398.894531 273.070312 Z M 397.644531 253.304688 L 384.269531 253.304688 C 379.6875 253.304688 376.519531 254.054688 374.769531 255.554688 C 373.101562 257.054688 372.269531 258.929688 372.269531 261.179688 C 372.269531 263.679688 373.226562 265.679688 375.144531 267.179688 C 377.144531 268.59375 379.851562 269.304688 383.269531 269.304688 C 386.519531 269.304688 389.4375 268.554688 392.019531 267.054688 C 394.601562 265.46875 396.476562 263.179688 397.644531 260.179688 Z M 397.644531 253.304688 "/>
<path style=" stroke:none;fill-rule:nonzero;fill:rgb(0%,0%,0%);fill-opacity:1;" d="M 245.859375 193.929688 L 245.859375 281.429688 L 309.984375 281.429688 L 309.984375 264.929688 L 266.109375 264.929688 L 266.109375 193.929688 Z M 245.859375 193.929688 "/>
</g>
</svg>
