<?xml version="1.0" encoding="UTF-8" standalone="no"?>
<svg
   width="982.72998"
   height="491.36499"
   version="1.1"
   id="svg10"
   xmlns="http://www.w3.org/2000/svg"
   xmlns:svg="http://www.w3.org/2000/svg">
  <defs
     id="defs10" />
  <g
     transform="translate(-65.342009,-718.51202)"
     id="g10">
    <g
       transform="translate(-8.7109e-7,-342.03)"
       id="g9">
      <path
         d="m 65.841,1368 v -206.19 h 36.263 V 1368 Z"
         id="path1" />
      <path
         d="m 194.93,1218.4 c -46.494,0 -78.668,35.706 -78.668,76.575 0,45.612 35.002,77.034 79.03,77.034 41.785,0 78.044,-30.844 78.044,-77.133 0,-38.925 -30.046,-76.476 -78.406,-76.476 z m -0.42701,34.941 c 24.332,0 42.241,18.918 42.241,41.765 0,24.224 -19.746,41.896 -41.584,41.896 -25.805,0 -42.044,-20.428 -42.044,-41.831 0,-23.46 18.335,-41.831 41.387,-41.831 z"
         id="path2" />
      <path
         d="m 364.45,1218.4 c -46.494,0 -78.668,35.706 -78.668,76.575 0,45.612 35.002,77.034 79.03,77.034 41.785,0 78.044,-30.844 78.044,-77.133 0,-27.258 -11.818,-39.353 -11.818,-39.353 l 10.051,-3.4426 v -29.396 h -51.504 c 0,0 -11.166,-4.2844 -25.134,-4.2844 z m -0.427,34.941 c 24.332,0 42.241,18.918 42.241,41.765 0,24.224 -19.746,41.896 -41.584,41.896 -25.805,0 -42.044,-20.428 -42.044,-41.831 0,-23.46 18.335,-41.831 41.387,-41.831 z"
         id="path3" />
      <path
         d="m 406,1378 c 0,24.225 -19.746,42.028 -41.584,42.028 -25.805,0 -42.11,-20.625 -42.11,-42.028 h -36.789 c 0,45.612 35.002,77.034 79.03,77.034 41.785,0 78.044,-30.745 78.044,-77.034 z"
         id="path4" />
      <path
         d="m 457.38,1368 v -145.3 h 36.263 V 1368 Z"
         id="path5" />
      <path
         d="m 528.85,1368 v -112.76 h -19.445 v -32.546 h 19.445 v -44.62 h 36.263 v 44.62 h 19.971 v 32.546 H 565.113 V 1368 Z"
         id="path6" />
      <ellipse
         cx="475.42999"
         cy="1181.4"
         rx="24.013"
         ry="23.985001"
         id="ellipse6" />
      <path
         d="m 666.61,1218.3 c -46.714,0 -76.829,35.725 -76.829,77.986 0,43.672 30.215,75.82 77.584,75.82 44.188,0 65.924,-27.559 65.924,-27.559 l -24.241,-24.246 c 0,0 -18.303,19.718 -41.223,19.718 -19.106,0 -34.382,-10.652 -39.712,-30.184 h 112.99 v -9.9737 c 0,-39.797 -23.061,-81.562 -74.497,-81.562 z m -1.1496,31.89 c 16.705,0 33.789,8.9266 37.61,30.249 h -75.942 c 3.0079,-14.989 16.136,-30.249 38.332,-30.249 z"
         id="path7" />
      <path
         d="m 831.81,1372.1 c -46.846,0 -78.767,-35.638 -78.767,-77.658 0,-43.364 36.076,-76.195 78.616,-76.195 41.125,0 62.175,28.997 62.175,28.997 l -25.296,25.152 c 0,0 -14.654,-18.911 -37.05,-18.911 -24.823,0 -41.796,18.967 -41.796,41.512 0,23.805 18.055,42.069 41.517,42.069 22.757,0 37.294,-18.88 37.294,-18.88 l 25.55,25.139 c 0,0 -20.845,28.774 -62.242,28.774 z"
         id="path8" />
      <path
         d="m 907.25,1368.1 v -206.82 h 36.263 v 75.988 c 0,0 13.885,-18.981 44.09,-18.981 37.971,0 59.97,28.194 59.97,64.253 v 85.565 h -36.263 v -80.09 c 0,-24.225 -15.1,-34.276 -31.828,-34.276 -19.059,0 -35.968,10.834 -35.968,36.15 v 78.216 z"
         id="path9" />
    </g>
  </g>
</svg>
