<?xml version="1.0" encoding="UTF-8"?>
<!-- Created with Inkscape (http://www.inkscape.org/) -->
<svg width="8.4mm" height="4.2mm" version="1.1" viewBox="0 0 31.748 15.874" xmlns="http://www.w3.org/2000/svg">
 <g transform="matrix(1.3333 0 0 -1.3333 .00035265 256.06)">
  <g transform="matrix(.0042 0 0 .0042 2.568e-6 181.93)">
   <path d="m5669.3 4.2969h-5669.3v1975.7h5669.3v-1975.7" fill="#fff"/>
   <path d="m42.969 1660.1v276.98h255.21c-103.52-72.98-190.73-167.43-255.21-276.98zm143.88-451.77c0 344.52 278.44 623.64 622.1 623.64 343.58 0 621.98-279.12 621.98-623.64 0-344.49-278.41-623.37-621.98-623.37-343.66 0-622.1 278.88-622.1 623.37zm228.46-127.43c0-219.13 176.49-397.46 393.46-397.46 216.92 0 393.53 178.32 393.53 397.46 0 219.22-176.61 397.73-393.53 397.73-216.97 0-393.46-178.51-393.46-397.73zm904.24 856.18c228.51-161.22 377.96-427.44 377.96-728.75 0-491.98-397.67-891.13-888.56-891.13-326.41 0-611.41 176.43-765.98 439.16v-709.1h5583.4v1889.8h-4306.8" fill="#f47216"/>
   <path d="m2521.8 1581.2h157.4v-329.49h153.88v-134.47h-311.28zm368.67-229.29c0 37.11 6.53 70.61 19.68 100.62 13.13 29.89 31.15 55.34 54.12 76.35 22.9 20.95 50.13 37.05 81.59 48.47 31.45 11.36 65.48 16.99 102.21 16.99 36.72 0 70.79-5.63 102.24-16.99 31.46-11.42 58.71-27.52 81.91-48.47 23.2-21.01 41.25-46.46 54.46-76.35 12.98-30.01 19.61-63.51 19.61-100.62 0-37.16-6.63-71.02-19.61-101.5-13.21-30.66-31.26-56.76-54.46-78.42s-50.45-38.29-81.91-50.07c-31.45-11.9-65.52-17.82-102.24-17.82-36.73 0-70.76 5.92-102.21 17.82-31.46 11.78-58.69 28.41-81.59 50.07-22.97 21.66-40.99 47.76-54.12 78.42-13.15 30.48-19.68 64.34-19.68 101.5zm165.89 0c0-15.32 2.25-29.23 6.81-41.96 4.64-12.67 10.98-23.55 19.05-32.79 8.08-9.11 17.76-16.22 29.12-21.25 11.34-5.09 23.62-7.57 36.73-7.57 13.05 0 25.3 2.48 36.34 7.57 11.22 5.03 20.92 12.14 29.2 21.25 8.32 9.24 14.77 20.12 19.45 32.79 4.5 12.73 6.8 26.64 6.8 41.96 0 14.8-2.3 28.47-6.8 40.96-4.68 12.43-11.13 23.02-19.45 31.49-8.28 8.46-17.98 15.15-29.2 20-11.04 4.74-23.29 7.16-36.34 7.16-13.11 0-25.39-2.42-36.73-7.16-11.36-4.85-21.04-11.54-29.12-20-8.07-8.47-14.41-19.06-19.05-31.49-4.56-12.49-6.81-26.16-6.81-40.96zm670.37-234.67h-155.9v332.33h-114.08v131.63h384.02v-131.63h-114.04zm200.19 463.96h319.25v-129.68h-172.41v-39.95h161.93v-121.27h-161.93v-43.27h183.51v-129.79h-330.35zm433.8 0h199.87c22.7 0 45.34-2.19 67.71-6.81 22.67-4.61 42.67-12.72 60.45-24.27 17.7-11.59 32-27.04 42.86-46.52 10.89-19.41 16.42-43.85 16.42-73.15 0-28.29-6.98-53.26-20.98-74.93-13.88-21.72-33.94-38.41-60.01-50.13l117.63-188.15h-179.13l-88.92 165.84h-4.53v-165.84h-151.37zm150.01-195.91h30.65c5.16 0 10.98 0.48 17.11 1.37 6.42 0.89 12.25 2.72 17.61 5.56 5.47 2.78 9.97 6.69 13.64 11.84 3.7 5.03 5.62 11.6 5.62 19.94 0 8.35-1.57 14.8-4.61 19.59-3 4.85-6.9 8.41-11.78 10.89-4.71 2.43-9.86 3.91-15.48 4.56-5.71 0.59-10.92 1.01-15.66 1.01h-37.1zm331.94 195.91h157.31v-463.96h-157.31zm256.74 0h319.16v-129.68h-172.32v-39.95h161.79v-121.27h-161.79v-43.27h183.42v-129.79h-330.26zm-3270.9-677.17h199.42c22.64 0 45.16-2.247 67.68-6.805 22.4-4.617 42.5-12.668 60.2-24.207 17.57-11.543 31.89-27.164 42.84-46.52 10.86-19.414 16.37-43.679 16.37-72.918 0-28.289-7.01-53.207-20.95-74.808-13.91-21.606-33.92-38.297-60.02-50.016l117.49-187.62h-178.75l-88.71 165.31h-4.56v-165.31h-151.01zm149.71-195.43h30.45c5.21 0 10.95 0.293 17.25 1.242 6.25 0.891 12.05 2.723 17.49 5.563 5.38 2.839 9.94 6.746 13.7 11.781 3.61 4.969 5.48 11.656 5.48 19.883 0 8.347-1.54 14.918-4.53 19.652-3.02 4.793-7.02 8.461-11.75 10.832-4.68 2.305-9.88 3.844-15.5 4.555-5.63 0.531-10.89 0.949-15.6 0.949h-36.99zm297.49-33.438c0 37.11 6.51 70.489 19.6 100.38 13.11 29.887 31.07 55.219 53.97 76.168 22.85 20.953 49.96 37.051 81.32 48.414 31.49 11.246 65.52 17.047 102.07 17.047 36.64 0 70.61-5.801 101.94-17.047 31.46-11.363 58.72-27.461 81.8-48.414 23.17-20.949 41.22-46.281 54.3-76.168 12.99-29.89 19.59-63.269 19.59-100.38 0-37.05-6.6-70.789-19.59-101.33-13.08-30.597-31.13-56.582-54.3-78.183-23.08-21.543-50.34-38.235-81.8-49.953-31.33-11.778-65.3-17.696-101.94-17.696-36.55 0-70.58 5.918-102.07 17.696-31.36 11.718-58.47 28.41-81.32 49.953-22.9 21.601-40.86 47.586-53.97 78.183-13.09 30.539-19.6 64.278-19.6 101.33zm165.4 0c0-15.269 2.22-29.179 6.83-41.847 4.62-12.606 11.01-23.555 19.03-32.668 8.05-9.117 17.73-16.278 29.15-21.25 11.28-5.031 23.53-7.574 36.55-7.574 13.14 0 25.12 2.543 36.34 7.574 11.04 4.972 20.77 12.133 29.06 21.25 8.28 9.113 14.7 20.062 19.32 32.668 4.5 12.668 6.75 26.578 6.75 41.847 0 14.856-2.25 28.407-6.75 40.895-4.62 12.43-11.04 22.848-19.32 31.367-8.29 8.465-18.02 15.152-29.06 20.008-11.22 4.676-23.2 7.101-36.34 7.101-13.02 0-25.27-2.425-36.55-7.101-11.42-4.856-21.1-11.543-29.15-20.008-8.02-8.519-14.41-18.937-19.03-31.367-4.61-12.488-6.83-26.039-6.83-40.895zm552.52 27.52 7.23-261.54h-145.16v462.89h203.54l83.87-249.11h3.25l72.62 249.11h210.2v-462.89h-151.69l4.55 260.24-3.9 0.653-86.35-260.89h-109.88l-84.99 261.54zm673.33 201.35h165.42l180.49-462.89h-169.27l-24.27 67.887h-147.1l-22.88-67.887h-164.8zm80.43-161.46-37.91-114.52h75.23zm320.22 161.46h155.04l132.1-234.79h2.55l-6.48 234.79h147.78v-462.89h-158.88l-128.23 221h-2.54l6.57-221h-147.91zm517.23-462.89v462.89h172.67c36.6 0 71.55-3.668 104.94-10.711 33.38-7.223 62.79-19.711 88.24-37.344 25.51-17.699 45.96-41.137 61.14-70.313 15.33-29.242 22.96-66.05 22.96-110.5 0-40.543-7.27-75.582-21.86-105.29-14.62-29.593-34.27-53.859-58.63-72.918-24.32-18.937-52.58-33.023-84.34-42.199-31.78-9.054-64.95-13.613-99.28-13.613zm149.74 330.79v-196.73h28.73c36.7 0 64.78 7.816 84.49 23.793 19.53 15.804 29.33 41.726 29.33 77.773 0 29.945-9.8 53.324-29.33 70.074-19.71 16.746-45.81 25.094-78.54 25.094zm365.61 132.1h318.48v-129.5h-171.96v-39.832h161.43v-121.04h-161.43v-43.086h183v-129.44h-329.52v462.89" fill="#fff"/>
  </g>
 </g>
</svg>
