<?xml version="1.0" encoding="UTF-8"?>
<svg id="Layer_1" xmlns="http://www.w3.org/2000/svg" version="1.1" viewBox="0 0 245.66 62.58">
  <!-- Generator: Adobe Illustrator 29.8.1, SVG Export Plug-In . SVG Version: 2.1.1 Build 2)  -->
  <defs>
    <style>
      .st0 {
        fill: #303030;
      }
    </style>
  </defs>
  <g>
    <path class="st0" d="M49.85,13.85c-2.02,0-4.02.39-5.89,1.15-1.94.82-3.68,2.05-5.11,3.6-1.5,1.77-2.71,3.77-3.57,5.93-1.02,2.51-1.51,5.21-1.43,7.92.02,2.46.29,4.91.79,7.32,1.2,4.47,4.42,8.13,8.71,9.89,2.59.99,5.36,1.45,8.13,1.34,2.19.02,4.38-.18,6.53-.59,1.41-.37,2.8-.83,4.15-1.39l-.79-5.34c-1.06.56-2.19.96-3.36,1.19-1.81.44-3.68.64-5.54.59-4,0-6.93-.79-8.71-2.77-2.02-2.3-3.14-5.25-3.16-8.31h24.13v-2.33c0-6.13-1.18-10.68-3.76-13.65-2.58-2.97-6.33-4.55-11.12-4.55ZM58.16,28.46l-17.21.03c.08-1.04.34-2.06.79-3,.4-1.15,1-2.22,1.78-3.16.79-.88,1.73-1.62,2.77-2.18,1.16-.58,2.46-.85,3.76-.79,2.31-.09,4.52.94,5.94,2.77,1.55,1.73,2.34,4.01,2.17,6.33Z"/>
    <path class="st0" d="M156.33,18.6c-1.21-1.49-2.78-2.64-4.55-3.37-2.07-.84-4.29-1.24-6.53-1.18-1.34.04-2.68.17-4,.39-1.21.24-2.4.58-3.56,1V1.19l-5.84,1.18v48.08h5.54v-29.45c0-.33,2.44-.74,2.72-.8,2.75-.6,6.07-1.05,8.76.01,1.12.44,2.08,1.2,2.77,2.18.73,1.13,1.21,2.41,1.39,3.75.25,1.84.38,3.69.39,5.54v18.6h5.94v-20c.02-2.19-.18-4.38-.59-6.53-.36-1.9-1.2-3.67-2.44-5.15Z"/>
    <path class="st0" d="M170.76,0c-.06,0-.11,0-.17,0-1.12-.04-2.21.39-3,1.19-.83.77-1.27,1.87-1.19,3,0,2.31,1.87,4.19,4.19,4.19,1.1,0,2.15-.43,2.93-1.19.83-.77,1.27-1.87,1.19-3,.07-2.25-1.7-4.12-3.95-4.19Z"/>
    <rect class="st0" x="167.41" y="14.64" width="5.94" height="35.61"/>
    <path class="st0" d="M205.79,18.6c-1.25-1.44-2.8-2.59-4.55-3.37-2.55-.85-5.22-1.25-7.91-1.18-2.26-.04-4.51.16-6.73.59-1.8.29-5.54,1.19-5.54,1.19v34.22h5.94v-19.86c0-3.14-.08-6.29,0-9.43,0-.21-.1-.59.18-.63,3.45-.53,7.04-.83,10.47-.09.54.12,1.06.31,1.53.6.73.44,1.36,1.03,1.86,1.73.73,1.13,1.21,2.41,1.39,3.75.25,1.84.38,3.69.39,5.54v18.6h5.94v-20c.02-2.19-.18-4.38-.59-6.53-.34-1.88-1.16-3.64-2.38-5.12Z"/>
    <path class="st0" d="M136.75,59.55c-12.27,1.19-23.94.2-33.64-7.91-6.44-5.4-11.05-12.8-16.11-19.35l12.35-17.65h-6.5l-9.35,13.36c-5.93-7.17-12.26-14.33-20-19.46-9.11-5.94-20-6.14-30.08-4-2.37.4-5.54,3.17-1.18,2.18,21.41-4.4,35.79,10.56,47.82,26.15l-12.16,17.38h6.53l9-12.9c1.37,1.82,2.7,3.62,4,5.38,5,6.53,10.09,12.47,17.61,16.23,8.9,4.35,19.39,3.95,28.89,3,1.63-.23,6.97-2.81,2.82-2.41Z"/>
    <path class="st0" d="M242.19,45.11c-1.27-1.93-2.65-3.78-4.15-5.54-1.58-1.78-3-3.37-4.55-5-1.34-1.43-2.8-2.75-4.35-3.95,1.23-1.36,10.57-10.69,11.76-12.07s2.37-2.57,3.36-3.76h-7.51c-.94,1.17-12.93,13.69-14.12,14.88V1.19l-5.94,1.18v47.88h5.94v-17c1.42.93,2.76,1.99,4,3.16,1.48,1.28,2.87,2.68,4.15,4.16,1.39,1.58,2.77,3.16,4,4.75,1.21,1.59,2.33,3.24,3.36,4.94h7.52c-1.06-1.78-2.22-3.5-3.47-5.15Z"/>
    <path class="st0" d="M106.48,47.28c.98,1.24,2.28,2.2,3.76,2.77,1.9.69,3.91,1.03,5.93,1,1.87-.02,3.74-.29,5.54-.79,1.17-.23,2.31-.63,3.36-1.19l-1.22-5.35c-.77.4-1.56.73-2.38,1-1.67.46-3.41.66-5.14.6-.94,0-1.87-.14-2.77-.4-.78-.27-1.47-.75-2-1.39-.62-.8-1.03-1.75-1.19-2.76-.25-1.44-.38-2.9-.39-4.36v-15.83h13.87v-5.94h-14V3.56l-5.94,1.19v31.65c-.03,2.13.17,4.25.6,6.33.28,1.65.96,3.21,1.97,4.55Z"/>
  </g>
  <path class="st0" d="M24.73,18.6c-1.25-1.44-2.8-2.59-4.55-3.37-2.55-.85-5.22-1.25-7.91-1.18-2.26-.04-4.51.16-6.73.59-1.8.29-5.54,1.19-5.54,1.19v34.22h5.94v-19.86c0-3.14-.08-6.29,0-9.43,0-.21-.1-.59.18-.63,3.45-.53,7.04-.83,10.47-.09.54.12,1.06.31,1.53.6.73.44,1.36,1.03,1.86,1.73.73,1.13,1.21,2.41,1.39,3.75.25,1.84.38,3.69.39,5.54v18.6h5.94v-20c.02-2.19-.18-4.38-.59-6.53-.34-1.88-1.16-3.64-2.38-5.12Z"/>
</svg>