<svg width="250" height="250" version="1.1" viewBox="0 0 250 250" xmlns="http://www.w3.org/2000/svg"><defs><clipPath id="a"><path d="M 0,129.336 H 218.447 V 0 H 0 Z"/></clipPath></defs><g transform="matrix(1.3333 0 0 -1.3333 -20.631 211.22)"><g clip-path="url(#a)"><g transform="translate(33.917 102.32)"><path d="m0 0c0-41.582 33.717-75.304 75.307-75.304 41.591 0 75.306 33.722 75.306 75.304z" fill="#e41513"/></g><g transform="translate(125.3 71.68)"><path d="m0 0c-3.406 2.296-6.284 3.114-7.181 3.542-1.005 0.478-1.681 1.502-1.681 2.669 0 1.663 1.395 3.014 3.117 3.014h8.137v7.048h-9.71c-5.357 0-9.689-4.343-9.689-9.699 0-0.445 0.026-0.89 0.087-1.324-0.673 0.911-1.5 1.702-2.435 2.339-3.403 2.294-6.293 3.114-7.184 3.539-1.008 0.481-1.675 1.512-1.675 2.675 0 1.662 1.389 3.006 3.111 3.006h8.136v7.053h-9.706c-5.361 0-9.693-4.339-9.693-9.698 0-3.679 2.048-6.888 5.069-8.527 1.116-0.602 2.013-1.101 3.47-1.725 0.944-0.405 4.976-1.702 4.976-4.3 0-1.634-1.585-2.97-3.54-2.97h-9.937v-7.057h11.499c5.436 0 9.829 4.402 9.829 9.825 0 0.471-0.035 0.919-0.088 1.371 0.837-1.12 1.917-2.063 3.15-2.731 1.115-0.603 2.01-1.106 3.466-1.727 0.947-0.399 4.982-1.71 4.982-4.298 0-1.636-1.582-2.967-3.542-2.967h-9.935v-7.065h11.502c5.433 0 9.829 4.404 9.829 9.835 0 3.409-1.733 6.398-4.364 8.172m40.022 16.273h-6.701v-13.593l-8.396 13.593h-7.061v-26.711h7.061v14.173l4.871-7.883c1.052-1.745 2.762-3.924 4.909-5.166 1.314-0.757 3.28-1.482 5.669-1.482v27.069zm-90.432 0h-6.712v-13.593l-8.39 13.593h-7.059v-26.711h7.059v14.173l4.871-7.883c1.057-1.745 2.756-3.924 4.911-5.166 1.305-0.757 3.275-1.482 5.664-1.482v27.069zm64.256 0h-7.251v-26.714h7.251zm-59.892 0h7.26v-26.714h-7.26z" fill="#fff"/></g></g></g></svg>
