<svg width="400" height="400" version="1.1" viewBox="0 0 400 400" xmlns="http://www.w3.org/2000/svg"><g transform="matrix(1.3333 0 0 -1.3333 59.176 308.67)"><g transform="scale(.1)"><path d="m1824.4 916.73c-135.45-108.83-330.18-65.343-414.87 82.215-79.84 139.12-27.81 316.87 99.19 407.63 99.2 71.4 208.04 77.45 314.49 49.55 1.19-1.2 2.38-2.39 3.67-2.39 186.19-86.98 139.02-422.02-2.48-537.01zm233.46 520.13c-1.2 12.12-6.07 22.94-13.32 32.67-12.11 14.5-24.22 27.81-37.53 39.92-26.62 27.8-58.09 50.84-94.33 67.72-181.43 95.53-419.75 59.29-569.69-90.76-195.92-194.73-186.28-522.51 24.23-701.55 198.4-169.3 518.84-128.19 660.34 94.332 93.15 147.66 118.57 393.12 30.3 557.66" fill="#76ac2d"/><path d="m1814.4 261.55v-17.082c0-50.34 21.94-70.699 53.62-70.699 37.34 0 52.03 23.539 52.03 68.218 0 48.762-14.6 68.231-59.27 98.313-53.63 35.75-77.96 64.14-77.96 119.46 0 54.41 23.53 99.886 86.89 99.886 69.02 0 85.29-48.75 85.29-99.886v-20.364h-39.02v20.364c0 39.019-10.53 64.937-47.07 64.937-32.47 0-45.48-21.949-45.48-60.969 0-38.128 11.43-54.421 54.42-84.511 52.04-34.949 82.82-63.348 82.82-130.77 0-71.5-29.3-110.52-95.03-110.52-71.49 0-91.76 50.34-91.76 104.76v18.668h40.52zm-395.61 174.67c0 69.019 0 96.722-0.8 116.97h37.35c1.58-11.41 1.58-26.8 1.58-39.812 11.42 27.609 32.47 46.269 69.01 46.269 30.09 0 53.63-12.207 61.77-49.546 11.42 26.808 32.47 49.546 73.09 49.546 37.33 0 74.76-14.597 74.76-92.648v-322.52h-39.81v312.8c0 34.949-5.67 64.938-43.89 64.938-45.49 0-55.21-43.098-55.21-89.379v-288.36h-39.82v308.82c0 48.758-11.42 69.019-44.69 69.019-43.89 0-53.62-43.89-53.62-95.832v-281.91h-39.82v291.64zm-87.78-57.688v57.688c0 38.14-4.07 88.582-53.62 88.582-47.17 0-56.01-41.41-56.01-89.371v-56.899zm-109.63-34.062v-71.5c0-47.059 8.94-99.09 56.01-99.09 43.09 0 52.83 33.262 52.83 78.84v4.859h39.02v-4.066c0-50.352-12.21-115.38-92.64-115.38-72.3 0-94.24 49.551-94.24 133.26v164.93c0 66.629 24.32 123.53 95.82 123.53 73.08 0 91.76-57.692 91.76-123.53v-91.75h-148.56zm-208.83 208.72h49.55v102.39h39.03v-102.39h62.56v-35.742h-62.56v-298.09c0-21.961 4.87-45.48 30.89-45.48 8.13 0 21.94 0.793 28.39 2.48v-31.679c-11.42-4.071-27.6-4.86-40.61-4.86-31.68 0-57.7 16.27-57.7 72.282v305.45h-49.55zm-154.3-291.64v-17.082c0-50.34 21.945-70.699 53.625-70.699 37.332 0 52.031 23.539 52.031 68.218 0 48.762-14.601 68.231-59.289 98.313-53.613 35.75-77.949 64.14-77.949 119.46 0 54.41 23.535 99.886 86.895 99.886 69.004 0 85.293-48.75 85.293-99.886v-20.364h-39.024v20.364c0 39.019-10.527 64.937-47.07 64.937-32.469 0-45.477-21.949-45.477-60.969 0-38.128 11.414-54.421 54.414-84.511 52.032-34.949 82.825-63.348 82.825-130.77 0-71.5-29.301-110.52-95.032-110.52-71.504 0-91.758 50.34-91.758 104.76v18.668h40.516zm-226.6 291.64c30.089-159.17 60.078-311.89 64.152-355.79h0.789c8.937 63.364 43.887 229.89 67.422 355.79h40.617l-90.168-432.14c-23.535-111.32-52.031-121.05-95.027-121.05-8.145 0-18.672 1.5898-24.328 3.2695v38.141c4.863-0.7891 15.39-2.4805 21.945-2.4805 32.469 0 45.476 15.391 59.285 90.949l-87.781 423.22h43.094zm-203.86-291.64v-17.082c0-50.34 21.946-70.699 53.625-70.699 37.332 0 52.032 23.539 52.032 68.218 0 48.762-14.598 68.231-59.282 98.313-53.625 35.75-77.949 64.14-77.949 119.46 0 54.41 23.535 99.886 86.883 99.886 69.015 0 85.305-48.75 85.305-99.886v-20.364h-39.129v20.364c0 39.019-10.528 64.937-47.071 64.937-32.468 0-45.476-21.949-45.476-60.969 0-38.128 11.422-54.421 54.414-84.511 52.035-34.949 82.816-63.348 82.816-130.77 0-71.5-29.293-110.52-95.027-110.52-71.496 0-91.754 50.34-91.754 104.76v18.668h40.613zm425.2 769.38c0 85.3 0 110.52-0.793 129.98h79.629c1.594-9.73 3.282-26.81 3.282-38.13 12.218 24.33 34.953 44.68 77.948 44.68 51.14 0 86.1-31.67 86.1-110.51v-316.87h-83.72v300.58c0 38.13-13 51.14-36.539 51.14-29.188 0-42.196-15.39-42.196-73.09v-278.63h-83.711zm-121.85-37.438v43.098c0 39.02-8.934 60.07-39.024 60.07-26.804 0-39.812-19.46-39.812-60.07v-43.098zm-79.637-65.738v-61.762c0-32.472 8.145-61.769 39.824-61.769 33.262 0 37.332 30.09 37.332 60.082v1.586h81.231v-1.586c0-43.895-8.934-130.78-116.97-130.78-107.25 0-122.64 66.625-122.64 151.13v138.13c0 57.69 17.871 144.57 122.64 144.57 89.367 0 118.57-60.97 118.57-143.78v-95.826zm-282.7-47.168c0-42.199 8.137-72.289 39.019-72.289 31.676 0 39.821 24.332 39.821 62.558v165.74c0 38.23-12.211 55.21-36.543 55.21-26.813 0-42.203-16.28-42.203-64.94v-146.27zm-83.711 159.27c0 56.91 0 95.03-0.793 121.05h79.633c1.593-8.14 3.281-26.81 3.281-41.41 12.215 26.81 35.75 47.96 77.152 47.96 59.285 0 86.887-41.41 86.887-123.52v-172.19c0-96.719-31.676-138.12-95.82-138.12-35.746 0-56.004 17.078-66.629 35.746v-170.59h-83.711zm-201.38-3.27v-170.6c0-33.265 10.524-58.492 39.82-58.492 28.399 0 39.024 21.152 39.024 60.078v169.01c0 32.47-8.938 56-39.024 56-27.707 0.1-39.82-19.46-39.82-56zm162.45-4.87v-161.66c0-90.161-44.68-136.43-123.52-136.43-82.024 0-122.64 47.07-122.64 135.64v165.73c0 90.96 52.031 132.36 125.12 132.36 75.567 0 121.04-47.07 121.04-135.64" fill="#211d1d"/></g></g></svg>
