<?xml version="1.0" encoding="UTF-8" standalone="no"?>
<svg
   viewBox="0 0 232 116"
   preserveAspectRatio="xMinYMid"
   version="1.1"
   id="svg1"
   width="232"
   height="116"
   xmlns="http://www.w3.org/2000/svg"
   xmlns:svg="http://www.w3.org/2000/svg">
  <defs
     id="defs1" />
  <path
     d="m 100.43773,62.507207 h 15.24 l -8.05,-13 -14.800003,23.48 h -6.73 l 18.000003,-28.17 a 4.29,4.29 0 0 1 7,-0.05 l 18.05,28.22 h -6.73 l -3.17,-5.25 h -15.42 l -3.36,-5.23 m 69.93,5.23 v -24.47 h -5.72 v 26.88 a 2.76,2.76 0 0 0 0.85,2 2.89,2.89 0 0 0 2.08,0.87 h 26 l 3.39,-5.25 h -26.63 m -94.540003,-4.4 a 10.05,10.05 0 0 0 0,-20.1 h -25 v 29.72 h 5.71 v -24.46 h 18.94 a 4.81,4.81 0 0 1 0,9.62 h -16.11 l 17.06,14.84 h 8.29 l -11.46,-9.62 h 2.57 m -60.12,9.62 h 17.27 a 14.86,14.86 0 0 0 0,-29.71 h -17.27 a 14.86,14.86 0 1 0 0,29.71 m 16.88,-5.23 h -16.5 a 9.62,9.62 0 0 1 0,-19.23 h 16.5 a 9.62,9.62 0 1 1 0,19.23 m 108.490003,5.23 h 17.63 l 3.34,-5.23 h -20.58 a 9.62,9.62 0 1 1 0,-19.23 h 16.75 l 3.38,-5.25 h -20.52 a 14.86,14.86 0 1 0 0,29.71 m 69.87,-5.23 a 9.62,9.62 0 0 1 -9.26,-7 h 24.42 l 3.36,-5.24 h -27.78 a 9.61,9.61 0 0 1 9.26,-7 h 16.76 l 3.35,-5.25 h -20.5 a 14.86,14.86 0 0 0 0,29.71 h 17.63 l 3.35,-5.23 h -20.6"
     style="fill:#c74634"
     id="path1" />
</svg>
