<svg width="421" height="421" enable-background="new 0 0 460 200" version="1.1" viewBox="0 0 421 421" xmlns="http://www.w3.org/2000/svg"><g transform="translate(-19.618 110.55)"><g clip-rule="evenodd" fill-rule="evenodd"><g fill="#c93227"><path d="m87 67c3.8-0.5 7.6-1.1 11.5-1.6 0.4 2.3 0.8 4.5 1.2 6.8 0.5-0.2 0.8-0.2 0.9-0.4 6.2-6.5 14.2-7.8 22.6-7.3 13.6 0.9 23.1 9.9 25.6 24.1 2.2 12.7-0.4 24.5-8.7 34.6-5.6 6.8-13.2 9.7-21.8 9.6-3.8 0-7.7-0.6-11.4-1.4-2-0.4-3.8-1.9-5.9-2.9v16.6 16.8h-12c1.5-31.6 2.5-63.2-2-94.9zm13.9 51.6c0 0.8 0.6 1.9 1.3 2.4 3 2.3 6.5 3.3 10.3 3.6 8.6 0.7 16-1.4 20.5-9.4 5.7-10 6.3-20.4 1.4-30.9-2.6-5.6-7-9.5-13.3-10.5-4.7-0.7-9.4-0.5-13.8 1.5-2.2 1-4.2 2.5-6.1 4.1-1.1 0.9-1.4 2.1-1.3 3.5z"/><path d="m162.5 100.1c-0.1 10.3 8.1 20.1 18.6 22.4 8.7 1.8 17.3 0.7 25.8-1.3 0.3-0.1 0.6-0.1 1.2-0.3-0.4 3.1-0.7 6-1.2 8.9-0.1 0.4-1 0.9-1.6 1.1-7 2-14.1 2.3-21.3 2-5.9-0.3-11.6-1.4-16.7-4.5-11.4-6.8-16.1-17.2-15.7-30.2 0.3-8.4 2.8-16 7.9-22.8 6.6-8.7 15.5-12 26.2-11.2 2.6 0.2 5.3 0.7 7.8 1.5 9 3.1 13.7 9.9 15.3 18.9 0.8 4.7 0.6 9.6 0.9 14.7-16 0.3-31.6 0.5-47.2 0.8zm35.9-8.5c-0.6-3.3-0.8-6.3-1.7-9.2-1.6-5.5-5.4-8.7-11.1-9.5-1.6-0.2-3.3-0.3-4.9-0.3-10 0.4-18.7 10.1-17.7 19.8"/><path d="m83.7 97c-0.1 9.4-2.1 17.9-8.2 25.1-12.8 15.2-36.5 15.4-48.9 0.4-4.2-5.1-6-11.1-6.5-17.5-0.7-10.2 0.7-19.9 7.1-28.3 12.3-16.2 36.6-17.2 49.4-2.1 5.5 6.6 7 14.4 7.1 22.4zm-11.6 2.3c0-7.5-1.9-14-5.7-19.5-7-10.3-22.4-10.3-29.4-0.1-7.6 11.1-7.3 28.1 0.8 38.9 6.8 9.1 21.2 9.3 28.2 0.3 4.4-5.8 6.2-12.4 6.1-19.6z"/><path d="m214 131c0.8-21.3 2.7-42.6-1.9-63.9 4-0.6 7.8-1.1 11.7-1.7 0.5 2.8 0.9 5.5 1.4 8.5 0.9-0.7 1.4-1.1 2-1.5 8.8-7.5 18.8-9.5 29.8-6.8 8.5 2.1 13.2 7.8 13.8 16.9 0.3 4.2 0 8.3 0.1 12.5 0.1 11.2 0.2 22.4 0.2 33.6v2.4h-12.4c0.2-2.6 0.4-5.1 0.5-7.6 0.4-10.4 0.8-20.8 0.9-31.1 0-3-0.4-6.1-1.1-9-1.6-6-6.2-8.4-11.9-9-7.3-0.9-13.9 1.1-19.8 5.6-1.1 0.9-1.6 1.8-1.6 3.2 0.1 15.1 0.2 30.3 0.2 45.4v2.6c-3.9-0.1-7.8-0.1-11.9-0.1z"/></g><path d="m283.8 19.1h3.2v161.6c-1 0-2 0.1-3.2 0.1v-161.7z" fill="#212121"/></g></g><g transform="translate(-19.618 110.55)"><path d="m322 73.7c0 0.7-0.9 3.3-2.8 7.8s-2.8 7.2-2.8 8h-2.4c0-0.4-0.6-2-1.7-4.8-1.4-3.4-2.3-6.1-2.9-8.1h-0.1c-0.5 1.9-1.4 4.6-2.7 8.1-1 2.8-1.5 4.4-1.5 4.8h-2.3c0-0.6-0.9-3.3-2.7-8s-2.7-7.3-2.7-7.8h3c0 0.6 0.6 2.7 1.9 6.3s1.9 5.7 1.9 6.3h0.2c0-0.9 0.7-3.1 2-6.6s2-5.5 2-6.1h2.8c0 0.5 0.7 2.6 2.1 6.4 1.4 3.7 2.1 5.8 2.1 6.3h0.2c0-0.7 0.6-2.7 1.8-6.2 1.2-3.4 1.8-5.6 1.8-6.5h2.8z"/><path d="m336.8 79.7c0 0.5 0 1.1-0.1 1.9l-11.4 0.2c0.1 1.6 0.7 3 1.9 4.1 1.1 1.1 2.7 1.6 4.5 1.6 1.7 0 3.3-0.2 4.7-0.6l-0.3 2.3c-1.1 0.4-2.7 0.6-4.7 0.6-2.9 0-5.1-0.8-6.6-2.4s-2.3-3.5-2.3-5.7c0-2.4 0.7-4.5 2.1-6.2s3.2-2.6 5.6-2.6c2.1 0 3.8 0.6 4.9 1.9 1.2 1.3 1.7 2.9 1.7 4.9zm-2.8 0.1c0-3.1-1.3-4.7-3.9-4.7-2.7 0-4.2 1.6-4.7 4.8z"/><path d="m353.7 80.9c0 2.4-0.7 4.5-2.1 6.3s-3.3 2.7-5.7 2.7c-2 0-3.4-0.4-4.2-1.1h-0.1l-0.4 0.6h-2.4c0.1-3.8 0.2-7.9 0.2-12.4 0-4-0.2-7.7-0.5-11l3.3-0.2c-0.1 1.9-0.2 4.9-0.2 9h0.1c1.1-1.3 2.8-1.9 5.2-1.9 2 0 3.7 0.8 4.9 2.3 1.2 1.7 1.9 3.6 1.9 5.7zm-3 0.4c0-1.7-0.4-3.1-1.3-4.2-0.9-1.2-2.1-1.7-3.6-1.7-2 0-3.4 0.6-4.3 1.8 0 3.9 0.1 7.1 0.3 9.6 0.9 0.8 2.1 1.1 3.5 1.1 1.8 0 3.2-0.6 4.1-1.9s1.3-2.8 1.3-4.7z"/><path d="m308 119.2-0.2 2.2c-0.9 0.3-1.7 0.5-2.5 0.5-2 0-3.4-0.5-4.1-1.5s-1.1-2.8-1.1-5.4v-6.6c-0.6 0-1.5 0-2.7 0.1l0.1-2.4c1.1 0.1 2 0.1 2.8 0.1 0-0.7 0.1-2.2 0.2-4.7l2.6-0.3c-0.2 2.3-0.3 4-0.3 5 1.1 0 2.7-0.1 4.8-0.2l-0.1 2.5c-2-0.1-3.6-0.1-4.8-0.1v5.6c0 2.3 0.2 3.8 0.7 4.5s1.4 1.1 2.7 1.1c0.4-0.1 1-0.2 1.9-0.4z"/><path d="m322.6 111.7c0 0.5 0 1.1-0.1 1.9l-11.4 0.2c0.1 1.6 0.7 3 1.9 4.1 1.1 1.1 2.7 1.6 4.5 1.6 1.7 0 3.3-0.2 4.7-0.6l-0.3 2.3c-1.1 0.4-2.7 0.6-4.7 0.6-2.9 0-5.1-0.8-6.6-2.4s-2.3-3.5-2.3-5.7c0-2.4 0.7-4.5 2.1-6.2s3.2-2.6 5.6-2.6c2.1 0 3.8 0.6 4.9 1.9 1.2 1.3 1.7 2.9 1.7 4.9zm-2.7 0.1c0-3.1-1.3-4.7-3.9-4.7-2.7 0-4.2 1.6-4.7 4.8z"/><path d="m337.2 118.9-0.2 2.2c-0.9 0.5-2.1 0.8-3.6 0.8-2.9 0-5.1-0.8-6.6-2.4s-2.3-3.5-2.3-5.7c0-2.4 0.8-4.4 2.4-6.1s3.7-2.6 6.3-2.6c1.3 0 2.4 0.1 3.2 0.4l-0.4 2.6c-1.2-0.4-2.3-0.6-3.5-0.6-1.6 0-2.8 0.5-3.8 1.6s-1.4 2.5-1.4 4.1c0 1.8 0.6 3.3 1.7 4.5s2.7 1.8 4.7 1.8c0.9 0.1 2-0.2 3.5-0.6z"/><path d="m352.5 121.5h-3c0.2-2.9 0.4-6 0.4-9.4 0-1.8-0.3-3-1-3.6s-1.6-0.9-2.8-0.9c-1.7 0-3.2 0.6-4.7 1.7 0 6 0 10.1 0.1 12.3h-2.9c0.1-2.9 0.1-7 0.1-12.4 0-4.7-0.2-8.3-0.5-11l3.2-0.2c-0.1 3.4-0.1 6.5-0.1 9.4h0.1c1.7-1.5 3.5-2.2 5.5-2.2 1.8 0 3.2 0.4 4.2 1.2s1.5 2.3 1.5 4.3v1.2 1.6c-0.2 1.7-0.2 4.3-0.1 8z"/><path d="m368.5 121.5h-3c0.2-2.9 0.4-6.1 0.4-9.5 0-1.7-0.3-2.9-1-3.5s-1.7-0.9-3-0.9c-1.6 0-3 0.6-4.3 1.7 0 3.8 0 7.9 0.1 12.3h-3c0.2-3.8 0.3-6.5 0.3-8.2 0-2.6-0.2-5.1-0.7-7.5l2.9-0.4 0.3 2h0.1c1.6-1.5 3.4-2.2 5.3-2.2 1.8 0 3.3 0.4 4.3 1.2s1.5 2.3 1.5 4.3v1.2 1.2c-0.3 1.9-0.2 4.6-0.2 8.3z"/><path d="m386.7 113.1c0 2.8-0.8 5-2.4 6.6s-3.5 2.4-5.7 2.4c-2.1 0-3.8-0.7-5.3-2.1s-2.2-3.4-2.2-5.9c0-2.9 0.8-5.1 2.4-6.7s3.6-2.4 5.8-2.4c2.1 0 3.8 0.7 5.3 2.1 1.3 1.4 2.1 3.4 2.1 6zm-2.9 0.6c0-1.7-0.4-3.3-1.3-4.6s-2.1-2-3.7-2-2.8 0.6-3.7 1.9-1.3 2.8-1.3 4.4c0 1.7 0.4 3.3 1.3 4.6s2.1 2 3.7 2 2.8-0.6 3.7-1.9 1.3-2.7 1.3-4.4z"/><path d="m391.3 121.5h-3.2c0.2-3.7 0.3-7.8 0.3-12.4 0-4.5-0.2-8.1-0.5-11l3.4-0.2c-0.2 3-0.3 6.7-0.3 11.1 0 4.6 0.1 8.8 0.3 12.5z"/><path d="m409 113.1c0 2.8-0.8 5-2.4 6.6s-3.5 2.4-5.7 2.4c-2.1 0-3.8-0.7-5.3-2.1s-2.2-3.4-2.2-5.9c0-2.9 0.8-5.1 2.4-6.7s3.6-2.4 5.8-2.4c2.1 0 3.8 0.7 5.3 2.1 1.4 1.4 2.1 3.4 2.1 6zm-2.9 0.6c0-1.7-0.4-3.3-1.3-4.6s-2.1-2-3.7-2-2.8 0.6-3.7 1.9-1.3 2.8-1.3 4.4c0 1.7 0.4 3.3 1.3 4.6s2.1 2 3.7 2 2.8-0.6 3.7-1.9 1.3-2.7 1.3-4.4z"/><path d="m426.4 103.6-0.3 2.3c-2.1 0-3.2 0.3-3.4 1v0.2c0.7 0.9 1.1 1.8 1.1 3 0 1.7-0.6 3.2-1.7 4.3s-2.9 1.7-5.3 1.7c-1.1 0-1.9-0.1-2.5-0.3-0.5 0.4-0.8 0.9-0.8 1.4 0 0.7 0.3 1.2 1 1.4 0.8 0.3 2.5 0.5 5.1 0.5 4.2 0 6.3 1.4 6.3 4.2 0 2-0.8 3.6-2.5 4.9-1.6 1.3-3.8 2-6.4 2-2.7 0-4.6-0.5-5.7-1.5s-1.7-2.1-1.7-3.5c0-1.2 0.3-2.2 0.8-3 0.6-0.8 1.3-1.2 2.1-1.4v-0.1c-0.9-0.4-1.3-1.2-1.3-2.4 0-1.1 0.6-2 1.7-2.9v-0.1c-0.6-0.3-1.1-0.8-1.7-1.5s-0.8-1.5-0.8-2.6c0-1.8 0.6-3.2 1.7-4.3s2.8-1.7 5-1.7c1.8 0 3.2 0.3 4.2 1h0.2c0.4-1.9 1.3-2.8 2.8-2.8 1 0 1.7 0 2.1 0.2zm-2.9 20.7c0-1-0.4-1.8-1.1-2.2-0.8-0.4-2.2-0.6-4.3-0.6-1.4 0-2.7-0.1-3.9-0.2-1.4 0.7-2 1.6-2 2.9 0 2.7 1.8 4.1 5.3 4.1 1.8 0 3.3-0.4 4.4-1.1 1-0.8 1.6-1.8 1.6-2.9zm-2.4-13.6c0-1.2-0.4-2.1-1.2-2.8-0.8-0.6-1.7-1-2.9-1-1.1 0-2.1 0.3-2.8 0.9-0.8 0.6-1.1 1.5-1.1 2.7s0.4 2.1 1.2 2.8c0.8 0.6 1.8 0.9 3 0.9 1.1 0 2-0.3 2.8-0.9 0.7-0.6 1-1.5 1-2.6z"/><path d="m440.3 105.7c0 0.7-0.8 3-2.5 6.8-1.9 4.3-3.1 7.4-3.6 9.2-0.8 2.9-1.5 4.7-2.1 5.5-0.9 1.1-2.5 1.6-4.7 1.6l-0.1-2.3c1.4 0 2.5-0.5 3.5-1.4s1.4-2.1 1.4-3.5c0-1.2-1-4.2-3.1-8.8s-3.1-7-3.1-7.1h3.4c0 0.3 0.7 2.3 2.1 6s2.1 6 2.1 6.9h0.2c0-0.7 0.6-2.8 1.8-6.3s1.8-5.7 1.8-6.7h2.9z"/></g></svg>
