<?xml version="1.0" encoding="utf-8"?>
<!-- Generator: Adobe Illustrator 19.0.0, SVG Export Plug-In . SVG Version: 6.00 Build 0)  -->
<svg version="1.1" xmlns="http://www.w3.org/2000/svg" xmlns:xlink="http://www.w3.org/1999/xlink" x="0px" y="0px"
	 viewBox="0 0 460 200" enable-background="new 0 0 460 200" xml:space="preserve">
<g id="Layer_1">
	<g>
		<path fill-rule="evenodd" clip-rule="evenodd" fill="#C93227" d="M87,67c3.8-0.5,7.6-1.1,11.5-1.6c0.4,2.3,0.8,4.5,1.2,6.8
			c0.5-0.2,0.8-0.2,0.9-0.4c6.2-6.5,14.2-7.8,22.6-7.3c13.6,0.9,23.1,9.9,25.6,24.1c2.2,12.7-0.4,24.5-8.7,34.6
			c-5.6,6.8-13.2,9.7-21.8,9.6c-3.8,0-7.7-0.6-11.4-1.4c-2-0.4-3.8-1.9-5.9-2.9c0,5.5,0,11.1,0,16.6c0,5.6,0,11.1,0,16.8
			c-3.8,0-7.9,0-12,0C90.5,130.3,91.5,98.7,87,67z M100.9,118.6c0,0.8,0.6,1.9,1.3,2.4c3,2.3,6.5,3.3,10.3,3.6
			c8.6,0.7,16-1.4,20.5-9.4c5.7-10,6.3-20.4,1.4-30.9c-2.6-5.6-7-9.5-13.3-10.5c-4.7-0.7-9.4-0.5-13.8,1.5c-2.2,1-4.2,2.5-6.1,4.1
			c-1.1,0.9-1.4,2.1-1.3,3.5L100.9,118.6z"/>
		<path fill-rule="evenodd" clip-rule="evenodd" fill="#C93227" d="M162.5,100.1c-0.1,10.3,8.1,20.1,18.6,22.4
			c8.7,1.8,17.3,0.7,25.8-1.3c0.3-0.1,0.6-0.1,1.2-0.3c-0.4,3.1-0.7,6-1.2,8.9c-0.1,0.4-1,0.9-1.6,1.1c-7,2-14.1,2.3-21.3,2
			c-5.9-0.3-11.6-1.4-16.7-4.5c-11.4-6.8-16.1-17.2-15.7-30.2c0.3-8.4,2.8-16,7.9-22.8c6.6-8.7,15.5-12,26.2-11.2
			c2.6,0.2,5.3,0.7,7.8,1.5c9,3.1,13.7,9.9,15.3,18.9c0.8,4.7,0.6,9.6,0.9,14.7C193.7,99.6,178.1,99.8,162.5,100.1z M198.4,91.6
			c-0.6-3.3-0.8-6.3-1.7-9.2c-1.6-5.5-5.4-8.7-11.1-9.5c-1.6-0.2-3.3-0.3-4.9-0.3C170.7,73,162,82.7,163,92.4"/>
		<path fill-rule="evenodd" clip-rule="evenodd" fill="#C93227" d="M83.7,97c-0.1,9.4-2.1,17.9-8.2,25.1
			c-12.8,15.2-36.5,15.4-48.9,0.4c-4.2-5.1-6-11.1-6.5-17.5c-0.7-10.2,0.7-19.9,7.1-28.3c12.3-16.2,36.6-17.2,49.4-2.1
			C82.1,81.2,83.6,89,83.7,97z M72.1,99.3c0-7.5-1.9-14-5.7-19.5C59.4,69.5,44,69.5,37,79.7c-7.6,11.1-7.3,28.1,0.8,38.9
			c6.8,9.1,21.2,9.3,28.2,0.3C70.4,113.1,72.2,106.5,72.1,99.3z"/>
		<path fill-rule="evenodd" clip-rule="evenodd" fill="#C93227" d="M214,131c0.8-21.3,2.7-42.6-1.9-63.9c4-0.6,7.8-1.1,11.7-1.7
			c0.5,2.8,0.9,5.5,1.4,8.5c0.9-0.7,1.4-1.1,2-1.5c8.8-7.5,18.8-9.5,29.8-6.8c8.5,2.1,13.2,7.8,13.8,16.9c0.3,4.2,0,8.3,0.1,12.5
			c0.1,11.2,0.2,22.4,0.2,33.6c0,0.7,0,1.5,0,2.4c-4.2,0-8.2,0-12.4,0c0.2-2.6,0.4-5.1,0.5-7.6c0.4-10.4,0.8-20.8,0.9-31.1
			c0-3-0.4-6.1-1.1-9c-1.6-6-6.2-8.4-11.9-9c-7.3-0.9-13.9,1.1-19.8,5.6c-1.1,0.9-1.6,1.8-1.6,3.2c0.1,15.1,0.2,30.3,0.2,45.4
			c0,0.8,0,1.6,0,2.6C222,131,218.1,131,214,131z"/>
		<path fill-rule="evenodd" clip-rule="evenodd" fill="#212121" d="M283.8,19.1c1.1,0,2.1,0,3.2,0c0,53.8,0,107.6,0,161.6
			c-1,0-2,0.1-3.2,0.1C283.8,126.9,283.8,73.1,283.8,19.1z"/>
	</g>
</g>
<g id="Layer_2">
	<g>
		<path d="M322,73.7c0,0.7-0.9,3.3-2.8,7.8c-1.9,4.5-2.8,7.2-2.8,8H314c0-0.4-0.6-2-1.7-4.8c-1.4-3.4-2.3-6.1-2.9-8.1h-0.1
			c-0.5,1.9-1.4,4.6-2.7,8.1c-1,2.8-1.5,4.4-1.5,4.8h-2.3c0-0.6-0.9-3.3-2.7-8c-1.8-4.7-2.7-7.3-2.7-7.8h3c0,0.6,0.6,2.7,1.9,6.3
			c1.3,3.6,1.9,5.7,1.9,6.3h0.2c0-0.9,0.7-3.1,2-6.6c1.3-3.5,2-5.5,2-6.1h2.8c0,0.5,0.7,2.6,2.1,6.4c1.4,3.7,2.1,5.8,2.1,6.3h0.2
			c0-0.7,0.6-2.7,1.8-6.2c1.2-3.4,1.8-5.6,1.8-6.5H322z"/>
		<path d="M336.8,79.7c0,0.5,0,1.1-0.1,1.9l-11.4,0.2c0.1,1.6,0.7,3,1.9,4.1c1.1,1.1,2.7,1.6,4.5,1.6c1.7,0,3.3-0.2,4.7-0.6
			l-0.3,2.3c-1.1,0.4-2.7,0.6-4.7,0.6c-2.9,0-5.1-0.8-6.6-2.4c-1.5-1.6-2.3-3.5-2.3-5.7c0-2.4,0.7-4.5,2.1-6.2
			c1.4-1.7,3.2-2.6,5.6-2.6c2.1,0,3.8,0.6,4.9,1.9C336.3,76.1,336.8,77.7,336.8,79.7z M334,79.8c0-3.1-1.3-4.7-3.9-4.7
			c-2.7,0-4.2,1.6-4.7,4.8L334,79.8z"/>
		<path d="M353.7,80.9c0,2.4-0.7,4.5-2.1,6.3c-1.4,1.8-3.3,2.7-5.7,2.7c-2,0-3.4-0.4-4.2-1.1h-0.1l-0.4,0.6h-2.4
			c0.1-3.8,0.2-7.9,0.2-12.4c0-4-0.2-7.7-0.5-11l3.3-0.2c-0.1,1.9-0.2,4.9-0.2,9h0.1c1.1-1.3,2.8-1.9,5.2-1.9c2,0,3.7,0.8,4.9,2.3
			C353,76.9,353.7,78.8,353.7,80.9z M350.7,81.3c0-1.7-0.4-3.1-1.3-4.2c-0.9-1.2-2.1-1.7-3.6-1.7c-2,0-3.4,0.6-4.3,1.8
			c0,3.9,0.1,7.1,0.3,9.6c0.9,0.8,2.1,1.1,3.5,1.1c1.8,0,3.2-0.6,4.1-1.9C350.3,84.7,350.7,83.2,350.7,81.3z"/>
		<path d="M308,119.2l-0.2,2.2c-0.9,0.3-1.7,0.5-2.5,0.5c-2,0-3.4-0.5-4.1-1.5c-0.7-1-1.1-2.8-1.1-5.4c0-1.7,0-3.9,0-6.6
			c-0.6,0-1.5,0-2.7,0.1l0.1-2.4c1.1,0.1,2,0.1,2.8,0.1c0-0.7,0.1-2.2,0.2-4.7l2.6-0.3c-0.2,2.3-0.3,4-0.3,5c1.1,0,2.7-0.1,4.8-0.2
			l-0.1,2.5c-2-0.1-3.6-0.1-4.8-0.1c0,1.7,0,3.6,0,5.6c0,2.3,0.2,3.8,0.7,4.5c0.5,0.7,1.4,1.1,2.7,1.1
			C306.5,119.5,307.1,119.4,308,119.2z"/>
		<path d="M322.6,111.7c0,0.5,0,1.1-0.1,1.9l-11.4,0.2c0.1,1.6,0.7,3,1.9,4.1c1.1,1.1,2.7,1.6,4.5,1.6c1.7,0,3.3-0.2,4.7-0.6
			l-0.3,2.3c-1.1,0.4-2.7,0.6-4.7,0.6c-2.9,0-5.1-0.8-6.6-2.4c-1.5-1.6-2.3-3.5-2.3-5.7c0-2.4,0.7-4.5,2.1-6.2
			c1.4-1.7,3.2-2.6,5.6-2.6c2.1,0,3.8,0.6,4.9,1.9C322.1,108.1,322.6,109.7,322.6,111.7z M319.9,111.8c0-3.1-1.3-4.7-3.9-4.7
			c-2.7,0-4.2,1.6-4.7,4.8L319.9,111.8z"/>
		<path d="M337.2,118.9l-0.2,2.2c-0.9,0.5-2.1,0.8-3.6,0.8c-2.9,0-5.1-0.8-6.6-2.4s-2.3-3.5-2.3-5.7c0-2.4,0.8-4.4,2.4-6.1
			s3.7-2.6,6.3-2.6c1.3,0,2.4,0.1,3.2,0.4l-0.4,2.6c-1.2-0.4-2.3-0.6-3.5-0.6c-1.6,0-2.8,0.5-3.8,1.6s-1.4,2.5-1.4,4.1
			c0,1.8,0.6,3.3,1.7,4.5s2.7,1.8,4.7,1.8C334.6,119.6,335.7,119.3,337.2,118.9z"/>
		<path d="M352.5,121.5h-3c0.2-2.9,0.4-6,0.4-9.4c0-1.8-0.3-3-1-3.6c-0.7-0.6-1.6-0.9-2.8-0.9c-1.7,0-3.2,0.6-4.7,1.7
			c0,6,0,10.1,0.1,12.3h-2.9c0.1-2.9,0.1-7,0.1-12.4c0-4.7-0.2-8.3-0.5-11l3.2-0.2c-0.1,3.4-0.1,6.5-0.1,9.4h0.1
			c1.7-1.5,3.5-2.2,5.5-2.2c1.8,0,3.2,0.4,4.2,1.2c1,0.8,1.5,2.3,1.5,4.3c0,0.2,0,0.6,0,1.2c0,0.6,0,1.2,0,1.6
			C352.4,115.2,352.4,117.8,352.5,121.5z"/>
		<path d="M368.5,121.5h-3c0.2-2.9,0.4-6.1,0.4-9.5c0-1.7-0.3-2.9-1-3.5c-0.7-0.6-1.7-0.9-3-0.9c-1.6,0-3,0.6-4.3,1.7
			c0,3.8,0,7.9,0.1,12.3h-3c0.2-3.8,0.3-6.5,0.3-8.2c0-2.6-0.2-5.1-0.7-7.5l2.9-0.4l0.3,2h0.1c1.6-1.5,3.4-2.2,5.3-2.2
			c1.8,0,3.3,0.4,4.3,1.2c1,0.8,1.5,2.3,1.5,4.3c0,0.2,0,0.6,0,1.2s0,1,0,1.2C368.4,115.1,368.5,117.8,368.5,121.5z"/>
		<path d="M386.7,113.1c0,2.8-0.8,5-2.4,6.6c-1.6,1.6-3.5,2.4-5.7,2.4c-2.1,0-3.8-0.7-5.3-2.1c-1.5-1.4-2.2-3.4-2.2-5.9
			c0-2.9,0.8-5.1,2.4-6.7c1.6-1.6,3.6-2.4,5.8-2.4c2.1,0,3.8,0.7,5.3,2.1C385.9,108.5,386.7,110.5,386.7,113.1z M383.8,113.7
			c0-1.7-0.4-3.3-1.3-4.6c-0.9-1.3-2.1-2-3.7-2c-1.6,0-2.8,0.6-3.7,1.9c-0.9,1.3-1.3,2.8-1.3,4.4c0,1.7,0.4,3.3,1.3,4.6
			c0.9,1.3,2.1,2,3.7,2c1.6,0,2.8-0.6,3.7-1.9C383.4,116.8,383.8,115.4,383.8,113.7z"/>
		<path d="M391.3,121.5h-3.2c0.2-3.7,0.3-7.8,0.3-12.4c0-4.5-0.2-8.1-0.5-11l3.4-0.2c-0.2,3-0.3,6.7-0.3,11.1
			C391,113.6,391.1,117.8,391.3,121.5z"/>
		<path d="M409,113.1c0,2.8-0.8,5-2.4,6.6c-1.6,1.6-3.5,2.4-5.7,2.4c-2.1,0-3.8-0.7-5.3-2.1c-1.5-1.4-2.2-3.4-2.2-5.9
			c0-2.9,0.8-5.1,2.4-6.7c1.6-1.6,3.6-2.4,5.8-2.4c2.1,0,3.8,0.7,5.3,2.1C408.3,108.5,409,110.5,409,113.1z M406.1,113.7
			c0-1.7-0.4-3.3-1.3-4.6c-0.9-1.3-2.1-2-3.7-2c-1.6,0-2.8,0.6-3.7,1.9c-0.9,1.3-1.3,2.8-1.3,4.4c0,1.7,0.4,3.3,1.3,4.6
			c0.9,1.3,2.1,2,3.7,2c1.6,0,2.8-0.6,3.7-1.9C405.7,116.8,406.1,115.4,406.1,113.7z"/>
		<path d="M426.4,103.6l-0.3,2.3c-2.1,0-3.2,0.3-3.4,1v0.2c0.7,0.9,1.1,1.8,1.1,3c0,1.7-0.6,3.2-1.7,4.3c-1.1,1.1-2.9,1.7-5.3,1.7
			c-1.1,0-1.9-0.1-2.5-0.3c-0.5,0.4-0.8,0.9-0.8,1.4c0,0.7,0.3,1.2,1,1.4c0.8,0.3,2.5,0.5,5.1,0.5c4.2,0,6.3,1.4,6.3,4.2
			c0,2-0.8,3.6-2.5,4.9c-1.6,1.3-3.8,2-6.4,2c-2.7,0-4.6-0.5-5.7-1.5c-1.1-1-1.7-2.1-1.7-3.5c0-1.2,0.3-2.2,0.8-3
			c0.6-0.8,1.3-1.2,2.1-1.4v-0.1c-0.9-0.4-1.3-1.2-1.3-2.4c0-1.1,0.6-2,1.7-2.9v-0.1c-0.6-0.3-1.1-0.8-1.7-1.5s-0.8-1.5-0.8-2.6
			c0-1.8,0.6-3.2,1.7-4.3s2.8-1.7,5-1.7c1.8,0,3.2,0.3,4.2,1h0.2c0.4-1.9,1.3-2.8,2.8-2.8C425.3,103.4,426,103.4,426.4,103.6z
			 M423.5,124.3c0-1-0.4-1.8-1.1-2.2c-0.8-0.4-2.2-0.6-4.3-0.6c-1.4,0-2.7-0.1-3.9-0.2c-1.4,0.7-2,1.6-2,2.9c0,2.7,1.8,4.1,5.3,4.1
			c1.8,0,3.3-0.4,4.4-1.1C422.9,126.4,423.5,125.4,423.5,124.3z M421.1,110.7c0-1.2-0.4-2.1-1.2-2.8c-0.8-0.6-1.7-1-2.9-1
			c-1.1,0-2.1,0.3-2.8,0.9c-0.8,0.6-1.1,1.5-1.1,2.7c0,1.2,0.4,2.1,1.2,2.8c0.8,0.6,1.8,0.9,3,0.9c1.1,0,2-0.3,2.8-0.9
			C420.8,112.7,421.1,111.8,421.1,110.7z"/>
		<path d="M440.3,105.7c0,0.7-0.8,3-2.5,6.8c-1.9,4.3-3.1,7.4-3.6,9.2c-0.8,2.9-1.5,4.7-2.1,5.5c-0.9,1.1-2.5,1.6-4.7,1.6l-0.1-2.3
			c1.4,0,2.5-0.5,3.5-1.4s1.4-2.1,1.4-3.5c0-1.2-1-4.2-3.1-8.8s-3.1-7-3.1-7.1h3.4c0,0.3,0.7,2.3,2.1,6s2.1,6,2.1,6.9h0.2
			c0-0.7,0.6-2.8,1.8-6.3c1.2-3.5,1.8-5.7,1.8-6.7H440.3z"/>
	</g>
</g>
</svg>
