<?xml version="1.0" encoding="UTF-8" standalone="no"?>
<!-- Generator: Adobe Illustrator 18.0.0, SVG Export Plug-In . SVG Version: 6.00 Build 0)  -->

<svg
   version="1.1"
   id="Layer_1"
   x="0px"
   y="0px"
   viewBox="0 0 441.42389 220.71195"
   width="482"
   height="241"
   enable-background="new 0 0 380.2 220.6"
   xml:space="preserve"
   xmlns="http://www.w3.org/2000/svg"
   xmlns:svg="http://www.w3.org/2000/svg"><defs
   id="defs16" />















































<g
   id="g17"><g
     id="g16"
     transform="translate(12.000008)"><path
       fill="#d2003c"
       d="m 302.71195,36.305974 h -16.1 v 31.6 c 0,10.3 11,19.1 24.6,19.1 13.6,0 25.5,-8.9 25.5,-19.1 v -31.6 h -16.1 v 28.5 c 0,4.7 -4,8.5 -8.9,8.5 -5,0 -9,-3.8 -9,-8.6 z"
       id="path1" /><path
       fill="#d2003c"
       d="m 47.311947,18.905974 v 65.6 h -16.7 V 5.4059737 h 30.1 c 13.1,0 23.8,10.6000003 23.8,23.5000003 0,11 -7.7,20.2 -18.1,22.6 l 23.2,33 h -19.9 l -16.7,-25.9 v -18.9 h 3.9 c 6.2,0 11.2,-4.6 11.2,-10.3 0,-5.7 -4.7,-10.5 -10.9,-10.5 z"
       id="path2" /><path
       fill="#d2003c"
       d="M 201.01195,84.505974 V 1.6059737 h -15.8 V 40.705974 c -4.2,-4.1 -9.5,-6.4 -15.6,-6.4 -13,0 -23.6,11.5 -23.6,25.8 0,14.2 10.6,25.8 23.6,25.8 6.2,0 12,-2.4 15.6,-6.8 v 5.4 z m -26.9,-12.1 c -6.4,0 -11.6,-5.7 -11.6,-12.7 0,-7 5.2,-12.7 11.6,-12.7 6.4,0 11.6,5.7 11.6,12.7 -0.1,7 -5.3,12.7 -11.6,12.7"
       id="path3" /><path
       fill="#d2003c"
       d="m 267.41195,41.505974 c 4.3,-4 7,-9.4 7,-15.3 0,-5.4 -2.1,-10.3 -5.7,-14.2 -3.8,-4.1000003 -10.4,-6.6000003 -19.4,-6.6000003 h -26.9 V 84.505974 h 34.8 c 13.3,-0.2 24.1,-10.3 24.1,-22.7 -0.1,-9 -3.3,-15.4 -13.9,-20.3 m -13.4,29.3 h -15.1 v -51.2 h 10.6 c 4.6,0 8.5,3.5 8.5,8.2 0,4.7 -3.9,8.5 -8.5,8.5 h -5.6 v 14.3 h 10.3 c 5.6,0 9.8,4.6 9.8,10.2 -0.2,5.6 -3.9,9.7 -10,10"
       id="path4" /><path
       fill="#d2003c"
       d="m 103.61195,54.205974 c 0,-5.3 4.3,-9.6 9.6,-9.6 5.3,0 9.6,4.3 9.6,9.6 z m 34.8,9 c 0.1,-1.1 0.2,-2.2 0.2,-3.3 0.2,-17.1 -11,-26.4 -25.4,-26.4 -14.400003,0 -26.100003,11.8 -26.100003,26.4 0,14.6 11.7,26.4 26.100003,26.4 11,0 19.6,-5 24,-12.8 l -12.8,-5.9 c -1.6,3.5 -5.4,6 -9.9,6 -5.9,0 -10.8,-4.5 -10.8,-10.4 0.4,0 34.7,0 34.7,0"
       id="path5" /><rect
       x="344.11194"
       y="1.6059737"
       fill="#d2003c"
       width="15.8"
       height="82.900002"
       id="rect5" /><rect
       x="371.01193"
       y="1.6059737"
       fill="#d2003c"
       width="15.8"
       height="82.900002"
       id="rect6" /><path
       fill="#ffd300"
       d="m 172.41195,139.30597 c 0,-21.4 17.3,-38.7 38.7,-38.7 21.4,0 38.7,17.3 38.7,38.7 0,21.4 -17.3,38.7 -38.7,38.7 -21.4,0 -38.7,-17.4 -38.7,-38.7"
       id="path6" /><path
       fill-rule="evenodd"
       clip-rule="evenodd"
       fill="#ffd300"
       d="m 180.01195,116.30597 c 0.6,0.3 1.2,0.6 1.9,1 2.9,2 4.8,3.7 9.2,7.4 1.3,1.3 2.8,3.4 3.9,4.7 2.4,3 4.1,5.1 4.4,7.6 0.7,5 1.4,7.8 3.3,12.9 0.2,0.5 1,1.2 1.5,1.8 1.2,1.5 1.7,3.9 3.9,5.2 1.2,0.7 1.4,0.8 1.8,1.1 0.6,0.5 -0.4,2.3 -3.5,1.9 1.6,0.8 1.4,2.6 -0.9,2.7 -4.5,0.2 -7.3,-2.4 -7.9,-3.1 -0.3,-0.3 -1.2,0.9 -2.8,1.5 -1.6,0.8 -3.8,0 -5.5,0.3 -1.6,0.3 -3.7,1.3 -5.4,1.4 -3,0.1 -3.4,-2 -3.4,-3.8 0,-0.4 0,-0.7 0,-0.8 -0.3,1.1 -1.4,3 -1.4,3 -0.4,0.9 -1,2 -2.1,2.4 l -3.2,0.4 c -2.5,1.1 -5,1.9 -7.6,2.8 -1.5,0.3 -3.2,0 -4.3,-0.9 -0.9,-0.7 -1.4,-1.6 -1.9,-2.5 -0.5,-0.2 -1.2,0 -1.8,-0.2 -0.5,-0.1 -0.8,-0.5 -1.1,-0.8 l -2.2,-3.7 c -0.2,-0.5 -0.2,-1.2 0,-1.7 0.4,-0.8 1.3,-1.2 2.2,-1.2 1.6,-0.1 3.4,-0.6 5,0 0.7,-0.8 1.8,-0.7 2.8,-0.9 -0.4,-0.6 -1,-0.9 -1.5,-1.4 -2.9,0.7 -6.1,0.2 -8.9,-0.3 -2.6,-0.6 -4.8,0.9 -7.4,0.5 l -0.8,1.7 c -1.2,1.3 -1.3,3.5 -3.1,4.4 -1.3,0.3 -2.3,1.2 -3.4,1.8 -2,1.1 -4.7,0.6 -6.9,0.2 -0.9,-0.1 -1.5,0 -2.3,0.3 -0.7,0.5 -1.5,1.3 -2.3,1.9 -1.3,0.5 -2.4,1.6 -3.8,1.7 -0.8,0 -1.6,-0.5 -2.4,-0.3 -1,1.1 -1.5,2.9 -3.1,3.4 -1.6,0.5 -3.6,0.1 -5.2,-0.3 -0.5,0.2 -0.8,0.6 -1.4,0.5 -1.1,-0.3 -2.2,-0.6 -3.2,-1.2 -0.4,-0.4 -0.5,-0.9 -0.6,-1.3 0,-0.7 0.6,-1.3 0.9,-1.9 0.1,-0.7 0.1,-1.7 0.4,-2.4 0.5,-1.1 1.6,-1.8 2.7,-2.3 0.1,-0.8 0.6,-1.5 1.3,-1.9 1.3,-0.7 2.7,-2.3 4.4,-1.4 l 1.8,1.5 c 1.6,-0.7 1.2,-2.3 2,-3.6 0.4,-0.9 0.9,-1.9 1.9,-1.9 0.7,-0.1 1.5,0.1 2.2,0 1,-0.3 2.1,-0.7 2.8,-1.5 l -0.1,-0.6 c -1,-1.9 -1.3,-4.2 -1.4,-6.5 -1.8,0.2 -3.7,0.5 -5.6,0.1 -2.8,-0.4 -5.5,-2.6 -6.6,-5.4 -1.2,-2.7 -0.7,-6.5 1.2,-8.8 1.5,-1.8 3.2,-3.4 5,-4.8 -0.6,-0.2 -1.3,-0.1 -1.9,-0.3 -2.6,-0.4 -5.2,-2.7 -5.8,-5.3 -0.4,-1.7 0,-3.3 0.8,-4.7 0.3,-0.3 0.6,-0.6 1.1,-0.4 1.3,0.5 1.7,1.2 2.9,1.8 l 0.7,0.4 c 3.3,1.1 7.7,1.1 9,5.2 0.8,3.2 -1.2,5.6 -3.5,7.4 -1.8,1.3 -3.6,2.9 -4.5,4.8 -0.4,1.4 -0.2,2.8 1,3.8 1.2,1.2 3.3,1.2 4.8,0.6 2.8,-1.2 5.4,-3 7.9,-4.9 2.4,-1.8 5.3,-2.5 8.4,-2.6 1.4,-0.3 2.6,-0.9 3.7,-1.8 1.9,-1.8 3.9,-3.3 6.3,-3.9 1.1,-0.2 2.2,-0.3 3.3,-0.4 0.9,-0.4 1.5,-1.5 2.2,-2 3.3,-2.9 7.7,-2.8 11.2,-5.1 2,-1.5 4.2,-2.5 6.8,-2.4 1.2,0.1 2.3,0.3 3.3,0.7 z m 3.3,34 c -2.2,0.1 -3.6,0.6 -5.1,0.8 0.1,1.4 0.9,2.6 2,4.1 0.6,-2.3 2.5,-3.2 3.1,-4.9"
       id="path7" /><path
       fill-rule="evenodd"
       clip-rule="evenodd"
       fill="#ffd300"
       d="m 239.61195,150.80597 c 1,1.5 1.6,3 2.5,4.6 0.9,-1.7 1.7,-3.3 2.5,-4.3 -0.1,-0.1 -2.7,0.2 -5,-0.3 m 2.1,7.4 c -0.1,0.3 -0.3,0.4 -0.7,0.4 0.3,1.4 -0.7,4 -3.2,4.1 -1.7,0.1 -4.5,-1.6 -6.1,-1.7 -1.7,-0.1 -4.8,1.2 -6.6,-1.5 -2.4,2.9 -5.2,3.7 -7.6,3.6 -1.4,0 -2.9,-0.8 -0.8,-2.6 -4.6,1.5 -4.6,-1.6 -3.8,-2.2 0.5,-0.4 1.1,-0.7 2.8,-2.4 6.4,-6.7 4,-18.3 11,-26 2.7,-3 4.9,-4.7 10.4,-8.6 1.9,-1.3 3.8,-3.2 5.6,-4.5 l 0.1,0.2 v -0.1 c 1.1,-0.8 2.1,-1.6 3.3,-1.9 2.5,-0.3 4.8,0.5 6.7,1.8 1,0.7 1.8,1.5 2.6,2.5 0.6,0.6 1.5,0.6 2.3,0.9 2.3,0.4 4.3,1.3 6.2,2.5 1.3,0.8 2.4,2.2 4,2.4 1.9,0.3 3.6,0.9 5.3,1.9 2,1.3 3.8,2.9 6.2,3.3 4.8,0.5 8.8,3.2 12.6,5.9 2.2,1.3 4.8,2.8 7.5,1.9 0.8,-0.3 1.4,-1 1.6,-1.7 0.2,-1.8 -0.9,-3.2 -2,-4.5 -2.3,-2.7 -6.3,-5 -5.8,-8.9 0.7,-2.9 3.9,-4.6 6.4,-5.4 1.4,-0.5 3.1,-0.3 4.3,-1.5 0.6,-0.4 0.9,-1.8 1.9,-1.3 0.8,0.5 0.9,1.5 1,2.4 0.4,2.8 -0.2,5.6 -2.8,7.2 -1.2,0.8 -2.5,1.1 -3.9,1.4 2.1,1.7 4.2,3.8 5.4,6.2 0.7,1.4 1.1,2.6 1.2,4.2 -0.1,3 -1.9,5.6 -4.5,7.1 -1.5,0.8 -3.2,1.1 -5,1.1 -0.7,0 -1.3,-0.2 -1.9,-0.2 0.3,1.4 0.3,3.3 0,4.9 -0.1,0.8 -0.6,1.7 -0.6,2.7 0.4,0.5 1,0.5 1.5,0.5 1.3,0 2.9,-0.1 3.6,1.3 0.6,1.3 0.9,2.8 1.4,4.1 0.2,0.2 0.3,0.7 0.6,0.6 0.9,-0.8 1.8,-1.9 3.1,-1.6 1.2,0.8 2.4,1.7 3.6,2.6 0.3,0.3 0.4,0.7 0.5,1.2 1,0.4 2.3,1.1 2.6,2.3 0.2,0.8 0.1,1.6 0.3,2.3 0.3,0.8 1.1,1.8 0.5,2.8 l -0.4,0.3 -3.8,1.2 c -0.3,0 -0.6,-0.2 -0.9,-0.5 -2,-0.1 -4.4,0.5 -6,-0.9 -0.7,-0.6 -1.2,-1.3 -1.7,-2.1 -1.2,0.6 -2.9,1 -4.1,0.2 -2.5,-1.9 -5,-3.8 -8.4,-3.7 -1.5,0.3 -3.3,0.7 -4.8,0.1 -1.4,-1 -3,-1.5 -4.1,-3 -1.6,-1.7 -1.6,-3.7 -2.2,-5.8 -2.2,0.5 -4.6,0.2 -6.8,0.1 -1.8,-0.1 -3.5,0.2 -5.2,0.6 -2.1,0.4 -4.4,0.6 -6.6,0.5 l -1.1,0.8 c 0.5,0.1 1,0.1 1.4,0.5 l 0.4,0.4 c 1.8,0.2 3.9,-0.1 5.6,0.3 0.4,0.1 0.8,0.5 1,0.9 0.2,0.5 0.2,1.1 -0.1,1.5 -0.9,1.2 -1.4,2.6 -2.6,3.6 -0.3,0.4 -1.2,-0.1 -1.3,0.6 -0.4,1.8 -2.1,3.3 -3.8,3.7 -0.7,0.1 -1.5,0 -2.1,-0.2 -2.1,-0.7 -4.2,-1.3 -6.3,-1.9 -0.7,-0.2 -1.3,-0.9 -1.9,-1.3 -0.9,0 -2.2,0.3 -2.8,-0.5 -0.3,-0.2 -0.6,-0.9 -0.7,-1.2 -0.7,-0.9 -1.2,-2.5 -1.5,-3.9"
       id="path8" /><path
       fill-rule="evenodd"
       clip-rule="evenodd"
       fill="#d2003c"
       d="m 179.01195,128.90597 c 0.6,1.5 0.6,3.5 0.2,5.1 -0.1,0.1 -0.2,0.1 -0.3,0 -0.3,-1.4 -0.6,-2.8 -1.1,-4.2 -0.3,-0.8 -1.3,-1.5 -0.9,-2.4 0.2,-0.2 0.6,-0.2 0.9,-0.1 0.5,0.5 0.8,1 1.2,1.6 m 16,14 c 1.1,1.3 1.9,2.7 1.5,4.4 -0.2,0.3 -0.1,0.9 -0.6,1 -0.2,0.1 -0.4,-0.1 -0.4,-0.3 -0.1,-0.9 -0.1,-1.9 -0.6,-2.6 -0.6,-0.6 -1.3,-1.8 -2.3,-1.8 -0.7,0.2 -1.2,1 -1.6,1.5 0,0.1 -0.1,0.1 -0.2,0 -0.4,-1 0.4,-1.8 0.7,-2.6 0.6,-0.6 0.5,-2.3 1.8,-1.8 0.9,0.6 1.1,1.6 1.7,2.2 m -2.1,11.9 c 0.1,0.6 0.1,1.5 -0.5,1.9 -0.6,0.2 -1.4,0.3 -2.1,0.2 -0.2,-0.1 -0.4,-0.2 -0.3,-0.4 0.3,-0.9 1.2,-1.9 2.2,-2.1 0.2,0 0.6,0 0.7,0.4 m -73,-36.5 c 2.4,0.6 5,0.6 6.8,2.5 1,1.2 1.1,3.3 0.3,4.5 -1.4,2.4 -4.2,3.6 -5.9,5.7 -1.7,1.4 -2.3,3.6 -1.8,5.8 0.6,1.9 2.5,3.2 4.4,3.3 3,0.1 5.2,-1.4 7.6,-2.8 2.4,-1.7 4.6,-3.9 7.3,-4.6 1.8,-0.6 3.8,-0.3 5.6,-1 1.9,-0.4 3.4,-2 4.9,-3.4 1.7,-1.4 3.7,-2.2 5.9,-2.1 2,0.3 3.1,-1.5 4.5,-2.7 2.3,-2.1 5.3,-2.3 8,-3.5 1.9,-0.6 3.4,-2 5.2,-2.9 1.7,-0.7 4,-0.9 5.7,-0.2 1.1,0.5 2.3,1 3.3,1.8 l 8.1,6.8 c 0.1,0.3 0.4,0.5 0.6,0.6 2.3,2.8 4.7,5.5 6.6,8.6 0.6,1.1 0.9,2.2 1.2,3.4 0.4,4.6 1.6,8.6 3.1,12.6 0.4,0.6 1.2,1.1 1.6,1.7 1.3,1.8 2.1,4.1 4.2,5.3 l 1.2,0.6 c 0.1,0.1 0.1,0.3 0,0.4 l -0.2,0.2 c -2.5,0.4 -4.4,-1.1 -5.7,-2.9 -0.8,-1.6 -1.9,-3.3 -3.7,-4 -0.1,0 -0.2,0.1 -0.2,0.1 0.2,0.6 0.8,1 1,1.5 0.7,1.1 1.3,2.3 1.6,3.5 0.4,1.3 1.8,2.2 2.9,2.9 l 1.6,0.8 c 0.2,0.1 0.3,0.4 0.1,0.6 l -0.2,0.1 c -2.7,0.1 -5.1,-0.8 -7,-2.8 -0.4,-0.5 -1,-0.9 -1.7,-0.9 -1.2,1.1 -2.4,2.1 -4,2.2 -1.7,-0.3 -3.5,-0.3 -5,0.3 -1.4,0.5 -2.8,1.1 -4.3,1.1 -0.7,0 -1.5,-0.3 -1.8,-1 0,-0.9 -0.6,-1.9 -0.1,-2.8 l 1,-1.5 c 0,-0.2 -0.1,-0.4 -0.3,-0.4 -0.4,-0.1 -1.1,0.6 -1.3,-0.1 0.1,-1.5 1.6,-2.5 2.6,-3.5 0.2,-1.2 0.7,-2.3 1.6,-3.3 0,-0.1 -0.1,-0.3 -0.3,-0.3 -1.3,0.2 -2.6,0.5 -4,0.5 -1.1,0.6 -2.5,1 -3.8,0.6 -0.3,-0.2 -0.2,-0.5 -0.1,-0.7 1.4,-1.9 1.9,-4.3 1.5,-6.6 -0.1,-0.1 -0.1,-0.3 -0.3,-0.3 -0.2,0 -0.2,0.2 -0.3,0.3 -0.3,2.2 -1,3.9 -2.2,5.8 -0.9,0.9 -2.3,0.9 -3.5,1.2 -0.3,0.1 -0.6,0.4 -0.6,0.7 0,0.8 0.5,1.3 0.8,2 l 2.6,4.8 c 0.1,1.3 -0.5,2.6 -0.8,3.8 0.1,0.2 0.3,0.1 0.5,0 0.9,-0.8 1.5,-1.9 1.9,-3.1 0.1,-0.5 -0.1,-1.1 -0.3,-1.5 l -2.7,-5.4 c 0.2,-0.3 0.6,-0.3 0.9,-0.4 0.6,0 1.2,0.3 1.8,0.5 0.6,1.6 1.3,3.3 2.4,4.7 0.2,0.9 0.5,2.1 -0.1,2.8 -0.6,1.2 -1.2,2.2 -2,3.3 -0.7,0.7 -1.7,0.6 -2.7,0.7 h -0.3 c -2.4,1.3 -4.9,2.1 -7.5,2.9 -1.1,0.5 -2.4,0.1 -3.3,-0.6 -0.9,-0.7 -1.3,-1.7 -1.9,-2.6 -0.7,-0.9 -1.8,-0.1 -2.6,-0.6 -0.7,-1.1 -1.4,-2.2 -2,-3.4 0,-0.3 0,-0.6 0.3,-0.8 0.9,-0.3 1.9,-0.3 2.9,-0.4 0.9,-0.1 1.9,0.1 2.5,0.7 1.2,1.4 1.7,3.3 3.5,4.2 1.4,0.1 2.6,-0.3 3.8,-0.9 0.7,-0.4 1.5,-1 1.5,-1.9 -0.1,-1.8 -1.3,-3.2 -2.8,-4.2 -1.5,-0.8 -3.1,-1.9 -4.2,-3.3 -0.6,-0.8 -0.7,-1.7 -1,-2.5 -0.1,-0.2 -0.5,-0.2 -0.6,-0.1 -0.6,0.5 -0.1,1.4 -0.1,2 0.1,0.4 0.3,0.9 0.1,1.2 -0.9,0.7 -2.1,0.3 -3.2,0.4 -2.2,-0.1 -4.3,-1 -6.6,-0.8 -2.2,0.1 -5.2,1.6 -6.8,-0.6 -0.8,-2.1 -0.6,-4.6 -0.2,-6.7 0,-0.2 -0.2,-0.4 -0.4,-0.4 -0.2,-0.1 -0.4,0 -0.5,0.2 -0.6,2.1 -0.7,4.4 -1.2,6.6 -0.8,1.9 -2.2,3.9 -4.1,4.9 -1.7,0.9 -3.7,1.2 -5.8,1.4 -3.8,0.1 -7.3,0.8 -9.7,4.1 -0.2,0.3 -0.5,0.6 -0.4,1 0.1,0.1 0.4,0.2 0.5,0.1 2.6,-2.9 5.9,-4.1 9.7,-3.9 3.6,0 7.2,-0.6 9.5,-3.7 0.6,-0.7 1,-1.4 1.5,-2.2 0.4,0 0.7,0.5 1,0.7 0.1,1.1 -0.8,1.8 -1.2,2.7 -0.5,1 -1,2.2 -2,2.8 -1.2,0.3 -2.2,1.1 -3.3,1.7 -1.1,0.5 -2.5,0.7 -3.8,0.4 -1.6,-0.3 -3.8,-0.7 -5.4,0 -0.8,0.5 -1.5,1.4 -2.3,1.9 -1.1,0.5 -2.1,1.4 -3.4,1.3 -0.9,-0.2 -2,-0.8 -2.8,0 -1,0.9 -1.2,2.5 -2.5,3.1 -1.5,0.8 -3.1,0 -4.6,-0.1 0.2,-1.5 0.4,-2.9 1.4,-4 0.6,-0.1 1.1,-0.2 1.6,-0.6 0.6,-0.5 1,-1.2 1.4,-1.9 1.3,-0.8 2.8,-1.4 3.6,-2.8 0.6,-1.3 0.6,-2.5 1.6,-3.7 l 0.5,-0.2 2.7,-0.2 c 1.1,-0.5 2.1,-1 3.1,-1.8 0.3,-0.3 0.4,-0.8 0.3,-1.3 -0.5,-1.3 -0.9,-2.2 -1.2,-3.6 -0.3,-1.4 -0.1,-2.8 -0.3,-4.4 -0.1,-0.1 -0.2,-0.4 -0.4,-0.4 -1.8,0.4 -3.5,0.9 -5.5,0.6 -2.7,-0.3 -5.5,-2.1 -6.5,-4.8 -0.9,-2.3 -0.7,-5.6 1,-7.5 1.6,-2 3.6,-3.5 5.6,-5.2 0.3,-0.2 0.3,-0.6 0.4,-0.9 0,-0.4 -0.4,-0.7 -0.7,-0.9 -1.2,-0.3 -2.6,0.1 -3.8,-0.4 -2.1,-0.7 -3.7,-2.7 -4,-4.9 -0.1,-1 0.1,-1.8 0.6,-2.6 1.6,1.4 2.8,2.6 4.3,3 m -6,44.7 v 0.3 c -0.5,1.2 -0.8,2.6 -1.2,4 -0.9,-0.1 -1.7,-0.4 -2.4,-0.7 -0.2,-0.2 0,-0.4 0,-0.6 0.9,-0.8 0.6,-1.8 0.8,-2.9 0.1,-0.6 0.7,-1.1 1.3,-1.4 0.7,0.1 1.1,0.8 1.5,1.3 m 4.4,-4.2 c -0.5,1 -1.2,2.2 -2.3,2.8 -0.4,0.1 -0.9,0.1 -1.3,-0.1 -0.2,-0.2 -0.6,-0.4 -0.6,-0.8 0.1,-0.4 -0.1,-0.9 0.3,-1.1 0.8,-0.5 1.6,-1 2.4,-1.7 0.2,-0.1 0.6,-0.2 0.7,0 0.4,0.3 0.7,0.5 0.8,0.9 m 50.1,-0.4 c 0.1,0.4 0.7,0.9 0.3,1.3 -0.8,0.6 -1.7,1 -2.8,0.9 -0.8,-0.6 -0.7,-1.7 -1.4,-2.5 -0.2,-0.6 -1.1,-0.6 -0.9,-1.2 l 0.3,-0.2 c 1.1,0 2.2,0 3.3,-0.2 1.1,-0.1 0.8,1.2 1.2,1.9"
       id="path9" /><path
       fill-rule="evenodd"
       clip-rule="evenodd"
       fill="#d2003c"
       d="m 231.61195,142.10597 c 0.6,0.8 1.1,1.6 1.5,2.6 0.1,0.2 0,0.4 -0.1,0.6 -0.1,0.2 -0.3,0.4 -0.6,0.2 -0.7,-0.2 -0.6,-1.3 -1.5,-1.2 -0.6,0 -1,0.5 -1.5,0.8 -0.9,0.8 -2.1,1.6 -2.3,2.8 -0.2,0.4 -0.1,1.1 -0.5,1.3 -0.2,0.1 -0.5,-0.1 -0.5,-0.3 -0.1,-1.6 0.4,-3.1 1.5,-4.2 1.1,-0.9 1.9,-2.2 2.8,-3.3 0.6,-0.1 1,0.3 1.2,0.7 m 0.4,13.3 c 0.2,0.4 0.6,0.9 0.3,1.4 -0.4,0.3 -1.1,0.1 -1.6,0.1 -0.6,-0.3 -0.8,-1.1 -0.8,-1.8 0,-0.2 0,-0.3 0.2,-0.5 0.7,0 1.4,0.2 1.9,0.8 m 15,-30.6 c 0.3,0.4 0,0.8 -0.2,1.1 -1.4,1.3 -3.1,2.7 -4.1,4.3 -0.4,0.5 -0.7,1.1 -0.9,1.7 0,0.1 -0.1,0.1 -0.2,0.1 -0.3,-0.8 0.1,-1.7 0.3,-2.5 0.7,-1.9 2.3,-3.7 4,-5 0.2,-0.1 0.9,-0.2 1.1,0.3 m 5.7,-6.4 c 1.1,0.7 1.5,2.2 2.8,2.5 2.2,0.5 4.4,1 6.4,2 1.4,0.7 2.7,1.7 4,2.8 1.2,0.6 2.7,0.6 4,1 1.9,0.5 3.4,1.9 5.1,3 2.2,1.7 5.3,1.5 7.8,2.6 4,1.3 7.2,4.4 10.9,6.2 1.9,1 4.8,1.4 6.7,0.3 1.3,-0.9 2.1,-2.1 1.8,-3.8 -0.7,-4.1 -5.2,-6.2 -7.3,-9.6 -0.4,-0.8 -0.7,-1.9 -0.5,-2.8 0.8,-2 2.9,-3.1 4.7,-3.8 1.4,-0.7 3.2,-0.5 4.5,-1.3 0.5,-0.3 0.9,-0.7 1.2,-1 0.3,0 0.3,0.3 0.4,0.5 0.4,2.4 0,4.9 -2.1,6.3 -0.8,0.6 -1.8,0.8 -2.7,1 -0.8,0.3 -2.4,-0.3 -2.3,1.1 0.2,0.7 0.8,1.1 1.3,1.6 2.8,2.3 5.4,5.3 5.7,8.9 0.1,2.8 -1.8,5.2 -4.2,6.4 -1.8,0.7 -4,1 -5.9,0.5 -0.5,-0.1 -1.3,-0.6 -1.7,0.1 -0.1,0.8 0.4,1.4 0.4,2.1 0.2,1.3 0.2,3 -0.2,4.3 -0.2,1 -1.2,2.2 -0.3,3.2 0.9,1.4 2.7,1 4.2,1.2 0.8,0.1 1.1,1 1.3,1.6 0.3,0.8 0.3,1.7 0.6,2.3 0,1.5 1.7,2.1 2.5,3.1 1,1.1 1.9,3 3.6,2.9 0.6,1.2 0.9,2.3 1.1,3.7 l -0.2,0.2 c -1.4,0 -3.3,0.4 -4.3,-0.6 -1.2,-0.8 -1.6,-3 -3.4,-2.4 -0.8,0.6 -1.9,0.8 -2.8,0.4 -0.9,-0.3 -1.5,-1.1 -2.3,-1.6 -2.4,-1.8 -5.6,-2.7 -8.7,-2 -1.8,0.5 -3.2,-0.8 -4.6,-1.6 -1.9,-0.8 -2.4,-2.8 -2.8,-4.5 l -0.3,-2.1 c 0,-0.2 0.2,-0.4 0.4,-0.5 h 0.3 c 1.1,2.5 3.2,5.3 5.9,6.2 2.5,1 4.8,-0.3 7.5,0.2 2.5,0.3 4.5,1.9 6.4,3.4 0.2,0 0.3,-0.1 0.4,-0.3 v -0.2 c -2.3,-2.9 -5.5,-4.4 -9.2,-4.1 -3.1,0.6 -6.1,-0.4 -7.9,-3 -1,-1.5 -1.7,-3.1 -2,-4.8 -0.3,-2 -0.7,-4.2 -1.4,-6 -0.2,-0.1 -0.4,-0.3 -0.6,-0.2 l -0.2,0.3 c 0.3,1.9 0.9,4.2 0.2,6.2 -0.5,1.6 -2.1,2.2 -3.6,2.3 -1.5,0.1 -2.9,-0.2 -4.5,-0.2 -3.6,-0.1 -6.8,1.3 -10.5,1 0.3,-0.9 0.9,-1.8 0.6,-2.8 -0.1,-0.2 -0.4,-0.2 -0.6,-0.2 -0.7,0.4 -0.6,1.3 -1,1.9 -0.8,1.3 -2.3,2.5 -3.8,2.8 -1.1,0.8 -2.1,1.9 -3,2.9 -0.3,0.3 -0.3,0.9 -0.2,1.3 0.7,1.8 2.8,2 4.4,2.5 0.8,0.1 1.5,-0.2 1.9,-0.9 0.7,-1.1 0.8,-2.9 2.4,-3.1 h 3.5 c 0.3,0.1 0.5,0.3 0.7,0.6 l -0.1,0.5 c -0.8,0.9 -1.1,2.2 -2.1,2.8 -0.6,0.2 -1.3,0 -1.7,0.5 -0.2,1.2 -0.5,2.5 -1.7,3.1 -0.9,0.8 -2.2,0.4 -3.2,0.1 -1.9,-0.7 -3.8,-1.1 -5.7,-1.7 -0.8,-0.2 -1.1,-1.2 -2,-1.4 -0.8,-0.2 -1.7,0.4 -2.4,-0.3 -0.4,-0.9 -0.6,-1.5 -0.8,-2.5 -0.3,-0.6 -0.5,-1.3 -0.6,-2 -0.1,-0.6 0,-1 0.2,-1.5 l 2.6,-4.7 c 0.2,-0.3 0.4,-0.6 0.7,-0.7 0.6,0.1 1.3,0.4 1.9,0.7 l -0.1,0.3 -2.7,4.1 c -0.6,1.3 0,2.8 0.6,3.9 0.1,0.1 0.2,0.3 0.3,0.2 -0.1,-0.8 -0.2,-1.6 0,-2.5 0.2,-0.8 0.7,-1.5 1.1,-2.2 l 2.1,-3.1 c 0.2,-0.5 0.2,-1.3 -0.2,-1.8 -0.9,-0.9 -2.2,-1.2 -3,-2.4 -1.7,-2.3 -1.9,-5 -2.1,-7.9 0,-0.2 -0.2,-0.5 -0.5,-0.6 -0.2,-0.1 -0.4,0.2 -0.5,0.3 -0.5,1.9 -0.2,4.2 0.3,5.9 0.3,1.3 0.9,2.6 1.5,3.8 0.1,0.2 -0.1,0.5 -0.3,0.6 -1.4,0.1 -2.8,0 -4.1,-0.2 -1.8,-0.3 -3.1,-1.7 -4.6,-2.8 -0.2,-0.1 -0.3,0.1 -0.4,0.2 0.4,2 2.6,3.2 3.3,5 0.4,1.5 1.9,2.6 2.2,4.2 0,0.2 -0.2,0.5 -0.4,0.6 -0.5,0.1 -1,-0.2 -1.5,0.1 -0.1,0.9 0.5,1.8 0.1,2.6 -0.5,0.8 -1.2,1.7 -2.1,1.7 -1.8,-0.6 -3.6,-1.4 -5.4,-1.9 -1.3,-0.1 -2.6,0.1 -3.8,0.2 -1.2,-0.2 -2,-1.3 -2.9,-1.9 -0.3,-0.1 -0.6,-0.1 -0.8,0.1 -2,2 -4.2,4.2 -7.2,4.1 -0.2,0 -0.3,-0.2 -0.3,-0.4 v -0.2 c 1.3,-1.2 2.9,-2.4 3.5,-4.1 0.4,-1.4 1.6,-2.4 2.1,-3.7 0.1,-0.2 -0.1,-0.3 -0.3,-0.4 l -0.3,0.2 c -1.5,1.5 -2.6,3.2 -3.7,4.8 -1.1,1.1 -2.7,1.8 -4.4,1.4 -0.2,-0.1 -0.2,-0.4 -0.1,-0.6 6.2,-3.8 6.9,-10.6 8.6,-16.8 1.2,-4.1 2.1,-8.3 5.3,-11.6 4.8,-5.3 10.8,-8.4 16.1,-13 0.8,-0.7 1.6,-1.4 2.6,-1.4 2.6,-0.2 4.6,0.8 6.4,2.3 m 57.1,44.2 c 0.5,0.7 0.3,1.8 0.5,2.6 0.1,0.6 0.9,1.1 0.5,1.7 l -2.2,0.7 c -0.4,0 -0.2,-0.5 -0.4,-0.7 -0.2,-1.3 -0.5,-2.2 -0.9,-3.4 -0.1,-0.7 0.6,-1.2 1.1,-1.6 0.5,-0.2 0.9,0.4 1.4,0.7 m -5.1,-4.5 c 0.8,0.7 1.9,1.2 2.5,2.1 0.1,0.4 -0.2,0.8 -0.4,1.1 -0.3,0.3 -0.7,0.5 -1.2,0.5 -0.5,0 -0.9,-0.3 -1.2,-0.7 -0.5,-0.8 -1.2,-1.5 -1.4,-2.3 0.3,-0.5 1,-1.3 1.7,-0.7 m -48.2,-0.8 c -0.1,1 -0.4,1.9 -0.8,2.8 -0.3,0.6 -1.2,0.4 -1.8,0.3 -0.6,-0.2 -1.6,-0.3 -1.7,-1.2 -0.1,-0.8 0.3,-1.6 0.7,-2.2 0.9,-0.1 2,0.1 2.9,-0.1 0.4,0 0.7,0.1 0.7,0.4"
       id="path10" /><polygon
       fill="#d2003c"
       points="23.2,196.7 33.9,196.7 33.9,193.8 20,193.8 20,219.5 33.9,219.5 33.9,216.6 23.2,216.6 23.2,206.8 33.5,206.8 33.5,203.9 23.2,203.9 "
       id="polygon10"
       transform="translate(30.611947,0.10597375)" /><polygon
       fill="#d2003c"
       points="70.1,193.8 66.9,193.8 66.9,212.8 47.5,192.5 47.5,219.5 50.7,219.5 50.7,200.3 70.1,220.6 "
       id="polygon11"
       transform="translate(30.611947,0.10597375)" /><polygon
       fill="#d2003c"
       points="87.1,196.7 97.7,196.7 97.7,193.8 83.9,193.8 83.9,219.5 97.7,219.5 97.7,216.6 87.1,216.6 87.1,206.8 97.4,206.8 97.4,203.9 87.1,203.9 "
       id="polygon12"
       transform="translate(30.611947,0.10597375)" /><path
       fill="#d2003c"
       d="m 149.31195,208.40597 c 3.7,-0.4 6.2,-3.5 6.2,-7.2 0,-2.5 -1.2,-4.9 -3.4,-6.2 -2,-1.2 -4.5,-1.2 -6.8,-1.2 h -3.9 v 25.8 h 3.2 v -10.9 h 1.3 l 7.6,10.9 h 3.9 z m -4.7,-11.7 h 0.9 c 3.2,0 7,0.6 7,4.6 0,4.1 -3.6,4.7 -6.8,4.7 h -1 v -9.3 z"
       id="path12" /><path
       fill="#d2003c"
       d="m 180.51195,206.60597 v 2.9 h 6.7 c -0.1,4.2 -4.4,7.6 -8.4,7.6 -5.6,0 -10,-5.1 -10,-10.5 0,-5.8 4.5,-10.5 10.3,-10.5 3.2,0 6.3,1.7 8.1,4.2 l 2.3,-2.2 c -2.5,-3.2 -6.5,-5 -10.5,-5 -7.4,0 -13.4,6.1 -13.4,13.5 0,7.1 5.8,13.4 13,13.4 7.2,0 12.2,-5.4 12.2,-12.5 v -1 h -10.3 z"
       id="path13" /><polygon
       fill="#d2003c"
       points="181,219.5 181,208.3 189.4,193.8 185.7,193.8 179.4,204.8 173,193.8 169.3,193.8 177.8,208.3 177.8,219.5 "
       id="polygon13"
       transform="translate(30.611947,0.10597375)" /><path
       fill="#d2003c"
       d="m 242.11195,219.60597 h 5.2 c 8.1,0 14.6,-4.2 14.6,-13 0,-8.6 -6.6,-12.8 -14.5,-12.8 h -5.3 z m 3.2,-22.8 h 1.1 c 6.6,0 12.2,2.4 12.2,10 0,7.5 -5.7,9.9 -12.2,9.9 h -1.1 z"
       id="path14" /><path
       fill="#d2003c"
       d="m 282.01195,208.40597 c 3.7,-0.4 6.2,-3.5 6.2,-7.2 0,-2.5 -1.2,-4.9 -3.4,-6.2 -2,-1.2 -4.5,-1.2 -6.8,-1.2 h -3.9 v 25.8 h 3.2 v -10.9 h 1.3 l 7.6,10.9 h 3.9 z m -4.7,-11.7 h 0.9 c 3.2,0 7,0.6 7,4.6 0,4.1 -3.6,4.7 -6.8,4.7 h -1 v -9.3 z"
       id="path15" /><rect
       x="300.21194"
       y="193.90598"
       fill="#d2003c"
       width="3.2"
       height="25.799999"
       id="rect15" /><polygon
       fill="#d2003c"
       points="308.2,193.8 305,193.8 305,212.8 285.7,192.5 285.7,219.5 288.9,219.5 288.9,200.3 308.2,220.6 "
       id="polygon15"
       transform="translate(30.611947,0.10597375)" /><polygon
       fill="#d2003c"
       points="339.7,219.5 327.9,205.3 339.5,193.8 335.3,193.8 324.4,204.9 324.4,193.8 321.2,193.8 321.2,219.5 324.4,219.5 324.4,208.8 325.7,207.5 335.4,219.5 "
       id="polygon16"
       transform="translate(30.611947,0.10597375)" /></g><path
     fill="#d2003c"
     d="m 415.31157,1.1059737 c 1.8,0 3.3,0.6 4.5,1.9000001 1.2,1.1999999 1.9,2.7999999 1.9,4.5 0,1.8 -0.6,3.3000002 -1.9,4.5000002 -1.2,1.3 -2.8,1.9 -4.5,1.9 -1.8,0 -3.3,-0.6 -4.6,-1.9 -1.2,-1.2 -1.9,-2.8000002 -1.9,-4.5000002 0,-1.8 0.6,-3.3 1.9,-4.5 1.3,-1.2 2.8,-1.9 4.6,-1.9 m 7.5,6.4 c 0,-2 -0.7,-3.8 -2.2,-5.3 -1.5,-1.40000005 -3.2,-2.20000005 -5.3,-2.20000005 -2.1,0 -3.8,0.7 -5.3,2.20000005 -1.5,1.5 -2.2,3.2 -2.2,5.3 0,2.1 0.7,3.8000002 2.2,5.3000002 1.5,1.5 3.2,2.2 5.3,2.2 2.1,0 3.8,-0.7 5.3,-2.2 1.4,-1.4 2.2,-3.2000002 2.2,-5.3000003 m -5.5,-1.6 c 0,0.6 -0.3,1.1 -0.9,1.3 -0.3,0.1 -0.8,0.2 -1.4,0.2 h -1.3 v -3 h 1.2 c 0.8,0 1.4,0.1 1.8,0.3 0.4,0.3 0.6,0.6 0.6,1.2 m -5,-2.5 v 8.2000003 h 1.4 V 8.4059738 h 1.1 c 0.8,0 1.3,0.1 1.6,0.3 0.5,0.3 0.8,0.9 0.8,1.9000002 v 0.6 0.2 c 0,0 0,0.1 0,0.1 0,0 0,0.1 0,0.1 h 1.4 l -0.1,-0.1 c 0,-0.1 -0.1,-0.2 -0.1,-0.4 0,-0.2 0,-0.4 0,-0.6 V 9.9059738 c 0,-0.4 -0.2,-0.8 -0.4,-1.3 -0.3,-0.4 -0.8,-0.7000001 -1.4,-0.8 0.5,-0.1 0.9,-0.2 1.2,-0.4000001 0.5,-0.2999999 0.8,-0.9 0.8,-1.6 0,-1 -0.4,-1.7 -1.3,-2.1 -0.5,-0.2 -1.2,-0.3 -2.3,-0.3 z"
     id="path16" /></g>

</svg>
