<?xml version="1.0" encoding="UTF-8" standalone="no"?>
<svg
   version="1.0"
   width="2190.688pt"
   height="1095.344pt"
   viewBox="0 0 2190.688 1095.344"
   preserveAspectRatio="xMidYMid"
   id="svg84"
   xmlns="http://www.w3.org/2000/svg"
   xmlns:svg="http://www.w3.org/2000/svg">
  <defs
     id="defs88" />
  <g
     transform="matrix(0.1,0,0,-0.1,61.051328,1281.9001)"
     fill="#000000"
     stroke="none"
     id="g82">
    <path
       d="m 9706,12455 c -346,-201 -633,-368 -637,-372 -11,-11 1249,-738 1276,-738 26,1 1286,728 1277,737 -12,11 -1273,738 -1280,737 -4,0 -290,-164 -636,-364 z"
       id="path46" />
    <path
       d="m 8176,11571 c -285,-165 -530,-310 -543,-323 -14,-13 -32,-36 -40,-52 -21,-40 -14,-134 13,-170 13,-18 450,-275 1279,-753 692,-399 1264,-727 1272,-730 12,-5 13,98 11,668 l -3,674 -24,58 c -15,38 -43,80 -80,118 -50,53 -125,99 -699,429 -353,204 -648,373 -655,375 -6,3 -245,-130 -531,-294 z"
       id="path48" />
    <path
       d="m 11335,11496 c -676,-390 -721,-420 -767,-509 -47,-93 -48,-102 -48,-796 0,-518 3,-652 13,-648 6,3 579,332 1272,731 1205,694 1261,727 1283,767 37,70 25,157 -29,206 -20,18 -1029,606 -1063,619 -6,2 -304,-164 -661,-370 z"
       id="path50" />
    <path
       d="m 7230,10237 c 0,-543 1,-578 20,-653 48,-187 159,-348 310,-450 48,-33 2572,-1492 2597,-1501 12,-5 14,67 10,558 -4,604 -4,601 -58,749 -51,138 -187,307 -312,388 -61,40 -2556,1482 -2563,1482 -2,0 -4,-258 -4,-573 z"
       id="path52" />
    <path
       d="m 12175,10075 c -698,-404 -1301,-758 -1338,-787 -130,-100 -230,-251 -284,-423 l -27,-90 -4,-572 c -2,-315 0,-573 3,-573 16,0 2597,1497 2645,1534 127,99 231,262 270,426 19,80 20,117 20,653 0,312 -3,567 -7,566 -5,0 -579,-331 -1278,-734 z"
       id="path54" />
    <path
       d="m 7232,8308 3,-603 28,-80 c 52,-147 157,-292 276,-379 54,-40 2608,-1516 2622,-1516 7,0 9,200 7,563 -4,544 -5,565 -26,642 -53,191 -157,348 -302,460 -30,23 -626,372 -1325,775 -698,403 -1274,734 -1278,737 -4,3 -6,-267 -5,-599 z"
       id="path56" />
    <path
       d="m 12180,8174 c -701,-405 -1295,-751 -1320,-769 -117,-86 -227,-230 -279,-365 -57,-147 -61,-198 -61,-782 0,-501 1,-530 18,-524 9,4 600,343 1312,754 l 1295,747 85,85 c 89,89 135,157 177,260 52,129 53,155 51,765 l -3,565 z"
       id="path58" />
    <path
       d="m 2410,3805 c -150,-30 -260,-84 -345,-170 -104,-104 -155,-231 -155,-386 1,-261 116,-409 393,-503 43,-15 153,-44 245,-66 182,-42 266,-70 306,-101 88,-69 69,-211 -34,-269 -41,-23 -56,-25 -160,-25 -104,0 -120,2 -165,26 -69,35 -104,88 -118,178 l -11,71 h -250 -249 l 6,-97 c 23,-372 230,-560 651,-592 304,-23 548,39 697,177 73,67 115,132 147,230 34,101 37,281 8,381 -49,162 -181,276 -406,349 -36,12 -144,40 -240,62 -279,64 -337,102 -328,217 4,42 11,60 34,84 45,47 87,61 190,61 101,0 160,-19 201,-63 26,-29 53,-100 53,-140 v -29 l 243,2 242,3 -4,60 c -4,81 -35,196 -68,258 -72,135 -227,239 -414,277 -112,23 -365,26 -469,5 z"
       id="path60" />
    <path
       d="m 4118,3805 c -185,-29 -316,-92 -414,-197 -100,-109 -146,-239 -148,-423 l -1,-110 h 245 245 l 6,85 c 8,125 40,180 129,219 96,42 247,35 323,-15 75,-49 100,-168 52,-249 -22,-38 -84,-88 -150,-122 -11,-6 -104,-45 -206,-86 -380,-154 -517,-244 -596,-394 -53,-98 -63,-161 -63,-400 v -213 h 760 760 v 225 225 h -475 c -520,0 -503,-2 -447,57 43,46 107,79 326,167 239,96 342,155 441,251 114,111 165,233 165,402 0,107 -14,171 -57,263 -61,129 -179,225 -341,280 -143,47 -377,62 -554,35 z"
       id="path62" />
    <path
       d="m 5705,3800 c -239,-51 -406,-199 -460,-407 -8,-31 -15,-98 -15,-148 0,-220 84,-358 275,-450 90,-44 195,-76 440,-134 150,-35 230,-72 262,-120 49,-72 15,-186 -67,-231 -60,-32 -199,-40 -284,-16 -99,29 -166,123 -166,233 v 33 h -251 -252 l 6,-97 c 11,-181 62,-308 162,-408 110,-110 261,-167 489,-184 304,-23 548,39 697,177 73,67 115,132 147,230 21,65 25,96 26,202 0,111 -3,133 -26,198 -45,125 -125,208 -265,276 -93,45 -168,69 -372,116 -187,43 -266,73 -306,116 -21,22 -25,37 -25,85 0,51 4,63 31,94 18,20 41,40 51,46 58,31 233,28 298,-6 46,-24 80,-77 93,-144 l 12,-61 h 237 238 v 58 c 0,74 -31,198 -67,265 -66,123 -201,221 -369,268 -116,32 -410,37 -539,9 z"
       id="path64" />
    <path
       d="m 12357,3653 c -3,-82 -11,-165 -17,-185 -17,-60 -38,-68 -172,-68 h -118 v -115 -115 h 145 145 v -393 c 0,-216 5,-429 10,-475 38,-301 145,-384 513,-399 l 157,-6 v 125 126 l -137,4 c -167,4 -217,23 -258,92 -38,64 -45,149 -45,554 v 372 h 220 220 v 115 115 h -220 -220 v 200 200 h -109 -108 z"
       id="path66" />
    <path
       d="m 7230,3766 c 0,-4 596,-1612 666,-1798 l 26,-68 h 127 128 l 338,923 c 186,507 340,928 343,935 3,10 -25,12 -133,10 l -137,-3 -266,-747 c -147,-411 -269,-744 -272,-742 -3,3 -127,339 -276,747 l -272,742 -136,3 c -75,1 -136,1 -136,-2 z"
       id="path68" />
    <path
       d="m 9490,3440 c -239,-24 -423,-130 -541,-313 -153,-237 -167,-662 -31,-921 74,-141 199,-245 359,-296 244,-78 564,-47 745,73 113,76 225,226 253,340 l 7,27 h -138 -139 l -18,-45 c -64,-156 -267,-245 -488,-215 -96,13 -148,31 -211,71 -98,63 -164,167 -192,302 -9,42 -16,83 -16,92 0,13 68,15 615,15 h 615 v 54 c 0,111 -22,261 -51,351 -66,207 -223,370 -413,431 -63,19 -250,48 -276,42 -3,0 -39,-4 -80,-8 z m 235,-224 c 75,-20 132,-52 184,-104 74,-75 115,-170 134,-304 l 6,-38 h -484 -484 l 5,33 c 36,215 158,361 347,412 67,18 227,19 292,1 z"
       id="path70" />
    <path
       d="m 11268,3439 c -69,-7 -149,-30 -203,-57 -92,-45 -195,-155 -240,-256 l -22,-50 -6,65 c -3,35 -9,108 -13,162 l -7,97 h -108 -109 v -750 -751 l 128,3 127,3 5,470 c 5,452 6,473 28,536 26,78 89,176 135,211 92,71 217,106 338,94 168,-15 274,-98 327,-254 14,-40 17,-122 22,-552 l 5,-505 128,-3 127,-3 v 516 c 0,580 -2,597 -70,741 -66,138 -189,234 -342,268 -87,19 -171,24 -250,15 z"
       id="path72" />
    <path
       d="m 16499,3440 c -178,-17 -325,-85 -444,-204 -93,-93 -140,-175 -181,-311 -35,-120 -45,-342 -20,-483 42,-241 159,-407 351,-498 91,-43 167,-63 289,-74 388,-34 681,129 791,439 l 14,41 h -138 -139 l -26,-54 c -84,-172 -301,-248 -551,-194 -195,42 -317,193 -349,431 l -5,37 h 616 616 l -6,138 c -11,261 -96,454 -262,592 -131,108 -339,160 -556,140 z m 302,-247 c 144,-67 231,-194 254,-370 l 7,-53 h -481 -481 v 21 c 0,41 32,145 62,201 37,70 110,145 176,181 83,45 144,57 277,54 110,-3 125,-5 186,-34 z"
       id="path74" />
    <path
       d="m 18030,3440 c -101,-10 -227,-48 -290,-88 -64,-41 -137,-123 -168,-190 -24,-51 -27,-69 -27,-167 0,-129 18,-181 88,-253 75,-78 203,-126 427,-162 254,-40 331,-58 399,-92 83,-41 106,-78 104,-160 -1,-75 -33,-133 -97,-175 -73,-50 -114,-58 -281,-58 -133,1 -157,3 -208,24 -112,44 -181,116 -213,224 l -18,57 h -138 -139 l 7,-37 c 21,-117 80,-241 147,-311 75,-78 203,-140 347,-169 103,-20 323,-20 425,1 278,58 437,245 423,498 -9,148 -69,237 -202,299 -81,37 -183,62 -401,99 -296,49 -364,75 -402,150 -13,24 -23,56 -23,70 0,83 56,162 143,201 47,22 65,24 202,24 131,0 157,-3 205,-23 97,-38 161,-109 180,-197 l 6,-30 132,-3 133,-3 -7,38 c -28,154 -131,292 -269,361 -121,60 -309,88 -485,72 z"
       id="path76" />
    <path
       d="m 15477,3394 c -164,-39 -277,-137 -334,-289 -12,-33 -22,-53 -23,-45 0,8 -7,80 -15,160 -8,80 -15,153 -15,163 0,15 -12,17 -105,17 h -105 v -750 -750 h 125 125 v 373 c 0,510 15,618 96,730 74,101 165,136 379,146 l 150,6 3,128 3,127 -113,-1 c -62,0 -139,-7 -171,-15 z"
       id="path78" />
    <path
       d="m 13223,2873 c 4,-585 4,-583 73,-729 100,-211 350,-316 619,-259 153,32 288,133 353,265 18,35 32,55 33,44 0,-10 6,-80 12,-154 l 12,-135 108,-3 107,-3 v 751 750 h -130 -130 v -437 c 0,-477 -4,-521 -57,-630 -40,-83 -133,-174 -208,-203 -80,-31 -224,-34 -305,-6 -75,26 -159,110 -188,188 -37,100 -42,168 -42,636 v 452 h -131 -130 z"
       id="path80" />
  </g>
</svg>
