<?xml version="1.0" encoding="UTF-8" standalone="no"?>
<svg
   width="708.65997"
   height="355.32999"
   version="1.0"
   id="svg20"
   xmlns="http://www.w3.org/2000/svg"
   xmlns:svg="http://www.w3.org/2000/svg">
  <defs
     id="defs2">
    <clipPath
       id="a">
      <path
         d="m 22.677,17.008 h 107.71 v 11.34 H 22.677 Z"
         id="path1" />
    </clipPath>
    <clipPath
       id="b">
      <path
         d="m 22.677,0 h 549.92 V 45.355 H 22.677 Z"
         id="path2" />
    </clipPath>
  </defs>
  <g
     transform="translate(-252.68,9.8080909)"
     id="g20">
    <g
       transform="matrix(6.5792,0,0,-6.5792,103.49,317.06)"
       fill="#ffffff"
       id="g19">
      <clipPath
         id="clipPath3">
        <path
           d="m 22.677,0 h 549.92 V 45.355 H 22.677 Z"
           id="path3" />
      </clipPath>
      <g
         clip-path="url(#b)"
         id="g18">
        <g
           fill="none"
           id="g17">
          <clipPath
             id="clipPath4">
            <path
               d="m 22.677,17.008 h 107.71 v 11.34 H 22.677 Z"
               id="path4" />
          </clipPath>
          <g
             clip-path="url(#a)"
             id="g16">
            <path
               d="m 22.677,17.008 h 34.02 v 11.34 h -34.02 z"
               fill="#ec1b24"
               id="path5" />
            <path
               d="m 42.703,23.546 h 3.678 v 2.912 h 1.732 v -2.912 h 3.678 l -2.96,2.912 h 2.196 l 3.78,-3.78 -3.78,-3.78 h -2.196 l 2.96,2.912 h -3.678 v -2.912 h -1.732 v 2.912 h -3.678 l 2.959,-2.912 h -2.195 l -3.78,3.78 3.78,3.78 h 2.195"
               fill="#ffffff"
               id="path6" />
            <g
               fill="#231f20"
               id="g15">
              <path
                 d="m 60.208,21.156 c -0.022,-1.957 1.623,-2.824 3.379,-2.824 2.157,0 3.302,1.089 3.302,2.546 0,1.8 -1.779,2.167 -2.357,2.311 -1.99,0.512 -2.367,0.59 -2.367,1.201 0,0.667 0.644,0.9 1.2,0.9 0.834,0 1.512,-0.244 1.567,-1.2 h 1.69 c 0,1.834 -1.523,2.556 -3.179,2.556 -1.434,0 -2.968,-0.778 -2.968,-2.401 0,-1.489 1.189,-1.945 2.368,-2.256 1.167,-0.311 2.356,-0.456 2.356,-1.311 0,-0.812 -0.934,-0.99 -1.545,-0.99 -0.934,0 -1.756,0.412 -1.756,1.468"
                 id="path7" />
              <path
                 d="m 69.711,25.101 h 1.634 c 0.622,0 1.2,-0.155 1.2,-0.911 0,-0.667 -0.456,-0.945 -1.067,-0.945 h -1.767 z m -1.745,-6.58 h 3.845 c 1.434,0 2.802,0.689 2.802,2.301 0,0.989 -0.49,1.734 -1.457,2.012 0.69,0.333 1.079,0.878 1.079,1.656 0,1.478 -1.023,1.967 -2.535,1.967 h -3.734 z m 1.745,3.535 h 1.9 c 0.745,0 1.256,-0.323 1.256,-1.134 0,-0.822 -0.6,-1.045 -1.289,-1.045 h -1.867"
                 fill-rule="evenodd"
                 id="path8" />
              <path
                 d="m 77.522,25.101 h 1.634 c 0.622,0 1.2,-0.155 1.2,-0.911 0,-0.667 -0.456,-0.945 -1.067,-0.945 h -1.767 z m -1.746,-6.58 h 3.846 c 1.434,0 2.801,0.689 2.801,2.301 0,0.989 -0.489,1.734 -1.456,2.012 0.689,0.333 1.078,0.878 1.078,1.656 0,1.478 -1.022,1.967 -2.534,1.967 h -3.735 z m 1.746,3.535 h 1.9 c 0.745,0 1.256,-0.323 1.256,-1.134 0,-0.822 -0.6,-1.045 -1.289,-1.045 h -1.867"
                 fill-rule="evenodd"
                 id="path9" />
              <path
                 d="m 93.509,23.79 c -0.211,1.834 -1.678,2.856 -3.423,2.856 -2.457,0 -3.901,-1.834 -3.901,-4.19 0,-2.29 1.444,-4.124 3.901,-4.124 1.945,0 3.312,1.267 3.49,3.246 h -1.69 c -0.133,-1.045 -0.733,-1.779 -1.8,-1.779 -1.567,0 -2.157,1.334 -2.157,2.657 0,1.389 0.59,2.723 2.157,2.723 0.867,0 1.623,-0.6 1.734,-1.389"
                 id="path10" />
              <path
                 d="m 94.65,18.521 h 1.745 V 21.8 h 3.324 v 1.356 h -3.324 v 1.834 h 3.835 v 1.467 h -5.58"
                 id="path11" />
              <path
                 d="m 101.29,18.521 h 1.74 V 21.8 h 3.32 v 1.356 h -3.32 v 1.834 h 3.83 v 1.467 h -5.57"
                 id="path12" />
              <path
                 d="m 110.64,18.521 h 1.75 V 21.8 h 3.32 v 1.356 h -3.32 v 1.834 h 3.83 v 1.467 h -5.58"
                 id="path13" />
              <path
                 d="m 117.49,18.521 h 1.74 V 21.8 h 3.32 v 1.356 h -3.32 v 1.834 h 3.84 v 1.467 h -5.58"
                 id="path14" />
              <path
                 d="m 123.71,21.156 c -0.02,-1.957 1.62,-2.824 3.38,-2.824 2.16,0 3.3,1.089 3.3,2.546 0,1.8 -1.78,2.167 -2.35,2.311 -1.99,0.512 -2.37,0.59 -2.37,1.201 0,0.667 0.64,0.9 1.2,0.9 0.83,0 1.51,-0.244 1.57,-1.2 h 1.68 c 0,1.834 -1.52,2.556 -3.17,2.556 -1.44,0 -2.97,-0.778 -2.97,-2.401 0,-1.489 1.19,-1.945 2.37,-2.256 1.16,-0.311 2.35,-0.456 2.35,-1.311 0,-0.812 -0.93,-0.99 -1.54,-0.99 -0.94,0 -1.76,0.412 -1.76,1.468"
                 id="path15" />
            </g>
          </g>
        </g>
      </g>
    </g>
  </g>
</svg>
