<svg xmlns:rdf="http://www.w3.org/1999/02/22-rdf-syntax-ns#" xmlns="http://www.w3.org/2000/svg" xml:space="preserve" height="150" width="150" version="1.1" enable-background="new -0.142 -0.779 128 61" xmlns:cc="http://creativecommons.org/ns#" xmlns:dc="http://purl.org/dc/elements/1.1/" viewBox="-0.142 -0.779 150 150"><g fill="#77787b"><path d="m43.742 94.488c-5.968-1.832-7.175-6.986-6.81-12.688h8.625c0 3.936 0.17 7.238 4.912 7.238 2.913 0 4.342-1.877 4.342-4.672 0-7.412-17.363-7.869-17.363-20.115 0-6.441 3.082-11.574 13.595-11.574 8.394 0 12.565 3.762 11.995 12.365h-8.398c0-3.078-0.512-6.207-3.998-6.207-2.795 0-4.455 1.537-4.455 4.383 0 7.813 17.367 7.129 17.367 20.068 0 7.127-3.5 10.049-7.785 11.201h-12.027"/><path d="m84.54 66.014c0.059-3.82-0.572-7.178-5.143-7.178-5.367 0-5.367 7.236-5.367 15.217 0 12.877 1.26 15.16 6.17 15.16 1.428 0 2.972-0.344 4.281-0.801v-9.119h-4.681v-6.324h13.306v20.861c-0.912 0.178-2.358 0.424-3.99 0.658h-14.76c-7.992-1.988-9.066-8.318-9.066-20.891 0-10.379 0.518-20.92 14.623-20.92 8.454 0 13.71 4.732 13.193 13.336h-8.566"/><path d="m109.4 52.678c7.537-0.016 11.652 2.932 12.224 9.553v2.813h-8.397c0.008-3-0.746-6.207-4.229-6.207-2.799 0-4.458 1.537-4.458 4.383 0 7.221 14.839 7.184 17.085 17.354v5.961c-0.914 4.813-3.938 6.996-7.501 7.955h-12.027c-5.967-1.832-7.174-6.986-6.809-12.688h8.623c0 3.936 0.174 7.238 4.916 7.238 2.909 0 4.337-1.877 4.337-4.672 0-7.412-17.364-7.869-17.364-20.115 0.001-6.442 3.085-11.552 13.6-11.575"/></g><rect height="0.992" width="127.56" y="94.489" x="11.078" fill="#f36f21"/><rect height="59.527" width="0.992" y="44.458" x="121.63" fill="#f36f21"/></svg>
