<?xml version="1.0" encoding="utf-8"?>
<!-- Generator: Adobe Illustrator 26.1.0, SVG Export Plug-In . SVG Version: 6.00 Build 0)  -->
<svg version="1.1" id="Calque_1" xmlns="http://www.w3.org/2000/svg" xmlns:xlink="http://www.w3.org/1999/xlink" x="0px" y="0px"
	 viewBox="0 0 400.4 94" style="enable-background:new 0 0 400.4 94;" xml:space="preserve">
<style type="text/css">
	.st0{fill:#FFBC00;}
	.st1{fill:#282828;}
</style>
<g id="Calque_2_00000179604412058494340530000000530788777440314526_">
	<g id="fond-noir">
		<path class="st0" d="M399.5,40.6l-34.4-18c-0.4-0.3-1-0.3-1.4,0c-0.5,0.3-0.7,0.9-0.7,1.4v16.8c0.1,0.6,0.4,1.1,0.9,1.4l14.6,6.8
			l-14.7,6.7c-0.5,0.3-0.8,0.8-0.8,1.4v17c0,0.6,0.2,1.1,0.7,1.4c0.2,0.1,0.4,0.2,0.6,0.2c0.3,0,0.5-0.1,0.8-0.2l34.3-18.1
			c0.5-0.3,0.9-0.8,0.9-1.4V42C400.4,41.4,400.1,40.8,399.5,40.6z M398.2,42.4v12.9l-32.9,17.4V57.5l18.7-8.6l-18.7-8.6V25.1
			L398.2,42.4z"/>
		<path class="st0" d="M37.3,40.8v-17c0-0.6-0.2-1.1-0.7-1.4c-0.4-0.3-1-0.3-1.4,0L0.9,40.6C0.4,40.9,0,41.4,0,42v13.9
			c0,0.6,0.3,1.1,0.8,1.4l34.4,18.1c0.2,0.1,0.5,0.2,0.8,0.2c0.2,0,0.4-0.1,0.6-0.2c0.5-0.3,0.7-0.9,0.7-1.4V57.1
			c0-0.6-0.4-1.1-0.9-1.4l-14.6-6.8l14.7-6.7C37,41.9,37.3,41.4,37.3,40.8z M35.1,25.1v15.2l-18.7,8.6l18.7,8.6v15.2L2.2,55.4V42.5
			L35.1,25.1z"/>
		<path class="st0" d="M325.3,69.5l-10.1,22.1h-13.6l21.7-47.9v-4.4h-0.5l-23.7,52.3c-0.3,0.5-0.2,1.1,0.1,1.6
			c0.3,0.4,0.8,0.7,1.3,0.7h15.2c0.5-0.1,1-0.4,1.3-0.8l9.7-21.4C326.2,71.1,325.7,70.3,325.3,69.5z"/>
		<polygon class="st0" points="338.9,39.7 338.9,45.1 341.5,39.5 339,39.5 		"/>
		<path class="st0" d="M358.3,0.7L358.3,0.7C358,0.2,357.6,0,357.1,0h-15.4c-0.6,0.1-1,0.4-1.3,0.8L335,12.8h2.5l4.7-10.5h13.7
			l-10.5,23.1h2.5l10.5-23.1C358.6,1.7,358.6,1.1,358.3,0.7z"/>
		<path class="st1" d="M47.4,68.9l5.8-10.6c5.1,3.8,10.6,5.7,15.2,5.7c2.7,0,3.9-0.9,3.9-2.7v-0.2c0-1.9-2.5-2.8-7.1-4.2
			c-8.8-2.6-15.7-5.9-15.7-15.9v-0.2c0-10.6,7.5-16.5,17.8-16.5c6.5,0,12.9,2,18.3,5.8l-5.3,11c-4.6-2.9-9.6-4.6-13.1-4.6
			c-2.4,0-3.6,1-3.6,2.4v0.2c0,1.9,2.5,2.8,7.2,4.4c8.8,2.8,15.7,6.2,15.7,15.8v0.2c0,11-7.3,16.7-18.1,16.7
			C60.8,76.3,53.4,73.7,47.4,68.9z"/>
		<path class="st1" d="M93.1,50.5v-0.2c0-14.2,10.3-26,24.6-26s24.4,11.7,24.4,25.9v0.2c0,14.2-10.3,26-24.6,26S93.1,64.7,93.1,50.5
			z M126.9,50.5v-0.2c0-6.1-3.9-11.2-9.4-11.2c-5.7,0-9.2,5.1-9.2,11v0.2c0,6.1,3.9,11.2,9.4,11.2C123.3,61.6,126.9,56.5,126.9,50.5
			z"/>
		<path class="st1" d="M148.9,50.5v-0.2c0-14.1,9.7-25.9,23.7-25.9c9.1,0,15.1,4.4,18.9,11.1L181,44.4c-2.1-3.3-4.5-5.2-8.3-5.2
			c-5,0-8.7,5-8.7,11v0.2c0,6.4,3.6,11.3,8.9,11.3c3.7,0,6.1-1.9,8.5-5.2l10.4,8.5c-4.1,6.8-10,11.4-19.7,11.4
			C158.7,76.4,148.9,64.6,148.9,50.5z"/>
		<path class="st1" d="M199.3,25.4h15.6v10c2.5-6.8,6.6-11.2,14-10.9V43h-1.3c-8.1,0-12.7,5.2-12.7,16.8v15.4h-15.6V25.4z"/>
		<path class="st1" d="M233,60.9v-0.2c0-10.3,7-15.6,17.4-15.6c3.6,0,7.2,0.6,10.6,1.9v-0.8c0-5.2-2.9-8.1-8.9-8.1
			c-4.2,0-8.4,0.9-12.2,2.8l-3.2-12.3c5.6-2.6,11.7-4,17.9-3.9c7.9,0,13.4,2.1,16.9,6.1c3.4,3.7,4.8,8.8,4.8,15.8v28.7h-15.4V70
			c-3.1,4-7.9,6.4-13,6.2C239.4,76.3,233,70.9,233,60.9z M261.2,57.2v-2.3c-1.9-0.9-4-1.3-6.1-1.3c-4.5,0-7.1,2.5-7.1,6.2v0.2
			c-0.2,2.8,2,5.3,4.8,5.4c0.2,0,0.4,0,0.7,0C257.9,65.4,261.1,62.1,261.2,57.2L261.2,57.2z"/>
		<path class="st1" d="M289,39.4h-5.2V25.7h5.2v-1.1c0-5.7,1.1-9.9,3.8-12.9s6.3-4.3,11.5-4.3c3.4-0.1,6.9,0.3,10.1,1.4v12.3
			c-1.9-0.7-3.8-1-5.8-1c-2.9,0-4.4,1.5-4.4,4.7V26h10.1v13.4h-9.9v35.8H289V39.4z"/>
		<path class="st1" d="M323.3,59.7V39.5h-5.2V25.4h5.2V12.8h15.5v12.6h10.3v14.1h-10.3v16.8c0,3.5,1.4,5,4.3,5
			c2.1-0.1,4.1-0.6,5.9-1.7v13.7c-3.3,1.9-7,2.9-10.8,2.8C328.9,76.2,323.3,71.6,323.3,59.7z"/>
	</g>
</g>
</svg>
