<svg xmlns="http://www.w3.org/2000/svg" viewBox="0 0 400.39 93.98"><defs><style>.cls-1{fill:#ffbc00;}.cls-2{fill:#fff;}</style></defs><g id="Calque_2" data-name="Calque 2"><g id="fond-noir"><path class="cls-1" d="M399.54,40.55l-34.35-18a1.37,1.37,0,0,0-1.42-.05,1.57,1.57,0,0,0-.69,1.42V40.75a1.84,1.84,0,0,0,.86,1.4l14.61,6.76-14.66,6.71a1.85,1.85,0,0,0-.81,1.37V74a1.56,1.56,0,0,0,.69,1.42,1.21,1.21,0,0,0,.64.18,1.55,1.55,0,0,0,.77-.22l34.3-18.12a1.63,1.63,0,0,0,.91-1.42V42A1.67,1.67,0,0,0,399.54,40.55Zm-1.36,1.85V55.34L365.29,72.71V57.47L384,48.91l-18.7-8.64V25.11Z"/><path class="cls-1" d="M37.31,40.83v-17a1.57,1.57,0,0,0-.7-1.43,1.36,1.36,0,0,0-1.39,0L.91,40.61A1.63,1.63,0,0,0,0,42V55.87a1.64,1.64,0,0,0,.84,1.39L35.2,75.33a1.65,1.65,0,0,0,.78.22,1.21,1.21,0,0,0,.63-.17,1.57,1.57,0,0,0,.7-1.43V57.07a1.82,1.82,0,0,0-.86-1.4L21.84,48.91,36.5,42.2A1.83,1.83,0,0,0,37.31,40.83ZM35.1,25.11V40.35L16.4,48.91l18.7,8.64V72.71L2.21,55.42V42.48Z"/><path class="cls-1" d="M325.29,69.54,315.22,91.68H301.63l21.71-47.86V39.46h-.5l-23.7,52.27a1.64,1.64,0,0,0,.06,1.6,1.45,1.45,0,0,0,1.26.65H315.7a1.75,1.75,0,0,0,1.32-.84l9.73-21.38A12.54,12.54,0,0,1,325.29,69.54Z"/><polygon class="cls-1" points="338.89 39.66 338.89 45.09 341.46 39.46 338.99 39.46 338.89 39.66"/><path class="cls-1" d="M358.33.65h0A1.48,1.48,0,0,0,357.06,0H341.69a1.77,1.77,0,0,0-1.33.84L335,12.78h2.47L342.17,2.3H355.9L345.39,25.38h2.47L358.39,2.25A1.67,1.67,0,0,0,358.33.65Z"/><path class="cls-2" d="M47.43,68.94l5.82-10.58c5.07,3.77,10.64,5.7,15.23,5.7,2.7,0,3.93-.92,3.93-2.67v-.18c0-1.93-2.46-2.76-7.13-4.23-8.76-2.58-15.72-5.89-15.72-15.92v-.18c0-10.58,7.53-16.47,17.77-16.47a31.88,31.88,0,0,1,18.26,5.8l-5.32,11c-4.59-2.86-9.58-4.6-13.1-4.6-2.38,0-3.61,1-3.61,2.39v.18c0,1.93,2.54,2.85,7.21,4.42,8.76,2.76,15.72,6.16,15.72,15.82v.18c0,11-7.29,16.65-18.1,16.65A33.11,33.11,0,0,1,47.43,68.94Z"/><path class="cls-2" d="M93.12,50.54v-.19c0-14.16,10.32-26,24.56-26s24.4,11.68,24.4,25.85v.18c0,14.17-10.31,26-24.56,26S93.12,64.7,93.12,50.54Zm33.82,0v-.19c0-6.07-3.93-11.22-9.42-11.22-5.65,0-9.25,5.06-9.25,11v.18c0,6.07,3.93,11.23,9.41,11.23C123.33,61.58,126.94,56.52,126.94,50.54Z"/><path class="cls-2" d="M148.88,50.54v-.19c0-14.07,9.74-25.94,23.74-25.94,9.09,0,15.15,4.42,18.92,11.13L181,44.37c-2.12-3.31-4.5-5.24-8.27-5.24-5,0-8.68,5-8.68,11v.18c0,6.44,3.61,11.32,8.85,11.32,3.68,0,6.06-1.93,8.51-5.15L191.78,65c-4.09,6.81-10,11.41-19.73,11.41C158.7,76.39,148.88,64.61,148.88,50.54Z"/><path class="cls-2" d="M199.31,25.42h15.56v10c2.54-6.81,6.63-11.22,14-10.86V43h-1.31c-8.1,0-12.69,5.25-12.69,16.75V75.19H199.31Z"/><path class="cls-2" d="M233,60.93v-.18c0-10.31,7-15.64,17.36-15.64A30.67,30.67,0,0,1,261,47v-.83c0-5.15-2.87-8.09-8.85-8.09a28.26,28.26,0,0,0-12.2,2.76l-3.19-12.33a40.32,40.32,0,0,1,17.93-3.86c7.94,0,13.35,2.11,16.87,6.07,3.36,3.68,4.75,8.83,4.75,15.82V75.19h-15.4V70a15.91,15.91,0,0,1-13,6.25C239.43,76.29,233,70.87,233,60.93Zm28.17-3.77v-2.3a14.71,14.71,0,0,0-6.06-1.29c-4.5,0-7.12,2.49-7.12,6.17v.18a5.13,5.13,0,0,0,5.48,5.43C257.94,65.35,261.13,62.13,261.13,57.16Z"/><path class="cls-2" d="M289.05,39.41h-5.16V25.7h5.16V24.59c0-5.7,1.15-9.93,3.77-12.88s6.3-4.32,11.54-4.32a30.33,30.33,0,0,1,10.15,1.38V21.1a16.42,16.42,0,0,0-5.81-1c-2.86,0-4.42,1.47-4.42,4.69V26h10.15V39.41h-9.9V75.19H289.05Z"/><path class="cls-2" d="M323.34,59.7V39.46H318.1V25.38h5.24V12.78h15.55v12.6h10.32V39.46H338.89V56.29c0,3.5,1.39,5,4.26,5a12.5,12.5,0,0,0,5.9-1.65v13.7a20.25,20.25,0,0,1-10.81,2.85C328.9,76.16,323.34,71.57,323.34,59.7Z"/></g></g></svg>