<svg width="300" height="300" data-name="Calque 1" version="1.1" viewBox="0 0 300 300" xmlns="http://www.w3.org/2000/svg"><defs><style>.cls-1{fill:#2e415c;}.cls-2{fill:#e71f69;}</style></defs><title>SOPHiA_pink_prevent_svg</title><g transform="translate(24.275 -126.8)"><g fill="#2e415c"><path class="cls-1" d="m63.26 287.74 3.12-1.67c1.67 3 4.12 5.52 9.12 5.52 4.12 0 7.35-2.29 7.35-6s-2.24-5.42-6.67-7.4l-2.85-1.34c-5-2.29-7.81-4.74-7.81-9.69 0-5.11 4-8.5 9.32-8.5a10.43 10.43 0 0 1 9.59 5.32l-3 1.87a7.22 7.22 0 0 0-6.57-3.85c-3.49 0-5.62 2-5.62 5.05s1.67 4.54 5.62 6.36l2.82 1.3c5.89 2.61 8.91 5.53 8.91 10.84 0 5.84-4.64 9.38-11 9.38-6.76 0-10.46-3.48-12.33-7.19z"/><path class="cls-1" d="m92.23 276.8c0-10.68 8.12-18.14 18.18-18.14s18.24 7.46 18.24 18.14-8.13 18.13-18.24 18.13-18.18-7.48-18.18-18.13zm32.51 0c0-8.44-6-14.75-14.33-14.75s-14.28 6.31-14.28 14.75 6 14.74 14.28 14.74 14.33-6.3 14.33-14.74z"/><path class="cls-1" d="m136.33 259.08h8c9.69 0 14.64 5.37 14.64 13.34s-4.95 13.29-14.64 13.29h-4.27v8.8h-3.73zm7.79 23.37c8 0 11-4.16 11-10s-3-10-11-10h-4.06v20z"/><path class="cls-1" d="m166.74 259.08h3.75v20h19v-20h3.76v35.43h-3.76v-12.06h-19v12h-3.75z"/><path class="cls-1" d="m202.01 272.94h3.65v21.57h-3.65z"/><path class="cls-1" d="m226.24 258.72h0.63l15 35.79h-4l-2.4-5.94h-17.88l-2.34 5.94h-3.7zm7.92 26.62-6.25-15.73a44.09 44.09 0 0 1-1.36-4.22s-0.73 2.55-1.4 4.22l-6.26 15.73z"/></g><path class="cls-2" d="m201.23 264.14a2.61 2.61 0 1 1 5.21 0 2.61 2.61 0 0 1-5.21 0z" fill="#e71f69"/><g fill="#2e415c"><path class="cls-1" d="m238.08 260.12v-1.19h5.18v1.19h-1.87v5.62h-1.38v-5.62zm6.5-1.28h0.13l3.31 3.61 3.31-3.61h0.12v6.9h-1.35v-4l-2.08 2.39-2.06-2.39v4h-1.38z"/><circle class="cls-1" cx="20.09" cy="259.26" r="5.67"/><circle class="cls-1" cx="8.82" cy="263.37" r="4.25"/><circle class="cls-1" cx="2.83" cy="273.75" r="2.83"/><circle class="cls-1" cx="4.91" cy="285.56" r="2.13"/><circle class="cls-1" cx="20.09" cy="294.33" r="5.67"/><circle class="cls-1" cx="31.36" cy="290.23" r="4.25"/><circle class="cls-1" cx="37.36" cy="279.84" r="2.83"/><circle class="cls-1" cx="35.28" cy="268.03" r="2.13"/></g></g></svg>
