<svg width="222" height="90" viewBox="0 0 222 90" fill="none" xmlns="http://www.w3.org/2000/svg">
<path d="M119.68 39.1239C117.605 43.586 111.81 45.0336 107.467 43.3923C105.194 42.532 103.474 40.9663 102.418 38.7728C101.948 37.6763 101.558 36.5399 101.636 35.3684H107.546C107.546 36.7766 108.603 37.9524 109.855 38.4216C111.658 39.1276 113.846 38.4216 114.746 36.6586C115.256 35.7195 115.098 34.5837 114.509 33.7234C113.532 32.1965 111.614 31.9997 109.968 31.8453C108.091 31.6479 106.131 30.985 104.489 29.8492C101.278 27.5413 100.651 22.8824 102.257 19.5137C104.332 15.0516 110.126 13.604 114.47 15.2453C116.743 16.0663 118.423 17.632 119.519 19.8648C119.989 20.8432 120.379 22.0584 120.265 23.2692H114.395C114.395 21.8216 113.336 20.6458 112.047 20.216C110.718 19.6674 109.072 19.9042 108.016 20.8826C106.841 21.9397 106.568 23.624 107.427 24.9142C108.406 26.4012 110.324 26.6379 111.929 26.7529C113.846 26.9503 115.803 27.6132 117.448 28.7491C120.659 31.0607 121.287 35.7589 119.68 39.1239Z" fill="black"/>
<path d="M144.598 20.2958H136.926V43.4327H131.758V20.2958H124.125V15.207H144.599V20.2958H144.598Z" fill="black"/>
<path d="M158.901 15.168L145.043 43.4723H150.487L158.902 26.2918L167.32 43.4723H172.759L158.902 15.168H158.901Z" fill="black"/>
<path d="M198.219 43.4337H191.875L186.866 36.0727L185.299 33.8398L185.259 33.7611H181.461V43.43H176.332V15.0469H186.707C191.874 15.0469 196.105 19.2759 196.105 24.4433C196.105 28.1238 193.99 31.2957 190.857 32.822H190.898L198.219 43.4337ZM190.857 24.4464C190.857 22.2135 189.133 20.4148 186.984 20.2961H181.465V28.6355H186.984C189.133 28.478 190.857 26.6393 190.857 24.4458V24.4464Z" fill="black"/>
<path d="M222.002 20.2958H214.328V43.4327H209.16V20.2958H201.527V15.207H222.002V20.2958H222.002Z" fill="black"/>
<path d="M115.385 74.7057V66.4679H105.305V74.7057H102.699V55.7031H105.305V63.8887H115.385V55.7031H117.964V74.7057H115.385Z" fill="black"/>
<path d="M138.442 74.6814H135.757L133.625 70.049H125.597L123.439 74.6814H120.754L129.598 55.6523L138.441 74.6814H138.442ZM132.494 67.6015L129.599 61.4163L126.73 67.6015H132.494Z" fill="black"/>
<path d="M155.655 73.207C154.023 74.4966 152.023 75.2075 149.864 75.2075C144.495 75.2075 140.152 70.7331 140.152 65.2323C140.152 59.7316 144.495 55.3359 149.864 55.3359C152.023 55.3359 154.023 56.0468 155.655 57.3364L153.786 59.2839C152.707 58.4943 151.312 58.0466 149.864 58.0466C145.943 58.0466 142.784 61.3102 142.784 65.2317C142.784 69.1533 145.943 72.4962 149.864 72.4962C151.312 72.4962 152.707 72.0485 153.786 71.233L155.655 73.207Z" fill="black"/>
<path d="M171.105 74.6805L170.237 73.5225L167.052 69.259L165.394 67.0219L161.656 71.9439V74.6811H159.104V55.7307H161.656V67.6534L170.947 55.3359L173 56.8887L166.972 64.8634L168.683 67.1793L172.289 71.9691L174.342 74.6799H171.105V74.6805Z" fill="black"/>
<path d="M30.2747 14.7383C13.5566 14.7383 0 28.2918 0 45.013C0 61.7341 13.5535 75.2876 30.2747 75.2876C46.9958 75.2876 60.5494 61.7341 60.5494 45.013C60.5494 28.2918 46.9927 14.7383 30.2747 14.7383ZM41.9661 58.7897L30.2747 33.6056L18.5832 58.7897H13.4871L30.2778 22.6632L47.0684 58.7897H41.9661Z" fill="black"/>
<path d="M82.2781 0H79.6836V90H82.2781V0Z" fill="black"/>
</svg>
