<svg xmlns:rdf="http://www.w3.org/1999/02/22-rdf-syntax-ns#" xmlns="http://www.w3.org/2000/svg" xml:space="preserve" viewBox="0 0 260 260" height="260" width="260" version="1.1" y="0px" x="0px" xmlns:cc="http://creativecommons.org/ns#" xmlns:dc="http://purl.org/dc/elements/1.1/"><path d="m22.129 107.17c11.65 0 20.917 9.267 20.917 20.917 0 11.651-9.267 20.917-20.917 20.917-11.651 0-20.917-9.266-20.917-20.917 0-11.65 9.266-20.917 20.917-20.917zm-10.436 12.19v3.463h20.872v-3.463h-20.872zm20.872 17.454v-10.482h-20.872v10.481h3.464v-3.959c0-1.124 0.27-1.754 0.674-2.204 0.45-0.539 1.125-0.854 1.935-0.854s1.484 0.315 1.934 0.854c0.405 0.45 0.675 1.08 0.675 2.204v3.959h3.509v-3.959c0-1.124 0.27-1.754 0.675-2.204 0.45-0.539 1.125-0.854 1.934-0.854s1.484 0.315 1.934 0.854c0.405 0.45 0.675 1.08 0.675 2.204v3.959h3.463z" fill="#fa5b35"/><path d="m55.781 120.22c0 3.778 5.398 4.543 9.446 6.882 2.519 1.439 4.588 3.779 4.588 7.737 0 5.667-4.633 9.222-9.761 9.222s-8.817-2.475-10.256-4.049l2.024-4.274h0.18c1.709 1.665 4.318 3.239 7.692 3.239 2.205 0 4.588-1.305 4.588-3.869 0-3.823-5.398-4.588-9.446-6.927-2.519-1.439-4.588-3.778-4.588-7.737 0-5.668 4.678-9.222 9.896-9.222 4.903 0 8.232 2.475 9.671 3.824l-2.024 4.273h-0.18c-1.754-1.575-3.958-3.015-7.017-3.015-2.429 0.002-4.813 1.307-4.813 3.916zm14.844 5.173h5.308l3.148 9.132h0.18l4.453-12.73h3.599l4.678 12.865h0.18l4.498-12.865h5.038l-7.692 21.591h-3.509l-4.948-13.584h-0.18l-4.768 13.584h-3.599l-6.386-17.993zm33.288-12.595h5.353v5.173h-5.353v-5.173zm0.09 8.996h5.173v21.591h-5.173v-21.591zm17.228 22.267c-3.059 0-6.028-1.17-8.097-3.148l1.439-3.87h0.18c1.619 1.439 3.688 2.565 6.072 2.565 1.799 0 2.969-0.765 2.969-2.115 0-1.395-1.485-1.935-3.329-2.52-2.969-0.944-6.882-2.384-6.882-6.882 0-4.139 3.239-6.973 7.872-6.973 2.519 0 5.083 0.899 7.197 2.564l-1.439 3.913h-0.18c-1.53-1.215-3.509-2.024-5.173-2.024-2.024 0-3.194 0.765-3.194 2.114 0 1.395 1.484 1.935 3.329 2.52 2.969 0.944 6.882 2.384 6.882 6.882 0.001 4.14-3.237 6.974-7.646 6.974zm18.488 0c-3.059 0-6.028-1.17-8.097-3.148l1.439-3.87h0.18c1.619 1.439 3.688 2.565 6.073 2.565 1.799 0 2.969-0.765 2.969-2.115 0-1.395-1.484-1.935-3.329-2.52-2.969-0.944-6.882-2.384-6.882-6.882 0-4.139 3.239-6.973 7.872-6.973 2.519 0 5.083 0.899 7.197 2.564l-1.439 3.913h-0.18c-1.53-1.215-3.509-2.024-5.174-2.024-2.024 0-3.193 0.765-3.193 2.114 0 1.395 1.484 1.935 3.328 2.52 2.97 0.944 6.883 2.384 6.883 6.882 0 4.14-3.238 6.974-7.647 6.974zm31.443-22.267v31.039h-5.173v-11.022c-1.484 1.395-3.644 2.25-5.713 2.25-6.117 0-10.031-4.725-10.031-11.247 0-6.117 4.184-11.695 10.571-11.695 1.979 0 3.913 0.765 5.442 1.979h0.181v-1.305h4.723zm-5.173 5.623c-1.08-0.99-2.789-1.574-4.363-1.574-3.688 0-6.073 2.879-6.073 6.927 0 3.644 2.069 6.567 5.758 6.567 1.755 0 3.419-0.674 4.679-2.023v-9.897zm14.709 7.287c0 1.89 0.315 2.699 0.855 3.374 0.674 0.81 1.754 1.348 2.969 1.348 1.214 0 2.294-0.539 2.969-1.348 0.54-0.675 0.854-1.484 0.854-3.374v-12.91h5.173v12.37c0 3.509-0.944 5.713-2.563 7.288-1.62 1.619-3.914 2.609-6.658 2.609-2.519 0-4.723-0.945-6.297-2.52-1.575-1.574-2.475-3.824-2.475-7.377v-12.37h5.173v12.91zm16.374-1.889c0-6.882 4.679-11.695 11.246-11.695s11.245 4.813 11.245 11.246c0 6.882-4.678 11.696-11.245 11.696s-11.246-4.815-11.246-11.247zm11.246-6.972c-3.464 0-5.938 2.924-5.938 6.747s2.475 6.747 5.938 6.747 5.938-2.923 5.938-6.747-2.474-6.747-5.938-6.747zm28.789 13.314v4.003c-1.395 0.584-2.924 0.9-4.634 0.9-2.294 0-4.003-0.676-5.173-1.846-1.26-1.258-1.89-3.103-1.89-6.386v-9.537h-4.947v-4.498h4.947v-7.196h5.174v7.197h6.522v4.498h-6.522v10.211c0 1.125 0.225 1.755 0.584 2.159 0.63 0.719 1.665 0.901 2.789 0.901 1.17 0 2.564-0.271 2.969-0.406h0.181zm12.685 4.904c-6.297 0-11.021-4.453-11.021-11.247 0-6.207 3.778-11.695 10.481-11.695 5.713 0 9.536 4.543 9.536 10.796v1.709h-14.619c0.135 3.374 2.474 5.894 5.893 5.894 2.204 0 4.229-0.901 6.072-2.43h0.18l1.935 3.598c-2.024 2.16-5.038 3.375-8.457 3.375zm3.824-14.485c-0.045-2.024-1.62-4.049-4.273-4.049-2.609 0-4.363 1.755-4.903 4.049h9.176z" fill="#323232"/></svg>
