<?xml version="1.0" encoding="UTF-8" standalone="no"?>

<svg
   version="1.1"
   id="svg1"
   width="1400"
   height="700"
   viewBox="0 0 1400 700"
   xmlns="http://www.w3.org/2000/svg"
   xmlns:svg="http://www.w3.org/2000/svg">
  <defs
     id="defs1" />
  <g
     id="g1">
    <g
       id="group-R5"
       transform="translate(9.3192173,189.80013)">
      <path
         id="path2"
         d="m 10028.3,2062.34 c -19.6,19.6 -44.39,29.4 -74.47,29.4 -30.06,0 -54.88,-9.8 -74.48,-29.4 -19.6,-19.6 -29.4,-44.43 -29.4,-74.48 0,-30.05 9.8,-54.88 29.4,-74.48 19.6,-19.6 44.42,-29.4 74.48,-29.4 30.08,0 54.87,9.8 74.47,29.4 19.6,19.6 29.4,44.43 29.4,74.48 0,30.05 -9.8,54.88 -29.4,74.48"
         style="fill:#18191a;fill-opacity:1;fill-rule:evenodd;stroke:none"
         transform="matrix(0.13333333,0,0,-0.13333333,0,319.8)" />
      <path
         id="path3"
         d="m 10034.2,706.02 v 999.6 h -160.73 v -999.6 h 160.73"
         style="fill:#18191a;fill-opacity:1;fill-rule:evenodd;stroke:none"
         transform="matrix(0.13333333,0,0,-0.13333333,0,319.8)" />
      <path
         id="path4"
         d="m 6013.9,1607.62 c -74.48,73.17 -172.48,109.76 -294,109.76 -78.4,0 -145.04,-16.33 -199.92,-49 -53.57,-32.67 -96.69,-75.13 -129.36,-127.4 v 537.04 H 5229.9 v -1372 h 160.72 v 499.8 c 0,112.37 26.79,201.23 80.36,266.56 54.88,65.33 128.71,98 221.48,98 87.55,0 154.84,-27.44 201.88,-82.32 47.04,-53.58 70.56,-131.97 70.56,-235.2 V 706.02 h 160.72 v 556.64 c 0,156.8 -37.24,271.79 -111.72,344.96"
         style="fill:#18191a;fill-opacity:1;fill-rule:evenodd;stroke:none"
         transform="matrix(0.13333333,0,0,-0.13333333,0,319.8)" />
      <path
         id="path5"
         d="m 6591.17,1501.78 c 57.49,49.65 124.13,74.48 199.92,74.48 84.93,0 154.84,-23.52 209.72,-70.56 56.19,-47.04 88.2,-113.03 96.04,-197.96 h -603.68 c 7.84,79.71 40.51,144.39 98,194.04 z m 668.36,-327.32 c 2.61,31.36 3.92,54.23 3.92,68.6 -2.61,96.69 -24.17,180.97 -64.68,252.84 -40.51,71.87 -96.04,126.74 -166.6,164.64 -70.56,37.89 -151.57,56.84 -243.04,56.84 -92.77,0 -175.09,-21.56 -246.96,-64.68 -71.87,-41.81 -128.05,-101.27 -168.56,-178.36 -39.2,-77.09 -58.8,-166.6 -58.8,-268.52 0,-100.61 20.25,-190.12 60.76,-268.519 41.81,-77.09 99.96,-137.199 174.44,-180.321 74.48,-41.808 161.37,-62.718 260.68,-62.718 113.68,0 209.72,32.008 288.12,96.039 78.4,65.328 127.4,148.961 147,250.879 H 7083.13 C 7066.14,977.148 7032.17,926.852 6981.21,890.262 6931.56,854.98 6870.8,837.34 6798.93,837.34 c -92.77,0 -167.91,29.398 -225.4,88.199 -57.49,58.801 -87.55,137.201 -90.16,235.201 v 13.72 h 776.16"
         style="fill:#18191a;fill-opacity:1;fill-rule:evenodd;stroke:none"
         transform="matrix(0.13333333,0,0,-0.13333333,0,319.8)" />
      <path
         id="path6"
         d="m 7974.09,1705.62 v -156.8 h -80.36 c -95.39,0 -163.99,-32.02 -205.8,-96.04 -40.51,-64.03 -60.76,-143.08 -60.76,-237.16 v -509.6 h -160.72 v 999.6 h 139.16 l 21.56,-150.92 c 28.74,45.73 65.99,82.32 111.72,109.76 45.73,27.44 109.1,41.16 190.12,41.16 h 45.08"
         style="fill:#18191a;fill-opacity:1;fill-rule:evenodd;stroke:none"
         transform="matrix(0.13333333,0,0,-0.13333333,0,319.8)" />
      <path
         id="path7"
         d="m 4611.85,1558.62 h -180.32 v 147 h 180.32 v 280.28 h 160.72 v -280.28 h 252.84 v -147 H 4772.57 V 968.66 c 0,-41.808 7.84,-71.871 23.52,-90.16 16.98,-16.988 45.73,-25.48 86.24,-25.48 h 174.44 v -147 h -184.24 c -94.08,0 -161.38,20.91 -201.88,62.718 -39.2,41.813 -58.8,107.801 -58.8,197.961 v 591.921"
         style="fill:#18191a;fill-opacity:1;fill-rule:evenodd;stroke:none"
         transform="matrix(0.13333333,0,0,-0.13333333,0,319.8)" />
      <path
         id="path8"
         d="m 3669.93,1501.78 c 57.49,49.65 124.13,74.48 199.92,74.48 84.93,0 154.84,-23.52 209.72,-70.56 56.18,-47.04 88.2,-113.03 96.04,-197.96 h -603.68 c 7.84,79.71 40.5,144.39 98,194.04 z m 668.36,-327.32 c 2.61,31.36 3.92,54.23 3.92,68.6 -2.62,96.69 -24.18,180.97 -64.68,252.84 -40.51,71.87 -96.04,126.74 -166.6,164.64 -70.56,37.89 -151.58,56.84 -243.04,56.84 -92.78,0 -175.1,-21.56 -246.96,-64.68 -71.87,-41.81 -128.06,-101.27 -168.56,-178.36 -39.2,-77.09 -58.8,-166.6 -58.8,-268.52 0,-100.61 20.25,-190.12 60.76,-268.519 41.81,-77.09 99.96,-137.199 174.44,-180.321 74.48,-41.808 161.37,-62.718 260.68,-62.718 113.68,0 209.72,32.008 288.12,96.039 78.4,65.328 127.4,148.961 147,250.879 H 4161.89 C 4144.9,977.148 4110.93,926.852 4059.97,890.262 4010.31,854.98 3949.55,837.34 3877.69,837.34 c -92.78,0 -167.91,29.398 -225.4,88.199 -57.5,58.801 -87.55,137.201 -90.16,235.201 v 13.72 h 776.16"
         style="fill:#18191a;fill-opacity:1;fill-rule:evenodd;stroke:none"
         transform="matrix(0.13333333,0,0,-0.13333333,0,319.8)" />
      <path
         id="path9"
         d="m 2990.39,1011.78 c -27.44,-54.882 -66.64,-97.999 -117.6,-129.358 -49.65,-30.051 -106.49,-45.082 -170.52,-45.082 -99.31,0 -179.67,33.969 -241.08,101.922 -60.11,69.248 -90.16,158.108 -90.16,266.558 0,108.45 30.05,196.65 90.16,264.6 61.41,69.25 141.77,103.88 241.08,103.88 64.03,0 120.87,-15.68 170.52,-47.04 50.96,-31.36 90.16,-75.79 117.6,-133.28 27.44,-56.19 41.16,-120.21 41.16,-192.08 0,-70.56 -13.72,-133.93 -41.16,-190.12 z m 60.76,693.84 -21.56,-172.48 c -32.67,58.8 -77.75,103.88 -135.24,135.24 -57.49,32.67 -126.75,49 -207.76,49 -91.47,0 -173.79,-21.56 -246.96,-64.68 -73.17,-43.12 -130.67,-103.23 -172.48,-180.32 -40.51,-77.09 -60.76,-165.95 -60.76,-266.56 0,-105.84 20.25,-197.31 60.76,-274.398 41.81,-77.09 98.65,-135.891 170.52,-176.402 73.17,-40.508 156.15,-60.758 248.92,-60.758 156.8,0 271.13,61.41 343,184.238 V 760.898 c 0,-210.367 -107.8,-315.558 -323.4,-315.558 -83.63,0 -152.23,16.992 -205.8,50.961 -53.57,33.969 -86.89,82.32 -99.96,145.039 h -164.64 c 13.07,-108.449 60.11,-192.078 141.12,-250.879 82.32,-58.801 188.16,-88.199 317.52,-88.199 330.59,0 495.88,150.918 495.88,452.758 v 950.6 h -139.16"
         style="fill:#18191a;fill-opacity:1;fill-rule:evenodd;stroke:none"
         transform="matrix(0.13333333,0,0,-0.13333333,0,319.8)" />
      <path
         id="path10"
         d="m 1831.97,1015.7 c -27.44,-56.188 -66.64,-99.962 -117.6,-131.321 -49.65,-31.359 -107.15,-47.039 -172.48,-47.039 -65.33,0 -123.48,15.68 -174.44,47.039 -49.65,31.359 -88.2,75.133 -115.64,131.321 -27.44,56.19 -41.16,119.56 -41.16,190.12 0,70.56 13.72,133.93 41.16,190.12 27.44,56.19 65.99,99.96 115.64,131.32 50.96,31.36 109.11,47.04 174.44,47.04 65.33,0 122.83,-15.68 172.48,-47.04 50.96,-31.36 90.16,-75.13 117.6,-131.32 27.44,-56.19 41.16,-119.56 41.16,-190.12 0,-70.56 -13.72,-133.93 -41.16,-190.12 z m 143.08,456.68 c -41.81,77.09 -100.61,137.2 -176.4,180.32 -74.48,43.12 -160.07,64.68 -256.76,64.68 -96.69,0 -182.93,-21.56 -258.72,-64.68 -74.48,-43.12 -132.63,-103.23 -174.44,-180.32 -41.81,-77.09 -62.72,-165.95 -62.72,-266.56 0,-100.61 20.91,-189.47 62.72,-266.558 41.81,-77.09 99.96,-137.203 174.44,-180.321 75.79,-43.121 162.03,-64.679 258.72,-64.679 96.69,0 182.28,21.558 256.76,64.679 75.79,43.118 134.59,103.231 176.4,180.321 41.81,77.088 62.72,165.948 62.72,266.558 0,100.61 -20.91,189.47 -62.72,266.56"
         style="fill:#18191a;fill-opacity:1;fill-rule:evenodd;stroke:none"
         transform="matrix(0.13333333,0,0,-0.13333333,0,319.8)" />
      <path
         id="path11"
         d="m 482.832,1558.62 h -180.32 v 147 h 180.32 v 280.28 h 160.723 v -280.28 h 252.84 v -147 H 643.555 V 968.66 c 0,-41.808 7.84,-71.871 23.519,-90.16 16.985,-16.988 45.731,-25.48 86.239,-25.48 h 174.441 v -147 H 743.512 c -94.078,0 -161.371,20.91 -201.879,62.718 -39.199,41.813 -58.801,107.801 -58.801,197.961 v 591.921"
         style="fill:#18191a;fill-opacity:1;fill-rule:evenodd;stroke:none"
         transform="matrix(0.13333333,0,0,-0.13333333,0,319.8)" />
      <path
         id="path12"
         d="m 9414.75,1113.7 c 0,-84.93 -28.09,-153.528 -84.28,-205.802 -56.19,-50.957 -133.28,-76.437 -231.28,-76.437 -66.64,0 -119.56,15.027 -158.76,45.078 -39.2,30.051 -58.8,69.91 -58.8,119.563 0,111.068 74.48,166.598 223.44,166.598 h 309.68 z m 227.36,-260.68 c -44.43,0 -66.64,24.171 -66.64,72.519 v 431.201 c 0,116.29 -35.28,205.15 -105.84,266.56 -69.25,62.72 -167.91,94.08 -295.96,94.08 -120.21,0 -218.21,-27.44 -294,-82.32 -74.48,-54.88 -117.6,-131.32 -129.36,-229.32 h 160.72 c 10.45,50.96 37.89,91.47 82.32,121.52 45.73,31.36 103.23,47.04 172.48,47.04 78.4,0 139.16,-18.29 182.28,-54.88 44.43,-36.59 66.64,-87.54 66.64,-152.88 v -68.6 h -294 c -130.67,0 -230.63,-26.79 -299.88,-80.36 -67.95,-53.57 -101.92,-130.67 -101.92,-231.279 0,-90.16 33.32,-161.371 99.96,-213.641 67.95,-52.269 157.45,-78.398 268.52,-78.398 146.35,0 258.07,55.527 335.16,166.597 1.31,-50.961 15.68,-89.507 43.12,-115.64 27.44,-26.129 73.17,-39.199 137.2,-39.199 h 88.2 v 147 h -49"
         style="fill:#18191a;fill-opacity:1;fill-rule:evenodd;stroke:none"
         transform="matrix(0.13333333,0,0,-0.13333333,0,319.8)" />
      <path
         id="path13"
         d="m 8259.38,710.121 c 84.47,0 152.95,68.481 152.95,152.949 0,84.469 -68.48,152.95 -152.95,152.95 -84.47,0 -152.95,-68.481 -152.95,-152.95 0,-84.468 68.48,-152.949 152.95,-152.949"
         style="fill:#435eb5;fill-opacity:1;fill-rule:evenodd;stroke:none"
         transform="matrix(0.13333333,0,0,-0.13333333,0,319.8)" />
    </g>
  </g>
</svg>
