<?xml version="1.0" encoding="UTF-8" standalone="no"?>
<svg
   height="150"
   width="300"
   xml:space="preserve"
   viewBox="0 0 300 150"
   y="0px"
   x="0px"
   id="Logo"
   version="1.1"
   xmlns="http://www.w3.org/2000/svg"
   xmlns:svg="http://www.w3.org/2000/svg"
   xmlns:rdf="http://www.w3.org/1999/02/22-rdf-syntax-ns#"
   xmlns:cc="http://creativecommons.org/ns#"
   xmlns:dc="http://purl.org/dc/elements/1.1/"><metadata
     id="metadata41"><rdf:RDF><cc:Work
         rdf:about=""><dc:format>image/svg+xml</dc:format><dc:type
           rdf:resource="http://purl.org/dc/dcmitype/StillImage" /></cc:Work></rdf:RDF></metadata><defs
     id="defs39" /><style
     id="style3"
     type="text/css">
	.st0{fill:#E60000;}
</style><g
     id="g1"
     transform="translate(0,20.031495)"><path
       style="fill:#e60000"
       d="m 175.2571,65.998589 c 0,22.365032 -12.19559,25.046409 -24.39035,25.046409 -20.96892,0 -25.43129,-10.735246 -25.43129,-26.090917 v -43.30949 h -7.73323 v -4.173152 h 29.29797 v 4.173152 h -8.32812 v 42.043816 c 0,14.834631 3.86661,22.215071 14.4998,22.215071 10.85627,0 16.13666,-5.367623 16.13666,-20.799494 V 21.644591 h -7.80768 v -4.173152 h 20.82026 v 4.173152 H 175.2571 Z M 195.759,86.050947 V 21.644591 h -8.15749 v -4.173152 h 32.4953 c 13.83061,0 20.67145,7.825271 20.67145,16.994975 0,9.764377 -8.84855,15.279468 -16.73047,16.921207 15.31767,1.41564 19.4817,11.256219 19.4817,18.489249 0,14.758436 -12.56643,20.349657 -24.91082,20.349657 H 187.08 v -4.17558 z m 31.77363,-50.763693 c 0,-6.783262 -3.49484,-13.642663 -11.15369,-13.642663 h -8.44568 v 27.953823 h 7.55335 c 8.10406,0 12.04602,-6.859401 12.04602,-14.31116 z m 2.60249,34.589616 c 0,-9.693174 -4.16405,-16.179009 -13.90492,-16.179009 h -8.29694 v 32.353085 h 6.73448 c 10.33669,10e-7 15.46738,-6.112268 15.46738,-16.174076 z m 45.80629,-49.200584 c -7.65971,0 -12.56735,4.54672 -12.56735,12.44819 0,7.154331 7.73415,10.58528 15.24432,13.119189 4.46043,1.56804 10.11262,3.65212 13.97923,7.380436 4.23847,4.025744 6.54349,9.393305 6.3957,16.17413 -0.29834,12.676791 -9.14694,21.246768 -24.76306,21.322905 -5.87424,0 -15.02022,-1.341874 -20.52276,-4.546725 l -0.59574,-19.083982 h 4.6111 c 0.3718,12.819323 6.39481,19.528821 16.95352,19.528821 8.47687,0 13.1623,-5.664995 13.1623,-14.311105 0,-7.454195 -6.17162,-10.66154 -15.54175,-13.790127 -3.04859,-1.044567 -9.07159,-3.281043 -13.31092,-7.454197 -3.7923,-3.804516 -5.57592,-8.572465 -5.57592,-13.64266 0,-14.834694 10.55883,-21.246761 23.64682,-21.246761 5.20402,0 13.01258,1.865346 17.54835,4.472958 l 0.44622,16.550137 h -4.6102 C 289.47458,25.820241 284.34384,20.676286 275.94141,20.676286 Z"
       class="st0"
       id="UBS" /><path
       d="m 81.104613,32.193023 -1.938076,1.619629 2.046258,6.692321 -6.137931,-3.347379 -2.046262,1.619572 6.784038,3.671853 -7.213786,5.827132 -1.938142,-2.590372 2.584191,-2.049725 -1.939118,-2.268458 -2.583153,2.052166 -1.937167,-2.482258 2.583216,-2.052161 -1.938142,-2.482257 -13.243481,11.010442 12.598407,10.145379 2.259704,-2.806668 c 1.615543,0.108114 2.799517,1.295154 3.445625,2.806668 l -2.260675,2.806669 1.399241,1.078921 c 3.122054,-2.806669 7.214573,-4.640161 11.413399,-4.640161 8.828357,0 15.718515,7.230596 15.718515,16.080758 0,2.914789 -0.753318,6.045931 -2.367886,8.636304 l 2.367886,1.833428 c -0.107269,1.727745 -1.721846,3.561236 -3.33739,3.993768 l -2.261645,-1.835863 c -3.121087,3.022965 -7.212761,4.64259 -11.519697,4.64259 -8.829271,0 -15.719427,-7.014289 -15.719427,-15.972575 0,-2.914846 0.86235,-5.937813 2.153472,-8.420066 l -1.291122,-1.189537 -2.261655,3.022966 c -1.615543,-0.2138 -3.014906,-1.297657 -3.444648,-3.022966 L 63.339899,61.874589 52.679697,53.024427 V 67.0554 l 3.553748,0.108178 c 0.430714,0.540646 0.754164,1.297652 0.754164,2.16028 0,0.754504 -0.32345,1.619629 -0.64702,2.266019 h -3.660892 v 1.727748 c 7.752503,1.295217 14.212974,7.87936 14.212974,15.864398 0,8.311955 -6.353261,14.898587 -14.212974,16.191317 v 2.80916 c -0.753255,0.42759 -1.722749,0.75451 -2.583215,0.75451 -0.969495,0 -2.046262,-0.32692 -2.907699,-0.75451 v -2.80916 C 39.330045,104.08061 33.19211,97.493978 33.19211,89.182023 c 0,-7.985038 6.137935,-14.569181 13.996673,-15.756279 v -1.835867 h -3.65998 c -0.431694,-0.64639 -0.646899,-1.511515 -0.646899,-2.266019 0,-0.862628 0.215205,-1.619634 0.646899,-2.268458 h 3.65998 V 53.024427 l -10.766438,8.850162 2.368798,2.698554 c -0.538777,1.725309 -1.938142,2.809166 -3.552711,3.022966 l -2.261653,-3.022966 -1.400213,1.189537 c 1.508334,2.482253 2.26159,5.50522 2.26159,8.420066 0,8.958286 -6.890156,15.972575 -15.718453,15.972575 -4.199793,0 -8.3995865,-1.619625 -11.4133995,-4.64259 L 4.3374436,87.348594 C 2.8299601,86.916062 1.2153897,85.082571 1,83.354827 L 3.2606785,81.521398 C 1.8614369,78.931025 1,75.799883 1,72.885094 1,64.034932 7.8901562,56.804336 16.719487,56.804336 c 4.305968,0 8.397641,1.833492 11.519634,4.640161 l 1.293128,-0.97324 -2.261713,-2.91235 c 0.538901,-1.511514 1.938142,-2.590434 3.552773,-2.806668 l 2.261591,2.806668 12.597434,-10.145379 -13.24342,-11.010442 -1.938143,2.482257 2.584129,2.052161 -1.938081,2.482258 -2.584187,-2.052166 -1.938143,2.268458 2.476068,2.049725 -1.937167,2.590372 -7.106518,-5.827132 6.6758,-3.671853 -1.938144,-1.619572 -6.136899,3.347379 2.045289,-6.692321 -1.938142,-1.61963 -2.260678,7.341145 -7.2136663,-5.829693 1.9371683,-2.374078 2.47698,2.052161 2.046323,-2.374138 -2.585161,-2.268457 1.938141,-2.268458 2.584127,1.946481 1.82996,-2.268456 -5.598061,-4.423864 c 0.537988,-1.838302 1.722813,-3.347379 3.445625,-4.428736 L 47.188783,41.694448 V 25.392585 h -3.013936 v 3.131083 h -3.014843 v -3.131083 h -3.123029 v 3.131083 h -3.122054 v -9.174577 l 7.105545,3.02053 V 19.779246 L 35.45376,17.08313 42.020466,14.492696 V 12.010441 L 34.914921,14.81711 V 5.5344167 h 3.122054 v 3.3449418 h 3.12303 V 5.5344167 h 3.014843 v 3.3449418 h 3.013935 V 1.5406475 C 48.05022,1.2162348 49.019718,1 49.9883,1 c 0.861379,0 1.830023,0.2162348 2.691398,0.5406475 V 41.694449 l 29.824281,-24.39752 c 1.614568,1.081358 2.799459,2.590434 3.445499,4.428736 l -5.706178,4.423864 1.938085,2.268456 2.584187,-1.946481 1.937224,2.268458 -2.584249,2.268457 1.938147,2.374138 2.5851,-2.052161 1.937225,2.374078 -7.213665,5.829693 z M 20.164018,76.338156 c 0,2.592869 1.939115,4.209997 4.199792,4.426298 l -3.768101,2.914785 c -2.584128,-0.973236 -4.952987,-4.101887 -4.952987,-6.800441 0,-0.862623 0.215329,-1.403332 0.430657,-2.049658 -0.322476,0 -0.538778,0.108114 -0.754106,0.108114 -3.444653,0 -6.3523515,-3.239258 -6.9974256,-6.584139 l 3.8753086,-3.023028 c -0.108181,0.432593 -0.108181,0.75457 -0.108181,1.078982 0,2.157841 2.046262,4.101887 4.199793,4.101887 2.26068,0 4.41415,-1.944046 4.41415,-4.212504 0,-2.801795 -2.15347,-4.637658 -4.844867,-4.637658 -5.275526,0 -10.4439031,5.072688 -10.4439031,11.76495 0,1.941606 0.4297455,3.777475 1.2921552,5.394665 L 9.075102,76.98698 c 1.614631,0.754509 2.906726,2.374143 3.337444,4.210006 l -2.367887,1.833429 c 2.260679,1.944045 5.059222,2.806727 7.966921,2.806727 6.028782,0 10.874622,-4.856458 10.874622,-9.174574 0,-2.479822 -1.722813,-4.64016 -4.307062,-4.64016 -2.368738,0 -4.415122,1.833429 -4.415122,4.315748 z m 31.977754,9.285129 c 0,2.371697 1.938142,4.315743 4.198817,4.315743 1.615544,0 2.26068,-0.646389 3.445624,-1.619633 v 4.858892 c -1.184944,0.646335 -2.368857,0.970747 -3.66095,0.970747 -2.583278,0 -4.736688,-0.756943 -6.136964,-3.022966 -1.507423,2.266023 -3.660891,3.022966 -6.245141,3.022966 -1.183853,0 -2.475946,-0.324412 -3.659859,-0.970747 v -4.858892 c 1.076705,1.078929 1.937167,1.619633 3.445504,1.619633 2.368857,0 4.198817,-1.944046 4.198817,-4.315743 0,-2.268458 -1.507361,-4.318179 -3.984462,-4.318179 -4.413113,0 -6.244108,4.207625 -6.244108,8.093218 0,5.721512 4.199793,10.577907 9.689733,11.551156 v -2.914798 c 0.861437,-0.432585 1.830935,-0.540704 2.69231,-0.540704 0.968586,0 1.93723,0.108119 2.798604,0.540704 v 2.914798 c 5.06111,-0.75696 9.690645,-6.154056 9.690645,-11.551156 0,-3.993775 -1.615606,-8.093218 -6.245079,-8.093218 -2.367948,0 -3.983491,2.049721 -3.983491,4.318179 z m 26.80943,-19.324833 c 0,2.162778 2.261593,4.212504 4.522271,4.212504 2.15256,0 4.198817,-1.944046 4.198817,-4.101887 0,-0.324412 -0.108173,-0.646389 -0.108173,-1.078982 l 3.76907,3.023028 c -0.647016,3.669293 -3.876222,6.906058 -7.644325,6.476025 0.215335,0.646326 0.322479,1.187035 0.322479,2.049658 0,2.698554 -2.368799,5.827205 -4.952019,6.800441 l -3.76907,-2.914785 c 2.368862,-0.216301 4.306999,-1.833429 4.306999,-4.426298 0,-2.482319 -2.153527,-4.315748 -4.522387,-4.315748 -2.47601,0 -4.30597,2.160338 -4.30597,4.748279 0,3.131077 3.76719,9.066455 10.981767,9.066455 2.907704,0 5.706304,-0.862682 7.859777,-2.806727 l -2.368862,-1.833429 c 0.537867,-1.835863 1.614631,-3.455497 3.337442,-4.210006 l 2.368799,1.833429 c 0.861438,-1.61719 1.40028,-3.453059 1.40028,-5.394665 0,-5.180811 -3.984467,-11.76495 -10.336756,-11.76495 -2.691394,0 -5.060139,1.835863 -5.060139,4.637658 z"
       id="Key" /></g><g
     transform="translate(1,62.937009)"
     id="g7" /><g
     transform="translate(1,62.937009)"
     id="g9" /><g
     transform="translate(1,62.937009)"
     id="g11" /><g
     transform="translate(1,62.937009)"
     id="g13" /><g
     transform="translate(1,62.937009)"
     id="g15" /><g
     transform="translate(1,62.937009)"
     id="g17" /><g
     transform="translate(1,62.937009)"
     id="g19" /><g
     transform="translate(1,62.937009)"
     id="g21" /><g
     transform="translate(1,62.937009)"
     id="g23" /><g
     transform="translate(1,62.937009)"
     id="g25" /><g
     transform="translate(1,62.937009)"
     id="g27" /><g
     transform="translate(1,62.937009)"
     id="g29" /><g
     transform="translate(1,62.937009)"
     id="g31" /><g
     transform="translate(1,62.937009)"
     id="g33" /><g
     transform="translate(1,62.937009)"
     id="g35" /></svg>
