<svg xmlns:rdf="http://www.w3.org/1999/02/22-rdf-syntax-ns#" xmlns="http://www.w3.org/2000/svg" xml:space="preserve" height="545" viewBox="0 0 545 545" width="545" version="1.1" xmlns:cc="http://creativecommons.org/ns#" xmlns:dc="http://purl.org/dc/elements/1.1/"><defs><clipPath id="e" clipPathUnits="userSpaceOnUse"><path d="m0 64.834h435.16v-64.834h-435.16v64.834z"/></clipPath><clipPath id="d" clipPathUnits="userSpaceOnUse"><path d="m289.38 32.423c0-13.948 10.24-25.471 23.605-27.546v14.296c-4.164 1.7-7.102 5.78-7.102 10.561 0 6.297 5.108 11.403 11.407 11.403s11.404-5.106 11.404-11.403c0-4.779-2.935-8.861-7.099-10.561v-14.294c13.365 2.075 23.603 13.599 23.603 27.544 0 15.415-12.496 27.909-27.91 27.909-15.412 0-27.908-12.494-27.908-27.909"/></clipPath><radialGradient id="b" gradientUnits="userSpaceOnUse" cy="0" cx="0" gradientTransform="matrix(56.818 0 0 -56.818 317.52 3.7754)" r="1"><stop stop-color="#afe3f7" offset="0"/><stop stop-color="#afe3f7" offset=".018121"/><stop stop-color="#258dd5" offset=".56508"/><stop stop-color="#2271c0" offset=".86915"/><stop stop-color="#2271c0" offset="1"/></radialGradient><clipPath id="c" clipPathUnits="userSpaceOnUse"><path d="m295.25 39.033c0-7.936 5.844-14.701 14.074-17.414-2.105 2.068-3.432 4.926-3.432 8.115 0 6.297 5.108 11.403 11.407 11.403s11.404-5.106 11.404-11.403c0-3.187-1.324-6.044-3.429-8.113 8.228 2.713 14.07 9.478 14.07 17.412 0 10.322-9.872 18.691-22.047 18.691-12.176 0-22.047-8.369-22.047-18.691m9.734 10.321c0 1.734 1.405 3.138 3.137 3.138s3.134-1.404 3.134-3.138c0-1.731-1.402-3.135-3.134-3.135s-3.137 1.404-3.137 3.135"/></clipPath><radialGradient id="a" gradientUnits="userSpaceOnUse" cy="0" cx="0" gradientTransform="matrix(45.282 0 0 -45.282 318.71 12.182)" r="1"><stop stop-color="#afe3f7" offset="0"/><stop stop-color="#afe3f7" offset=".12064"/><stop stop-color="#afe3f7" offset=".12543"/><stop stop-color="#10a9ea" offset=".57777"/><stop stop-color="#10a9ea" offset=".78273"/><stop stop-color="#7bd4f6" offset="1"/></radialGradient><clipPath id="f" clipPathUnits="userSpaceOnUse"><path d="m0 64.834h435.16v-64.834h-435.16v64.834z"/></clipPath></defs><g transform="matrix(1.25,0,0,-1.25,0,545)"><g transform="translate(32.707 193.71)"><path d="m0 0-27.305 47.236h12.558l19.126-34.143 18.234 34.143h10.949l-25.965-47.236h-7.597z" fill="#5a5758"/></g><path d="m76.805 240.94h10.994v-47.236h-10.994v47.236z" fill="#5a5758"/><g transform="translate(.77245 185.4)"><g clip-path="url(#e)"><g transform="translate(119.87 17.201)"><path d="m0 0h14.211c7.566 0 12.93 1.178 16.088 3.531 3.156 2.356 4.736 6.242 4.736 11.664 0 4.828-1.31 8.484-3.931 10.972-2.624 2.487-6.497 3.73-11.62 3.73h-19.484v-29.897zm-10.994-8.892v47.236h30.389c8.669 0 15.335-2.026 19.998-6.077 4.662-4.052 6.994-9.802 6.994-17.25 0-4.411-0.908-8.38-2.727-11.912-1.818-3.529-4.379-6.306-7.687-8.332-2.055-1.281-4.61-2.212-7.664-2.794-3.053-0.581-6.963-0.871-11.731-0.871h-27.572z" fill="#5a5758"/></g><path d="m184.12 55.545h10.994v-47.236h-10.994v47.236z" fill="#5a5758"/><g transform="translate(226.75 41.604)"><path d="m0 0 0.002-33.294h-9.875v47.235h7.508l38.164-32.62v32.62h9.877v-47.235h-7.51l-38.166 33.294z" fill="#5a5758"/></g><g transform="translate(385.91 47.099)"><path d="m0 0v-38.789h-10.994v38.789h-21.674v8.447h54.432v-8.447h-21.764z" fill="#5a5758"/></g><path d="m418.83 55.545h10.994v-47.236h-10.994v47.236z" fill="#5a5758"/></g></g><g transform="translate(.77245 185.4)"><g clip-path="url(#d)"><path fill="url(#b)" d="m289.38 32.423c0-13.948 10.24-25.471 23.605-27.546v14.296c-4.164 1.7-7.102 5.78-7.102 10.561 0 6.297 5.108 11.403 11.407 11.403s11.404-5.106 11.404-11.403c0-4.779-2.935-8.861-7.099-10.561v-14.294c13.365 2.075 23.603 13.599 23.603 27.544 0 15.415-12.496 27.909-27.91 27.909-15.412 0-27.908-12.494-27.908-27.909"/></g></g><g transform="translate(.77245 185.4)"><g clip-path="url(#c)"><path fill="url(#a)" d="m295.25 39.033c0-7.936 5.844-14.701 14.074-17.414-2.105 2.068-3.432 4.926-3.432 8.115 0 6.297 5.108 11.403 11.407 11.403s11.404-5.106 11.404-11.403c0-3.187-1.324-6.044-3.429-8.113 8.228 2.713 14.07 9.478 14.07 17.412 0 10.322-9.872 18.691-22.047 18.691-12.176 0-22.047-8.369-22.047-18.691m9.734 10.321c0 1.734 1.405 3.138 3.137 3.138s3.134-1.404 3.134-3.138c0-1.731-1.402-3.135-3.134-3.135s-3.137 1.404-3.137 3.135"/></g></g><g transform="translate(.77245 185.4)"><g clip-path="url(#f)"><g transform="translate(308.12 52.491)"><path d="m0 0c-1.732 0-3.137-1.403-3.137-3.137 0-1.731 1.405-3.134 3.137-3.134s3.135 1.403 3.135 3.134c0 1.734-1.403 3.137-3.135 3.137" fill="#fff"/></g></g></g></g></svg>
