<?xml version="1.0" encoding="UTF-8" standalone="no"?>
<!-- Created with Inkscape (http://www.inkscape.org/) -->

<svg
   version="1.1"
   id="svg1"
   width="192"
   height="192"
   viewBox="0 0 192 192"
   xmlns="http://www.w3.org/2000/svg"
   xmlns:svg="http://www.w3.org/2000/svg">
  <defs
     id="defs1" />
  <g
     id="g1">
    <g
       id="group-R5">
      <path
         id="path2"
         d="m 1227.32,212.719 h -216.48 v 375.633 c 0,110.82 -47.113,145 -107.883,145 -64.23,0 -127.219,-48.34 -127.219,-147.762 V 212.719 H 559.254 v 687.734 h 208.195 v -95.285 h 2.762 c 20.949,42.34 94.074,114.621 205.773,114.621 120.796,0 251.336,-71.656 251.336,-281.719 z M 320.961,996.277 c -68.938,0 -124.816,52.463 -124.816,124.263 0,71.8 55.878,124.32 124.816,124.32 68.93,0 124.812,-52.52 124.812,-124.32 0,-71.8 -55.882,-124.263 -124.812,-124.263 z M 429.203,213.238 H 212.719 V 900.984 H 429.203 Z M 1333.74,1440 H 106.301 C 47.5898,1440 0.00390625,1392.41 0.00390625,1333.7 V 106.301 C 0.00390625,47.5898 47.5898,0 106.301,0 H 1333.74 c 58.71,0 106.3,47.5898 106.3,106.301 V 1333.7 c 0,58.71 -47.59,106.3 -106.3,106.3"
         style="fill:#2081c5;fill-opacity:1;fill-rule:nonzero;stroke:none"
         transform="matrix(0.13333333,0,0,-0.13333333,0,192)" />
    </g>
  </g>
</svg>
