<svg xmlns:rdf="http://www.w3.org/1999/02/22-rdf-syntax-ns#" xmlns="http://www.w3.org/2000/svg" height="350" width="350" version="1.1" xmlns:cc="http://creativecommons.org/ns#" xmlns:dc="http://purl.org/dc/elements/1.1/" viewBox="0 0 350 350.00001">
<g transform="translate(-421.87 -347.13)">
<g transform="matrix(1.3796,0,0,-1.3796,745.86,492.31)">
<path fill="#049fd9" d="m0 0c0 2.587-2.104 4.684-4.687 4.684-2.59 0-4.694-2.097-4.694-4.684v-9.853c0-2.601 2.104-4.699 4.694-4.699 2.583 0 4.687 2.098 4.687 4.699v9.853zm-25.787 12.932c0 2.586-2.098 4.687-4.746 4.687-2.59 0-4.688-2.101-4.688-4.687v-22.785c0-2.601 2.098-4.699 4.688-4.699 2.648 0 4.746 2.098 4.746 4.699v22.785zm-25.84 17.692c0 2.587-2.098 4.685-4.687 4.685-2.59 0-4.688-2.098-4.688-4.685v-49.84c0-2.602 2.098-4.699 4.688-4.699 2.589 0 4.687 2.097 4.687 4.699v49.84zm-25.846-17.692c0 2.586-2.097 4.687-4.687 4.687-2.584 0-4.688-2.101-4.688-4.687v-22.785c0-2.601 2.104-4.699 4.688-4.699 2.59 0 4.687 2.098 4.687 4.699v22.785zm-25.837-12.932c0 2.587-2.097 4.684-4.672 4.684-2.59 0-4.702-2.097-4.702-4.684v-9.853c0-2.601 2.112-4.699 4.702-4.699 2.575 0 4.672 2.098 4.672 4.699v9.853zm-25.798 12.932c0 2.586-2.113 4.687-4.702 4.687-2.59 0-4.703-2.101-4.703-4.687v-22.785c0-2.601 2.113-4.699 4.703-4.699 2.589 0 4.702 2.098 4.702 4.699v22.785zm-25.828 17.692c0 2.587-2.113 4.685-4.703 4.685-2.589 0-4.702-2.098-4.702-4.685v-49.84c0-2.602 2.113-4.699 4.702-4.699 2.59 0 4.703 2.097 4.703 4.699v49.84zm-25.829-17.692c0 2.586-2.112 4.687-4.702 4.687s-4.702-2.101-4.702-4.687v-22.785c0-2.601 2.112-4.699 4.702-4.699s4.702 2.098 4.702 4.699v22.785zm-25.83-12.932c0 2.587-2.112 4.684-4.702 4.684-2.58 0-4.7-2.097-4.7-4.684v-9.853c0-2.601 2.115-4.699 4.702-4.699 2.59 0 4.702 2.098 4.702 4.699v9.853zm97.076-40.855c-0.282 0.077-4.621 1.196-9.232 1.196-8.73 0-13.986-4.714-13.986-11.734 0-6.214 4.397-9.313 9.674-10.98 0.585-0.193 1.447-0.463 2.021-0.653 2.349-0.739 4.224-1.837 4.224-3.739 0-2.127-2.167-3.504-6.878-3.504-4.14 0-8.109 1.184-8.945 1.395v-8.637c0.466-0.099 5.183-1.025 10.222-1.025 7.248 0 15.539 3.167 15.539 12.595 0 4.573-2.8 8.783-8.947 10.737l-2.613 0.832c-1.559 0.492-4.342 1.289-4.342 3.574 0 1.805 2.062 3.076 5.859 3.076 3.276 0 7.263-1.101 7.404-1.145v8.012zm80.041-18.243c0-5.461-4.183-9.879-9.796-9.879-5.619 0-9.791 4.418-9.791 9.879 0 5.45 4.172 9.87 9.791 9.87 5.613 0 9.796-4.42 9.796-9.87m-9.796 19.427c-11.544 0-19.823-8.707-19.823-19.427 0-10.737 8.279-19.438 19.823-19.438 11.543 0 19.834 8.701 19.834 19.438 0 10.72-8.291 19.427-19.834 19.427m-128.66-1.345c-0.89 0.264-4.18 1.345-8.636 1.345-11.526 0-19.987-8.218-19.987-19.427 0-12.093 9.34-19.438 19.987-19.438 4.23 0 7.459 1.002 8.636 1.336v10.075c-0.407-0.226-3.503-1.992-7.957-1.992-6.31 0-10.38 4.441-10.38 10.019 0 5.748 4.246 10.011 10.38 10.011 4.53 0 7.576-1.805 7.957-2.004v10.075zm98.86 0c-0.897 0.264-4.19 1.345-8.631 1.345-11.543 0-20.004-8.218-20.004-19.427 0-12.093 9.351-19.438 20.004-19.438 4.207 0 7.441 1.002 8.631 1.336v10.075c-0.416-0.226-3.516-1.992-7.969-1.992-6.305 0-10.371 4.441-10.371 10.019 0 5.748 4.248 10.011 10.371 10.011 4.529 0 7.582-1.805 7.969-2.004v10.075zm-76.369-36.852h-9.472v37.532h9.472v-37.532z"/>
</g>
</g>
</svg>
