<svg xmlns:rdf="http://www.w3.org/1999/02/22-rdf-syntax-ns#" xmlns="http://www.w3.org/2000/svg" xml:space="preserve" height="300" viewBox="0 0 299.99999 300" width="300" version="1.1" y="0px" x="0px" xmlns:cc="http://creativecommons.org/ns#" xmlns:dc="http://purl.org/dc/elements/1.1/"><style type="text/css"><![CDATA[
	.st0{fill:none;}
	.st1{fill:#003662;}
]]></style><g fill="#003662"><path class="st1" d="m133.78 157.08h-18.676v4.242l0.58-0.06 0.014-0.071c0.125-0.627 1.248-1.827 2.631-1.827h4.171c0 0.194 0.002 21.766 0.002 21.766h4.075s-0.024-21.555-0.024-21.75h4.267c1.409 0 2.333 0.773 2.49 1.5l0.018 0.079 0.591-0.018-0.04-3.861h-0.099z"/><path class="st1" d="m12.606 155.62l0.07 0.068-0.07-0.068c-2.702 2.809-4.251 6.66-4.251 10.568 0 4.349 1.754 8.303 4.941 11.133 3.044 2.704 7.114 4.192 11.461 4.192 2.277 0 6.742-0.387 11.05-2.982l0.167-0.101 0.513-6.124-0.805-0.103-0.119 0.25c-3.163 6.614-8.143 6.614-10.018 6.614-8.398 0-12.224-6.966-12.224-13.438 0-6.26 3.789-12.578 12.254-12.578 2.596 0 7.316 0.849 9.772 6.527l0.136 0.314 0.79-0.242-0.516-6.383-0.21-0.09c-3.945-1.721-7.127-2.487-10.316-2.487-5.154 0-9.52 1.705-12.625 4.93z"/><path class="st1" d="m40.502 157.08h-0.1l0.007 0.556 0.051 0.026c0.342 0.182 0.722 1.108 0.722 2.145v21.325h4s-0.015-10.761-0.016-10.958c0.176 0.005 1.75 0.045 1.75 0.045 1.572 0.088 2.192 1.129 2.978 2.447 0 0.001 0.098 0.163 0.098 0.163l0.503 0.849c0.855 1.443 2.027 3.422 3.245 5.23 0.875 1.301 1.968 2.048 3.34 2.285 0.979 0.17 2.934 0.104 3.67-0.122-0.004 0.001 0.881-0.228 0.881-0.228l0.334-0.086-1.215-0.375c-0.49-0.151-1.262-0.49-2.3-1.688-0.643-0.742-1.683-2.401-3.257-4.914-0.003-0.006-1.56-2.482-1.56-2.482-0.001-0.002-0.03-0.044-0.03-0.044-0.417-0.61-1.115-1.598-2.288-2.226 2.253-0.737 4.465-2.79 4.465-5.848 0-0.868-0.223-2.534-1.712-3.945-1.51-1.431-3.862-2.156-6.992-2.156h-6.574zm6.845 2.168c4.104 0.173 4.222 3.643 4.222 4.037 0 3.492-2.579 4.731-4.787 4.731 0 0-1.436-0.03-1.604-0.034v-8.697c0.418-0.034 1.186-0.078 2.169-0.037z"/><path class="st1" d="m81.44 157.08h-0.111l0.075 0.596 0.047 0.023c0.349 0.174 0.678 1.035 0.678 1.773l-0.023 21.659h6.857c4.527 0 8.274-1.409 10.835-4.073 2.127-2.213 3.347-5.249 3.347-8.33 0-1.862-0.628-4.674-2.391-6.981-2.364-3.097-6.112-4.667-11.142-4.667h-8.172zm4.742 2.308c0.18 0 2.146 0.005 2.146 0.005 0.571 0.008 2.013 0.043 3.026 0.197 6.737 1.021 7.464 6.731 7.464 9.139 0 1.973-0.352 4.781-2.027 6.953-1.643 2.131-4.219 3.211-7.658 3.211-0.82 0-1.84-0.002-2.952-0.053 0.001-0.187 0.001-19.259 0.001-19.452z"/><path class="st1" d="m111.43 157.08h-4.7l0.016 0.582 0.053 0.027c0.433 0.215 0.713 0.997 0.713 1.992l-0.001 21.45h4.012l0.006-24.052h-0.099z"/><path class="st1" d="m192.24 157.08h-4.729l0.047 0.541 0.049 0.025c0.426 0.213 0.713 1.03 0.713 2.035v21.45h4.012l0.006-24.052h-0.098z"/><path class="st1" d="m76.256 157.08h-13.446l0.076 0.564 0.046 0.023c0.367 0.182 0.747 1.032 0.747 2.139l-0.002 21.325h13.428l0.976-4.262-0.541-0.194-0.152 0.237c-1.111 1.747-2.239 1.979-6.135 1.979-1.388 0.029-2.742-0.092-3.59-0.171v-9.815h6.793v-2.168s-6.605-0.001-6.793-0.001v-7.482c0.191 0.002 5.507 0.063 5.507 0.063 1.241 0 2.605 1.188 2.725 1.905l0.015 0.084 0.55-0.013-0.108-4.215h-0.096z"/><path class="st1" d="m248.16 157.08h-13.402l0.027 0.615 0.053 0.025c0.361 0.181 0.746 0.974 0.746 2.086l-0.002 21.325h13.428l0.977-4.266-0.607-0.188-0.15 0.235c-1.111 1.747-2.227 1.979-6.07 1.979-1.389 0.029-2.742-0.092-3.59-0.171v-9.815h6.793v-2.168s-6.604-0.001-6.793-0.001v-7.482c0.193 0.002 5.508 0.063 5.508 0.063 1.52 0 2.662 1.158 2.662 1.91v0.104l0.625-0.041-0.107-4.211h-0.098z"/><path class="st1" d="m145.46 152.58c-1.415 1.017-3.108 2.887-3.141 6.026v0.092c0 3.859 2.459 5.887 6.421 7.897 0 0-0.008-0.022-0.014-0.04 0.102 0.084 0.447 0.262 1.523 0.81 3.309 1.661 5.698 2.862 5.698 6.239 0 1.159-0.438 2.83-1.664 4.044-1.021 1.011-2.393 1.515-4.079 1.497-5.051-0.052-6.839-4.48-7.373-6.383l-0.092-0.33-0.849 0.141 0.235 6.286 0.183 0.104c1.612 0.938 4.31 2.506 8.173 2.545 2.737 0.027 5.512-1.087 7.424-2.981 1.68-1.662 2.566-3.768 2.566-6.091 0-5.099-3.652-7.012-7.525-9.04l-0.727-0.382c-3.965-1.991-5.831-3.203-5.805-5.703 0.018-1.698 1.297-4.382 4.655-4.348 3.904 0.039 6.06 2.977 6.501 4.818l0.08 0.334 0.84-0.108-0.287-5.442-0.156-0.106c-2.313-1.559-5.213-1.753-6.354-1.764-2.262-0.022-4.535 0.664-6.233 1.885z"/><path class="st1" d="m198.72 163.16c-0.033 3.332 1.967 5.02 5.207 6.664 0 0 1.221 0.622 1.223 0.622 2.551 1.282 4.238 2.128 4.238 4.524 0 0.418-0.086 1.868-1.199 2.97-0.771 0.764-1.842 1.144-3.178 1.13-3.826-0.038-5.23-3.014-5.727-4.784l-0.094-0.33-0.811 0.134 0.189 5.066 0.184 0.105c1.275 0.742 3.408 1.982 6.475 2.014 2.176 0.023 4.383-0.863 5.904-2.371 1.338-1.324 2.045-3.002 2.045-4.854 0-4.212-2.914-5.738-5.998-7.354 0 0-0.543-0.285-0.545-0.286-3.313-1.664-4.469-2.411-4.451-4.268 0.012-1.303 0.99-3.231 3.625-3.205 3.223 0.033 4.631 2.365 4.926 3.594l0.078 0.335 0.811-0.105-0.232-4.401-0.158-0.105c-1.84-1.241-4.141-1.395-5.047-1.403-3.588-0.037-7.422 2.162-7.465 6.308z"/><path class="st1" d="m216.72 163.16c-0.033 3.331 1.967 5.02 5.209 6.665l1.221 0.621c2.553 1.282 4.238 2.129 4.238 4.524 0 0.418-0.088 1.868-1.199 2.97-0.771 0.764-1.842 1.144-3.178 1.13-3.824-0.038-5.23-3.014-5.727-4.784l-0.094-0.33-0.811 0.134 0.189 5.065 0.184 0.106c1.275 0.742 3.41 1.982 6.475 2.014 2.176 0.023 4.383-0.863 5.904-2.371 1.338-1.324 2.045-3.002 2.045-4.854 0-4.212-2.912-5.738-5.998-7.354 0 0-0.543-0.285-0.545-0.286-3.313-1.663-4.469-2.411-4.451-4.268 0.008-0.821 0.371-1.662 0.969-2.248 0.648-0.637 1.568-0.968 2.658-0.957 3.223 0.033 4.629 2.365 4.922 3.595l0.082 0.334 0.809-0.105-0.232-4.401-0.158-0.105c-1.84-1.241-4.143-1.395-5.045-1.403-3.588-0.037-7.424 2.162-7.467 6.308z"/><path class="st1" d="m182.26 157.06-3.16 0.021 0.051 0.541 0.049 0.024c0.158 0.079 0.678 0.456 0.678 1.976l0.018 13.671c0 2.648-0.971 5.806-5.598 5.806-4.371 0-5.268-2.614-5.268-6.54l0.004-15.479h-5l0.037 0.536 0.047 0.025c0.32 0.169 0.859 0.804 0.859 2.103v12.814c0 7.96 5.232 8.881 9.17 8.881 1.922 0 8.195-0.583 8.195-8.088l0.018-16.293-0.1 0.002z"/></g><g transform="translate(-5.8175 105.96)"><path fill="#003662" class="st1" d="m288.49 44.245c2.828 0.908 5.828 2.181 8.975 3.94-7.725-12.76-21.545-26.659-35.104-35.665 3.496 3.46 9.168 11.077 10.639 19.245 5.555 3.958 10.797 8.17 15.49 12.48z"/><path fill="#003662" class="st1" d="m288.48 44.24c-6.627-2.132-12.275-2.238-16.467-1.807 1.475-3.457 1.625-7.104 0.99-10.65-10.262-7.311-21.572-13.771-32.447-18.383 7.98 5.403 16.777 20.989 20.469 37.708 7.865-2.329 19.979-3.935 35.594 1.319-2.456-2.741-5.19-5.483-8.139-8.187z"/><path fill="none" class="st0" d="m273 31.766c0.641 3.551 0.49 7.204-0.986 10.668 4.193-0.432 9.846-0.325 16.477 1.811-4.694-4.31-9.936-8.522-15.491-12.479z"/></g></svg>
