<svg xmlns:rdf="http://www.w3.org/1999/02/22-rdf-syntax-ns#" xmlns="http://www.w3.org/2000/svg" height="435" width="435" version="1.1" xmlns:cc="http://creativecommons.org/ns#" xmlns:dc="http://purl.org/dc/elements/1.1/">
<defs>
<clipPath id="a" clipPathUnits="userSpaceOnUse">
<path d="m482.7 38.183h60.842v56.054h-60.842v-56.054z"/>
</clipPath>
</defs>
<g transform="translate(0,-333)">
<g transform="matrix(9.375 0 0 -9.375 -4628.4 1159.6)">
<g transform="matrix(.14162 0 0 -.14090 536.4 28.559)">
<g transform="translate(-232.11 -191.24)">
<path d="m0 0 5.603-154.52 28.022-63.24 210.56-12.01 8.81 233.77-252.99-4z" fill="#f1471d"/>
</g>
</g>
<g transform="matrix(.14162 0 0 -.14090 536.4 28.559)">
<g transform="translate(-296.3 -97.192)">
<path d="m0 0v-71.516h49.453v10.045h-34.131v19.643h25.34v10.044h-25.34v21.74h35.061v10.044h-50.383z" fill="#231f20"/>
</g>
</g>
<g transform="matrix(.14162 0 0 -.14090 536.4 28.559)">
<g transform="translate(-232.25 -97.191)">
<path d="m0 0v-71.517h15.312v61.358h29.95v10.159h-45.262z" fill="#231f20"/>
</g>
</g>
<g clip-path="url(#a)">
<g transform="matrix(.14162 0 0 -.14090 536.4 28.559)">
<g transform="translate(-120.65 -118.97)">
<path d="m0 0c-3.563 14.889-16.062 23.188-29.625 23.188-8.134 0-16.362-2.38-22.108-7.862-6.147-5.795-10.089-15.094-10.089-29.73 0-12.667 3.6-22.234 9.962-28.444 5.779-5.434 13.415-8.304 22.372-8.304 14.172 0 25.55 6.852 28.66 22.325l-15.389 1.355c-1.938-8.587-5.731-13.532-13.363-13.532-9.34 0-16.547 7.405-16.547 27.139 0 20.098 7.653 26.928 16.385 26.928 8.309 0 12.856-7.151 14.164-14.846l15.578 1.783z" fill="#231f20"/>
</g>
</g>
<g transform="matrix(.14162 0 0 -.14090 536.4 28.559)">
<g transform="translate(-73.133 -143.11)">
<path d="m0 0c-1.647-5.456-3.262-10.708-4.826-17.032h-0.797c-1.506 6.295-3.162 11.776-4.715 17.038l-5.037 17.045h20.391l-5.016-17.051zm-18.675 27.068-5.562 18.853h-16.65l25.35-71.516h20.746l25.375 71.516h-16.632l-5.663-18.853h-26.964z" fill="#231f20"/>
</g>
</g>
</g>
</g>
</g>
</svg>
