<?xml version="1.0" encoding="UTF-8" standalone="no"?>
<svg xmlns:rdf="http://www.w3.org/1999/02/22-rdf-syntax-ns#" xmlns="http://www.w3.org/2000/svg" xml:space="preserve" height="767" width="767" version="1.1" xmlns:cc="http://creativecommons.org/ns#" xmlns:dc="http://purl.org/dc/elements/1.1/" viewBox="0 0 767 767"><g transform="matrix(1.3333 0 0 -1.3333 .18078 497.25)"><g transform="scale(.1)"><path d="m5553.2 547.1v-77.762h67.68v77.762h77.75v67.679h-77.75v77.758h-67.68v-77.758h-75.6v-67.679h75.6" fill="#fff"/><path d="m5475.5 614.78h77.77v77.758h67.68v-77.758h77.75v-67.679h-77.75v-77.762h-67.68v77.762h-77.77zm-51.11 128.87v-325.43h325.42v325.43h-325.42" fill="#ed1c24"/><g fill="#112552" fill-rule="evenodd"><path d="m2311.8 1706.3c75.6 0 137.52-61.2 137.52-136.8 0-76.32-61.92-137.52-137.52-137.52s-137.52 61.2-137.52 137.52c0 75.6 61.92 136.8 137.52 136.8"/><path d="m759.48 1694.8c34.563-113.76 67.684-229.68 97.204-345.6h-211.68c-2.16 54-23.031 103.68-72.723 133.92-84.238 56.16-217.44-5.76-224.64-108-7.196-59.05 17.281-109.44 65.523-142.56 73.438-40.32 189.36-32.4 264.96-4.32 0 0 43.922-143.28 60.484-213.84-99.363 35.28-236.16 48.24-316.8-36.005-154.8-144.75-32.4-388.83 165.6-396.75 223.92 8.64 231.12 149.77 252.72 260.65 89.28-108.73 102.96-300.23 29.52-424.08h-723.6c-243.36 200.88-166.32 578.88 110.89 701.98-110.88 40.3-181.45 155.5-191.53 267.1-9.3593 128.16 56.879 252 174.24 307.44h519.84"/><path d="m1375.1 661.63c-1.44-37.43-15.06-43.199-48.18-43.91h-96.54v579.26h97.2c30.24 0.72 47.52-15.62 47.52-45.91zm-394.56 731.91v-1301.4l249.84 92.16v234.72h306.08c54.46 0 84.16 16.09 84.16 85.121v796.54c0 60.99-29.6 92.88-84.16 92.88h-555.92"/><path d="m3648.8 611.09c-33.13 0.711-51.12 6.48-52.56 43.91v494.09c0 40.52 13.16 45.92 52.56 45.92h93.61v-583.92zm342.01 781.2h-543.05c-58.14 0-97.03-45.36-97.03-85.68v-789.12c-0.72-56.156 47.6-97.918 97.03-97.918h294.65v-55.449c-459-295.07-1760.6-204.72-2208.3-40.31l-216.71-97.91c474.57-241.06 1981.4-372.76 2673.4 43.191 0 0-0.72 748.09 0 1123.2"/><path d="m4348 1179.7c0 7.95 4.28 17.28 19.33 17.28h116.04c13.67 0 17.99-9.99 17.99-17.28v-149.76l-153.36-60.475zm403.2-659.16v89.27h-378.71c-14.96 0-24.49 11.07-24.49 24.492v157.32l403.2 167.04v346.41c0 46.22-38.01 88.48-85.6 88.48h-493.27c-37.12 0-69.8-34.24-69.8-78.48v-827.03c0-48.848 35.43-70.457 69.8-70.457h434.15c71.28 0.707 148.32-10.812 144.72 102.96"/><path d="m2431.8 1291.1c1.44 64.8-24.54 101.52-86.32 101.52h-321.92v236.16c0.72 56.88-14.42 67.68-67.04 67.68h-174.88v-303.84h-115.2v-113.76h115.2v-718.58c2.48-88.59 51.37-141.75 127.34-141.75h114.58v860.33h164.88v-718.57c1.8-80.539 48.56-141.76 124.03-141.76h119.33v872.57"/><path d="m3130.5 1393.1h-574.64v-831.6c2.25-82.16 55.41-143.28 129.24-143.28h119.16v778.32h135.36c30.23 0.72 47.52-1.45 48.96-25.92v-612.01c1.88-83.398 55.86-140.39 128.46-140.39h115.63v870.48c-1.45 60.48-38.13 104.4-102.17 104.4"/><path d="m5393.5 1393.8h-528.34v-832.32c1.97-90.41 60.27-144.51 130.04-144.51h118.84v779.55h70.57c30.23 0.72 48.24-11.45 48.96-35.92v-182.96l244.09 100.07v234.09c0 42.48-36.35 82-84.16 82"/></g></g></g></svg>
