<?xml version="1.0" encoding="UTF-8" standalone="no"?>
<svg xmlns:rdf="http://www.w3.org/1999/02/22-rdf-syntax-ns#" xmlns="http://www.w3.org/2000/svg" height="1e3" width="1e3" version="1.1" xmlns:cc="http://creativecommons.org/ns#" xmlns:dc="http://purl.org/dc/elements/1.1/">
 <path fill="#1f70c1" d="m100 340v21.894h155.72v-21.894h-155.72zm177.78 0v21.894h221.91s-22.67-21.89-52.69-21.89h-169.22zm265.44 0v21.894h134.25l-7.97-21.89h-126.28zm230.5 0-7.9688 21.894h133.03v-21.894h-125.06zm-673.72 42.58v21.894h155.72v-21.894h-155.72zm177.78 0.031v21.863h247.66c0 0.00001-2.8925-16.85-7.9375-21.863h-239.72zm265.44 0v21.863h148.97l-7.375-21.863h-141.59zm214.56 0-7.375 21.863h148.38v-21.863h-141zm-613.03 42.55v21.925h67.438v-21.925h-67.438zm177.78 0v21.925h67.437v-21.925h-67.437zm133.03 0v21.925h67.438c0.00001 0 4.2812-11.578 4.2812-21.925h-71.719zm132.41 0v21.925h119.56l-7.9688-21.925h-111.59zm155.12 0-8 21.925h120.16v-21.925h-112.16zm-598.34 42.6v21.894h67.438v-21.894h-67.438zm177.78 0v21.894h172.25c0-0.00001 14.409-11.234 19-21.894h-191.25zm265.44 0v21.894h67.438v-12.187l4.2812 12.187h123.53l4.5938-12.187v12.187h67.438v-21.894h-126.59l-6.7188 18.544-6.75-18.544h-127.22zm-443.22 42.58v21.894h67.438v-21.894h-67.438zm177.78 0v21.894h191.25c-4.592-10.625-19-21.894-19-21.894h-172.25zm265.44 0v21.894h67.438v-21.894h-67.438zm79.688 0 8.1562 21.894h92.625l7.75-21.894h-108.53zm120.16 0v21.894h67.438v-21.894h-67.438zm-643.06 42.578v21.894h67.438v-21.894h-67.438zm177.78 0v21.894h67.437v-21.894h-67.437zm133.03 0v21.894h71.719c-0.01-10.33-4.29-21.89-4.29-21.89h-67.438zm132.41 0v21.894h67.438v-21.894h-67.438zm95 0 7.9063 21.894h62.094l7.9688-21.894h-77.969zm104.84 0v21.894h67.438v-21.894h-67.438zm-686.59 42.578v21.925h155.72v-21.925h-155.72zm176.56 0v21.925h239.72c5.045-5.0203 7.9375-21.925 7.9375-21.925h-247.66zm266.66 0v21.925h110.97v-21.925h-110.97zm153.88 0 8.125 21.925h31.594l7.625-21.925h-47.344zm89.5 0v21.925h112.19v-21.925h-112.19zm-686.59 42.609v21.894h155.72v-21.894h-155.72zm176.56 0v21.863h169.22c30.021-0.00001 52.688-21.863 52.688-21.863h-221.91zm266.66 0v21.894h110.97v-21.894h-110.97zm169.28 0 7.8125 21.832 1.3437 0.031 7.9375-21.863h-17.094zm74.094 0v21.894h112.19v-21.894h-112.19z"/>
</svg>
