<?xml version="1.0" encoding="UTF-8" standalone="no"?>
<svg xmlns:rdf="http://www.w3.org/1999/02/22-rdf-syntax-ns#" xmlns="http://www.w3.org/2000/svg" height="982.73" width="982.73" version="1.1" xmlns:cc="http://creativecommons.org/ns#" xmlns:dc="http://purl.org/dc/elements/1.1/">
 <g transform="translate(-65.341 -472.84)">
  <g transform="translate(-8.7109e-7 -342.03)">
   <path d="m65.841 1368v-206.19h36.263v206.19z"/>
   <path d="m194.93 1218.4c-46.494 0-78.668 35.706-78.668 76.575 0 45.612 35.002 77.034 79.03 77.034 41.785 0 78.044-30.844 78.044-77.133 0-38.925-30.046-76.476-78.406-76.476zm-0.42701 34.941c24.332 0 42.241 18.918 42.241 41.765 0 24.224-19.746 41.896-41.584 41.896-25.805 0-42.044-20.428-42.044-41.831 0-23.46 18.335-41.831 41.387-41.831z"/>
   <path d="m364.45 1218.4c-46.494 0-78.668 35.706-78.668 76.575 0 45.612 35.002 77.034 79.03 77.034 41.785 0 78.044-30.844 78.044-77.133 0-27.258-11.818-39.353-11.818-39.353l10.051-3.4426v-29.396h-51.504s-11.166-4.2844-25.134-4.2844zm-0.427 34.941c24.332 0 42.241 18.918 42.241 41.765 0 24.224-19.746 41.896-41.584 41.896-25.805 0-42.044-20.428-42.044-41.831 0-23.46 18.335-41.831 41.387-41.831z"/>
   <path d="m406 1378c0 24.225-19.746 42.028-41.584 42.028-25.805 0-42.11-20.625-42.11-42.028h-36.789c0 45.612 35.002 77.034 79.03 77.034 41.785 0 78.044-30.745 78.044-77.034z"/>
   <path d="m457.38 1368v-145.3h36.263v145.3z"/>
   <path d="m528.85 1368v-112.76h-19.445v-32.546h19.445v-44.62h36.263v44.62h19.971v32.546h-19.971v112.76z"/>
   <ellipse rx="24.013" ry="23.985" cy="1181.4" cx="475.43"/>
   <path d="m666.61 1218.3c-46.714 0-76.829 35.725-76.829 77.986 0 43.672 30.215 75.82 77.584 75.82 44.188 0 65.924-27.559 65.924-27.559l-24.241-24.246s-18.303 19.718-41.223 19.718c-19.106 0-34.382-10.652-39.712-30.184h112.99v-9.9737c0-39.797-23.061-81.562-74.497-81.562zm-1.1496 31.89c16.705 0 33.789 8.9266 37.61 30.249h-75.942c3.0079-14.989 16.136-30.249 38.332-30.249z"/>
   <path d="m831.81 1372.1c-46.846 0-78.767-35.638-78.767-77.658 0-43.364 36.076-76.195 78.616-76.195 41.125 0 62.175 28.997 62.175 28.997l-25.296 25.152s-14.654-18.911-37.05-18.911c-24.823 0-41.796 18.967-41.796 41.512 0 23.805 18.055 42.069 41.517 42.069 22.757 0 37.294-18.88 37.294-18.88l25.55 25.139s-20.845 28.774-62.242 28.774z"/>
   <path d="m907.25 1368.1v-206.82h36.263v75.988s13.885-18.981 44.09-18.981c37.971 0 59.97 28.194 59.97 64.253v85.565h-36.263v-80.09c0-24.225-15.1-34.276-31.828-34.276-19.059 0-35.968 10.834-35.968 36.15v78.216z"/>
  </g>
 </g>
</svg>
