<?xml version="1.0" encoding="UTF-8" standalone="no"?>
<svg xmlns:rdf="http://www.w3.org/1999/02/22-rdf-syntax-ns#" xmlns="http://www.w3.org/2000/svg" xml:space="preserve" height="344.2" width="344.2" version="1.1" y="0px" x="0px" xmlns:cc="http://creativecommons.org/ns#" xmlns:dc="http://purl.org/dc/elements/1.1/" viewBox="0 0 344.20001 344.20002"><style type="text/css">
	.st0{display:none;fill:#D2A2DB;}
	.st1{display:none;}
	.st2{display:inline;fill:#353535;}
	.st3{fill:#353535;}
	.st4{fill:#C53C02;}
	.st5{fill:#751B00;}
	.st6{fill:#265A8F;}
	.st7{fill:#162F51;}
	.st8{fill:#FDEE00;}
	.st9{fill:#ECC700;}
	.st10{display:inline;}
	.st11{fill:none;stroke:#000000;stroke-miterlimit:10;}
	.st12{font-family:&apos;OpenSans-Bold&apos;;}
	.st13{font-size:12px;}
</style><g transform="translate(-214.9 -97.9)"><rect display="none" class="st0" height="36" width="306" y="350.9" x="234.2" fill="#d2a2db"/><g display="none" class="st1" fill="#353535"><path d="m234.3 375.2v-12.7h3.4c3.9 0 4.7 2.1 4.7 3.9 0 1.3-0.5 2.3-1.3 3-0.9 0.7-2.1 1-3.6 1h-1.3v4.8h-1.9zm3-6.5c1.2 0 2.1-0.2 2.6-0.6 0.5-0.3 0.7-0.9 0.7-1.7 0-0.7-0.2-1.3-0.6-1.6-0.5-0.4-1.2-0.5-2.3-0.5h-1.4v4.4h1z" class="st2" display="inline"/><path d="m249 375.4c-1.8 0-3.2-0.6-4.2-1.8s-1.5-2.8-1.5-4.7c0-2 0.5-3.6 1.5-4.7 1-1.2 2.4-1.8 4.2-1.8s3.2 0.6 4.2 1.8 1.5 2.8 1.5 4.7c0 2-0.5 3.6-1.5 4.7-1 1.2-2.4 1.8-4.2 1.8zm0-11.3c-1.2 0-2.2 0.4-2.8 1.2-0.7 0.8-1 2-1 3.6s0.3 2.8 1 3.6 1.6 1.2 2.8 1.2c1.3 0 2.2-0.4 2.8-1.2 0.7-0.8 1-2 1-3.6s-0.3-2.8-1-3.6c-0.6-0.8-1.5-1.2-2.8-1.2z" class="st2" display="inline"/><path d="m265.2 375.2-2.6-9.3c-0.3 1-1.1 3.9-2.5 8.9l-0.1 0.4h-1.4l-3.5-12.7h1.9l2.2 7.9 0.2 0.8 0.3-1.2 2.1-7.5h1.7s2.5 8.7 2.5 8.8c0.3-1.3 1.1-4.1 2.3-8.5l0.1-0.4h1.9l-3.5 12.7h-1.6z" class="st2" display="inline"/><polygon class="st2" points="278.2 367.7 278.2 369.4 272.9 369.4 272.9 373.5 278.5 373.5 278.5 375.2 271.1 375.2 271.1 362.5 278.5 362.5 278.5 364.3 272.9 364.3 272.9 367.7" display="inline"/><path d="m287.1 375.2-3-5.1h-2.1v5.1h-1.8v-12.7h3.3c1.6 0 2.7 0.3 3.5 0.9s1.2 1.6 1.2 2.8c0 0.9-0.2 1.7-0.7 2.3-0.4 0.5-0.9 0.9-1.5 1.1l3.3 5.6h-2.2zm-3.4-6.8c0.9 0 1.5-0.2 2-0.6 0.4-0.3 0.6-0.9 0.6-1.6s-0.2-1.2-0.6-1.6c-0.4-0.3-1.2-0.5-2.3-0.5h-1.4v4.2h1.7z" class="st2" display="inline"/><polygon class="st2" points="297 367.7 297 369.4 291.7 369.4 291.7 373.5 297.3 373.5 297.3 375.2 289.9 375.2 289.9 362.5 297.3 362.5 297.3 364.3 291.7 364.3 291.7 367.7" display="inline"/><path d="m298.9 375.2v-12.7h3.7c2 0 3.6 0.5 4.6 1.6 1.1 1.1 1.6 2.6 1.6 4.6 0 2.1-0.6 3.7-1.7 4.8s-2.8 1.7-4.9 1.7h-3.3zm3.3-1.7c3.2 0 4.8-1.5 4.8-4.7 0-1.5-0.4-2.7-1.1-3.4-0.8-0.7-1.9-1.1-3.4-1.1h-1.7v9.3h1.4z" class="st2" display="inline"/><path d="m314.8 375.2v-12.7h3.7c1.6 0 2.7 0.3 3.5 0.8 0.8 0.6 1.2 1.5 1.2 2.6 0 0.8-0.3 1.5-0.8 2-0.2 0.2-0.4 0.4-0.6 0.5l0.9 0.6c0.5 0.5 0.8 1.3 0.8 2.2 0 1.2-0.4 2.2-1.3 2.9-0.8 0.7-1.9 1-3.4 1h-4zm4.1-1.7c2.4 0 2.8-1.1 2.8-2.1 0-0.8-0.3-1.9-2.9-1.9h-2.1v4.1h2.2zm-0.2-5.8c1 0 1.7-0.2 2.1-0.5s0.5-0.7 0.5-1.3-0.2-1-0.6-1.3c-0.5-0.3-1.2-0.5-2.3-0.5h-1.9v3.5h2.2z" class="st2" display="inline"/><polygon class="st2" points="327.3 375.2 327.3 370.4 323.1 362.5 325.2 362.5 328.3 368.4 331.4 362.5 333.4 362.5 329.2 370.3 329.2 375.2" display="inline"/></g><g fill="#353535"><path class="st3" d="m233.2 324.2c0.4 0.2 0.7 0.4 1 0.6 0.3 0.3 0.5 0.6 0.6 1s0.2 0.8 0.2 1.2v14.6c0 0.1 0 0.3-0.1 0.3-0.1 0.1-0.2 0.1-0.3 0.1h-3.6c-0.1 0-0.2 0-0.3-0.1s-0.1-0.2-0.1-0.3v-13.2h-2.9v13.2c0 0.1 0 0.3-0.1 0.3-0.1 0.1-0.2 0.1-0.3 0.1h-3.3c-0.1 0-0.3 0-0.3-0.1-0.1-0.1-0.1-0.2-0.1-0.3v-13.2h-2.9v13.2c0 0.3-0.2 0.5-0.5 0.5h-3.6c-0.3 0-0.5-0.2-0.5-0.5v-17.1c0-0.3 0.2-0.5 0.5-0.5h15.6c0.3-0.1 0.7 0 1 0.2z"/><path class="st3" d="m251.3 323.9c0.4 0 0.8 0.1 1.2 0.2 0.4 0.2 0.7 0.4 1 0.6 0.3 0.3 0.5 0.6 0.6 1s0.2 0.8 0.2 1.2v14.6c0 0.1 0 0.3-0.1 0.3-0.1 0.1-0.2 0.1-0.3 0.1h-3.6c-0.1 0-0.3 0-0.3-0.1-0.1-0.1-0.1-0.2-0.1-0.3v-4.6c0-0.1 0-0.3-0.1-0.3-0.1-0.1-0.2-0.1-0.3-0.1h-5.1c-0.1 0-0.3 0-0.3 0.1-0.1 0.1-0.1 0.2-0.1 0.3v4.6c0 0.3-0.2 0.5-0.5 0.5h-3.6c-0.3 0-0.5-0.2-0.5-0.5v-14.6c0-0.4 0.1-0.8 0.2-1.2 0.2-0.4 0.4-0.7 0.6-1 0.3-0.3 0.6-0.5 1-0.6 0.4-0.2 0.8-0.2 1.2-0.2h8.9zm-1.6 8.6v-4.5h-6.1v4.5h6.1z"/><path class="st3" d="m270.6 324.1c0.1 0.1 0.1 0.2 0.1 0.3v14.6c0 0.4-0.1 0.8-0.2 1.2-0.2 0.4-0.4 0.7-0.6 1-0.3 0.3-0.6 0.5-1 0.6-0.4 0.2-0.8 0.2-1.2 0.2h-7.8c-0.4 0-0.8-0.1-1.2-0.2-0.4-0.2-0.7-0.4-1-0.6-0.3-0.3-0.5-0.6-0.6-1-0.2-0.4-0.2-0.8-0.2-1.2v-5.5c0-0.3 0.2-0.5 0.5-0.5h3.6c0.3 0 0.5 0.2 0.5 0.5v3.7c0 0.1 0 0.2 0.1 0.3s0.2 0.1 0.3 0.1h3.7c0.1 0 0.3 0 0.3-0.1 0.1-0.1 0.1-0.2 0.1-0.3v-12.7c0-0.1 0-0.3 0.1-0.3 0.1-0.1 0.2-0.1 0.3-0.1h3.6c0.3-0.2 0.5-0.1 0.6 0z"/><path class="st3" d="m286.9 323.9c0.4 0 0.8 0.1 1.2 0.2 0.4 0.2 0.7 0.4 1 0.6 0.3 0.3 0.5 0.6 0.6 1s0.2 0.8 0.2 1.2v12c0 0.4-0.1 0.8-0.2 1.2-0.2 0.4-0.4 0.7-0.6 1-0.3 0.3-0.6 0.5-1 0.6-0.4 0.2-0.8 0.2-1.2 0.2h-9.1c-0.4 0-0.8-0.1-1.2-0.2-0.4-0.2-0.7-0.4-1-0.6-0.3-0.3-0.5-0.6-0.6-1-0.2-0.4-0.2-0.8-0.2-1.2v-12c0-0.4 0.1-0.8 0.2-1.2s0.4-0.7 0.6-1c0.3-0.3 0.6-0.5 1-0.6 0.4-0.2 0.8-0.2 1.2-0.2h9.1zm-1.6 4.4h-6.1v9.3h6.1v-9.3z"/><path class="st3" d="m309.7 341.6c0.1 0.1 0.1 0.2 0 0.3s-0.1 0.1-0.3 0.1h-4.1c-0.1 0-0.3 0-0.4-0.1l-0.3-0.3-2.7-4.9c0-0.1-0.1-0.1-0.2-0.1h-3.1c-0.1 0-0.1 0-0.1 0.1v4.8c0 0.3-0.2 0.5-0.5 0.5h-3.6c-0.3 0-0.5-0.2-0.5-0.5v-17.1c0-0.3 0.2-0.5 0.5-0.5h11.7c0.4 0 0.8 0.1 1.2 0.2 0.4 0.2 0.7 0.4 1 0.6 0.3 0.3 0.5 0.6 0.6 1 0.2 0.4 0.2 0.8 0.2 1.2v6.8c0 0.7-0.2 1.2-0.6 1.8-0.4 0.5-0.9 0.9-1.5 1.1h-0.1c-0.1 0-0.1 0.1-0.1 0.2v0.1l2.9 4.7zm-5.1-13.5h-6.2v4.4h6.2v-4.4z"/><path class="st3" d="m334 337.6c0.1 0 0.2 0 0.3 0.1s0.1 0.2 0.1 0.3v3.4c0 0.1 0 0.3-0.1 0.3-0.1 0.1-0.2 0.1-0.3 0.1h-11.1c-0.3 0-0.5-0.2-0.5-0.5v-17.1c0-0.3 0.2-0.5 0.5-0.5h3.6c0.3 0 0.5 0.2 0.5 0.5v12.7c0 0.1 0 0.2 0.1 0.3s0.2 0.1 0.3 0.1h6.6z"/><path class="st3" d="m350.7 324.1c0.1 0.1 0.1 0.2 0.1 0.3v1.5 0.8 1c0 0.1 0 0.2-0.1 0.3s-0.2 0.1-0.3 0.1h-1.8-5.4-1.4c-0.1 0-0.1 0-0.1 0.1v2.8c0 0.1 0 0.1 0.1 0.1h7.4c0.1 0 0.2 0 0.3 0.1s0.1 0.2 0.1 0.3v2.6c0 0.1 0 0.3-0.1 0.3-0.1 0.1-0.2 0.1-0.3 0.1h-7.4c-0.1 0-0.1 0-0.1 0.1v1.3 1.5c0 0.1 0 0.1 0.1 0.1h1.1 5.8 1.7c0.1 0 0.3 0 0.3 0.1 0.1 0.1 0.1 0.2 0.1 0.3v1 1.3 0.9c0 0.1 0 0.3-0.1 0.3-0.1 0.1-0.2 0.1-0.3 0.1h-1.5-9.8-1.5c-0.3 0-0.5-0.2-0.5-0.5v-0.9-15-1.2c0-0.1 0-0.3 0.1-0.3 0.1-0.1 0.2-0.1 0.3-0.1h1.9 10.1 0.8c0.2 0.4 0.3 0.5 0.4 0.6z"/><path class="st3" d="m367.1 323.9c0.4 0 0.8 0.1 1.2 0.2 0.4 0.2 0.7 0.4 1 0.6 0.3 0.3 0.5 0.6 0.6 1s0.2 0.8 0.2 1.2v14.6c0 0.1 0 0.3-0.1 0.3-0.1 0.1-0.2 0.1-0.3 0.1h-3.7c-0.1 0-0.3 0-0.3-0.1-0.1-0.1-0.1-0.2-0.1-0.3v-4.6c0-0.1 0-0.3-0.1-0.3-0.1-0.1-0.2-0.1-0.3-0.1h-5.2c-0.1 0-0.3 0-0.3 0.1-0.1 0.1-0.1 0.2-0.1 0.3v4.6c0 0.3-0.2 0.5-0.5 0.5h-3.6c-0.3 0-0.5-0.2-0.5-0.5v-14.6c0-0.4 0.1-0.8 0.2-1.2 0.2-0.4 0.4-0.7 0.6-1 0.3-0.3 0.6-0.5 1-0.6 0.4-0.2 0.8-0.2 1.2-0.2h9.1zm-1.6 8.6v-4.5h-6.1v4.5h6.1z"/><path class="st3" d="m389.2 332.3c0.1 0.1 0.1 0.2 0.1 0.3v6.4c0 0.4-0.1 0.8-0.2 1.2-0.2 0.4-0.4 0.7-0.6 1-0.3 0.3-0.6 0.5-1 0.6-0.4 0.2-0.8 0.2-1.2 0.2h-9.1c-0.4 0-0.8-0.1-1.2-0.2-0.4-0.2-0.7-0.4-1-0.6-0.3-0.3-0.5-0.6-0.6-1-0.2-0.4-0.2-0.8-0.2-1.2v-12c0-0.4 0.1-0.8 0.2-1.2s0.4-0.7 0.6-1c0.3-0.3 0.6-0.5 1-0.6 0.4-0.2 0.8-0.2 1.2-0.2h10.7c0.1 0 0.3 0 0.3 0.1 0.1 0.1 0.1 0.2 0.1 0.3v3.4c0 0.1 0 0.3-0.1 0.3-0.1 0.1-0.2 0.1-0.3 0.1h-8.6c-0.1 0-0.3 0-0.3 0.1-0.1 0.1-0.1 0.2-0.1 0.3v8.4c0 0.1 0 0.2 0.1 0.3s0.2 0.1 0.3 0.1h5.1c0.1 0 0.2 0 0.3-0.1s0.1-0.2 0.1-0.3v-4.5c0-0.1 0-0.3 0.1-0.3 0.1-0.1 0.2-0.1 0.3-0.1h3.6c0.1 0 0.3 0.1 0.4 0.2z"/><path class="st3" d="m408.2 324.1c0.1 0.1 0.1 0.2 0.1 0.3v14.6c0 0.4-0.1 0.8-0.2 1.2-0.2 0.4-0.4 0.7-0.6 1-0.3 0.3-0.6 0.5-1 0.6-0.4 0.2-0.8 0.2-1.2 0.2h-9.1c-0.4 0-0.8-0.1-1.2-0.2-0.4-0.2-0.7-0.4-1-0.6-0.3-0.3-0.5-0.6-0.6-1-0.2-0.4-0.2-0.8-0.2-1.2v-14.6c0-0.3 0.2-0.5 0.5-0.5h3.6c0.3 0 0.5 0.2 0.5 0.5v12.7c0 0.1 0 0.2 0.1 0.3s0.2 0.1 0.3 0.1h5.1c0.1 0 0.2 0 0.3-0.1s0.1-0.2 0.1-0.3v-12.7c0-0.1 0-0.3 0.1-0.3 0.1-0.1 0.2-0.1 0.3-0.1h3.6c0.3-0.1 0.4 0 0.5 0.1z"/><path class="st3" d="m426.1 324.1c0.1 0.1 0.1 0.2 0.1 0.3v1.5 0.8 1c0 0.1 0 0.2-0.1 0.3s-0.2 0.1-0.3 0.1h-1.8-5.4-1.4c-0.1 0-0.1 0-0.1 0.1v2.8c0 0.1 0 0.1 0.1 0.1h7.4c0.1 0 0.2 0 0.3 0.1s0.1 0.2 0.1 0.3v2.6c0 0.1 0 0.3-0.1 0.3-0.1 0.1-0.2 0.1-0.3 0.1h-7.4c-0.1 0-0.1 0-0.1 0.1v1.3 1.5c0 0.1 0 0.1 0.1 0.1h1.1 5.8 1.7c0.1 0 0.3 0 0.3 0.1 0.1 0.1 0.1 0.2 0.1 0.3v1 1.3 0.9c0 0.1 0 0.3-0.1 0.3-0.1 0.1-0.2 0.1-0.3 0.1h-1.5-9.8-1.5c-0.3 0-0.5-0.2-0.5-0.5v-0.9-15-1.2c0-0.1 0-0.3 0.1-0.3 0.1-0.1 0.2-0.1 0.3-0.1h1.9 10.1 0.8c0.2 0.4 0.3 0.5 0.4 0.6z"/><path class="st3" d="m453.8 323.9c0.1 0 0.3 0 0.3 0.1 0.1 0.1 0.1 0.2 0.1 0.3v17.1c0 0.1 0 0.3-0.1 0.3-0.1 0.1-0.2 0.1-0.3 0.1h-3.6c-0.1 0-0.3 0-0.3-0.1-0.1-0.1-0.1-0.2-0.1-0.3v-6c0-0.1 0-0.2-0.1-0.3s-0.2-0.1-0.3-0.1h-5.1c-0.1 0-0.3 0-0.3 0.1-0.1 0.1-0.1 0.2-0.1 0.3v6c0 0.3-0.2 0.5-0.5 0.5h-3.6c-0.3 0-0.5-0.2-0.5-0.5v-17.1c0-0.3 0.2-0.5 0.5-0.5h3.6c0.3 0 0.5 0.2 0.5 0.5v5.8c0 0.3 0.2 0.5 0.5 0.5h5.1c0.1 0 0.2 0 0.3-0.1s0.1-0.2 0.1-0.3v-5.8c0-0.1 0-0.3 0.1-0.3 0.1-0.1 0.2-0.1 0.3-0.1h3.5z"/><path class="st3" d="m470.5 323.9c0.4 0 0.8 0.1 1.2 0.2 0.4 0.2 0.7 0.4 1 0.6 0.3 0.3 0.5 0.6 0.6 1s0.2 0.8 0.2 1.2v14.6c0 0.1 0 0.3-0.1 0.3-0.1 0.1-0.2 0.1-0.3 0.1h-3.6c-0.1 0-0.3 0-0.3-0.1-0.1-0.1-0.1-0.2-0.1-0.3v-4.6c0-0.1 0-0.3-0.1-0.3-0.1-0.1-0.2-0.1-0.3-0.1h-5.1c-0.1 0-0.3 0-0.3 0.1-0.1 0.1-0.1 0.2-0.1 0.3v4.6c0 0.3-0.2 0.5-0.5 0.5h-3.6c-0.3 0-0.5-0.2-0.5-0.5v-14.6c0-0.4 0.1-0.8 0.2-1.2 0.2-0.4 0.4-0.7 0.6-1 0.3-0.3 0.6-0.5 1-0.6 0.4-0.2 0.8-0.2 1.2-0.2h8.9zm-1.5 8.6v-4.5h-6.1v4.5h6.1z"/><path class="st3" d="m482.2 328.4c-0.1 0.1-0.1 0.2-0.1 0.3v8.4c0 0.1 0 0.2 0.1 0.3s0.2 0.1 0.3 0.1h8.3c0.1 0 0.3 0 0.3 0.1 0.1 0.1 0.1 0.2 0.1 0.3v3.4c0 0.1 0 0.3-0.1 0.3-0.1 0.1-0.2 0.1-0.3 0.1h-5.4-4.4-0.5c-0.4 0-0.8-0.1-1.2-0.2-0.4-0.2-0.7-0.4-1-0.6-0.3-0.3-0.5-0.6-0.6-1-0.2-0.4-0.2-0.8-0.2-1.2v-0.5-1.9-6-1.7-2c0-0.4 0.1-0.8 0.2-1.2 0.2-0.4 0.4-0.7 0.6-1 0.3-0.3 0.6-0.5 1-0.6 0.4-0.2 0.8-0.2 1.2-0.2h0.5 9.8c0.1 0 0.3 0 0.3 0.1 0.1 0.1 0.1 0.2 0.1 0.3v3.4c0 0.1 0 0.3-0.1 0.3-0.1 0.1-0.2 0.1-0.3 0.1h-8.3c-0.1 0.5-0.2 0.6-0.3 0.6z"/><path class="st3" d="m505.7 331.5c-0.1 0.1-0.1 0.1 0 0.2l6 9.9c0.1 0.1 0.1 0.2 0 0.3s-0.1 0.1-0.3 0.1h-4.3c-0.1 0-0.3 0-0.4-0.1l-0.3-0.3-3.9-7c-0.1-0.1-0.1-0.1-0.1 0l-2.1 2.3c-0.1 0.1-0.2 0.2-0.2 0.4-0.1 0.2-0.1 0.3-0.1 0.5v3.8c0 0.3-0.2 0.5-0.5 0.5h-3.5c-0.3 0-0.5-0.2-0.5-0.5v-17.1c0-0.3 0.2-0.5 0.5-0.5h3.6c0.3 0 0.5 0.2 0.5 0.5v7.7l6.7-7.8c0.1-0.1 0.2-0.2 0.4-0.3s0.3-0.1 0.4-0.1h4.3c0.1 0 0.2 0 0.2 0.1s0 0.2-0.1 0.3l-6.3 7.1z"/><path class="st3" d="m519.6 341.5c0 0.3-0.2 0.5-0.5 0.5h-3.6c-0.3 0-0.5-0.2-0.5-0.5v-17.1c0-0.3 0.2-0.5 0.5-0.5h3.6c0.3 0 0.5 0.2 0.5 0.5v17.1z"/><path class="st3" d="m537 324.2c0.4 0.2 0.7 0.4 1 0.6 0.3 0.3 0.5 0.6 0.6 1 0.2 0.4 0.2 0.8 0.2 1.2v14.6c0 0.1 0 0.3-0.1 0.3-0.1 0.1-0.2 0.1-0.3 0.1h-3.6c-0.1 0-0.2 0-0.3-0.1s-0.1-0.2-0.1-0.3v-12.7c0-0.1 0-0.2-0.1-0.3s-0.2-0.1-0.3-0.1h-5.1c-0.1 0-0.3 0-0.3 0.1s-0.1 0.2-0.1 0.3v12.7c0 0.3-0.2 0.5-0.5 0.5h-3.6c-0.3 0-0.5-0.2-0.5-0.5v-17.1c0-0.3 0.2-0.5 0.5-0.5h11.7c0.2-0.1 0.6 0 0.9 0.2z"/><path class="st3" d="m557.9 332.3c0.1 0.1 0.1 0.2 0.1 0.3v6.4c0 0.4-0.1 0.8-0.2 1.2-0.2 0.4-0.4 0.7-0.6 1-0.3 0.3-0.6 0.5-1 0.6-0.4 0.2-0.8 0.2-1.2 0.2h-9.1c-0.4 0-0.8-0.1-1.2-0.2-0.4-0.2-0.7-0.4-1-0.6-0.3-0.3-0.5-0.6-0.6-1-0.2-0.4-0.2-0.8-0.2-1.2v-12c0-0.4 0.1-0.8 0.2-1.2s0.4-0.7 0.6-1c0.3-0.3 0.6-0.5 1-0.6 0.4-0.2 0.8-0.2 1.2-0.2h10.7c0.1 0 0.3 0 0.3 0.1 0.1 0.1 0.1 0.2 0.1 0.3v3.4c0 0.1 0 0.3-0.1 0.3-0.1 0.1-0.2 0.1-0.3 0.1h-8.6c-0.1 0-0.3 0-0.3 0.1-0.1 0.1-0.1 0.2-0.1 0.3v8.4c0 0.1 0 0.2 0.1 0.3s0.2 0.1 0.3 0.1h5.1c0.1 0 0.2 0 0.3-0.1s0.1-0.2 0.1-0.3v-4.5c0-0.1 0-0.3 0.1-0.3 0.1-0.1 0.2-0.1 0.3-0.1h3.6c0.2 0 0.3 0.1 0.4 0.2z"/></g><path fill="#c53c02" class="st4" d="m324.9 199.5c2.3 1 4.3 2.4 6 4.1s3 3.7 4.1 6c1 2.3 1.5 4.8 1.5 7.4v94.8c0 0.9-0.3 1.6-0.9 2.2s-1.3 0.9-2.2 0.9h-22.7c-0.9 0-1.6-0.3-2.1-0.9s-0.8-1.3-0.8-2.2v-86.2h-18.3v86.2c0 0.9-0.3 1.6-0.8 2.2s-1.3 0.9-2.1 0.9h-20.6c-0.9 0-1.6-0.3-2.2-0.9s-0.9-1.3-0.9-2.2v-86.2h-18.3v86.2c0 2.1-1 3.1-3.1 3.1h-22.5c-2.1 0-3.1-1-3.1-3.1v-110.7c0-2.1 1-3.1 3.1-3.1h98.4c2.7 0 5.1 0.5 7.5 1.5z"/><path fill="#751b00" class="st5" d="m324.9 199.5c2.3 1 4.3 2.4 6 4.1s3 3.7 4.1 6c1 2.3 1.5 4.8 1.5 7.4v8.4l-28.7 0.2h-18.3-26.5-18.3l-28.7-0.2v-24.4c0-2.1 1-3.1 3.1-3.1h98.4c2.6 0.1 5 0.6 7.4 1.6z"/><path fill="#265a8f" class="st6" d="m435.4 286.5c0.9 0 1.7 0.3 2.2 0.9 0.6 0.6 0.9 1.4 0.9 2.3v22.1c0 0.9-0.3 1.6-0.9 2.3-0.6 0.6-1.3 0.9-2.2 0.9h-77.7c-2.2 0-3.3-1.1-3.3-3.2v-110.6c0-2.1 1.1-3.2 3.3-3.2h23.8c2.2 0 3.3 1.1 3.3 3.2v82.4c0 0.9 0.3 1.6 1 2.2 0.6 0.6 1.4 0.8 2.3 0.8h47.3z"/><path fill="#162f51" class="st7" d="m384.6 314.9h-26.9c-2.2 0-3.3-1.1-3.3-3.2v-110.5c0-2.1 1.1-3.2 3.3-3.2h23.8c2.2 0 3.3 1.1 3.3 3.2v82.4c0 0.8-0.2 31.3-0.2 31.3z"/><path fill="#fdee00" class="st8" d="m554.8 198c0.9 0 1.7 0.3 2.3 0.9s1 1.4 1 2.3v110.9c0 0.9-0.3 1.6-1 2.3-0.6 0.6-1.4 0.9-2.3 0.9h-24.2c-0.9 0-1.7-0.3-2.3-0.9s-1-1.4-1-2.3v-38.7c0-0.9-0.3-1.6-0.9-2.2s-1.3-0.8-2.3-0.8h-33.9c-0.9 0-1.7 0.3-2.3 0.8-0.6 0.6-1 1.3-1 2.2v38.7c0 2.1-1.1 3.2-3.3 3.2h-24c-2.2 0-3.3-1.1-3.3-3.2v-110.9c0-2.1 1.1-3.2 3.3-3.2h24c2.2 0 3.3 1.1 3.3 3.2v37.5c0 2.1 1.1 3.2 3.3 3.2h33.9c0.9 0 1.7-0.3 2.3-0.9s0.9-1.4 0.9-2.3v-37.5c0-0.9 0.3-1.6 1-2.3 0.6-0.6 1.4-0.9 2.3-0.9h24.2z"/><path fill="#ecc700" class="st9" d="m487 273.4v38.7c0 2.1-1.1 3.2-3.3 3.2h-24c-2.2 0-3.3-1.1-3.3-3.2v-110.9c0-2.1 1.1-3.2 3.3-3.2h24c2.2 0 3.3 1.1 3.3 3.2v37.5 34.7z"/><path fill="#ecc700" class="st9" d="m554.8 198c0.9 0 1.7 0.3 2.3 0.9s1 1.4 1 2.3v110.9c0 0.9-0.3 1.6-1 2.3-0.6 0.6-1.4 0.9-2.3 0.9h-24.2c-0.9 0-1.7-0.3-2.3-0.9s-1-1.4-1-2.3v-38.7-34.7-37.5c0-0.9 0.3-1.6 1-2.3 0.6-0.6 1.4-0.9 2.3-0.9h24.2z"/></g><g transform="translate(-214.9 -97.9)" display="none" class="st1"><g display="inline" class="st10"><g stroke="#000" stroke-miterlimit="10" fill="none"><line y2="342" x2="558" y1="342" x1="216" class="st11"/><line y2="342" x2="558" y1="198" x1="558" class="st11"/><line y2="198" x2="558" y1="198" x1="216" class="st11"/><line y2="198" x2="216" y1="342" x1="216" class="st11"/><line y2="324" x2="558" y1="324" x1="216" class="st11"/><line y2="315" x2="558" y1="315" x1="216" class="st11"/><rect class="st11" height="216" width="414" y="162" x="180"/><line y2="198" x2="216" y1="198" x1="180" class="st11"/><line y2="198" x2="216" y1="162" x1="216" class="st11"/><line y2="198" x2="594" y1="198" x1="558" class="st11"/><line y2="198" x2="558" y1="162" x1="558" class="st11"/><line y2="342" x2="216" y1="378" x1="216" class="st11"/><line y2="342" x2="216" y1="342" x1="180" class="st11"/><line y2="342" x2="594" y1="342" x1="558" class="st11"/><line y2="342" x2="558" y1="378" x1="558" class="st11"/><line y2="324" x2="594" y1="324" x1="558" class="st11"/><line y2="315" x2="594" y1="315" x1="558" class="st11"/><line y2="315" x2="216" y1="315" x1="180" class="st11"/><line y2="324" x2="216" y1="324" x1="180" class="st11"/></g><path d="m197.5 183.2h-1.3v2.3h-2.3v-2.3h-4.7v-1.6l4.9-7.2h2.2v7h1.3v1.8zm-3.6-1.8v-1.9-1.4c0-0.6 0-0.9 0.1-1h-0.1c-0.2 0.4-0.4 0.8-0.7 1.2l-2 3.1h2.7z"/><path d="m200.7 181.2-2.7-4.2h2.6l1.6 2.7 1.7-2.7h2.6l-2.8 4.2 2.9 4.3h-2.6l-1.8-2.9-1.8 2.9h-2.6l2.9-4.3z"/><path d="m575.6 183.2h-1.3v2.3h-2.3v-2.3h-4.7v-1.6l4.9-7.2h2.2v7h1.3v1.8zm-3.6-1.8v-1.9-1.4c0-0.6 0-0.9 0.1-1h-0.1c-0.2 0.4-0.4 0.8-0.7 1.2l-2 3.1h2.7z"/><path d="m578.8 181.2-2.7-4.2h2.6l1.6 2.7 1.7-2.7h2.6l-2.8 4.2 2.9 4.3h-2.6l-1.8-2.9-1.8 2.9h-2.6l2.9-4.3z"/><path d="m575.6 363.2h-1.3v2.3h-2.3v-2.3h-4.7v-1.6l4.9-7.2h2.2v7h1.3v1.8zm-3.6-1.8v-1.9-1.4c0-0.6 0-0.9 0.1-1h-0.1c-0.2 0.4-0.4 0.8-0.7 1.2l-2 3.1h2.7z"/><path d="m578.8 361.2-2.7-4.2h2.6l1.6 2.7 1.7-2.7h2.6l-2.8 4.2 2.9 4.3h-2.6l-1.8-2.9-1.8 2.9h-2.6l2.9-4.3z"/><path d="m197.1 363.2h-1.3v2.3h-2.3v-2.3h-4.7v-1.6l4.9-7.2h2.2v7h1.3v1.8zm-3.6-1.8v-1.9-1.4c0-0.6 0-0.9 0.1-1h-0.1c-0.2 0.4-0.4 0.8-0.7 1.2l-2 3.1h2.7z"/><path d="m200.3 361.2-2.7-4.2h2.6l1.6 2.7 1.7-2.7h2.6l-2.8 4.2 2.9 4.3h-2.6l-1.8-2.9-1.8 2.9h-2.6l2.9-4.3z"/><text transform="translate(586 322.93)" class="st12 st13" font-size="12px" font-family="OpenSans-Bold">x</text>
<text transform="translate(182.5 322.93)" class="st12 st13" font-size="12px" font-family="OpenSans-Bold">x</text>
</g></g></svg>
