<?xml version="1.0" encoding="UTF-8" standalone="no"?>
<svg xmlns:rdf="http://www.w3.org/1999/02/22-rdf-syntax-ns#" xmlns="http://www.w3.org/2000/svg" xml:space="preserve" height="400" width="400" version="1.1" xmlns:cc="http://creativecommons.org/ns#" xmlns:dc="http://purl.org/dc/elements/1.1/" viewBox="0 0 400 400"><g transform="matrix(1.3333 0 0 -1.3333 35.63 326.84)"><g transform="scale(.1)"><path d="m2.3867 1377.1s9.8828-33.96 16.973-50.44c7.1289-16.45 13.176-27.36 29.598-30.61 16.414-3.35 33.992-4.47 40.492-15.92 6.5664-11.48 5.5156-20.28-3.2187-27.42-8.836-7.16-30.16-26.83-25.785-49.84 4.375-23.03 14.258-50.97 40.528-57.5 26.308-6.61 45.812-6.77 50.082-22.13 3.187-11.96-4.367-21.52-16.09-30.54-18.227-13.9-27.36-28.99-17.012-60.26 10.442-31.21 29.621-45.454 49.328-49.841 19.735-4.375 33.27-2.195 37.676-17.41 4.723-16.152-28.215-37.14-35.508-51.445-9.492-18.594-4.961-39.813 7.586-63.492 13.137-24.852 40.137-25.981 55.442-29.301 15.371-3.281 25.222-10.082 20.293-21.91-3.743-8.852-23.868-26.11-33.821-37.621-15.898-18.442-8.898-46.231-1.25-64.809 8.473-20.601 32.313-25.211 45.52-27.941 13.07-2.758 33.828-7.571 30.086-24.11-3.614-16.101-32.875-29.101-39.969-47.691-7.199-18.617-4.934-59.219 15.859-74 20.825-14.809 60.856-16.688 60.293-35.59-0.754-23.758-21.972-29.559-33.429-42.769-11.567-13.129-17.016-42.661-6.039-67.379 10.937-24.641 29.089-29.012 44.918-31.25 15.902-2.18 25.199-8.161 26.312-16.379 1.09-8.25 0.563-14.821-19.145-31.262-19.769-16.391-31.734-24.41-25.226-67.949 4.168-28.02 24.601-39.973 39.976-42.153 15.364-2.226 33.95-12.109 28.5-29.648-5.488-17.461-18.621-23.512-27.949-30.672-9.332-7.058-13.695-14.758-10.937-48.726 2.73-34.024 10.386-91.551 59.183-76.691 48.743 14.809 73.375 25.719 84.336 31.75 10.946 6.0312 14.848 10.449 16.461 27.941 1.641 17.539 3.082 34.129 13.664 41.687 9.883 6.922 26.332 5.992 40.586-12.609 14.223-18.629 38.887-22.508 68.477-11.02 29.59 11.531 45.457 27.43 47.66 47.141 2.191 19.738 6.586 32.328 16.484 36.16 9.789 3.871 21.871-2.141 32.84-17.512 10.973-15.34 32.352-26.859 66.832-12.078 34.485 14.82 46.578 29.59 48.77 46.609 2.203 16.95 4.961 29.508 11.461 33.95 6.605 4.359 19.773 9.859 30.183-4.442 10.379-14.168 27.43-35.547 63.559-29.508 36.183 6.008 57.535 15.34 66.865 37.758 9.3 22.461 4.27 35.821 17.7 46.141 9.36 7.141 24.99 2.652 38.72-16.539 13.69-19.192 42.76-29.602 72.88-19.719 30.14 9.891 46.53 25.199 50.93 42.25 4.41 16.93 3.81 30.59 15.34 36.09 11.53 5.48 22.53 3.34 35.08-12.59 12.58-15.883 33.44-33.961 73.44-22.461s49.85 26.84 52.57 37.789c2.77 10.992 2.2 30.153 12.61 36.692 10.38 6.609 23.04 8.82 37.28-9.809 14.29-18.594 33.44-36.16 81.09-21.391 47.62 14.821 47.17 39.45 49.85 53.731 2.69 14.199 11.57 30.508 28.51 21.879 13.3-6.762 26.84-30.153 44.37-35.071 17.53-4.929 55.86-11.519 79.44 7.668 23.52 19.153 24.67 38.364 28.51 49.872 3.81 11.531 10.35 21.902 25.19 16.449 14.81-5.489 20.26-32.36 48.17-40.547 27.96-8.231 71.84-2.223 89.87 22.449 18.09 24.641 4.07 42.801 25.21 52.059 20.02 8.73 32.93-10.41 41.62-21.871 8.81-11.559 40.56-34.028 81.64-17.008 41.1 17.008 36.76 33.949 39.48 44.328 2.73 10.449 3.91 18.531 17.51 21.902 15.86 3.981 25.26-9.84 37.24-27.351 12.12-17.532 38.92-30.692 77.88-19.149 38.91 11.457 42.16 39.43 43.24 47.629 1.12 8.25 8.18 21.328 21.42 20.328 13.13-1.16 27.92-17.597 36.12-29.058 8.23-11.539 16.43-19.75 30.72-19.2 14.24 0.559 66.28-2.75 94.21 13.739 27.95 16.39 26.87 36.121 19.22 60.191-7.72 24.11-13.7 43.328-21.41 55.899-7.69 12.621-16.96 14.3-27.91 14.3-10.99 0-36.72 3.789-40.57 24.621-3.87 20.829 20.67 18.098 30.88 42.52 10.2 24.551 0.71 59.18-19.71 74.199-20.47 14.981-54.06 10.551-63.94 26.313-9.9 15.687 0.39 23.699 13.49 35.039 13.17 11.32 28.83 33.25 15.34 69.039-13.5 35.824-36.16 41.644-53.67 43.851-17.54 2.227-30.34 5.411-31.43 17.129-1.08 11.7 12.77 22.657 20.47 30.711 7.68 8.047 21.91 33.589 12.74 67.199-9.13 33.59-35.4 40.9-50.74 42.73-15.34 1.88-37.25 7.34-30.68 24.11 6.61 16.89 40.96 28.83 40.16 62.83-0.68 33.96-11.29 53.31-36.52 63.2-25.22 9.9-47.11 6.22-46.04 25.22 1.09 18.99 26.34 23.06 36.16 41.66 9.88 18.63 11.01 47.83 1.81 65.33-9.09 17.57-32.46 33.28-48.53 35.8-16.1 2.57-29.24 6.19-24.12 22.64 5.12 16.48 47.85 34.35 45.33 66.49-2.57 32.14-8.42 54.07-31.43 65.01-22.99 10.96-48.58 5.51-46.39 27.36 2.17 22 46.39 28.94 46.02 64.02-0.35 35.05 0 50.34-18.65 62.81-18.65 12.35-44.53 5.07-49.3 25.56-4.76 20.43 16.82 31.77 29.24 42.69 12.4 10.99 12.4 19.44 8.76 45.35-3.6 25.9-5.81 57.64-28.87 75.94-23.02 18.27-86.96-14.55-107.76-26.29-20.78-11.68-22.23-20.84-23.38-37.64-1.08-16.79-14.58-47.12-37.29-33.58-22.57 13.51-25.53 39.49-69.77 29.6-44.14-9.84-57.97-34.37-60.6-47.13-2.57-12.77-4.36-41.68-24.14-42.39-19.69-0.76-24.39 19.39-37.23 27.78-12.79 8.36-44.21 14.21-85.07-10.24-40.92-24.48-9.92-51.12-32.54-67.16-22.67-16.13-40.9 27.36-65.72 35.04-24.91 7.64-55.53-2.21-80.38-21.56-24.85-19.34-11.7-44.59-28.13-57.39-16.43-12.73-32.19 0-54.06 23.43-21.94 23.35-73.8 9.46-96.4-9.54-22.69-18.93-10.6-56.23-31.85-64.28-21.16-8.04-25.13 22.64-61.36 37.66-36.15 14.95-71.92-2.24-89.78-21.6-17.97-19.32-7.69-38.3-19.05-49.28-11.33-10.98-24.48-8.75-35.41 3.27-10.97 12.1-38.35 38.39-74.882 28.89-36.555-9.5-54.777-28.12-58.426-47.12-3.711-19-4.797-29.61-15.332-32.18-10.64-2.53-20.132 0-33.632 13.94-13.563 13.85-31.102 33.93-65.032 27.39-33.988-6.59-55.5-22.69-62.101-43.15-6.606-20.43-3.77-32.44-19.34-36.9-15.176-4.35-25.59 7.72-36.195 18.28-10.547 10.55-31.36 31.05-66.465 23.01-35.051-8.03-53.207-22.75-60.637-50.78-5.82-21.9-9.16-24.11-15.73-26.67-6.536-2.56-20.821-0.36-30.348 12.79-9.391 13.2-32.809 39.1-76.621 31.42-43.875-7.7-49.063-33.28-52.742-46.09-3.672-12.78-3.711-24.32-19.997-25.49-16.203-1.2-25.195 14.96-35.41 27.77-10.246 12.77-25.941 26.27-62.433 20.41-36.551-5.81-50.446-21.53-54.449-39.82-4.043-18.21-8.051-23.75-21.516-27.03-13.594-3.28-21.406 3.1-32.184 16.5-20.328 25.11-27.386 29.16-41.675 28.82-17.11-0.4-67.918 2.94-92.747-13.48-24.566-16.3-26.038-31.7-20.913-49.2" fill="#db1c30"/><g fill="#fff"><path d="m337.64 1143s-23.321-15.29-24.039-35.7c-0.723-20.39 10.175-26.97 24.039-23.32 0 0 21.84 5.82 34.98 10.97 13.137 5.08 38.617 11.63 40.852-18.22 2.207-29.89 15.242-578.72 15.242-578.72s-2.27-32.082 34.082-25.339c23.52 4.371 38.266 27.89 51.93 76.539l75.996 255.3s5.488 13.629 8.207-3.32c2.73-16.922 39.351-233.93 39.351-233.93s4.364-21.351 16.942-25.171c12.59-3.778 41.543 7.121 50.285 16.953 8.699 9.847 15.898 30.609 21.348 75.968 5.449 45.379 77.605 514.99 77.605 514.99s41.027 5.44 62.266 21.3c21.347 15.86 48.711 37.68 44.34 53.01-4.375 15.29-24.594 15.29-33.364 7.68-8.738-7.68-38.265-31.19-68.875-30.64 0 0 1.645 51.38-45.312 59.56-47.071 8.23-86.457-14.75-84.215-61.22 2.164-46.47 52.445-55.22 67.223-55.22l-50.9-348.78s-4.898-8.77-6.535 0c-1.613 8.761-27.887 157.43-27.887 157.43s-4.957 26.231-24.042 36.622c-19.145 10.39-56.29-6.016-63.942-32.813-7.723-26.758-58.523-200.07-58.523-200.07s-7.618-8.731-7.618 1.668c0 10.351-5.457 350.38-5.457 350.38s0.524 31.16-21.878 49.74c-22.422 18.61-66.661 14.74-89.122 5.99-22.371-8.73-43.718-16.01-53.011-21.7"/><path d="m1805.3 1404.6c55.77 151.98 73.28 67.78 38.86-74.35-34.52-142.12-95.67-231.75-95.67-231.75 2.69 134.46 56.81 306.1 56.81 306.1zm-871.28-450.88c33.328 53.555 39.902 28.973 42.074 20.195 2.199-8.73 9.82-33.887-18.031-92.379-27.887-58.472-72.188-76.5-72.188-76.5 2.758 80.328 48.145 148.68 48.145 148.68zm1129.9 141.52c-13.69 8.78-26.79-3.23-34.97-19.62-8.25-16.45-34.49-58.52-40.47-65.62-6.03-7.12-15.33-10.934-14.21 4.91 1.08 15.82 38.82 262.95 38.82 262.95s4.36 18.04-11.47 21.83c-15.82 3.85-47-4.37-61.81-16.93-14.75-12.58-13.66-21.31-16.38-39.88-2.73-18.6-35.5-196.78-84.18-260.19-48.67-63.465-64.51-54.696-75.41-38.27-10.96 16.379-14.78 38.27-13.67 58.462 0 0 83.6 138.86 127.93 276.6 44.21 137.73 42 233.96 7.58 253.59-34.41 19.71-90.7 1.68-161.21-189.62-70.55-191.32-60.14-372.26-60.14-372.26s-14.74-44.843-49.76-74.375c0 0-29.65-27.148-26.23 3.852 3.83 34.461 28.96 212.11 28.96 212.11s13.14 79.76-34.97 90.73c-48.1 10.92-104.41-63.96-137.22-135.58 0 0-7.1-7.64-5.45 5.49 1.61 13.09 8.76 60.12 8.76 60.12s3.78 14.22-12.57 17.48c-16.43 3.3-46.73-5.08-66.67-22.98-10.41-9.28-11.49-15.26-12.06-31.11-0.55-15.87-20.13-181.52-63.41-259.12-31.7-56.879-48.61-49.758-44.84-19.7 3.85 30.082 28.45 151.43 31.73 177.13 3.28 25.672 14.22 62.302-18.07 89.082-32.21 26.81-73.2 4.36-81.96-1.05 0 0-32.22 45.32-73.81 31.66-38.74-12.7-38.81-73.24-28.99-83.6 9.85-10.42 23.54-21.33 41.54-26.25 0 0-20.72-148.14-107.65-250.37-86.9-102.2-109.9-67.262-116.39-54.121-6.605 13.14-10.976 32.269-10.453 44.32 0 0 91.832 35.5 142.14 123.51 50.32 87.976 43.81 180.38-33.887 180.38-57.969 0-116.96-72.71-116.96-72.71s-97.867-111.53-86.406-248.69c11.492-137.22 113.18-120.28 159.09-98.957 45.914 21.321 113.5 90.309 163.97 207.2 41.55 96.148 55.74 172.16 55.74 172.16s0.56 3.81 9.89 3.29c9.23-0.55 28.96 6.57 15.8-55.754-13.08-62.356-23.49-117.53-27.33-138.32-3.81-20.758-9.82-60.7 2.76-85.301 12.54-24.559 45.94-44.27 81.45-20.719 35.54 23.48 59.58 81.98 59.58 81.98s11.48 20.75 8.2 3.282c-3.32-17.512-19.11-62.864 15.32-67.793 34.4-4.91 62.32 34.422 62.32 34.422s7.62 68.347 26.78 136.14c19.13 67.789 50.26 134.47 70.47 164.56 20.27 30.05 38.82 39.33 37.77 24.58-1.12-14.75-24.6-191.88-24.6-191.88s-8.24-55.758 10.34-84.199c18.62-28.399 53.04-21.289 88.05 8.211 34.94 29.527 63.39 75.437 71.6 92.426 0 0 10.9-51.438 48.63-64.028 37.72-12.527 75.41 7.672 106.06 43.242 30.6 35.493 51.92 82.497 51.92 82.497s6.53 8.25 5.48-3.809c-1.07-12.051-7.69-44.793 20.2-64.457 27.89-19.723 72.15-4.422 104.94 47.543 32.8 51.905 51.98 94.535 55.76 104.4 3.88 9.82 7.68 28.4-5.98 37.13"/><path d="m1948 1420.7s-24.76-65.99 19.64-88.22c44.43-22.23 74.71 51.75 64.13 89.99-10.54 38.27-66.3 45.2-83.77-1.77"/></g></g></g></svg>
