<?xml version="1.0" encoding="UTF-8" standalone="no"?>
<svg
   xmlns:dc="http://purl.org/dc/elements/1.1/"
   xmlns:cc="http://creativecommons.org/ns#"
   xmlns:rdf="http://www.w3.org/1999/02/22-rdf-syntax-ns#"
   xmlns:svg="http://www.w3.org/2000/svg"
   xmlns="http://www.w3.org/2000/svg"
   viewBox="0 0 188.98666 90.613335"
   height="90.613335"
   width="188.98666"
   xml:space="preserve"
   id="svg2"
   version="1.1"><metadata
     id="metadata8"><rdf:RDF><cc:Work
         rdf:about=""><dc:format>image/svg+xml</dc:format><dc:type
           rdf:resource="http://purl.org/dc/dcmitype/StillImage" /></cc:Work></rdf:RDF></metadata><defs
     id="defs6" /><g
     transform="matrix(1.3333333,0,0,-1.3333333,0,90.613333)"
     id="g10"><g
       transform="scale(0.1)"
       id="g12"><path
         id="path14"
         style="fill:#ed1c24;fill-opacity:1;fill-rule:nonzero;stroke:none"
         d="m 458.938,279.055 c 0,0 -118.583,163.402 0,400.582 H 2.89453 V 279.055 H 458.938" /><path
         id="path16"
         style="fill:#ed1c24;fill-opacity:1;fill-rule:nonzero;stroke:none"
         d="m 1009.36,278.84 c -60.278,95.855 -56.333,181.824 -56.333,181.824 l -0.246,218.973 h 463.489 l -0.37,-400.762 -406.54,-0.035" /><path
         id="path18"
         style="fill:#231f20;fill-opacity:1;fill-rule:nonzero;stroke:none"
         d="m 554.461,679.637 c 0,0 -52.363,-91.41 -54.34,-177.391 h 48.414 v -41.492 h -50.398 c 0,0 -3.953,-85.988 56.324,-181.824 h -48.918 c 0,0 -118.574,163.527 0,400.707 h 48.918" /><path
         id="path20"
         style="fill:#231f20;fill-opacity:1;fill-rule:nonzero;stroke:none"
         d="m 737.793,278.859 h 46.129 v 181.805 h 49.23 v 41.512 h -48.453 c 1.985,85.969 54.364,177.383 54.364,177.383 H 790.172 C 752.555,604.363 738.801,536.563 737.563,479.027 l 0.23,-200.168" /><path
         id="path22"
         style="fill:#231f20;fill-opacity:1;fill-rule:nonzero;stroke:none"
         d="m 906.031,460.664 c 0,0 -3.984,-85.969 56.309,-181.824 h -48.93 c 0,0 -55.308,76.277 -52.574,200.203 v 200.594 h 44.945 l 0.25,-218.973" /><path
         id="path24"
         style="fill:#231f20;fill-opacity:1;fill-rule:nonzero;stroke:none"
         d="m 584.688,278.859 h 45.4531 V 679.636 H 584.688 Z" /><path
         id="path26"
         style="fill:#231f20;fill-opacity:1;fill-rule:nonzero;stroke:none"
         d="m 691.414,679.637 h -48.418 c 0,0 76.102,-99.813 0,-200.61 h 48.418 c 0,0 71.691,94.758 0,200.61" /><path
         id="path28"
         style="fill:#231f20;fill-opacity:1;fill-rule:nonzero;stroke:none"
         d="m 9.29297,179.215 c 0,16.64 0,19.648 -0.22266,23.055 -0.21093,3.621 -1.0664,5.335 -4.58203,6.082 -0.86328,0.211 -2.67187,0.336 -3.628905,0.336 C 0.433594,208.688 0,208.883 0,209.324 c 0,0.637 0.535156,0.867 1.71094,0.867 4.80469,0 11.51956,-0.336 12.05466,-0.336 0.7461,0 21.9766,0 24.4375,0.106 2.0196,0.105 3.7305,0.336 4.5742,0.543 0.5352,0.105 0.9688,0.512 1.4961,0.512 0.3204,0 0.4375,-0.407 0.4375,-0.95 0,-0.742 -0.5351,-2.027 -0.8593,-5.027 -0.1055,-1.062 -0.3203,-5.75 -0.5391,-7.035 -0.0977,-0.539 -0.3164,-1.195 -0.7461,-1.195 -0.6328,0 -0.8398,0.55 -0.8398,1.398 0,0.754 -0.1133,2.586 -0.6524,3.859 -0.7461,1.7 -1.8086,2.973 -7.5703,3.594 -1.8203,0.231 -13.4375,0.336 -14.6172,0.336 -0.4219,0 -0.6406,-0.336 -0.6406,-1.078 v -29.402 c 0,-0.762 0.1094,-1.082 0.6406,-1.082 1.3867,0 14.5078,0 16.9649,0.211 2.5625,0.214 4.0586,0.445 5.0117,1.488 0.75,0.832 1.168,1.363 1.6094,1.363 0.3046,0 0.5234,-0.211 0.5234,-0.848 0,-0.585 -0.5234,-2.425 -0.8477,-5.968 -0.2148,-2.16 -0.4218,-6.051 -0.4218,-6.797 0,-0.883 0,-2.051 -0.7539,-2.051 -0.5313,0 -0.75,0.422 -0.75,0.973 0,1.078 0,2.14 -0.4297,3.523 -0.4219,1.469 -1.3789,3.274 -5.5391,3.699 -2.8906,0.336 -13.4453,0.547 -15.2656,0.547 -0.5235,0 -0.7422,-0.316 -0.7422,-0.742 v -9.398 c 0,-3.594 -0.1055,-15.989 0,-18.254 0.3125,-7.344 1.9258,-8.742 12.375,-8.742 2.7734,0 7.4687,0 10.2422,1.183 2.7773,1.168 4.0547,3.328 4.8008,7.664 0.2148,1.188 0.4257,1.613 0.957,1.613 0.6406,0 0.6406,-0.847 0.6406,-1.613 0,-0.832 -0.8476,-8.086 -1.3828,-10.301 -0.75,-2.796 -1.6055,-2.796 -5.7617,-2.796 -16.1094,0 -23.2617,0.656 -26.3516,0.656 -0.5351,0 -7.24997,-0.321 -10.44529,-0.321 -1.1875,0 -1.71484,0.215 -1.71484,0.852 0,0.316 0.21094,0.652 0.85547,0.652 0.95703,0 2.23828,0.215 3.19531,0.426 2.14063,0.426 2.66797,2.746 3.09766,5.844 0.53906,4.461 0.53906,12.902 0.53906,23.137 z m 30.92973,45.457 c 0.5351,-0.973 0,-1.274 -0.4297,-1.274 -0.3125,0 -1.3789,0.196 -3.1992,0 -5.2305,-0.55 -12.6836,-2.984 -16.2149,-4.48 -0.7422,-0.301 -1.3906,-0.531 -1.5976,-0.531 -0.2227,0 -0.5352,0.23 -0.5352,0.656 0,0.309 0.2187,0.512 0.7422,0.824 3.8476,2.645 13.7734,8.656 14.5156,9.071 1.8125,1.082 2.4531,1.398 2.9883,1.398 0.3125,0 0.5351,-0.211 1.0625,-0.965 0.7422,-1.07 1.4922,-2.558 2.668,-4.699" /><path
         id="path30"
         style="fill:#231f20;fill-opacity:1;fill-rule:nonzero;stroke:none"
         d="m 75.1094,139.543 c -10.3477,9.312 -12.9102,21.422 -12.9102,31.562 0,7.153 2.4531,19.653 11.9492,29.157 6.3985,6.371 16.1133,11.398 32.5316,11.398 4.269,0 10.246,-0.324 15.472,-1.281 4.059,-0.734 7.473,-1.391 10.891,-1.586 1.168,-0.105 1.375,-0.547 1.375,-1.188 0,-0.867 -0.313,-2.14 -0.527,-5.972 -0.211,-3.524 -0.211,-9.371 -0.317,-10.985 -0.117,-1.609 -0.324,-2.265 -0.965,-2.265 -0.742,0 -0.859,0.762 -0.859,2.265 0,4.161 -1.707,8.536 -4.48,10.887 -3.735,3.168 -11.938,6.07 -21.336,6.07 -14.1801,0 -20.8012,-4.167 -24.5277,-7.769 -7.793,-7.469 -9.6133,-16.977 -9.6133,-27.863 0,-20.391 15.6953,-39.067 38.52,-39.067 8.003,0 14.296,0.953 18.562,5.364 2.238,2.351 3.629,7.027 3.945,8.957 0.223,1.187 0.43,1.628 1.071,1.628 0.527,0 0.746,-0.761 0.746,-1.628 0,-0.762 -1.285,-10.02 -2.356,-13.684 -0.629,-1.984 -0.84,-2.195 -2.769,-3.047 -4.258,-1.715 -12.375,-2.476 -19.199,-2.476 -16.0005,0 -26.7739,3.964 -35.2036,11.523" /><path
         id="path32"
         style="fill:#231f20;fill-opacity:1;fill-rule:nonzero;stroke:none"
         d="m 148.07,169.922 c 0,-19.192 12.172,-41.902 41.399,-41.902 25.711,0 42.57,19.753 42.57,43.636 0,24.836 -17.922,40.004 -41.926,40.004 -29.437,0 -42.043,-24.445 -42.043,-41.738 z m 10.145,3.008 c 0,23.347 13.34,35.109 31.148,35.109 16.86,0 32.438,-13.777 32.438,-39.394 0,-31.032 -19.844,-36.571 -29.449,-36.571 -19.207,0 -34.137,16.02 -34.137,40.856" /><path
         id="path34"
         style="fill:#231f20;fill-opacity:1;fill-rule:nonzero;stroke:none"
         d="m 266.816,160.219 c 0,-15.664 0.422,-22.496 2.344,-24.43 1.715,-1.699 4.488,-2.461 12.805,-2.461 5.652,0 10.34,0.11 12.902,3.223 1.391,1.719 2.461,4.39 2.778,6.39 0.105,0.852 0.316,1.383 0.968,1.383 0.532,0 0.629,-0.426 0.629,-1.609 0,-1.152 -0.746,-7.563 -1.597,-10.641 -0.75,-2.461 -1.059,-2.886 -6.719,-2.886 -15.363,0 -22.406,0.656 -28.598,0.656 -0.957,0 -7.25,-0.321 -10.453,-0.321 -1.168,0 -1.703,0.215 -1.703,0.852 0,0.316 0.207,0.652 0.859,0.652 0.957,0 2.239,0.215 3.199,0.426 2.133,0.426 2.657,2.746 3.09,5.844 0.532,4.461 0.532,12.902 0.532,23.137 v 18.781 c 0,16.64 0,19.648 -0.211,23.055 -0.219,3.621 -1.071,5.335 -4.586,6.082 -0.856,0.211 -2.676,0.336 -3.629,0.336 -0.426,0 -0.856,0.195 -0.856,0.636 0,0.637 0.535,0.867 1.711,0.867 4.797,0 11.512,-0.336 12.047,-0.336 0.539,0 8.324,0.336 11.531,0.336 1.164,0 1.704,-0.23 1.704,-0.867 0,-0.441 -0.422,-0.636 -0.852,-0.636 -0.754,0 -2.246,-0.125 -3.523,-0.336 -3.098,-0.532 -3.95,-2.356 -4.161,-6.082 -0.211,-3.407 -0.211,-6.415 -0.211,-23.055 v -18.996" /><path
         id="path36"
         style="fill:#231f20;fill-opacity:1;fill-rule:nonzero;stroke:none"
         d="m 321.004,179.215 c 0,16.64 0,19.648 -0.211,23.055 -0.215,3.621 -1.066,5.335 -4.586,6.082 -0.852,0.211 -2.656,0.336 -3.629,0.336 -0.43,0 -0.848,0.195 -0.848,0.636 0,0.637 0.532,0.867 1.704,0.867 4.8,0 11.519,-0.336 12.05,-0.336 0.746,0 21.985,0 24.438,0.106 2.027,0.105 3.734,0.336 4.586,0.543 0.535,0.105 0.953,0.512 1.496,0.512 0.316,0 0.414,-0.407 0.414,-0.95 0,-0.742 -0.523,-2.027 -0.84,-5.027 -0.117,-1.062 -0.324,-5.75 -0.535,-7.035 -0.117,-0.539 -0.328,-1.195 -0.75,-1.195 -0.637,0 -0.848,0.55 -0.848,1.398 0,0.754 -0.105,2.586 -0.644,3.859 -0.754,1.7 -1.813,2.973 -7.578,3.594 -1.817,0.231 -13.438,0.336 -14.61,0.336 -0.429,0 -0.648,-0.336 -0.648,-1.078 v -29.402 c 0,-0.762 0.113,-1.082 0.648,-1.082 1.375,0 14.512,0 16.953,0.211 2.567,0.214 4.063,0.445 5.016,1.488 0.758,0.832 1.18,1.363 1.598,1.363 0.328,0 0.535,-0.211 0.535,-0.848 0,-0.585 -0.535,-2.425 -0.836,-5.968 -0.223,-2.16 -0.434,-6.051 -0.434,-6.797 0,-0.883 0,-2.051 -0.75,-2.051 -0.535,0 -0.746,0.422 -0.746,0.973 0,1.078 0,2.14 -0.426,3.523 -0.433,1.469 -1.39,3.274 -5.554,3.699 -2.879,0.336 -13.442,0.547 -15.25,0.547 -0.535,0 -0.754,-0.316 -0.754,-0.742 v -9.398 c 0,-3.594 -0.098,-15.989 0,-18.254 0.324,-7.344 1.926,-8.742 12.379,-8.742 2.781,0 7.465,0 10.238,1.183 2.785,1.168 4.059,3.328 4.805,7.664 0.222,1.188 0.429,1.613 0.965,1.613 0.632,0 0.632,-0.847 0.632,-1.613 0,-0.832 -0.847,-8.086 -1.375,-10.301 -0.75,-2.796 -1.605,-2.796 -5.777,-2.796 -16.098,0 -23.246,0.656 -26.348,0.656 -0.531,0 -7.25,-0.321 -10.445,-0.321 -1.176,0 -1.711,0.215 -1.711,0.852 0,0.316 0.223,0.652 0.852,0.652 0.961,0 2.25,0.215 3.203,0.426 2.121,0.426 2.664,2.746 3.09,5.844 0.531,4.461 0.531,12.902 0.531,23.137 v 18.781" /><path
         id="path38"
         style="fill:#231f20;fill-opacity:1;fill-rule:nonzero;stroke:none"
         d="m 420.758,179.215 c 0,16.64 0,19.648 -0.215,23.055 -0.211,3.621 -1.07,5.335 -4.594,6.082 -0.84,0.211 -2.66,0.336 -3.613,0.336 -0.434,0 -0.863,0.195 -0.863,0.636 0,0.637 0.539,0.867 1.707,0.867 4.8,0 11.199,-0.336 12.058,-0.336 2.336,0 8.528,0.336 13.438,0.336 13.344,0 18.137,-4.531 19.844,-6.105 2.351,-2.231 5.335,-7.047 5.335,-12.676 0,-15.172 -11.089,-25.402 -26.242,-25.402 -0.535,0 -1.703,0 -2.242,0.125 -0.535,0 -1.176,0.195 -1.176,0.742 0,0.813 0.641,0.922 2.883,0.922 10.34,0 18.457,7.609 18.457,17.418 0,3.504 -0.32,10.64 -5.972,16.418 -5.661,5.754 -12.165,5.328 -14.622,5.328 -1.808,0 -3.628,-0.223 -4.582,-0.645 -0.64,-0.214 -0.859,-0.957 -0.859,-2.019 v -43.863 c 0,-10.235 0,-18.676 0.535,-23.137 0.324,-3.098 0.957,-5.418 4.16,-5.844 1.496,-0.211 3.836,-0.426 4.809,-0.426 0.637,0 0.848,-0.336 0.848,-0.652 0,-0.531 -0.536,-0.852 -1.704,-0.852 -5.875,0 -12.589,0.321 -13.125,0.321 -0.32,0 -7.043,-0.321 -10.238,-0.321 -1.176,0 -1.711,0.215 -1.711,0.852 0,0.316 0.215,0.652 0.848,0.652 0.965,0 2.238,0.215 3.207,0.426 2.129,0.426 2.668,2.746 3.09,5.844 0.539,4.461 0.539,12.902 0.539,23.137 v 18.781" /><path
         id="path40"
         style="fill:#231f20;fill-opacity:1;fill-rule:nonzero;stroke:none"
         d="m 477.078,169.922 c 0,-19.192 12.16,-41.902 41.391,-41.902 25.722,0 42.578,19.753 42.578,43.636 0,24.836 -17.93,40.004 -41.926,40.004 -29.441,0 -42.043,-24.445 -42.043,-41.738 z m 10.145,3.008 c 0,23.347 13.336,35.109 31.148,35.109 16.863,0 32.43,-13.777 32.43,-39.394 0,-31.032 -19.84,-36.571 -29.442,-36.571 -19.211,0 -34.136,16.02 -34.136,40.856" /><path
         id="path42"
         style="fill:#231f20;fill-opacity:1;fill-rule:nonzero;stroke:none"
         d="m 593.688,160.219 c 0,-15.664 0.425,-22.496 2.339,-24.43 1.707,-1.699 4.489,-2.461 12.805,-2.461 5.664,0 10.348,0.11 12.906,3.223 1.399,1.719 2.461,4.39 2.77,6.39 0.113,0.852 0.328,1.383 0.972,1.383 0.52,0 0.633,-0.426 0.633,-1.609 0,-1.152 -0.738,-7.563 -1.605,-10.641 -0.746,-2.461 -1.047,-2.886 -6.719,-2.886 -15.355,0 -22.402,0.656 -28.586,0.656 -0.953,0 -7.25,-0.321 -10.453,-0.321 -1.176,0 -1.703,0.215 -1.703,0.852 0,0.316 0.211,0.652 0.844,0.652 0.972,0 2.238,0.215 3.214,0.426 2.129,0.426 2.668,2.746 3.083,5.844 0.535,4.461 0.535,12.902 0.535,23.137 v 18.781 c 0,16.64 0,19.648 -0.211,23.055 -0.219,3.621 -1.063,5.335 -4.59,6.082 -0.848,0.211 -2.664,0.336 -3.625,0.336 -0.426,0 -0.863,0.195 -0.863,0.636 0,0.637 0.535,0.867 1.718,0.867 4.801,0 11.516,-0.336 12.051,-0.336 0.539,0 8.324,0.336 11.524,0.336 1.171,0 1.707,-0.23 1.707,-0.867 0,-0.441 -0.434,-0.636 -0.848,-0.636 -0.754,0 -2.246,-0.125 -3.531,-0.336 -3.09,-0.532 -3.942,-2.356 -4.153,-6.082 -0.214,-3.407 -0.214,-6.415 -0.214,-23.055 v -18.996" /><path
         id="path44"
         style="fill:#231f20;fill-opacity:1;fill-rule:nonzero;stroke:none"
         d="m 657.594,157.156 c 0,5.754 -1.063,8.09 -2.461,11.172 -0.738,1.699 -15.039,25.195 -18.766,30.738 -2.679,3.95 -5.344,6.594 -7.265,7.895 -1.594,1.078 -3.622,1.727 -4.594,1.727 -0.531,0 -1.047,0.195 -1.047,0.742 0,0.425 0.414,0.761 1.375,0.761 2.027,0 10.031,-0.336 10.559,-0.336 0.753,0 4.804,0.336 8.957,0.336 1.191,0 1.398,-0.336 1.398,-0.761 0,-0.442 -0.645,-0.547 -1.609,-0.973 -0.836,-0.418 -1.371,-1.07 -1.371,-1.91 0,-1.313 0.535,-2.57 1.371,-4.18 1.711,-3.078 17.718,-30.605 19.632,-33.722 2.024,4.496 15.575,27.847 17.707,31.386 1.403,2.239 1.809,4.055 1.809,5.434 0,1.496 -0.406,2.672 -1.699,2.992 -0.949,0.336 -1.594,0.531 -1.594,1.078 0,0.426 0.645,0.656 1.707,0.656 2.77,0 6.18,-0.336 7.035,-0.336 0.649,0 8.321,0.336 10.34,0.336 0.75,0 1.406,-0.23 1.406,-0.656 0,-0.547 -0.539,-0.847 -1.406,-0.847 -1.16,0 -3.187,-0.442 -4.902,-1.524 -2.133,-1.273 -3.301,-2.566 -5.649,-5.406 -3.515,-4.293 -18.464,-29.36 -20.382,-33.961 -1.594,-3.824 -1.594,-7.152 -1.594,-10.641 v -9.187 c 0,-1.699 0,-6.211 0.316,-10.672 0.223,-3.098 1.172,-5.418 4.383,-5.844 1.488,-0.211 3.832,-0.426 4.797,-0.426 0.629,0 0.851,-0.336 0.851,-0.652 0,-0.531 -0.523,-0.852 -1.71,-0.852 -5.86,0 -12.579,0.321 -13.118,0.321 -0.539,0 -7.265,-0.321 -10.453,-0.321 -1.183,0 -1.707,0.215 -1.707,0.852 0,0.316 0.211,0.652 0.84,0.652 0.977,0 2.242,0.215 3.215,0.426 2.133,0.426 3.09,2.746 3.301,5.844 0.328,4.461 0.328,8.973 0.328,10.672 v 9.187" /><path
         id="path46"
         style="fill:#231f20;fill-opacity:1;fill-rule:nonzero;stroke:none"
         d="m 740.375,160.434 c 0,-10.235 0,-18.676 0.516,-23.137 0.316,-3.098 0.972,-5.418 4.175,-5.844 1.504,-0.211 3.84,-0.426 4.782,-0.426 0.652,0 0.847,-0.336 0.847,-0.652 0,-0.531 -0.531,-0.852 -1.672,-0.852 -5.875,0 -12.578,0.321 -13.109,0.321 -0.547,0 -7.258,-0.321 -10.476,-0.321 -1.188,0 -1.719,0.215 -1.719,0.852 0,0.316 0.211,0.652 0.851,0.652 0.973,0 2.266,0.215 3.219,0.426 2.125,0.426 2.676,2.746 3.082,5.844 0.547,4.461 0.547,12.902 0.547,23.137 v 45.136 l -15.809,-0.211 c -6.601,-0.125 -9.16,-0.867 -10.855,-3.418 -1.188,-1.804 -1.508,-2.546 -1.824,-3.3 -0.321,-0.86 -0.637,-1.071 -1.075,-1.071 -0.316,0 -0.539,0.321 -0.539,0.965 0,1.07 2.145,10.258 2.356,11.11 0.211,0.652 0.644,2.015 1.082,2.015 0.73,0 1.805,-1.051 4.695,-1.281 3.074,-0.313 7.125,-0.524 8.418,-0.524 h 40.008 c 6.824,0 9.676,1.055 10.543,1.055 0.547,0 0.547,-0.613 0.547,-1.265 0,-3.207 -0.32,-10.579 -0.32,-11.754 0,-0.957 -0.317,-1.399 -0.758,-1.399 -0.532,0 -0.746,0.317 -0.867,1.821 l -0.098,1.187 c -0.399,3.188 -2.844,5.629 -13.094,5.859 l -13.453,0.211 v -45.136" /><path
         id="path48"
         style="fill:#231f20;fill-opacity:1;fill-rule:nonzero;stroke:none"
         d="m 791.355,179.215 c 0,16.64 0,19.648 -0.195,23.055 -0.211,3.621 -1.058,5.335 -4.601,6.082 -0.848,0.211 -2.653,0.336 -3.629,0.336 -0.422,0 -0.832,0.195 -0.832,0.636 0,0.637 0.507,0.867 1.691,0.867 4.789,0 11.516,-0.336 12.047,-0.336 0.769,0 21.977,0 24.43,0.106 2.027,0.105 3.75,0.336 4.617,0.543 0.535,0.105 0.957,0.512 1.488,0.512 0.313,0 0.399,-0.407 0.399,-0.95 0,-0.742 -0.52,-2.027 -0.825,-5.027 -0.105,-1.062 -0.316,-5.75 -0.527,-7.035 -0.125,-0.539 -0.32,-1.195 -0.746,-1.195 -0.656,0 -0.887,0.55 -0.887,1.398 0,0.754 -0.086,2.586 -0.637,3.859 -0.73,1.7 -1.804,2.973 -7.558,3.594 -1.82,0.231 -13.461,0.336 -14.629,0.336 -0.426,0 -0.645,-0.336 -0.645,-1.078 v -29.402 c 0,-0.762 0.114,-1.082 0.645,-1.082 1.371,0 14.523,0 16.977,0.211 2.539,0.214 4.042,0.445 5.007,1.488 0.754,0.832 1.18,1.363 1.621,1.363 0.317,0 0.532,-0.211 0.532,-0.848 0,-0.585 -0.532,-2.425 -0.868,-5.968 -0.214,-2.16 -0.445,-6.051 -0.445,-6.797 0,-0.883 0,-2.051 -0.722,-2.051 -0.551,0 -0.77,0.422 -0.77,0.973 0,1.078 0,2.14 -0.398,3.523 -0.446,1.469 -1.418,3.274 -5.559,3.699 -2.879,0.336 -13.453,0.547 -15.25,0.547 -0.551,0 -0.77,-0.316 -0.77,-0.742 v -9.398 c 0,-3.594 -0.089,-15.989 0,-18.254 0.325,-7.344 1.918,-8.742 12.372,-8.742 2.796,0 7.453,0 10.257,1.183 2.789,1.168 4.063,3.328 4.797,7.664 0.223,1.188 0.446,1.613 0.957,1.613 0.629,0 0.629,-0.847 0.629,-1.613 0,-0.832 -0.851,-8.086 -1.363,-10.301 -0.75,-2.796 -1.594,-2.796 -5.77,-2.796 -16.101,0 -23.246,0.656 -26.359,0.656 -0.531,0 -7.258,-0.321 -10.461,-0.321 -1.141,0 -1.676,0.215 -1.676,0.852 0,0.316 0.207,0.652 0.836,0.652 0.945,0 2.238,0.215 3.203,0.426 2.149,0.426 2.68,2.746 3.106,5.844 0.511,4.461 0.511,12.902 0.511,23.137 v 18.781" /><path
         id="path50"
         style="fill:#231f20;fill-opacity:1;fill-rule:nonzero;stroke:none"
         d="m 857.172,139.543 c -10.356,9.312 -12.902,21.422 -12.902,31.562 0,7.153 2.441,19.653 11.929,29.157 6.426,6.371 16.125,11.398 32.59,11.398 4.246,0 10.195,-0.324 15.473,-1.281 4,-0.734 7.449,-1.391 10.867,-1.586 1.133,-0.105 1.363,-0.547 1.363,-1.188 0,-0.867 -0.336,-2.14 -0.512,-5.972 -0.25,-3.524 -0.25,-9.371 -0.339,-10.985 -0.086,-1.609 -0.301,-2.265 -0.918,-2.265 -0.762,0 -0.868,0.762 -0.868,2.265 0,4.161 -1.718,8.536 -4.496,10.887 -3.718,3.168 -11.933,6.07 -21.312,6.07 -14.219,0 -20.82,-4.167 -24.582,-7.769 -7.797,-7.469 -9.582,-16.977 -9.582,-27.863 0,-20.391 15.699,-39.067 38.5,-39.067 8,0 14.301,0.953 18.551,5.364 2.285,2.351 3.664,7.027 3.984,8.957 0.211,1.187 0.422,1.628 1.062,1.628 0.512,0 0.708,-0.761 0.708,-1.628 0,-0.762 -1.243,-10.02 -2.301,-13.684 -0.637,-1.984 -0.852,-2.195 -2.797,-3.047 -4.285,-1.715 -12.391,-2.476 -19.207,-2.476 -16.004,0 -26.785,3.964 -35.211,11.523" /><path
         id="path52"
         style="fill:#231f20;fill-opacity:1;fill-rule:nonzero;stroke:none"
         d="m 1006.75,160.434 c 0,-10.235 0,-18.676 0.53,-23.137 0.32,-3.098 0.98,-5.418 4.18,-5.844 1.47,-0.211 3.81,-0.426 4.78,-0.426 0.66,0 0.85,-0.336 0.85,-0.652 0,-0.531 -0.53,-0.852 -1.7,-0.852 -5.86,0 -12.57,0.321 -13.1,0.321 -0.53,0 -7.274,-0.321 -10.477,-0.321 -1.168,0 -1.7,0.215 -1.7,0.852 0,0.316 0.196,0.652 0.852,0.652 0.973,0 2.265,0.215 3.219,0.426 2.109,0.426 2.64,2.746 3.062,5.844 0.551,4.461 0.551,12.902 0.551,23.137 v 11.222 c 0,0.422 -0.336,0.637 -0.656,0.637 h -45.246 c -0.317,0 -0.618,-0.105 -0.618,-0.637 v -11.222 c 0,-10.235 0,-18.676 0.512,-23.137 0.32,-3.098 0.973,-5.418 4.195,-5.844 1.504,-0.211 3.825,-0.426 4.762,-0.426 0.656,0 0.887,-0.336 0.887,-0.652 0,-0.531 -0.551,-0.852 -1.719,-0.852 -5.859,0 -12.586,0.321 -13.117,0.321 -0.531,0 -7.238,-0.321 -10.442,-0.321 -1.187,0 -1.738,0.215 -1.738,0.852 0,0.316 0.231,0.652 0.871,0.652 0.953,0 2.231,0.215 3.203,0.426 2.161,0.426 2.692,2.746 3.114,5.844 0.515,4.461 0.515,12.902 0.515,23.137 v 18.781 c 0,16.64 0,19.648 -0.215,23.055 -0.21,3.621 -1.042,5.335 -4.582,6.082 -0.851,0.211 -2.675,0.336 -3.648,0.336 -0.426,0 -0.832,0.195 -0.832,0.636 0,0.637 0.516,0.867 1.684,0.867 4.832,0 11.539,-0.336 12.07,-0.336 0.531,0 7.258,0.336 10.461,0.336 1.207,0 1.719,-0.23 1.719,-0.867 0,-0.441 -0.426,-0.636 -0.848,-0.636 -0.746,0 -1.402,-0.125 -2.691,-0.336 -2.887,-0.532 -3.739,-2.356 -3.965,-6.082 -0.196,-3.407 -0.196,-6.415 -0.196,-23.055 v -2.25 c 0,-0.512 0.301,-0.602 0.618,-0.602 h 45.246 c 0.32,0 0.656,0.09 0.656,0.602 v 2.25 c 0,16.64 0,19.648 -0.231,23.055 -0.211,3.621 -1.062,5.335 -4.55,6.082 -0.868,0.211 -2.707,0.336 -3.645,0.336 -0.441,0 -0.887,0.195 -0.887,0.636 0,0.637 0.551,0.867 1.735,0.867 4.797,0 11.541,-0.336 12.071,-0.336 0.53,0 7.24,0.336 10.43,0.336 1.17,0 1.7,-0.23 1.7,-0.867 0,-0.441 -0.43,-0.636 -0.85,-0.636 -0.74,0 -1.36,-0.125 -2.62,-0.336 -2.92,-0.532 -3.79,-2.356 -3.98,-6.082 -0.22,-3.407 -0.22,-6.415 -0.22,-23.055 v -18.781" /><path
         id="path54"
         style="fill:#231f20;fill-opacity:1;fill-rule:nonzero;stroke:none"
         d="m 1047.63,144.023 c 0.21,-8.761 1.24,-11.527 4.14,-12.359 2.04,-0.547 4.39,-0.637 5.33,-0.637 0.53,0 0.83,-0.211 0.83,-0.652 0,-0.637 -0.62,-0.852 -1.88,-0.852 -6.1,0 -10.33,0.321 -11.31,0.321 -0.97,0 -5.45,-0.321 -10.25,-0.321 -1.08,0 -1.71,0.09 -1.71,0.852 0,0.441 0.31,0.652 0.85,0.652 0.86,0 2.79,0.09 4.4,0.637 2.64,0.727 3.17,3.809 3.17,13.527 l 0.13,61.125 c 0,4.188 0.31,5.344 1.16,5.344 0.85,0 2.69,-2.336 3.76,-3.414 1.59,-1.808 17.49,-18.996 33.91,-36.59 10.57,-11.332 22.18,-24.304 25.6,-27.863 l -1.19,54.211 c -0.08,6.914 -0.86,9.285 -4.14,10.133 -1.91,0.426 -4.37,0.551 -5.24,0.551 -0.74,0 -0.86,0.3 -0.86,0.742 0,0.636 0.86,0.761 2.14,0.761 4.79,0 9.93,-0.336 11.11,-0.336 1.19,0 4.69,0.336 9.07,0.336 1.17,0 1.91,-0.125 1.91,-0.761 0,-0.442 -0.43,-0.742 -1.15,-0.742 -0.55,0 -1.29,0 -2.59,-0.336 -3.52,-0.747 -3.96,-3.118 -3.96,-9.489 l -0.21,-62.523 c 0,-7.047 -0.22,-7.559 -0.96,-7.559 -0.83,0 -2.09,1.168 -7.79,6.817 -1.15,1.078 -16.53,16.726 -27.81,28.906 -12.39,13.312 -24.46,26.781 -27.84,30.625 l 1.38,-51.106" /><path
         id="path56"
         style="fill:#231f20;fill-opacity:1;fill-rule:nonzero;stroke:none"
         d="m 1154.71,160.434 c 0,-10.235 0,-18.676 0.54,-23.137 0.32,-3.098 0.96,-5.418 4.18,-5.844 1.49,-0.211 3.83,-0.426 4.78,-0.426 0.64,0 0.85,-0.336 0.85,-0.652 0,-0.531 -0.53,-0.852 -1.7,-0.852 -5.87,0 -12.58,0.321 -13.11,0.321 -0.54,0 -7.25,-0.321 -10.47,-0.321 -1.18,0 -1.71,0.215 -1.71,0.852 0,0.316 0.21,0.652 0.85,0.652 0.97,0 2.26,0.215 3.22,0.426 2.12,0.426 2.67,2.746 3.08,5.844 0.51,4.461 0.51,12.902 0.51,23.137 v 18.781 c 0,16.64 0,19.648 -0.19,23.055 -0.2,3.621 -1.28,5.445 -3.61,5.976 -1.17,0.317 -2.59,0.442 -3.33,0.442 -0.43,0 -0.85,0.195 -0.85,0.636 0,0.637 0.53,0.867 1.7,0.867 3.55,0 10.26,-0.336 10.8,-0.336 0.53,0 7.24,0.336 10.47,0.336 1.16,0 1.69,-0.23 1.69,-0.867 0,-0.441 -0.45,-0.636 -0.85,-0.636 -0.75,0 -1.38,-0.125 -2.66,-0.336 -2.92,-0.532 -3.77,-2.356 -3.98,-6.082 -0.21,-3.407 -0.21,-6.415 -0.21,-23.055 v -18.781" /><path
         id="path58"
         style="fill:#231f20;fill-opacity:1;fill-rule:nonzero;stroke:none"
         d="m 1256.93,121.734 c 17.28,-9.504 31.02,-14.32 43.96,-14.32 15.79,0 27.74,4.606 33.81,7.363 0.65,0.34 0.87,0.637 0.87,1.063 0,0.32 -0.22,0.64 -0.66,0.64 -0.32,0 -0.85,-0.214 -1.5,-0.445 -7.33,-2.937 -15.67,-4.125 -21.02,-4.125 -5.32,0 -21.52,0.551 -44.91,12.551 l -21.87,11.328 c 7.04,4.641 18.9,17.086 18.9,35.867 0,24.731 -17.93,40.004 -41.92,40.004 -29.45,0 -42.06,-24.445 -42.06,-41.738 0,-19.192 12.16,-41.902 41.74,-41.902 5.63,0 12.89,1.593 16.73,3.644 z m -66.27,51.196 c 0,23.347 13.36,35.109 31.17,35.109 16.85,0 32.43,-13.777 32.43,-39.394 0,-31.032 -19.86,-36.571 -29.45,-36.571 -19.21,0 -34.15,16.02 -34.15,40.856" /><path
         id="path60"
         style="fill:#231f20;fill-opacity:1;fill-rule:nonzero;stroke:none"
         d="m 1284.67,179.215 c 0,16.64 0,19.648 -0.21,23.055 -0.21,3.621 -1.06,5.335 -4.62,6.082 -0.85,0.211 -2.65,0.336 -3.61,0.336 -0.41,0 -0.85,0.195 -0.85,0.636 0,0.637 0.55,0.867 1.7,0.867 4.81,0 11.31,-0.336 12.28,-0.336 0.96,0 7.33,0.336 10.55,0.336 1.21,0 1.72,-0.23 1.72,-0.867 0,-0.441 -0.44,-0.636 -0.83,-0.636 -0.78,0 -1.42,-0.125 -2.71,-0.336 -2.88,-0.418 -3.72,-2.356 -3.93,-6.082 -0.21,-3.407 -0.21,-6.415 -0.21,-23.055 v -14.926 c 0,-15.344 3.4,-22.004 8.02,-26.34 5.2,-4.937 10.02,-5.875 16.09,-5.875 6.5,0 12.89,3.078 16.75,7.699 4.9,6.055 6.17,15.137 6.17,26.129 v 13.313 c 0,16.64 0,19.648 -0.21,23.055 -0.21,3.621 -1.06,5.335 -4.57,6.082 -0.85,0.211 -2.67,0.336 -3.64,0.336 -0.45,0 -0.85,0.195 -0.85,0.636 0,0.637 0.51,0.867 1.7,0.867 4.81,0 10.69,-0.336 11.33,-0.336 0.74,0 5.73,0.336 8.97,0.336 1.17,0 1.68,-0.23 1.68,-0.867 0,-0.441 -0.4,-0.636 -0.83,-0.636 -0.74,0 -1.4,0 -2.69,-0.336 -2.9,-0.532 -3.74,-2.356 -3.95,-6.082 -0.23,-3.407 -0.23,-6.415 -0.23,-23.055 v -11.418 c 0,-11.488 -1.25,-24.324 -9.8,-31.899 -7.67,-6.816 -15.67,-7.878 -21.99,-7.878 -3.59,0 -14.37,0.425 -21.95,7.578 -5.24,5.023 -9.28,12.496 -9.28,28.054 v 15.563" /><path
         id="path62"
         style="fill:#231f20;fill-opacity:1;fill-rule:nonzero;stroke:none"
         d="m 1379.4,179.215 c 0,16.64 0,19.648 -0.22,23.055 -0.21,3.621 -1.06,5.335 -4.6,6.082 -0.83,0.211 -2.64,0.336 -3.61,0.336 -0.42,0 -0.85,0.195 -0.85,0.636 0,0.637 0.53,0.867 1.7,0.867 4.8,0 11.52,-0.336 12.05,-0.336 0.73,0 21.99,0 24.43,0.106 2.02,0.105 3.72,0.336 4.59,0.543 0.53,0.105 0.97,0.512 1.5,0.512 0.34,0 0.43,-0.407 0.43,-0.95 0,-0.742 -0.53,-2.027 -0.87,-5.027 -0.09,-1.062 -0.32,-5.75 -0.53,-7.035 -0.11,-0.539 -0.32,-1.195 -0.74,-1.195 -0.66,0 -0.87,0.55 -0.87,1.398 0,0.754 -0.09,2.586 -0.64,3.859 -0.72,1.7 -1.8,2.973 -7.56,3.594 -1.8,0.231 -13.43,0.336 -14.62,0.336 -0.41,0 -0.64,-0.336 -0.64,-1.078 v -29.402 c 0,-0.762 0.13,-1.082 0.64,-1.082 1.38,0 14.5,0 16.98,0.211 2.55,0.214 4.03,0.445 4.97,1.488 0.78,0.832 1.19,1.363 1.63,1.363 0.32,0 0.53,-0.211 0.53,-0.848 0,-0.585 -0.53,-2.425 -0.85,-5.968 -0.23,-2.16 -0.44,-6.051 -0.44,-6.797 0,-0.883 0,-2.051 -0.75,-2.051 -0.51,0 -0.74,0.422 -0.74,0.973 0,1.078 0,2.14 -0.41,3.523 -0.44,1.469 -1.39,3.274 -5.55,3.699 -2.87,0.336 -13.44,0.547 -15.25,0.547 -0.53,0 -0.76,-0.316 -0.76,-0.742 v -9.398 c 0,-3.594 -0.09,-15.989 0,-18.254 0.32,-7.344 1.95,-8.742 12.38,-8.742 2.76,0 7.47,0 10.21,1.183 2.82,1.168 4.11,3.328 4.83,7.664 0.23,1.188 0.45,1.613 0.96,1.613 0.65,0 0.65,-0.847 0.65,-1.613 0,-0.832 -0.85,-8.086 -1.38,-10.301 -0.74,-2.796 -1.61,-2.796 -5.78,-2.796 -16.13,0 -23.25,0.656 -26.35,0.656 -0.53,0 -7.25,-0.321 -10.44,-0.321 -1.17,0 -1.7,0.215 -1.7,0.852 0,0.316 0.21,0.652 0.85,0.652 0.96,0 2.23,0.215 3.15,0.426 2.16,0.426 2.69,2.746 3.14,5.844 0.53,4.461 0.53,12.902 0.53,23.137 v 18.781" /><path
         id="path64"
         style="fill:#231f20;fill-opacity:1;fill-rule:nonzero;stroke:none"
         d="m 10.082,51.2305 c 0,16.6211 0,19.5937 -0.21481,23.0273 -0.21094,3.6485 -1.0625,5.3125 -4.58203,6.0547 -0.85157,0.2148 -2.66407,0.3203 -3.63282,0.3203 -0.42187,0 -0.847652,0.211 -0.847652,0.6367 0,0.6563 0.535152,0.8672 1.707032,0.8672 4.79687,0 11.51558,-0.3359 12.05078,-0.3359 2.1328,0 23.7891,0 26.25,0.125 2.0273,0.1055 3.7305,0.1055 4.6875,0.4219 0.6523,0.2148 1.0742,0.6367 1.4922,0.6367 0.4375,0 0.6484,-0.4219 0.6484,-0.9531 0,-0.7618 -0.5351,-2.0352 -0.8593,-4.9922 -0.0977,-1.0821 -0.3125,-5.7891 -0.5352,-7.0274 -0.0938,-0.5312 -0.3164,-1.1875 -0.8477,-1.1875 -0.5351,0 -0.7421,0.5313 -0.7421,1.293 0,0.832 -0.3204,2.6367 -0.9649,4.0195 -0.6406,1.3985 -3.1016,3.3281 -7.2539,3.4336 l -16.4336,0.336 c -0.6328,0 -0.9609,-0.336 -0.9609,-1.2032 v -29.457 c 0,-0.6563 0.1133,-0.957 0.7461,-0.957 l 13.664,0.1054 c 1.8086,0 3.3086,0 4.8008,0.1094 2.5586,0.2109 3.9453,0.5274 4.8984,1.9297 0.4336,0.5469 0.754,1.0781 1.1836,1.0781 0.418,0 0.5274,-0.3359 0.5274,-0.8672 0,-0.6367 -0.5274,-2.4804 -0.8555,-5.9492 -0.2109,-2.1406 -0.4219,-6.4414 -0.4219,-7.1836 0,-0.9219 0,-2 -0.7461,-2 -0.539,0 -0.746,0.4219 -0.746,0.9531 -0.1055,1.0469 -0.2188,2.5313 -0.6407,3.8243 -0.539,1.5039 -2.2383,3.4336 -5.5508,3.8593 -2.6679,0.3164 -14.2929,0.3164 -16.1132,0.3164 -0.5352,0 -0.7461,-0.1914 -0.7461,-0.9531 v -9.082 c 0,-10.2305 0,-18.6563 0.539,-23.15626 0.3243,-3.07813 0.9571,-5.4336 4.1602,-5.85938 1.4922,-0.22656 3.8476,-0.4414 4.8008,-0.4414 0.6328,0 0.8398,-0.31641 0.8398,-0.63672 0,-0.54688 -0.5195,-0.84766 -1.6992,-0.84766 -5.8633,0 -12.5781,0.30078 -13.1211,0.30078 -0.5352,0 -7.25391,-0.30078 -10.45312,-0.30078 -1.17969,0 -1.70313,0.19141 -1.70313,0.84766 0,0.32031 0.21484,0.63672 0.85156,0.63672 0.96094,0 2.23828,0.21484 3.20703,0.4414 C 8.58984,3.83984 9.125,6.19531 9.55078,9.27344 10.082,13.7734 10.082,22.1992 10.082,32.4297 v 18.8008" /><path
         id="path66"
         style="fill:#231f20;fill-opacity:1;fill-rule:nonzero;stroke:none"
         d="m 73.2383,51.2305 c 0,16.6211 0,19.5937 -0.2149,23.0273 -0.207,3.6485 -1.0625,5.3125 -4.5781,6.0547 -0.8633,0.2148 -2.668,0.3203 -3.6406,0.3203 -0.418,0 -0.8477,0.211 -0.8477,0.6367 0,0.6563 0.5352,0.8672 1.711,0.8672 4.8008,0 11.5195,-0.3359 12.0547,-0.3359 0.7343,0 21.9765,0 24.4373,0.125 2.02,0.1055 3.727,0.3164 4.582,0.5273 0.528,0.1094 0.961,0.5313 1.492,0.5313 0.317,0 0.422,-0.4219 0.422,-0.9531 0,-0.7618 -0.527,-2.0352 -0.847,-4.9922 -0.106,-1.0821 -0.321,-5.7891 -0.539,-7.0274 -0.11,-0.5312 -0.321,-1.1875 -0.747,-1.1875 -0.636,0 -0.851,0.5313 -0.851,1.3828 0,0.7422 -0.102,2.5469 -0.645,3.8243 -0.742,1.7343 -1.812,3.0078 -7.5661,3.6445 -1.8164,0.2305 -13.4453,0.3359 -14.6211,0.3359 -0.4296,0 -0.6367,-0.3359 -0.6367,-1.0781 v -29.457 c 0,-0.7618 0.1055,-1.0821 0.6367,-1.0821 1.3907,0 14.5079,0 16.9688,0.1953 2.5624,0.2305 4.0504,0.4415 5.0074,1.5079 0.754,0.8828 1.176,1.414 1.602,1.414 0.324,0 0.531,-0.2109 0.531,-0.8672 0,-0.6367 -0.531,-2.4804 -0.847,-5.9492 -0.215,-2.1406 -0.43,-6.125 -0.43,-6.8476 0,-0.8516 0,-2 -0.75,-2 -0.52,0 -0.742,0.4218 -0.742,0.9531 0,1.0469 0,2.0898 -0.434,3.4883 -0.418,1.5039 -1.375,3.3281 -5.539,3.7539 -2.8867,0.3164 -13.4414,0.5312 -15.2617,0.5312 -0.5351,0 -0.7422,-0.3008 -0.7422,-0.7461 v -9.3984 c 0,-3.6484 -0.1054,-15.9844 0,-18.2344 0.3242,-7.36327 1.9219,-8.74217 12.375,-8.74217 2.7696,0 7.4689,0 10.2379,1.18359 2.782,1.16797 4.063,3.27734 4.805,7.66798 0.215,1.1836 0.426,1.6094 0.957,1.6094 0.641,0 0.641,-0.8672 0.641,-1.6094 0,-0.8672 -0.852,-8.10939 -1.383,-10.35939 -0.754,-2.77734 -1.602,-2.77734 -5.762,-2.77734 -16.1092,0 -23.2615,0.62109 -26.3513,0.62109 -0.5352,0 -7.2539,-0.30078 -10.4571,-0.30078 -1.1758,0 -1.7109,0.19141 -1.7109,0.84766 0,0.32031 0.2226,0.63672 0.8594,0.63672 0.9531,0 2.2382,0.21484 3.1953,0.4414 2.1328,0.42578 2.6719,2.78125 3.1015,5.85938 0.5274,4.49996 0.5274,12.92576 0.5274,23.15626 z M 104.18,96.6719 c 0.523,-0.9571 0,-1.293 -0.434,-1.293 -0.308,0 -1.375,0.2305 -3.195,0 -5.2307,-0.5312 -12.6916,-2.9922 -16.2151,-4.4961 -0.7421,-0.3203 -1.3906,-0.5312 -1.6015,-0.5312 -0.2071,0 -0.5313,0.2109 -0.5313,0.6367 0,0.3164 0.2071,0.5469 0.7422,0.8672 3.8516,2.6718 13.7735,8.6365 14.5156,9.0625 1.8125,1.078 2.4532,1.398 2.9841,1.398 0.317,0 0.532,-0.211 1.063,-0.972 0.746,-1.063 1.496,-2.5667 2.672,-4.6721" /><path
         id="path68"
         style="fill:#231f20;fill-opacity:1;fill-rule:nonzero;stroke:none"
         d="m 138.316,32.4297 c 0,-10.2305 0,-18.6563 -0.539,-23.15626 -0.414,-3.07813 -0.957,-5.4336 -3.097,-5.85938 -0.957,-0.22656 -2.231,-0.4414 -3.196,-0.4414 -0.636,0 -0.847,-0.31641 -0.847,-0.63672 0,-0.65625 0.527,-0.84766 1.707,-0.84766 3.195,0 9.922,0.30078 10.453,0.30078 1.062,0 14.508,-1.25781 23.683,-1.25781 18.137,0 27.731,7.48828 32.333,12.26565 5.972,6.2851 11.511,16.6406 11.511,30.0937 0,12.6758 -5.015,21.5274 -10.344,27.1211 -12.699,13.0977 -32.214,12.125 -42.773,12.125 -6.41,0 -13.129,-0.3359 -14.41,-0.3359 -0.539,0 -7.258,0.3359 -12.055,0.3359 -1.168,0 -1.711,-0.2109 -1.711,-0.8672 0,-0.4257 0.434,-0.6367 0.86,-0.6367 0.957,0 2.769,-0.1055 3.621,-0.3203 3.523,-0.7422 4.371,-2.4062 4.593,-6.0547 0.211,-3.4336 0.211,-6.4062 0.211,-23.0273 z m 8.965,20.5 c 0,8.2305 0,19.0625 0.11,22.7109 0,1.1836 0.308,1.7149 1.269,2.1407 0.863,0.4257 4.813,0.7617 6.934,0.7617 12.703,0 24.871,-1.5039 34.886,-12.0899 4.383,-4.5859 10.247,-13.332 10.247,-26.8711 0,-9.8242 -2.985,-20.0742 -8.536,-25.4922 -6.293,-6.28511 -15.468,-9.92964 -25.39,-9.92964 -12.586,0 -16.754,2.24609 -18.141,4.26562 -0.855,1.1875 -1.066,5.43362 -1.164,8.12502 -0.105,1.9844 -0.215,11.8086 -0.215,23.1367 v 13.2422" /><path
         id="path70"
         style="fill:#231f20;fill-opacity:1;fill-rule:nonzero;stroke:none"
         d="m 231.871,51.2305 c 0,16.6211 0,19.5937 -0.211,23.0273 -0.215,3.6485 -1.07,5.3125 -4.586,6.0547 -0.847,0.2148 -2.664,0.3203 -3.629,0.3203 -0.425,0 -0.847,0.211 -0.847,0.6367 0,0.6563 0.531,0.8672 1.707,0.8672 4.789,0 11.515,-0.3359 12.054,-0.3359 0.743,0 21.969,0 24.43,0.125 2.027,0.1055 3.727,0.3164 4.59,0.5273 0.535,0.1094 0.953,0.5313 1.488,0.5313 0.328,0 0.426,-0.4219 0.426,-0.9531 0,-0.7618 -0.539,-2.0352 -0.855,-4.9922 -0.106,-1.0821 -0.313,-5.7891 -0.524,-7.0274 -0.117,-0.5312 -0.324,-1.1875 -0.746,-1.1875 -0.652,0 -0.859,0.5313 -0.859,1.3828 0,0.7422 -0.11,2.5469 -0.645,3.8243 -0.742,1.7343 -1.809,3.0078 -7.574,3.6445 -1.813,0.2305 -13.438,0.3359 -14.613,0.3359 -0.43,0 -0.637,-0.3359 -0.637,-1.0781 v -29.457 c 0,-0.7618 0.113,-1.0821 0.637,-1.0821 1.386,0 14.515,0 16.964,0.1953 2.563,0.2305 4.055,0.4415 5.016,1.5079 0.742,0.8828 1.172,1.414 1.598,1.414 0.324,0 0.535,-0.2109 0.535,-0.8672 0,-0.6367 -0.535,-2.4804 -0.856,-5.9492 -0.218,-2.1406 -0.425,-6.125 -0.425,-6.8476 0,-0.8516 0,-2 -0.75,-2 -0.532,0 -0.743,0.4218 -0.743,0.9531 0,1.0469 0,2.0898 -0.425,3.4883 -0.43,1.5039 -1.387,3.3281 -5.555,3.7539 -2.871,0.3164 -13.438,0.5312 -15.254,0.5312 -0.535,0 -0.742,-0.3008 -0.742,-0.7461 v -9.3984 c 0,-3.6484 -0.11,-15.9844 0,-18.2344 0.32,-7.36327 1.918,-8.74217 12.375,-8.74217 2.777,0 7.469,0 10.242,1.18359 2.77,1.16797 4.043,3.27734 4.793,7.66798 0.215,1.1836 0.438,1.6094 0.965,1.6094 0.64,0 0.64,-0.8672 0.64,-1.6094 0,-0.8672 -0.863,-8.10939 -1.39,-10.35939 -0.742,-2.77734 -1.598,-2.77734 -5.754,-2.77734 -16.113,0 -23.254,0.62109 -26.352,0.62109 -0.539,0 -7.265,-0.30078 -10.457,-0.30078 -1.179,0 -1.703,0.19141 -1.703,0.84766 0,0.32031 0.211,0.63672 0.848,0.63672 0.957,0 2.238,0.21484 3.207,0.4414 2.121,0.42578 2.66,2.78125 3.086,5.85938 0.531,4.49996 0.531,12.92576 0.531,23.15626 z m 30.945,45.4414 c 0.536,-0.9571 0,-1.293 -0.425,-1.293 -0.325,0 -1.387,0.2305 -3.203,0 -5.223,-0.5312 -12.7,-2.9922 -16.215,-4.4961 -0.75,-0.3203 -1.391,-0.5312 -1.598,-0.5312 -0.215,0 -0.535,0.2109 -0.535,0.6367 0,0.3164 0.207,0.5469 0.742,0.8672 3.84,2.6718 13.758,8.6365 14.508,9.0625 1.812,1.078 2.461,1.398 2.988,1.398 0.32,0 0.535,-0.211 1.063,-0.972 0.75,-1.063 1.496,-2.5667 2.675,-4.6721" /><path
         id="path72"
         style="fill:#231f20;fill-opacity:1;fill-rule:nonzero;stroke:none"
         d="m 296.949,32.4297 c 0,-10.2305 0,-18.6563 -0.531,-23.15626 -0.43,-3.07813 -0.961,-5.4336 -3.094,-5.85938 -0.957,-0.22656 -2.25,-0.4414 -3.203,-0.4414 -0.633,0 -0.851,-0.31641 -0.851,-0.63672 0,-0.65625 0.535,-0.84766 1.707,-0.84766 3.203,0 9.925,0.30078 10.031,0.30078 0.523,0 7.254,-0.30078 13.121,-0.30078 1.172,0 1.699,0.30078 1.699,0.84766 0,0.32031 -0.207,0.63672 -0.84,0.63672 -0.965,0 -3.312,0.21484 -4.816,0.4414 -3.192,0.42578 -3.828,2.78125 -4.152,5.85938 -0.536,4.49996 -0.536,12.92576 -0.536,23.15626 v 2.5664 c 0,0.5156 0.211,0.8516 0.743,0.8516 l 13.125,-0.2149 c 0.64,0 0.964,-0.2305 1.386,-0.6367 2.145,-2.7773 7.153,-9.9102 11.633,-15.8086 6.078,-8 9.82,-13.20312 14.399,-15.68359 C 349.547,2 352.215,1.48828 358.188,1.48828 h 7.574 c 1.922,0 2.554,0.19141 2.554,0.84766 0,0.32031 -0.418,0.63672 -0.957,0.63672 -0.636,0 -2.136,0 -4.16,0.33593 -2.66,0.42579 -7.25,1.61329 -13.011,7.64841 -6.184,6.6407 -13.446,16.125 -22.2,27.3321 9.61,8.8515 12.914,16.7265 12.914,24.6406 0,7.3828 -4.691,12.6055 -7.355,14.5351 -5.656,4.0157 -12.809,4.6719 -19.524,4.6719 -3.316,0 -11.414,-0.3359 -12.597,-0.3359 -0.524,0 -7.246,0.3359 -12.047,0.3359 -1.176,0 -1.707,-0.2109 -1.707,-0.8672 0,-0.4257 0.418,-0.6367 0.851,-0.6367 0.965,0 2.774,-0.1055 3.629,-0.3203 3.528,-0.7422 4.371,-2.4062 4.578,-6.0547 0.219,-3.4336 0.219,-6.4062 0.219,-23.0273 z m 8.535,44.3945 c 0,0.6406 0.325,1.0821 0.86,1.2774 1.058,0.3359 3.941,0.6523 7.14,0.6523 11.426,0 18.457,-8.0351 18.457,-21.3476 0,-8.1055 -2.777,-13.8594 -6.511,-16.4258 -2.45,-1.7344 -5.438,-2.0352 -7.996,-2.0352 -4.696,0 -9.598,0.7422 -11.207,1.6992 -0.532,0.336 -0.743,0.7422 -0.743,1.2891 v 34.8906" /><path
         id="path74"
         style="fill:#231f20;fill-opacity:1;fill-rule:nonzero;stroke:none"
         d="m 368.539,13.2422 c -1.926,-5.33204 -4.059,-9.40236 -8.965,-10.0547 -0.855,-0.10937 -2.355,-0.21484 -3.101,-0.21484 -0.524,0 -0.957,-0.21094 -0.957,-0.63672 0,-0.65625 0.64,-0.84766 2.031,-0.84766 5.016,0 10.879,0.30078 12.051,0.30078 1.179,0 5.761,-0.30078 8.328,-0.30078 0.957,0 1.597,0.19141 1.597,0.84766 0,0.42578 -0.32,0.63672 -1.066,0.63672 h -1.066 c -1.813,0 -4.059,0.97265 -4.059,3.11718 0,1.92969 0.535,4.44146 1.492,7.15236 l 6.399,18.8867 c 0.222,0.5156 0.539,0.832 1.074,0.832 h 22.933 c 0.536,0 0.75,-0.1953 0.965,-0.6211 l 9.922,-26.24996 c 0.645,-1.71875 0,-2.67578 -0.64,-2.90234 -0.43,-0.10937 -0.747,-0.32031 -0.747,-0.74609 0,-0.65235 1.165,-0.65235 3.2,-0.76172 7.363,-0.19141 15.148,-0.19141 16.75,-0.19141 1.175,0 2.133,0.19141 2.133,0.84766 0,0.53125 -0.422,0.63672 -1.075,0.63672 -1.058,0 -2.66,0.10547 -4.265,0.63672 -2.239,0.65625 -5.328,2.375 -9.164,11.87892 -6.504,16.1992 -23.27,60.2773 -24.868,64.3125 -1.273,3.3086 -1.703,3.8398 -2.343,3.8398 -0.645,0 -1.063,-0.6562 -2.344,-4.1601 z m 14.922,23.543 c -0.305,0 -0.527,0.2109 -0.305,0.7617 l 9.387,28.8164 c 0.527,1.6133 1.055,1.6133 1.59,0 l 10.14,-28.8164 c 0.11,-0.4453 0.11,-0.7617 -0.429,-0.7617 h -20.383" /><path
         id="path76"
         style="fill:#231f20;fill-opacity:1;fill-rule:nonzero;stroke:none"
         d="m 461.027,32.2188 c 0,-15.668 0.434,-22.53521 2.344,-24.41411 1.715,-1.71485 4.488,-2.45703 12.805,-2.45703 5.656,0 10.344,0.10547 12.91,3.20312 1.383,1.66402 2.453,4.35152 2.769,6.39062 0.106,0.8672 0.329,1.3984 0.969,1.3984 0.535,0 0.633,-0.4257 0.633,-1.6132 0,-1.1836 -0.746,-7.55863 -1.602,-10.67191 -0.734,-2.48047 -1.058,-2.88672 -6.714,-2.88672 -15.364,0 -22.411,0.62109 -28.598,0.62109 -0.953,0 -7.242,-0.30078 -10.445,-0.30078 -1.18,0 -1.715,0.19141 -1.715,0.84766 0,0.32031 0.215,0.63672 0.859,0.63672 0.953,0 2.238,0.21484 3.196,0.4414 2.132,0.42578 2.671,2.78125 3.101,5.85938 0.527,4.49996 0.527,12.92576 0.527,23.15626 v 18.8008 c 0,16.6211 0,19.5937 -0.214,23.0273 -0.215,3.6485 -1.059,5.3125 -4.579,6.0547 -0.863,0.2148 -2.675,0.3203 -3.636,0.3203 -0.43,0 -0.852,0.211 -0.852,0.6367 0,0.6563 0.535,0.8672 1.711,0.8672 4.805,0 11.524,-0.3359 12.047,-0.3359 0.535,0 8.336,0.3359 11.531,0.3359 1.168,0 1.703,-0.2109 1.703,-0.8672 0,-0.4257 -0.425,-0.6367 -0.863,-0.6367 -0.738,0 -2.238,-0.1055 -3.516,-0.3203 -3.089,-0.5117 -3.937,-2.3008 -4.16,-6.0547 -0.211,-3.4336 -0.211,-6.4062 -0.211,-23.0273 V 32.2188" /><path
         id="path78"
         style="fill:#231f20;fill-opacity:1;fill-rule:nonzero;stroke:none"
         d="m 515.223,51.2305 c 0,16.6211 0,19.5937 -0.219,23.0273 -0.211,3.6485 -1.059,5.3125 -4.586,6.0547 -0.852,0.2148 -2.66,0.3203 -3.625,0.3203 -0.426,0 -0.852,0.211 -0.852,0.6367 0,0.6563 0.536,0.8672 1.7,0.8672 4.804,0 11.535,-0.3359 12.058,-0.3359 0.746,0 21.992,0 24.438,0.125 2.027,0.1055 3.73,0.3164 4.582,0.5273 0.535,0.1094 0.957,0.5313 1.496,0.5313 0.328,0 0.43,-0.4219 0.43,-0.9531 0,-0.7618 -0.536,-2.0352 -0.856,-4.9922 -0.113,-1.0821 -0.328,-5.7891 -0.535,-7.0274 -0.106,-0.5312 -0.324,-1.1875 -0.742,-1.1875 -0.645,0 -0.856,0.5313 -0.856,1.3828 0,0.7422 -0.105,2.5469 -0.64,3.8243 -0.746,1.7343 -1.821,3.0078 -7.575,3.6445 -1.82,0.2305 -13.445,0.3359 -14.617,0.3359 -0.426,0 -0.644,-0.3359 -0.644,-1.0781 v -29.457 c 0,-0.7618 0.113,-1.0821 0.644,-1.0821 1.387,0 14.512,0 16.957,0.1953 2.563,0.2305 4.059,0.4415 5.012,1.5079 0.758,0.8828 1.18,1.414 1.609,1.414 0.317,0 0.528,-0.2109 0.528,-0.8672 0,-0.6367 -0.528,-2.4804 -0.852,-5.9492 -0.211,-2.1406 -0.422,-6.125 -0.422,-6.8476 0,-0.8516 0,-2 -0.75,-2 -0.531,0 -0.742,0.4218 -0.742,0.9531 0,1.0469 0,2.0898 -0.43,3.4883 -0.433,1.5039 -1.39,3.3281 -5.543,3.7539 -2.886,0.3164 -13.449,0.5312 -15.269,0.5312 -0.524,0 -0.742,-0.3008 -0.742,-0.7461 v -9.3984 c 0,-3.6484 -0.098,-15.9844 0,-18.2344 0.324,-7.36327 1.933,-8.74217 12.375,-8.74217 2.781,0 7.468,0 10.238,1.18359 2.773,1.16797 4.066,3.27734 4.809,7.66798 0.214,1.1836 0.425,1.6094 0.964,1.6094 0.629,0 0.629,-0.8672 0.629,-1.6094 0,-0.8672 -0.84,-8.10939 -1.379,-10.35939 -0.746,-2.77734 -1.601,-2.77734 -5.761,-2.77734 -16.11,0 -23.258,0.62109 -26.356,0.62109 -0.523,0 -7.254,-0.30078 -10.449,-0.30078 -1.176,0 -1.711,0.19141 -1.711,0.84766 0,0.32031 0.219,0.63672 0.856,0.63672 0.953,0 2.246,0.21484 3.199,0.4414 2.136,0.42578 2.66,2.78125 3.101,5.85938 0.528,4.49996 0.528,12.92576 0.528,23.15626 v 18.8008" /><path
         id="path80"
         style="fill:#231f20;fill-opacity:1;fill-rule:nonzero;stroke:none"
         d="m 614.965,32.4297 c 0,-10.2305 0,-18.6563 -0.527,-23.15626 -0.426,-3.07813 -0.965,-5.4336 -3.098,-5.85938 -0.965,-0.22656 -2.242,-0.4414 -3.192,-0.4414 -0.64,0 -0.855,-0.31641 -0.855,-0.63672 0,-0.65625 0.531,-0.84766 1.699,-0.84766 3.203,0 9.93,0.30078 10.457,0.30078 1.067,0 14.512,-1.25781 23.692,-1.25781 18.117,0 27.73,7.48828 32.324,12.26565 5.965,6.2851 11.512,16.6406 11.512,30.0937 0,12.6758 -5.008,21.5274 -10.356,27.1211 -12.691,13.0977 -32.207,12.125 -42.766,12.125 -6.398,0 -13.117,-0.3359 -14.406,-0.3359 -0.527,0 -7.254,0.3359 -12.051,0.3359 -1.179,0 -1.707,-0.2109 -1.707,-0.8672 0,-0.4257 0.426,-0.6367 0.84,-0.6367 0.977,0 2.789,-0.1055 3.641,-0.3203 3.512,-0.7422 4.379,-2.4062 4.59,-6.0547 0.203,-3.4336 0.203,-6.4062 0.203,-23.0273 z m 8.961,20.5 c 0,8.2305 0,19.0625 0.105,22.7109 0,1.1836 0.321,1.7149 1.293,2.1407 0.84,0.4257 4.801,0.7617 6.93,0.7617 12.691,0 24.851,-1.5039 34.883,-12.0899 4.379,-4.5859 10.238,-13.332 10.238,-26.8711 0,-9.8242 -2.988,-20.0742 -8.531,-25.4922 -6.293,-6.28511 -15.473,-9.92964 -25.395,-9.92964 -12.586,0 -16.746,2.24609 -18.125,4.26562 -0.859,1.1875 -1.082,5.43362 -1.187,8.12502 -0.106,1.9844 -0.211,11.8086 -0.211,23.1367 v 13.2422" /><path
         id="path82"
         style="fill:#231f20;fill-opacity:1;fill-rule:nonzero;stroke:none"
         d="m 712.797,51.2305 c 0,16.6211 0,19.5937 -0.211,23.0273 -0.223,3.6485 -1.063,5.3125 -4.594,6.0547 -0.844,0.2148 -2.676,0.3203 -3.621,0.3203 -0.433,0 -0.859,0.211 -0.859,0.6367 0,0.6563 0.531,0.8672 1.707,0.8672 4.797,0 11.515,-0.3359 12.054,-0.3359 0.754,0 21.981,0 24.415,0.125 2.042,0.1055 3.769,0.3164 4.617,0.5273 0.531,0.1094 0.949,0.5313 1.48,0.5313 0.324,0 0.442,-0.4219 0.442,-0.9531 0,-0.7618 -0.547,-2.0352 -0.868,-4.9922 -0.105,-1.0821 -0.328,-5.7891 -0.523,-7.0274 -0.106,-0.5312 -0.316,-1.1875 -0.727,-1.1875 -0.652,0 -0.882,0.5313 -0.882,1.3828 0,0.7422 -0.09,2.5469 -0.622,3.8243 -0.769,1.7343 -1.832,3.0078 -7.574,3.6445 -1.824,0.2305 -13.472,0.3359 -14.633,0.3359 -0.421,0 -0.625,-0.3359 -0.625,-1.0781 v -29.457 c 0,-0.7618 0.086,-1.0821 0.625,-1.0821 1.375,0 14.508,0 16.961,0.1953 2.555,0.2305 4.051,0.4415 5.028,1.5079 0.75,0.8828 1.176,1.414 1.601,1.414 0.317,0 0.532,-0.2109 0.532,-0.8672 0,-0.6367 -0.532,-2.4804 -0.852,-5.9492 -0.211,-2.1406 -0.441,-6.125 -0.441,-6.8476 0,-0.8516 0,-2 -0.747,-2 -0.531,0 -0.75,0.4218 -0.75,0.9531 0,1.0469 0,2.0898 -0.425,3.4883 -0.422,1.5039 -1.391,3.3281 -5.532,3.7539 -2.894,0.3164 -13.468,0.5312 -15.265,0.5312 -0.531,0 -0.735,-0.3008 -0.735,-0.7461 v -9.3984 c 0,-3.6484 -0.125,-15.9844 0,-18.2344 0.309,-7.36327 1.875,-8.74217 12.356,-8.74217 2.777,0 7.469,0 10.258,1.18359 2.75,1.16797 4.043,3.27734 4.789,7.66798 0.191,1.1836 0.406,1.6094 0.937,1.6094 0.653,0 0.653,-0.8672 0.653,-1.6094 0,-0.8672 -0.868,-8.10939 -1.399,-10.35939 -0.722,-2.77734 -1.582,-2.77734 -5.734,-2.77734 -16.11,0 -23.242,0.62109 -26.36,0.62109 -0.539,0 -7.257,-0.30078 -10.453,-0.30078 -1.175,0 -1.699,0.19141 -1.699,0.84766 0,0.32031 0.195,0.63672 0.844,0.63672 0.973,0 2.246,0.21484 3.211,0.4414 2.133,0.42578 2.656,2.78125 3.082,5.85938 0.539,4.49996 0.539,12.92576 0.539,23.15626 v 18.8008" /><path
         id="path84"
         style="fill:#231f20;fill-opacity:1;fill-rule:nonzero;stroke:none"
         d="m 821.504,32.2188 c 0,-15.668 0.426,-22.53521 2.355,-24.41411 1.7,-1.71485 4.461,-2.45703 12.797,-2.45703 5.649,0 10.321,0.10547 12.907,3.20312 1.398,1.66402 2.46,4.35152 2.777,6.39062 0.105,0.8672 0.32,1.3984 0.945,1.3984 0.531,0 0.649,-0.4257 0.649,-1.6132 0,-1.1836 -0.754,-7.55863 -1.594,-10.67191 -0.727,-2.48047 -1.063,-2.88672 -6.727,-2.88672 -15.363,0 -22.402,0.62109 -28.57,0.62109 -0.973,0 -7.266,-0.30078 -10.461,-0.30078 -1.187,0 -1.727,0.19141 -1.727,0.84766 0,0.32031 0.223,0.63672 0.848,0.63672 0.969,0 2.277,0.21484 3.215,0.4414 2.113,0.42578 2.656,2.78125 3.078,5.85938 0.551,4.49996 0.551,12.92576 0.551,23.15626 v 18.8008 c 0,16.6211 0,19.5937 -0.231,23.0273 -0.211,3.6485 -1.062,5.3125 -4.566,6.0547 -0.852,0.2148 -2.672,0.3203 -3.629,0.3203 -0.441,0 -0.867,0.211 -0.867,0.6367 0,0.6563 0.547,0.8672 1.719,0.8672 4.804,0 11.539,-0.3359 12.07,-0.3359 0.512,0 8.32,0.3359 11.508,0.3359 1.148,0 1.699,-0.2109 1.699,-0.8672 0,-0.4257 -0.445,-0.6367 -0.867,-0.6367 -0.735,0 -2.223,-0.1055 -3.488,-0.3203 -3.118,-0.5117 -3.965,-2.3008 -4.18,-6.0547 -0.211,-3.4336 -0.211,-6.4062 -0.211,-23.0273 V 32.2188" /><path
         id="path86"
         style="fill:#231f20;fill-opacity:1;fill-rule:nonzero;stroke:none"
         d="m 869,13.2422 c -1.949,-5.33204 -4.09,-9.40236 -8.961,-10.0547 -0.883,-0.10937 -2.379,-0.21484 -3.133,-0.21484 -0.531,0 -0.972,-0.21094 -0.972,-0.63672 0,-0.65625 0.656,-0.84766 2.054,-0.84766 5.008,0 10.887,0.30078 12.071,0.30078 1.168,0 5.738,-0.30078 8.339,-0.30078 0.957,0 1.575,0.19141 1.575,0.84766 0,0.42578 -0.301,0.63672 -1.043,0.63672 h -1.082 c -1.84,0 -4.086,0.97265 -4.086,3.11718 0,1.92969 0.531,4.44146 1.504,7.15236 l 6.39,18.8867 c 0.211,0.5156 0.532,0.832 1.063,0.832 h 22.976 c 0.532,0 0.723,-0.1953 0.953,-0.6211 l 9.899,-26.24996 c 0.637,-1.71875 0,-2.67578 -0.641,-2.90234 -0.422,-0.10937 -0.722,-0.32031 -0.722,-0.74609 0,-0.65235 1.132,-0.65235 3.183,-0.76172 7.348,-0.19141 15.137,-0.19141 16.746,-0.19141 1.168,0 2.145,0.19141 2.145,0.84766 0,0.53125 -0.445,0.63672 -1.082,0.63672 -1.063,0 -2.672,0.10547 -4.231,0.63672 -2.265,0.65625 -5.379,2.375 -9.187,11.87892 -6.531,16.1992 -23.278,60.2773 -24.852,64.3125 -1.273,3.3086 -1.699,3.8398 -2.355,3.8398 -0.637,0 -1.078,-0.6562 -2.356,-4.1601 z m 14.902,23.543 c -0.316,0 -0.531,0.2109 -0.316,0.7617 l 9.383,28.8164 c 0.527,1.6133 1.078,1.6133 1.625,0 l 10.125,-28.8164 c 0.125,-0.4453 0.125,-0.7617 -0.422,-0.7617 h -20.395" /><path
         id="path88"
         style="fill:#231f20;fill-opacity:1;fill-rule:nonzero;stroke:none"
         d="m 946.32,51.2305 c 0,16.6211 0,19.5937 -0.215,23.0273 -0.226,3.6485 -1.058,5.3125 -4.566,6.0547 -0.848,0.2148 -2.672,0.3203 -3.644,0.3203 -0.446,0 -0.868,0.211 -0.868,0.6367 0,0.6563 0.547,0.8672 1.735,0.8672 4.777,0 11.308,-0.3359 12.25,-0.3359 0.953,0 7.379,0.3359 10.551,0.3359 1.183,0 1.699,-0.2109 1.699,-0.8672 0,-0.4257 -0.391,-0.6367 -0.832,-0.6367 -0.762,0 -1.399,-0.1055 -2.676,-0.3203 -2.867,-0.4062 -3.734,-2.3008 -3.945,-6.0547 -0.196,-3.4336 -0.196,-6.4062 -0.196,-23.0273 V 36.2539 c 0,-15.3672 3.418,-21.9492 7.985,-26.33984 5.238,-4.90625 10.035,-5.85937 16.109,-5.85937 6.496,0 12.938,3.11328 16.742,7.66411 4.921,6.0898 6.201,15.1718 6.201,26.1445 v 13.3672 c 0,16.6211 0,19.5937 -0.2,23.0273 -0.19,3.6485 -1.08,5.3125 -4.618,6.0547 -0.852,0.2148 -2.672,0.3203 -3.594,0.3203 -0.406,0 -0.847,0.211 -0.847,0.6367 0,0.6563 0.531,0.8672 1.679,0.8672 4.797,0 10.66,-0.3359 11.31,-0.3359 0.75,0 5.77,0.3359 8.96,0.3359 1.17,0 1.72,-0.2109 1.72,-0.8672 0,-0.4257 -0.43,-0.6367 -0.87,-0.6367 -0.74,0 -1.38,0 -2.69,-0.3203 -2.82,-0.5117 -3.7,-2.3008 -3.91,-6.0547 -0.22,-3.4336 -0.22,-6.4062 -0.22,-23.0273 V 39.793 c 0,-11.5586 -1.29,-24.3047 -9.804,-31.88284 C 991.883,1.04297 983.902,0 977.582,0 973.969,0 963.172,0.425781 955.613,7.59375 950.391,12.5859 946.32,20.0391 946.32,35.6328 v 15.5977" /><path
         id="path90"
         style="fill:#231f20;fill-opacity:1;fill-rule:nonzero;stroke:none"
         d="m 1034.21,2.86719 c -1.49,0.74219 -1.59,1.1875 -1.59,4.07031 0,5.3281 0.42,9.6133 0.55,11.2969 0.1,1.1484 0.31,1.6992 0.85,1.6992 0.63,0 0.74,-0.3203 0.74,-1.168 0,-0.957 0,-2.4258 0.32,-3.9297 1.61,-7.8984 8.65,-10.89059 15.79,-10.89059 10.25,0 15.24,7.34769 15.24,14.18359 0,7.3789 -3.06,11.6289 -12.25,19.1875 l -4.82,3.9805 c -11.27,9.2773 -13.86,15.8789 -13.86,23.1211 0,11.4336 8.55,19.2226 22.08,19.2226 4.17,0 7.27,-0.4258 9.93,-1.0781 2.02,-0.4258 2.88,-0.5312 3.73,-0.5312 0.85,0 1.1,-0.2305 1.1,-0.7618 0,-0.5312 -0.44,-4.0195 -0.44,-11.2578 0,-1.7344 -0.21,-2.4804 -0.76,-2.4804 -0.64,0 -0.75,0.5507 -0.85,1.3984 -0.11,1.2773 -0.76,4.1445 -1.4,5.3281 -0.64,1.1719 -3.51,5.6485 -13.29,5.6485 -7.4,0 -13.18,-4.586 -13.18,-12.375 0,-6.0704 3.01,-9.6993 13.07,-17.9141 l 2.94,-2.3711 c 12.6,-9.9297 15.59,-16.5313 15.59,-25.0469 0,-4.3906 -1.68,-12.51561 -9.06,-17.72264 C 1060.04,1.25781 1054.3,0 1048.53,0 c -5.03,0 -9.91,0.742188 -14.32,2.86719" /><path
         id="path92"
         style="fill:#231f20;fill-opacity:1;fill-rule:nonzero;stroke:none"
         d="m 1093,13.2422 c -1.9,-5.33204 -4.04,-9.40236 -8.98,-10.0547 -0.85,-0.10937 -2.32,-0.21484 -3.04,-0.21484 -0.55,0 -0.98,-0.21094 -0.98,-0.63672 0,-0.65625 0.64,-0.84766 2.02,-0.84766 5.01,0 10.85,0.30078 12.04,0.30078 1.17,0 5.79,-0.30078 8.32,-0.30078 0.96,0 1.59,0.19141 1.59,0.84766 0,0.42578 -0.32,0.63672 -1.04,0.63672 h -1.1 c -1.79,0 -4,0.97265 -4,3.11718 0,1.92969 0.53,4.44146 1.49,7.15236 l 6.39,18.8867 c 0.21,0.5156 0.55,0.832 1.08,0.832 h 22.92 c 0.51,0 0.73,-0.1953 0.94,-0.6211 l 9.93,-26.24996 c 0.64,-1.71875 0,-2.67578 -0.64,-2.90234 -0.42,-0.10937 -0.76,-0.32031 -0.76,-0.74609 0,-0.65235 1.19,-0.65235 3.24,-0.76172 7.35,-0.19141 15.12,-0.19141 16.75,-0.19141 1.18,0 2.14,0.19141 2.14,0.84766 0,0.53125 -0.44,0.63672 -1.08,0.63672 -1.06,0 -2.69,0.10547 -4.28,0.63672 -2.25,0.65625 -5.33,2.375 -9.19,11.87892 -6.5,16.1992 -23.24,60.2773 -24.86,64.3125 -1.27,3.3086 -1.71,3.8398 -2.35,3.8398 -0.62,0 -1.04,-0.6562 -2.32,-4.1601 z m 14.96,23.543 c -0.32,0 -0.54,0.2109 -0.32,0.7617 l 9.4,28.8164 c 0.53,1.6133 1.04,1.6133 1.55,0 l 10.15,-28.8164 c 0.1,-0.4453 0.1,-0.7617 -0.45,-0.7617 h -20.33" /><path
         id="path94"
         style="fill:#231f20;fill-opacity:1;fill-rule:nonzero;stroke:none"
         d="m 1179.42,16.0195 c 0.23,-8.76169 1.27,-11.54294 4.16,-12.41012 2.05,-0.53125 4.37,-0.63672 5.33,-0.63672 0.53,0 0.86,-0.21094 0.86,-0.63672 0,-0.65625 -0.65,-0.84766 -1.91,-0.84766 -6.11,0 -10.34,0.30078 -11.31,0.30078 -0.97,0 -5.45,-0.30078 -10.25,-0.30078 -1.08,0 -1.72,0.08594 -1.72,0.84766 0,0.42578 0.32,0.63672 0.85,0.63672 0.87,0 2.8,0.10547 4.39,0.63672 2.64,0.76171 3.19,3.8789 3.19,13.56252 l 0.09,61.1601 c 0,4.1211 0.34,5.3086 1.18,5.3086 0.87,0 2.7,-2.3711 3.77,-3.4336 1.6,-1.7695 17.49,-18.9609 33.9,-36.5703 10.59,-11.2969 22.17,-24.3594 25.62,-27.8281 l -1.19,54.2031 c -0.12,6.9219 -0.85,9.2578 -4.14,10.0899 -1.93,0.4257 -4.41,0.5312 -5.26,0.5312 -0.74,0 -0.85,0.3164 -0.85,0.7422 0,0.6563 0.85,0.7617 2.14,0.7617 4.8,0 9.94,-0.3359 11.12,-0.3359 1.17,0 4.66,0.3359 9.07,0.3359 1.16,0 1.91,-0.1054 1.91,-0.7617 0,-0.4258 -0.43,-0.7422 -1.17,-0.7422 -0.53,0 -1.28,0 -2.57,-0.3203 -3.54,-0.7422 -3.95,-3.0625 -3.95,-9.4883 l -0.21,-62.50389 c 0,-7.0625 -0.23,-7.578122 -0.95,-7.578122 -0.84,0 -2.13,1.167972 -7.79,6.851562 -1.19,1.0625 -16.55,16.74605 -27.87,28.87105 -12.35,13.3477 -24.42,26.7852 -27.81,30.6446 l 1.37,-51.0899" /><path
         id="path96"
         style="fill:#231f20;fill-opacity:1;fill-rule:nonzero;stroke:none"
         d="m 1280.43,16.0195 c 0.22,-8.76169 1.3,-11.54294 4.19,-12.41012 2.02,-0.53125 4.35,-0.63672 5.33,-0.63672 0.53,0 0.85,-0.21094 0.85,-0.63672 0,-0.65625 -0.64,-0.84766 -1.95,-0.84766 -6.05,0 -10.34,0.30078 -11.29,0.30078 -0.96,0 -5.44,-0.30078 -10.23,-0.30078 -1.07,0 -1.7,0.08594 -1.7,0.84766 0,0.42578 0.33,0.63672 0.86,0.63672 0.84,0 2.75,0.10547 4.34,0.63672 2.67,0.76171 3.22,3.8789 3.22,13.56252 l 0.11,61.1601 c 0,4.1211 0.32,5.3086 1.17,5.3086 0.85,0 2.67,-2.3711 3.71,-3.4336 1.61,-1.7695 17.51,-18.9609 33.94,-36.5703 10.55,-11.2969 22.2,-24.3594 25.61,-27.8281 l -1.15,54.2031 c -0.12,6.9219 -0.86,9.2578 -4.18,10.0899 -1.94,0.4257 -4.38,0.5312 -5.22,0.5312 -0.74,0 -0.85,0.3164 -0.85,0.7422 0,0.6563 0.85,0.7617 2.13,0.7617 4.79,0 9.91,-0.3359 11.08,-0.3359 1.17,0 4.69,0.3359 9.06,0.3359 1.17,0 1.91,-0.1054 1.91,-0.7617 0,-0.4258 -0.4,-0.7422 -1.18,-0.7422 -0.53,0 -1.28,0 -2.53,-0.3203 -3.51,-0.7422 -3.95,-3.0625 -3.95,-9.4883 L 1343.5,8.32031 c 0,-7.0625 -0.23,-7.578122 -0.96,-7.578122 -0.87,0 -2.14,1.167972 -7.77,6.851562 -1.2,1.0625 -16.53,16.74605 -27.88,28.87105 -12.36,13.3477 -24.41,26.7852 -27.85,30.6446 l 1.39,-51.0899" /><path
         id="path98"
         style="fill:#231f20;fill-opacity:1;fill-rule:nonzero;stroke:none"
         d="m 1378.6,51.2305 c 0,16.6211 0,19.5937 -0.21,23.0273 -0.23,3.6485 -1.08,5.3125 -4.59,6.0547 -0.85,0.2148 -2.65,0.3203 -3.63,0.3203 -0.44,0 -0.85,0.211 -0.85,0.6367 0,0.6563 0.53,0.8672 1.7,0.8672 4.78,0 11.54,-0.3359 12.06,-0.3359 0.74,0 21.98,0 24.44,0.125 2,0.1055 3.69,0.3164 4.57,0.5273 0.53,0.1094 0.96,0.5313 1.51,0.5313 0.31,0 0.42,-0.4219 0.42,-0.9531 0,-0.7618 -0.53,-2.0352 -0.87,-4.9922 -0.1,-1.0821 -0.32,-5.7891 -0.53,-7.0274 -0.1,-0.5312 -0.32,-1.1875 -0.76,-1.1875 -0.65,0 -0.85,0.5313 -0.85,1.3828 0,0.7422 -0.12,2.5469 -0.62,3.8243 -0.76,1.7343 -1.82,3.0078 -7.61,3.6445 -1.79,0.2305 -13.4,0.3359 -14.57,0.3359 -0.44,0 -0.65,-0.3359 -0.65,-1.0781 v -29.457 c 0,-0.7618 0.12,-1.0821 0.65,-1.0821 1.38,0 14.48,0 16.96,0.1953 2.57,0.2305 4.05,0.4415 5.01,1.5079 0.71,0.8828 1.15,1.414 1.58,1.414 0.33,0 0.54,-0.2109 0.54,-0.8672 0,-0.6367 -0.54,-2.4804 -0.86,-5.9492 -0.23,-2.1406 -0.43,-6.125 -0.43,-6.8476 0,-0.8516 0,-2 -0.72,-2 -0.55,0 -0.77,0.4218 -0.77,0.9531 0,1.0469 0,2.0898 -0.42,3.4883 -0.41,1.5039 -1.36,3.3281 -5.54,3.7539 -2.9,0.3164 -13.44,0.5312 -15.24,0.5312 -0.55,0 -0.76,-0.3008 -0.76,-0.7461 v -9.3984 c 0,-3.6484 -0.11,-15.9844 0,-18.2344 0.32,-7.36327 1.94,-8.74217 12.39,-8.74217 2.74,0 7.47,0 10.23,1.18359 2.76,1.16797 4.04,3.27734 4.81,7.66798 0.2,1.1836 0.41,1.6094 0.96,1.6094 0.64,0 0.64,-0.8672 0.64,-1.6094 0,-0.8672 -0.87,-8.10939 -1.4,-10.35939 -0.74,-2.77734 -1.59,-2.77734 -5.77,-2.77734 -16.13,0 -23.26,0.62109 -26.34,0.62109 -0.52,0 -7.28,-0.30078 -10.43,-0.30078 -1.2,0 -1.72,0.19141 -1.72,0.84766 0,0.32031 0.22,0.63672 0.84,0.63672 0.95,0 2.24,0.21484 3.2,0.4414 2.13,0.42578 2.66,2.78125 3.08,5.85938 0.55,4.49996 0.55,12.92576 0.55,23.15626 v 18.8008" /></g></g></svg>