<svg version="1.1" id="Layer_1" xmlns="http://www.w3.org/2000/svg" xmlns:xlink="http://www.w3.org/1999/xlink" x="0px" y="0px"
	 width="100%" viewBox="0 0 1432 218" enable-background="new 0 0 1432 218" xml:space="preserve">
<path fill="#FEFEFE" opacity="1.000000" stroke="none" 
	d="
M1046.000000,219.000000 
	C697.333435,219.000000 349.166870,219.000000 1.000234,219.000000 
	C1.000156,146.333466 1.000156,73.666916 1.000078,1.000282 
	C478.333038,1.000188 955.666077,1.000188 1432.999268,1.000094 
	C1432.999512,73.666374 1432.999512,146.332748 1432.999756,218.999573 
	C1304.166626,219.000000 1175.333374,219.000000 1046.000000,219.000000 
M581.911987,155.633591 
	C581.802673,155.586990 581.693420,155.540405 581.584106,155.493805 
	C581.705444,155.676773 581.826782,155.859741 582.089600,156.330780 
	C582.193542,156.373306 582.297485,156.415833 582.401428,156.458344 
	C582.283447,156.286285 582.165405,156.114212 581.911987,155.633591 
M312.847504,157.000992 
	C312.847504,149.966965 312.847504,142.932922 312.847504,135.898895 
	C312.593903,135.897949 312.340271,135.896988 312.086670,135.896027 
	C311.762024,143.250946 311.437347,150.605881 311.031372,158.893509 
	C311.466736,163.712097 309.875305,168.781769 312.754944,174.640518 
	C312.754944,168.167358 312.754944,163.045624 312.847504,157.000992 
M483.939392,90.045197 
	C493.298553,90.021645 502.657745,89.998093 512.936157,90.110184 
	C522.403992,90.110184 531.871826,90.110184 541.339600,90.110184 
	C541.327087,89.777771 541.314514,89.445358 541.301941,89.112946 
	C531.556274,89.112946 521.810608,89.112946 511.119324,89.053841 
	C501.765503,89.059059 492.411652,89.064278 482.114716,89.013954 
	C471.016663,89.013954 459.918610,89.013954 448.820557,89.013954 
	C448.820251,89.341377 448.819916,89.668793 448.819611,89.996216 
	C460.214325,89.996216 471.609009,89.996216 483.939392,90.045197 
M45.955173,149.127136 
	C46.234138,137.436935 46.513103,125.746727 46.928577,113.121147 
	C46.928577,93.602516 46.928577,74.083893 46.928577,54.565262 
	C46.352867,54.568974 45.777161,54.572685 45.201450,54.576397 
	C45.201450,74.402687 45.201450,94.228981 45.064659,114.975525 
	C45.092106,126.672249 45.119556,138.368973 45.025257,150.986862 
	C45.025257,163.051849 45.025257,175.116837 45.025257,187.181839 
	C45.299660,187.181519 45.574059,187.181213 45.848461,187.180908 
	C45.848461,174.809708 45.848461,162.438522 45.955173,149.127136 
M988.989075,212.067627 
	C988.989075,207.304825 988.989075,202.542038 988.989075,197.779236 
	C988.425415,197.783722 987.861816,197.788208 987.298157,197.792694 
	C987.298157,202.590683 987.269958,207.389282 987.370972,212.185135 
	C987.376770,212.461990 988.433960,212.716705 989.169678,213.783981 
	C989.664246,214.164978 990.157532,214.877090 990.653564,214.878998 
	C1006.079468,214.937698 1021.505676,214.927032 1036.931763,214.927032 
	C1024.562744,213.991074 1012.188904,214.064087 999.816895,213.945663 
	C996.202454,213.911057 992.593201,213.331177 988.989075,212.067627 
M267.068329,159.155060 
	C267.068329,167.682129 267.068329,176.209183 267.068329,184.736252 
	C267.695892,184.725433 268.323425,184.714615 268.950989,184.703781 
	C268.950989,175.825760 268.950989,166.947739 269.015381,157.123734 
	C269.015381,148.307953 269.015381,139.492172 269.015381,130.676392 
	C268.411835,130.687607 267.808258,130.698822 267.204712,130.710052 
	C267.204712,139.893219 267.204712,149.076385 267.068329,159.155060 
M1407.634888,160.144806 
	C1421.348999,137.543808 1425.906128,113.207138 1418.951660,87.689178 
	C1408.641968,49.859764 1383.835327,25.785019 1345.237549,18.796318 
	C1305.771118,11.650329 1274.017578,26.164448 1250.767334,58.844223 
	C1249.247681,60.980221 1248.355347,64.050789 1248.339844,66.693497 
	C1248.169800,95.520607 1248.282471,124.349289 1248.168213,153.176941 
	C1248.154297,156.671707 1249.235229,157.817902 1252.736572,157.709747 
	C1260.182861,157.479691 1267.640991,157.639481 1275.653564,157.639481 
	C1275.653564,165.034500 1276.239990,171.881897 1275.496460,178.581680 
	C1274.675415,185.979553 1277.961182,189.614792 1284.101929,192.822495 
	C1328.005981,215.756317 1379.813232,202.365906 1407.634888,160.144806 
M1185.825317,68.175537 
	C1187.317261,67.344513 1188.809204,66.513481 1190.517822,65.561722 
	C1190.517822,99.861031 1190.517822,133.417908 1190.517822,167.509369 
	C1181.369995,167.509369 1172.607788,167.509369 1163.321411,167.509369 
	C1163.321411,177.657318 1163.546265,187.283554 1163.220459,196.891159 
	C1163.071655,201.284515 1164.320068,202.519394 1168.776855,202.490097 
	C1199.267822,202.289627 1229.760620,202.389084 1260.252930,202.373795 
	C1262.026245,202.372910 1263.799683,202.214340 1265.691284,202.123474 
	C1265.691284,190.363297 1265.691284,179.131500 1265.691284,167.301025 
	C1256.632935,167.301025 1247.896240,167.301025 1238.547729,167.301025 
	C1238.547729,116.169205 1238.547729,65.635017 1238.547729,14.650973 
	C1225.957153,14.650973 1213.991089,14.603530 1202.026978,14.730029 
	C1200.924316,14.741688 1199.533325,15.610599 1198.783081,16.506046 
	C1190.444214,26.459044 1179.899902,33.246220 1167.992188,38.034225 
	C1162.343384,40.305523 1156.560547,42.243088 1150.424561,44.482925 
	C1153.896484,55.535561 1157.258911,66.239464 1160.947510,77.982208 
	C1169.467285,74.666580 1177.315186,71.612434 1185.825317,68.175537 
M700.000000,196.490387 
	C700.000000,153.376389 700.000000,110.262375 700.000000,67.148369 
	C699.766174,67.149475 699.532288,67.150574 699.298462,67.151672 
	C699.298462,114.717392 699.298462,162.283112 699.298462,209.848831 
	C699.532288,209.852402 699.766174,209.855988 700.000000,209.859558 
	C700.000000,205.734528 700.000000,201.609497 700.000000,196.490387 
M392.007629,118.557335 
	C392.007629,115.489693 392.007629,112.422050 392.007629,109.354408 
	C391.464874,109.376534 390.922150,109.398651 390.379395,109.420776 
	C390.379395,130.294098 390.379395,151.167435 390.379395,172.040756 
	C390.923309,172.049118 391.467224,172.057480 392.011139,172.065857 
	C392.011139,154.556641 392.011139,137.047440 392.007629,118.557335 
M1181.004883,102.500305 
	C1181.004883,96.080368 1181.004883,89.660423 1181.004883,83.240486 
	C1180.783691,83.249176 1180.562378,83.257866 1180.341187,83.266556 
	C1180.341187,106.759483 1180.341187,130.252411 1180.341187,153.745346 
	C1180.562378,153.744827 1180.783691,153.744308 1181.004883,153.743805 
	C1181.004883,136.995926 1181.004883,120.248055 1181.004883,102.500305 
M117.379959,188.954636 
	C117.518837,188.760757 117.657715,188.566879 117.796593,188.373001 
	C117.502014,188.254959 117.207375,188.033463 116.912857,188.033630 
	C94.122749,188.047134 71.332657,188.077301 48.542599,188.130737 
	C48.436398,188.130981 48.331013,188.481247 48.032501,189.008484 
	C71.061974,189.008484 93.832024,189.008484 117.379959,188.954636 
M555.873779,202.195908 
	C555.873779,192.968735 555.873779,183.741562 555.873779,174.514389 
	C555.596985,174.526520 555.320190,174.538635 555.043396,174.550766 
	C555.043396,185.213593 555.043396,195.876419 555.043396,206.539230 
	C555.324707,206.531525 555.606079,206.523834 555.887390,206.516129 
	C555.887390,205.378647 555.887390,204.241165 555.873779,202.195908 
M661.120789,167.500000 
	C661.120789,156.730850 661.120789,145.961700 661.120789,135.192535 
	C660.859070,135.198425 660.597412,135.204300 660.335693,135.210175 
	C660.335693,155.251587 660.335693,175.292984 660.335693,195.334381 
	C660.597412,195.334763 660.859192,195.335144 661.120911,195.335541 
	C661.120911,186.390350 661.120911,177.445175 661.120789,167.500000 
M621.997925,127.531586 
	C621.997925,123.961334 621.997925,120.391083 621.997925,116.820831 
	C621.752747,116.834602 621.507568,116.848373 621.262390,116.862144 
	C621.262390,135.688873 621.262390,154.515579 621.262390,173.342300 
	C621.507568,173.342880 621.752747,173.343445 621.997925,173.344009 
	C621.997925,158.403198 621.997925,143.462372 621.997925,127.531586 
M21.972641,148.509064 
	C21.972641,160.936569 21.972641,173.364075 21.972641,185.791565 
	C22.249224,185.787170 22.525806,185.782761 22.802389,185.778351 
	C22.802389,168.747391 22.802389,151.716415 22.802389,134.685440 
	C22.530069,134.680740 22.257750,134.676056 21.985430,134.671356 
	C21.985430,138.952408 21.985430,143.233444 21.972641,148.509064 
M582.014099,121.547066 
	C582.014099,115.784027 582.014099,110.020981 582.014099,104.257942 
	C581.738647,104.264938 581.463196,104.271942 581.187744,104.278938 
	C581.187744,118.163864 581.187744,132.048782 581.187744,145.933716 
	C581.463257,145.936295 581.738770,145.938889 582.014282,145.941483 
	C582.014282,138.138016 582.014282,130.334549 582.014099,121.547066 
M493.499847,191.999496 
	C487.370636,191.999496 481.241425,191.999496 475.112213,191.999496 
	C475.114746,192.243423 475.117279,192.487335 475.119812,192.731262 
	C487.374298,192.731262 499.628784,192.731262 511.883301,192.731262 
	C511.884918,192.484222 511.886536,192.237183 511.888184,191.990143 
	C506.091827,191.990143 500.295471,191.990143 493.499847,191.999496 
M462.513367,211.868942 
	C470.462280,211.868942 478.411194,211.868942 486.360107,211.868942 
	C486.358337,211.651627 486.356567,211.434326 486.354828,211.217010 
	C474.121399,211.217010 461.888000,211.217010 449.654602,211.217010 
	C449.653870,211.434265 449.653137,211.651535 449.652405,211.868790 
	C453.608246,211.868790 457.564056,211.868790 462.513367,211.868942 
M447.025452,105.513802 
	C447.025452,101.256729 447.025452,96.999649 447.025452,92.742577 
	C446.796051,92.746635 446.566681,92.750702 446.337280,92.754761 
	C446.337280,104.136116 446.337280,115.517471 446.337280,126.898834 
	C446.562561,126.899254 446.787811,126.899681 447.013092,126.900108 
	C447.013092,120.102982 447.013092,113.305855 447.025452,105.513802 
M1004.522827,38.011841 
	C1000.764160,38.011841 997.005493,38.011841 993.246765,38.011841 
	C993.260498,38.231506 993.274231,38.451172 993.287903,38.670837 
	C1003.467346,38.670837 1013.646790,38.670837 1023.826294,38.670837 
	C1023.825134,38.448051 1023.823975,38.225262 1023.822815,38.002476 
	C1017.720215,38.002476 1011.617615,38.002476 1004.522827,38.011841 
M486.058807,108.992645 
	C495.317230,108.992645 504.575653,108.992645 513.834045,108.992645 
	C513.827759,108.769470 513.821472,108.546295 513.815186,108.323120 
	C503.638733,108.323120 493.462280,108.323120 483.285828,108.323120 
	C483.285034,108.493866 483.284271,108.664612 483.283478,108.835358 
	C483.931213,108.876579 484.578918,108.917793 486.058807,108.992645 
M661.115601,94.988968 
	C661.115601,85.656960 661.115601,76.324944 661.115601,66.992935 
	C660.850891,66.999268 660.586243,67.005592 660.321533,67.011925 
	C660.321533,77.093414 660.321533,87.174911 660.321533,97.256401 
	C660.455139,97.261208 660.588745,97.266014 660.722351,97.270821 
	C660.847168,96.801132 660.972046,96.331436 661.115601,94.988968 
M384.911255,89.988136 
	C393.252808,89.988136 401.594360,89.988136 409.935913,89.988136 
	C409.930786,89.762505 409.925659,89.536880 409.920532,89.311249 
	C400.330872,89.311249 390.741211,89.311249 381.151550,89.311249 
	C381.152191,89.539223 381.152802,89.767204 381.153442,89.995178 
	C382.116486,89.995178 383.079559,89.995178 384.911255,89.988136 
M105.520782,208.005096 
	C98.434364,208.005096 91.347954,208.005096 84.261536,208.005096 
	C90.373276,209.011353 96.449287,209.618729 102.540192,209.883438 
	C103.755241,209.936264 105.027191,208.679977 105.520782,208.005096 
M808.141663,160.296570 
	C808.141663,164.652649 808.141663,169.008713 808.141663,173.364792 
	C808.924561,173.285263 809.707520,173.205734 810.490417,173.126205 
	C809.860962,168.630234 809.231445,164.134262 808.141663,160.296570 
M620.971191,54.895153 
	C620.971191,62.326485 620.971191,69.757812 620.971191,77.189148 
	C621.197205,77.183731 621.423157,77.178314 621.649170,77.172897 
	C621.649170,68.475464 621.649170,59.778034 621.649170,51.080605 
	C621.423401,51.081577 621.197632,51.082550 620.971863,51.083523 
	C620.971863,52.059669 620.971863,53.035816 620.971191,54.895153 
M1005.031189,170.162201 
	C1004.922058,169.439011 1004.812927,168.715820 1004.703735,167.992630 
	C1004.564941,168.007233 1004.426086,168.021835 1004.287231,168.036438 
	C1004.287231,176.634338 1004.287231,185.232239 1004.287231,193.830139 
	C1004.533630,193.831039 1004.780090,193.831924 1005.026489,193.832809 
	C1005.026489,186.228821 1005.026489,178.624817 1005.031189,170.162201 
M797.447205,157.011124 
	C792.033264,157.011124 786.619324,157.011124 781.205322,157.011124 
	C781.215332,157.229980 781.225342,157.448853 781.235291,157.667709 
	C789.747314,157.667709 798.259338,157.667709 806.771362,157.667709 
	C806.771729,157.448746 806.772034,157.229782 806.772400,157.010818 
	C803.988464,157.010818 801.204590,157.010818 797.447205,157.011124 
M1177.657715,156.991486 
	C1178.122681,156.873154 1178.587524,156.754837 1180.454468,156.279709 
	C1170.578247,156.279709 1162.122803,156.279709 1153.667358,156.279709 
	C1153.663818,156.519211 1153.660278,156.758698 1153.656616,156.998199 
	C1161.380737,156.998199 1169.104736,156.998199 1177.657715,156.991486 
M580.981934,54.038376 
	C580.981934,60.966480 580.981934,67.894585 580.981934,74.822693 
	C581.206482,74.813599 581.431091,74.804512 581.655640,74.795418 
	C581.655640,66.952339 581.655640,59.109264 581.655640,51.266186 
	C581.476257,51.266678 581.296875,51.267170 581.117493,51.267658 
	C581.072388,51.911633 581.027344,52.555607 580.981934,54.038376 
M140.853577,185.981155 
	C140.853577,192.683395 140.853577,199.385620 140.853577,206.087860 
	C141.139908,206.078415 141.426224,206.068954 141.712555,206.059509 
	C141.712555,198.324005 141.712555,190.588486 141.712555,182.852982 
	C141.542770,182.843155 141.372971,182.833328 141.203186,182.823486 
	C141.084473,183.588654 140.965759,184.353836 140.853577,185.981155 
M1025.934692,181.545044 
	C1025.934692,186.136810 1025.934692,190.728577 1025.934692,195.320343 
	C1026.207397,195.317337 1026.480225,195.314331 1026.752930,195.311325 
	C1026.752930,187.464737 1026.752930,179.618164 1026.752930,171.771576 
	C1026.478638,171.767273 1026.204346,171.762985 1025.930054,171.758682 
	C1025.930054,174.696609 1025.930054,177.634552 1025.934692,181.545044 
M1317.510010,214.023346 
	C1317.355591,214.215942 1317.187012,214.400497 1317.065674,214.612122 
	C1317.051758,214.636597 1317.301270,214.904099 1317.429077,214.904373 
	C1324.630981,214.919174 1331.832764,214.917542 1339.034668,214.917542 
	C1339.033936,214.602295 1339.033325,214.287033 1339.032715,213.971786 
	C1332.125854,213.971786 1325.218872,213.971786 1317.510010,214.023346 
M312.764648,88.994415 
	C317.507538,88.994415 322.250397,88.994415 326.993286,88.994415 
	C327.008179,88.912743 327.023071,88.831078 327.037964,88.749405 
	C320.704529,88.749405 314.371094,88.749405 308.037689,88.749405 
	C308.025421,88.832825 308.013153,88.916245 308.000916,88.999664 
	C309.290863,88.999664 310.580811,88.999664 312.764648,88.994415 
M582.023743,81.908180 
	C581.971558,80.952248 581.919373,79.996315 581.867188,79.040375 
	C581.672852,79.045334 581.478516,79.050293 581.284180,79.055244 
	C581.284180,82.368248 581.284180,85.681252 581.284180,88.994263 
	C581.530090,89.002861 581.776062,89.011467 582.021973,89.020065 
	C582.021973,86.927834 582.021973,84.835609 582.023743,81.908180 
M581.091431,93.487808 
	C581.091431,95.652649 581.091431,97.817490 581.091431,99.982338 
	C581.429016,99.972366 581.766602,99.962402 582.104187,99.952431 
	C581.923584,97.628578 581.743042,95.304726 581.091431,93.487808 
M302.162750,87.988098 
	C301.088074,88.082184 300.013428,88.176270 298.938751,88.270348 
	C300.551697,88.850639 302.120605,88.854584 303.688965,88.824905 
	C303.723419,88.824249 303.825653,88.288193 303.768402,88.259811 
	C303.494476,88.124054 303.176422,88.077324 302.162750,87.988098 
M581.147095,150.168381 
	C581.207214,150.797012 581.267395,151.425659 581.327515,152.054291 
	C581.544983,152.020325 581.762512,151.986359 581.979980,151.952393 
	C581.837219,151.243118 581.694458,150.533829 581.147095,150.168381 
M120.372673,187.483307 
	C120.372673,187.483307 120.551552,187.585968 120.551552,187.585968 
	C120.551552,187.585968 120.526108,187.379684 120.372673,187.483307 
M377.376282,89.480545 
	C377.376282,89.480545 377.556946,89.582687 377.556946,89.582687 
	C377.556946,89.582687 377.530426,89.378799 377.376282,89.480545 
M1341.357788,213.478363 
	C1341.357788,213.478363 1341.549316,213.582550 1341.549316,213.582550 
	C1341.549316,213.582550 1341.518188,213.370346 1341.357788,213.478363 
M1040.338257,214.473358 
	C1040.338257,214.473358 1040.554565,214.586014 1040.554565,214.586014 
	C1040.554565,214.586014 1040.515381,214.348282 1040.338257,214.473358 
z"/>
<path fill="#D52E31" opacity="1.000000" stroke="none" 
	d="
M1407.427368,160.441681 
	C1379.813232,202.365906 1328.005981,215.756317 1284.101929,192.822495 
	C1277.961182,189.614792 1274.675415,185.979553 1275.496460,178.581680 
	C1276.239990,171.881897 1275.653564,165.034500 1275.653564,157.639481 
	C1267.640991,157.639481 1260.182861,157.479691 1252.736572,157.709747 
	C1249.235229,157.817902 1248.154297,156.671707 1248.168213,153.176941 
	C1248.282471,124.349289 1248.169800,95.520607 1248.339844,66.693497 
	C1248.355347,64.050789 1249.247681,60.980221 1250.767334,58.844223 
	C1274.017578,26.164448 1305.771118,11.650329 1345.237549,18.796318 
	C1383.835327,25.785019 1408.641968,49.859764 1418.951660,87.689178 
	C1425.906128,113.207138 1421.348999,137.543808 1407.427368,160.441681 
M1312.700317,63.043148 
	C1312.731934,58.625603 1314.595215,54.968929 1318.931274,54.104336 
	C1324.566895,52.980583 1324.514038,49.694878 1323.619751,45.504639 
	C1313.422974,44.271469 1304.850952,50.663002 1303.838623,60.579742 
	C1303.182251,67.010666 1303.202637,73.510689 1301.992798,80.024994 
	C1289.069336,80.024994 1276.145874,80.024994 1262.788208,80.024994 
	C1262.788208,87.426788 1262.776733,93.905891 1262.791626,100.384933 
	C1262.805542,106.439262 1263.011108,106.582596 1270.160767,105.249359 
	C1270.160767,103.613152 1270.157227,101.829613 1270.161377,100.046089 
	C1270.186890,89.081963 1270.188843,88.976730 1281.272705,89.119263 
	C1288.554932,89.212906 1295.832520,89.664177 1302.985107,90.786003 
	C1302.559937,97.864685 1301.369873,104.380600 1293.186035,106.880936 
	C1292.228394,107.173500 1291.342163,109.563675 1291.442017,110.905602 
	C1291.533936,112.141655 1292.756958,113.902092 1293.901489,114.343613 
	C1298.349487,116.059418 1301.030151,119.056274 1301.879272,123.685081 
	C1302.322876,126.102325 1302.586060,128.552689 1302.002441,131.034698 
	C1291.479736,131.034698 1280.957153,131.034698 1270.099854,131.034698 
	C1270.099854,127.697632 1270.099854,125.225830 1270.099854,122.754021 
	C1270.099854,120.324425 1270.099854,117.894836 1270.099854,115.595955 
	C1262.980713,114.386024 1262.892944,114.451309 1262.881958,120.693962 
	C1262.872925,125.840179 1263.014038,130.991150 1262.831543,136.130859 
	C1262.724121,139.157043 1263.785278,140.217224 1266.835327,140.157654 
	C1274.966553,139.998840 1283.104370,140.012497 1291.236694,140.145264 
	C1295.172241,140.209518 1299.100708,140.694916 1303.012329,141.925964 
	C1303.270020,148.217987 1303.160034,154.551773 1303.869019,160.792526 
	C1305.010620,170.839966 1314.268799,177.386917 1325.100220,174.908493 
	C1323.727905,172.364731 1323.061157,168.971954 1321.271240,168.206711 
	C1315.417847,165.704330 1313.153931,163.685669 1312.727905,157.428909 
	C1312.356201,151.973114 1312.338501,146.493225 1312.898193,140.667786 
	C1323.228149,140.453461 1333.558105,140.239136 1344.071655,140.943741 
	C1344.042236,146.579132 1344.165771,152.220810 1343.934570,157.847916 
	C1343.750977,162.313538 1341.756714,166.543396 1337.323853,167.376984 
	C1331.269043,168.515518 1332.663818,171.902832 1333.284668,175.583694 
	C1344.678711,176.366867 1352.446899,169.340408 1353.494507,157.528152 
	C1353.475464,156.656174 1353.456543,155.784195 1353.665771,154.022064 
	C1353.809937,149.355423 1353.954102,144.688782 1355.021118,140.094437 
	C1367.912842,140.094437 1380.804688,140.094437 1393.663208,140.094437 
	C1393.663208,131.266052 1393.663208,123.356445 1393.663208,115.317108 
	C1391.089966,115.317108 1388.873901,115.317108 1386.134766,115.317108 
	C1386.134766,119.308220 1385.958740,122.946381 1386.186157,126.559143 
	C1386.398193,129.927887 1385.392456,131.316498 1381.755005,131.217758 
	C1372.440796,130.964905 1363.116821,131.073883 1353.839111,130.165741 
	C1353.927734,123.131584 1355.419067,116.990608 1363.072998,114.230820 
	C1364.030396,113.885605 1364.972046,111.975365 1364.944702,110.813095 
	C1364.912354,109.428696 1364.146362,107.204041 1363.146729,106.834297 
	C1354.533447,103.648506 1353.262207,96.969666 1355.083252,89.096649 
	C1363.558960,89.091789 1372.041260,89.281158 1380.507690,88.997932 
	C1384.578613,88.861755 1386.718872,89.636398 1386.425415,94.299377 
	C1386.191284,98.020119 1386.728027,101.789391 1386.924194,105.564621 
	C1389.504517,105.564621 1391.548828,105.564621 1393.626465,105.564621 
	C1393.626465,96.963799 1393.626465,88.764038 1393.626465,80.032661 
	C1380.132324,80.032661 1367.035034,80.032661 1353.891235,79.093674 
	C1353.574707,72.807129 1353.619629,66.476456 1352.858276,60.244255 
	C1351.678955,50.588615 1343.310425,44.435722 1333.162354,45.386875 
	C1331.798218,49.279823 1331.140869,52.525295 1336.799561,53.834618 
	C1341.918335,55.019035 1343.634644,59.406761 1343.928223,64.096268 
	C1344.259521,69.389137 1344.037109,74.716667 1343.113159,80.096466 
	C1332.822876,80.043755 1322.532593,79.991051 1312.182129,79.022942 
	C1312.131348,75.015381 1312.080566,71.007812 1312.544189,66.541428 
	C1312.531006,65.640312 1312.517822,64.739204 1312.700317,63.043148 
z"/>
<path fill="#D52E31" opacity="1.000000" stroke="none" 
	d="
M1185.494141,68.366913 
	C1177.315186,71.612434 1169.467285,74.666580 1160.947510,77.982208 
	C1157.258911,66.239464 1153.896484,55.535561 1150.424561,44.482925 
	C1156.560547,42.243088 1162.343384,40.305523 1167.992188,38.034225 
	C1179.899902,33.246220 1190.444214,26.459044 1198.783081,16.506046 
	C1199.533325,15.610599 1200.924316,14.741688 1202.026978,14.730029 
	C1213.991089,14.603530 1225.957153,14.650973 1238.547729,14.650973 
	C1238.547729,65.635017 1238.547729,116.169205 1238.547729,167.301025 
	C1247.896240,167.301025 1256.632935,167.301025 1265.691284,167.301025 
	C1265.691284,179.131500 1265.691284,190.363297 1265.691284,202.123474 
	C1263.799683,202.214340 1262.026245,202.372910 1260.252930,202.373795 
	C1229.760620,202.389084 1199.267822,202.289627 1168.776855,202.490097 
	C1164.320068,202.519394 1163.071655,201.284515 1163.220459,196.891159 
	C1163.546265,187.283554 1163.321411,177.657318 1163.321411,167.509369 
	C1172.607788,167.509369 1181.369995,167.509369 1190.517822,167.509369 
	C1190.517822,133.417908 1190.517822,99.861031 1190.517822,65.561722 
	C1188.809204,66.513481 1187.317261,67.344513 1185.494141,68.366913 
z"/>
<path fill="#F2F2F2" opacity="1.000000" stroke="none" 
	d="
M700.000000,196.987427 
	C700.000000,201.609497 700.000000,205.734528 700.000000,209.859558 
	C699.766174,209.855988 699.532288,209.852402 699.298462,209.848831 
	C699.298462,162.283112 699.298462,114.717392 699.298462,67.151672 
	C699.532288,67.150574 699.766174,67.149475 700.000000,67.148369 
	C700.000000,110.262375 700.000000,153.376389 700.000000,196.987427 
z"/>
<path fill="#B9B9B9" opacity="1.000000" stroke="none" 
	d="
M392.009399,119.047791 
	C392.011139,137.047440 392.011139,154.556641 392.011139,172.065857 
	C391.467224,172.057480 390.923309,172.049118 390.379395,172.040756 
	C390.379395,151.167435 390.379395,130.294098 390.379395,109.420776 
	C390.922150,109.398651 391.464874,109.376534 392.007629,109.354408 
	C392.007629,112.422050 392.007629,115.489693 392.009399,119.047791 
z"/>
<path fill="#BCBCBC" opacity="1.000000" stroke="none" 
	d="
M45.201450,114.055275 
	C45.201450,94.228981 45.201450,74.402687 45.201450,54.576397 
	C45.777161,54.572685 46.352867,54.568974 46.928577,54.565262 
	C46.928577,74.083893 46.928577,93.602516 46.595734,113.579605 
	C45.909081,114.043793 45.555264,114.049538 45.201450,114.055275 
z"/>
<path fill="#F2F2F2" opacity="1.000000" stroke="none" 
	d="
M1181.004883,103.000244 
	C1181.004883,120.248055 1181.004883,136.995926 1181.004883,153.743805 
	C1180.783691,153.744308 1180.562378,153.744827 1180.341187,153.745346 
	C1180.341187,130.252411 1180.341187,106.759483 1180.341187,83.266556 
	C1180.562378,83.257866 1180.783691,83.249176 1181.004883,83.240486 
	C1181.004883,89.660423 1181.004883,96.080368 1181.004883,103.000244 
z"/>
<path fill="#F2F2F2" opacity="1.000000" stroke="none" 
	d="
M116.991013,188.981567 
	C93.832024,189.008484 71.061974,189.008484 48.032501,189.008484 
	C48.331013,188.481247 48.436398,188.130981 48.542599,188.130737 
	C71.332657,188.077301 94.122749,188.047134 116.912857,188.033630 
	C117.207375,188.033463 117.502014,188.254959 117.796593,188.373001 
	C117.657715,188.566879 117.518837,188.760757 116.991013,188.981567 
z"/>
<path fill="#8E8E8E" opacity="1.000000" stroke="none" 
	d="
M555.880615,202.649796 
	C555.887390,204.241165 555.887390,205.378647 555.887390,206.516129 
	C555.606079,206.523834 555.324707,206.531525 555.043396,206.539230 
	C555.043396,195.876419 555.043396,185.213593 555.043396,174.550766 
	C555.320190,174.538635 555.596985,174.526520 555.873779,174.514389 
	C555.873779,183.741562 555.873779,192.968735 555.880615,202.649796 
z"/>
<path fill="#9B9B9B" opacity="1.000000" stroke="none" 
	d="
M661.120850,168.000000 
	C661.120911,177.445175 661.120911,186.390350 661.120911,195.335541 
	C660.859192,195.335144 660.597412,195.334763 660.335693,195.334381 
	C660.335693,175.292984 660.335693,155.251587 660.335693,135.210175 
	C660.597412,135.204300 660.859070,135.198425 661.120789,135.192535 
	C661.120789,145.961700 661.120789,156.730850 661.120850,168.000000 
z"/>
<path fill="#808080" opacity="1.000000" stroke="none" 
	d="
M621.997925,128.026566 
	C621.997925,143.462372 621.997925,158.403198 621.997925,173.344009 
	C621.752747,173.343445 621.507568,173.342880 621.262390,173.342300 
	C621.262390,154.515579 621.262390,135.688873 621.262390,116.862144 
	C621.507568,116.848373 621.752747,116.834602 621.997925,116.820831 
	C621.997925,120.391083 621.997925,123.961334 621.997925,128.026566 
z"/>
<path fill="#8E8E8E" opacity="1.000000" stroke="none" 
	d="
M268.950989,158.069717 
	C268.950989,166.947739 268.950989,175.825760 268.950989,184.703781 
	C268.323425,184.714615 267.695892,184.725433 267.068329,184.736252 
	C267.068329,176.209183 267.068329,167.682129 267.423645,158.638794 
	C268.169617,158.104919 268.560303,158.087311 268.950989,158.069717 
z"/>
<path fill="#AAAAAA" opacity="1.000000" stroke="none" 
	d="
M21.979034,148.011780 
	C21.985430,143.233444 21.985430,138.952408 21.985430,134.671356 
	C22.257750,134.676056 22.530069,134.680740 22.802389,134.685440 
	C22.802389,151.716415 22.802389,168.747391 22.802389,185.778351 
	C22.525806,185.782761 22.249224,185.787170 21.972641,185.791565 
	C21.972641,173.364075 21.972641,160.936569 21.979034,148.011780 
z"/>
<path fill="#E9E9E9" opacity="1.000000" stroke="none" 
	d="
M582.014160,122.039070 
	C582.014282,130.334549 582.014282,138.138016 582.014282,145.941483 
	C581.738770,145.938889 581.463257,145.936295 581.187744,145.933716 
	C581.187744,132.048782 581.187744,118.163864 581.187744,104.278938 
	C581.463196,104.271942 581.738647,104.264938 582.014099,104.257942 
	C582.014099,110.020981 582.014099,115.784027 582.014160,122.039070 
z"/>
<path fill="#E9E9E9" opacity="1.000000" stroke="none" 
	d="
M988.981567,213.001221 
	C992.593201,213.331177 996.202454,213.911057 999.816895,213.945663 
	C1012.188904,214.064087 1024.562744,213.991074 1036.931763,214.927032 
	C1021.505676,214.927032 1006.079468,214.937698 990.653564,214.878998 
	C990.157532,214.877090 989.664246,214.164978 989.085449,213.392700 
	C989.001221,213.001404 988.981567,213.001221 988.981567,213.001221 
z"/>
<path fill="#8E8E8E" opacity="1.000000" stroke="none" 
	d="
M512.064941,89.112946 
	C521.810608,89.112946 531.556274,89.112946 541.301941,89.112946 
	C541.314514,89.445358 541.327087,89.777771 541.339600,90.110184 
	C531.871826,90.110184 522.403992,90.110184 512.479309,89.826477 
	C512.022461,89.542763 512.064941,89.112946 512.064941,89.112946 
z"/>
<path fill="#AAAAAA" opacity="1.000000" stroke="none" 
	d="
M45.133057,114.515396 
	C45.555264,114.049538 45.909081,114.043793 46.527481,114.047287 
	C46.513103,125.746727 46.234138,137.436935 45.726509,149.586685 
	C45.497849,150.046234 45.147003,150.065704 45.147003,150.065704 
	C45.119556,138.368973 45.092106,126.672249 45.133057,114.515396 
z"/>
<path fill="#DBDBDB" opacity="1.000000" stroke="none" 
	d="
M493.999481,191.994812 
	C500.295471,191.990143 506.091827,191.990143 511.888184,191.990143 
	C511.886536,192.237183 511.884918,192.484222 511.883301,192.731262 
	C499.628784,192.731262 487.374298,192.731262 475.119812,192.731262 
	C475.117279,192.487335 475.114746,192.243423 475.112213,191.999496 
	C481.241425,191.999496 487.370636,191.999496 493.999481,191.994812 
z"/>
<path fill="#8E8E8E" opacity="1.000000" stroke="none" 
	d="
M462.016632,211.868866 
	C457.564056,211.868790 453.608246,211.868790 449.652405,211.868790 
	C449.653137,211.651535 449.653870,211.434265 449.654602,211.217010 
	C461.888000,211.217010 474.121399,211.217010 486.354828,211.217010 
	C486.356567,211.434326 486.358337,211.651627 486.360107,211.868942 
	C478.411194,211.868942 470.462280,211.868942 462.016632,211.868866 
z"/>
<path fill="#808080" opacity="1.000000" stroke="none" 
	d="
M45.086128,150.526276 
	C45.147003,150.065704 45.497849,150.046234 45.673157,150.056778 
	C45.848461,162.438522 45.848461,174.809708 45.848461,187.180908 
	C45.574059,187.181213 45.299660,187.181519 45.025257,187.181839 
	C45.025257,175.116837 45.025257,163.051849 45.086128,150.526276 
z"/>
<path fill="#BCBCBC" opacity="1.000000" stroke="none" 
	d="
M447.019287,106.011261 
	C447.013092,113.305855 447.013092,120.102982 447.013092,126.900108 
	C446.787811,126.899681 446.562561,126.899254 446.337280,126.898834 
	C446.337280,115.517471 446.337280,104.136116 446.337280,92.754761 
	C446.566681,92.750702 446.796051,92.746635 447.025452,92.742577 
	C447.025452,96.999649 447.025452,101.256729 447.019287,106.011261 
z"/>
<path fill="#DBDBDB" opacity="1.000000" stroke="none" 
	d="
M268.983185,157.596725 
	C268.560303,158.087311 268.169617,158.104919 267.491821,158.191040 
	C267.204712,149.076385 267.204712,139.893219 267.204712,130.710052 
	C267.808258,130.698822 268.411835,130.687607 269.015381,130.676392 
	C269.015381,139.492172 269.015381,148.307953 268.983185,157.596725 
z"/>
<path fill="#DBDBDB" opacity="1.000000" stroke="none" 
	d="
M483.003723,89.996216 
	C471.609009,89.996216 460.214325,89.996216 448.819611,89.996216 
	C448.819916,89.668793 448.820251,89.341377 448.820557,89.013954 
	C459.918610,89.013954 471.016663,89.013954 482.561646,89.272560 
	C483.008545,89.531166 483.003723,89.996216 483.003723,89.996216 
z"/>
<path fill="#8E8E8E" opacity="1.000000" stroke="none" 
	d="
M311.112701,157.960800 
	C311.437347,150.605881 311.762024,143.250946 312.086670,135.896027 
	C312.340271,135.896988 312.593903,135.897949 312.847504,135.898895 
	C312.847504,142.932922 312.847504,149.966965 312.528076,157.479156 
	C311.843353,157.958466 311.478027,157.959625 311.112701,157.960800 
z"/>
<path fill="#E9E9E9" opacity="1.000000" stroke="none" 
	d="
M1005.018921,38.007156 
	C1011.617615,38.002476 1017.720215,38.002476 1023.822815,38.002476 
	C1023.823975,38.225262 1023.825134,38.448051 1023.826294,38.670837 
	C1013.646790,38.670837 1003.467346,38.670837 993.287903,38.670837 
	C993.274231,38.451172 993.260498,38.231506 993.246765,38.011841 
	C997.005493,38.011841 1000.764160,38.011841 1005.018921,38.007156 
z"/>
<path fill="#CCCCCC" opacity="1.000000" stroke="none" 
	d="
M485.642731,108.975830 
	C484.578918,108.917793 483.931213,108.876579 483.283478,108.835358 
	C483.284271,108.664612 483.285034,108.493866 483.285828,108.323120 
	C493.462280,108.323120 503.638733,108.323120 513.815186,108.323120 
	C513.821472,108.546295 513.827759,108.769470 513.834045,108.992645 
	C504.575653,108.992645 495.317230,108.992645 485.642731,108.975830 
z"/>
<path fill="#9B9B9B" opacity="1.000000" stroke="none" 
	d="
M661.106262,95.425354 
	C660.972046,96.331436 660.847168,96.801132 660.722351,97.270821 
	C660.588745,97.266014 660.455139,97.261208 660.321533,97.256401 
	C660.321533,87.174911 660.321533,77.093414 660.321533,67.011925 
	C660.586243,67.005592 660.850891,66.999268 661.115601,66.992935 
	C661.115601,76.324944 661.115601,85.656960 661.106262,95.425354 
z"/>
<path fill="#E9E9E9" opacity="1.000000" stroke="none" 
	d="
M384.476929,89.991653 
	C383.079559,89.995178 382.116486,89.995178 381.153442,89.995178 
	C381.152802,89.767204 381.152191,89.539223 381.151550,89.311249 
	C390.741211,89.311249 400.330872,89.311249 409.920532,89.311249 
	C409.925659,89.536880 409.930786,89.762505 409.935913,89.988136 
	C401.594360,89.988136 393.252808,89.988136 384.476929,89.991653 
z"/>
<path fill="#DBDBDB" opacity="1.000000" stroke="none" 
	d="
M989.001526,212.991562 
	C988.433960,212.716705 987.376770,212.461990 987.370972,212.185135 
	C987.269958,207.389282 987.298157,202.590683 987.298157,197.792694 
	C987.861816,197.788208 988.425415,197.783722 988.989075,197.779236 
	C988.989075,202.542038 988.989075,207.304825 988.985352,212.534424 
	C988.981567,213.001221 989.001221,213.001404 989.001526,212.991562 
z"/>
<path fill="#CCCCCC" opacity="1.000000" stroke="none" 
	d="
M105.896835,208.016205 
	C105.027191,208.679977 103.755241,209.936264 102.540192,209.883438 
	C96.449287,209.618729 90.373276,209.011353 84.261536,208.005096 
	C91.347954,208.005096 98.434364,208.005096 105.896835,208.016205 
z"/>
<path fill="#AAAAAA" opacity="1.000000" stroke="none" 
	d="
M311.072021,158.427155 
	C311.478027,157.959625 311.843353,157.958466 312.481812,157.940598 
	C312.754944,163.045624 312.754944,168.167358 312.754944,174.640518 
	C309.875305,168.781769 311.466736,163.712097 311.072021,158.427155 
z"/>
<path fill="#F2F2F2" opacity="1.000000" stroke="none" 
	d="
M808.371826,159.967422 
	C809.231445,164.134262 809.860962,168.630234 810.490417,173.126205 
	C809.707520,173.205734 808.924561,173.285263 808.141663,173.364792 
	C808.141663,169.008713 808.141663,164.652649 808.371826,159.967422 
z"/>
<path fill="#B9B9B9" opacity="1.000000" stroke="none" 
	d="
M483.471558,90.020706 
	C483.003723,89.996216 483.008545,89.531166 483.033203,89.300331 
	C492.411652,89.064278 501.765503,89.059059 511.592133,89.083389 
	C512.064941,89.112946 512.022461,89.542763 512.019653,89.758652 
	C502.657745,89.998093 493.298553,90.021645 483.471558,90.020706 
z"/>
<path fill="#808080" opacity="1.000000" stroke="none" 
	d="
M620.971558,54.453560 
	C620.971863,53.035816 620.971863,52.059669 620.971863,51.083523 
	C621.197632,51.082550 621.423401,51.081577 621.649170,51.080605 
	C621.649170,59.778034 621.649170,68.475464 621.649170,77.172897 
	C621.423157,77.178314 621.197205,77.183731 620.971191,77.189148 
	C620.971191,69.757812 620.971191,62.326485 620.971558,54.453560 
z"/>
<path fill="#DBDBDB" opacity="1.000000" stroke="none" 
	d="
M1005.028809,170.591507 
	C1005.026489,178.624817 1005.026489,186.228821 1005.026489,193.832809 
	C1004.780090,193.831924 1004.533630,193.831039 1004.287231,193.830139 
	C1004.287231,185.232239 1004.287231,176.634338 1004.287231,168.036438 
	C1004.426086,168.021835 1004.564941,168.007233 1004.703735,167.992630 
	C1004.812927,168.715820 1004.922058,169.439011 1005.028809,170.591507 
z"/>
<path fill="#E9E9E9" opacity="1.000000" stroke="none" 
	d="
M797.933960,157.010971 
	C801.204590,157.010818 803.988464,157.010818 806.772400,157.010818 
	C806.772034,157.229782 806.771729,157.448746 806.771362,157.667709 
	C798.259338,157.667709 789.747314,157.667709 781.235291,157.667709 
	C781.225342,157.448853 781.215332,157.229980 781.205322,157.011124 
	C786.619324,157.011124 792.033264,157.011124 797.933960,157.010971 
z"/>
<path fill="#CCCCCC" opacity="1.000000" stroke="none" 
	d="
M1177.243164,156.994843 
	C1169.104736,156.998199 1161.380737,156.998199 1153.656616,156.998199 
	C1153.660278,156.758698 1153.663818,156.519211 1153.667358,156.279709 
	C1162.122803,156.279709 1170.578247,156.279709 1180.454468,156.279709 
	C1178.587524,156.754837 1178.122681,156.873154 1177.243164,156.994843 
z"/>
<path fill="#E9E9E9" opacity="1.000000" stroke="none" 
	d="
M580.982117,53.618980 
	C581.027344,52.555607 581.072388,51.911633 581.117493,51.267658 
	C581.296875,51.267170 581.476257,51.266678 581.655640,51.266186 
	C581.655640,59.109264 581.655640,66.952339 581.655640,74.795418 
	C581.431091,74.804512 581.206482,74.813599 580.981934,74.822693 
	C580.981934,67.894585 580.981934,60.966480 580.982117,53.618980 
z"/>
<path fill="#9B9B9B" opacity="1.000000" stroke="none" 
	d="
M140.850311,185.550079 
	C140.965759,184.353836 141.084473,183.588654 141.203186,182.823486 
	C141.372971,182.833328 141.542770,182.843155 141.712555,182.852982 
	C141.712555,190.588486 141.712555,198.324005 141.712555,206.059509 
	C141.426224,206.068954 141.139908,206.078415 140.853577,206.087860 
	C140.853577,199.385620 140.853577,192.683395 140.850311,185.550079 
z"/>
<path fill="#8E8E8E" opacity="1.000000" stroke="none" 
	d="
M1025.932373,181.058762 
	C1025.930054,177.634552 1025.930054,174.696609 1025.930054,171.758682 
	C1026.204346,171.762985 1026.478638,171.767273 1026.752930,171.771576 
	C1026.752930,179.618164 1026.752930,187.464737 1026.752930,195.311325 
	C1026.480225,195.314331 1026.207397,195.317337 1025.934692,195.320343 
	C1025.934692,190.728577 1025.934692,186.136810 1025.932373,181.058762 
z"/>
<path fill="#E9E9E9" opacity="1.000000" stroke="none" 
	d="
M1317.911011,213.997559 
	C1325.218872,213.971786 1332.125854,213.971786 1339.032715,213.971786 
	C1339.033325,214.287033 1339.033936,214.602295 1339.034668,214.917542 
	C1331.832764,214.917542 1324.630981,214.919174 1317.429077,214.904373 
	C1317.301270,214.904099 1317.051758,214.636597 1317.065674,214.612122 
	C1317.187012,214.400497 1317.355591,214.215942 1317.911011,213.997559 
z"/>
<path fill="#DBDBDB" opacity="1.000000" stroke="none" 
	d="
M312.317688,88.997040 
	C310.580811,88.999664 309.290863,88.999664 308.000916,88.999664 
	C308.013153,88.916245 308.025421,88.832825 308.037689,88.749405 
	C314.371094,88.749405 320.704529,88.749405 327.037964,88.749405 
	C327.023071,88.831078 327.008179,88.912743 326.993286,88.994415 
	C322.250397,88.994415 317.507538,88.994415 312.317688,88.997040 
z"/>
<path fill="#E9E9E9" opacity="1.000000" stroke="none" 
	d="
M582.022827,82.325775 
	C582.021973,84.835609 582.021973,86.927834 582.021973,89.020065 
	C581.776062,89.011467 581.530090,89.002861 581.284180,88.994263 
	C581.284180,85.681252 581.284180,82.368248 581.284180,79.055244 
	C581.478516,79.050293 581.672852,79.045334 581.867188,79.040375 
	C581.919373,79.996315 581.971558,80.952248 582.022827,82.325775 
z"/>
<path fill="#E9E9E9" opacity="1.000000" stroke="none" 
	d="
M581.326904,93.234337 
	C581.743042,95.304726 581.923584,97.628578 582.104187,99.952431 
	C581.766602,99.962402 581.429016,99.972366 581.091431,99.982338 
	C581.091431,97.817490 581.091431,95.652649 581.326904,93.234337 
z"/>
<path fill="#DBDBDB" opacity="1.000000" stroke="none" 
	d="
M302.518402,87.993515 
	C303.176422,88.077324 303.494476,88.124054 303.768402,88.259811 
	C303.825653,88.288193 303.723419,88.824249 303.688965,88.824905 
	C302.120605,88.854584 300.551697,88.850639 298.938751,88.270348 
	C300.013428,88.176270 301.088074,88.082184 302.518402,87.993515 
z"/>
<path fill="#E9E9E9" opacity="1.000000" stroke="none" 
	d="
M581.349365,149.996460 
	C581.694458,150.533829 581.837219,151.243118 581.979980,151.952393 
	C581.762512,151.986359 581.544983,152.020325 581.327515,152.054291 
	C581.267395,151.425659 581.207214,150.797012 581.349365,149.996460 
z"/>
<path fill="#E9E9E9" opacity="1.000000" stroke="none" 
	d="
M582.047424,155.942139 
	C582.165405,156.114212 582.283447,156.286285 582.401428,156.458344 
	C582.297485,156.415833 582.193542,156.373306 582.045105,156.162964 
	C582.000610,155.995163 582.047424,155.942139 582.047424,155.942139 
z"/>
<path fill="#E9E9E9" opacity="1.000000" stroke="none" 
	d="
M581.974365,156.018921 
	C581.826782,155.859741 581.705444,155.676773 581.584106,155.493805 
	C581.693420,155.540405 581.802673,155.586990 581.979736,155.787872 
	C582.047424,155.942139 582.000610,155.995163 581.974365,156.018921 
z"/>
<path fill="#F2F2F2" opacity="1.000000" stroke="none" 
	d="
M120.449387,187.431488 
	C120.526108,187.379684 120.551552,187.585968 120.551552,187.585968 
	C120.551552,187.585968 120.372673,187.483307 120.449387,187.431488 
z"/>
<path fill="#E9E9E9" opacity="1.000000" stroke="none" 
	d="
M377.453369,89.429672 
	C377.530426,89.378799 377.556946,89.582687 377.556946,89.582687 
	C377.556946,89.582687 377.376282,89.480545 377.453369,89.429672 
z"/>
<path fill="#E9E9E9" opacity="1.000000" stroke="none" 
	d="
M1341.437988,213.424347 
	C1341.518188,213.370346 1341.549316,213.582550 1341.549316,213.582550 
	C1341.549316,213.582550 1341.357788,213.478363 1341.437988,213.424347 
z"/>
<path fill="#E9E9E9" opacity="1.000000" stroke="none" 
	d="
M1040.426758,214.410828 
	C1040.515381,214.348282 1040.554565,214.586014 1040.554565,214.586014 
	C1040.554565,214.586014 1040.338257,214.473358 1040.426758,214.410828 
z"/>
<path fill="#FDBDBF" opacity="1.000000" stroke="none" 
	d="
M1353.937622,80.032661 
	C1367.035034,80.032661 1380.132324,80.032661 1393.626465,80.032661 
	C1393.626465,88.764038 1393.626465,96.963799 1393.626465,105.564621 
	C1391.548828,105.564621 1389.504517,105.564621 1386.924194,105.564621 
	C1386.728027,101.789391 1386.191284,98.020119 1386.425415,94.299377 
	C1386.718872,89.636398 1384.578613,88.861755 1380.507690,88.997932 
	C1372.041260,89.281158 1363.558960,89.091789 1354.152832,89.057579 
	C1350.092041,89.046852 1346.961548,89.075195 1343.376953,89.101364 
	C1332.994385,89.084694 1323.066162,89.070213 1312.854614,89.149170 
	C1312.066528,89.842110 1311.561890,90.441612 1310.968994,90.666824 
	C1308.291260,90.180115 1305.701660,90.067703 1303.112183,89.955292 
	C1295.832520,89.664177 1288.554932,89.212906 1281.272705,89.119263 
	C1270.188843,88.976730 1270.186890,89.081963 1270.161377,100.046089 
	C1270.157227,101.829613 1270.160767,103.613152 1270.160767,105.249359 
	C1263.011108,106.582596 1262.805542,106.439262 1262.791626,100.384933 
	C1262.776733,93.905891 1262.788208,87.426788 1262.788208,80.024994 
	C1276.145874,80.024994 1289.069336,80.024994 1302.918945,80.002441 
	C1306.644287,79.966034 1309.443237,79.952187 1312.242310,79.938339 
	C1322.532593,79.991051 1332.822876,80.043755 1344.032715,80.065750 
	C1347.947510,80.034241 1350.942505,80.033455 1353.937622,80.032661 
z"/>
<path fill="#FC898D" opacity="1.000000" stroke="none" 
	d="
M1343.888062,140.024811 
	C1333.558105,140.239136 1323.228149,140.453461 1312.156128,140.700745 
	C1308.620239,140.819016 1305.826294,140.904327 1303.032471,140.989655 
	C1299.100708,140.694916 1295.172241,140.209518 1291.236694,140.145264 
	C1283.104370,140.012497 1274.966553,139.998840 1266.835327,140.157654 
	C1263.785278,140.217224 1262.724121,139.157043 1262.831543,136.130859 
	C1263.014038,130.991150 1262.872925,125.840179 1262.881958,120.693962 
	C1262.892944,114.451309 1262.980713,114.386024 1270.099854,115.595955 
	C1270.099854,117.894836 1270.099854,120.324425 1270.099854,122.754021 
	C1270.099854,125.225830 1270.099854,127.697632 1270.099854,131.034698 
	C1280.957153,131.034698 1291.479736,131.034698 1302.842529,131.137726 
	C1306.513184,131.156006 1309.343872,131.071259 1312.628906,131.006531 
	C1323.476074,131.028412 1333.868774,131.030289 1344.635986,131.075043 
	C1347.939453,131.091339 1350.868042,131.064758 1353.796753,131.038177 
	C1363.116821,131.073883 1372.440796,130.964905 1381.755005,131.217758 
	C1385.392456,131.316498 1386.398193,129.927887 1386.186157,126.559143 
	C1385.958740,122.946381 1386.134766,119.308220 1386.134766,115.317108 
	C1388.873901,115.317108 1391.089966,115.317108 1393.663208,115.317108 
	C1393.663208,123.356445 1393.663208,131.266052 1393.663208,140.094437 
	C1380.804688,140.094437 1367.912842,140.094437 1354.094360,140.061493 
	C1350.074463,140.027283 1346.981201,140.026047 1343.888062,140.024811 
z"/>
<path fill="#FBA0A3" opacity="1.000000" stroke="none" 
	d="
M1353.817871,130.601959 
	C1350.868042,131.064758 1347.939453,131.091339 1344.614502,130.662781 
	C1344.857056,122.212540 1346.297119,114.614449 1353.328491,111.122803 
	C1350.660278,107.354393 1347.570557,104.100243 1345.857788,100.235825 
	C1344.372192,96.884064 1344.446411,92.841049 1343.831177,89.103546 
	C1346.961548,89.075195 1350.092041,89.046852 1353.694824,89.055893 
	C1353.262207,96.969666 1354.533447,103.648506 1363.146729,106.834297 
	C1364.146362,107.204041 1364.912354,109.428696 1364.944702,110.813095 
	C1364.972046,111.975365 1364.030396,113.885605 1363.072998,114.230820 
	C1355.419067,116.990608 1353.927734,123.131584 1353.817871,130.601959 
z"/>
<path fill="#FDD0D1" opacity="1.000000" stroke="none" 
	d="
M1312.174438,130.986511 
	C1309.343872,131.071259 1306.513184,131.156006 1303.306641,131.114426 
	C1302.586060,128.552689 1302.322876,126.102325 1301.879272,123.685081 
	C1301.030151,119.056274 1298.349487,116.059418 1293.901489,114.343613 
	C1292.756958,113.902092 1291.533936,112.141655 1291.442017,110.905602 
	C1291.342163,109.563675 1292.228394,107.173500 1293.186035,106.880936 
	C1301.369873,104.380600 1302.559937,97.864685 1303.048584,90.370651 
	C1305.701660,90.067703 1308.291260,90.180115 1310.979614,90.951736 
	C1311.360962,92.068863 1311.643555,92.526787 1311.962524,93.391983 
	C1311.030518,100.675240 1309.468506,107.211174 1301.567383,110.431526 
	C1310.534546,115.038757 1311.850098,122.774796 1312.174438,130.986511 
z"/>
<path fill="#F99C9F" opacity="1.000000" stroke="none" 
	d="
M1353.914429,79.563171 
	C1350.942505,80.033455 1347.947510,80.034241 1344.503906,80.032074 
	C1344.037109,74.716667 1344.259521,69.389137 1343.928223,64.096268 
	C1343.634644,59.406761 1341.918335,55.019035 1336.799561,53.834618 
	C1331.140869,52.525295 1331.798218,49.279823 1333.162354,45.386875 
	C1343.310425,44.435722 1351.678955,50.588615 1352.858276,60.244255 
	C1353.619629,66.476456 1353.574707,72.807129 1353.914429,79.563171 
z"/>
<path fill="#FEA4A7" opacity="1.000000" stroke="none" 
	d="
M1343.979858,140.484283 
	C1346.981201,140.026047 1350.074463,140.027283 1353.632812,140.025330 
	C1353.954102,144.688782 1353.809937,149.355423 1353.289307,154.573608 
	C1352.947388,156.084061 1352.981689,157.042984 1353.016113,158.001907 
	C1352.446899,169.340408 1344.678711,176.366867 1333.284668,175.583694 
	C1332.663818,171.902832 1331.269043,168.515518 1337.323853,167.376984 
	C1341.756714,166.543396 1343.750977,162.313538 1343.934570,157.847916 
	C1344.165771,152.220810 1344.042236,146.579132 1343.979858,140.484283 
z"/>
<path fill="#FDD1D2" opacity="1.000000" stroke="none" 
	d="
M1303.022461,141.457809 
	C1305.826294,140.904327 1308.620239,140.819016 1311.789185,140.878845 
	C1312.338501,146.493225 1312.356201,151.973114 1312.727905,157.428909 
	C1313.153931,163.685669 1315.417847,165.704330 1321.271240,168.206711 
	C1323.061157,168.971954 1323.727905,172.364731 1325.100220,174.908493 
	C1314.268799,177.386917 1305.010620,170.839966 1303.869019,160.792526 
	C1303.160034,154.551773 1303.270020,148.217987 1303.022461,141.457809 
z"/>
<path fill="#FED3D4" opacity="1.000000" stroke="none" 
	d="
M1312.212158,79.480637 
	C1309.443237,79.952187 1306.644287,79.966034 1303.382446,79.979813 
	C1303.202637,73.510689 1303.182251,67.010666 1303.838623,60.579742 
	C1304.850952,50.663002 1313.422974,44.271469 1323.619751,45.504639 
	C1324.514038,49.694878 1324.566895,52.980583 1318.931274,54.104336 
	C1314.595215,54.968929 1312.731934,58.625603 1312.299316,63.529289 
	C1311.942139,65.010376 1311.985962,66.005318 1312.029785,67.000252 
	C1312.080566,71.007812 1312.131348,75.015381 1312.212158,79.480637 
z"/>
<path fill="#FC898D" opacity="1.000000" stroke="none" 
	d="
M1353.255371,157.765030 
	C1352.981689,157.042984 1352.947388,156.084061 1353.175293,155.018677 
	C1353.456543,155.784195 1353.475464,156.656174 1353.255371,157.765030 
z"/>
<path fill="#F99C9F" opacity="1.000000" stroke="none" 
	d="
M1312.286865,66.770844 
	C1311.985962,66.005318 1311.942139,65.010376 1312.201416,63.926765 
	C1312.517822,64.739204 1312.531006,65.640312 1312.286865,66.770844 
z"/>
<path fill="#D52E31" opacity="1.000000" stroke="none" 
	d="
M1312.628906,131.006531 
	C1311.850098,122.774796 1310.534546,115.038757 1301.567383,110.431526 
	C1309.468506,107.211174 1311.030518,100.675240 1312.212891,93.151520 
	C1312.663940,91.354431 1312.901001,90.205093 1313.137939,89.055740 
	C1323.066162,89.070213 1332.994385,89.084694 1343.376953,89.101364 
	C1344.446411,92.841049 1344.372192,96.884064 1345.857788,100.235825 
	C1347.570557,104.100243 1350.660278,107.354393 1353.328491,111.122803 
	C1346.297119,114.614449 1344.857056,122.212540 1344.239746,130.619904 
	C1333.868774,131.030289 1323.476074,131.028412 1312.628906,131.006531 
z"/>
<path fill="#FBA0A3" opacity="1.000000" stroke="none" 
	d="
M1312.854736,89.149185 
	C1312.901001,90.205093 1312.663940,91.354431 1312.176514,92.744232 
	C1311.643555,92.526787 1311.360962,92.068863 1311.067871,91.326035 
	C1311.561890,90.441612 1312.066528,89.842110 1312.854736,89.149185 
z"/>
</svg>