<svg width="1014.3" height="218.21" version="1.1" viewBox="0 0 1014.3 218.21" xmlns="http://www.w3.org/2000/svg"><defs><clipPath id="b"><path d="m0 190.67h787v-190.67h-787z"/></clipPath><clipPath id="a"><path d="m0 190.67h787v-190.67h-787z"/></clipPath></defs><g transform="matrix(1.3333 0 0 -1.3333 -17.599 236.44)"><g clip-path="url(#b)"><g transform="translate(705.1 151.26)"><path d="m0 0c-37.993 0-68.794-30.8-68.794-68.792 0-37.995 30.801-68.793 68.794-68.793 37.994 0 68.794 30.798 68.794 68.793 0 37.992-30.8 68.792-68.794 68.792" fill="#d42b2e" fill-rule="evenodd"/></g><g transform="translate(701.79 34.071)"><path d="m0 0c-5.128 0.147-8.981 1.538-11.563 4.175-2.583 2.637-3.874 6.757-3.874 12.36v16.369c0 4.029-0.723 7.122-2.169 9.284-1.447 2.161-3.581 3.387-6.4 3.68v4.945c5.713 0.622 8.569 4.814 8.569 12.579v16.644c0 5.639 1.291 9.786 3.874 12.442 2.582 2.655 6.435 4.055 11.563 4.202v-5.823c-3.113-0.183-5.348-1.199-6.702-3.048-1.356-1.85-2.032-4.807-2.032-8.871v-16.096c0-7.946-2.711-12.743-8.13-14.392v-0.22c5.419-1.684 8.13-6.61 8.13-14.776v-15.491c0-2.123 0.145-3.936 0.439-5.439 0.292-1.501 0.787-2.746 1.483-3.735 0.695-0.988 1.593-1.729 2.692-2.225 1.099-0.494 2.472-0.758 4.12-0.795z" fill="#ffd8d9"/></g><g transform="translate(732.05 79.939)"><path d="m0 0c-5.677-0.623-8.514-4.943-8.514-12.964v-16.369c0-5.604-1.291-9.724-3.873-12.36-2.582-2.637-6.436-4.028-11.563-4.175v5.768c1.501 0.037 2.802 0.275 3.9 0.714 1.099 0.44 2.005 1.126 2.719 2.06 0.715 0.934 1.245 2.17 1.594 3.708 0.347 1.538 0.521 3.443 0.521 5.713v15.491c0 8.13 2.71 13.055 8.13 14.776v0.22c-5.42 1.721-8.13 6.518-8.13 14.392v16.095c0 2.16-0.183 3.983-0.549 5.466-0.367 1.483-0.907 2.692-1.621 3.625-0.714 0.934-1.62 1.621-2.718 2.06-1.099 0.44-2.381 0.696-3.846 0.769v5.823c5.127-0.147 8.981-1.538 11.563-4.175s3.873-6.793 3.873-12.469v-16.645c0-7.836 2.837-12.03 8.514-12.579z" fill="#ffa8ab"/></g><g transform="translate(656.63 79.284)"><path d="m0 0h5.604v-12.25h85.473v12.25h5.604v-18.787h-96.681z" fill="#ff8e91"/></g><g transform="translate(656.63 104.67)"><path d="m0 0h96.681v-18.842h-5.604v12.305h-85.473v-12.305h-5.604z" fill="#ffc2c4"/></g></g><text transform="matrix(.99998 -.0064097 -.0064097 -.99998 6.8497 45.155)" fill="#ffffff" font-family="'Sanchez Regular'" font-size="132.28px"><tspan x="0 88.629959 164.03156 244.45995 313.11508 395.92456 469.72556 540.62952" y="0" fill="#ffffff">Lauz ack</tspan></text><g clip-path="url(#a)"><g transform="translate(394.06 131.27)"><path d="m0 0 0.644 0.644-0.644 0.643v1.331h-0.065v1.56l0.246 0.135v2.224l-0.246 0.132v0.463h-3e-3l-8e-3 1.178-0.645-1.178h-0.019l-0.751 5.238h0.353v0.185h-0.273v0.444h-0.237v-0.444h-0.28v-0.185h0.337l-0.725-5.238h-0.131l-0.624 1.178-0.012-1.668-0.195-0.105v-2.216l0.223-0.129v-1.574h-1.701l-1.981 1.923-0.592 2.643-0.012 1.835-0.283-0.517-0.589 2.63-0.013 1.946-0.3-0.548-0.725 3.24c0.138 0.102 0.237 0.223 0.239 0.361 4e-3 0.244-0.176 0.402-0.432 0.497l-0.054 0.242c0.401 0.126 0.705 0.388 0.705 0.79 0 0.527-0.508 1.115-1.094 1.208l-0.059 3.178h0.181v0.246h-0.186l-0.054 2.88h-0.079l-0.055-2.88h-0.177v-0.246h0.172l-0.061-3.179c-0.578-0.099-1.057-0.701-1.057-1.227 0-0.394 0.277-0.643 0.656-0.766l-0.058-0.249c-0.297-0.108-0.517-0.284-0.517-0.494 0-0.158 0.124-0.298 0.309-0.406l-0.717-3.095-0.252 0.475-0.01-1.605-0.706-3.044-0.312 0.589-0.013-1.994-0.573-2.472-2.234-1.961h-1.387v1.548l0.268 0.147v2.224l-0.245 0.132-0.011 1.641-0.661-1.206-0.754 5.266h0.352v0.185h-0.272v0.444h-0.237v-0.444h-0.281v-0.185h0.338l-0.753-5.435-0.728 1.375-0.011-1.668-0.195-0.105v-2.216l0.223-0.129v-1.574h-0.017v-1.217l-0.682-0.682 0.682-0.683v-6.315h-0.36v-2.344h0.36v-19.294l-22.846 11.648v15.979c0.197 0.094 0.341 0.346 0.341 0.651 0 0.385-0.225 0.696-0.501 0.696-4e-3 0-8e-3 -3e-3 -0.012-3e-3v1.931l0.261 0.248-3e-3 4e-3h3e-3v1.43h-1e-3l-0.305 0.321v7e-3l-1.144 7.984-1.115-8.057-0.139 0.258-0.06 0.16-0.162 1.65-0.092-0.965-1.591 4.29-0.349-0.975-0.889 1.641-4.097 25.937v0.178l-0.099 5.821h0.261v0.256h-0.266l-0.023 1.356c0.162 4e-3 0.243 0.034 0.333 0.258 0.015 0.038 5e-3 0.076-0.012 0.112 0.028-7e-3 0.052-0.023 0.084-0.016 0.103 0.02 0.303 0.095 0.31 0.169 6e-3 0.068-0.079 0.115-0.226 0.144-0.11 0.022-0.271-0.086-0.296-0.161-0.061 0.039-0.132 0.066-0.203 0.083l-0.017 0.945-0.015-0.94c-0.034 6e-3 -0.069 0.017-0.1 0.016-0.038-1e-3 -0.073-0.014-0.106-0.027-0.104 0.101-0.239 0.165-0.362 0.149-0.226-0.029-0.382-0.115-0.413-0.444-0.054-0.577 0.101-0.416 0.371-0.156 0.082 0.079 0.148 0.115 0.207 0.135 2e-3 -3e-3 0-6e-3 1e-3 -9e-3 0.14-0.303 0.163-0.259 0.377-0.26h0.015l-0.023-1.354h-0.312v-0.256h0.308l-0.099-5.947-4.252-26.017-1.163-1.97-0.494 1.332-1.538-4.291-0.094 0.966-0.16-1.675-0.135-0.378-1.132 7.9-1.072-7.747-0.198-0.187h-0.01v-0.01l-0.237-0.225v-1.431h3e-3l-3e-3 -3e-3 0.237-0.249v-1.963c-0.216-0.078-0.377-0.337-0.377-0.661 0-0.292 0.13-0.54 0.314-0.643l-0.18-57.385 20.651-10.432v33.613l22.846-11.648v-33.632l20.06-10.207v81.35h0.234v2.344h-0.234z" fill="#fff"/></g></g></g></svg>
