<?xml version="1.0" encoding="UTF-8" standalone="no"?>
<!-- Generator: Adobe Illustrator 19.1.0, SVG Export Plug-In . SVG Version: 6.00 Build 0)  -->

<svg
   xmlns:dc="http://purl.org/dc/elements/1.1/"
   xmlns:cc="http://creativecommons.org/ns#"
   xmlns:rdf="http://www.w3.org/1999/02/22-rdf-syntax-ns#"
   xmlns:svg="http://www.w3.org/2000/svg"
   xmlns="http://www.w3.org/2000/svg"
   xmlns:sodipodi="http://sodipodi.sourceforge.net/DTD/sodipodi-0.dtd"
   xmlns:inkscape="http://www.inkscape.org/namespaces/inkscape"
   version="1.1"
   x="0px"
   y="0px"
   viewBox="0 0 344.20001 344.20002"
   xml:space="preserve"
   id="svg4136"
   inkscape:version="0.91 r13725"
   sodipodi:docname="mlh_logo.svg"
   width="344.20001"
   height="344.20001"><metadata
     id="metadata4302"><rdf:RDF><cc:Work
         rdf:about=""><dc:format>image/svg+xml</dc:format><dc:type
           rdf:resource="http://purl.org/dc/dcmitype/StillImage" /><dc:title></dc:title></cc:Work></rdf:RDF></metadata><defs
     id="defs4300" /><sodipodi:namedview
     pagecolor="#ffffff"
     bordercolor="#666666"
     borderopacity="1"
     objecttolerance="10"
     gridtolerance="10"
     guidetolerance="10"
     inkscape:pageopacity="0"
     inkscape:pageshadow="2"
     inkscape:window-width="1920"
     inkscape:window-height="1017"
     id="namedview4298"
     showgrid="false"
     fit-margin-top="100"
     fit-margin-left="1"
     fit-margin-right="1"
     fit-margin-bottom="100"
     inkscape:zoom="1.4133333"
     inkscape:cx="185.1"
     inkscape:cy="170.40189"
     inkscape:window-x="1912"
     inkscape:window-y="-8"
     inkscape:window-maximized="1"
     inkscape:current-layer="svg4136" /><style
     type="text/css"
     id="style4138">
	.st0{display:none;fill:#D2A2DB;}
	.st1{display:none;}
	.st2{display:inline;fill:#353535;}
	.st3{fill:#353535;}
	.st4{fill:#C53C02;}
	.st5{fill:#751B00;}
	.st6{fill:#265A8F;}
	.st7{fill:#162F51;}
	.st8{fill:#FDEE00;}
	.st9{fill:#ECC700;}
	.st10{display:inline;}
	.st11{fill:none;stroke:#000000;stroke-miterlimit:10;}
	.st12{font-family:'OpenSans-Bold';}
	.st13{font-size:12px;}
</style><g
     id="Layer_1"
     transform="translate(-214.9,-97.900012)"><g
       id="g4141"><rect
         x="234.2"
         y="350.89999"
         class="st0"
         width="306"
         height="36"
         id="rect4143"
         style="display:none;fill:#d2a2db" /><g
         id="g4145"><g
           id="g4147"><g
             class="st1"
             id="g4149"
             style="display:none"><path
               class="st2"
               d="m 234.3,375.2 0,-12.7 3.4,0 c 3.9,0 4.7,2.1 4.7,3.9 0,1.3 -0.5,2.3 -1.3,3 -0.9,0.7 -2.1,1 -3.6,1 l -1.3,0 0,4.8 -1.9,0 z m 3,-6.5 c 1.2,0 2.1,-0.2 2.6,-0.6 0.5,-0.3 0.7,-0.9 0.7,-1.7 0,-0.7 -0.2,-1.3 -0.6,-1.6 -0.5,-0.4 -1.2,-0.5 -2.3,-0.5 l -1.4,0 0,4.4 1,0 z"
               id="path4151"
               inkscape:connector-curvature="0"
               style="display:inline;fill:#353535" /><path
               class="st2"
               d="m 249,375.4 c -1.8,0 -3.2,-0.6 -4.2,-1.8 -1,-1.2 -1.5,-2.8 -1.5,-4.7 0,-2 0.5,-3.6 1.5,-4.7 1,-1.2 2.4,-1.8 4.2,-1.8 1.8,0 3.2,0.6 4.2,1.8 1,1.2 1.5,2.8 1.5,4.7 0,2 -0.5,3.6 -1.5,4.7 -1,1.2 -2.4,1.8 -4.2,1.8 z m 0,-11.3 c -1.2,0 -2.2,0.4 -2.8,1.2 -0.7,0.8 -1,2 -1,3.6 0,1.6 0.3,2.8 1,3.6 0.7,0.8 1.6,1.2 2.8,1.2 1.3,0 2.2,-0.4 2.8,-1.2 0.7,-0.8 1,-2 1,-3.6 0,-1.6 -0.3,-2.8 -1,-3.6 -0.6,-0.8 -1.5,-1.2 -2.8,-1.2 z"
               id="path4153"
               inkscape:connector-curvature="0"
               style="display:inline;fill:#353535" /><path
               class="st2"
               d="m 265.2,375.2 -2.6,-9.3 c -0.3,1 -1.1,3.9 -2.5,8.9 l -0.1,0.4 -1.4,0 -3.5,-12.7 1.9,0 2.2,7.9 0.2,0.8 c 0.1,-0.4 0.2,-0.8 0.3,-1.2 l 2.1,-7.5 1.7,0 c 0,0 2.5,8.7 2.5,8.8 0.3,-1.3 1.1,-4.1 2.3,-8.5 l 0.1,-0.4 1.9,0 -3.5,12.7 -1.6,0 z"
               id="path4155"
               inkscape:connector-curvature="0"
               style="display:inline;fill:#353535" /><polygon
               class="st2"
               points="278.2,367.7 278.2,369.4 272.9,369.4 272.9,373.5 278.5,373.5 278.5,375.2 271.1,375.2 271.1,362.5 278.5,362.5 278.5,364.3 272.9,364.3 272.9,367.7 "
               id="polygon4157"
               style="display:inline;fill:#353535" /><path
               class="st2"
               d="m 287.1,375.2 -3,-5.1 -2.1,0 0,5.1 -1.8,0 0,-12.7 3.3,0 c 1.6,0 2.7,0.3 3.5,0.9 0.8,0.6 1.2,1.6 1.2,2.8 0,0.9 -0.2,1.7 -0.7,2.3 -0.4,0.5 -0.9,0.9 -1.5,1.1 l 3.3,5.6 -2.2,0 z m -3.4,-6.8 c 0.9,0 1.5,-0.2 2,-0.6 0.4,-0.3 0.6,-0.9 0.6,-1.6 0,-0.7 -0.2,-1.2 -0.6,-1.6 -0.4,-0.3 -1.2,-0.5 -2.3,-0.5 l -1.4,0 0,4.2 1.7,0 z"
               id="path4159"
               inkscape:connector-curvature="0"
               style="display:inline;fill:#353535" /><polygon
               class="st2"
               points="297,367.7 297,369.4 291.7,369.4 291.7,373.5 297.3,373.5 297.3,375.2 289.9,375.2 289.9,362.5 297.3,362.5 297.3,364.3 291.7,364.3 291.7,367.7 "
               id="polygon4161"
               style="display:inline;fill:#353535" /><path
               class="st2"
               d="m 298.9,375.2 0,-12.7 3.7,0 c 2,0 3.6,0.5 4.6,1.6 1.1,1.1 1.6,2.6 1.6,4.6 0,2.1 -0.6,3.7 -1.7,4.8 -1.1,1.1 -2.8,1.7 -4.9,1.7 l -3.3,0 z m 3.3,-1.7 c 3.2,0 4.8,-1.5 4.8,-4.7 0,-1.5 -0.4,-2.7 -1.1,-3.4 -0.8,-0.7 -1.9,-1.1 -3.4,-1.1 l -1.7,0 0,9.3 1.4,0 z"
               id="path4163"
               inkscape:connector-curvature="0"
               style="display:inline;fill:#353535" /><path
               class="st2"
               d="m 314.8,375.2 0,-12.7 3.7,0 c 1.6,0 2.7,0.3 3.5,0.8 0.8,0.6 1.2,1.5 1.2,2.6 0,0.8 -0.3,1.5 -0.8,2 -0.2,0.2 -0.4,0.4 -0.6,0.5 0.3,0.2 0.6,0.4 0.9,0.6 0.5,0.5 0.8,1.3 0.8,2.2 0,1.2 -0.4,2.2 -1.3,2.9 -0.8,0.7 -1.9,1 -3.4,1 l -4,0 z m 4.1,-1.7 c 2.4,0 2.8,-1.1 2.8,-2.1 0,-0.8 -0.3,-1.9 -2.9,-1.9 l -2.1,0 0,4.1 2.2,0 z m -0.2,-5.8 c 1,0 1.7,-0.2 2.1,-0.5 0.4,-0.3 0.5,-0.7 0.5,-1.3 0,-0.6 -0.2,-1 -0.6,-1.3 -0.5,-0.3 -1.2,-0.5 -2.3,-0.5 l -1.9,0 0,3.5 2.2,0 z"
               id="path4165"
               inkscape:connector-curvature="0"
               style="display:inline;fill:#353535" /><polygon
               class="st2"
               points="327.3,375.2 327.3,370.4 323.1,362.5 325.2,362.5 328.3,368.4 331.4,362.5 333.4,362.5 329.2,370.3 329.2,375.2 "
               id="polygon4167"
               style="display:inline;fill:#353535" /></g></g></g></g><g
       id="g4169"><g
         id="g4171"><path
           class="st3"
           d="m 233.2,324.2 c 0.4,0.2 0.7,0.4 1,0.6 0.3,0.3 0.5,0.6 0.6,1 0.1,0.4 0.2,0.8 0.2,1.2 l 0,14.6 c 0,0.1 0,0.3 -0.1,0.3 -0.1,0.1 -0.2,0.1 -0.3,0.1 l -3.6,0 c -0.1,0 -0.2,0 -0.3,-0.1 -0.1,-0.1 -0.1,-0.2 -0.1,-0.3 l 0,-13.2 -2.9,0 0,13.2 c 0,0.1 0,0.3 -0.1,0.3 -0.1,0.1 -0.2,0.1 -0.3,0.1 l -3.3,0 c -0.1,0 -0.3,0 -0.3,-0.1 -0.1,-0.1 -0.1,-0.2 -0.1,-0.3 l 0,-13.2 -2.9,0 0,13.2 c 0,0.3 -0.2,0.5 -0.5,0.5 l -3.6,0 c -0.3,0 -0.5,-0.2 -0.5,-0.5 l 0,-17.1 c 0,-0.3 0.2,-0.5 0.5,-0.5 l 15.6,0 c 0.3,-0.1 0.7,0 1,0.2 z"
           id="path4173"
           inkscape:connector-curvature="0"
           style="fill:#353535" /><path
           class="st3"
           d="m 251.3,323.9 c 0.4,0 0.8,0.1 1.2,0.2 0.4,0.2 0.7,0.4 1,0.6 0.3,0.3 0.5,0.6 0.6,1 0.1,0.4 0.2,0.8 0.2,1.2 l 0,14.6 c 0,0.1 0,0.3 -0.1,0.3 -0.1,0.1 -0.2,0.1 -0.3,0.1 l -3.6,0 c -0.1,0 -0.3,0 -0.3,-0.1 -0.1,-0.1 -0.1,-0.2 -0.1,-0.3 l 0,-4.6 c 0,-0.1 0,-0.3 -0.1,-0.3 -0.1,-0.1 -0.2,-0.1 -0.3,-0.1 l -5.1,0 c -0.1,0 -0.3,0 -0.3,0.1 -0.1,0.1 -0.1,0.2 -0.1,0.3 l 0,4.6 c 0,0.3 -0.2,0.5 -0.5,0.5 l -3.6,0 c -0.3,0 -0.5,-0.2 -0.5,-0.5 l 0,-14.6 c 0,-0.4 0.1,-0.8 0.2,-1.2 0.2,-0.4 0.4,-0.7 0.6,-1 0.3,-0.3 0.6,-0.5 1,-0.6 0.4,-0.2 0.8,-0.2 1.2,-0.2 l 8.9,0 z m -1.6,8.6 0,-4.5 -6.1,0 0,4.5 6.1,0 z"
           id="path4175"
           inkscape:connector-curvature="0"
           style="fill:#353535" /><path
           class="st3"
           d="m 270.6,324.1 c 0.1,0.1 0.1,0.2 0.1,0.3 l 0,14.6 c 0,0.4 -0.1,0.8 -0.2,1.2 -0.2,0.4 -0.4,0.7 -0.6,1 -0.3,0.3 -0.6,0.5 -1,0.6 -0.4,0.2 -0.8,0.2 -1.2,0.2 l -7.8,0 c -0.4,0 -0.8,-0.1 -1.2,-0.2 -0.4,-0.2 -0.7,-0.4 -1,-0.6 -0.3,-0.3 -0.5,-0.6 -0.6,-1 -0.2,-0.4 -0.2,-0.8 -0.2,-1.2 l 0,-5.5 c 0,-0.3 0.2,-0.5 0.5,-0.5 l 3.6,0 c 0.3,0 0.5,0.2 0.5,0.5 l 0,3.7 c 0,0.1 0,0.2 0.1,0.3 0.1,0.1 0.2,0.1 0.3,0.1 l 3.7,0 c 0.1,0 0.3,0 0.3,-0.1 0.1,-0.1 0.1,-0.2 0.1,-0.3 l 0,-12.7 c 0,-0.1 0,-0.3 0.1,-0.3 0.1,-0.1 0.2,-0.1 0.3,-0.1 l 3.6,0 c 0.3,-0.2 0.5,-0.1 0.6,0 z"
           id="path4177"
           inkscape:connector-curvature="0"
           style="fill:#353535" /><path
           class="st3"
           d="m 286.9,323.9 c 0.4,0 0.8,0.1 1.2,0.2 0.4,0.2 0.7,0.4 1,0.6 0.3,0.3 0.5,0.6 0.6,1 0.1,0.4 0.2,0.8 0.2,1.2 l 0,12 c 0,0.4 -0.1,0.8 -0.2,1.2 -0.2,0.4 -0.4,0.7 -0.6,1 -0.3,0.3 -0.6,0.5 -1,0.6 -0.4,0.2 -0.8,0.2 -1.2,0.2 l -9.1,0 c -0.4,0 -0.8,-0.1 -1.2,-0.2 -0.4,-0.2 -0.7,-0.4 -1,-0.6 -0.3,-0.3 -0.5,-0.6 -0.6,-1 -0.2,-0.4 -0.2,-0.8 -0.2,-1.2 l 0,-12 c 0,-0.4 0.1,-0.8 0.2,-1.2 0.1,-0.4 0.4,-0.7 0.6,-1 0.3,-0.3 0.6,-0.5 1,-0.6 0.4,-0.2 0.8,-0.2 1.2,-0.2 l 9.1,0 z m -1.6,4.4 -6.1,0 0,9.3 6.1,0 0,-9.3 z"
           id="path4179"
           inkscape:connector-curvature="0"
           style="fill:#353535" /><path
           class="st3"
           d="m 309.7,341.6 c 0.1,0.1 0.1,0.2 0,0.3 -0.1,0.1 -0.1,0.1 -0.3,0.1 l -4.1,0 c -0.1,0 -0.3,0 -0.4,-0.1 -0.1,-0.1 -0.2,-0.2 -0.3,-0.3 l -2.7,-4.9 c 0,-0.1 -0.1,-0.1 -0.2,-0.1 l -3.1,0 c -0.1,0 -0.1,0 -0.1,0.1 l 0,4.8 c 0,0.3 -0.2,0.5 -0.5,0.5 l -3.6,0 c -0.3,0 -0.5,-0.2 -0.5,-0.5 l 0,-17.1 c 0,-0.3 0.2,-0.5 0.5,-0.5 l 11.7,0 c 0.4,0 0.8,0.1 1.2,0.2 0.4,0.2 0.7,0.4 1,0.6 0.3,0.3 0.5,0.6 0.6,1 0.2,0.4 0.2,0.8 0.2,1.2 l 0,6.8 c 0,0.7 -0.2,1.2 -0.6,1.8 -0.4,0.5 -0.9,0.9 -1.5,1.1 l -0.1,0 c -0.1,0 -0.1,0.1 -0.1,0.2 l 0,0.1 2.9,4.7 z m -5.1,-13.5 -6.2,0 0,4.4 6.2,0 0,-4.4 z"
           id="path4181"
           inkscape:connector-curvature="0"
           style="fill:#353535" /><path
           class="st3"
           d="m 334,337.6 c 0.1,0 0.2,0 0.3,0.1 0.1,0.1 0.1,0.2 0.1,0.3 l 0,3.4 c 0,0.1 0,0.3 -0.1,0.3 -0.1,0.1 -0.2,0.1 -0.3,0.1 l -11.1,0 c -0.3,0 -0.5,-0.2 -0.5,-0.5 l 0,-17.1 c 0,-0.3 0.2,-0.5 0.5,-0.5 l 3.6,0 c 0.3,0 0.5,0.2 0.5,0.5 l 0,12.7 c 0,0.1 0,0.2 0.1,0.3 0.1,0.1 0.2,0.1 0.3,0.1 l 6.6,0 z"
           id="path4183"
           inkscape:connector-curvature="0"
           style="fill:#353535" /><path
           class="st3"
           d="m 350.7,324.1 c 0.1,0.1 0.1,0.2 0.1,0.3 l 0,1.5 0,0.8 0,1 c 0,0.1 0,0.2 -0.1,0.3 -0.1,0.1 -0.2,0.1 -0.3,0.1 l -1.8,0 -5.4,0 -1.4,0 c -0.1,0 -0.1,0 -0.1,0.1 l 0,2.8 c 0,0.1 0,0.1 0.1,0.1 l 7.4,0 c 0.1,0 0.2,0 0.3,0.1 0.1,0.1 0.1,0.2 0.1,0.3 l 0,2.6 c 0,0.1 0,0.3 -0.1,0.3 -0.1,0.1 -0.2,0.1 -0.3,0.1 l -7.4,0 c -0.1,0 -0.1,0 -0.1,0.1 l 0,1.3 0,0 0,1.5 c 0,0.1 0,0.1 0.1,0.1 l 1.1,0 5.8,0 1.7,0 c 0.1,0 0.3,0 0.3,0.1 0.1,0.1 0.1,0.2 0.1,0.3 l 0,1 0,1.3 0,0.9 c 0,0.1 0,0.3 -0.1,0.3 -0.1,0.1 -0.2,0.1 -0.3,0.1 l -1.5,0 -9.8,0 -1.5,0 c -0.3,0 -0.5,-0.2 -0.5,-0.5 l 0,-0.9 0,-15 0,-1.2 c 0,-0.1 0,-0.3 0.1,-0.3 0.1,-0.1 0.2,-0.1 0.3,-0.1 l 1.9,0 10.1,0 0.8,0 c 0.2,0.4 0.3,0.5 0.4,0.6 z"
           id="path4185"
           inkscape:connector-curvature="0"
           style="fill:#353535" /><path
           class="st3"
           d="m 367.1,323.9 c 0.4,0 0.8,0.1 1.2,0.2 0.4,0.2 0.7,0.4 1,0.6 0.3,0.3 0.5,0.6 0.6,1 0.1,0.4 0.2,0.8 0.2,1.2 l 0,14.6 c 0,0.1 0,0.3 -0.1,0.3 -0.1,0.1 -0.2,0.1 -0.3,0.1 l -3.7,0 c -0.1,0 -0.3,0 -0.3,-0.1 -0.1,-0.1 -0.1,-0.2 -0.1,-0.3 l 0,-4.6 c 0,-0.1 0,-0.3 -0.1,-0.3 -0.1,-0.1 -0.2,-0.1 -0.3,-0.1 l -5.2,0 c -0.1,0 -0.3,0 -0.3,0.1 -0.1,0.1 -0.1,0.2 -0.1,0.3 l 0,4.6 c 0,0.3 -0.2,0.5 -0.5,0.5 l -3.6,0 c -0.3,0 -0.5,-0.2 -0.5,-0.5 l 0,-14.6 c 0,-0.4 0.1,-0.8 0.2,-1.2 0.2,-0.4 0.4,-0.7 0.6,-1 0.3,-0.3 0.6,-0.5 1,-0.6 0.4,-0.2 0.8,-0.2 1.2,-0.2 l 9.1,0 z m -1.6,8.6 0,-4.5 -6.1,0 0,4.5 6.1,0 z"
           id="path4187"
           inkscape:connector-curvature="0"
           style="fill:#353535" /><path
           class="st3"
           d="m 389.2,332.3 c 0.1,0.1 0.1,0.2 0.1,0.3 l 0,6.4 c 0,0.4 -0.1,0.8 -0.2,1.2 -0.2,0.4 -0.4,0.7 -0.6,1 -0.3,0.3 -0.6,0.5 -1,0.6 -0.4,0.2 -0.8,0.2 -1.2,0.2 l -9.1,0 c -0.4,0 -0.8,-0.1 -1.2,-0.2 -0.4,-0.2 -0.7,-0.4 -1,-0.6 -0.3,-0.3 -0.5,-0.6 -0.6,-1 -0.2,-0.4 -0.2,-0.8 -0.2,-1.2 l 0,-12 c 0,-0.4 0.1,-0.8 0.2,-1.2 0.1,-0.4 0.4,-0.7 0.6,-1 0.3,-0.3 0.6,-0.5 1,-0.6 0.4,-0.2 0.8,-0.2 1.2,-0.2 l 10.7,0 c 0.1,0 0.3,0 0.3,0.1 0.1,0.1 0.1,0.2 0.1,0.3 l 0,3.4 c 0,0.1 0,0.3 -0.1,0.3 -0.1,0.1 -0.2,0.1 -0.3,0.1 l -8.6,0 c -0.1,0 -0.3,0 -0.3,0.1 -0.1,0.1 -0.1,0.2 -0.1,0.3 l 0,8.4 c 0,0.1 0,0.2 0.1,0.3 0.1,0.1 0.2,0.1 0.3,0.1 l 5.1,0 c 0.1,0 0.2,0 0.3,-0.1 0.1,-0.1 0.1,-0.2 0.1,-0.3 l 0,-4.5 c 0,-0.1 0,-0.3 0.1,-0.3 0.1,-0.1 0.2,-0.1 0.3,-0.1 l 3.6,0 c 0.1,0 0.3,0.1 0.4,0.2 z"
           id="path4189"
           inkscape:connector-curvature="0"
           style="fill:#353535" /><path
           class="st3"
           d="m 408.2,324.1 c 0.1,0.1 0.1,0.2 0.1,0.3 l 0,14.6 c 0,0.4 -0.1,0.8 -0.2,1.2 -0.2,0.4 -0.4,0.7 -0.6,1 -0.3,0.3 -0.6,0.5 -1,0.6 -0.4,0.2 -0.8,0.2 -1.2,0.2 l -9.1,0 c -0.4,0 -0.8,-0.1 -1.2,-0.2 -0.4,-0.2 -0.7,-0.4 -1,-0.6 -0.3,-0.3 -0.5,-0.6 -0.6,-1 -0.2,-0.4 -0.2,-0.8 -0.2,-1.2 l 0,-14.6 c 0,-0.3 0.2,-0.5 0.5,-0.5 l 3.6,0 c 0.3,0 0.5,0.2 0.5,0.5 l 0,12.7 c 0,0.1 0,0.2 0.1,0.3 0.1,0.1 0.2,0.1 0.3,0.1 l 5.1,0 c 0.1,0 0.2,0 0.3,-0.1 0.1,-0.1 0.1,-0.2 0.1,-0.3 l 0,-12.7 c 0,-0.1 0,-0.3 0.1,-0.3 0.1,-0.1 0.2,-0.1 0.3,-0.1 l 3.6,0 c 0.3,-0.1 0.4,0 0.5,0.1 z"
           id="path4191"
           inkscape:connector-curvature="0"
           style="fill:#353535" /><path
           class="st3"
           d="m 426.1,324.1 c 0.1,0.1 0.1,0.2 0.1,0.3 l 0,1.5 0,0.8 0,1 c 0,0.1 0,0.2 -0.1,0.3 -0.1,0.1 -0.2,0.1 -0.3,0.1 l -1.8,0 -5.4,0 -1.4,0 c -0.1,0 -0.1,0 -0.1,0.1 l 0,2.8 c 0,0.1 0,0.1 0.1,0.1 l 7.4,0 c 0.1,0 0.2,0 0.3,0.1 0.1,0.1 0.1,0.2 0.1,0.3 l 0,2.6 c 0,0.1 0,0.3 -0.1,0.3 -0.1,0.1 -0.2,0.1 -0.3,0.1 l -7.4,0 c -0.1,0 -0.1,0 -0.1,0.1 l 0,1.3 0,0 0,1.5 c 0,0.1 0,0.1 0.1,0.1 l 1.1,0 5.8,0 1.7,0 c 0.1,0 0.3,0 0.3,0.1 0.1,0.1 0.1,0.2 0.1,0.3 l 0,1 0,1.3 0,0.9 c 0,0.1 0,0.3 -0.1,0.3 -0.1,0.1 -0.2,0.1 -0.3,0.1 l -1.5,0 -9.8,0 -1.5,0 c -0.3,0 -0.5,-0.2 -0.5,-0.5 l 0,-0.9 0,-15 0,-1.2 c 0,-0.1 0,-0.3 0.1,-0.3 0.1,-0.1 0.2,-0.1 0.3,-0.1 l 1.9,0 10.1,0 0.8,0 c 0.2,0.4 0.3,0.5 0.4,0.6 z"
           id="path4193"
           inkscape:connector-curvature="0"
           style="fill:#353535" /><path
           class="st3"
           d="m 453.8,323.9 c 0.1,0 0.3,0 0.3,0.1 0.1,0.1 0.1,0.2 0.1,0.3 l 0,17.1 c 0,0.1 0,0.3 -0.1,0.3 -0.1,0.1 -0.2,0.1 -0.3,0.1 l -3.6,0 c -0.1,0 -0.3,0 -0.3,-0.1 -0.1,-0.1 -0.1,-0.2 -0.1,-0.3 l 0,-6 c 0,-0.1 0,-0.2 -0.1,-0.3 -0.1,-0.1 -0.2,-0.1 -0.3,-0.1 l -5.1,0 c -0.1,0 -0.3,0 -0.3,0.1 -0.1,0.1 -0.1,0.2 -0.1,0.3 l 0,6 c 0,0.3 -0.2,0.5 -0.5,0.5 l -3.6,0 c -0.3,0 -0.5,-0.2 -0.5,-0.5 l 0,-17.1 c 0,-0.3 0.2,-0.5 0.5,-0.5 l 3.6,0 c 0.3,0 0.5,0.2 0.5,0.5 l 0,5.8 c 0,0.3 0.2,0.5 0.5,0.5 l 5.1,0 c 0.1,0 0.2,0 0.3,-0.1 0.1,-0.1 0.1,-0.2 0.1,-0.3 l 0,-5.8 c 0,-0.1 0,-0.3 0.1,-0.3 0.1,-0.1 0.2,-0.1 0.3,-0.1 l 3.5,0 z"
           id="path4195"
           inkscape:connector-curvature="0"
           style="fill:#353535" /><path
           class="st3"
           d="m 470.5,323.9 c 0.4,0 0.8,0.1 1.2,0.2 0.4,0.2 0.7,0.4 1,0.6 0.3,0.3 0.5,0.6 0.6,1 0.1,0.4 0.2,0.8 0.2,1.2 l 0,14.6 c 0,0.1 0,0.3 -0.1,0.3 -0.1,0.1 -0.2,0.1 -0.3,0.1 l -3.6,0 c -0.1,0 -0.3,0 -0.3,-0.1 -0.1,-0.1 -0.1,-0.2 -0.1,-0.3 l 0,-4.6 c 0,-0.1 0,-0.3 -0.1,-0.3 -0.1,-0.1 -0.2,-0.1 -0.3,-0.1 l -5.1,0 c -0.1,0 -0.3,0 -0.3,0.1 -0.1,0.1 -0.1,0.2 -0.1,0.3 l 0,4.6 c 0,0.3 -0.2,0.5 -0.5,0.5 l -3.6,0 c -0.3,0 -0.5,-0.2 -0.5,-0.5 l 0,-14.6 c 0,-0.4 0.1,-0.8 0.2,-1.2 0.2,-0.4 0.4,-0.7 0.6,-1 0.3,-0.3 0.6,-0.5 1,-0.6 0.4,-0.2 0.8,-0.2 1.2,-0.2 l 8.9,0 z m -1.5,8.6 0,-4.5 -6.1,0 0,4.5 6.1,0 z"
           id="path4197"
           inkscape:connector-curvature="0"
           style="fill:#353535" /><path
           class="st3"
           d="m 482.2,328.4 c -0.1,0.1 -0.1,0.2 -0.1,0.3 l 0,8.4 c 0,0.1 0,0.2 0.1,0.3 0.1,0.1 0.2,0.1 0.3,0.1 l 8.3,0 c 0.1,0 0.3,0 0.3,0.1 0.1,0.1 0.1,0.2 0.1,0.3 l 0,3.4 c 0,0.1 0,0.3 -0.1,0.3 -0.1,0.1 -0.2,0.1 -0.3,0.1 l -5.4,0 -4.4,0 -0.5,0 c -0.4,0 -0.8,-0.1 -1.2,-0.2 -0.4,-0.2 -0.7,-0.4 -1,-0.6 -0.3,-0.3 -0.5,-0.6 -0.6,-1 -0.2,-0.4 -0.2,-0.8 -0.2,-1.2 l 0,-0.5 0,-1.9 0,-6 0,-1.7 0,-2 c 0,-0.4 0.1,-0.8 0.2,-1.2 0.2,-0.4 0.4,-0.7 0.6,-1 0.3,-0.3 0.6,-0.5 1,-0.6 0.4,-0.2 0.8,-0.2 1.2,-0.2 l 0.5,0 9.8,0 c 0.1,0 0.3,0 0.3,0.1 0.1,0.1 0.1,0.2 0.1,0.3 l 0,3.4 c 0,0.1 0,0.3 -0.1,0.3 -0.1,0.1 -0.2,0.1 -0.3,0.1 l -8.3,0 c -0.1,0.5 -0.2,0.6 -0.3,0.6 z"
           id="path4199"
           inkscape:connector-curvature="0"
           style="fill:#353535" /><path
           class="st3"
           d="m 505.7,331.5 c -0.1,0.1 -0.1,0.1 0,0.2 l 6,9.9 c 0.1,0.1 0.1,0.2 0,0.3 -0.1,0.1 -0.1,0.1 -0.3,0.1 l -4.3,0 c -0.1,0 -0.3,0 -0.4,-0.1 -0.1,-0.1 -0.2,-0.2 -0.3,-0.3 l -3.9,-7 c -0.1,-0.1 -0.1,-0.1 -0.1,0 l -2.1,2.3 c -0.1,0.1 -0.2,0.2 -0.2,0.4 -0.1,0.2 -0.1,0.3 -0.1,0.5 l 0,3.8 c 0,0.3 -0.2,0.5 -0.5,0.5 l -3.5,0 c -0.3,0 -0.5,-0.2 -0.5,-0.5 l 0,-17.1 c 0,-0.3 0.2,-0.5 0.5,-0.5 l 3.6,0 c 0.3,0 0.5,0.2 0.5,0.5 l 0,7.7 6.7,-7.8 c 0.1,-0.1 0.2,-0.2 0.4,-0.3 0.2,-0.1 0.3,-0.1 0.4,-0.1 l 4.3,0 c 0.1,0 0.2,0 0.2,0.1 0,0.1 0,0.2 -0.1,0.3 l -6.3,7.1 z"
           id="path4201"
           inkscape:connector-curvature="0"
           style="fill:#353535" /><path
           class="st3"
           d="m 519.6,341.5 c 0,0.3 -0.2,0.5 -0.5,0.5 l -3.6,0 c -0.3,0 -0.5,-0.2 -0.5,-0.5 l 0,-17.1 c 0,-0.3 0.2,-0.5 0.5,-0.5 l 3.6,0 c 0.3,0 0.5,0.2 0.5,0.5 l 0,17.1 z"
           id="path4203"
           inkscape:connector-curvature="0"
           style="fill:#353535" /><path
           class="st3"
           d="m 537,324.2 c 0.4,0.2 0.7,0.4 1,0.6 0.3,0.3 0.5,0.6 0.6,1 0.2,0.4 0.2,0.8 0.2,1.2 l 0,14.6 c 0,0.1 0,0.3 -0.1,0.3 -0.1,0.1 -0.2,0.1 -0.3,0.1 l -3.6,0 c -0.1,0 -0.2,0 -0.3,-0.1 -0.1,-0.1 -0.1,-0.2 -0.1,-0.3 l 0,-12.7 c 0,-0.1 0,-0.2 -0.1,-0.3 -0.1,-0.1 -0.2,-0.1 -0.3,-0.1 l -5.1,0 c -0.1,0 -0.3,0 -0.3,0.1 0,0.1 -0.1,0.2 -0.1,0.3 l 0,12.7 c 0,0.3 -0.2,0.5 -0.5,0.5 l -3.6,0 c -0.3,0 -0.5,-0.2 -0.5,-0.5 l 0,-17.1 c 0,-0.3 0.2,-0.5 0.5,-0.5 l 11.7,0 c 0.2,-0.1 0.6,0 0.9,0.2 z"
           id="path4205"
           inkscape:connector-curvature="0"
           style="fill:#353535" /><path
           class="st3"
           d="m 557.9,332.3 c 0.1,0.1 0.1,0.2 0.1,0.3 l 0,6.4 c 0,0.4 -0.1,0.8 -0.2,1.2 -0.2,0.4 -0.4,0.7 -0.6,1 -0.3,0.3 -0.6,0.5 -1,0.6 -0.4,0.2 -0.8,0.2 -1.2,0.2 l -9.1,0 c -0.4,0 -0.8,-0.1 -1.2,-0.2 -0.4,-0.2 -0.7,-0.4 -1,-0.6 -0.3,-0.3 -0.5,-0.6 -0.6,-1 -0.2,-0.4 -0.2,-0.8 -0.2,-1.2 l 0,-12 c 0,-0.4 0.1,-0.8 0.2,-1.2 0.1,-0.4 0.4,-0.7 0.6,-1 0.3,-0.3 0.6,-0.5 1,-0.6 0.4,-0.2 0.8,-0.2 1.2,-0.2 l 10.7,0 c 0.1,0 0.3,0 0.3,0.1 0.1,0.1 0.1,0.2 0.1,0.3 l 0,3.4 c 0,0.1 0,0.3 -0.1,0.3 -0.1,0.1 -0.2,0.1 -0.3,0.1 l -8.6,0 c -0.1,0 -0.3,0 -0.3,0.1 -0.1,0.1 -0.1,0.2 -0.1,0.3 l 0,8.4 c 0,0.1 0,0.2 0.1,0.3 0.1,0.1 0.2,0.1 0.3,0.1 l 5.1,0 c 0.1,0 0.2,0 0.3,-0.1 0.1,-0.1 0.1,-0.2 0.1,-0.3 l 0,-4.5 c 0,-0.1 0,-0.3 0.1,-0.3 0.1,-0.1 0.2,-0.1 0.3,-0.1 l 3.6,0 c 0.2,0 0.3,0.1 0.4,0.2 z"
           id="path4207"
           inkscape:connector-curvature="0"
           style="fill:#353535" /></g></g><g
       id="g4209"><path
         class="st4"
         d="m 324.9,199.5 c 2.3,1 4.3,2.4 6,4.1 1.7,1.7 3,3.7 4.1,6 1,2.3 1.5,4.8 1.5,7.4 l 0,94.8 c 0,0.9 -0.3,1.6 -0.9,2.2 -0.6,0.6 -1.3,0.9 -2.2,0.9 l -22.7,0 c -0.9,0 -1.6,-0.3 -2.1,-0.9 -0.5,-0.6 -0.8,-1.3 -0.8,-2.2 l 0,-86.2 -18.3,0 0,86.2 c 0,0.9 -0.3,1.6 -0.8,2.2 -0.5,0.6 -1.3,0.9 -2.1,0.9 l -20.6,0 c -0.9,0 -1.6,-0.3 -2.2,-0.9 -0.6,-0.6 -0.9,-1.3 -0.9,-2.2 l 0,-86.2 -18.3,0 0,86.2 c 0,2.1 -1,3.1 -3.1,3.1 l -22.5,0 c -2.1,0 -3.1,-1 -3.1,-3.1 l 0,-110.7 c 0,-2.1 1,-3.1 3.1,-3.1 l 98.4,0 c 2.7,0 5.1,0.5 7.5,1.5 z"
         id="path4211"
         inkscape:connector-curvature="0"
         style="fill:#c53c02" /><path
         class="st5"
         d="m 324.9,199.5 c 2.3,1 4.3,2.4 6,4.1 1.7,1.7 3,3.7 4.1,6 1,2.3 1.5,4.8 1.5,7.4 l 0,8.4 -28.7,0.2 -18.3,0 -26.5,0 -18.3,0 -28.7,-0.2 0,-24.4 c 0,-2.1 1,-3.1 3.1,-3.1 l 98.4,0 c 2.6,0.1 5,0.6 7.4,1.6 z"
         id="path4213"
         inkscape:connector-curvature="0"
         style="fill:#751b00" /></g><g
       id="g4215"><path
         class="st6"
         d="m 435.4,286.5 c 0.9,0 1.7,0.3 2.2,0.9 0.6,0.6 0.9,1.4 0.9,2.3 l 0,22.1 c 0,0.9 -0.3,1.6 -0.9,2.3 -0.6,0.6 -1.3,0.9 -2.2,0.9 l -77.7,0 c -2.2,0 -3.3,-1.1 -3.3,-3.2 l 0,-110.6 c 0,-2.1 1.1,-3.2 3.3,-3.2 l 23.8,0 c 2.2,0 3.3,1.1 3.3,3.2 l 0,82.4 c 0,0.9 0.3,1.6 1,2.2 0.6,0.6 1.4,0.8 2.3,0.8 l 47.3,0 z"
         id="path4217"
         inkscape:connector-curvature="0"
         style="fill:#265a8f" /><path
         class="st7"
         d="m 384.6,314.9 -26.9,0 c -2.2,0 -3.3,-1.1 -3.3,-3.2 l 0,-110.5 c 0,-2.1 1.1,-3.2 3.3,-3.2 l 23.8,0 c 2.2,0 3.3,1.1 3.3,3.2 l 0,82.4 c 0,0.8 -0.2,31.3 -0.2,31.3 z"
         id="path4219"
         inkscape:connector-curvature="0"
         style="fill:#162f51" /></g><g
       id="g4221"><path
         class="st8"
         d="m 554.8,198 c 0.9,0 1.7,0.3 2.3,0.9 0.6,0.6 1,1.4 1,2.3 l 0,110.9 c 0,0.9 -0.3,1.6 -1,2.3 -0.6,0.6 -1.4,0.9 -2.3,0.9 l -24.2,0 c -0.9,0 -1.7,-0.3 -2.3,-0.9 -0.6,-0.6 -1,-1.4 -1,-2.3 l 0,-38.7 c 0,-0.9 -0.3,-1.6 -0.9,-2.2 -0.6,-0.6 -1.3,-0.8 -2.3,-0.8 l -33.9,0 c -0.9,0 -1.7,0.3 -2.3,0.8 -0.6,0.6 -1,1.3 -1,2.2 l 0,38.7 c 0,2.1 -1.1,3.2 -3.3,3.2 l -24,0 c -2.2,0 -3.3,-1.1 -3.3,-3.2 l 0,-110.9 c 0,-2.1 1.1,-3.2 3.3,-3.2 l 24,0 c 2.2,0 3.3,1.1 3.3,3.2 l 0,37.5 c 0,2.1 1.1,3.2 3.3,3.2 l 33.9,0 c 0.9,0 1.7,-0.3 2.3,-0.9 0.6,-0.6 0.9,-1.4 0.9,-2.3 l 0,-37.5 c 0,-0.9 0.3,-1.6 1,-2.3 0.6,-0.6 1.4,-0.9 2.3,-0.9 l 24.2,0 z"
         id="path4223"
         inkscape:connector-curvature="0"
         style="fill:#fdee00" /><path
         class="st9"
         d="m 487,273.4 0,38.7 c 0,2.1 -1.1,3.2 -3.3,3.2 l -24,0 c -2.2,0 -3.3,-1.1 -3.3,-3.2 l 0,-110.9 c 0,-2.1 1.1,-3.2 3.3,-3.2 l 24,0 c 2.2,0 3.3,1.1 3.3,3.2 l 0,37.5 c 0,2.1 0,33.8 0,34.7 z"
         id="path4225"
         inkscape:connector-curvature="0"
         style="fill:#ecc700" /><path
         class="st9"
         d="m 554.8,198 c 0.9,0 1.7,0.3 2.3,0.9 0.6,0.6 1,1.4 1,2.3 l 0,110.9 c 0,0.9 -0.3,1.6 -1,2.3 -0.6,0.6 -1.4,0.9 -2.3,0.9 l -24.2,0 c -0.9,0 -1.7,-0.3 -2.3,-0.9 -0.6,-0.6 -1,-1.4 -1,-2.3 l 0,-38.7 c 0,-0.9 0,-33.8 0,-34.7 l 0,-37.5 c 0,-0.9 0.3,-1.6 1,-2.3 0.6,-0.6 1.4,-0.9 2.3,-0.9 l 24.2,0 z"
         id="path4227"
         inkscape:connector-curvature="0"
         style="fill:#ecc700" /></g></g><g
     id="Layer_2"
     class="st1"
     style="display:none"
     transform="translate(-214.9,-97.900012)"><g
       class="st10"
       id="g4230"
       style="display:inline"><line
         class="st11"
         x1="216"
         y1="342"
         x2="558"
         y2="342"
         id="line4232"
         style="fill:none;stroke:#000000;stroke-miterlimit:10" /><line
         class="st11"
         x1="558"
         y1="198"
         x2="558"
         y2="342"
         id="line4234"
         style="fill:none;stroke:#000000;stroke-miterlimit:10" /><line
         class="st11"
         x1="216"
         y1="198"
         x2="558"
         y2="198"
         id="line4236"
         style="fill:none;stroke:#000000;stroke-miterlimit:10" /><line
         class="st11"
         x1="216"
         y1="342"
         x2="216"
         y2="198"
         id="line4238"
         style="fill:none;stroke:#000000;stroke-miterlimit:10" /><line
         class="st11"
         x1="216"
         y1="324"
         x2="558"
         y2="324"
         id="line4240"
         style="fill:none;stroke:#000000;stroke-miterlimit:10" /><line
         class="st11"
         x1="216"
         y1="315"
         x2="558"
         y2="315"
         id="line4242"
         style="fill:none;stroke:#000000;stroke-miterlimit:10" /><rect
         x="180"
         y="162"
         class="st11"
         width="414"
         height="216"
         id="rect4244"
         style="fill:none;stroke:#000000;stroke-miterlimit:10" /><line
         class="st11"
         x1="180"
         y1="198"
         x2="216"
         y2="198"
         id="line4246"
         style="fill:none;stroke:#000000;stroke-miterlimit:10" /><line
         class="st11"
         x1="216"
         y1="162"
         x2="216"
         y2="198"
         id="line4248"
         style="fill:none;stroke:#000000;stroke-miterlimit:10" /><line
         class="st11"
         x1="558"
         y1="198"
         x2="594"
         y2="198"
         id="line4250"
         style="fill:none;stroke:#000000;stroke-miterlimit:10" /><line
         class="st11"
         x1="558"
         y1="162"
         x2="558"
         y2="198"
         id="line4252"
         style="fill:none;stroke:#000000;stroke-miterlimit:10" /><line
         class="st11"
         x1="216"
         y1="378"
         x2="216"
         y2="342"
         id="line4254"
         style="fill:none;stroke:#000000;stroke-miterlimit:10" /><line
         class="st11"
         x1="180"
         y1="342"
         x2="216"
         y2="342"
         id="line4256"
         style="fill:none;stroke:#000000;stroke-miterlimit:10" /><line
         class="st11"
         x1="558"
         y1="342"
         x2="594"
         y2="342"
         id="line4258"
         style="fill:none;stroke:#000000;stroke-miterlimit:10" /><line
         class="st11"
         x1="558"
         y1="378"
         x2="558"
         y2="342"
         id="line4260"
         style="fill:none;stroke:#000000;stroke-miterlimit:10" /><line
         class="st11"
         x1="558"
         y1="324"
         x2="594"
         y2="324"
         id="line4262"
         style="fill:none;stroke:#000000;stroke-miterlimit:10" /><line
         class="st11"
         x1="558"
         y1="315"
         x2="594"
         y2="315"
         id="line4264"
         style="fill:none;stroke:#000000;stroke-miterlimit:10" /><line
         class="st11"
         x1="180"
         y1="315"
         x2="216"
         y2="315"
         id="line4266"
         style="fill:none;stroke:#000000;stroke-miterlimit:10" /><line
         class="st11"
         x1="180"
         y1="324"
         x2="216"
         y2="324"
         id="line4268"
         style="fill:none;stroke:#000000;stroke-miterlimit:10" /><g
         id="g4270"><path
           d="m 197.5,183.2 -1.3,0 0,2.3 -2.3,0 0,-2.3 -4.7,0 0,-1.6 4.9,-7.2 2.2,0 0,7 1.3,0 0,1.8 z m -3.6,-1.8 0,-1.9 c 0,-0.3 0,-0.8 0,-1.4 0,-0.6 0,-0.9 0.1,-1 l -0.1,0 c -0.2,0.4 -0.4,0.8 -0.7,1.2 l -2,3.1 2.7,0 z"
           id="path4272"
           inkscape:connector-curvature="0" /><path
           d="m 200.7,181.2 -2.7,-4.2 2.6,0 1.6,2.7 1.7,-2.7 2.6,0 -2.8,4.2 2.9,4.3 -2.6,0 -1.8,-2.9 -1.8,2.9 -2.6,0 2.9,-4.3 z"
           id="path4274"
           inkscape:connector-curvature="0" /></g><g
         id="g4276"><path
           d="m 575.6,183.2 -1.3,0 0,2.3 -2.3,0 0,-2.3 -4.7,0 0,-1.6 4.9,-7.2 2.2,0 0,7 1.3,0 0,1.8 z m -3.6,-1.8 0,-1.9 c 0,-0.3 0,-0.8 0,-1.4 0,-0.6 0,-0.9 0.1,-1 l -0.1,0 c -0.2,0.4 -0.4,0.8 -0.7,1.2 l -2,3.1 2.7,0 z"
           id="path4278"
           inkscape:connector-curvature="0" /><path
           d="m 578.8,181.2 -2.7,-4.2 2.6,0 1.6,2.7 1.7,-2.7 2.6,0 -2.8,4.2 2.9,4.3 -2.6,0 -1.8,-2.9 -1.8,2.9 -2.6,0 2.9,-4.3 z"
           id="path4280"
           inkscape:connector-curvature="0" /></g><g
         id="g4282"><path
           d="m 575.6,363.2 -1.3,0 0,2.3 -2.3,0 0,-2.3 -4.7,0 0,-1.6 4.9,-7.2 2.2,0 0,7 1.3,0 0,1.8 z m -3.6,-1.8 0,-1.9 c 0,-0.3 0,-0.8 0,-1.4 0,-0.6 0,-0.9 0.1,-1 l -0.1,0 c -0.2,0.4 -0.4,0.8 -0.7,1.2 l -2,3.1 2.7,0 z"
           id="path4284"
           inkscape:connector-curvature="0" /><path
           d="m 578.8,361.2 -2.7,-4.2 2.6,0 1.6,2.7 1.7,-2.7 2.6,0 -2.8,4.2 2.9,4.3 -2.6,0 -1.8,-2.9 -1.8,2.9 -2.6,0 2.9,-4.3 z"
           id="path4286"
           inkscape:connector-curvature="0" /></g><g
         id="g4288"><path
           d="m 197.1,363.2 -1.3,0 0,2.3 -2.3,0 0,-2.3 -4.7,0 0,-1.6 4.9,-7.2 2.2,0 0,7 1.3,0 0,1.8 z m -3.6,-1.8 0,-1.9 c 0,-0.3 0,-0.8 0,-1.4 0,-0.6 0,-0.9 0.1,-1 l -0.1,0 c -0.2,0.4 -0.4,0.8 -0.7,1.2 l -2,3.1 2.7,0 z"
           id="path4290"
           inkscape:connector-curvature="0" /><path
           d="m 200.3,361.2 -2.7,-4.2 2.6,0 1.6,2.7 1.7,-2.7 2.6,0 -2.8,4.2 2.9,4.3 -2.6,0 -1.8,-2.9 -1.8,2.9 -2.6,0 2.9,-4.3 z"
           id="path4292"
           inkscape:connector-curvature="0" /></g><text
         transform="translate(586,322.9297)"
         class="st12 st13"
         id="text4294"
         style="font-size:12px;font-family:OpenSans-Bold">x</text>
<text
         transform="translate(182.5,322.9297)"
         class="st12 st13"
         id="text4296"
         style="font-size:12px;font-family:OpenSans-Bold">x</text>
</g></g></svg>